<?xml version="1.0" encoding="UTF-8"?><svg id="a" xmlns="http://www.w3.org/2000/svg" xmlns:xlink="http://www.w3.org/1999/xlink" viewBox="0 0 300 75"><defs><style>.i{fill:url(#c);}.j{fill:#303030;}.k{fill:url(#f);}.l{fill:url(#g);}.m{fill:url(#b);}.n{fill:url(#h);}.o{fill:#068746;}.p{fill:url(#d);}.q{fill:url(#e);}</style><linearGradient id="b" x1="53.63" y1="30.33" x2="63.99" y2="30.33" gradientTransform="matrix(1, 0, 0, 1, 0, 0)" gradientUnits="userSpaceOnUse"><stop offset="0" stop-color="#122315"/><stop offset=".7" stop-color="#677e36"/><stop offset=".95" stop-color="#708236"/><stop offset="1" stop-color="#738336"/></linearGradient><linearGradient id="c" x1="52.88" y1="44.18" x2="72.09" y2="44.18" xlink:href="#b"/><linearGradient id="d" x1="30.84" y1="40.88" x2="63.75" y2="40.88" xlink:href="#b"/><linearGradient id="e" x1="53.52" y1="29.71" x2="63.91" y2="29.71" gradientTransform="matrix(1, 0, 0, 1, 0, 0)" gradientUnits="userSpaceOnUse"><stop offset="0" stop-color="#0b793d"/><stop offset=".64" stop-color="#7bb640"/><stop offset=".7" stop-color="#87bd40"/><stop offset=".99" stop-color="#95c13d"/><stop offset="1" stop-color="#95c13d"/></linearGradient><linearGradient id="f" x1="30.71" y1="40.27" x2="63.69" y2="40.27" xlink:href="#e"/><linearGradient id="g" x1="53.11" y1="44.19" x2="71.85" y2="44.19" xlink:href="#e"/><linearGradient id="h" x1="219.21" y1="18.76" x2="266.89" y2="18.76" gradientTransform="matrix(1, 0, 0, 1, 0, 0)" gradientUnits="userSpaceOnUse"><stop offset="0" stop-color="#7c2982"/><stop offset=".05" stop-color="#7c2982"/><stop offset=".11" stop-color="#624c9c"/><stop offset=".22" stop-color="#2c94d2"/><stop offset=".25" stop-color="#389bad"/><stop offset=".3" stop-color="#4aa676"/><stop offset=".34" stop-color="#56ad54"/><stop offset=".36" stop-color="#5ab047"/><stop offset=".39" stop-color="#8ac140"/><stop offset=".43" stop-color="#bcd338"/><stop offset=".47" stop-color="#e0df33"/><stop offset=".5" stop-color="#f6e72f"/><stop offset=".52" stop-color="#feea2e"/><stop offset=".52" stop-color="#fee92d"/><stop offset=".66" stop-color="#fdc90b"/><stop offset=".78" stop-color="#f08f35"/><stop offset=".86" stop-color="#eb6f31"/><stop offset=".89" stop-color="#e9612f"/><stop offset=".91" stop-color="#e7572f"/><stop offset=".96" stop-color="#e33a2e"/><stop offset="1" stop-color="#de1e2e"/></linearGradient></defs><g><path class="j" d="M35.54,73.38c-.89,0-1.48-.23-2.04-.79l.43-.43c.49,.49,.96,.64,1.63,.64,.88,0,1.42-.4,1.42-1.11,0-.32-.09-.57-.29-.75-.19-.17-.35-.23-.78-.29l-.7-.1c-.47-.07-.82-.22-1.09-.45-.3-.27-.46-.64-.46-1.12,0-1.01,.73-1.68,1.91-1.68,.76,0,1.26,.2,1.78,.66l-.41,.41c-.36-.34-.77-.52-1.39-.52-.81,0-1.27,.44-1.27,1.12,0,.29,.08,.53,.27,.69,.18,.16,.47,.26,.78,.31l.7,.11c.55,.08,.81,.18,1.08,.43,.32,.28,.5,.68,.5,1.17,0,1.05-.82,1.7-2.06,1.7"/><polygon class="j" points="40.94 73.33 40.94 67.35 44.65 67.35 44.65 67.93 41.58 67.93 41.58 70.03 44.2 70.03 44.2 70.6 41.58 70.6 41.58 72.75 44.65 72.75 44.65 73.33 40.94 73.33"/><path class="j" d="M49.84,73.38c-.62,0-1.12-.22-1.49-.59-.56-.56-.59-1.08-.59-2.45s.03-1.89,.59-2.45c.37-.37,.87-.59,1.49-.59,1.08,0,1.86,.67,2.07,1.78h-.65c-.16-.74-.67-1.21-1.42-1.21-.4,0-.76,.14-1.03,.42-.38,.38-.42,.82-.42,2.05s.04,1.66,.42,2.05c.28,.28,.63,.42,1.03,.42,.75,0,1.27-.47,1.43-1.21h.64c-.21,1.12-1,1.78-2.07,1.78"/><polygon class="j" points="56.9 67.93 56.9 73.33 56.26 73.33 56.26 67.93 54.53 67.93 54.53 67.35 58.63 67.35 58.63 67.93 56.9 67.93"/><path class="j" d="M64.92,72.79c-.37,.37-.86,.59-1.48,.59s-1.12-.22-1.49-.59c-.56-.56-.6-1.08-.6-2.45s.03-1.89,.6-2.45c.37-.37,.87-.59,1.49-.59s1.12,.22,1.48,.59c.56,.56,.6,1.08,.6,2.45s-.04,1.89-.6,2.45m-.45-4.49c-.28-.28-.63-.42-1.03-.42s-.75,.14-1.03,.42c-.38,.39-.42,.82-.42,2.05s.04,1.66,.42,2.05c.28,.28,.63,.42,1.03,.42s.76-.14,1.03-.42c.38-.39,.42-.82,.42-2.05s-.04-1.66-.42-2.05Z"/><path class="j" d="M72.46,73.33l-1.36-2.65h-1.43v2.65h-.64v-5.97h2.29c1.04,0,1.77,.63,1.77,1.66,0,.87-.53,1.44-1.3,1.6l1.42,2.71h-.75Zm-1.2-5.4h-1.59v2.19h1.59c.7,0,1.19-.36,1.19-1.09s-.49-1.1-1.19-1.1Z"/><path class="j" d="M81.87,73.39c-.94,0-1.7-.5-1.75-1.58h.6c.05,.75,.58,1.04,1.15,1.04,.65,0,1.15-.43,1.15-1.16s-.36-1.16-1.17-1.16h-.13v-.53h.13c.73,0,1.07-.41,1.07-1.08,0-.71-.46-1.09-1.04-1.09-.63,0-1.01,.39-1.07,1h-.6c.07-.96,.77-1.54,1.68-1.54,.97,0,1.64,.65,1.64,1.62,0,.63-.27,1.08-.81,1.32,.6,.23,.92,.71,.92,1.46,0,1.1-.78,1.69-1.75,1.69"/><path class="j" d="M88.35,73.38c-1.01,0-1.66-.69-1.66-1.72,0-.43,.13-.84,.38-1.34l1.47-2.96h.62l-1.33,2.69c.19-.08,.39-.13,.63-.13,.93,0,1.55,.71,1.55,1.69s-.64,1.77-1.65,1.77m0-2.95c-.64,0-1.05,.47-1.05,1.21s.41,1.21,1.05,1.21,1.06-.48,1.06-1.21c0-.66-.37-1.21-1.06-1.21Z"/><polygon class="j" points="93.26 74.53 93.26 72.59 94 72.59 94 73.87 93.26 74.53"/><path class="j" d="M103.23,73.38c-.89,0-1.48-.23-2.04-.79l.43-.43c.49,.49,.96,.64,1.63,.64,.88,0,1.42-.4,1.42-1.11,0-.32-.09-.57-.29-.75-.18-.17-.35-.23-.78-.29l-.7-.1c-.47-.07-.82-.22-1.09-.45-.3-.27-.46-.64-.46-1.12,0-1.01,.73-1.68,1.91-1.68,.76,0,1.27,.2,1.78,.66l-.41,.41c-.36-.34-.77-.52-1.39-.52-.8,0-1.26,.44-1.26,1.12,0,.29,.08,.53,.27,.69,.19,.16,.47,.26,.78,.31l.69,.11c.55,.08,.82,.18,1.08,.43,.32,.28,.5,.68,.5,1.17,0,1.05-.81,1.7-2.06,1.7"/><path class="j" d="M111.98,72.79c-.37,.37-.86,.59-1.48,.59s-1.12-.22-1.49-.59c-.56-.56-.59-1.08-.59-2.45s.03-1.89,.59-2.45c.37-.37,.87-.59,1.49-.59s1.12,.22,1.48,.59c.56,.56,.6,1.08,.6,2.45s-.04,1.89-.6,2.45m-.45-4.49c-.28-.28-.63-.42-1.03-.42s-.76,.14-1.03,.42c-.38,.39-.42,.82-.42,2.05s.04,1.66,.42,2.05c.28,.28,.63,.42,1.03,.42s.75-.14,1.03-.42c.38-.39,.42-.82,.42-2.05s-.04-1.66-.42-2.05Z"/><polygon class="j" points="119.55 73.33 119.55 70.6 116.72 70.6 116.72 73.33 116.08 73.33 116.08 67.35 116.72 67.35 116.72 70.03 119.55 70.03 119.55 67.35 120.19 67.35 120.19 73.33 119.55 73.33"/><polygon class="j" points="127.72 73.33 124.55 68.54 124.55 73.33 123.91 73.33 123.91 67.35 124.52 67.35 127.69 72.13 127.69 67.35 128.32 67.35 128.32 73.33 127.72 73.33"/><path class="j" d="M135.53,73.33l-.48-1.35h-2.61l-.48,1.35h-.68l2.2-5.97h.54l2.19,5.97h-.68Zm-1.77-5.06l-1.12,3.15h2.23l-1.11-3.15Z"/><polygon class="j" points="139.05 74.53 139.05 72.59 139.79 72.59 139.79 73.87 139.05 74.53"/><path class="j" d="M149.02,73.38c-.89,0-1.48-.23-2.04-.79l.43-.43c.49,.49,.96,.64,1.63,.64,.88,0,1.42-.4,1.42-1.11,0-.32-.09-.57-.29-.75-.18-.17-.35-.23-.78-.29l-.7-.1c-.47-.07-.82-.22-1.09-.45-.3-.27-.46-.64-.46-1.12,0-1.01,.73-1.68,1.91-1.68,.76,0,1.27,.2,1.78,.66l-.41,.41c-.36-.34-.77-.52-1.39-.52-.8,0-1.27,.44-1.27,1.12,0,.29,.08,.53,.27,.69,.19,.16,.47,.26,.78,.31l.69,.11c.55,.08,.81,.18,1.08,.43,.32,.28,.5,.68,.5,1.17,0,1.05-.81,1.7-2.06,1.7"/><path class="j" d="M157.76,72.79c-.37,.37-.86,.59-1.48,.59s-1.12-.22-1.49-.59c-.56-.56-.59-1.08-.59-2.45s.03-1.89,.59-2.45c.37-.37,.87-.59,1.49-.59s1.12,.22,1.48,.59c.56,.56,.6,1.08,.6,2.45s-.04,1.89-.6,2.45m-.45-4.49c-.28-.28-.63-.42-1.03-.42s-.76,.14-1.03,.42c-.38,.39-.42,.82-.42,2.05s.04,1.66,.42,2.05c.28,.28,.63,.42,1.03,.42s.75-.14,1.03-.42c.38-.39,.42-.82,.42-2.05s-.04-1.66-.42-2.05Z"/><path class="j" d="M163.86,73.38c-1.21,0-2.08-.83-2.08-2.02v-4h.64v3.95c0,.9,.57,1.5,1.44,1.5s1.45-.59,1.45-1.5v-3.95h.64v4c0,1.19-.88,2.02-2.09,2.02"/><polygon class="j" points="171.34 67.93 171.34 73.33 170.7 73.33 170.7 67.93 168.97 67.93 168.97 67.35 173.07 67.35 173.07 67.93 171.34 67.93"/><polygon class="j" points="179.66 73.33 179.66 70.6 176.82 70.6 176.82 73.33 176.19 73.33 176.19 67.35 176.82 67.35 176.82 70.03 179.66 70.03 179.66 67.35 180.29 67.35 180.29 73.33 179.66 73.33"/><path class="j" d="M191.45,72.79c-.37,.37-.86,.59-1.48,.59s-1.12-.22-1.49-.59c-.56-.56-.6-1.08-.6-2.45s.03-1.89,.6-2.45c.37-.37,.87-.59,1.49-.59s1.12,.22,1.48,.59c.56,.56,.6,1.08,.6,2.45s-.04,1.89-.6,2.45m-.45-4.49c-.28-.28-.63-.42-1.03-.42s-.75,.14-1.03,.42c-.38,.39-.42,.82-.42,2.05s.04,1.66,.42,2.05c.28,.28,.63,.42,1.03,.42s.76-.14,1.03-.42c.38-.39,.42-.82,.42-2.05s-.04-1.66-.42-2.05Z"/><polygon class="j" points="196.19 67.93 196.19 70.12 198.8 70.12 198.8 70.69 196.19 70.69 196.19 73.33 195.55 73.33 195.55 67.35 199.26 67.35 199.26 67.93 196.19 67.93"/><path class="j" d="M209.96,72.69c-.42,.46-.98,.69-1.59,.69s-1.12-.22-1.49-.59c-.56-.56-.59-1.08-.59-2.45s.03-1.89,.59-2.45c.37-.37,.87-.59,1.49-.59,1.12,0,1.92,.76,2.09,1.79h-.64c-.17-.76-.71-1.22-1.45-1.22-.41,0-.76,.14-1.03,.42-.38,.38-.42,.82-.42,2.05s.04,1.66,.42,2.05c.27,.28,.62,.42,1.03,.42,.44,0,.85-.17,1.13-.51,.24-.3,.33-.63,.33-1.08v-.46h-1.47v-.54h2.1v.95c0,.69-.13,1.11-.51,1.53"/><path class="j" d="M215.95,73.38c-1.21,0-2.08-.83-2.08-2.02v-4h.64v3.95c0,.9,.57,1.5,1.44,1.5s1.45-.59,1.45-1.5v-3.95h.64v4c0,1.19-.88,2.02-2.09,2.02"/><path class="j" d="M225.1,73.33l-1.36-2.65h-1.44v2.65h-.64v-5.97h2.29c1.04,0,1.77,.63,1.77,1.66,0,.87-.53,1.44-1.3,1.6l1.42,2.71h-.75Zm-1.2-5.4h-1.59v2.19h1.59c.7,0,1.19-.36,1.19-1.09s-.49-1.1-1.19-1.1Z"/><path class="j" d="M231.17,73.38c-1.21,0-2.08-.83-2.08-2.02v-4h.64v3.95c0,.9,.57,1.5,1.44,1.5s1.45-.59,1.45-1.5v-3.95h.64v4c0,1.19-.88,2.02-2.09,2.02"/><path class="j" d="M240.37,72.69c-.42,.46-.98,.69-1.59,.69s-1.12-.22-1.49-.59c-.56-.56-.59-1.08-.59-2.45s.03-1.89,.59-2.45c.37-.37,.87-.59,1.49-.59,1.12,0,1.92,.76,2.09,1.79h-.64c-.17-.76-.71-1.22-1.45-1.22-.41,0-.76,.14-1.03,.42-.38,.38-.42,.82-.42,2.05s.04,1.66,.42,2.05c.27,.28,.62,.42,1.03,.42,.44,0,.85-.17,1.13-.51,.24-.3,.33-.63,.33-1.08v-.46h-1.47v-.54h2.11v.95c0,.69-.13,1.11-.51,1.53"/><path class="j" d="M247.79,73.33l-1.36-2.65h-1.44v2.65h-.64v-5.97h2.29c1.04,0,1.77,.63,1.77,1.66,0,.87-.53,1.44-1.3,1.6l1.42,2.71h-.75Zm-1.2-5.4h-1.59v2.19h1.59c.7,0,1.19-.36,1.19-1.09s-.49-1.1-1.19-1.1Z"/><path class="j" d="M255.34,73.33l-.48-1.35h-2.61l-.48,1.35h-.68l2.2-5.97h.54l2.19,5.97h-.68Zm-1.77-5.06l-1.12,3.15h2.23l-1.11-3.15Z"/><polygon class="j" points="263.46 73.33 263.46 68.79 261.82 72.39 261.28 72.39 259.62 68.79 259.62 73.33 258.98 73.33 258.98 67.35 259.62 67.35 261.57 71.59 263.46 67.35 264.1 67.35 264.1 73.33 263.46 73.33"/></g><g><path class="j" d="M261.86,54.08c.08,1.6-.57,3.15-1.78,4.2-1.18,.97-2.68,1.47-4.2,1.4-1.49,.05-2.96-.42-4.13-1.34-1.26-1.05-1.96-2.63-1.87-4.27h3.45c-.03,.71,.26,1.39,.79,1.86,.5,.42,1.13,.63,1.78,.6,.68,.03,1.34-.22,1.83-.68,.93-1.11,.93-2.72,0-3.83-.53-.48-1.23-.73-1.94-.7h-.51v-3h.49c1.14,.17,2.2-.62,2.37-1.76,.03-.2,.03-.39,0-.59,.04-.66-.21-1.3-.67-1.77-.92-.84-2.33-.84-3.25,0-.45,.44-.7,1.03-.7,1.66h-3.44c-.03-1.49,.59-2.91,1.7-3.91,1.11-.97,2.54-1.49,4.01-1.46,1.52-.06,3,.48,4.12,1.51,1.07,1,1.66,2.41,1.62,3.88,.12,1.61-.73,3.13-2.17,3.87,1.62,.81,2.6,2.5,2.49,4.31Z"/><path class="o" d="M186.1,51.76h-2.85v6.78h-4.66v-19.02h7.53c3.38-.16,6.25,2.46,6.41,5.84,.16,3.38-2.46,6.25-5.84,6.41h-.57m-.22-8.02h-2.67v3.84h2.67c1.06,.09,1.99-.7,2.08-1.75s-.7-1.99-1.75-2.08h0c-.11-.01-.22-.01-.32,0"/><path class="o" d="M204.62,58.54l-.89-2.83h-5.86l-.92,2.83h-4.89l6.92-19.02h3.62l6.92,19.02h-4.89Zm-3.72-11.81l-1.71,5.09h3.31l-1.6-5.09Z"/><path class="o" d="M221.06,58.54l-3.37-7.08h-1.58v7.08h-4.7v-19.02h7.55c3.35-.23,6.25,2.3,6.47,5.64v.02c.01,.15,.01,.29,0,.44,.01,2.12-1.19,4.06-3.11,4.98l4.12,7.94h-5.39Zm-2.34-14.82h-2.67v3.84h2.67c1.06,.09,1.99-.7,2.08-1.75,.09-1.06-.7-1.99-1.75-2.08-.11-.01-.22-.01-.32,0"/><polygon class="o" points="239.47 58.54 235.08 50.73 233.49 52.58 233.49 58.54 228.86 58.54 228.86 39.52 233.49 39.52 233.49 46.24 238.99 39.52 244.72 39.52 238.21 47.2 244.92 58.54 239.47 58.54"/><path class="j" d="M91.21,33.23c-.35,.75-.88,1.39-1.53,1.88-.7,.53-1.5,.92-2.35,1.17-.93,.27-1.88,.4-2.85,.4-1.41,.03-2.81-.15-4.16-.55-1.19-.38-2.26-1.05-3.12-1.97l3-2.93c.51,.49,1.15,.84,1.83,1.02,.79,.22,1.6,.32,2.43,.32,1.81,0,2.67-.57,2.67-1.71,.03-.41-.11-.81-.38-1.13-.35-.3-.79-.48-1.24-.51l-1.18-.16-1.18-.16c-1.4-.14-2.71-.74-3.73-1.69-.93-1.05-1.41-2.43-1.34-3.82-.04-1.66,.65-3.24,1.88-4.33,1.42-1.18,3.23-1.78,5.07-1.69,1.23-.02,2.46,.16,3.64,.53,1.05,.36,1.99,.95,2.77,1.74l-2.94,2.94c-.42-.45-.97-.78-1.58-.92-.65-.16-1.31-.25-1.98-.25-.62-.05-1.23,.14-1.71,.53-.37,.3-.58,.76-.58,1.23,0,.34,.13,.65,.38,.89,.37,.32,.84,.53,1.34,.56l1.03,.13,1.26,.18c1.35,.12,2.64,.67,3.65,1.58,1.52,1.89,1.84,4.47,.86,6.69"/><rect class="j" x="93.67" y="17.66" width="4.68" height="19.02"/><path class="j" d="M114.88,32c-.28,.96-.79,1.84-1.49,2.55-.69,.75-1.55,1.32-2.5,1.67-.97,.32-2,.48-3.03,.47-1.01,0-1.99-.17-2.93-.53-.88-.38-1.68-.93-2.35-1.6-.8-.79-1.35-1.81-1.57-2.91-.44-3.06-.44-6.18,0-9.25,.23-1.12,.78-2.12,1.59-2.91,.66-.67,1.44-1.21,2.31-1.6,.94-.37,1.95-.55,2.96-.53,1.06-.02,2.11,.16,3.11,.53,.83,.31,1.6,.79,2.23,1.42,.56,.58,1.02,1.28,1.34,2.02,.34,.75,.57,1.54,.69,2.35h-4.64c-.13-.63-.45-1.19-.92-1.62-.52-.39-1.16-.57-1.81-.52-.37,0-.75,.08-1.08,.23-.29,.14-.55,.35-.76,.61-.12,.16-.22,.32-.3,.51-.1,.24-.16,.5-.21,.75,0,.32-.1,.76-.13,1.34s0,1.26,0,2.11v2.09c0,.44,.05,.9,.13,1.34,.05,.26,.13,.52,.24,.76,.09,.18,.19,.36,.3,.52,.45,.55,1.14,.84,1.85,.8,.77,.06,1.54-.21,2.09-.75,.26-.25,.45-.56,.55-.91,.12-.36,.18-.75,.17-1.13v-.27h-2.8v-3.95h7.47v2.67c.04,1.27-.11,2.54-.43,3.77"/><polygon class="j" points="128.26 36.68 122.18 27.11 122.18 36.68 117.49 36.68 117.49 17.65 121.6 17.65 127.68 27.22 127.68 17.65 132.36 17.65 132.36 36.68 128.26 36.68"/><path class="j" d="M146.27,36.68l-.89-2.84h-5.85l-.93,2.84h-4.89l6.93-19.03h3.59l6.98,19.03h-4.95Zm-3.7-11.81l-1.71,5.12h3.3l-1.59-5.12Z"/><polygon class="j" points="158.9 21.82 158.9 36.68 154.24 36.68 154.24 21.82 149.55 21.82 149.55 17.65 163.58 17.65 163.58 21.82 158.9 21.82"/><path class="j" d="M179.05,32.69c-.36,.83-.89,1.57-1.57,2.18-.68,.6-1.47,1.04-2.33,1.34-1.81,.64-3.78,.64-5.58,0-.84-.29-1.62-.75-2.31-1.34-.67-.61-1.2-1.35-1.55-2.18-.34-.86-.51-1.75-.51-2.67v-12.42h4.73v12.24c-.04,.74,.19,1.47,.67,2.05,1.04,1.01,2.68,1.01,3.72,0,.5-.56,.75-1.3,.69-2.05v-12.24h4.67v12.42c.02,.96-.16,1.92-.55,2.79"/><path class="j" d="M191.79,36.67l-3.37-7.09h-1.57v7.09h-4.68V17.58h7.53c.94-.01,1.87,.15,2.76,.5,.78,.29,1.48,.75,2.06,1.34,1.09,1.15,1.7,2.68,1.69,4.27,.03,1.09-.28,2.17-.9,3.06-.56,.81-1.32,1.47-2.21,1.92l4.12,8.02h-5.45Zm-.81-14.27c-.39-.4-.93-.61-1.48-.57h-2.67v3.85h2.67c.55,.02,1.09-.18,1.48-.57,.73-.75,.73-1.93,0-2.67"/><polygon class="j" points="198.81 36.68 198.81 17.65 211.74 17.65 211.74 21.82 203.48 21.82 203.48 25 210.53 25 210.53 29.17 203.48 29.17 203.48 32.5 211.74 32.5 211.74 36.68 198.81 36.68"/><path class="j" d="M92.62,53.86c-.28,.96-.79,1.83-1.49,2.54-.68,.76-1.55,1.33-2.5,1.67-.97,.32-2,.49-3.03,.47-1,.01-1.99-.16-2.91-.53-.89-.37-1.7-.91-2.37-1.6-.81-.79-1.36-1.8-1.59-2.9-.44-3.06-.44-6.18,0-9.25,.24-1.12,.79-2.12,1.6-2.91,1.37-1.43,3.3-2.21,5.28-2.14,1.06-.02,2.11,.15,3.11,.52,.84,.3,1.6,.79,2.23,1.42,.57,.58,1.03,1.27,1.34,2.02,.32,.75,.53,1.54,.64,2.34h-4.58c-.12-.63-.44-1.19-.92-1.6-.52-.39-1.16-.57-1.81-.52-.37-.01-.74,.06-1.07,.23-.3,.13-.56,.34-.76,.61-.13,.15-.23,.32-.3,.51-.1,.24-.16,.49-.21,.74,0,.44-.11,.89-.13,1.34v4.21c0,.44,0,.9,.13,1.34,.04,.26,.11,.52,.21,.78,.09,.18,.18,.36,.3,.52,.44,.55,1.13,.86,1.83,.8,.77,.06,1.54-.21,2.09-.75,.26-.25,.44-.56,.55-.91,.12-.36,.18-.75,.17-1.13v-.27h-2.8v-4.02h7.47v2.67c.04,1.28-.11,2.55-.43,3.79"/><polygon class="j" points="95.32 58.54 95.32 39.52 100 39.52 100 54.37 107.99 54.37 107.99 58.54 95.32 58.54"/><path class="j" d="M123.45,53.44c-.22,1.12-.77,2.12-1.59,2.9-.65,.71-1.45,1.29-2.34,1.67-1.92,.7-4.03,.7-5.94,0-.89-.38-1.68-.92-2.35-1.6-.8-.79-1.35-1.8-1.59-2.9-.44-3.06-.44-6.18,0-9.25,.23-1.1,.78-2.12,1.59-2.91,2.23-2.08,5.45-2.71,8.29-1.6,.88,.38,1.68,.92,2.34,1.6,.82,.78,1.37,1.8,1.59,2.91,.44,3.06,.44,6.18,0,9.25m-4.37-6.69c0-.44-.05-.9-.13-1.34-.04-.26-.11-.51-.22-.75-.08-.18-.18-.36-.3-.51-.19-.27-.45-.48-.76-.61-.7-.3-1.5-.3-2.21,0-.3,.14-.57,.35-.78,.61-.11,.15-.22,.31-.29,.48-.1,.24-.16,.49-.21,.74,0,.32-.1,.76-.13,1.34s0,1.26,0,2.11v2.09c0,.44,.05,.9,.13,1.34,.04,.26,.11,.52,.21,.76,.09,.17,.19,.35,.3,.51,.47,.55,1.15,.87,1.87,.86,.38,0,.76-.08,1.09-.24,.3-.14,.56-.36,.78-.62,.12-.16,.23-.32,.3-.51,.11-.24,.17-.49,.21-.75,0-.32,.1-.75,.13-1.34s0-1.24,0-2.1v-2.1"/><path class="j" d="M138.64,57.05c-1.18,1.02-2.71,1.55-4.27,1.48h-8.28v-19.03h7.88c1.63-.11,3.26,.43,4.49,1.52,1.07,1.05,1.65,2.51,1.57,4.02,.04,.83-.19,1.66-.67,2.34-.36,.55-.81,1.04-1.34,1.43,.27,.16,.54,.35,.79,.55,.27,.23,.51,.48,.7,.76,.27,.36,.47,.76,.61,1.19,.17,.53,.26,1.08,.24,1.65,.1,1.55-.51,3.06-1.66,4.12m-3.68-12.88c-.35-.36-.84-.52-1.34-.45h-2.93v3.09h2.91c.49,.05,.99-.11,1.34-.45,.53-.63,.53-1.55,0-2.18m.25,7.32c-.35-.36-.84-.54-1.34-.48h-3.17v3.35h3.16c.5,.05,1-.13,1.34-.5,.28-.34,.42-.76,.41-1.19,.01-.43-.14-.84-.41-1.18"/><path class="j" d="M153.27,58.54l-.87-2.83h-5.91l-.93,2.83h-4.83l6.92-19.03h3.58l6.92,19.02h-4.88Zm-3.7-11.79l-1.74,5.09h3.4l-1.66-5.09Z"/><polygon class="j" points="159.63 58.54 159.63 39.52 164.29 39.52 164.29 54.37 172.27 54.37 172.27 58.54 159.63 58.54"/><g><path class="m" d="M53.7,29.31c-.47,2.33,1.46,4.66,4.28,5.22s5.5-.86,5.95-3.17c.45-2.32-1.46-4.64-4.28-5.22-.41-.08-.82-.12-1.24-.12-2.15-.16-4.11,1.21-4.71,3.29"/><path class="i" d="M66.22,26.81c1.31,1.72,1.86,3.9,1.53,6.03-.51,2.41-2.28,4.36-4.64,5.09-1.86,.58-3.14,.41-1.98,2.35,.97,1.37,1.83,2.83,2.57,4.33,2.39,5.94,.06,13.92-8.61,16.25-.66,.24-1.34,.48-2.2,.7,10.75-.14,19.35-8.96,19.21-19.71v-.24c-.06-5.5-2.17-10.77-5.89-14.82l.02,.02Z"/><path class="p" d="M37.17,27.9c-.8,1.33-1.22,2.86-1.2,4.42,.04,1.88,.56,3.72,1.52,5.35,4.22,6.82,8.13,5.89,10.26,11.24,1.69,4.2-2.21,7.83-8.02,2.86-6.55-5.63-8.51-17.75-3.98-24.27-3.23,3.98-4.95,8.96-4.89,14.08,.03,3.53,.95,6.99,2.67,10.07,1.31,2.46,3.2,4.56,5.51,6.13,2.55,1.68,5.47,2.72,8.51,3.03,1.49,.15,3.01,.05,4.48-.28,2.37-.58,4.56-1.79,6.32-3.48,5.35-4.9,2.27-12.44-2.17-16.7-4.44-4.27-7.32-7.37-6.57-11.05,.81-4.02,5.41-6.98,10.45-5.98,1.3,.17,2.57,.6,3.7,1.24-3.58-2.54-7.9-3.82-12.3-3.63-5.41,0-11.31,2.06-14.2,6.96"/></g><g><path class="q" d="M53.59,28.7c-.45,2.27,1.47,4.59,4.31,5.15s5.49-.83,5.94-3.11c.45-2.27-1.47-4.59-4.3-5.15-.44-.09-.89-.13-1.34-.12-2.12-.17-4.08,1.18-4.68,3.23"/><path class="k" d="M37.07,27.32c-.81,1.32-1.24,2.85-1.24,4.41,.11,1.85,.7,3.65,1.72,5.21,4.2,6.81,8.11,6.14,10.23,11.43,1.69,4.19-2.44,7.7-8.2,2.74-6.43-5.61-8.39-17.14-3.86-23.61-5.65,6.55-6.6,15.93-2.39,23.48,1.31,2.46,3.2,4.55,5.51,6.1,2.55,1.68,5.47,2.72,8.51,3.03,1.49,.15,3.01,.05,4.48-.28,2.38-.58,4.57-1.78,6.34-3.46,5.28-4.89,2.27-12.4-2.18-16.65-4.45-4.25-7.31-7.47-6.57-11.13,.83-4.02,5.54-6.52,10.57-5.51,1.31,.25,2.57,.75,3.7,1.46-3.57-2.71-7.95-4.17-12.43-4.16-5.43,0-11.31,2.06-14.23,6.93"/><path class="l" d="M66.22,26.81c2.33,2.77,1.96,6.9-.8,9.21h0c-.7,.62-1.54,1.07-2.44,1.34-1.86,.58-3.13,.32-1.98,2.25,.97,1.3,1.84,2.67,2.58,4.12,1.65,4.22,.99,9-1.75,12.6l-.11,.13h0l-.08,.1c-.66,.82-1.42,1.54-2.27,2.15l-.22,.15-.23,.15c-.69,.47-1.43,.86-2.2,1.19-1.17,.53-2.38,.97-3.62,1.34,11.31-1.02,19.67-11.01,18.65-22.32-.41-4.61-2.37-8.95-5.56-12.32v-.08l.02-.03Z"/></g><path class="n" d="M219.21,36.93s12.08,.3,13-9.04c-.74-.21-1.52-.31-2.29-.3-2.86,0-7.74,1.36-10.71,9.34m13.55-9.24c10.84,17.33,34.13,5.03,34.13,5.03-8.13-7.67-15.31-9.96-20.93-9.96-4.85-.04-9.55,1.71-13.19,4.92m-.54-.54c12.82-9.23,2.17-26.56,2.17-26.56-13.55,16.49-2.17,26.56-2.17,26.56"/></g><path class="j" d="M242.9,1.11c-1.91,0-3.46,1.55-3.46,3.46s1.55,3.46,3.46,3.46,3.46-1.55,3.46-3.46-1.55-3.46-3.46-3.46m0,7.66c-2.32,0-4.2-1.89-4.2-4.2s1.89-4.2,4.2-4.2,4.2,1.88,4.2,4.2-1.89,4.2-4.2,4.2Z"/><path class="j" d="M242.96,2.96h-1v1.39h1c.45,0,.75-.26,.75-.69s-.3-.7-.75-.7m.78,3.83l-.94-1.87h-.84v1.87h-.67V2.35h1.72c.84,0,1.37,.54,1.37,1.3,0,.63-.38,1.04-.88,1.18l1.02,1.96h-.78Z"/></svg>