<?xml version="1.0" encoding="UTF-8"?><svg id="a" xmlns="http://www.w3.org/2000/svg" xmlns:xlink="http://www.w3.org/1999/xlink" viewBox="0 0 300 75"><defs><style>.i{fill:url(#c);}.j{fill:#303030;}.k{fill:url(#f);}.l{fill:url(#g);}.m{fill:url(#b);}.n{fill:url(#h);}.o{fill:#068746;}.p{fill:url(#d);}.q{fill:url(#e);}</style><linearGradient id="b" x1="61.78" y1="28.02" x2="71.36" y2="28.02" gradientTransform="matrix(1, 0, 0, 1, 0, 0)" gradientUnits="userSpaceOnUse"><stop offset="0" stop-color="#122315"/><stop offset=".7" stop-color="#677e36"/><stop offset=".95" stop-color="#708236"/><stop offset="1" stop-color="#738336"/></linearGradient><linearGradient id="c" x1="61.1" y1="40.81" x2="78.84" y2="40.81" xlink:href="#b"/><linearGradient id="d" x1="40.74" y1="37.76" x2="71.14" y2="37.76" xlink:href="#b"/><linearGradient id="e" x1="61.69" y1="27.45" x2="71.28" y2="27.45" gradientTransform="matrix(1, 0, 0, 1, 0, 0)" gradientUnits="userSpaceOnUse"><stop offset="0" stop-color="#0b793d"/><stop offset=".64" stop-color="#7bb640"/><stop offset=".7" stop-color="#87bd40"/><stop offset=".99" stop-color="#95c13d"/><stop offset="1" stop-color="#95c13d"/></linearGradient><linearGradient id="f" x1="40.62" y1="37.2" x2="71.08" y2="37.2" xlink:href="#e"/><linearGradient id="g" x1="61.31" y1="40.82" x2="78.62" y2="40.82" xlink:href="#e"/><linearGradient id="h" x1="212.35" y1="18.76" x2="260.03" y2="18.76" gradientTransform="matrix(1, 0, 0, 1, 0, 0)" gradientUnits="userSpaceOnUse"><stop offset="0" stop-color="#7c2982"/><stop offset=".05" stop-color="#7c2982"/><stop offset=".11" stop-color="#624c9c"/><stop offset=".22" stop-color="#2c94d2"/><stop offset=".25" stop-color="#389bad"/><stop offset=".3" stop-color="#4aa676"/><stop offset=".34" stop-color="#56ad54"/><stop offset=".36" stop-color="#5ab047"/><stop offset=".39" stop-color="#8ac140"/><stop offset=".43" stop-color="#bcd338"/><stop offset=".47" stop-color="#e0df33"/><stop offset=".5" stop-color="#f6e72f"/><stop offset=".52" stop-color="#feea2e"/><stop offset=".52" stop-color="#fee92d"/><stop offset=".66" stop-color="#fdc90b"/><stop offset=".78" stop-color="#f08f35"/><stop offset=".86" stop-color="#eb6f31"/><stop offset=".89" stop-color="#e9612f"/><stop offset=".91" stop-color="#e7572f"/><stop offset=".96" stop-color="#e33a2e"/><stop offset="1" stop-color="#de1e2e"/></linearGradient></defs><g><path class="j" d="M45.7,70.78c-.82,0-1.37-.21-1.88-.73l.4-.39c.46,.46,.88,.59,1.5,.59,.81,0,1.31-.37,1.31-1.02,0-.29-.09-.52-.27-.69-.17-.16-.33-.21-.72-.27l-.64-.09c-.43-.07-.76-.2-1.01-.42-.28-.25-.43-.59-.43-1.04,0-.94,.67-1.55,1.77-1.55,.7,0,1.17,.19,1.64,.61l-.38,.38c-.33-.31-.71-.48-1.29-.48-.74,0-1.17,.41-1.17,1.03,0,.27,.08,.49,.25,.64,.17,.15,.43,.24,.72,.29l.64,.1c.51,.08,.75,.17,1,.39,.29,.26,.46,.63,.46,1.08,0,.97-.75,1.57-1.91,1.57"/><polygon class="j" points="50.69 70.73 50.69 65.21 54.12 65.21 54.12 65.74 51.28 65.74 51.28 67.69 53.7 67.69 53.7 68.21 51.28 68.21 51.28 70.2 54.12 70.2 54.12 70.73 50.69 70.73"/><path class="j" d="M58.91,70.78c-.57,0-1.04-.2-1.38-.54-.52-.52-.55-1-.55-2.26s.03-1.74,.55-2.26c.34-.34,.81-.54,1.38-.54,1,0,1.72,.61,1.91,1.65h-.6c-.15-.68-.62-1.12-1.31-1.12-.37,0-.7,.13-.95,.39-.35,.36-.39,.76-.39,1.89s.04,1.53,.39,1.89c.25,.25,.58,.39,.95,.39,.69,0,1.18-.43,1.32-1.12h.59c-.19,1.03-.92,1.64-1.91,1.64"/><polygon class="j" points="65.43 65.74 65.43 70.73 64.84 70.73 64.84 65.74 63.25 65.74 63.25 65.21 67.03 65.21 67.03 65.74 65.43 65.74"/><path class="j" d="M72.85,70.23c-.34,.34-.8,.54-1.37,.54s-1.04-.2-1.38-.54c-.52-.52-.55-1-.55-2.26s.03-1.74,.55-2.26c.34-.34,.8-.54,1.38-.54s1.03,.2,1.37,.54c.52,.52,.56,1,.56,2.26s-.04,1.74-.56,2.26m-.42-4.15c-.25-.25-.58-.39-.95-.39s-.7,.13-.95,.39c-.35,.36-.39,.76-.39,1.89s.04,1.53,.39,1.89c.26,.25,.58,.39,.95,.39s.7-.13,.95-.39c.35-.36,.39-.76,.39-1.89s-.04-1.53-.39-1.89Z"/><path class="j" d="M79.8,70.73l-1.26-2.45h-1.32v2.45h-.59v-5.52h2.12c.96,0,1.63,.58,1.63,1.54,0,.8-.49,1.33-1.2,1.48l1.31,2.5h-.69Zm-1.11-4.99h-1.47v2.02h1.47c.64,0,1.1-.33,1.1-1.01s-.46-1.02-1.1-1.02Z"/><path class="j" d="M88.5,70.79c-.87,0-1.57-.46-1.62-1.46h.56c.05,.69,.53,.96,1.06,.96,.6,0,1.06-.39,1.06-1.07s-.33-1.07-1.09-1.07h-.12v-.49h.12c.67,0,.98-.38,.98-1,0-.66-.43-1.01-.96-1.01-.58,0-.94,.36-.99,.92h-.56c.06-.89,.71-1.42,1.55-1.42,.9,0,1.52,.6,1.52,1.5,0,.58-.25,1-.74,1.22,.56,.21,.85,.66,.85,1.35,0,1.01-.72,1.56-1.62,1.56"/><path class="j" d="M94.48,70.78c-.94,0-1.53-.64-1.53-1.59,0-.39,.12-.77,.35-1.24l1.36-2.74h.57l-1.23,2.48c.17-.08,.36-.12,.58-.12,.86,0,1.43,.66,1.43,1.56s-.59,1.64-1.53,1.64m0-2.73c-.59,0-.97,.43-.97,1.11s.38,1.12,.97,1.12,.98-.44,.98-1.12c0-.61-.34-1.11-.98-1.11Z"/><polygon class="j" points="99.02 71.84 99.02 70.05 99.71 70.05 99.71 71.23 99.02 71.84"/><path class="j" d="M108.23,70.78c-.82,0-1.37-.21-1.88-.73l.4-.39c.46,.46,.88,.59,1.5,.59,.81,0,1.31-.37,1.31-1.02,0-.29-.09-.52-.27-.69-.17-.16-.32-.21-.72-.27l-.64-.09c-.43-.07-.76-.2-1.01-.42-.28-.25-.43-.59-.43-1.04,0-.94,.67-1.55,1.77-1.55,.71,0,1.17,.19,1.64,.61l-.38,.38c-.33-.31-.71-.48-1.29-.48-.74,0-1.17,.41-1.17,1.03,0,.27,.08,.49,.25,.64,.17,.15,.43,.24,.72,.29l.64,.1c.51,.08,.75,.17,1,.39,.3,.26,.46,.63,.46,1.08,0,.97-.75,1.57-1.91,1.57"/><path class="j" d="M116.31,70.23c-.34,.34-.8,.54-1.37,.54s-1.04-.2-1.38-.54c-.52-.52-.55-1-.55-2.26s.03-1.74,.55-2.26c.34-.34,.81-.54,1.38-.54s1.03,.2,1.37,.54c.52,.52,.56,1,.56,2.26s-.04,1.74-.56,2.26m-.42-4.15c-.26-.25-.58-.39-.95-.39s-.7,.13-.95,.39c-.35,.36-.39,.76-.39,1.89s.04,1.53,.39,1.89c.25,.25,.58,.39,.95,.39s.7-.13,.95-.39c.35-.36,.39-.76,.39-1.89s-.04-1.53-.39-1.89Z"/><polygon class="j" points="123.31 70.73 123.31 68.21 120.69 68.21 120.69 70.73 120.1 70.73 120.1 65.21 120.69 65.21 120.69 67.69 123.31 67.69 123.31 65.21 123.89 65.21 123.89 70.73 123.31 70.73"/><polygon class="j" points="130.85 70.73 127.92 66.31 127.92 70.73 127.33 70.73 127.33 65.21 127.89 65.21 130.82 69.62 130.82 65.21 131.41 65.21 131.41 70.73 130.85 70.73"/><path class="j" d="M138.07,70.73l-.44-1.25h-2.41l-.44,1.25h-.63l2.03-5.52h.5l2.02,5.52h-.63Zm-1.64-4.67l-1.04,2.91h2.06l-1.02-2.91Z"/><polygon class="j" points="141.31 71.84 141.31 70.05 142 70.05 142 71.23 141.31 71.84"/><path class="j" d="M150.52,70.78c-.82,0-1.37-.21-1.88-.73l.39-.39c.46,.46,.88,.59,1.5,.59,.81,0,1.31-.37,1.31-1.02,0-.29-.09-.52-.27-.69-.17-.16-.32-.21-.72-.27l-.64-.09c-.43-.07-.76-.2-1.01-.42-.28-.25-.43-.59-.43-1.04,0-.94,.67-1.55,1.77-1.55,.71,0,1.17,.19,1.64,.61l-.38,.38c-.33-.31-.71-.48-1.29-.48-.74,0-1.17,.41-1.17,1.03,0,.27,.08,.49,.25,.64,.17,.15,.43,.24,.72,.29l.64,.1c.51,.08,.75,.17,1,.39,.3,.26,.46,.63,.46,1.08,0,.97-.75,1.57-1.91,1.57"/><path class="j" d="M158.6,70.23c-.34,.34-.8,.54-1.37,.54s-1.04-.2-1.38-.54c-.52-.52-.55-1-.55-2.26s.03-1.74,.55-2.26c.34-.34,.81-.54,1.38-.54s1.03,.2,1.37,.54c.52,.52,.56,1,.56,2.26s-.04,1.74-.56,2.26m-.42-4.15c-.26-.25-.58-.39-.95-.39s-.7,.13-.95,.39c-.35,.36-.39,.76-.39,1.89s.04,1.53,.39,1.89c.25,.25,.58,.39,.95,.39s.7-.13,.95-.39c.35-.36,.39-.76,.39-1.89s-.04-1.53-.39-1.89Z"/><path class="j" d="M164.23,70.78c-1.12,0-1.92-.77-1.92-1.87v-3.7h.59v3.65c0,.84,.53,1.38,1.33,1.38s1.34-.55,1.34-1.38v-3.65h.59v3.7c0,1.1-.81,1.87-1.93,1.87"/><polygon class="j" points="171.14 65.74 171.14 70.73 170.55 70.73 170.55 65.74 168.96 65.74 168.96 65.21 172.74 65.21 172.74 65.74 171.14 65.74"/><polygon class="j" points="178.83 70.73 178.83 68.21 176.21 68.21 176.21 70.73 175.62 70.73 175.62 65.21 176.21 65.21 176.21 67.69 178.83 67.69 178.83 65.21 179.41 65.21 179.41 70.73 178.83 70.73"/><path class="j" d="M189.72,70.23c-.34,.34-.8,.54-1.37,.54s-1.04-.2-1.38-.54c-.52-.52-.55-1-.55-2.26s.03-1.74,.55-2.26c.34-.34,.8-.54,1.38-.54s1.03,.2,1.37,.54c.52,.52,.56,1,.56,2.26s-.04,1.74-.56,2.26m-.42-4.15c-.25-.25-.58-.39-.95-.39s-.7,.13-.95,.39c-.35,.36-.39,.76-.39,1.89s.04,1.53,.39,1.89c.26,.25,.58,.39,.95,.39s.7-.13,.95-.39c.35-.36,.39-.76,.39-1.89s-.04-1.53-.39-1.89Z"/><polygon class="j" points="194.09 65.74 194.09 67.77 196.51 67.77 196.51 68.3 194.09 68.3 194.09 70.73 193.51 70.73 193.51 65.21 196.93 65.21 196.93 65.74 194.09 65.74"/><path class="j" d="M206.82,70.14c-.39,.43-.91,.64-1.47,.64s-1.04-.2-1.38-.54c-.52-.52-.55-1-.55-2.26s.03-1.74,.55-2.26c.34-.34,.81-.54,1.38-.54,1.04,0,1.77,.7,1.93,1.65h-.59c-.16-.71-.65-1.12-1.34-1.12-.38,0-.71,.13-.95,.39-.35,.36-.39,.76-.39,1.89s.04,1.53,.39,1.89c.25,.25,.57,.39,.95,.39,.4,0,.79-.16,1.05-.47,.22-.28,.31-.58,.31-1v-.43h-1.36v-.5h1.94v.87c0,.63-.12,1.02-.47,1.42"/><path class="j" d="M212.35,70.78c-1.12,0-1.92-.77-1.92-1.87v-3.7h.59v3.65c0,.84,.53,1.38,1.33,1.38s1.34-.55,1.34-1.38v-3.65h.59v3.7c0,1.1-.81,1.87-1.93,1.87"/><path class="j" d="M220.81,70.73l-1.25-2.45h-1.33v2.45h-.59v-5.52h2.11c.96,0,1.64,.58,1.64,1.54,0,.8-.49,1.33-1.2,1.48l1.31,2.5h-.69Zm-1.11-4.99h-1.47v2.02h1.47c.64,0,1.1-.33,1.1-1.01s-.46-1.02-1.1-1.02Z"/><path class="j" d="M226.41,70.78c-1.11,0-1.92-.77-1.92-1.87v-3.7h.59v3.65c0,.84,.53,1.38,1.33,1.38s1.34-.55,1.34-1.38v-3.65h.59v3.7c0,1.1-.81,1.87-1.93,1.87"/><path class="j" d="M234.9,70.14c-.39,.43-.91,.64-1.47,.64s-1.04-.2-1.38-.54c-.52-.52-.55-1-.55-2.26s.03-1.74,.55-2.26c.34-.34,.81-.54,1.38-.54,1.04,0,1.77,.7,1.93,1.65h-.59c-.16-.71-.65-1.12-1.34-1.12-.38,0-.71,.13-.95,.39-.35,.36-.39,.76-.39,1.89s.04,1.53,.39,1.89c.25,.25,.57,.39,.95,.39,.4,0,.79-.16,1.05-.47,.22-.28,.31-.58,.31-1v-.43h-1.36v-.5h1.94v.87c0,.63-.12,1.02-.47,1.42"/><path class="j" d="M241.76,70.73l-1.25-2.45h-1.33v2.45h-.59v-5.52h2.11c.96,0,1.64,.58,1.64,1.54,0,.8-.49,1.33-1.2,1.48l1.31,2.5h-.69Zm-1.11-4.99h-1.47v2.02h1.47c.64,0,1.1-.33,1.1-1.01s-.46-1.02-1.1-1.02Z"/><path class="j" d="M248.74,70.73l-.44-1.25h-2.41l-.44,1.25h-.63l2.03-5.52h.5l2.02,5.52h-.63Zm-1.64-4.67l-1.04,2.91h2.06l-1.02-2.91Z"/><polygon class="j" points="256.23 70.73 256.23 66.54 254.72 69.86 254.22 69.86 252.69 66.54 252.69 70.73 252.1 70.73 252.1 65.21 252.69 65.21 254.48 69.12 256.23 65.21 256.82 65.21 256.82 70.73 256.23 70.73"/></g><path class="o" d="M184.49,50.54h-2.63v6.26h-4.3v-17.57h6.96c3.12-.15,5.77,2.27,5.92,5.39,.15,3.12-2.27,5.77-5.39,5.92h-.53m-.2-7.41h-2.47v3.55h2.47c.98,.08,1.84-.65,1.92-1.62s-.65-1.84-1.62-1.92h0c-.1,0-.2,0-.3,0"/><path class="o" d="M201.6,56.8l-.82-2.61h-5.41l-.85,2.61h-4.52l6.39-17.57h3.34l6.39,17.57h-4.52Zm-3.44-10.91l-1.58,4.7h3.06l-1.48-4.7Z"/><path class="o" d="M216.79,56.8l-3.11-6.54h-1.46v6.54h-4.34v-17.57h6.97c3.09-.21,5.77,2.12,5.98,5.21v.02c0,.14,0,.27,0,.41,0,1.96-1.1,3.75-2.87,4.6l3.81,7.33h-4.98Zm-2.16-13.69h-2.47v3.55h2.47c.98,.08,1.84-.65,1.92-1.62,.08-.98-.65-1.84-1.62-1.92-.1,0-.2,0-.3,0"/><polygon class="o" points="233.79 56.8 229.74 49.59 228.27 51.3 228.27 56.8 223.99 56.8 223.99 39.23 228.27 39.23 228.27 45.44 233.35 39.23 238.64 39.23 232.63 46.33 238.83 56.8 233.79 56.8"/><path class="j" d="M96.84,33.42c-.32,.69-.81,1.28-1.41,1.74-.65,.49-1.39,.85-2.17,1.08-.86,.25-1.74,.37-2.63,.37-1.3,.03-2.6-.14-3.84-.51-1.1-.35-2.09-.97-2.88-1.82l2.77-2.71c.47,.45,1.06,.78,1.69,.94,.73,.2,1.48,.3,2.24,.3,1.67,0,2.47-.53,2.47-1.58,.03-.38-.1-.75-.35-1.04-.32-.28-.73-.44-1.15-.47l-1.09-.15-1.09-.15c-1.29-.13-2.5-.68-3.45-1.56-.86-.97-1.3-2.24-1.24-3.53-.04-1.53,.6-2.99,1.74-4,1.31-1.09,2.98-1.64,4.68-1.56,1.14-.02,2.27,.15,3.36,.49,.97,.33,1.84,.88,2.56,1.61l-2.72,2.72c-.39-.42-.9-.72-1.46-.85-.6-.15-1.21-.23-1.83-.23-.57-.05-1.14,.13-1.58,.49-.34,.28-.54,.7-.54,1.14,0,.31,.12,.6,.35,.82,.34,.3,.78,.49,1.24,.52l.95,.12,1.16,.17c1.25,.11,2.44,.62,3.37,1.46,1.4,1.75,1.7,4.13,.79,6.18"/><rect class="j" x="99.12" y="19.04" width="4.32" height="17.57"/><path class="j" d="M118.71,32.28c-.26,.89-.73,1.7-1.38,2.36-.64,.69-1.43,1.22-2.31,1.54-.9,.3-1.85,.44-2.8,.43-.93,0-1.84-.16-2.71-.49-.81-.35-1.55-.86-2.17-1.48-.74-.73-1.25-1.67-1.45-2.69-.41-2.83-.41-5.71,0-8.54,.21-1.03,.72-1.96,1.47-2.69,.61-.62,1.33-1.12,2.13-1.48,.87-.34,1.8-.51,2.73-.49,.98-.02,1.95,.15,2.87,.49,.77,.29,1.48,.73,2.06,1.31,.52,.54,.94,1.18,1.24,1.87,.31,.69,.53,1.42,.64,2.17h-4.29c-.12-.58-.42-1.1-.85-1.5-.48-.36-1.07-.53-1.67-.48-.34,0-.69,.07-1,.21-.27,.13-.51,.32-.7,.56-.11,.15-.2,.3-.28,.47-.09,.22-.15,.46-.19,.69,0,.3-.09,.7-.12,1.24s0,1.16,0,1.95v1.93c0,.41,.05,.83,.12,1.24,.05,.24,.12,.48,.22,.7,.08,.17,.18,.33,.28,.48,.42,.51,1.05,.78,1.71,.74,.71,.06,1.42-.19,1.93-.69,.24-.23,.42-.52,.51-.84,.11-.33,.17-.69,.16-1.04v-.25h-2.59v-3.65h6.9v2.47c.04,1.17-.1,2.35-.4,3.48"/><polygon class="j" points="131.07 36.61 125.45 27.77 125.45 36.61 121.12 36.61 121.12 19.03 124.91 19.03 130.53 27.87 130.53 19.03 134.85 19.03 134.85 36.61 131.07 36.61"/><path class="j" d="M147.7,36.61l-.82-2.62h-5.4l-.86,2.62h-4.52l6.4-17.58h3.32l6.45,17.58h-4.57Zm-3.42-10.91l-1.58,4.73h3.05l-1.47-4.73Z"/><polygon class="j" points="159.37 22.88 159.37 36.61 155.06 36.61 155.06 22.88 150.73 22.88 150.73 19.03 163.69 19.03 163.69 22.88 159.37 22.88"/><path class="j" d="M177.98,32.92c-.33,.77-.82,1.45-1.45,2.01-.63,.55-1.36,.96-2.15,1.24-1.67,.59-3.49,.59-5.15,0-.78-.27-1.5-.69-2.13-1.24-.62-.56-1.11-1.25-1.43-2.01-.31-.79-.47-1.62-.47-2.47v-11.47h4.37v11.31c-.04,.68,.18,1.36,.62,1.89,.96,.93,2.48,.93,3.44,0,.46-.52,.69-1.2,.64-1.89v-11.31h4.31v11.47c.02,.89-.15,1.77-.51,2.58"/><path class="j" d="M189.75,36.6l-3.11-6.55h-1.45v6.55h-4.32V18.96h6.96c.87-.01,1.73,.14,2.55,.46,.72,.27,1.37,.69,1.9,1.24,1.01,1.06,1.57,2.48,1.56,3.94,.03,1.01-.26,2-.83,2.83-.52,.75-1.22,1.36-2.04,1.77l3.81,7.41h-5.03Zm-.75-13.18c-.36-.37-.86-.56-1.37-.53h-2.47v3.56h2.47c.51,.02,1.01-.17,1.37-.53,.67-.69,.67-1.78,0-2.47"/><polygon class="j" points="196.23 36.61 196.23 19.03 208.18 19.03 208.18 22.88 200.55 22.88 200.55 25.82 207.06 25.82 207.06 29.67 200.55 29.67 200.55 32.75 208.18 32.75 208.18 36.61 196.23 36.61"/><path class="j" d="M98.15,52.47c-.26,.89-.73,1.69-1.38,2.35-.63,.7-1.43,1.23-2.31,1.54-.9,.3-1.85,.45-2.8,.43-.92,0-1.84-.15-2.69-.49-.82-.34-1.57-.84-2.19-1.48-.75-.73-1.26-1.66-1.47-2.68-.41-2.83-.41-5.71,0-8.54,.22-1.03,.73-1.96,1.48-2.69,1.27-1.32,3.05-2.04,4.88-1.98,.98-.02,1.95,.14,2.87,.48,.78,.28,1.48,.73,2.06,1.31,.53,.54,.95,1.17,1.24,1.87,.3,.69,.49,1.42,.59,2.16h-4.23c-.11-.58-.41-1.1-.85-1.48-.48-.36-1.07-.53-1.67-.48-.34,0-.68,.06-.99,.21-.28,.12-.52,.31-.7,.56-.12,.14-.21,.3-.28,.47-.09,.22-.15,.45-.19,.68,0,.41-.1,.82-.12,1.24v3.89c0,.41,0,.83,.12,1.24,.04,.24,.1,.48,.19,.72,.08,.17,.17,.33,.28,.48,.41,.51,1.04,.79,1.69,.74,.71,.06,1.42-.19,1.93-.69,.24-.23,.41-.52,.51-.84,.11-.33,.17-.69,.16-1.04v-.25h-2.59v-3.71h6.9v2.47c.04,1.18-.1,2.36-.4,3.5"/><polygon class="j" points="100.64 56.8 100.64 39.23 104.96 39.23 104.96 52.95 112.34 52.95 112.34 56.8 100.64 56.8"/><path class="j" d="M126.62,52.09c-.2,1.03-.71,1.96-1.47,2.68-.6,.66-1.34,1.19-2.16,1.54-1.77,.65-3.72,.65-5.49,0-.82-.35-1.55-.85-2.17-1.48-.74-.73-1.25-1.66-1.47-2.68-.41-2.83-.41-5.71,0-8.54,.21-1.02,.72-1.96,1.47-2.69,2.06-1.92,5.03-2.5,7.66-1.48,.81,.35,1.55,.85,2.16,1.48,.76,.72,1.27,1.66,1.47,2.69,.41,2.83,.41,5.71,0,8.54m-4.04-6.18c0-.41-.05-.83-.12-1.24-.04-.24-.1-.47-.2-.69-.07-.17-.17-.33-.28-.47-.18-.25-.42-.44-.7-.56-.65-.28-1.39-.28-2.04,0-.28,.13-.53,.32-.72,.56-.1,.14-.2,.29-.27,.44-.09,.22-.15,.45-.19,.68,0,.3-.09,.7-.12,1.24s0,1.16,0,1.95v1.93c0,.41,.05,.83,.12,1.24,.04,.24,.1,.48,.19,.7,.08,.16,.18,.32,.28,.47,.43,.51,1.06,.8,1.73,.79,.35,0,.7-.07,1.01-.22,.28-.13,.52-.33,.72-.57,.11-.15,.21-.3,.28-.47,.1-.22,.16-.45,.19-.69,0-.3,.09-.69,.12-1.24s0-1.15,0-1.94v-1.94"/><path class="j" d="M140.65,55.42c-1.09,.94-2.5,1.43-3.94,1.37h-7.65v-17.58h7.28c1.51-.1,3.01,.4,4.15,1.4,.99,.97,1.52,2.32,1.45,3.71,.04,.77-.18,1.53-.62,2.16-.33,.51-.75,.96-1.24,1.32,.25,.15,.5,.32,.73,.51,.25,.21,.47,.44,.65,.7,.25,.33,.43,.7,.56,1.1,.16,.49,.24,1,.22,1.52,.09,1.43-.47,2.83-1.53,3.81m-3.4-11.9c-.32-.33-.78-.48-1.24-.42h-2.71v2.85h2.69c.45,.05,.91-.1,1.24-.42,.49-.58,.49-1.43,0-2.01m.23,6.76c-.32-.33-.78-.5-1.24-.44h-2.93v3.09h2.92c.46,.05,.92-.12,1.24-.46,.26-.31,.39-.7,.38-1.1,.01-.4-.13-.78-.38-1.09"/><path class="j" d="M154.17,56.8l-.8-2.61h-5.46l-.86,2.61h-4.46l6.39-17.58h3.31l6.39,17.57h-4.51Zm-3.42-10.89l-1.61,4.7h3.14l-1.53-4.7Z"/><polygon class="j" points="160.04 56.8 160.04 39.23 164.35 39.23 164.35 52.95 171.72 52.95 171.72 56.8 160.04 56.8"/><path class="j" d="M253.6,56.8h-10.59v-2.85l6.49-7.56c.54-.57,.86-1.32,.89-2.1,.03-.57-.17-1.14-.54-1.57-.4-.42-.97-.64-1.54-.61-1.41,0-2.13,.74-2.13,2.22h-3.16c-.05-1.4,.52-2.75,1.54-3.71,1.02-.91,2.34-1.39,3.71-1.35,1.4-.06,2.77,.43,3.82,1.36,1,.97,1.54,2.32,1.47,3.71,0,.73-.16,1.45-.49,2.1-.37,.69-.83,1.32-1.37,1.89l-4.86,5.65h6.77v2.82h-.01Z"/><g><path class="m" d="M61.85,27.08c-.43,2.15,1.35,4.3,3.95,4.82s5.08-.79,5.5-2.93c.42-2.14-1.35-4.29-3.95-4.82-.38-.07-.76-.11-1.15-.11-1.99-.15-3.8,1.12-4.35,3.04"/><path class="i" d="M73.42,24.77c1.21,1.59,1.72,3.6,1.41,5.57-.47,2.23-2.11,4.03-4.29,4.7-1.72,.54-2.9,.38-1.83,2.17,.9,1.27,1.69,2.61,2.37,4,2.21,5.49,.06,12.86-7.95,15.01-.61,.22-1.24,.44-2.03,.65,9.93-.13,17.87-8.28,17.74-18.21v-.22c-.06-5.08-2-9.95-5.44-13.69l.02,.02Z"/><path class="p" d="M46.58,25.77c-.74,1.23-1.13,2.64-1.11,4.08,.04,1.74,.52,3.44,1.4,4.94,3.9,6.3,7.51,5.44,9.48,10.38,1.56,3.88-2.04,7.23-7.41,2.64-6.05-5.2-7.86-16.4-3.68-22.42-2.98,3.68-4.57,8.28-4.52,13.01,.03,3.26,.88,6.46,2.47,9.3,1.21,2.27,2.96,4.21,5.09,5.66,2.36,1.55,5.05,2.51,7.86,2.8,1.38,.14,2.78,.05,4.14-.26,2.19-.54,4.21-1.65,5.84-3.21,4.94-4.53,2.1-11.49-2-15.43-4.1-3.94-6.76-6.81-6.07-10.21,.75-3.71,5-6.45,9.65-5.52,1.2,.16,2.37,.55,3.42,1.15-3.31-2.35-7.3-3.53-11.36-3.35-5,0-10.45,1.9-13.12,6.43"/></g><g><path class="q" d="M61.75,26.51c-.42,2.1,1.36,4.24,3.98,4.76s5.07-.77,5.49-2.87c.42-2.1-1.36-4.24-3.97-4.76-.41-.08-.82-.12-1.24-.11-1.96-.16-3.77,1.09-4.32,2.98"/><path class="k" d="M46.49,25.24c-.75,1.22-1.15,2.63-1.15,4.07,.1,1.71,.65,3.37,1.59,4.81,3.88,6.29,7.49,5.67,9.45,10.56,1.56,3.87-2.25,7.11-7.57,2.53-5.94-5.18-7.75-15.83-3.57-21.81-5.22,6.05-6.1,14.71-2.21,21.69,1.21,2.27,2.96,4.2,5.09,5.63,2.36,1.55,5.05,2.51,7.86,2.8,1.38,.14,2.78,.05,4.14-.26,2.2-.54,4.22-1.64,5.86-3.2,4.88-4.52,2.1-11.45-2.01-15.38-4.11-3.93-6.75-6.9-6.07-10.28,.77-3.71,5.12-6.02,9.76-5.09,1.21,.23,2.37,.69,3.42,1.35-3.3-2.5-7.34-3.85-11.48-3.84-5.02,0-10.45,1.9-13.14,6.4"/><path class="l" d="M73.42,24.77c2.15,2.56,1.81,6.37-.74,8.51h0c-.65,.57-1.42,.99-2.25,1.24-1.72,.54-2.89,.3-1.83,2.08,.9,1.2,1.7,2.47,2.38,3.81,1.52,3.9,.91,8.31-1.62,11.64l-.1,.12h0l-.07,.09c-.61,.76-1.31,1.42-2.1,1.99l-.2,.14-.21,.14c-.64,.43-1.32,.79-2.03,1.1-1.08,.49-2.2,.9-3.34,1.24,10.45-.94,18.17-10.17,17.23-20.62-.38-4.26-2.19-8.27-5.14-11.38v-.07l.02-.03Z"/></g><path class="n" d="M212.35,36.93s12.08,.3,13-9.04c-.74-.21-1.52-.31-2.29-.3-2.86,0-7.74,1.36-10.71,9.34m13.55-9.24c10.84,17.33,34.13,5.03,34.13,5.03-8.13-7.67-15.31-9.96-20.93-9.96-4.85-.04-9.55,1.71-13.19,4.92m-.54-.54c12.82-9.23,2.17-26.56,2.17-26.56-13.55,16.49-2.17,26.56-2.17,26.56"/><path class="j" d="M236.58,.96c-1.91,0-3.46,1.55-3.46,3.46s1.55,3.46,3.46,3.46,3.46-1.55,3.46-3.46-1.55-3.46-3.46-3.46m0,7.66c-2.32,0-4.2-1.89-4.2-4.2s1.89-4.2,4.2-4.2,4.2,1.88,4.2,4.2-1.89,4.2-4.2,4.2Z"/><path class="j" d="M236.64,2.81h-1v1.39h1c.45,0,.75-.26,.75-.69s-.3-.7-.75-.7m.78,3.83l-.94-1.87h-.84v1.87h-.67V2.2h1.72c.84,0,1.37,.54,1.37,1.3,0,.63-.38,1.04-.88,1.18l1.02,1.96h-.78Z"/></svg>