<?xml version="1.0" encoding="UTF-8"?><svg id="Layer_1" xmlns="http://www.w3.org/2000/svg" xmlns:xlink="http://www.w3.org/1999/xlink" viewBox="0 0 150 150"><defs><style>.cls-1{fill:url(#linear-gradient-2);}.cls-2,.cls-3{fill:#fff;}.cls-4{fill:url(#linear-gradient-15);}.cls-3,.cls-5,.cls-6,.cls-7,.cls-8,.cls-9,.cls-10,.cls-11,.cls-12,.cls-13,.cls-14{fill-rule:evenodd;}.cls-15{fill:url(#linear-gradient-14);}.cls-16{fill:url(#linear-gradient-6);}.cls-17{fill:url(#linear-gradient-11);}.cls-5{fill:#35b98d;}.cls-6{fill:#ec008c;}.cls-7{fill:#48b749;}.cls-8{fill:#982370;}.cls-9{fill:#ed1c24;}.cls-18{fill:url(#linear-gradient-10);}.cls-19{fill:#39b54a;}.cls-10{fill:#f58120;}.cls-11{fill:#008ed4;}.cls-12{fill:#fdcc09;}.cls-20{fill:url(#linear-gradient-5);}.cls-13{fill:#005faa;}.cls-21{fill:url(#linear-gradient-7);}.cls-14{fill:#6d2d7f;}.cls-22{fill:url(#linear-gradient-9);}.cls-23{fill:url(#linear-gradient-3);}.cls-24{fill:url(#linear-gradient);}.cls-25{fill:#231f20;}.cls-26{fill:url(#linear-gradient-4);}.cls-27{fill:url(#linear-gradient-8);}.cls-28{fill:url(#linear-gradient-12);}.cls-29{fill:url(#linear-gradient-13);}</style><linearGradient id="linear-gradient" x1="83.68" y1="60.29" x2="88.87" y2="60.29" gradientTransform="translate(-.12 1.09) rotate(-.18) scale(1 1.02) skewX(-.36)" gradientUnits="userSpaceOnUse"><stop offset="0" stop-color="#001b00"/><stop offset=".7" stop-color="#5c792b"/><stop offset=".96" stop-color="#647c2a"/><stop offset="1" stop-color="#667d2a"/></linearGradient><linearGradient id="linear-gradient-2" x1="83.05" y1="68.98" x2="92.66" y2="68.98" gradientTransform="matrix(1, 0, 0, 1, 0, 0)" xlink:href="#linear-gradient"/><linearGradient id="linear-gradient-3" x1="72.01" y1="67.35" x2="88.46" y2="67.35" gradientTransform="matrix(1, 0, 0, 1, 0, 0)" xlink:href="#linear-gradient"/><linearGradient id="linear-gradient-4" x1="75.52" y1="75.39" x2="75.52" y2="75.39" gradientTransform="matrix(1, 0, 0, 1, 0, 0)" xlink:href="#linear-gradient"/><linearGradient id="linear-gradient-5" x1="84.38" y1="59.16" x2="92.54" y2="59.16" gradientTransform="matrix(1, 0, 0, 1, 0, 0)" xlink:href="#linear-gradient"/><linearGradient id="linear-gradient-6" x1="88.32" y1="59.16" x2="89.88" y2="59.16" gradientTransform="matrix(1, 0, 0, 1, 0, 0)" xlink:href="#linear-gradient"/><linearGradient id="linear-gradient-7" x1="88.46" y1="59.17" x2="88.46" y2="59.17" gradientTransform="matrix(1, 0, 0, 1, 0, 0)" xlink:href="#linear-gradient"/><linearGradient id="linear-gradient-8" x1="88.32" y1="59.17" x2="89.87" y2="59.17" gradientTransform="matrix(1, 0, 0, 1, 0, 0)" xlink:href="#linear-gradient"/><linearGradient id="linear-gradient-9" x1="83.37" y1="61.75" x2="88.56" y2="61.75" gradientUnits="userSpaceOnUse"><stop offset="0" stop-color="#007b38"/><stop offset=".7" stop-color="#80c342"/><stop offset=".92" stop-color="#88c440"/><stop offset="1" stop-color="#8dc63f"/></linearGradient><linearGradient id="linear-gradient-10" x1="84.38" y1="59.17" x2="92.54" y2="59.17" gradientUnits="userSpaceOnUse"><stop offset="0" stop-color="#1b7c42"/><stop offset=".7" stop-color="#7ec242"/><stop offset=".9" stop-color="#86c440"/><stop offset="1" stop-color="#8dc63f"/></linearGradient><linearGradient id="linear-gradient-11" x1="88.32" x2="89.88" xlink:href="#linear-gradient-10"/><linearGradient id="linear-gradient-12" x1="88.46" y1="59.17" x2="88.46" y2="59.17" xlink:href="#linear-gradient-10"/><linearGradient id="linear-gradient-13" x1="88.32" y1="59.17" x2="89.87" y2="59.17" xlink:href="#linear-gradient-10"/><linearGradient id="linear-gradient-14" x1="71.96" y1="67.04" x2="88.46" y2="67.04" xlink:href="#linear-gradient-9"/><linearGradient id="linear-gradient-15" x1="83.17" y1="68.96" x2="92.55" y2="68.96" xlink:href="#linear-gradient-9"/></defs><rect class="cls-2" x=".47" y="132.35" width="149.41" height=".44"/><g><path class="cls-2" d="M.14,140.28s-.04-.07,0-.11l.33-.39s.07-.04,.1,0c.33,.26,.83,.52,1.41,.52,.7,0,1.11-.35,1.11-.86,0-.43-.24-.72-1.05-.82l-.25-.04c-.98-.13-1.48-.6-1.48-1.39,0-.9,.65-1.48,1.65-1.48,.59,0,1.17,.19,1.54,.47,.04,.03,.04,.07,.01,.1l-.25,.41s-.07,.04-.1,.01c-.41-.25-.79-.38-1.22-.38-.62,0-.96,.33-.96,.82,0,.42,.28,.7,1.06,.81l.25,.04c.99,.13,1.48,.59,1.48,1.41,0,.88-.62,1.52-1.84,1.52-.71,0-1.4-.29-1.77-.63Z"/><path class="cls-2" d="M6.95,139.73c-.1-.29-.13-.59-.13-1.42s.04-1.14,.13-1.42c.26-.78,.87-1.18,1.71-1.18s1.46,.4,1.72,1.18c.1,.29,.13,.59,.13,1.42s-.04,1.14-.13,1.42c-.26,.78-.87,1.18-1.72,1.18s-1.45-.4-1.71-1.18Zm2.79-.19c.06-.19,.11-.51,.11-1.24s-.05-1.05-.11-1.24c-.16-.48-.51-.75-1.08-.75s-.91,.27-1.07,.75c-.06,.19-.11,.51-.11,1.24s.05,1.05,.11,1.24c.16,.48,.51,.75,1.07,.75s.92-.27,1.08-.75Z"/><path class="cls-2" d="M13.82,135.86s.03-.07,.07-.07h.51s.07,.03,.07,.07v2.07s.01,.04,.04,.04h2.19s.04-.01,.04-.04v-2.07s.03-.07,.07-.07h.51s.07,.03,.07,.07v4.9s-.03,.07-.07,.07h-.51s-.07-.03-.07-.07v-2.12s-.01-.04-.04-.04h-2.19s-.04,.02-.04,.04v2.12s-.03,.07-.07,.07h-.51s-.07-.03-.07-.07v-4.9Z"/><path class="cls-2" d="M20.89,135.86s.03-.07,.07-.07h.47c.06,0,.1,.02,.13,.07l2.29,3.79h.03v-3.79s.03-.07,.07-.07h.47s.07,.03,.07,.07v4.9s-.03,.07-.07,.07h-.47c-.05,0-.1-.01-.13-.07l-2.29-3.77h-.02v3.77s-.03,.07-.07,.07h-.47s-.07-.03-.07-.07v-4.9Z"/><path class="cls-2" d="M29.27,135.86s.04-.07,.09-.07h.48c.05,0,.08,.03,.1,.07l1.73,4.9s0,.07-.05,.07h-.52c-.05,0-.08-.02-.1-.07l-.39-1.1h-2.04l-.39,1.1c-.02,.05-.05,.07-.1,.07h-.52s-.07-.03-.05-.07l1.75-4.9Zm1.13,3.19l-.79-2.29h-.01l-.8,2.29h1.61Z"/><path class="cls-2" d="M34.72,140.04h.52s.07,.03,.07,.07v.69c0,.07,0,.11-.04,.16l-.46,.61s-.06,.05-.1,.05-.07-.03-.07-.07v-1.45s.03-.07,.07-.07Z"/><path class="cls-2" d="M42.28,140.28s-.04-.07,0-.11l.33-.39s.07-.04,.1,0c.33,.26,.83,.52,1.41,.52,.7,0,1.11-.35,1.11-.86,0-.43-.24-.72-1.05-.82l-.25-.04c-.98-.13-1.48-.6-1.48-1.39,0-.9,.65-1.48,1.65-1.48,.59,0,1.17,.19,1.54,.47,.04,.03,.04,.07,.01,.1l-.25,.41s-.07,.04-.1,.01c-.41-.25-.79-.38-1.22-.38-.62,0-.96,.33-.96,.82,0,.42,.28,.7,1.06,.81l.25,.04c.99,.13,1.48,.59,1.48,1.41,0,.88-.62,1.52-1.84,1.52-.71,0-1.4-.29-1.77-.63Z"/><path class="cls-2" d="M49.09,139.73c-.1-.29-.13-.59-.13-1.42s.04-1.14,.13-1.42c.26-.78,.87-1.18,1.71-1.18s1.46,.4,1.72,1.18c.1,.29,.13,.59,.13,1.42s-.04,1.14-.13,1.42c-.26,.78-.87,1.18-1.72,1.18s-1.45-.4-1.71-1.18Zm2.79-.19c.06-.19,.11-.51,.11-1.24s-.05-1.05-.11-1.24c-.16-.48-.51-.75-1.08-.75s-.91,.27-1.07,.75c-.06,.19-.11,.51-.11,1.24s.05,1.05,.11,1.24c.16,.48,.51,.75,1.07,.75s.92-.27,1.08-.75Z"/><path class="cls-2" d="M55.92,139.07v-3.21s.03-.07,.07-.07h.51s.07,.03,.07,.07v3.21c0,.82,.45,1.23,1.13,1.23s1.12-.42,1.12-1.23v-3.21s.03-.07,.07-.07h.51s.07,.03,.07,.07v3.21c0,1.19-.68,1.84-1.78,1.84s-1.79-.65-1.79-1.84Z"/><path class="cls-2" d="M64.04,140.83s-.07-.03-.07-.07v-4.31s-.01-.04-.04-.04h-1.38s-.07-.03-.07-.07v-.47s.03-.07,.07-.07h3.51s.07,.03,.07,.07v.47s-.03,.07-.07,.07h-1.38s-.04,.01-.04,.04v4.31s-.03,.07-.07,.07h-.51Z"/><path class="cls-2" d="M69.13,135.86s.03-.07,.07-.07h.51s.07,.03,.07,.07v2.07s.01,.04,.04,.04h2.19s.04-.01,.04-.04v-2.07s.03-.07,.07-.07h.51s.07,.03,.07,.07v4.9s-.03,.07-.07,.07h-.51s-.07-.03-.07-.07v-2.12s-.01-.04-.04-.04h-2.19s-.04,.02-.04,.04v2.12s-.03,.07-.07,.07h-.51s-.07-.03-.07-.07v-4.9Z"/><path class="cls-2" d="M80.17,139.73c-.1-.29-.13-.59-.13-1.42s.04-1.14,.13-1.42c.26-.78,.87-1.18,1.71-1.18s1.46,.4,1.72,1.18c.1,.29,.13,.59,.13,1.42s-.04,1.14-.13,1.42c-.26,.78-.87,1.18-1.72,1.18s-1.45-.4-1.71-1.18Zm2.79-.19c.06-.19,.11-.51,.11-1.24s-.05-1.05-.11-1.24c-.16-.48-.51-.75-1.08-.75s-.91,.27-1.07,.75c-.06,.19-.11,.51-.11,1.24s.05,1.05,.11,1.24c.16,.48,.51,.75,1.07,.75s.92-.27,1.08-.75Z"/><path class="cls-2" d="M87.03,135.86s.03-.07,.07-.07h3.04s.07,.03,.07,.07v.47s-.03,.07-.07,.07h-2.4s-.04,.01-.04,.04v1.54s.01,.04,.04,.04h2.04s.07,.03,.07,.07v.47s-.03,.07-.07,.07h-2.04s-.04,.02-.04,.04v2.07s-.03,.07-.07,.07h-.51s-.07-.03-.07-.07v-4.9Z"/><path class="cls-2" d="M97.21,138.31c0-.83,.04-1.14,.13-1.42,.25-.78,.88-1.18,1.73-1.18s1.42,.45,1.68,1c.02,.04,.02,.08-.02,.1l-.45,.22s-.08,0-.1-.04c-.24-.45-.57-.67-1.11-.67-.57,0-.94,.27-1.09,.75-.07,.19-.1,.47-.1,1.24s.04,1.05,.1,1.24c.16,.48,.52,.75,1.09,.75,.51,0,.93-.25,1.08-.73,.05-.17,.1-.42,.1-.79,0-.03-.01-.05-.04-.05h-.98s-.07-.03-.07-.07v-.43s.03-.07,.07-.07h1.61s.07,.03,.07,.07v.38c0,.45-.05,.87-.13,1.11-.25,.76-.88,1.2-1.71,1.2s-1.48-.4-1.73-1.18c-.09-.29-.13-.59-.13-1.42Z"/><path class="cls-2" d="M104.17,139.07v-3.21s.03-.07,.07-.07h.51s.07,.03,.07,.07v3.21c0,.82,.45,1.23,1.13,1.23s1.12-.42,1.12-1.23v-3.21s.03-.07,.07-.07h.51s.07,.03,.07,.07v3.21c0,1.19-.68,1.84-1.78,1.84s-1.79-.65-1.79-1.84Z"/><path class="cls-2" d="M114.09,140.83c-.05,0-.07-.02-.1-.07l-1.01-2.06h-1.11s-.04,.01-.04,.04v2.02s-.03,.07-.07,.07h-.51s-.07-.03-.07-.07v-4.9s.03-.07,.07-.07h1.83c.94,0,1.58,.58,1.58,1.45,0,.68-.39,1.18-.99,1.37l1.08,2.13s0,.09-.04,.09h-.59Zm-.1-3.59c0-.53-.35-.84-.94-.84h-1.18s-.04,.01-.04,.04v1.59s.01,.04,.04,.04h1.18c.59,0,.94-.31,.94-.84Z"/><path class="cls-2" d="M117.94,139.07v-3.21s.03-.07,.07-.07h.51s.07,.03,.07,.07v3.21c0,.82,.45,1.23,1.13,1.23s1.12-.42,1.12-1.23v-3.21s.03-.07,.07-.07h.51s.07,.03,.07,.07v3.21c0,1.19-.68,1.84-1.78,1.84s-1.79-.65-1.79-1.84Z"/><path class="cls-2" d="M124.76,138.31c0-.83,.04-1.14,.13-1.42,.25-.78,.88-1.18,1.73-1.18s1.42,.45,1.68,1c.02,.04,.02,.08-.02,.1l-.45,.22s-.08,0-.1-.04c-.24-.45-.57-.67-1.11-.67-.57,0-.94,.27-1.09,.75-.07,.19-.1,.47-.1,1.24s.04,1.05,.1,1.24c.16,.48,.52,.75,1.09,.75,.51,0,.93-.25,1.08-.73,.05-.17,.1-.42,.1-.79,0-.03-.01-.05-.04-.05h-.98s-.07-.03-.07-.07v-.43s.03-.07,.07-.07h1.61s.07,.03,.07,.07v.38c0,.45-.05,.87-.13,1.11-.25,.76-.88,1.2-1.71,1.2s-1.48-.4-1.73-1.18c-.09-.29-.13-.59-.13-1.42Z"/><path class="cls-2" d="M134.68,140.83c-.05,0-.07-.02-.1-.07l-1.01-2.06h-1.11s-.04,.01-.04,.04v2.02s-.03,.07-.07,.07h-.51s-.07-.03-.07-.07v-4.9s.03-.07,.07-.07h1.83c.94,0,1.58,.58,1.58,1.45,0,.68-.39,1.18-.99,1.37l1.08,2.13s0,.09-.04,.09h-.59Zm-.1-3.59c0-.53-.35-.84-.94-.84h-1.18s-.04,.01-.04,.04v1.59s.01,.04,.04,.04h1.18c.59,0,.94-.31,.94-.84Z"/><path class="cls-2" d="M139.87,135.86s.04-.07,.09-.07h.48c.05,0,.08,.03,.1,.07l1.73,4.9s0,.07-.05,.07h-.52c-.05,0-.08-.02-.1-.07l-.39-1.1h-2.04l-.39,1.1c-.02,.05-.05,.07-.1,.07h-.52s-.07-.03-.05-.07l1.75-4.9Zm1.13,3.19l-.79-2.29h-.02l-.8,2.29h1.61Z"/><path class="cls-2" d="M145.29,135.86s.03-.07,.07-.07h.48c.06,0,.1,.02,.12,.07l1.51,3.4h.02l1.48-3.4c.02-.05,.06-.07,.12-.07h.48s.07,.03,.07,.07v4.9s-.03,.07-.07,.07h-.47s-.07-.03-.07-.07v-3.51h-.02l-1.25,2.78c-.03,.07-.07,.09-.13,.09h-.3c-.07,0-.11-.02-.14-.09l-1.25-2.78h-.02v3.51s-.03,.07-.07,.07h-.47s-.07-.03-.07-.07v-4.9Z"/></g><path class="cls-2" d="M3.46,129.48c-1.94,0-2.93-1.09-3.02-3.3,0-.11,.04-.19,.15-.21l1.11-.21c.13-.02,.21,.06,.21,.17,.08,1.59,.59,2.15,1.57,2.15s1.43-.47,1.43-2.21c0-1.47-.28-2.02-1.3-2.42l-.77-.3c-1.76-.68-2.25-1.55-2.25-3.53,0-2.19,.94-3.32,2.87-3.32s2.81,1.06,2.91,3.06c0,.11-.06,.19-.17,.21l-1.06,.17c-.11,.04-.21-.04-.21-.15-.04-1.26-.45-1.89-1.43-1.89s-1.4,.57-1.4,1.87,.3,1.77,1.34,2.17l.77,.3c1.64,.66,2.23,1.51,2.23,3.64,0,2.59-.81,3.79-2.98,3.79Z"/><path class="cls-2" d="M8.29,116.66c0-.11,.08-.19,.19-.19h1.15c.11,0,.19,.08,.19,.19v12.46c0,.11-.08,.19-.19,.19h-1.15c-.11,0-.19-.08-.19-.19v-12.46Z"/><path class="cls-2" d="M11.88,122.89c0-3.64,.06-4.11,.25-4.68,.4-1.23,1.36-1.91,2.81-1.91,1.77,0,2.77,1,2.98,2.79,.02,.11-.02,.21-.13,.23l-1.06,.21c-.13,.02-.21-.04-.23-.15-.13-1.06-.62-1.64-1.55-1.64-.68,0-1.17,.32-1.36,.91-.13,.38-.17,.66-.17,4.25s.04,3.87,.17,4.25c.19,.59,.7,.91,1.38,.91s1.19-.32,1.38-.91c.11-.36,.17-.66,.17-3.28,0-.08-.04-.11-.11-.11h-1.26c-.11,0-.19-.08-.19-.19v-1c0-.11,.08-.19,.19-.19h2.66c.11,0,.19,.08,.19,.19v.55c0,3.44-.06,3.91-.25,4.47-.38,1.23-1.36,1.91-2.81,1.91s-2.42-.68-2.81-1.91c-.19-.57-.25-1.04-.25-4.68Z"/><path class="cls-2" d="M19.95,116.66c0-.11,.08-.19,.19-.19h1.42c.15,0,.25,.06,.28,.19l2.87,9.63h.08v-9.63c0-.11,.08-.19,.19-.19h1c.11,0,.19,.08,.19,.19v12.46c0,.11-.08,.19-.19,.19h-1.34c-.15,0-.25-.06-.28-.19l-2.93-9.63h-.09v9.63c0,.11-.08,.19-.19,.19h-1c-.11,0-.19-.08-.19-.19v-12.46Z"/><path class="cls-2" d="M30.37,116.66c.04-.11,.09-.19,.21-.19h1.13c.11,0,.19,.08,.21,.19l2.7,12.46c.02,.11-.06,.19-.17,.19h-1.13c-.13,0-.19-.08-.21-.19l-.57-2.81h-2.85l-.57,2.81c-.02,.11-.08,.19-.19,.19h-1.13c-.11,0-.19-.08-.17-.19l2.74-12.46Zm1.91,8.32l-1.09-5.59h-.06l-1.17,5.59h2.32Z"/><path class="cls-2" d="M36.96,129.31c-.11,0-.19-.08-.19-.19v-11.12c0-.08-.04-.11-.11-.11h-2.11c-.11,0-.19-.08-.19-.19v-1.04c0-.11,.08-.19,.19-.19h5.98c.11,0,.19,.08,.19,.19v1.04c0,.11-.08,.19-.19,.19h-2.11c-.08,0-.11,.04-.11,.11v11.12c0,.11-.08,.19-.19,.19h-1.15Z"/><path class="cls-2" d="M42.13,126.16v-9.49c0-.11,.08-.19,.19-.19h1.15c.11,0,.19,.08,.19,.19v9.68c0,1.11,.57,1.7,1.47,1.7s1.47-.59,1.47-1.7v-9.68c0-.11,.08-.19,.19-.19h1.15c.11,0,.19,.08,.19,.19v9.49c0,2.21-1.17,3.32-3,3.32s-3-1.11-3-3.32Z"/><path class="cls-2" d="M55.13,129.31c-.11,0-.17-.04-.21-.13l-1.6-5.36c-.17,.02-.36,.02-.53,.02h-.77c-.08,0-.11,.04-.11,.11v5.17c0,.11-.08,.19-.19,.19h-1.15c-.11,0-.19-.08-.19-.19v-12.46c0-.11,.08-.19,.19-.19h2.25c2.27,0,3.47,.98,3.47,3.7,0,1.72-.57,2.76-1.57,3.27l1.79,5.68c.04,.09,0,.19-.09,.19h-1.28Zm-.38-9.14c0-1.74-.57-2.28-1.93-2.28h-.81c-.08,0-.11,.04-.11,.11v4.34c0,.08,.04,.11,.11,.11h.81c1.32,0,1.93-.53,1.93-2.28Z"/><path class="cls-2" d="M58.32,116.66c0-.11,.08-.19,.19-.19h4.85c.11,0,.19,.08,.19,.19v1.04c0,.11-.08,.19-.19,.19h-3.4c-.08,0-.11,.04-.11,.11v4c0,.08,.04,.11,.11,.11h2.94c.11,0,.19,.08,.19,.19v1.04c0,.11-.08,.19-.19,.19h-2.94c-.08,0-.11,.04-.11,.11v4.13c0,.08,.04,.11,.11,.11h3.4c.11,0,.19,.08,.19,.19v1.04c0,.11-.08,.19-.19,.19h-4.85c-.11,0-.19-.08-.19-.19v-12.46Z"/><path class="cls-2" d="M68.62,122.89c0-3.64,.06-4.11,.25-4.68,.4-1.23,1.36-1.91,2.81-1.91,1.77,0,2.77,1,2.98,2.79,.02,.11-.02,.21-.13,.23l-1.06,.21c-.13,.02-.21-.04-.23-.15-.13-1.06-.62-1.64-1.55-1.64-.68,0-1.17,.32-1.36,.91-.13,.38-.17,.66-.17,4.25s.04,3.87,.17,4.25c.19,.59,.7,.91,1.38,.91s1.19-.32,1.38-.91c.11-.36,.17-.66,.17-3.28,0-.08-.04-.11-.11-.11h-1.26c-.11,0-.19-.08-.19-.19v-1c0-.11,.08-.19,.19-.19h2.66c.11,0,.19,.08,.19,.19v.55c0,3.44-.06,3.91-.25,4.47-.38,1.23-1.36,1.91-2.81,1.91s-2.42-.68-2.81-1.91c-.19-.57-.25-1.04-.25-4.68Z"/><path class="cls-2" d="M76.7,116.66c0-.11,.08-.19,.19-.19h1.15c.11,0,.19,.08,.19,.19v11.12c0,.08,.04,.11,.11,.11h3.36c.11,0,.19,.08,.19,.19v1.04c0,.11-.08,.19-.19,.19h-4.81c-.11,0-.19-.08-.19-.19v-12.46Z"/><path class="cls-2" d="M83.04,127.57c-.19-.57-.25-1.04-.25-4.68s.06-4.11,.25-4.68c.4-1.23,1.36-1.91,2.81-1.91s2.44,.68,2.81,1.91c.19,.57,.25,1.04,.25,4.68s-.06,4.12-.25,4.68c-.38,1.23-1.36,1.91-2.81,1.91s-2.42-.68-2.81-1.91Zm4.17-.43c.11-.38,.15-.66,.15-4.25s-.04-3.87-.15-4.25c-.19-.59-.68-.91-1.36-.91s-1.15,.32-1.34,.91c-.13,.38-.17,.66-.17,4.25s.04,3.87,.17,4.25c.19,.59,.66,.91,1.34,.91s1.17-.32,1.36-.91Z"/><path class="cls-2" d="M90.96,116.66c0-.11,.08-.19,.19-.19h2.43c2.23,0,3.19,.96,3.19,3.3,0,1.6-.55,2.4-1.49,2.81v.04c.96,.3,1.62,1.17,1.62,3,0,2.76-1.11,3.68-3.51,3.68h-2.25c-.11,0-.19-.08-.19-.19v-12.46Zm2.55,5.36c1.21,0,1.72-.45,1.72-2.06s-.45-2.08-1.76-2.08h-.87c-.08,0-.11,.04-.11,.11v3.91c0,.08,.04,.11,.11,.11h.91Zm-.91,5.87h.85c1.4,0,1.91-.51,1.91-2.28s-.55-2.25-1.85-2.25h-.91c-.08,0-.11,.04-.11,.11v4.3c0,.08,.04,.11,.11,.11Z"/><path class="cls-2" d="M100.57,116.66c.04-.11,.09-.19,.21-.19h1.13c.11,0,.19,.08,.21,.19l2.7,12.46c.02,.11-.06,.19-.17,.19h-1.13c-.13,0-.19-.08-.21-.19l-.57-2.81h-2.85l-.57,2.81c-.02,.11-.08,.19-.19,.19h-1.13c-.11,0-.19-.08-.17-.19l2.74-12.46Zm1.91,8.32l-1.09-5.59h-.06l-1.17,5.59h2.32Z"/><path class="cls-2" d="M106.28,116.66c0-.11,.08-.19,.19-.19h1.15c.11,0,.19,.08,.19,.19v11.12c0,.08,.04,.11,.11,.11h3.36c.11,0,.19,.08,.19,.19v1.04c0,.11-.08,.19-.19,.19h-4.81c-.11,0-.19-.08-.19-.19v-12.46Z"/><path class="cls-19" d="M116.93,127.7c-.09-.08-.11-.21-.02-.3l1.7-2c.08-.09,.19-.09,.26-.02,.77,.68,1.98,1.28,3.26,1.28,1.19,0,1.81-.49,1.81-1.21,0-.55-.36-.91-1.62-1.08l-.68-.09c-2.77-.4-4.29-1.64-4.29-4.04s1.87-4,4.78-4c1.77,0,3.44,.55,4.59,1.42,.09,.08,.11,.17,.04,.28l-1.42,2.06c-.08,.09-.17,.11-.26,.06-.91-.6-1.87-.96-2.89-.96-.94,0-1.42,.45-1.42,1.08,0,.57,.42,.92,1.64,1.08l.68,.09c2.81,.4,4.25,1.64,4.25,4.08s-1.81,4.12-5.25,4.12c-2.1,0-4.21-.89-5.17-1.83Z"/><path class="cls-19" d="M128.59,122.89c0-1.91,.09-2.6,.38-3.47,.68-2.1,2.34-3.17,4.66-3.17s3.89,1.08,4.61,2.93c.06,.13,.04,.21-.09,.26l-2.51,1.09c-.13,.06-.21,.02-.26-.11-.36-.75-.81-1.21-1.68-1.21-.81,0-1.32,.4-1.55,1.11-.13,.4-.19,.79-.19,2.57s.06,2.17,.19,2.57c.23,.72,.74,1.11,1.55,1.11,.87,0,1.32-.45,1.68-1.21,.06-.13,.13-.17,.26-.11l2.51,1.09c.13,.06,.15,.13,.09,.26-.72,1.85-2.34,2.93-4.61,2.93s-3.98-1.08-4.66-3.17c-.28-.87-.38-1.57-.38-3.47Z"/><path class="cls-19" d="M139.8,126.38c-.3-.98-.38-1.74-.38-3.49s.08-2.51,.38-3.49c.68-2.1,2.55-3.15,4.81-3.15s4.13,1.06,4.81,3.15c.32,.98,.38,1.74,.38,3.49s-.06,2.51-.38,3.49c-.68,2.1-2.55,3.15-4.81,3.15s-4.13-1.06-4.81-3.15Zm6.46-.94c.15-.43,.19-1.02,.19-2.55s-.04-2.11-.19-2.55c-.23-.72-.81-1.13-1.64-1.13s-1.42,.42-1.64,1.13c-.15,.43-.19,1.02-.19,2.55s.04,2.11,.19,2.55c.23,.72,.81,1.13,1.64,1.13s1.42-.42,1.64-1.13Z"/><g><g><path class="cls-24" d="M88.58,62.57c-.23,1.16-1.57,1.87-2.98,1.59-1.42-.28-2.38-1.45-2.14-2.61,.23-1.16,1.57-1.87,2.98-1.59,1.42,.28,2.38,1.45,2.14,2.61Z"/><g><path class="cls-1" d="M89.72,60.3h0c.61,.8,.95,2.03,.76,2.99-.23,1.17-1.1,2.15-2.33,2.54-.93,.3-1.57,.21-.99,1.18,.51,.85,.97,1.38,1.29,2.17,1.2,2.97,.03,6.97-4.31,8.13-.33,.12-.7,.24-1.1,.35,5.68-.25,9.6-4.51,9.6-9.95,0-2.74-1.19-5.57-2.93-7.41Z"/><path class="cls-23" d="M84.66,67.07c-2.23-2.13-3.66-3.69-3.29-5.53,.41-2.03,2.71-3.5,5.23-2.99,.69,.14,1.31,.28,1.85,.62-1.73-1.31-3.82-1.81-6.15-1.81-2.71,0-5.66,1.03-7.11,3.48-.4,.67-.62,1.43-.6,2.21,.03,.93,.27,1.88,.75,2.67,2.1,3.42,4.05,2.98,5.12,5.63,.84,2.1-1.1,3.92-3.99,1.43-3.27-2.81-4.25-8.88-2.02-12.11-1.56,1.81-2.45,4.44-2.45,7.02,0,1.76,.45,3.5,1.31,5.04,.69,1.24,1.57,2.28,2.76,3.06,1.26,.82,2.75,1.38,4.25,1.52,.75,.07,1.51,.03,2.24-.14,1.19-.28,2.27-.91,3.17-1.74,2.65-2.46,1.14-6.23-1.09-8.36Z"/></g><polygon class="cls-26" points="75.52 75.39 75.52 75.39 75.52 75.39 75.52 75.39"/><polygon class="cls-20" points="88.46 59.16 88.46 59.16 88.46 59.16 88.46 59.16"/><polygon class="cls-16" points="88.46 59.16 88.46 59.16 88.46 59.16 88.46 59.16"/><polygon class="cls-21" points="88.46 59.16 88.46 59.17 88.46 59.16 88.46 59.16"/><polygon class="cls-27" points="88.46 59.16 88.46 59.17 88.46 59.16 88.46 59.16"/><path class="cls-22" d="M88.53,62.26c-.23,1.14-1.56,1.83-2.97,1.55-1.42-.28-2.38-1.43-2.15-2.57,.23-1.14,1.56-1.83,2.97-1.55,1.42,.28,2.38,1.43,2.15,2.57Z"/><polygon class="cls-18" points="88.46 59.16 88.46 59.17 88.46 59.17 88.46 59.16"/><polygon class="cls-17" points="88.46 59.16 88.46 59.17 88.46 59.17 88.46 59.16"/><polygon class="cls-28" points="88.46 59.17 88.46 59.17 88.46 59.17 88.46 59.17"/><polygon class="cls-29" points="88.46 59.17 88.46 59.17 88.46 59.17 88.46 59.17"/><g><path class="cls-15" d="M84.6,66.76c-2.23-2.13-3.66-3.73-3.29-5.57,.41-2.02,2.77-3.26,5.29-2.76,.69,.14,1.31,.39,1.85,.73-1.73-1.31-3.87-2.08-6.21-2.08-2.71,0-5.66,1.03-7.11,3.47-.4,.67-.62,1.42-.6,2.2,.03,.93,.38,1.82,.87,2.6,2.1,3.41,4.05,3.08,5.12,5.72,.84,2.1-1.21,3.85-4.1,1.37-3.27-2.81-4.19-8.57-1.96-11.8-1.56,1.8-2.5,4.15-2.5,6.73,0,1.75,.45,3.49,1.31,5.02,.69,1.24,1.57,2.28,2.76,3.05,1.26,.82,2.75,1.37,4.25,1.52,.75,.07,1.51,.03,2.24-.14,1.19-.28,2.27-.91,3.17-1.74,2.65-2.45,1.14-6.21-1.09-8.33Z"/><path class="cls-4" d="M89.72,60.3h0c.61,.8,.9,1.76,.71,2.71-.23,1.17-1.1,2.15-2.33,2.54-.93,.3-1.57,.16-.99,1.13,.51,.85,.97,1.27,1.29,2.06,.78,1.94,.56,4.44-.87,6.3-.02,.03-.04,.05-.05,.07,0,0,0,0,0,0-.01,.02-.03,.03-.04,.05-.27,.33-.61,.7-1.14,1.07-.03,.03-.07,.05-.11,.07-.04,.03-.08,.05-.11,.08-.33,.22-.7,.42-1.1,.59-.5,.22-1.09,.44-1.8,.65,5.26-.46,9.38-4.88,9.38-10.25,0-2.74-1.07-5.23-2.82-7.08Z"/></g></g><g><path class="cls-5" d="M38.07,81.27l1.94-30.56c7.33,2.51,14.7,5.18,21.19,7.74,11.14,4.45,8.16,9.16-4.13,14.65-2.67,1.26-12.66,5.44-18.99,8.16h0Z"/><path class="cls-7" d="M44.72,110.41h-8.48l1.73-27.47c6.28-2.46,16.69-6.38,19.36-7.38,22.6-8.01,9.68,6.8,2.46,16.22-2.77,3.56-10.1,12.56-15.07,18.63h0Z"/><path class="cls-12" d="M75.27,110.41h-28.62c4.97-5.81,11.83-13.76,14.49-16.9,12.87-15.33,18.89-17.01,16.22,3.09-.26,1.67-1.1,7.33-2.09,13.81h0Z"/><path class="cls-10" d="M100.81,110.41h-23.6c1.15-6.38,2.15-11.88,2.46-13.55,4.76-25.38,10.15-11.77,15.85,1.62,1.78,3.98,3.51,7.95,5.28,11.93h0Z"/><path class="cls-9" d="M113,91.1l1.2,19.31h-11.46c-1.99-4.45-3.92-8.95-5.65-13.45-5.18-13.76-8.37-26.06,6.75-13.34,1.31,1.05,5.18,4.24,9.16,7.48h0Z"/><path class="cls-6" d="M111.48,66.72l1.36,22.24c-3.66-3.19-7.06-6.23-8.27-7.38-14.13-13.45-6.91-15.54,5.91-14.91,.31,0,.63,.05,.99,.05h0Z"/><path class="cls-8" d="M110.02,43.96l1.36,21.14c-.73-.05-1.36-.16-1.99-.21-9.21-1.05-21.24-2.93-9.89-12.4,1.57-1.36,8.27-6.75,10.52-8.53h0Z"/><path class="cls-14" d="M88.25,30.77h20.98l.68,11.46c-.05,.1-.16,.16-.21,.21-1.78,1.41-9.52,7.53-11.46,8.84-11.88,8.22-11.93-1.47-10.94-11.98,.26-2.88,.63-5.7,.94-8.53h0Z"/><path class="cls-13" d="M62.98,30.77h24.02c-.31,2.67-.73,5.39-1.15,8.11-1.73,10.88-4.4,19.41-13.71,6.8-1.36-1.94-6.91-11.2-9.16-14.91h0Z"/><path class="cls-11" d="M41.21,30.77h20.2c1.57,2.67,6.96,13.19,8.11,15.33,7.06,13.03-.21,11.77-7.53,9.78-7.33-2.04-14.65-4.4-21.92-6.75l1.15-18.37Z"/><path class="cls-3" d="M96.47,35.64c1.99,0,3.66,1.62,3.66,3.66s-1.67,3.66-3.66,3.66-3.71-1.67-3.71-3.66,1.67-3.66,3.71-3.66h0Z"/><path class="cls-3" d="M54.03,35.64c2.04,0,3.66,1.62,3.66,3.66s-1.62,3.66-3.66,3.66-3.66-1.67-3.66-3.66,1.62-3.66,3.66-3.66h0Z"/><path class="cls-25" d="M51.99,38.67c.42-7.27,3.4-30.82,24.33-30.3,20.88,.52,22.19,23.34,22.08,30.51-.05,3.45-4.08,3.03-4.03-.05,.1-6.23-.89-26.01-18.16-26.42-17.11-.42-19.52,19.88-19.94,26.63-.21,3.4-4.5,3.09-4.29-.37h0Z"/></g></g></svg>