<?xml version="1.0" encoding="utf-8"?>
<!-- Generator: Adobe Illustrator 26.5.2, SVG Export Plug-In . SVG Version: 6.00 Build 0)  -->
<svg version="1.1" id="Layer_1" xmlns="http://www.w3.org/2000/svg" xmlns:xlink="http://www.w3.org/1999/xlink" x="0px" y="0px"
	 viewBox="0 0 180 180" style="enable-background:new 0 0 180 180;" xml:space="preserve">
<style type="text/css">
	.st0{fill-rule:evenodd;clip-rule:evenodd;fill:#FFFFFF;}
	.st1{fill:#FFFFFF;}
	.st2{clip-path:url(#SVGID_00000048481674487970182590000017015415451650830494_);}
	.st3{fill:url(#SVGID_00000002349259455415946910000015308721045789499800_);}
	.st4{clip-path:url(#SVGID_00000097459760170613976310000007350991484654538396_);}
	.st5{fill:url(#SVGID_00000040538767709145711180000005465761948660335764_);}
	.st6{clip-path:url(#SVGID_00000076583954366200759290000012288721132520978089_);}
	.st7{fill:url(#SVGID_00000069372352913947303140000006812882460483823807_);}
	.st8{clip-path:url(#SVGID_00000088834616353007954740000002576346214523353259_);}
	.st9{fill:url(#SVGID_00000089531687626740295460000013719597386454195877_);}
	.st10{clip-path:url(#SVGID_00000182496215135731472020000007938680680230320773_);}
	.st11{fill:url(#SVGID_00000047042934753204693030000004220412433083848874_);}
	.st12{opacity:0.41;}
	.st13{clip-path:url(#SVGID_00000013153521618598484070000015038533172339335583_);}
	.st14{clip-path:url(#SVGID_00000173863680214814500850000010223581694662066050_);}
	.st15{fill:url(#SVGID_00000167366186138259307940000007671290516423473594_);}
	.st16{fill:#F8ED3A;}
	.st17{clip-path:url(#SVGID_00000173856034406061402470000006632716949895308466_);}
	.st18{fill:url(#SVGID_00000096048048129941751170000003324552469345670050_);}
	.st19{clip-path:url(#SVGID_00000160905822571872907310000017927393237857301690_);}
	.st20{fill:url(#SVGID_00000112597363116764338780000002198146944488756140_);}
	.st21{clip-path:url(#SVGID_00000128445983416546592610000004064040955895865277_);}
	.st22{fill:url(#SVGID_00000093864769689948909970000001234944097270195634_);}
	.st23{clip-path:url(#SVGID_00000078011529754842842960000005168974152457775029_);}
	.st24{fill:url(#SVGID_00000044166810552619255560000014096563474163446696_);}
	.st25{clip-path:url(#SVGID_00000026163877331125629620000001220018898060202644_);}
	.st26{fill:url(#SVGID_00000052810887984061578280000009570229442815589311_);}
	.st27{clip-path:url(#SVGID_00000048501228902758990710000009336319393136529338_);}
	.st28{fill:url(#SVGID_00000036247517453339552960000006297476027017755070_);}
	.st29{clip-path:url(#SVGID_00000025421176572266593430000000269946703112399014_);}
	.st30{fill:url(#SVGID_00000062902282740738299490000008659581985725433787_);}
	.st31{clip-path:url(#SVGID_00000172427221072312428150000003499936733605327772_);}
	.st32{fill:url(#SVGID_00000000212193917394609590000014777159799906839725_);}
	.st33{clip-path:url(#SVGID_00000025435621808590496690000002735714830588365704_);}
	.st34{fill:url(#SVGID_00000054247978544613689140000001505698403156465852_);}
	.st35{clip-path:url(#SVGID_00000111152730073032281990000014041389797372923800_);}
	.st36{fill:url(#SVGID_00000054237947165465865050000012723043124310108846_);}
	.st37{clip-path:url(#SVGID_00000036217931655259584530000006316721065092974758_);}
	.st38{fill:url(#SVGID_00000136403212828132179870000007269236716985341059_);}
	.st39{clip-path:url(#SVGID_00000061459431544482847830000009790592865716923056_);}
	.st40{fill:url(#SVGID_00000009551148810739915660000015038143934533103535_);}
	.st41{clip-path:url(#SVGID_00000155124719645318664740000003537899429170772124_);}
	.st42{fill:url(#SVGID_00000171722229857538358690000010931233524279707795_);}
	.st43{clip-path:url(#SVGID_00000037668367466460943920000018083288832763337891_);}
	.st44{fill:url(#SVGID_00000121281709717706367250000003084225222708250806_);}
	.st45{clip-path:url(#SVGID_00000110431970849538464560000018196297455943265683_);}
	.st46{fill:url(#SVGID_00000132802836502363247200000000079542940768120220_);}
	.st47{clip-path:url(#SVGID_00000142866537852498461850000013766642773885855632_);}
	.st48{fill:url(#SVGID_00000152249144183785890850000008278913628316764060_);}
	.st49{fill:#69B545;}
	.st50{fill:none;stroke:#FFFFFF;stroke-width:0.1905;stroke-miterlimit:10;}
</style>
<g>
	<g id="Layer_1_00000158738349318217011500000014742865334252947079_">
		<g>
			<path class="st0" d="M42.9,82.2c-0.2,0.3-0.4,0.7-0.8,0.9c-0.3,0.2-0.7,0.4-1.1,0.6s-0.9,0.2-1.4,0.2c-0.8,0-1.4-0.1-2-0.3
				c-0.6-0.2-1-0.5-1.5-0.9l1.4-1.4c0.2,0.2,0.5,0.4,0.9,0.5c0.3,0.1,0.8,0.1,1.1,0.1c0.9,0,1.3-0.3,1.3-0.8c0-0.2-0.1-0.4-0.2-0.5
				c-0.1-0.1-0.3-0.2-0.6-0.2l-0.6-0.1l-0.6-0.1c-0.8-0.1-1.4-0.4-1.8-0.8c-0.4-0.4-0.6-1-0.6-1.8c0-0.8,0.3-1.5,0.9-2.1
				c0.6-0.6,1.4-0.8,2.4-0.8c0.7,0,1.2,0.1,1.7,0.2c0.5,0.2,0.9,0.5,1.3,0.8l-1.4,1.4c-0.2-0.2-0.5-0.4-0.8-0.5
				c-0.3-0.1-0.6-0.1-1-0.1s-0.6,0.1-0.8,0.2s-0.3,0.4-0.3,0.6c0,0.2,0.1,0.3,0.2,0.4c0.1,0.1,0.3,0.2,0.6,0.3l0.5,0.1l0.6,0.1
				c0.8,0.1,1.4,0.3,1.8,0.8c0.5,0.5,0.7,1.1,0.7,2C43.2,81.4,43.1,81.9,42.9,82.2"/>
			<path class="st0" d="M54.2,81.6c-0.1,0.5-0.4,0.9-0.7,1.2c-0.4,0.4-0.8,0.7-1.2,0.8c-0.4,0.1-0.9,0.2-1.5,0.2s-1-0.1-1.4-0.2
				s-0.8-0.4-1.1-0.8c-0.4-0.4-0.7-0.9-0.8-1.4s-0.2-1.2-0.2-2.2c0-1,0-1.7,0.2-2.2c0.1-0.5,0.3-1,0.8-1.4c0.3-0.3,0.7-0.6,1.1-0.8
				c0.4-0.2,0.9-0.2,1.4-0.2s1,0.1,1.5,0.2c0.4,0.2,0.8,0.4,1.1,0.7s0.5,0.6,0.7,1c0.2,0.3,0.3,0.7,0.3,1.1h-2.3
				c-0.1-0.3-0.2-0.6-0.5-0.8c-0.2-0.1-0.5-0.2-0.9-0.2c-0.2,0-0.4,0-0.5,0.1c-0.1,0.1-0.3,0.2-0.4,0.3c-0.1,0.1-0.1,0.2-0.1,0.2
				c0,0.1-0.1,0.2-0.1,0.3c0,0.1,0,0.3-0.1,0.6c0,0.3,0,0.6,0,1s0,0.7,0,1s0,0.5,0.1,0.6c0,0.2,0.1,0.3,0.1,0.4
				c0,0.1,0.1,0.2,0.1,0.2c0.2,0.2,0.5,0.4,0.9,0.4c0.5,0,0.8-0.1,1-0.3c0.1-0.1,0.2-0.3,0.3-0.4c0.1-0.2,0.1-0.3,0.1-0.5v-0.1h-1.3
				v-1.9h3.6v1.2C54.4,80.5,54.3,81.2,54.2,81.6"/>
			<polygon class="st0" points="60.6,83.8 57.7,79.2 57.7,83.8 55.4,83.8 55.4,74.7 57.4,74.7 60.3,79.3 60.3,74.7 62.5,74.7 
				62.5,83.8 			"/>
			<path class="st0" d="M69.2,83.8l-0.4-1.4H66l-0.5,1.4h-2.3l3.3-9.1h1.7l3.3,9.1H69.2L69.2,83.8z M67.4,78.2L67.4,78.2l-0.8,2.4
				h1.6L67.4,78.2z"/>
			<polygon class="st0" points="75.2,76.7 75.2,83.8 73,83.8 73,76.7 70.7,76.7 70.7,74.7 77.4,74.7 77.4,76.7 			"/>
			<path class="st0" d="M84.8,81.9c-0.2,0.4-0.4,0.8-0.7,1c-0.3,0.3-0.7,0.5-1.1,0.7c-0.4,0.1-0.9,0.2-1.4,0.2
				c-0.5,0-0.9-0.1-1.3-0.2s-0.8-0.4-1.1-0.7c-0.3-0.3-0.6-0.6-0.7-1s-0.3-0.9-0.3-1.4v-5.9h2.2v5.9c0,0.4,0.1,0.7,0.3,1
				c0.2,0.2,0.5,0.3,0.9,0.3s0.7-0.1,0.9-0.3c0.2-0.2,0.3-0.6,0.3-1v-5.9H85v5.9C85.1,81.1,85,81.5,84.8,81.9"/>
			<path class="st0" d="M90.9,83.8l-1.6-3.4h-0.8v3.4h-2.2v-9.1h3.6c0.5,0,0.9,0.1,1.3,0.2s0.7,0.4,1,0.7c0.3,0.3,0.5,0.6,0.6,0.9
				c0.1,0.3,0.2,0.7,0.2,1.1c0,0.6-0.1,1-0.4,1.5c-0.3,0.4-0.6,0.7-1,0.9l2,3.8L90.9,83.8L90.9,83.8z M90.5,77L90.5,77
				c-0.2-0.2-0.4-0.3-0.7-0.3h-1.2v1.8h1.2c0.3,0,0.5-0.1,0.7-0.3s0.3-0.4,0.3-0.7C90.8,77.3,90.7,77.2,90.5,77"/>
			<polygon class="st0" points="94.3,83.8 94.3,74.7 100.4,74.7 100.4,76.7 96.5,76.7 96.5,78.2 99.8,78.2 99.8,80.2 96.5,80.2 
				96.5,81.8 100.4,81.8 100.4,83.8 			"/>
			<rect x="44.1" y="74.7" class="st1" width="2.2" height="9.1"/>
			<path class="st0" d="M45.3,95.7c-0.2,0.6-0.5,1.2-1,1.7c-0.5,0.5-1,0.9-1.6,1.1c-0.6,0.2-1.2,0.3-2,0.3s-1.3-0.1-1.9-0.3
				s-1.1-0.6-1.5-1c-0.6-0.6-0.9-1.2-1-1.9c-0.1-0.7-0.2-1.7-0.2-3c0-1.3,0.1-2.3,0.2-3c0.1-0.7,0.5-1.4,1-1.9c0.5-0.5,1-0.8,1.5-1
				c0.6-0.2,1.2-0.3,1.9-0.3s1.4,0.1,2,0.3c0.6,0.2,1.1,0.5,1.5,0.9c0.4,0.4,0.7,0.8,0.9,1.3s0.4,1,0.5,1.5h-3
				c-0.1-0.5-0.3-0.8-0.6-1c-0.3-0.2-0.7-0.3-1.2-0.3c-0.3,0-0.5,0-0.7,0.1s-0.4,0.2-0.5,0.4c-0.1,0.1-0.1,0.2-0.2,0.3
				s-0.1,0.3-0.1,0.5c0,0.2-0.1,0.5-0.1,0.8s0,0.8,0,1.4s0,1,0,1.4c0,0.3,0.1,0.6,0.1,0.8c0,0.2,0.1,0.4,0.1,0.5
				c0.1,0.1,0.1,0.2,0.2,0.3c0.3,0.3,0.7,0.5,1.2,0.5c0.6,0,1-0.2,1.4-0.5c0.2-0.2,0.3-0.3,0.3-0.6c0.1-0.2,0.1-0.5,0.1-0.7v-0.2
				h-1.8v-2.5h4.8v1.7C45.5,94.3,45.5,95.1,45.3,95.7"/>
			<polygon class="st0" points="47,98.6 47,86.4 50,86.4 50,96 55.2,96 55.2,98.6 			"/>
			<path class="st0" d="M65.2,95.5c-0.1,0.7-0.5,1.4-1,1.9c-0.5,0.5-1,0.8-1.5,1c-0.6,0.2-1.2,0.3-1.9,0.3s-1.4-0.1-1.9-0.3
				c-0.6-0.2-1.1-0.6-1.5-1c-0.6-0.6-0.9-1.2-1-1.9c-0.1-0.7-0.2-1.7-0.2-3c0-1.3,0.1-2.3,0.2-3c0.1-0.7,0.5-1.4,1-1.9
				c0.5-0.5,1-0.8,1.5-1c0.6-0.2,1.2-0.3,1.9-0.3s1.4,0.1,1.9,0.3c0.6,0.2,1.1,0.6,1.5,1c0.6,0.6,0.9,1.2,1,1.9
				c0.1,0.7,0.2,1.7,0.2,3C65.4,93.8,65.3,94.8,65.2,95.5 M62.4,91.1L62.4,91.1c0-0.3,0-0.6-0.1-0.8c0-0.2-0.1-0.4-0.1-0.5
				c0-0.1-0.1-0.2-0.2-0.3c-0.1-0.2-0.3-0.3-0.5-0.4C61.3,89,61,89,60.7,89c-0.3,0-0.5,0-0.7,0.1c-0.2,0.1-0.4,0.2-0.5,0.4
				c-0.1,0.1-0.1,0.2-0.2,0.3c0,0.1-0.1,0.3-0.1,0.5c0,0.2-0.1,0.5-0.1,0.8c0,0.3,0,0.8,0,1.4c0,0.6,0,1,0,1.4s0,0.6,0.1,0.8
				c0,0.2,0.1,0.4,0.1,0.5c0.1,0.1,0.1,0.2,0.2,0.3c0.1,0.2,0.3,0.3,0.5,0.4c0.2,0.1,0.5,0.1,0.7,0.1c0.2,0,0.5-0.1,0.7-0.1
				c0.2-0.1,0.4-0.2,0.5-0.4c0.1-0.1,0.1-0.2,0.2-0.3c0-0.1,0.1-0.3,0.1-0.5c0-0.2,0.1-0.5,0.1-0.8c0-0.3,0-0.8,0-1.4
				C62.4,91.9,62.4,91.5,62.4,91.1"/>
			<path class="st0" d="M75,97.7c-0.7,0.6-1.6,1-2.8,1h-5.3V86.4H72c1.2,0,2.2,0.3,2.9,1c0.7,0.7,1,1.5,1,2.6c0,0.6-0.1,1.1-0.4,1.5
				c-0.3,0.4-0.6,0.7-0.9,0.9c0.2,0.1,0.3,0.2,0.5,0.3c0.1,0.1,0.3,0.3,0.5,0.5c0.1,0.2,0.3,0.5,0.4,0.8c0.1,0.3,0.1,0.7,0.1,1.1
				C76.1,96.2,75.7,97.1,75,97.7 M72.6,89.3L72.6,89.3c-0.2-0.2-0.5-0.3-0.8-0.3h-1.9v2h1.9c0.4,0,0.7-0.1,0.8-0.3
				c0.2-0.2,0.3-0.4,0.3-0.7C72.9,89.8,72.8,89.5,72.6,89.3 M72.8,94.1L72.8,94.1c-0.2-0.2-0.5-0.3-0.8-0.3h-2v2.1h2
				c0.4,0,0.7-0.1,0.8-0.3s0.3-0.5,0.3-0.8S73,94.3,72.8,94.1"/>
			<path class="st0" d="M84.5,98.6l-0.6-1.8h-3.8l-0.6,1.8h-3.2l4.5-12.3h2.3l4.5,12.3H84.5L84.5,98.6z M82.1,91L82.1,91L81,94.3
				h2.1L82.1,91L82.1,91z"/>
			<polygon class="st0" points="88.5,98.6 88.5,86.4 91.6,86.4 91.6,96 96.8,96 96.8,98.6 			"/>
			<g>
				<g>
					<defs>
						<path id="SVGID_1_" d="M103,87.5c-1.3,1.3-1.3,3.1-1.3,5c0,1.9,0,3.7,1.3,5c0.9,0.9,2,1.4,3.5,1.4c2.4,0,4.3-1.3,4.8-4.1h-3.2
							c-0.2,0.7-0.6,1.4-1.6,1.4c-0.6,0-1-0.2-1.2-0.5c-0.3-0.4-0.5-0.8-0.5-3.1c0-2.3,0.2-2.7,0.5-3.1c0.2-0.3,0.7-0.5,1.2-0.5
							c1,0,1.4,0.6,1.6,1.4h3.2c-0.5-2.8-2.4-4.1-4.8-4.1C105,86.1,103.9,86.6,103,87.5"/>
					</defs>
					<clipPath id="SVGID_00000018226141565995181720000011127832807983615934_">
						<use xlink:href="#SVGID_1_"  style="overflow:visible;"/>
					</clipPath>
					<g style="clip-path:url(#SVGID_00000018226141565995181720000011127832807983615934_);">
						
							<linearGradient id="SVGID_00000120529761611342472110000006318811231462120587_" gradientUnits="userSpaceOnUse" x1="-741.8063" y1="180.6142" x2="-741.4599" y2="180.6142" gradientTransform="matrix(27.53 0 0 -27.53 20523.5645 5064.7515)">
							<stop  offset="0" style="stop-color:#ED1C24"/>
							<stop  offset="0.18" style="stop-color:#ED1C24"/>
							<stop  offset="1" style="stop-color:#F8991D"/>
							<stop  offset="1" style="stop-color:#F8991D"/>
						</linearGradient>
						
							<rect x="101.6" y="86.1" style="fill:url(#SVGID_00000120529761611342472110000006318811231462120587_);" width="9.6" height="12.8"/>
					</g>
				</g>
			</g>
			<g>
				<g>
					<defs>
						<rect id="SVGID_00000068635764250672684150000004923654513711120545_" x="112.8" y="86.2" width="3.1" height="12.6"/>
					</defs>
					<clipPath id="SVGID_00000058558152320460030880000009786181140483734148_">
						<use xlink:href="#SVGID_00000068635764250672684150000004923654513711120545_"  style="overflow:visible;"/>
					</clipPath>
					<g style="clip-path:url(#SVGID_00000058558152320460030880000009786181140483734148_);">
						
							<linearGradient id="SVGID_00000016054011763815761620000000449245743123215762_" gradientUnits="userSpaceOnUse" x1="-703.4211" y1="107.6162" x2="-703.0748" y2="107.6162" gradientTransform="matrix(8.92 0 0 -8.92 6387.3521 1052.3782)">
							<stop  offset="0" style="stop-color:#ED1C24"/>
							<stop  offset="0.18" style="stop-color:#ED1C24"/>
							<stop  offset="1" style="stop-color:#F8991D"/>
							<stop  offset="1" style="stop-color:#F8991D"/>
						</linearGradient>
						
							<rect x="112.8" y="86.2" style="fill:url(#SVGID_00000016054011763815761620000000449245743123215762_);" width="3.1" height="12.6"/>
					</g>
				</g>
			</g>
			<g>
				<g>
					<defs>
						<polygon id="SVGID_00000008842780225683492670000012246771688868919480_" points="117.7,86.2 117.7,88.9 120.8,88.9 
							120.8,98.8 123.9,98.8 123.9,88.9 127,88.9 127,86.2 						"/>
					</defs>
					<clipPath id="SVGID_00000023259796574041637430000015385405286445141171_">
						<use xlink:href="#SVGID_00000008842780225683492670000012246771688868919480_"  style="overflow:visible;"/>
					</clipPath>
					<g style="clip-path:url(#SVGID_00000023259796574041637430000015385405286445141171_);">
						
							<linearGradient id="SVGID_00000055693105665781054060000005414401178360139188_" gradientUnits="userSpaceOnUse" x1="-742.3798" y1="179.6387" x2="-742.0334" y2="179.6387" gradientTransform="matrix(26.76 0 0 -26.76 19983.8262 4899.5742)">
							<stop  offset="0" style="stop-color:#ED1C24"/>
							<stop  offset="0.18" style="stop-color:#ED1C24"/>
							<stop  offset="1" style="stop-color:#F8991D"/>
							<stop  offset="1" style="stop-color:#F8991D"/>
						</linearGradient>
						
							<rect x="117.7" y="86.2" style="fill:url(#SVGID_00000055693105665781054060000005414401178360139188_);" width="9.3" height="12.6"/>
					</g>
				</g>
			</g>
			<g>
				<g>
					<defs>
						<polygon id="SVGID_00000026157787662787949510000000977655704384973733_" points="134.8,86.2 132.9,90.7 130.9,86.2 
							127.5,86.2 131.3,93.6 131.3,98.8 134.4,98.8 134.4,93.6 138.2,86.2 						"/>
					</defs>
					<clipPath id="SVGID_00000154393310570276289800000015552567634868837308_">
						<use xlink:href="#SVGID_00000026157787662787949510000000977655704384973733_"  style="overflow:visible;"/>
					</clipPath>
					<g style="clip-path:url(#SVGID_00000154393310570276289800000015552567634868837308_);">
						
							<linearGradient id="SVGID_00000142874905999344521040000008439298983264840886_" gradientUnits="userSpaceOnUse" x1="-745.4872" y1="184.3922" x2="-745.1408" y2="184.3922" gradientTransform="matrix(30.84 0 0 -30.84 23118.334 5779.0967)">
							<stop  offset="0" style="stop-color:#ED1C24"/>
							<stop  offset="0.18" style="stop-color:#ED1C24"/>
							<stop  offset="1" style="stop-color:#F8991D"/>
							<stop  offset="1" style="stop-color:#F8991D"/>
						</linearGradient>
						
							<rect x="127.5" y="86.2" style="fill:url(#SVGID_00000142874905999344521040000008439298983264840886_);" width="10.7" height="12.6"/>
					</g>
				</g>
			</g>
			<g>
				<g>
					<defs>
						<polygon id="SVGID_00000163794971213767667340000001385660044635699330_" points="117.3,76.7 119.9,78.3 130.5,85 130.5,79.2 
							124.4,75.4 120,72.6 119.9,72.6 						"/>
					</defs>
					<clipPath id="SVGID_00000156577297852929989110000004394104397482797747_">
						<use xlink:href="#SVGID_00000163794971213767667340000001385660044635699330_"  style="overflow:visible;"/>
					</clipPath>
					<g style="clip-path:url(#SVGID_00000156577297852929989110000004394104397482797747_);">
						
							<linearGradient id="SVGID_00000121247197784948336840000007335243749282573453_" gradientUnits="userSpaceOnUse" x1="-788.0148" y1="227.6882" x2="-787.6685" y2="227.6882" gradientTransform="matrix(-28.7686 -23.7572 -23.7572 28.7686 -17129.9883 -25186.7871)">
							<stop  offset="0" style="stop-color:#FFF200"/>
							<stop  offset="1" style="stop-color:#F8991D"/>
							<stop  offset="1" style="stop-color:#85C441"/>
						</linearGradient>
						<polygon style="fill:url(#SVGID_00000121247197784948336840000007335243749282573453_);" points="111.3,80 122.7,66.1 
							136.6,77.6 125.2,91.5 						"/>
					</g>
				</g>
			</g>
			<g class="st12">
				<g>
					<g>
						<defs>
							<rect id="SVGID_00000096058804552348827110000009067615116472521134_" x="117.3" y="72.6" width="13.2" height="12.4"/>
						</defs>
						<clipPath id="SVGID_00000049198216191472788420000000108731136356817808_">
							<use xlink:href="#SVGID_00000096058804552348827110000009067615116472521134_"  style="overflow:visible;"/>
						</clipPath>
						<g style="clip-path:url(#SVGID_00000049198216191472788420000000108731136356817808_);">
							<g>
								<g>
									<defs>
										<polygon id="SVGID_00000089554062261088118750000001999902565002105525_" points="124.4,75.4 120,72.6 119.9,72.6 
											117.3,76.7 119.9,78.3 130.5,85 130.5,79.2 										"/>
									</defs>
									<clipPath id="SVGID_00000018953079249087586940000013915919117343586200_">
										<use xlink:href="#SVGID_00000089554062261088118750000001999902565002105525_"  style="overflow:visible;"/>
									</clipPath>
									<g style="clip-path:url(#SVGID_00000018953079249087586940000013915919117343586200_);">
										<g>
											
												<linearGradient id="SVGID_00000132063329978166374800000009851820053563301767_" gradientUnits="userSpaceOnUse" x1="-784.9818" y1="228.9677" x2="-784.6354" y2="228.9677" gradientTransform="matrix(-33.1833 -22.7977 -22.7977 33.1833 -20696.9473 -25409.7715)">
												<stop  offset="0" style="stop-color:#FFFFFF"/>
												<stop  offset="0.35" style="stop-color:#FFFFFF"/>
												<stop  offset="0.97" style="stop-color:#231F20"/>
												<stop  offset="1" style="stop-color:#231F20"/>
											</linearGradient>
											<polygon style="fill:url(#SVGID_00000132063329978166374800000009851820053563301767_);" points="111.6,81 121.6,66.4 
												136.3,76.6 126.3,91.1 											"/>
										</g>
									</g>
								</g>
							</g>
						</g>
					</g>
				</g>
			</g>
			<polygon class="st16" points="119.9,72.6 119.9,72.6 120,72.6 			"/>
			<g>
				<g>
					<defs>
						<polygon id="SVGID_00000149357644651832339120000014831094385916178330_" points="109.4,79.2 109.4,85 119.9,78.3 124.4,75.4 
							120,72.6 119.9,72.6 						"/>
					</defs>
					<clipPath id="SVGID_00000178910204450731674050000009589188176191453102_">
						<use xlink:href="#SVGID_00000149357644651832339120000014831094385916178330_"  style="overflow:visible;"/>
					</clipPath>
					<g style="clip-path:url(#SVGID_00000178910204450731674050000009589188176191453102_);">
						
							<linearGradient id="SVGID_00000113312375064394034320000006810199050765836690_" gradientUnits="userSpaceOnUse" x1="-702.6255" y1="210.9791" x2="-702.2792" y2="210.9791" gradientTransform="matrix(10.0777 16.1779 16.1779 -10.0777 3781.7112 13567.4453)">
							<stop  offset="0" style="stop-color:#FFF200"/>
							<stop  offset="3.000000e-02" style="stop-color:#FFF200"/>
							<stop  offset="1" style="stop-color:#F8991D"/>
							<stop  offset="1" style="stop-color:#85C441"/>
						</linearGradient>
						<polygon style="fill:url(#SVGID_00000113312375064394034320000006810199050765836690_);" points="103.8,76 120.2,65.8 
							130,81.5 113.6,91.7 						"/>
					</g>
				</g>
			</g>
			<g>
				<g>
					<defs>
						<path id="SVGID_00000048474054459043105080000013341349090342717874_" d="M18.2,77.9c-0.3,1.8,1.1,3.6,3.3,4
							c2.1,0.4,4.2-0.7,4.6-2.4s-1.1-3.6-3.3-4c-0.3-0.1-0.6-0.1-0.9-0.1C20,75.4,18.4,76.4,18.2,77.9"/>
					</defs>
					<clipPath id="SVGID_00000007417240286307761800000015174643204278226333_">
						<use xlink:href="#SVGID_00000048474054459043105080000013341349090342717874_"  style="overflow:visible;"/>
					</clipPath>
					<g style="clip-path:url(#SVGID_00000007417240286307761800000015174643204278226333_);">
						
							<linearGradient id="SVGID_00000138550709949235951740000009782940969798322102_" gradientUnits="userSpaceOnUse" x1="-730.9057" y1="173.031" x2="-730.5593" y2="173.031" gradientTransform="matrix(22.9499 -7.209944e-02 7.100131e-02 -23.3003 16780.0352 4057.8701)">
							<stop  offset="0" style="stop-color:#001B00"/>
							<stop  offset="0.7" style="stop-color:#5C792B"/>
							<stop  offset="0.96" style="stop-color:#647C2A"/>
							<stop  offset="1" style="stop-color:#667D2A"/>
						</linearGradient>
						<polygon style="fill:url(#SVGID_00000138550709949235951740000009782940969798322102_);" points="17.8,75.4 26.4,75.4 
							26.3,82.3 17.8,82.4 						"/>
					</g>
				</g>
			</g>
			<g>
				<g>
					<defs>
						<path id="SVGID_00000162328300250514608340000006835446881583620992_" d="M27.8,76c0.9,1.2,1.5,3.1,1.2,4.6
							c-0.3,1.8-1.7,3.3-3.6,3.9c-1.4,0.5-2.4,0.3-1.5,1.8c0.8,1.3,1.5,2.1,2,3.3c1.8,4.5,0,10.7-6.6,12.4c-0.5,0.2-1.1,0.4-1.7,0.6
							c8.7-0.4,14.7-6.9,14.7-15.2C32.2,83.2,30.4,78.8,27.8,76L27.8,76L27.8,76z"/>
					</defs>
					<clipPath id="SVGID_00000034065875107657503470000006626077797505516470_">
						<use xlink:href="#SVGID_00000162328300250514608340000006835446881583620992_"  style="overflow:visible;"/>
					</clipPath>
					<g style="clip-path:url(#SVGID_00000034065875107657503470000006626077797505516470_);">
						
							<linearGradient id="SVGID_00000034807775581990789110000004403513622250101941_" gradientUnits="userSpaceOnUse" x1="-744.9222" y1="192.7703" x2="-744.576" y2="192.7703" gradientTransform="matrix(42.42 0 0 -42.42 31617.0703 8266.6074)">
							<stop  offset="0" style="stop-color:#001B00"/>
							<stop  offset="0.7" style="stop-color:#5C792B"/>
							<stop  offset="0.96" style="stop-color:#647C2A"/>
							<stop  offset="1" style="stop-color:#667D2A"/>
						</linearGradient>
						
							<rect x="17.5" y="76" style="fill:url(#SVGID_00000034807775581990789110000004403513622250101941_);" width="14.7" height="26.6"/>
					</g>
				</g>
			</g>
			<g>
				<g>
					<defs>
						<path id="SVGID_00000045615958788477779000000008970108935045901474_" d="M5.5,76.8c-0.6,1-0.9,2.2-0.9,3.4
							c0,1.4,0.4,2.9,1.1,4.1c3.3,5.2,6.2,4.5,7.9,8.6c1.3,3.2-1.7,6-6.1,2.2c-5-4.3-6.5-13.6-3.1-18.5C2,79.4,0.7,83.4,0.7,87.3
							c0,2.7,0.7,5.4,2,7.7c1.1,1.9,2.4,3.5,4.2,4.7c1.9,1.2,4.2,2.1,6.5,2.3c1.1,0.1,2.3,0.1,3.4-0.2c1.8-0.4,3.5-1.4,4.8-2.7
							c4.1-3.7,1.7-9.5-1.7-12.8s-5.6-5.6-5.1-8.5c0.6-3.1,4.2-5.3,8-4.6c1,0.2,2,0.5,2.8,1c-2.6-2-5.9-2.8-9.4-2.8
							C12.2,71.5,7.7,73.1,5.5,76.8"/>
					</defs>
					<clipPath id="SVGID_00000092435914752176301290000004853163127096424882_">
						<use xlink:href="#SVGID_00000045615958788477779000000008970108935045901474_"  style="overflow:visible;"/>
					</clipPath>
					<g style="clip-path:url(#SVGID_00000092435914752176301290000004853163127096424882_);">
						
							<linearGradient id="SVGID_00000119107984449756284600000005973676795781040314_" gradientUnits="userSpaceOnUse" x1="-751.3105" y1="202.2184" x2="-750.9643" y2="202.2184" gradientTransform="matrix(72.63 0 0 -72.63 54568.4219 14773.9727)">
							<stop  offset="0" style="stop-color:#001B00"/>
							<stop  offset="0.7" style="stop-color:#5C792B"/>
							<stop  offset="0.96" style="stop-color:#647C2A"/>
							<stop  offset="1" style="stop-color:#667D2A"/>
						</linearGradient>
						
							<rect x="0.6" y="71.5" style="fill:url(#SVGID_00000119107984449756284600000005973676795781040314_);" width="25.1" height="30.6"/>
					</g>
				</g>
			</g>
			<g>
				<g>
					<defs>
						<path id="SVGID_00000156546490161320531000000004958208725066689968_" d="M6,99.1L6,99.1L6,99.1z"/>
					</defs>
					<clipPath id="SVGID_00000119115506951655953230000010461892904870755226_">
						<use xlink:href="#SVGID_00000156546490161320531000000004958208725066689968_"  style="overflow:visible;"/>
					</clipPath>
					<g style="clip-path:url(#SVGID_00000119115506951655953230000010461892904870755226_);">
						
							<linearGradient id="SVGID_00000044173841265092178150000012204716915626536885_" gradientUnits="userSpaceOnUse" x1="6.0084" y1="1067.1093" x2="6.0084" y2="1067.1093" gradientTransform="matrix(1 0 0 1 0 -968)">
							<stop  offset="0" style="stop-color:#001B00"/>
							<stop  offset="0.7" style="stop-color:#5C792B"/>
							<stop  offset="0.96" style="stop-color:#647C2A"/>
							<stop  offset="1" style="stop-color:#667D2A"/>
						</linearGradient>
						<path style="fill:url(#SVGID_00000044173841265092178150000012204716915626536885_);" d="M6,99.1L6,99.1L6,99.1z"/>
					</g>
				</g>
			</g>
			<g>
				<g>
					<defs>
						<path id="SVGID_00000145754616528397789740000004622858311703118517_" d="M25.8,74.3L25.8,74.3L25.8,74.3z"/>
					</defs>
					<clipPath id="SVGID_00000181059012301245720430000007492673014667001239_">
						<use xlink:href="#SVGID_00000145754616528397789740000004622858311703118517_"  style="overflow:visible;"/>
					</clipPath>
					<g style="clip-path:url(#SVGID_00000181059012301245720430000007492673014667001239_);">
						
							<linearGradient id="SVGID_00000082329584951890360370000008557221287981075107_" gradientUnits="userSpaceOnUse" x1="-741.5469" y1="187.3599" x2="-741.5469" y2="187.3599" gradientTransform="matrix(35.29 0 0 -35.29 26195.0098 6686.2061)">
							<stop  offset="0" style="stop-color:#001B00"/>
							<stop  offset="0.7" style="stop-color:#5C792B"/>
							<stop  offset="0.96" style="stop-color:#647C2A"/>
							<stop  offset="1" style="stop-color:#667D2A"/>
						</linearGradient>
						<path style="fill:url(#SVGID_00000082329584951890360370000008557221287981075107_);" d="M25.8,74.3L25.8,74.3L25.8,74.3z"/>
					</g>
				</g>
			</g>
			<g>
				<g>
					<defs>
						<path id="SVGID_00000171704467615370803050000003086673164645897625_" d="M25.8,74.3L25.8,74.3L25.8,74.3z"/>
					</defs>
					<clipPath id="SVGID_00000095328461046890910760000012417090708504811147_">
						<use xlink:href="#SVGID_00000171704467615370803050000003086673164645897625_"  style="overflow:visible;"/>
					</clipPath>
					<g style="clip-path:url(#SVGID_00000095328461046890910760000012417090708504811147_);">
						
							<linearGradient id="SVGID_00000148660454010015841710000004975165588257883778_" gradientUnits="userSpaceOnUse" x1="-660.5334" y1="68.0308" x2="-660.5334" y2="68.0308" gradientTransform="matrix(6.76 0 0 -6.76 4491.0264 534.1639)">
							<stop  offset="0" style="stop-color:#001B00"/>
							<stop  offset="0.7" style="stop-color:#5C792B"/>
							<stop  offset="0.96" style="stop-color:#647C2A"/>
							<stop  offset="1" style="stop-color:#667D2A"/>
						</linearGradient>
						<path style="fill:url(#SVGID_00000148660454010015841710000004975165588257883778_);" d="M25.8,74.3L25.8,74.3L25.8,74.3z"/>
					</g>
				</g>
			</g>
			<g>
				<g>
					<defs>
						<path id="SVGID_00000092433795337428943600000018422667771773644688_" d="M25.8,74.3L25.8,74.3L25.8,74.3z"/>
					</defs>
					<clipPath id="SVGID_00000168836332457778746020000010847343397454627743_">
						<use xlink:href="#SVGID_00000092433795337428943600000018422667771773644688_"  style="overflow:visible;"/>
					</clipPath>
					<g style="clip-path:url(#SVGID_00000168836332457778746020000010847343397454627743_);">
						
							<linearGradient id="SVGID_00000005257176213575026720000009240274706968646820_" gradientUnits="userSpaceOnUse" x1="25.82" y1="1042.2754" x2="25.82" y2="1042.2754" gradientTransform="matrix(1 0 0 1 0 -968)">
							<stop  offset="0" style="stop-color:#001B00"/>
							<stop  offset="0.7" style="stop-color:#5C792B"/>
							<stop  offset="0.96" style="stop-color:#647C2A"/>
							<stop  offset="1" style="stop-color:#667D2A"/>
						</linearGradient>
						<path style="fill:url(#SVGID_00000005257176213575026720000009240274706968646820_);" d="M25.8,74.3L25.8,74.3L25.8,74.3z"/>
					</g>
				</g>
			</g>
			<g>
				<g>
					<defs>
						<path id="SVGID_00000101823846739730316710000014841338861992945801_" d="M25.8,74.3L25.8,74.3L25.8,74.3z"/>
					</defs>
					<clipPath id="SVGID_00000089561823739829761220000016197748016461009048_">
						<use xlink:href="#SVGID_00000101823846739730316710000014841338861992945801_"  style="overflow:visible;"/>
					</clipPath>
					<g style="clip-path:url(#SVGID_00000089561823739829761220000016197748016461009048_);">
						
							<linearGradient id="SVGID_00000151507724772122501750000011342996869488716171_" gradientUnits="userSpaceOnUse" x1="-665.491" y1="75.2966" x2="-665.491" y2="75.2966" gradientTransform="matrix(7.11 0 0 -7.11 4757.4609 609.6341)">
							<stop  offset="0" style="stop-color:#001B00"/>
							<stop  offset="0.7" style="stop-color:#5C792B"/>
							<stop  offset="0.96" style="stop-color:#647C2A"/>
							<stop  offset="1" style="stop-color:#667D2A"/>
						</linearGradient>
						<path style="fill:url(#SVGID_00000151507724772122501750000011342996869488716171_);" d="M25.8,74.3L25.8,74.3L25.8,74.3z"/>
					</g>
				</g>
			</g>
			<g>
				<g>
					<defs>
						<path id="SVGID_00000182516252620040230740000000960480813207425676_" d="M18.1,77.5c-0.3,1.7,1.1,3.5,3.3,3.9
							c2.1,0.4,4.2-0.6,4.5-2.4c0.3-1.7-1.1-3.5-3.3-3.9C22.3,75,22,75,21.7,75C19.9,75,18.4,76,18.1,77.5"/>
					</defs>
					<clipPath id="SVGID_00000016062170548471165480000005207682542667041194_">
						<use xlink:href="#SVGID_00000182516252620040230740000000960480813207425676_"  style="overflow:visible;"/>
					</clipPath>
					<g style="clip-path:url(#SVGID_00000016062170548471165480000005207682542667041194_);">
						
							<linearGradient id="SVGID_00000148656483560608428740000002811580912200651922_" gradientUnits="userSpaceOnUse" x1="-731.0151" y1="172.4139" x2="-730.6688" y2="172.4139" gradientTransform="matrix(22.94 0 0 -22.94 16787.4844 4033.606)">
							<stop  offset="0" style="stop-color:#007B38"/>
							<stop  offset="0" style="stop-color:#007B38"/>
							<stop  offset="0.7" style="stop-color:#80C342"/>
							<stop  offset="0.92" style="stop-color:#88C440"/>
							<stop  offset="1" style="stop-color:#8DC63F"/>
						</linearGradient>
						
							<rect x="17.7" y="75" style="fill:url(#SVGID_00000148656483560608428740000002811580912200651922_);" width="8.6" height="6.9"/>
					</g>
				</g>
			</g>
			<g>
				<g>
					<defs>
						<polyline id="SVGID_00000039848852630253334560000002383170962703769481_" points="25.8,74.3 25.8,74.3 25.8,74.3 						"/>
					</defs>
					<clipPath id="SVGID_00000040575443308526875020000006102717361261042335_">
						<use xlink:href="#SVGID_00000039848852630253334560000002383170962703769481_"  style="overflow:visible;"/>
					</clipPath>
					<g style="clip-path:url(#SVGID_00000040575443308526875020000006102717361261042335_);">
						
							<linearGradient id="SVGID_00000180364863566167639740000003406562445692608663_" gradientUnits="userSpaceOnUse" x1="-742.2607" y1="188.396" x2="-742.2607" y2="188.396" gradientTransform="matrix(36.65 0 0 -36.65 27229.6758 6978.9902)">
							<stop  offset="0" style="stop-color:#1B7C42"/>
							<stop  offset="0.7" style="stop-color:#7EC242"/>
							<stop  offset="0.9" style="stop-color:#86C440"/>
							<stop  offset="1" style="stop-color:#8DC63F"/>
						</linearGradient>
						<path style="fill:url(#SVGID_00000180364863566167639740000003406562445692608663_);" d="M25.8,74.3L25.8,74.3L25.8,74.3z"/>
					</g>
				</g>
			</g>
			<g>
				<g>
					<defs>
						<polyline id="SVGID_00000167368040712250161990000012179354109379577756_" points="25.8,74.3 25.8,74.3 25.8,74.3 						"/>
					</defs>
					<clipPath id="SVGID_00000127012659484850605910000008495698059907216034_">
						<use xlink:href="#SVGID_00000167368040712250161990000012179354109379577756_"  style="overflow:visible;"/>
					</clipPath>
					<g style="clip-path:url(#SVGID_00000127012659484850605910000008495698059907216034_);">
						
							<linearGradient id="SVGID_00000086662628941766522350000003906992002242218938_" gradientUnits="userSpaceOnUse" x1="-664.2638" y1="73.4989" x2="-664.2638" y2="73.4989" gradientTransform="matrix(7.02 0 0 -7.02 4688.9521 590.2379)">
							<stop  offset="0" style="stop-color:#1B7C42"/>
							<stop  offset="0.7" style="stop-color:#7EC242"/>
							<stop  offset="0.9" style="stop-color:#86C440"/>
							<stop  offset="1" style="stop-color:#8DC63F"/>
						</linearGradient>
						<path style="fill:url(#SVGID_00000086662628941766522350000003906992002242218938_);" d="M25.8,74.3L25.8,74.3L25.8,74.3z"/>
					</g>
				</g>
			</g>
			<g>
				<g>
					<defs>
						<polyline id="SVGID_00000127735577136807656660000013462071116255294614_" points="25.8,74.3 25.8,74.3 25.8,74.3 25.8,74.3 
													"/>
					</defs>
					<clipPath id="SVGID_00000064334078714574662800000001935609958945491605_">
						<use xlink:href="#SVGID_00000127735577136807656660000013462071116255294614_"  style="overflow:visible;"/>
					</clipPath>
					<g style="clip-path:url(#SVGID_00000064334078714574662800000001935609958945491605_);">
						
							<linearGradient id="SVGID_00000144307700180538985450000007679616556759725186_" gradientUnits="userSpaceOnUse" x1="25.82" y1="1042.2754" x2="25.82" y2="1042.2754" gradientTransform="matrix(1 0 0 1 0 -968)">
							<stop  offset="0" style="stop-color:#1B7C42"/>
							<stop  offset="0.7" style="stop-color:#7EC242"/>
							<stop  offset="0.9" style="stop-color:#86C440"/>
							<stop  offset="1" style="stop-color:#8DC63F"/>
						</linearGradient>
						<path style="fill:url(#SVGID_00000144307700180538985450000007679616556759725186_);" d="M25.8,74.3L25.8,74.3L25.8,74.3z"/>
					</g>
				</g>
			</g>
			<g>
				<g>
					<defs>
						<polyline id="SVGID_00000084506049689162053420000003910304762574888369_" points="25.8,74.3 25.8,74.3 25.8,74.3 25.8,74.3 
													"/>
					</defs>
					<clipPath id="SVGID_00000060018926928678426160000002957749852042791613_">
						<use xlink:href="#SVGID_00000084506049689162053420000003910304762574888369_"  style="overflow:visible;"/>
					</clipPath>
					<g style="clip-path:url(#SVGID_00000060018926928678426160000002957749852042791613_);">
						
							<linearGradient id="SVGID_00000181068680223072225290000001777916342821696942_" gradientUnits="userSpaceOnUse" x1="-662.876" y1="71.5177" x2="-662.876" y2="71.5177" gradientTransform="matrix(6.92 0 0 -6.92 4612.9219 569.178)">
							<stop  offset="0" style="stop-color:#1B7C42"/>
							<stop  offset="0.7" style="stop-color:#7EC242"/>
							<stop  offset="0.9" style="stop-color:#86C440"/>
							<stop  offset="1" style="stop-color:#8DC63F"/>
						</linearGradient>
						<path style="fill:url(#SVGID_00000181068680223072225290000001777916342821696942_);" d="M25.8,74.3L25.8,74.3L25.8,74.3z"/>
					</g>
				</g>
			</g>
			<g>
				<g>
					<defs>
						<path id="SVGID_00000085962141253757404700000002597443517255384203_" d="M5.5,76.4c-0.6,1-0.9,2.2-0.9,3.4
							c0,1.4,0.6,2.8,1.3,4c3.2,5.2,6.2,4.7,7.8,8.8c1.3,3.2-1.9,5.9-6.3,2.1c-5-4.3-6.4-13.1-3-18.1C2,79.3,0.6,82.9,0.6,86.8
							c0,2.7,0.7,5.3,2,7.7C3.7,96.4,5,98,6.8,99.2c1.9,1.2,4.2,2.1,6.5,2.3c1.1,0.1,2.3,0.1,3.4-0.2c1.8-0.4,3.5-1.4,4.8-2.7
							c4.1-3.7,1.7-9.5-1.7-12.7c-3.4-3.3-5.6-5.7-5.1-8.5c0.6-3.1,4.3-5,8.1-4.2c1,0.2,2,0.6,2.8,1.1c-2.6-2-5.9-3.2-9.5-3.2
							C12.2,71.1,7.6,72.7,5.5,76.4"/>
					</defs>
					<clipPath id="SVGID_00000069355512635101898780000017654590774557093781_">
						<use xlink:href="#SVGID_00000085962141253757404700000002597443517255384203_"  style="overflow:visible;"/>
					</clipPath>
					<g style="clip-path:url(#SVGID_00000069355512635101898780000017654590774557093781_);">
						
							<linearGradient id="SVGID_00000109738862454770903850000013394577981517258415_" gradientUnits="userSpaceOnUse" x1="-751.3422" y1="202.2368" x2="-750.9957" y2="202.2368" gradientTransform="matrix(72.89 0 0 -72.89 54765.8984 14827.4365)">
							<stop  offset="0" style="stop-color:#007B38"/>
							<stop  offset="0" style="stop-color:#007B38"/>
							<stop  offset="0.7" style="stop-color:#80C342"/>
							<stop  offset="0.92" style="stop-color:#88C440"/>
							<stop  offset="1" style="stop-color:#8DC63F"/>
						</linearGradient>
						
							<rect x="0.6" y="71.1" style="fill:url(#SVGID_00000109738862454770903850000013394577981517258415_);" width="25.2" height="30.5"/>
					</g>
				</g>
			</g>
			<g>
				<g>
					<defs>
						<path id="SVGID_00000070811024096906651550000015085178827830686366_" d="M27.8,76c0.9,1.2,1.4,2.7,1.1,4.2
							c-0.3,1.8-1.7,3.3-3.6,3.9c-1.4,0.5-2.4,0.2-1.5,1.7c0.8,1.3,1.5,1.9,2,3.2c1.2,3,0.9,6.8-1.4,9.6c0,0-0.1,0.1-0.1,0.1l0,0
							c0,0,0,0.1-0.1,0.1c-0.4,0.5-0.9,1.1-1.7,1.7c-0.1,0-0.1,0.1-0.2,0.1c-0.1,0-0.1,0.1-0.2,0.1c-0.5,0.3-1.1,0.7-1.7,0.9
							c-0.8,0.3-1.7,0.7-2.8,1c8.1-0.7,14.4-7.4,14.4-15.7C32.1,82.7,30.4,78.8,27.8,76L27.8,76L27.8,76z"/>
					</defs>
					<clipPath id="SVGID_00000026161397155131379410000014682250312941525934_">
						<use xlink:href="#SVGID_00000070811024096906651550000015085178827830686366_"  style="overflow:visible;"/>
					</clipPath>
					<g style="clip-path:url(#SVGID_00000026161397155131379410000014682250312941525934_);">
						
							<linearGradient id="SVGID_00000099647236294256095900000006801699738962782098_" gradientUnits="userSpaceOnUse" x1="-744.5339" y1="192.2184" x2="-744.1877" y2="192.2184" gradientTransform="matrix(41.42 0 0 -41.42 30856.252 8050.9575)">
							<stop  offset="0" style="stop-color:#007B38"/>
							<stop  offset="0" style="stop-color:#007B38"/>
							<stop  offset="0.7" style="stop-color:#80C342"/>
							<stop  offset="0.92" style="stop-color:#88C440"/>
							<stop  offset="1" style="stop-color:#8DC63F"/>
						</linearGradient>
						
							<rect x="17.7" y="76" style="fill:url(#SVGID_00000099647236294256095900000006801699738962782098_);" width="14.3" height="26.5"/>
					</g>
				</g>
			</g>
			<path class="st1" d="M36.1,107.6c0,0,0-0.1,0-0.1l0.2-0.2c0,0,0.1,0,0.1,0c0.3,0.2,0.8,0.5,1.4,0.5c0.8,0,1.3-0.4,1.3-1
				c0-0.5-0.3-0.8-1.2-1l-0.2,0c-1-0.1-1.4-0.6-1.4-1.3c0-0.9,0.6-1.4,1.6-1.4c0.6,0,1.1,0.2,1.4,0.4c0,0,0,0.1,0,0.1l-0.1,0.2
				c0,0-0.1,0-0.1,0c-0.4-0.2-0.8-0.3-1.2-0.3c-0.7,0-1.1,0.4-1.1,1c0,0.5,0.3,0.8,1.1,0.9l0.2,0c1,0.1,1.5,0.6,1.5,1.3
				c0,0.8-0.6,1.4-1.7,1.4C37.1,108.2,36.5,107.9,36.1,107.6"/>
			<path class="st1" d="M44.6,103.3C44.6,103.2,44.6,103.2,44.6,103.3l2.9-0.1c0,0,0.1,0,0.1,0.1v0.2c0,0,0,0.1-0.1,0.1H45
				c0,0,0,0,0,0v1.8c0,0,0,0,0,0h2.1c0,0,0.1,0,0.1,0.1v0.2c0,0,0,0.1-0.1,0.1H45c0,0,0,0,0,0v1.8c0,0,0,0,0,0h2.4
				c0,0,0.1,0,0.1,0.1v0.2c0,0,0,0.1-0.1,0.1h-2.8c0,0-0.1,0-0.1-0.1C44.6,108,44.6,103.3,44.6,103.3z"/>
			<path class="st1" d="M52.3,105.7c0-0.9,0-1.2,0.1-1.4c0.2-0.7,0.8-1.1,1.6-1.1c0.7,0,1.2,0.3,1.5,0.9c0,0,0,0.1,0,0.1l-0.2,0.1
				c0,0-0.1,0-0.1,0c-0.2-0.4-0.6-0.7-1.1-0.7s-1,0.3-1.1,0.8c-0.1,0.2-0.1,0.5-0.1,1.3s0,1.1,0.1,1.3c0.2,0.6,0.6,0.8,1.1,0.8
				c0.6,0,0.9-0.3,1.1-0.7c0,0,0.1-0.1,0.1,0l0.2,0.1c0,0,0,0.1,0,0.1c-0.3,0.6-0.8,0.9-1.5,0.9c-0.8,0-1.3-0.3-1.6-1.1
				C52.3,106.8,52.3,106.5,52.3,105.7"/>
			<path class="st1" d="M61.4,108.1C61.3,108.1,61.3,108.1,61.4,108.1l-0.1-4.5c0,0,0,0,0,0h-1.4c0,0-0.1,0-0.1-0.1v-0.2
				c0,0,0-0.1,0.1-0.1h3.3c0,0,0.1,0,0.1,0.1v0.2c0,0,0,0.1-0.1,0.1h-1.4c0,0,0,0,0,0v4.4c0,0,0,0.1-0.1,0.1H61.4L61.4,108.1z"/>
			<path class="st1" d="M67.8,107.1c-0.1-0.3-0.1-0.6-0.1-1.4c0-0.8,0.1-1.2,0.1-1.4c0.2-0.7,0.8-1.1,1.6-1.1s1.4,0.4,1.6,1.1
				c0.1,0.3,0.1,0.6,0.1,1.4c0,0.8-0.1,1.2-0.1,1.4c-0.2,0.7-0.8,1.1-1.6,1.1S68,107.8,67.8,107.1 M70.5,104.3
				c-0.2-0.6-0.6-0.8-1.2-0.8s-1,0.3-1.2,0.8c-0.1,0.2-0.1,0.5-0.1,1.3s0.1,1.1,0.1,1.3c0.2,0.6,0.6,0.8,1.2,0.8s1-0.3,1.2-0.8
				c0.1-0.2,0.1-0.5,0.1-1.3S70.6,104.5,70.5,104.3"/>
			<path class="st1" d="M79.1,108.1C79,108.1,79,108.1,79.1,108.1l-1.1-2.2h-1.4c0,0,0,0,0,0v2.1c0,0,0,0.1-0.1,0.1h-0.3
				c0,0-0.1,0-0.1-0.1v-4.7c0,0,0-0.1,0.1-0.1h1.7c0.9,0,1.5,0.5,1.5,1.4c0,0.7-0.4,1.1-1,1.3l1.1,2.2c0,0,0,0.1,0,0.1L79.1,108.1
				L79.1,108.1z M79,104.5c0-0.6-0.4-1-1.1-1h-1.2c0,0,0,0,0,0v1.8c0,0,0,0,0,0h1.2C78.6,105.5,79,105.2,79,104.5"/>
			<path class="st1" d="M92,105.9L92,105.9c-0.1,0.1-0.4,0.2-0.7,0.2c-0.8,0-1.4-0.6-1.4-1.5c0-0.9,0.6-1.5,1.4-1.5
				c0.8,0,1.5,0.6,1.5,1.5c0,0.4-0.1,0.8-0.3,1.1l-1.2,2.4c0,0,0,0.1-0.1,0.1h-0.3c0,0-0.1,0,0-0.1L92,105.9L92,105.9z M92.5,104.6
				c0-0.7-0.4-1.1-1-1.1c-0.6,0-1,0.5-1,1.1c0,0.7,0.4,1.1,1,1.1C92,105.7,92.5,105.3,92.5,104.6"/>
			<path class="st1" d="M97.9,107.9c0,0,0-0.1,0-0.1l1.8-2.4c0.2-0.3,0.4-0.6,0.4-1c0-0.6-0.4-0.9-0.9-0.9c-0.6,0-0.9,0.3-0.9,0.8
				c0,0,0,0.1-0.1,0.1l-0.2-0.1c0,0-0.1,0-0.1-0.1c0.1-0.6,0.5-1.1,1.3-1.1c0.8,0,1.3,0.6,1.3,1.3c0,0.4-0.2,0.8-0.5,1.2l-1.6,2.1
				l0,0h2c0,0,0.1,0,0.1,0.1v0.2c0,0,0,0.1-0.1,0.1h-2.5c0,0-0.1,0-0.1-0.1V107.9L97.9,107.9z"/>
			<path class="st1" d="M105.6,107.5h0.3c0,0,0.1,0,0.1,0.1v0.6c0,0.1,0,0.1,0,0.2l-0.3,0.6c0,0,0,0.1-0.1,0.1s0,0,0-0.1
				L105.6,107.5C105.6,107.5,105.6,107.5,105.6,107.5"/>
			<path class="st1" d="M116.5,105.7c0-0.9,0.1-1.2,0.1-1.4c0.2-0.7,0.8-1.1,1.6-1.1c0.8,0,1.3,0.4,1.6,0.9c0,0,0,0.1,0,0.1
				l-0.2,0.1c0,0-0.1,0-0.1,0c-0.2-0.5-0.6-0.7-1.2-0.7s-1,0.3-1.2,0.8c-0.1,0.2-0.1,0.5-0.1,1.3s0,1.1,0.1,1.3
				c0.2,0.6,0.6,0.8,1.2,0.8c0.6,0,1-0.3,1.2-0.8c0.1-0.2,0.1-0.5,0.1-0.9c0,0,0,0,0,0h-1.1c0,0-0.1,0-0.1-0.1v-0.2
				c0,0,0-0.1,0.1-0.1h1.5c0,0,0.1,0,0.1,0.1v0.3c0,0.5-0.1,0.9-0.1,1.1c-0.2,0.7-0.8,1.1-1.6,1.1c-0.8,0-1.4-0.4-1.6-1.1
				C116.5,106.8,116.5,106.5,116.5,105.7"/>
			<path class="st1" d="M125.4,106.4c0,0.9,0.5,1.4,1.2,1.4c0.8,0,1.2-0.5,1.2-1.4v-3.2c0,0,0-0.1,0.1-0.1h0.3c0,0,0.1,0,0.1,0.1
				v3.2c0,1.2-0.7,1.8-1.7,1.8s-1.7-0.6-1.7-1.8v-3.2c0,0,0-0.1,0.1-0.1h0.3c0,0,0.1,0,0.1,0.1L125.4,106.4L125.4,106.4z"/>
			<path class="st1" d="M136.4,108.1C136.4,108.1,136.3,108.1,136.4,108.1l-1.1-2.2H134c0,0,0,0,0,0v2.1c0,0,0,0.1-0.1,0.1h-0.3
				c0,0-0.1,0-0.1-0.1v-4.7c0,0,0-0.1,0.1-0.1h1.7c0.9,0,1.5,0.5,1.5,1.4c0,0.7-0.4,1.1-1,1.3l1.1,2.2c0,0,0,0.1,0,0.1L136.4,108.1
				L136.4,108.1z M136.3,104.5c0-0.6-0.4-1-1.1-1H134c0,0,0,0,0,0v1.8c0,0,0,0,0,0h1.2C135.9,105.5,136.3,105.2,136.3,104.5"/>
			<path class="st1" d="M142.2,106.4c0,0.9,0.5,1.4,1.2,1.4c0.8,0,1.2-0.5,1.2-1.4v-3.2c0,0,0-0.1,0.1-0.1h0.3c0,0,0.1,0,0.1,0.1
				v3.2c0,1.2-0.7,1.8-1.7,1.8c-1,0-1.7-0.6-1.7-1.8v-3.2c0,0,0-0.1,0.1-0.1h0.3c0,0,0.1,0,0.1,0.1L142.2,106.4L142.2,106.4z"/>
			<path class="st1" d="M150.2,105.7c0-0.9,0.1-1.2,0.1-1.4c0.2-0.7,0.8-1.1,1.6-1.1s1.3,0.4,1.6,0.9c0,0,0,0.1,0,0.1l-0.2,0.1
				c0,0-0.1,0-0.1,0c-0.2-0.5-0.6-0.7-1.2-0.7c-0.6,0-1,0.3-1.2,0.8c-0.1,0.2-0.1,0.5-0.1,1.3s0,1.1,0.1,1.3
				c0.2,0.6,0.6,0.8,1.2,0.8c0.6,0,1-0.3,1.2-0.8c0.1-0.2,0.1-0.5,0.1-0.9c0,0,0,0,0,0H152c0,0-0.1,0-0.1-0.1v-0.2
				c0,0,0-0.1,0.1-0.1h1.5c0,0,0.1,0,0.1,0.1v0.3c0,0.5-0.1,0.9-0.1,1.1c-0.2,0.7-0.8,1.1-1.6,1.1s-1.4-0.4-1.6-1.1
				C150.2,106.8,150.1,106.5,150.2,105.7"/>
			<path class="st1" d="M161.6,108.1C161.6,108.1,161.5,108.1,161.6,108.1l-1.1-2.2h-1.4c0,0,0,0,0,0v2.1c0,0,0,0.1-0.1,0.1h-0.3
				c0,0-0.1,0-0.1-0.1v-4.7c0,0,0-0.1,0.1-0.1h1.7c0.9,0,1.5,0.5,1.5,1.4c0,0.7-0.4,1.1-1,1.3l1.1,2.2c0,0,0,0.1,0,0.1L161.6,108.1
				L161.6,108.1z M161.5,104.5c0-0.6-0.4-1-1.1-1h-1.2c0,0,0,0,0,0v1.8c0,0,0,0,0,0h1.2C161.1,105.5,161.5,105.2,161.5,104.5"/>
			<path class="st1" d="M168.3,103.3C168.3,103.2,168.3,103.2,168.3,103.3l0.3-0.1c0,0,0.1,0,0.1,0.1l1.7,4.8c0,0,0,0.1,0,0.1h-0.3
				c0,0-0.1,0-0.1-0.1l-0.4-1.2h-2.1L167,108c0,0.1,0,0.1-0.1,0.1h-0.3c0,0-0.1,0,0-0.1L168.3,103.3L168.3,103.3z M169.5,106.5
				l-0.9-2.6h0l-0.9,2.6H169.5L169.5,106.5z"/>
			<path class="st1" d="M175.2,103.3C175.2,103.2,175.3,103.2,175.2,103.3l0.3-0.1c0,0,0.1,0,0.1,0.1l1.6,3.5h0l1.6-3.5
				c0-0.1,0.1-0.1,0.1-0.1h0.3c0,0,0.1,0,0.1,0.1v4.8c0,0,0,0.1-0.1,0.1H179c0,0-0.1,0-0.1-0.1v-3.8h0l-1.4,3.1
				c0,0.1-0.1,0.1-0.1,0.1h-0.1c-0.1,0-0.1,0-0.1-0.1l-1.4-3.1h0v3.8c0,0,0,0.1-0.1,0.1h-0.3c0,0-0.1,0-0.1-0.1L175.2,103.3
				L175.2,103.3z"/>
			<path class="st49" d="M149.2,93.5l-2.5,5.1h-3.1l2.5-4.8c-0.2,0.1-0.5,0.1-0.7,0.1c-1.5,0-3.3-1.3-3.3-3.7c0-2.6,1.9-4,4.1-4
				c2.2,0,4.1,1.4,4.1,4C150.3,91.2,150,92.1,149.2,93.5 M146.2,88.7c-0.7,0-1.3,0.5-1.3,1.4s0.6,1.4,1.3,1.4c0.7,0,1.3-0.5,1.3-1.4
				S146.9,88.7,146.2,88.7"/>
			<path class="st49" d="M151.9,98.6v-2.6l4.5-4.9c0.5-0.5,0.6-0.8,0.6-1.3c0-0.7-0.4-1.1-1.1-1.1c-0.5,0-1.1,0.2-1.1,1.2h-2.8
				c0-2.4,1.8-3.8,4-3.8c2.3,0,4,1.4,4,3.7c0,1.3-0.6,2-1.5,3l-2.9,3.1h4.5v2.6H151.9L151.9,98.6z"/>
			<path class="st49" d="M171.5,98.6v-2.6l4.5-4.9c0.5-0.5,0.6-0.8,0.6-1.3c0-0.7-0.4-1.1-1.1-1.1c-0.5,0-1.1,0.2-1.1,1.2h-2.8
				c0-2.4,1.8-3.8,4-3.8c2.3,0,3.9,1.4,3.9,3.7c0,1.3-0.6,2-1.5,3l-2.9,3.1h4.5v2.6H171.5L171.5,98.6z"/>
			<path class="st49" d="M162.9,95v-1.9c0-0.1,0.1-0.2,0.2-0.2h5.3c0.1,0,0.2,0.1,0.2,0.2V95c0,0.1-0.1,0.2-0.2,0.2H163
				C162.9,95.2,162.9,95.1,162.9,95"/>
			<line class="st50" x1="36" y1="100.8" x2="179.4" y2="100.8"/>
		</g>
	</g>
</g>
</svg>
