<svg id="Layer_1" data-name="Layer 1" xmlns="http://www.w3.org/2000/svg" viewBox="0 0 200 200"><defs><style>.cls-1{fill:#f4f4f4;}.cls-2{fill:#00a651;}</style></defs><polygon class="cls-1" points="72.16 56.08 74.88 49.27 75.38 22.8 75.92 49.32 78.66 56.08 78.66 140.96 72.16 140.96 72.16 56.08"/><polygon class="cls-1" points="4.41 170.09 4.41 177.13 3.17 177.13 3.17 170.09 0.93 170.09 0.93 168.98 6.65 168.98 6.65 170.09 4.41 170.09"/><polygon class="cls-1" points="21.18 177.13 21.18 173.57 17.87 173.57 17.87 177.13 16.63 177.13 16.63 168.99 17.87 168.99 17.87 172.46 21.18 172.46 21.18 168.99 22.41 168.99 22.41 177.13 21.18 177.13"/><polygon class="cls-1" points="33.12 177.13 33.12 168.99 38.32 168.99 38.32 170.09 34.35 170.09 34.35 172.47 37.74 172.47 37.74 173.57 34.35 173.57 34.35 176.02 38.32 176.02 38.32 177.13 33.12 177.13"/><path class="cls-1" d="M64,170.44a1.46,1.46,0,0,0-1-.35H61.15v2.56H63a1.47,1.47,0,0,0,1-.34,1.17,1.17,0,0,0,.38-.93,1.2,1.2,0,0,0-.38-.94m.43,6.69-1.72-3.43H61.15v3.43H59.91V169h3.16a2.58,2.58,0,0,1,1.84.66,2.26,2.26,0,0,1,.69,1.72,2.15,2.15,0,0,1-.46,1.4,2.18,2.18,0,0,1-1.16.76l1.87,3.6Z"/><polygon class="cls-1" points="75.98 177.13 75.98 168.99 81.19 168.99 81.19 170.09 77.22 170.09 77.22 172.47 80.6 172.47 80.6 173.57 77.22 173.57 77.22 176.02 81.19 176.02 81.19 177.13 75.98 177.13"/><polygon class="cls-1" points="94.21 170.09 94.21 177.13 92.98 177.13 92.98 170.09 90.74 170.09 90.74 168.98 96.45 168.98 96.45 170.09 94.21 170.09"/><path class="cls-1" d="M108.29,170.83,107,174.44h2.51Zm2.14,6.3-.56-1.64h-3.21l-.56,1.64h-1.32l3-8.15h1l3,8.15Z"/><rect class="cls-1" x="121.48" y="168.98" width="1.24" height="8.14"/><polygon class="cls-1" points="133.42 177.13 133.42 168.99 134.66 168.99 134.66 176.02 138.58 176.02 138.58 177.13 133.42 177.13"/><polygon class="cls-1" points="164.43 177.13 164.43 173.57 161.13 173.57 161.13 177.13 159.88 177.13 159.88 168.99 161.13 168.99 161.13 172.46 164.43 172.46 164.43 168.99 165.66 168.99 165.66 177.13 164.43 177.13"/><path class="cls-1" d="M181.86,175.52a2.76,2.76,0,0,1-.61.9,2.69,2.69,0,0,1-.94.58,3.44,3.44,0,0,1-2.31,0,2.65,2.65,0,0,1-.93-.58,2.55,2.55,0,0,1-.62-.9,2.74,2.74,0,0,1-.22-1.13V169h1.24v5.34a1.74,1.74,0,0,0,.46,1.28,1.59,1.59,0,0,0,1.22.48,1.61,1.61,0,0,0,1.23-.48,1.74,1.74,0,0,0,.46-1.28V169h1.23v5.4a2.74,2.74,0,0,1-.22,1.13"/><path class="cls-1" d="M196.83,173.88a1.35,1.35,0,0,0-1-.34H193.9V176h1.95a1.35,1.35,0,0,0,1-.35,1.29,1.29,0,0,0,0-1.79m-.13-3.48a1.49,1.49,0,0,0-1-.31H193.9v2.34h1.83a1.43,1.43,0,0,0,1-.3,1.11,1.11,0,0,0,.36-.86,1.07,1.07,0,0,0-.36-.87m1,6.13a2.57,2.57,0,0,1-1.78.6h-3.29V169h3.17a2.59,2.59,0,0,1,1.79.6,2.09,2.09,0,0,1,.66,1.63,1.81,1.81,0,0,1-.33,1.08l-.76.64a2,2,0,0,1,.87.69,2,2,0,0,1,.35,1.2,2.13,2.13,0,0,1-.68,1.7"/><rect class="cls-1" x="1.44" y="55.2" width="4.5" height="85.77"/><rect class="cls-1" x="9.54" y="45.49" width="2.48" height="95.47"/><polygon class="cls-1" points="23.26 140.96 15.6 140.96 15.6 57.27 23.26 68.06 23.26 140.96"/><rect class="cls-1" x="26.85" y="45.49" width="2.25" height="95.47"/><rect class="cls-1" x="32.69" y="64.91" width="4.5" height="76.06"/><rect class="cls-1" x="52.03" y="45.49" width="2.25" height="95.47"/><rect class="cls-1" x="57.87" y="72.99" width="2.25" height="67.97"/><rect class="cls-1" x="63.71" y="45.49" width="4.06" height="95.47"/><rect class="cls-1" x="83.06" y="45.49" width="2.03" height="95.47"/><rect class="cls-1" x="88.67" y="53.58" width="4.28" height="87.38"/><rect class="cls-1" x="105.1" y="45.49" width="2.22" height="95.47"/><rect class="cls-1" x="96.54" y="61.67" width="4.31" height="79.3"/><rect class="cls-1" x="110.91" y="45.49" width="4.69" height="95.47"/><rect class="cls-1" x="119.19" y="71.38" width="7.89" height="69.59"/><rect class="cls-1" x="138.21" y="53.58" width="4.73" height="87.38"/><rect class="cls-1" x="146.53" y="45.49" width="2.25" height="95.47"/><polygon class="cls-1" points="162.06 140.96 152.37 140.96 152.37 52.6 157.22 39.02 162.06 52.6 162.06 140.96"/><rect class="cls-1" x="171.26" y="45.49" width="4.28" height="95.47"/><polygon class="cls-1" points="186.12 140.96 178.47 140.96 178.47 51.86 182.16 51.86 183.51 51.86 186.12 51.86 186.12 140.96"/><rect class="cls-1" x="189.62" y="45.49" width="2.48" height="95.47"/><rect class="cls-1" x="194.64" y="72.99" width="4.28" height="67.97"/><polygon class="cls-1" points="46.42 74.13 46.42 61.67 43.97 61.67 43.97 85.16 40.78 85.16 40.78 140.96 48.44 140.96 48.44 74.13 46.42 74.13"/><polygon class="cls-1" points="131.47 46.62 131.47 141.04 134.63 141.04 134.63 30.93 131.47 46.62"/><rect class="cls-1" x="165.65" y="61.67" width="2.03" height="79.29"/><path class="cls-2" d="M6.55,144.28c3.31,0,5,1.79,5,4.92v.62H8.35V149c0-1.4-.62-1.93-1.71-1.93s-1.7.53-1.7,1.93c0,4,6.66,4.78,6.66,10.37,0,3.13-1.74,4.92-5.08,4.92s-5.07-1.79-5.07-4.92v-1.2H4.67v1.39c0,1.4.68,1.91,1.76,1.91s1.76-.51,1.76-1.91c0-4-6.65-4.78-6.65-10.37,0-3.13,1.7-4.92,5-4.92"/><rect class="cls-2" x="17.02" y="144.51" width="3.41" height="19.57"/><path class="cls-2" d="M32,153.17h4.76v6.21c0,3.13-1.73,4.92-5.07,4.92s-5.08-1.79-5.08-4.92V149.2c0-3.13,1.74-4.92,5.08-4.92s5.07,1.79,5.07,4.92v1.9H33.55V149c0-1.4-.69-1.93-1.77-1.93S30,147.61,30,149v10.57c0,1.39.68,1.9,1.76,1.9s1.77-.51,1.77-1.9V156H32Z"/><polygon class="cls-2" points="45.47 149.9 45.47 164.08 42.4 164.08 42.4 144.51 46.67 144.51 50.17 156.22 50.17 144.51 53.2 144.51 53.2 164.08 49.7 164.08 45.47 149.9"/><path class="cls-2" d="M62.59,144.51v15.1c0,1.39.68,1.89,1.76,1.89s1.77-.5,1.77-1.89v-15.1h3.22v14.9c0,3.13-1.74,4.92-5.08,4.92s-5.07-1.79-5.07-4.92v-14.9Z"/><polygon class="cls-2" points="82.88 158.4 85.2 144.51 89.93 144.51 89.93 164.08 86.71 164.08 86.71 150.04 84.36 164.08 81.14 164.08 78.61 150.24 78.61 164.08 75.64 164.08 75.64 144.51 80.37 144.51 82.88 158.4"/><path class="cls-1" d="M106.39,144.52h-5V163.9h3.37v-7.28h1.6c3.37,0,5-1.69,5-4.79v-2.52c0-3.11-1.65-4.79-5-4.79m0,2.76c1.07,0,1.65.45,1.65,1.83V152c0,1.38-.58,1.83-1.65,1.83h-1.6v-6.57Z"/><polygon class="cls-1" points="117.93 163.9 126.85 163.9 126.85 161.13 121.3 161.13 121.3 144.51 117.93 144.51 117.93 163.9"/><path class="cls-1" d="M140.75,144.51h-4.94l-3.43,19.39h3.1l.58-3.52h4.14l.58,3.52h3.4ZM138.11,148l1.63,9.8h-3.25Z"/><polygon class="cls-1" points="150.48 144.51 150.48 147.28 156.58 147.28 150.18 161.19 150.18 163.9 160.05 163.9 160.05 161.13 153.64 161.13 160.05 147.23 160.05 144.51 150.48 144.51"/><path class="cls-1" d="M174.47,144.51h-4.94L166.1,163.9h3.1l.58-3.52h4.14l.58,3.52h3.4ZM171.83,148l1.63,9.8h-3.25Z"/><path class="cls-2" d="M189,157.64v1.61c0,3.1,1.72,4.87,5,4.87s5-1.77,5-4.87v-4.32c0-2.85-1.26-4.43-3.74-4.43a3.29,3.29,0,0,0-2.94,1.41l.27-4.63h5.86v-2.77h-8.89L189,155.76h3.19v-.58c0-1.39.68-1.91,1.75-1.91s1.75.52,1.75,1.91v4.26c0,1.39-.68,1.88-1.75,1.88s-1.75-.49-1.75-1.88v-1.8Z"/></svg>