<?xml version="1.0" encoding="utf-8"?>
<!-- Generator: Adobe Illustrator 26.3.1, SVG Export Plug-In . SVG Version: 6.00 Build 0)  -->
<svg version="1.1" id="Layer_1" xmlns="http://www.w3.org/2000/svg" xmlns:xlink="http://www.w3.org/1999/xlink" x="0px" y="0px"
	 viewBox="0 0 380 84" style="enable-background:new 0 0 380 84;" xml:space="preserve">
<style type="text/css">
	.st0{opacity:0.41;}
	.st1{clip-path:url(#SVGID_00000133487609347255407790000012361948816096539795_);}
	.st2{filter:url(#Adobe_OpacityMaskFilter);}
	.st3{clip-path:url(#SVGID_00000034084654080448979530000014603901277015180687_);}
	
		.st4{clip-path:url(#SVGID_00000083049626019115430660000016171255849521980065_);fill:url(#SVGID_00000084497920741865947580000009492176764644788111_);}
	
		.st5{clip-path:url(#SVGID_00000034084654080448979530000014603901277015180687_);mask:url(#SVGID_00000040573908026091667250000016946394748363384227_);fill:url(#SVGID_00000083776500324918233810000009035232240765512108_);}
	.st6{fill:#F6EB3B;}
	.st7{fill:#818285;}
	.st8{fill-rule:evenodd;clip-rule:evenodd;fill:#818285;}
	.st9{fill:url(#SVGID_00000152958867890869444200000010640221556947087751_);}
	.st10{fill:url(#SVGID_00000135659522098225582620000001089912944791708599_);}
	.st11{fill:url(#SVGID_00000004519827487659496020000012984424703492303511_);}
	.st12{fill:url(#SVGID_00000155856543765940156730000015337480399029318279_);}
	.st13{fill:url(#SVGID_00000180355017075714801900000005068908743082821809_);}
	.st14{fill:url(#SVGID_00000110471124928033201540000007841639495771370883_);}
	.st15{fill:#69B445;}
	.st16{fill:url(#SVGID_00000005955956999598011780000004039910220742358942_);}
	.st17{fill:url(#SVGID_00000176725127336370357060000017696399939226856109_);}
	.st18{fill:url(#SVGID_00000119809907769857522840000017141061033919157381_);}
	
		.st19{clip-path:url(#SVGID_00000031187087998267044790000004181152853918489478_);fill:url(#SVGID_00000124844767075501937620000008987087513914520238_);}
	
		.st20{clip-path:url(#SVGID_00000092427057788161377800000011789611414602566531_);fill:url(#SVGID_00000011009595061266871850000016235568867964929192_);}
	
		.st21{clip-path:url(#SVGID_00000022521830031508925560000002965414573180523173_);fill:url(#SVGID_00000036219996627853935630000011759208131365864354_);}
	
		.st22{clip-path:url(#SVGID_00000085946857302012753430000015758054407314004141_);fill:url(#SVGID_00000003786582035468588940000016102707429833730982_);}
	.st23{fill:url(#SVGID_00000056409334655155540100000013381004981466737796_);}
	
		.st24{clip-path:url(#SVGID_00000145762683164915888320000015139477060081855912_);fill:url(#SVGID_00000058562505592880356950000016522871308898590643_);}
	
		.st25{clip-path:url(#SVGID_00000132779966338171174120000017129665683524697732_);fill:url(#SVGID_00000016041789588610624790000005148274426911728265_);}
	
		.st26{clip-path:url(#SVGID_00000013166766123966042820000002119085007927877561_);fill:url(#SVGID_00000044885337403167078350000016927673711241560216_);}
	
		.st27{clip-path:url(#SVGID_00000096023299531419648800000012841517926359079868_);fill:url(#SVGID_00000157305820898169433590000009370466284365847222_);}
	.st28{fill:url(#SVGID_00000091707078671662444000000017879534923141571464_);}
	.st29{fill:url(#SVGID_00000058551097867797161080000010386665367734898869_);}
	
		.st30{clip-path:url(#SVGID_00000156553439441210969320000003547802347779843718_);fill:url(#SVGID_00000180346259021550548480000017586835552668539793_);}
	
		.st31{clip-path:url(#SVGID_00000141441982130193264410000017990812033616581531_);fill:url(#SVGID_00000140716904532616418000000014116202677536320180_);}
	.st32{fill:none;}
</style>
<g class="st0">
	<g>
		<g>
			<defs>
				<rect id="SVGID_1_" x="242.8" y="5.9" width="27.4" height="25.7"/>
			</defs>
			<clipPath id="SVGID_00000106134696290414920850000011270656349292295816_">
				<use xlink:href="#SVGID_1_"  style="overflow:visible;"/>
			</clipPath>
			<g style="clip-path:url(#SVGID_00000106134696290414920850000011270656349292295816_);">
				<g>
					<defs>
						<polygon id="SVGID_00000040562967489205295740000000558837195539023504_" points="257.5,11.7 248.2,5.9 248.2,5.9 242.8,14.4 
							248,17.7 270.1,31.6 270.1,19.6 						"/>
					</defs>
					<clipPath id="SVGID_00000163761671632921403150000004300548062369292972_">
						<use xlink:href="#SVGID_00000040562967489205295740000000558837195539023504_"  style="overflow:visible;"/>
					</clipPath>
					<defs>
						<filter id="Adobe_OpacityMaskFilter" filterUnits="userSpaceOnUse" x="230.8" y="-6.9" width="51.3" height="51.2">
							<feColorMatrix  type="matrix" values="1 0 0 0 0  0 1 0 0 0  0 0 1 0 0  0 0 0 1 0"/>
						</filter>
					</defs>
					
						<mask maskUnits="userSpaceOnUse" x="230.8" y="-6.9" width="51.3" height="51.2" id="SVGID_00000040573908026091667250000016946394748363384227_">
						<g class="st2">
							<g>
								<defs>
									<polygon id="SVGID_00000137849454339128956950000005869472455380176557_" points="257.5,11.7 248.2,5.9 248.2,5.9 
										242.8,14.4 248,17.7 270.1,31.6 270.1,19.6 									"/>
								</defs>
								
									<clipPath id="SVGID_00000074402728818902283270000017936907234586506882_" style="clip-path:url(#SVGID_00000163761671632921403150000004300548062369292972_);">
									<use xlink:href="#SVGID_00000137849454339128956950000005869472455380176557_"  style="overflow:visible;"/>
								</clipPath>
								
									<linearGradient id="SVGID_00000008830629341013190400000011458022839718877331_" gradientUnits="userSpaceOnUse" x1="3848.4924" y1="-1788.0543" x2="3849.6548" y2="-1788.0543" gradientTransform="matrix(-20.5398 -14.1139 14.1139 -20.5398 104555.8359 17620.4238)">
									<stop  offset="0" style="stop-color:#000000"/>
									<stop  offset="0.3519" style="stop-color:#000000"/>
									<stop  offset="0.9652" style="stop-color:#FFFFFF"/>
									<stop  offset="1" style="stop-color:#FFFFFF"/>
								</linearGradient>
								
									<polygon style="clip-path:url(#SVGID_00000074402728818902283270000017936907234586506882_);fill:url(#SVGID_00000008830629341013190400000011458022839718877331_);" points="
									261.4,44.3 230.8,23.3 251.6,-6.9 282.1,14.1 								"/>
							</g>
						</g>
					</mask>
					
						<linearGradient id="SVGID_00000123408504097885339750000017920477060215011252_" gradientUnits="userSpaceOnUse" x1="3848.4924" y1="-1788.0543" x2="3849.6548" y2="-1788.0543" gradientTransform="matrix(-20.5398 -14.1139 14.1139 -20.5398 104555.8359 17620.4238)">
						<stop  offset="0" style="stop-color:#FFFFFF"/>
						<stop  offset="0.3519" style="stop-color:#FFFFFF"/>
						<stop  offset="0.4252" style="stop-color:#ECECEC"/>
						<stop  offset="0.5749" style="stop-color:#BAB9B9"/>
						<stop  offset="0.7852" style="stop-color:#6B6969"/>
						<stop  offset="0.9652" style="stop-color:#221F1F"/>
						<stop  offset="1" style="stop-color:#221F1F"/>
					</linearGradient>
					
						<polygon style="clip-path:url(#SVGID_00000163761671632921403150000004300548062369292972_);mask:url(#SVGID_00000040573908026091667250000016946394748363384227_);fill:url(#SVGID_00000123408504097885339750000017920477060215011252_);" points="
						261.4,44.3 230.8,23.3 251.6,-6.9 282.1,14.1 					"/>
				</g>
			</g>
		</g>
	</g>
</g>
<path class="st6" d="M248.2,5.9L248.2,5.9L248.2,5.9z"/>
<rect x="74" y="63.9" class="st7" width="305.7" height="0.7"/>
<path class="st8" d="M88.1,25.8c-0.4,0.7-0.9,1.4-1.6,1.9s-1.4,0.9-2.3,1.2c-0.9,0.3-1.8,0.4-2.8,0.4c-1.6,0-2.9-0.2-4.1-0.5
	c-1.2-0.4-2.2-1-3.1-1.9l3-3c0.5,0.5,1.1,0.8,1.8,1c0.8,0.2,1.6,0.3,2.4,0.3c1.8,0,2.7-0.6,2.7-1.7c0-0.5-0.1-0.8-0.4-1.1
	c-0.3-0.3-0.7-0.4-1.2-0.5l-1.1-0.2l-1.2-0.2c-1.7-0.2-2.9-0.8-3.8-1.7c-0.9-0.9-1.3-2.2-1.3-3.8c0-1.7,0.6-3.2,1.9-4.3
	c1.2-1.1,2.9-1.7,5-1.7c1.4,0,2.6,0.2,3.6,0.5c1,0.4,1.9,0.9,2.7,1.7l-2.9,2.9c-0.5-0.5-1-0.8-1.6-0.9c-0.6-0.1-1.2-0.2-2-0.2
	c-0.7,0-1.3,0.2-1.7,0.5c-0.4,0.4-0.6,0.8-0.6,1.2c0,0.3,0.1,0.6,0.4,0.9s0.7,0.5,1.3,0.6l1,0.1l1.2,0.2c1.7,0.2,2.9,0.8,3.7,1.6
	c0.9,0.9,1.4,2.3,1.4,4.1C88.7,24.3,88.5,25.1,88.1,25.8"/>
<path class="st8" d="M111.6,24.6c-0.3,1-0.8,1.8-1.5,2.5c-0.8,0.8-1.6,1.3-2.5,1.7c-0.9,0.3-1.9,0.5-3,0.5s-2-0.2-2.9-0.5
	c-0.9-0.4-1.6-0.9-2.3-1.6c-0.8-0.8-1.4-1.8-1.6-2.9s-0.3-2.6-0.3-4.6s0.1-3.5,0.3-4.6c0.2-1.1,0.7-2.1,1.6-2.9
	c0.7-0.7,1.5-1.2,2.3-1.6c0.8-0.4,1.8-0.5,2.9-0.5c1.2,0,2.2,0.2,3.1,0.5s1.6,0.8,2.2,1.4c0.6,0.6,1.1,1.3,1.4,2s0.6,1.5,0.7,2.3
	h-4.7c-0.2-0.7-0.5-1.3-0.9-1.6s-1-0.5-1.8-0.5c-0.4,0-0.8,0.1-1.1,0.2c-0.3,0.1-0.6,0.3-0.8,0.6c-0.1,0.2-0.2,0.3-0.3,0.5
	c-0.1,0.2-0.1,0.4-0.2,0.7c-0.1,0.3-0.1,0.8-0.1,1.3s-0.1,1.2-0.1,2.1s0,1.5,0.1,2.1c0,0.5,0.1,1,0.1,1.3c0.1,0.3,0.1,0.6,0.2,0.8
	c0.1,0.2,0.2,0.4,0.3,0.5c0.4,0.5,1,0.8,1.8,0.8c0.9,0,1.6-0.2,2.1-0.7c0.2-0.2,0.4-0.5,0.5-0.9s0.2-0.7,0.2-1.1v-0.3h-2.8v-3.9h7.4
	v2.6C112,22.4,111.9,23.7,111.6,24.6"/>
<polygon class="st8" points="124.9,29.1 118.8,19.6 118.8,29.1 114.2,29.1 114.2,10.2 118.3,10.2 124.3,19.7 124.3,10.2 128.9,10.2 
	128.9,29.1 "/>
<path class="st8" d="M142.7,29.1l-0.9-2.8H136l-0.9,2.8h-4.8l6.9-18.9h3.6l6.9,18.9H142.7z M139,17.4L139,17.4l-1.7,5h3.3L139,17.4z
	"/>
<polygon class="st8" points="155.2,14.4 155.2,29.1 150.6,29.1 150.6,14.4 146,14.4 146,10.2 159.9,10.2 159.9,14.4 "/>
<path class="st8" d="M175.2,25.3c-0.4,0.8-0.9,1.6-1.5,2.2c-0.7,0.6-1.4,1.1-2.3,1.4c-0.9,0.3-1.8,0.5-2.8,0.5s-1.9-0.2-2.8-0.5
	c-0.9-0.3-1.6-0.8-2.3-1.4s-1.2-1.3-1.5-2.2c-0.4-0.8-0.5-1.8-0.5-2.8V10.2h4.6v12.1c0,0.9,0.2,1.5,0.7,2c0.4,0.5,1,0.7,1.8,0.7
	s1.4-0.2,1.9-0.7s0.7-1.2,0.7-2V10.2h4.6v12.2C175.8,23.5,175.6,24.4,175.2,25.3"/>
<path class="st8" d="M187.8,29.1l-3.3-7h-1.6v7h-4.6V10.2h7.5c1,0,1.9,0.2,2.7,0.5s1.5,0.8,2,1.4c0.5,0.6,1,1.2,1.2,2
	c0.3,0.7,0.4,1.5,0.4,2.3c0,1.2-0.3,2.2-0.9,3c-0.6,0.8-1.3,1.5-2.2,1.9l4.1,7.9L187.8,29.1L187.8,29.1z M187,15L187,15
	c-0.4-0.4-0.9-0.6-1.5-0.6h-2.6v3.8h2.6c0.6,0,1.1-0.2,1.5-0.6s0.5-0.8,0.5-1.3C187.6,15.8,187.4,15.4,187,15"/>
<polygon class="st8" points="194.8,29.1 194.8,10.2 207.6,10.2 207.6,14.4 199.4,14.4 199.4,17.5 206.4,17.5 206.4,21.7 199.4,21.7 
	199.4,25 207.6,25 207.6,29.1 "/>
<rect x="90.6" y="10.2" class="st8" width="4.6" height="18.9"/>
<path class="st8" d="M93.1,53.9c-0.4,1.3-1.1,2.4-2,3.4c-1,1.1-2.1,1.8-3.4,2.2c-1.2,0.4-2.6,0.6-4.1,0.6s-2.8-0.2-3.9-0.7
	c-1.2-0.5-2.2-1.2-3.2-2.2c-1.1-1.1-1.8-2.4-2.1-3.9c-0.3-1.5-0.4-3.6-0.4-6.2c0-2.7,0.1-4.7,0.4-6.2s1-2.8,2.1-3.9
	c1-1,2-1.7,3.1-2.2s2.5-0.7,4-0.7c1.6,0,3,0.2,4.2,0.7s2.2,1.1,3,1.9c0.8,0.8,1.4,1.7,1.9,2.7s0.8,2.1,0.9,3.2h-6.3
	c-0.3-1-0.7-1.7-1.2-2.2c-0.6-0.5-1.4-0.7-2.4-0.7c-0.5,0-1,0.1-1.5,0.3c-0.4,0.2-0.8,0.5-1,0.8c-0.2,0.2-0.3,0.4-0.4,0.7
	c-0.1,0.2-0.2,0.6-0.3,1c-0.1,0.4-0.1,1-0.2,1.8c0,0.7-0.1,1.7-0.1,2.8s0,2.1,0.1,2.8c0,0.7,0.1,1.3,0.2,1.8c0.1,0.4,0.2,0.8,0.3,1
	c0.1,0.3,0.2,0.5,0.4,0.7c0.5,0.7,1.4,1.1,2.5,1.1c1.2,0,2.2-0.3,2.8-1c0.3-0.3,0.6-0.7,0.7-1.2c0.2-0.5,0.2-1,0.2-1.5v-0.4h-3.8
	v-5.2h10v3.6C93.7,50.9,93.5,52.6,93.1,53.9"/>
<polygon class="st8" points="96.7,60 96.7,34.4 103,34.4 103,54.4 113.7,54.4 113.7,60 "/>
<path class="st8" d="M134.5,53.4c-0.3,1.5-1,2.8-2.1,3.9c-1,1-2,1.7-3.2,2.2c-1.1,0.5-2.5,0.7-4,0.7s-2.8-0.2-4-0.7
	c-1.1-0.5-2.2-1.2-3.2-2.2c-1.1-1.1-1.8-2.4-2.1-3.9c-0.3-1.5-0.4-3.6-0.4-6.2c0-2.7,0.1-4.7,0.4-6.2s1-2.8,2.1-3.9
	c1-1,2-1.7,3.2-2.2c1.1-0.5,2.5-0.7,4-0.7s2.8,0.2,4,0.7c1.1,0.5,2.2,1.2,3.2,2.2c1.1,1.1,1.8,2.4,2.1,3.9s0.4,3.6,0.4,6.2
	C134.9,49.8,134.8,51.9,134.5,53.4 M128.6,44.4L128.6,44.4c0-0.7-0.1-1.3-0.2-1.8c-0.1-0.4-0.2-0.8-0.3-1s-0.2-0.5-0.4-0.7
	c-0.2-0.3-0.6-0.6-1-0.8s-0.9-0.3-1.5-0.3c-0.5,0-1,0.1-1.5,0.3c-0.4,0.2-0.8,0.5-1,0.8c-0.2,0.2-0.3,0.4-0.4,0.7
	c-0.1,0.2-0.2,0.6-0.3,1c-0.1,0.4-0.1,1-0.2,1.8c0,0.7-0.1,1.7-0.1,2.8s0,2.1,0.1,2.8s0.1,1.3,0.2,1.7s0.2,0.8,0.3,1
	c0.1,0.2,0.2,0.5,0.4,0.7c0.3,0.3,0.6,0.6,1,0.8s0.9,0.3,1.5,0.3c0.5,0,1-0.1,1.5-0.3c0.4-0.2,0.8-0.5,1-0.8
	c0.2-0.2,0.3-0.4,0.4-0.7c0.1-0.2,0.2-0.6,0.3-1s0.1-1,0.2-1.7c0-0.7,0.1-1.7,0.1-2.8C128.6,46,128.6,45.1,128.6,44.4"/>
<path class="st8" d="M154.8,58c-1.5,1.3-3.4,2-5.7,2H138V34.4h10.6c2.6,0,4.6,0.7,6,2s2.1,3.1,2.1,5.4c0,1.3-0.3,2.3-0.9,3.1
	c-0.6,0.8-1.2,1.5-1.9,1.9c0.4,0.2,0.7,0.5,1.1,0.7c0.3,0.3,0.6,0.6,1,1c0.3,0.4,0.6,1,0.8,1.6s0.3,1.4,0.3,2.2
	C157.1,54.8,156.3,56.6,154.8,58 M149.9,40.7L149.9,40.7c-0.4-0.4-0.9-0.6-1.7-0.6h-3.9v4.2h3.9c0.8,0,1.4-0.2,1.7-0.6
	c0.4-0.4,0.5-0.9,0.5-1.5C150.4,41.6,150.3,41.1,149.9,40.7 M150.2,50.5L150.2,50.5c-0.4-0.4-1-0.6-1.7-0.6h-4.2v4.5h4.2
	c0.8,0,1.4-0.2,1.7-0.7c0.4-0.4,0.6-1,0.6-1.6C150.8,51.4,150.6,50.9,150.2,50.5"/>
<path class="st8" d="M174.5,60l-1.2-3.8h-7.9l-1.3,3.8h-6.6l9.3-25.5h4.8L181,60H174.5z M169.5,44.1L169.5,44.1l-2.3,6.8h4.4
	L169.5,44.1z"/>
<polygon class="st8" points="183,60 183,34.4 189.3,34.4 189.3,54.4 200,54.4 200,60 "/>
<linearGradient id="SVGID_00000026876592696771872170000006195620357131576710_" gradientUnits="userSpaceOnUse" x1="210.2969" y1="47" x2="230.1" y2="47">
	<stop  offset="0" style="stop-color:#EC1E27"/>
	<stop  offset="0.1788" style="stop-color:#EC1E27"/>
	<stop  offset="0.3858" style="stop-color:#EF4425"/>
	<stop  offset="0.6622" style="stop-color:#F47222"/>
	<stop  offset="0.8762" style="stop-color:#F68E21"/>
	<stop  offset="1" style="stop-color:#F79820"/>
	<stop  offset="1" style="stop-color:#F79820"/>
</linearGradient>
<path style="fill:url(#SVGID_00000026876592696771872170000006195620357131576710_);" d="M212.9,36.8c-2.8,2.8-2.6,6.4-2.6,10.3
	s-0.1,7.6,2.6,10.3c1.9,1.9,4.2,2.9,7.3,2.9c5,0,9-2.8,9.9-8.5h-6.5c-0.4,1.5-1.2,2.8-3.3,2.8c-1.2,0-2.1-0.5-2.5-1.1
	c-0.6-0.8-1-1.7-1-6.5s0.4-5.7,1-6.5c0.5-0.6,1.4-1.1,2.5-1.1c2.1,0,2.9,1.3,3.3,2.8h6.5c-1-5.8-5-8.5-9.9-8.5
	C217.1,33.8,214.8,34.9,212.9,36.8"/>
<linearGradient id="SVGID_00000144302659810909898340000018439960807171229069_" gradientUnits="userSpaceOnUse" x1="233.4" y1="47.15" x2="239.8" y2="47.15">
	<stop  offset="0" style="stop-color:#EC1E27"/>
	<stop  offset="0.1788" style="stop-color:#EC1E27"/>
	<stop  offset="0.3858" style="stop-color:#EF4425"/>
	<stop  offset="0.6622" style="stop-color:#F47222"/>
	<stop  offset="0.8762" style="stop-color:#F68E21"/>
	<stop  offset="1" style="stop-color:#F79820"/>
	<stop  offset="1" style="stop-color:#F79820"/>
</linearGradient>
<rect x="233.4" y="34.1" style="fill:url(#SVGID_00000144302659810909898340000018439960807171229069_);" width="6.4" height="26.1"/>
<linearGradient id="SVGID_00000070112188297673483150000004534954757232642983_" gradientUnits="userSpaceOnUse" x1="243.6" y1="47.15" x2="262.8" y2="47.15">
	<stop  offset="0" style="stop-color:#EC1E27"/>
	<stop  offset="0.1788" style="stop-color:#EC1E27"/>
	<stop  offset="0.3858" style="stop-color:#EF4425"/>
	<stop  offset="0.6622" style="stop-color:#F47222"/>
	<stop  offset="0.8762" style="stop-color:#F68E21"/>
	<stop  offset="1" style="stop-color:#F79820"/>
	<stop  offset="1" style="stop-color:#F79820"/>
</linearGradient>
<polygon style="fill:url(#SVGID_00000070112188297673483150000004534954757232642983_);" points="243.6,34.1 243.6,39.8 250,39.8 
	250,60.2 256.4,60.2 256.4,39.8 262.8,39.8 262.8,34.1 "/>
<linearGradient id="SVGID_00000090264135119931338790000007509841564388951979_" gradientUnits="userSpaceOnUse" x1="263.9" y1="47.15" x2="286.1" y2="47.15">
	<stop  offset="0" style="stop-color:#EC1E27"/>
	<stop  offset="0.1788" style="stop-color:#EC1E27"/>
	<stop  offset="0.3858" style="stop-color:#EF4425"/>
	<stop  offset="0.6622" style="stop-color:#F47222"/>
	<stop  offset="0.8762" style="stop-color:#F68E21"/>
	<stop  offset="1" style="stop-color:#F79820"/>
	<stop  offset="1" style="stop-color:#F79820"/>
</linearGradient>
<polygon style="fill:url(#SVGID_00000090264135119931338790000007509841564388951979_);" points="279.1,34.1 275,43.4 270.9,34.1 
	263.9,34.1 271.8,49.5 271.8,60.2 278.2,60.2 278.2,49.5 286.1,34.1 "/>
<linearGradient id="SVGID_00000151512580117596912050000003347946294544598667_" gradientUnits="userSpaceOnUse" x1="242.8" y1="18.75" x2="270.1" y2="18.75">
	<stop  offset="0" style="stop-color:#FCED1E"/>
	<stop  offset="0.4166" style="stop-color:#FACC1F"/>
	<stop  offset="1" style="stop-color:#F79820"/>
	<stop  offset="1" style="stop-color:#CAA92D"/>
	<stop  offset="1" style="stop-color:#84C341"/>
</linearGradient>
<polygon style="fill:url(#SVGID_00000151512580117596912050000003347946294544598667_);" points="242.8,14.4 248,17.7 270.1,31.6 
	270.1,19.6 257.5,11.7 248.2,5.9 248.2,5.9 "/>
<linearGradient id="SVGID_00000076592825080129286290000005054427993365250957_" gradientUnits="userSpaceOnUse" x1="226.2" y1="18.75" x2="257.5" y2="18.75">
	<stop  offset="0" style="stop-color:#FCED1E"/>
	<stop  offset="2.680720e-02" style="stop-color:#FCED1E"/>
	<stop  offset="0.4322" style="stop-color:#FACC1F"/>
	<stop  offset="1" style="stop-color:#F79820"/>
	<stop  offset="1" style="stop-color:#CAA92D"/>
	<stop  offset="1" style="stop-color:#84C341"/>
</linearGradient>
<polygon style="fill:url(#SVGID_00000076592825080129286290000005054427993365250957_);" points="226.2,19.6 226.2,31.6 248,17.7 
	257.5,11.7 248.2,5.9 248.2,5.9 "/>
<path class="st15" d="M302.7,60.2c-4.3,0-8.6-2.3-8.6-8.1h5.9c0,1.8,1.2,2.7,2.6,2.7c1.6,0,2.6-0.9,2.6-2.7c0-1.6-1.2-2.7-2.7-2.7
	h-0.8v-5.1h0.8c1.8,0,2.5-1.3,2.5-2.4c0-1.6-1.1-2.5-2.3-2.5c-1.2,0-2.3,0.9-2.3,2.4h-5.9c0-4.8,3.7-7.8,8.3-7.8
	c4.8,0,8.3,3.2,8.3,7.6c0,2.8-1.4,4.2-2.7,5c1.4,1,3,2.5,3,5.6C311.2,57.6,307.2,60.2,302.7,60.2"/>
<polygon class="st15" points="323.5,59.9 317,59.9 325,39.6 319.5,39.6 319.5,43.6 313.9,43.6 313.9,34.2 331.5,34.2 331.5,39.6 "/>
<path class="st15" d="M353.2,55.6c-1.8,2.9-4.5,4.3-8.3,4.3h-9.5V34.2h9.5c3.9,0,6.6,1.5,8.3,4.3c1.3,2.1,1.3,4.1,1.3,8.5
	C354.5,51.5,354.5,53.6,353.2,55.6 M347.5,41.3c-0.6-0.9-1.4-1.4-3-1.4h-2.8v14.4h2.8c1.6,0,2.5-0.6,3-1.4c0.5-0.7,0.7-1.4,0.7-5.8
	C348.2,42.8,348,42,347.5,41.3"/>
<linearGradient id="SVGID_00000088117052127007541520000016375273650532919943_" gradientUnits="userSpaceOnUse" x1="36.6987" y1="18.3976" x2="53.2013" y2="18.3976">
	<stop  offset="0" style="stop-color:#102012"/>
	<stop  offset="0.4508" style="stop-color:#405929"/>
	<stop  offset="0.7022" style="stop-color:#5D7A36"/>
	<stop  offset="0.9966" style="stop-color:#677E36"/>
	<stop  offset="1" style="stop-color:#677E36"/>
</linearGradient>
<path style="fill:url(#SVGID_00000088117052127007541520000016375273650532919943_);" d="M36.8,16.8c-0.7,3.7,2.3,7.4,6.8,8.3
	s8.8-1.4,9.5-5.1s-2.3-7.4-6.8-8.3c-0.7-0.1-1.3-0.2-2-0.2C40.6,11.5,37.4,13.7,36.8,16.8"/>
<linearGradient id="SVGID_00000173142489452482141090000016566328087170257564_" gradientUnits="userSpaceOnUse" x1="35.5" y1="40.5" x2="66.2" y2="40.5">
	<stop  offset="0" style="stop-color:#102012"/>
	<stop  offset="0.4508" style="stop-color:#405929"/>
	<stop  offset="0.7022" style="stop-color:#5D7A36"/>
	<stop  offset="0.9966" style="stop-color:#677E36"/>
	<stop  offset="1" style="stop-color:#677E36"/>
</linearGradient>
<path style="fill:url(#SVGID_00000173142489452482141090000016566328087170257564_);" d="M56.8,12.8c2,2.6,3,6.5,2.4,9.5
	c-0.7,3.7-3.5,6.9-7.4,8.1c-3,0.9-5,0.7-3.2,3.8c1.6,2.7,3.1,4.4,4.1,6.9c3.8,9.5,0.1,22.2-13.7,26c-1.1,0.4-2.2,0.8-3.5,1.1
	c18.1-0.8,30.7-14.4,30.7-31.8C66.2,27.7,62.4,18.7,56.8,12.8L56.8,12.8z"/>
<linearGradient id="SVGID_00000153668120841249834290000010154447881442538890_" gradientUnits="userSpaceOnUse" x1="0.3" y1="35.3483" x2="52.8" y2="35.3483">
	<stop  offset="0" style="stop-color:#102012"/>
	<stop  offset="0.4508" style="stop-color:#405929"/>
	<stop  offset="0.7022" style="stop-color:#5D7A36"/>
	<stop  offset="0.9966" style="stop-color:#677E36"/>
	<stop  offset="1" style="stop-color:#677E36"/>
</linearGradient>
<path style="fill:url(#SVGID_00000153668120841249834290000010154447881442538890_);" d="M10.5,14.5c-1.3,2.1-2,4.6-1.9,7
	c0.1,3,0.9,6,2.4,8.5c6.7,10.9,12.9,9.5,16.3,18c2.7,6.7-3.5,12.5-12.7,4.6C4.1,43.7,1,24.3,8.1,14c-5,5.8-7.8,14.2-7.8,22.4
	c0,5.6,1.4,11.2,4.2,16.1c2.2,4,5,7.3,8.8,9.8c4,2.6,8.8,4.4,13.6,4.9c2.4,0.2,4.8,0.1,7.2-0.4c3.8-0.9,7.3-2.9,10.1-5.6
	c8.4-7.8,3.6-19.9-3.5-26.7C33.6,27.6,29,22.7,30.2,16.8c1.3-6.5,8.7-11.2,16.7-9.6c2.2,0.4,4.2,0.9,5.9,2C47.3,5,40.6,3.4,33.2,3.4
	C24.5,3.4,15.1,6.7,10.5,14.5"/>
<g>
	<g>
		<defs>
			<polyline id="SVGID_00000163756617120220596820000001676773467627371424_" points="52.8,9.2 52.8,9.2 52.8,9.2 			"/>
		</defs>
		<clipPath id="SVGID_00000136389763638347880670000000837922684608117638_">
			<use xlink:href="#SVGID_00000163756617120220596820000001676773467627371424_"  style="overflow:visible;"/>
		</clipPath>
		
			<linearGradient id="SVGID_00000100350770548307760730000013503926407810807198_" gradientUnits="userSpaceOnUse" x1="3478.0332" y1="-1784.7644" x2="3478.0332" y2="-1784.7644" gradientTransform="matrix(22.4 0 0 22.4 -77855.1406 39987.9219)">
			<stop  offset="0" style="stop-color:#102012"/>
			<stop  offset="0.4508" style="stop-color:#405929"/>
			<stop  offset="0.7022" style="stop-color:#5D7A36"/>
			<stop  offset="0.9966" style="stop-color:#677E36"/>
			<stop  offset="1" style="stop-color:#677E36"/>
		</linearGradient>
		
			<polygon style="clip-path:url(#SVGID_00000136389763638347880670000000837922684608117638_);fill:url(#SVGID_00000100350770548307760730000013503926407810807198_);" points="
			52.8,9.2 52.8,9.2 52.8,9.2 		"/>
	</g>
</g>
<g>
	<g>
		<defs>
			<polyline id="SVGID_00000039103386249992500340000001917467697869614513_" points="52.8,9.2 52.8,9.2 52.8,9.2 			"/>
		</defs>
		<clipPath id="SVGID_00000074400615344733950390000013549980793955490468_">
			<use xlink:href="#SVGID_00000039103386249992500340000001917467697869614513_"  style="overflow:visible;"/>
		</clipPath>
		
			<linearGradient id="SVGID_00000071538701764743937320000010982527351872265637_" gradientUnits="userSpaceOnUse" x1="2644.3374" y1="-2019.1029" x2="2644.3374" y2="-2019.1029" gradientTransform="matrix(4.2915 0 0 4.2915 -11295.374 8674.1807)">
			<stop  offset="0" style="stop-color:#102012"/>
			<stop  offset="0.4508" style="stop-color:#405929"/>
			<stop  offset="0.7022" style="stop-color:#5D7A36"/>
			<stop  offset="0.9966" style="stop-color:#677E36"/>
			<stop  offset="1" style="stop-color:#677E36"/>
		</linearGradient>
		
			<polygon style="clip-path:url(#SVGID_00000074400615344733950390000013549980793955490468_);fill:url(#SVGID_00000071538701764743937320000010982527351872265637_);" points="
			52.8,9.2 52.8,9.2 52.8,9.2 		"/>
	</g>
</g>
<g>
	<g>
		<defs>
			<path id="SVGID_00000098219263646967919190000000136975591929726363_" d="M52.8,9.2L52.8,9.2L52.8,9.2z"/>
		</defs>
		<clipPath id="SVGID_00000155115970212205167200000018131411622461311117_">
			<use xlink:href="#SVGID_00000098219263646967919190000000136975591929726363_"  style="overflow:visible;"/>
		</clipPath>
		
			<linearGradient id="SVGID_00000152243506555199358610000001548837974003741056_" gradientUnits="userSpaceOnUse" x1="52.8" y1="9.2" x2="52.8" y2="9.2" gradientTransform="matrix(4.000000e-03 0 0 4.000000e-03 4461.5884 1260.1351)">
			<stop  offset="0" style="stop-color:#102012"/>
			<stop  offset="0.4508" style="stop-color:#405929"/>
			<stop  offset="0.7022" style="stop-color:#5D7A36"/>
			<stop  offset="0.9966" style="stop-color:#677E36"/>
			<stop  offset="1" style="stop-color:#677E36"/>
		</linearGradient>
		
			<polygon style="clip-path:url(#SVGID_00000155115970212205167200000018131411622461311117_);fill:url(#SVGID_00000152243506555199358610000001548837974003741056_);" points="
			52.8,9.2 52.8,9.2 52.8,9.2 		"/>
	</g>
</g>
<g>
	<g>
		<defs>
			<path id="SVGID_00000038409101041756804950000018233904815255522699_" d="M52.8,9.2L52.8,9.2L52.8,9.2z"/>
		</defs>
		<clipPath id="SVGID_00000121239925573714327150000008136103653305874078_">
			<use xlink:href="#SVGID_00000038409101041756804950000018233904815255522699_"  style="overflow:visible;"/>
		</clipPath>
		
			<linearGradient id="SVGID_00000000923550899437324090000001577392807656684166_" gradientUnits="userSpaceOnUse" x1="2672.4624" y1="-2011.2089" x2="2672.4624" y2="-2011.2089" gradientTransform="matrix(4.4118 0 0 4.4118 -11737.5693 8882.251)">
			<stop  offset="0" style="stop-color:#102012"/>
			<stop  offset="0.4508" style="stop-color:#405929"/>
			<stop  offset="0.7022" style="stop-color:#5D7A36"/>
			<stop  offset="0.9966" style="stop-color:#677E36"/>
			<stop  offset="1" style="stop-color:#677E36"/>
		</linearGradient>
		
			<polygon style="clip-path:url(#SVGID_00000121239925573714327150000008136103653305874078_);fill:url(#SVGID_00000000923550899437324090000001577392807656684166_);" points="
			52.8,9.2 52.8,9.2 52.8,9.2 		"/>
	</g>
</g>
<linearGradient id="SVGID_00000173139523152309947870000001729485975441874825_" gradientUnits="userSpaceOnUse" x1="36.6013" y1="17.4006" x2="53.2012" y2="17.4006">
	<stop  offset="0" style="stop-color:#007C3F"/>
	<stop  offset="2.500000e-07" style="stop-color:#007C3F"/>
	<stop  offset="0.4997" style="stop-color:#5AAD42"/>
	<stop  offset="0.7022" style="stop-color:#80C243"/>
	<stop  offset="0.9089" style="stop-color:#88C441"/>
	<stop  offset="1" style="stop-color:#8DC640"/>
</linearGradient>
<path style="fill:url(#SVGID_00000173139523152309947870000001729485975441874825_);" d="M36.7,15.8c-0.7,3.6,2.4,7.3,6.9,8.2
	s8.8-1.3,9.5-5c0.7-3.6-2.3-7.3-6.9-8.2c-0.7-0.1-1.4-0.2-2-0.2C40.4,10.7,37.3,12.7,36.7,15.8"/>
<g>
	<g>
		<defs>
			<path id="SVGID_00000174602579230783201800000017407320884875467196_" d="M52.8,9.2L52.8,9.2L52.8,9.2z"/>
		</defs>
		<clipPath id="SVGID_00000034058460409980406460000003146548321544271257_">
			<use xlink:href="#SVGID_00000174602579230783201800000017407320884875467196_"  style="overflow:visible;"/>
		</clipPath>
		
			<linearGradient id="SVGID_00000144312761313638538230000008749168387195604895_" gradientUnits="userSpaceOnUse" x1="3484.8425" y1="-1782.8495" x2="3484.8425" y2="-1782.8495" gradientTransform="matrix(23.2 0 0 23.2 -80795.5469 41371.3086)">
			<stop  offset="0" style="stop-color:#1B7D41"/>
			<stop  offset="0.2987" style="stop-color:#439841"/>
			<stop  offset="0.7022" style="stop-color:#7EC142"/>
			<stop  offset="0.8746" style="stop-color:#85C341"/>
			<stop  offset="1" style="stop-color:#8DC640"/>
		</linearGradient>
		
			<polygon style="clip-path:url(#SVGID_00000034058460409980406460000003146548321544271257_);fill:url(#SVGID_00000144312761313638538230000008749168387195604895_);" points="
			52.8,9.2 52.8,9.2 52.8,9.2 		"/>
	</g>
</g>
<g>
	<g>
		<defs>
			<path id="SVGID_00000163785370542483425600000014158739493731465110_" d="M52.8,9.2L52.8,9.2L52.8,9.2z"/>
		</defs>
		<clipPath id="SVGID_00000047777397979407740060000012918479293270909879_">
			<use xlink:href="#SVGID_00000163785370542483425600000014158739493731465110_"  style="overflow:visible;"/>
		</clipPath>
		
			<linearGradient id="SVGID_00000099662433977131474730000003947188986788650145_" gradientUnits="userSpaceOnUse" x1="2679.8613" y1="-2009.0918" x2="2679.8613" y2="-2009.0918" gradientTransform="matrix(4.4448 0 0 4.4448 -11858.6475 8939.2109)">
			<stop  offset="0" style="stop-color:#1B7D41"/>
			<stop  offset="0.2987" style="stop-color:#439841"/>
			<stop  offset="0.7022" style="stop-color:#7EC142"/>
			<stop  offset="0.8746" style="stop-color:#85C341"/>
			<stop  offset="1" style="stop-color:#8DC640"/>
		</linearGradient>
		
			<polygon style="clip-path:url(#SVGID_00000047777397979407740060000012918479293270909879_);fill:url(#SVGID_00000099662433977131474730000003947188986788650145_);" points="
			52.8,9.2 52.8,9.2 52.8,9.2 		"/>
	</g>
</g>
<g>
	<g>
		<defs>
			<path id="SVGID_00000017516451795499935720000008879113285909652631_" d="M52.8,9.2L52.8,9.2L52.8,9.2z"/>
		</defs>
		<clipPath id="SVGID_00000056417568090964819920000014340567780492464003_">
			<use xlink:href="#SVGID_00000017516451795499935720000008879113285909652631_"  style="overflow:visible;"/>
		</clipPath>
		
			<linearGradient id="SVGID_00000055681080393652476210000011896933682262979005_" gradientUnits="userSpaceOnUse" x1="52.8" y1="9.2" x2="52.8" y2="9.2" gradientTransform="matrix(3.900000e-03 0 0 3.900000e-03 4461.958 1259.9641)">
			<stop  offset="0" style="stop-color:#1B7D41"/>
			<stop  offset="0.2987" style="stop-color:#439841"/>
			<stop  offset="0.7022" style="stop-color:#7EC142"/>
			<stop  offset="0.8746" style="stop-color:#85C341"/>
			<stop  offset="1" style="stop-color:#8DC640"/>
		</linearGradient>
		
			<polygon style="clip-path:url(#SVGID_00000056417568090964819920000014340567780492464003_);fill:url(#SVGID_00000055681080393652476210000011896933682262979005_);" points="
			52.8,9.2 52.8,9.2 52.8,9.2 		"/>
	</g>
</g>
<g>
	<g>
		<defs>
			<path id="SVGID_00000030450419263133878860000009983757021431809922_" d="M52.8,9.2L52.8,9.2L52.8,9.2z"/>
		</defs>
		<clipPath id="SVGID_00000049190072105400767850000004855689353242922134_">
			<use xlink:href="#SVGID_00000030450419263133878860000009983757021431809922_"  style="overflow:visible;"/>
		</clipPath>
		
			<linearGradient id="SVGID_00000077295675003345032460000001338019346593099398_" gradientUnits="userSpaceOnUse" x1="2646.7561" y1="-2018.4421" x2="2646.7561" y2="-2018.4421" gradientTransform="matrix(4.3015 0 0 4.3015 -11332.2207 8691.5283)">
			<stop  offset="0" style="stop-color:#1B7D41"/>
			<stop  offset="0.2987" style="stop-color:#439841"/>
			<stop  offset="0.7022" style="stop-color:#7EC142"/>
			<stop  offset="0.8746" style="stop-color:#85C341"/>
			<stop  offset="1" style="stop-color:#8DC640"/>
		</linearGradient>
		
			<polygon style="clip-path:url(#SVGID_00000049190072105400767850000004855689353242922134_);fill:url(#SVGID_00000077295675003345032460000001338019346593099398_);" points="
			52.8,9.2 52.8,9.2 52.8,9.2 		"/>
	</g>
</g>
<linearGradient id="SVGID_00000052064246513729845400000013271291045474287271_" gradientUnits="userSpaceOnUse" x1="0.1" y1="34.2483" x2="52.8" y2="34.2483">
	<stop  offset="0" style="stop-color:#007C3F"/>
	<stop  offset="2.500000e-07" style="stop-color:#007C3F"/>
	<stop  offset="0.4997" style="stop-color:#5AAD42"/>
	<stop  offset="0.7022" style="stop-color:#80C243"/>
	<stop  offset="0.9089" style="stop-color:#88C441"/>
	<stop  offset="1" style="stop-color:#8DC640"/>
</linearGradient>
<path style="fill:url(#SVGID_00000052064246513729845400000013271291045474287271_);" d="M10.3,13.6c-1.3,2.1-2,4.5-1.9,7
	c0.1,3,1.2,5.8,2.8,8.3c6.7,10.9,12.9,9.8,16.3,18.3c2.7,6.7-3.9,12.3-13.1,4.4C3.9,42.6,1,24.2,8.1,13.9c-5,5.8-8,13.3-8,21.5
	c0,5.6,1.4,11.1,4.2,16c2.2,3.9,5,7.3,8.8,9.7c4,2.6,8.8,4.4,13.6,4.8c2.4,0.2,4.8,0.1,7.2-0.4c3.8-0.9,7.3-2.9,10.1-5.5
	c8.4-7.8,3.6-19.8-3.5-26.6C33.4,26.7,28.8,21.5,30,15.7c1.3-6.5,8.8-10.4,16.9-8.8c2.2,0.4,4.2,1.3,5.9,2.3C47.3,5,40.4,2.5,33,2.5
	C24.3,2.5,14.9,5.8,10.3,13.6"/>
<linearGradient id="SVGID_00000072280376690165937350000000824866576665927835_" gradientUnits="userSpaceOnUse" x1="35.9" y1="40.45" x2="65.8" y2="40.45">
	<stop  offset="0" style="stop-color:#007C3F"/>
	<stop  offset="2.500000e-07" style="stop-color:#007C3F"/>
	<stop  offset="0.4997" style="stop-color:#5AAD42"/>
	<stop  offset="0.7022" style="stop-color:#80C243"/>
	<stop  offset="0.9089" style="stop-color:#88C441"/>
	<stop  offset="1" style="stop-color:#8DC640"/>
</linearGradient>
<path style="fill:url(#SVGID_00000072280376690165937350000000824866576665927835_);" d="M56.8,12.8c2,2.6,2.9,5.6,2.3,8.7
	c-0.7,3.7-3.5,6.9-7.4,8.1c-3,0.9-5,0.5-3.2,3.6c1.6,2.7,3.1,4.1,4.1,6.6c2.5,6.2,1.8,14.2-2.8,20.1c-0.1,0.1-0.1,0.2-0.2,0.2l0,0
	c0,0.1-0.1,0.1-0.1,0.2c-0.9,1.1-1.9,2.2-3.6,3.4c-0.1,0.1-0.2,0.2-0.3,0.2c-0.1,0.1-0.2,0.2-0.4,0.2c-1.1,0.7-2.2,1.3-3.5,1.9
	c-1.6,0.7-3.5,1.4-5.8,2.1c16.8-1.5,29.9-15.6,29.9-32.7C65.8,26.7,62.4,18.7,56.8,12.8L56.8,12.8z"/>
<g>
	<path class="st7" d="M77.7,79.4c-1.5,0-2.6-0.4-3.5-1.4l0.7-0.7c0.9,0.9,1.7,1.1,2.8,1.1c1.5,0,2.5-0.7,2.5-1.9
		c0-0.6-0.2-1-0.5-1.3s-0.6-0.4-1.4-0.5l-1.2-0.2c-0.8-0.1-1.4-0.4-1.9-0.8c-0.5-0.5-0.8-1.1-0.8-2c0-1.8,1.3-2.9,3.3-2.9
		c1.3,0,2.2,0.4,3.1,1.1l-0.7,0.7c-0.6-0.6-1.3-0.9-2.4-0.9c-1.4,0-2.2,0.8-2.2,1.9c0,0.5,0.1,0.9,0.5,1.2c0.3,0.3,0.8,0.5,1.4,0.5
		l1.2,0.2c1,0.1,1.4,0.3,1.9,0.7c0.6,0.5,0.9,1.2,0.9,2C81.3,78.3,79.9,79.4,77.7,79.4z"/>
	<path class="st7" d="M91.2,79.3V68.9h6.5v1h-5.3v3.7H97v1h-4.6v3.8h5.3v1L91.2,79.3L91.2,79.3z"/>
	<path class="st7" d="M110.8,79.4c-1.1,0-2-0.4-2.6-1c-1-1-1-1.9-1-4.3s0.1-3.3,1-4.3c0.6-0.6,1.5-1,2.6-1c1.9,0,3.2,1.2,3.6,3.1
		h-1.1c-0.3-1.3-1.2-2.1-2.5-2.1c-0.7,0-1.3,0.2-1.8,0.7c-0.7,0.7-0.7,1.4-0.7,3.6s0.1,2.9,0.7,3.6c0.5,0.5,1.1,0.7,1.8,0.7
		c1.3,0,2.2-0.8,2.5-2.1h1.1C114.1,78.3,112.7,79.4,110.8,79.4z"/>
	<path class="st7" d="M127.2,69.9v9.4h-1.1v-9.4h-3v-1h7.1v1H127.2z"/>
	<path class="st7" d="M145.3,78.4c-0.6,0.6-1.5,1-2.6,1s-2-0.4-2.6-1c-1-1-1-1.9-1-4.3s0.1-3.3,1-4.3c0.6-0.6,1.5-1,2.6-1
		s1.9,0.4,2.6,1c1,1,1.1,1.9,1.1,4.3C146.3,76.5,146.3,77.4,145.3,78.4z M144.5,70.6c-0.5-0.5-1.1-0.7-1.8-0.7s-1.3,0.2-1.8,0.7
		c-0.7,0.7-0.7,1.4-0.7,3.6s0.1,2.9,0.7,3.6c0.5,0.5,1.1,0.7,1.8,0.7s1.3-0.2,1.8-0.7c0.7-0.7,0.7-1.4,0.7-3.6
		S145.2,71.3,144.5,70.6z"/>
	<path class="st7" d="M162.5,79.3l-2.4-4.6h-2.5v4.6h-1.1V68.9h4c1.8,0,3.1,1.1,3.1,2.9c0,1.5-0.9,2.5-2.3,2.8l2.5,4.7H162.5z
		 M160.4,69.9h-2.8v3.8h2.8c1.2,0,2.1-0.6,2.1-1.9C162.5,70.6,161.6,69.9,160.4,69.9z"/>
	<path class="st7" d="M187.1,79.4c-1.6,0-3-0.9-3.1-2.7h1.1c0.1,1.3,1,1.8,2,1.8c1.1,0,2-0.7,2-2s-0.6-2-2-2h-0.2v-0.9h0.2
		c1.3,0,1.9-0.7,1.9-1.9c0-1.2-0.8-1.9-1.8-1.9c-1.1,0-1.8,0.7-1.9,1.7h-1.1c0.1-1.7,1.3-2.7,2.9-2.7c1.7,0,2.9,1.1,2.9,2.8
		c0,1.1-0.5,1.9-1.4,2.3c1.1,0.4,1.6,1.2,1.6,2.5C190.2,78.4,188.8,79.4,187.1,79.4z"/>
	<path class="st7" d="M201.9,79.3h-1.1l3.6-9.5h-3.6v1.6h-1v-2.6h5.8v0.9L201.9,79.3z"/>
</g>
<g>
	<path class="st7" d="M221.7,78.3c-0.7,0.8-1.6,1.1-2.7,1.1h-3.6V68.9h3.6c1.2,0,2,0.3,2.7,1.1c0.9,1,0.9,2.5,0.9,4.1
		C222.7,75.7,222.7,77.3,221.7,78.3z M220.9,70.7c-0.5-0.6-1.3-0.8-2-0.8h-2.3v8.4h2.3c0.8,0,1.5-0.2,2-0.8c0.7-0.7,0.7-2,0.7-3.4
		C221.5,72.7,221.5,71.4,220.9,70.7z"/>
</g>
<g>
	<path class="st7" d="M227.4,81.5v-3.4h1.3v2.2L227.4,81.5z"/>
	<path class="st7" d="M256.3,78.2c-0.7,0.8-1.7,1.2-2.8,1.2s-2-0.4-2.6-1c-1-1-1-1.9-1-4.3s0.1-3.3,1-4.3c0.6-0.6,1.5-1,2.6-1
		c2,0,3.3,1.3,3.6,3.1H256c-0.3-1.3-1.2-2.1-2.5-2.1c-0.7,0-1.3,0.2-1.8,0.7c-0.7,0.7-0.7,1.4-0.7,3.6s0.1,2.9,0.7,3.6
		c0.5,0.5,1.1,0.7,1.8,0.7c0.8,0,1.5-0.3,2-0.9c0.4-0.5,0.6-1.1,0.6-1.9v-0.8h-2.6v-0.9h3.7v1.7C257.2,76.8,257,77.5,256.3,78.2z"/>
	<path class="st7" d="M270.8,79.4c-2.1,0-3.6-1.4-3.6-3.5v-7h1.1v6.9c0,1.6,1,2.6,2.5,2.6s2.5-1,2.5-2.6v-6.9h1.1v7
		C274.5,78,273,79.4,270.8,79.4z"/>
	<path class="st7" d="M290.9,79.3l-2.4-4.6H286v4.6h-1.1V68.9h4c1.8,0,3.1,1.1,3.1,2.9c0,1.5-0.9,2.5-2.3,2.8l2.5,4.7H290.9z
		 M288.8,69.9H286v3.8h2.8c1.2,0,2.1-0.6,2.1-1.9C290.9,70.6,290,69.9,288.8,69.9z"/>
	<path class="st7" d="M305.6,79.4c-2.1,0-3.6-1.4-3.6-3.5v-7h1.1v6.9c0,1.6,1,2.6,2.5,2.6s2.5-1,2.5-2.6v-6.9h1.1v7
		C309.2,78,307.7,79.4,305.6,79.4z"/>
	<path class="st7" d="M325.7,78.2c-0.7,0.8-1.7,1.2-2.8,1.2c-1.1,0-2-0.4-2.6-1c-1-1-1-1.9-1-4.3s0.1-3.3,1-4.3c0.6-0.6,1.5-1,2.6-1
		c2,0,3.3,1.3,3.6,3.1h-1.1c-0.3-1.3-1.2-2.1-2.5-2.1c-0.7,0-1.3,0.2-1.8,0.7c-0.7,0.7-0.7,1.4-0.7,3.6s0.1,2.9,0.7,3.6
		c0.5,0.5,1.1,0.7,1.8,0.7c0.8,0,1.5-0.3,2-0.9c0.4-0.5,0.6-1.1,0.6-1.9v-0.8h-2.6v-0.9h3.7v1.7C326.6,76.8,326.4,77.5,325.7,78.2z"
		/>
	<path class="st7" d="M342.8,79.3l-2.4-4.6h-2.5v4.6h-1.1V68.9h4c1.8,0,3.1,1.1,3.1,2.9c0,1.5-0.9,2.5-2.3,2.8l2.5,4.7H342.8z
		 M340.7,69.9h-2.8v3.8h2.8c1.2,0,2.1-0.6,2.1-1.9C342.7,70.6,341.9,69.9,340.7,69.9z"/>
	<path class="st7" d="M360,79.3l-0.8-2.4h-4.5l-0.8,2.4h-1.2l3.8-10.4h0.9l3.8,10.4H360z M356.9,70.5l-2,5.5h3.9L356.9,70.5z"/>
	<path class="st7" d="M378.3,79.3v-7.9l-2.8,6.3h-0.9l-2.9-6.3v7.9h-1.1V68.9h1.1l3.4,7.4l3.3-7.4h1.1v10.4H378.3z"/>
</g>
<g>
	<path class="st15" d="M364.3,60.2V34h5.1v26.2H364.3z"/>
	<path class="st15" d="M374.8,60.2V34h5.1v26.2H374.8z"/>
</g>
<g>
	<g>
		<defs>
			<path id="SVGID_00000051353016334246609360000008537321984589054088_" d="M11.5,61L11.5,61z"/>
		</defs>
		<clipPath id="SVGID_00000013905456897498631110000011653105887627079308_">
			<use xlink:href="#SVGID_00000051353016334246609360000008537321984589054088_"  style="overflow:visible;"/>
		</clipPath>
		
			<linearGradient id="SVGID_00000165206690953469160450000013961745395096226705_" gradientUnits="userSpaceOnUse" x1="11.5" y1="61" x2="11.5" y2="61" gradientTransform="matrix(2.000000e-04 0 0 2.000000e-04 4440.02 1298.1387)">
			<stop  offset="0" style="stop-color:#102012"/>
			<stop  offset="0.4508" style="stop-color:#405929"/>
			<stop  offset="0.7022" style="stop-color:#5D7A36"/>
			<stop  offset="0.9966" style="stop-color:#677E36"/>
			<stop  offset="1" style="stop-color:#677E36"/>
		</linearGradient>
		
			<path style="clip-path:url(#SVGID_00000013905456897498631110000011653105887627079308_);fill:url(#SVGID_00000165206690953469160450000013961745395096226705_);" d="
			M11.5,61L11.5,61z"/>
	</g>
</g>
<g>
	<g>
		<defs>
			<path id="SVGID_00000043419146672467407580000012711927319252279689_" d="M11.3,60.1L11.3,60.1z"/>
		</defs>
		<clipPath id="SVGID_00000160903967827814592730000017593275686583754939_">
			<use xlink:href="#SVGID_00000043419146672467407580000012711927319252279689_"  style="overflow:visible;"/>
		</clipPath>
		
			<linearGradient id="SVGID_00000170971277405388815920000012775292624372950934_" gradientUnits="userSpaceOnUse" x1="11.3" y1="60.1" x2="11.3" y2="60.1" gradientTransform="matrix(2.000000e-04 0 0 2.000000e-04 4439.8652 1297.3782)">
			<stop  offset="0" style="stop-color:#1B7D41"/>
			<stop  offset="0.2987" style="stop-color:#439841"/>
			<stop  offset="0.7022" style="stop-color:#7EC142"/>
			<stop  offset="0.8746" style="stop-color:#85C341"/>
			<stop  offset="1" style="stop-color:#8DC640"/>
		</linearGradient>
		
			<path style="clip-path:url(#SVGID_00000160903967827814592730000017593275686583754939_);fill:url(#SVGID_00000170971277405388815920000012775292624372950934_);" d="
			M11.3,60.1L11.3,60.1z"/>
	</g>
</g>
<rect x="-320.7" y="-242.7" class="st32" width="1237.9" height="889.2"/>
<rect x="-399.7" y="-191.8" class="st32" width="1237.9" height="889.2"/>
</svg>
