<?xml version="1.0" encoding="utf-8"?>
<!-- Generator: Adobe Illustrator 26.5.2, SVG Export Plug-In . SVG Version: 6.00 Build 0)  -->
<svg version="1.1" id="Layer_1" xmlns="http://www.w3.org/2000/svg" xmlns:xlink="http://www.w3.org/1999/xlink" x="0px" y="0px"
	 viewBox="0 0 300 150" style="enable-background:new 0 0 300 150;" xml:space="preserve">
<style type="text/css">
	.st0{fill:#8E8E8E;}
	.st1{fill:#00A859;}
</style>
<g>
	<rect x="64.1" y="29.3" class="st0" width="3.9" height="74.7"/>
	<rect x="71.1" y="20.8" class="st0" width="2.2" height="83.1"/>
	<polygon class="st0" points="83.1,103.9 76.4,103.9 76.4,31.1 83.1,40.5 	"/>
	<rect x="86.2" y="20.8" class="st0" width="2" height="83.1"/>
	<rect x="91.3" y="37.7" class="st0" width="3.9" height="66.2"/>
	<rect x="108.1" y="20.8" class="st0" width="2" height="83.1"/>
	<rect x="113.2" y="44.8" class="st0" width="2" height="59.2"/>
	<rect x="118.3" y="20.8" class="st0" width="3.5" height="83.1"/>
	<rect x="135.2" y="20.8" class="st0" width="1.8" height="83.1"/>
	<rect x="140" y="27.9" class="st0" width="3.7" height="76.1"/>
	<rect x="146.9" y="20.8" class="st0" width="3.7" height="83.1"/>
	<rect x="153.8" y="34.9" class="st0" width="2" height="69"/>
	<rect x="158.8" y="20.8" class="st0" width="4.1" height="83.1"/>
	<rect x="166" y="43.3" class="st0" width="6.9" height="60.6"/>
	<rect x="183.2" y="27.9" class="st0" width="4.1" height="76.1"/>
	<rect x="190.4" y="20.8" class="st0" width="2" height="94.8"/>
	<polygon class="st0" points="203.9,103.9 195.5,103.9 195.5,27 199.7,15.2 203.9,27 	"/>
	<rect x="207.1" y="34.9" class="st0" width="1.8" height="69"/>
	<rect x="212" y="20.8" class="st0" width="3.7" height="83.1"/>
	<polygon class="st0" points="224.9,103.9 218.2,103.9 218.2,26.4 221.5,26.4 222.6,26.4 224.9,26.4 	"/>
	<rect x="227.9" y="20.8" class="st0" width="2.2" height="83.1"/>
	<rect x="232.3" y="44.8" class="st0" width="3.7" height="59.2"/>
	<polygon class="st0" points="103.3,45.8 103.3,34.9 101.1,34.9 101.1,55.4 98.4,55.4 98.4,103.9 105,103.9 105,45.8 	"/>
	<polygon class="st0" points="177.3,21.8 177.3,104 180.1,104 180.1,8.1 	"/>
	<polygon class="st0" points="125.7,30 128,24.1 128.5,1.1 128.9,24.1 131.3,30 131.3,103.9 125.7,103.9 	"/>
	<polygon class="st0" points="67.8,141.1 67.8,148.9 66.4,148.9 66.4,141.1 63.9,141.1 63.9,139.9 70.3,139.9 70.3,141.1 	"/>
	<polygon class="st0" points="82.8,148.9 82.8,144.9 79.2,144.9 79.2,148.9 77.8,148.9 77.8,139.9 79.2,139.9 79.2,143.7 
		82.8,143.7 82.8,139.9 84.2,139.9 84.2,148.9 	"/>
	<polygon class="st0" points="92.5,148.9 92.5,139.9 98.2,139.9 98.2,141.1 93.8,141.1 93.8,143.7 97.6,143.7 97.6,144.9 
		93.8,144.9 93.8,147.6 98.2,147.6 98.2,148.9 	"/>
	<path class="st0" d="M120,148.9l-1.9-3.7h-1.7v3.8h-1.3v-9h3.5c0.7,0,1.5,0.2,2,0.7c0.5,0.5,0.8,1.2,0.8,1.9
		c0.1,1.1-0.7,2.1-1.8,2.4l2.1,4L120,148.9z M119.5,141.5c-0.3-0.3-0.7-0.4-1.1-0.4h-2v2.8h2c0.4,0,0.8-0.1,1.1-0.4
		C120.1,143,120.1,142.1,119.5,141.5L119.5,141.5z"/>
	<polygon class="st0" points="129.3,148.9 129.3,139.9 135,139.9 135,141.1 130.7,141.1 130.7,143.7 134.4,143.7 134.4,144.9 
		130.7,144.9 130.7,147.6 135,147.6 135,148.9 	"/>
	<polygon class="st0" points="145.9,141.1 145.9,148.9 144.6,148.9 144.6,141.1 142.1,141.1 142.1,139.9 148.4,139.9 148.4,141.1 	
		"/>
	<path class="st0" d="M160.3,148.9l-0.6-1.8h-3.5l-0.6,1.8h-1.4l3.3-9h1.1l3.3,9H160.3z M158,141.9l-1.4,4h2.8L158,141.9z"/>
	<rect x="169" y="139.9" class="st0" width="1.4" height="9"/>
	<polygon class="st0" points="178.7,148.9 178.7,139.9 180.1,139.9 180.1,147.6 184.4,147.6 184.4,148.9 	"/>
	<polygon class="st0" points="205.5,148.9 205.5,144.9 201.9,144.9 201.9,148.9 200.5,148.9 200.5,139.9 201.9,139.9 201.9,143.7 
		205.5,143.7 205.5,139.9 206.9,139.9 206.9,148.9 	"/>
	<path class="st0" d="M221.3,147.1c-0.2,0.4-0.4,0.7-0.7,1c-0.3,0.3-0.6,0.5-1,0.6c-0.4,0.1-0.8,0.2-1.3,0.2c-0.4,0-0.9-0.1-1.3-0.2
		c-0.4-0.1-0.7-0.4-1-0.6c-0.3-0.3-0.5-0.6-0.7-1c-0.2-0.4-0.2-0.8-0.2-1.3v-5.9h1.4v5.9c0,0.5,0.2,1,0.5,1.4
		c0.4,0.4,0.8,0.5,1.4,0.5c0.5,0,1-0.2,1.4-0.5c0.4-0.4,0.5-0.9,0.5-1.4v-5.9h1.4v6C221.5,146.3,221.5,146.7,221.3,147.1"/>
	<path class="st0" d="M235.3,148.2c-0.6,0.5-1.3,0.7-2,0.7h-3.6v-8.9h3.5c0.7,0,1.4,0.2,2,0.7c0.5,0.5,0.8,1.1,0.7,1.8
		c0,0.4-0.1,0.8-0.4,1.2c-0.2,0.3-0.5,0.6-0.9,0.7c0.4,0.2,0.7,0.4,1,0.8c0.3,0.4,0.4,0.9,0.4,1.3
		C236.1,147.1,235.8,147.8,235.3,148.2 M234.1,141.5c-0.3-0.2-0.7-0.4-1.1-0.3h-2v2.6h2.1c0.4,0,0.8-0.1,1.1-0.3
		C234.7,142.9,234.7,142,234.1,141.5C234.2,141.5,234.2,141.5,234.1,141.5L234.1,141.5z M234.3,145.3c-0.3-0.3-0.7-0.4-1.1-0.4H231
		v2.7h2.1c0.4,0,0.8-0.1,1.1-0.4c0.3-0.3,0.4-0.6,0.4-1C234.7,145.9,234.6,145.6,234.3,145.3L234.3,145.3z"/>
	<path class="st1" d="M70.7,107.2c4.3,0,6.6,2.6,6.6,7.2v0.9h-4.2v-1.2c0-2-0.8-2.8-2.3-2.8c-1.4,0-2.3,0.8-2.3,2.8
		c0,5.9,8.8,7,8.8,15.2c0,4.6-2.3,7.2-6.7,7.2s-6.7-2.6-6.7-7.2v-1.7h4.2v2c0,2,0.9,2.8,2.3,2.8s2.3-0.7,2.3-2.8
		c0-5.9-8.8-7-8.8-15.2C64.1,109.8,66.3,107.2,70.7,107.2"/>
	<rect x="85.1" y="107.6" class="st1" width="4.5" height="28.6"/>
	<path class="st1" d="M104.9,120.2h6.3v9.1c0,4.6-2.3,7.2-6.7,7.2s-6.7-2.6-6.7-7.2v-14.9c0-4.6,2.3-7.2,6.7-7.2s6.7,2.6,6.7,7.2
		v2.8h-4.2v-3.1c0-2-0.9-2.8-2.3-2.8s-2.3,0.8-2.3,2.8v15.4c0,2,0.9,2.8,2.3,2.8s2.3-0.7,2.3-2.8v-5.2h-2V120.2z"/>
	<polygon class="st1" points="123.3,115.4 123.3,136.2 119.2,136.2 119.2,107.6 124.9,107.6 129.5,124.7 129.5,107.6 133.5,107.6 
		133.5,136.2 128.9,136.2 	"/>
	<path class="st1" d="M146.2,107.6v22c0,2,0.9,2.8,2.3,2.8c1.5,0,2.3-0.7,2.3-2.8v-22h4.3v21.8c0,4.6-2.3,7.2-6.7,7.2
		c-4.4,0-6.7-2.6-6.7-7.2v-21.8H146.2z"/>
	<polygon class="st1" points="172.9,127.9 176,107.6 182.2,107.6 182.2,136.2 178,136.2 178,115.7 174.9,136.2 170.6,136.2 
		167.3,115.9 167.3,136.2 163.4,136.2 163.4,107.6 169.6,107.6 	"/>
	<path class="st0" d="M218.2,128.8c0,4.8-2.2,7.3-6.8,7.3c-4.3,0-6.6-2.6-6.6-7.1v-0.7h4.2v1c0,2,0.9,2.8,2.3,2.8
		c1.6,0,2.5-0.8,2.5-3.5v-5.2c-0.7,1.6-2.4,2.6-4.1,2.5c-3.3,0-4.9-2.3-4.9-6.5v-5.2c0-4.5,2.4-7.1,6.7-7.1c4.4,0,6.7,2.6,6.7,7.1
		L218.2,128.8z M213.7,119.2v-5.1c0-2-0.9-2.7-2.3-2.7c-1.4,0-2.3,0.7-2.3,2.7v5.1c0,2,0.9,2.8,2.3,2.8
		C212.9,121.9,213.7,121.2,213.7,119.2z"/>
	<path class="st0" d="M222.7,126.7L222.7,126.7v2.4c0,4.6,2.3,7.2,6.7,7.2c4.4,0,6.7-2.6,6.7-7.2v-6.4c0-4.2-1.7-6.5-5-6.5
		c-1.6-0.1-3.1,0.7-4,2.1l0.4-6.8h7.8v-4.1h-11.8l-0.8,16.7h4.2V123c0-2.1,0.9-2.8,2.3-2.8c1.4,0,2.3,0.7,2.3,2.8v6.3
		c0,2-0.9,2.7-2.3,2.7c-1.4,0-2.3-0.7-2.3-2.7v-2.7L222.7,126.7z"/>
</g>
</svg>
