<?xml version="1.0" encoding="UTF-8"?><svg id="Layer_1" xmlns="http://www.w3.org/2000/svg" viewBox="0 0 300 150"><defs><style>.cls-1{fill:#58585a;}.cls-2{fill:#00a34e;}</style></defs><rect class="cls-1" x="62.72" y="28.63" width="3.98" height="75.72"/><rect class="cls-1" x="69.87" y="20.06" width="2.19" height="84.3"/><polygon class="cls-1" points="81.98 104.36 75.23 104.36 75.23 30.46 81.98 39.99 81.98 104.36"/><rect class="cls-1" x="85.15" y="20.06" width="1.99" height="84.3"/><rect class="cls-1" x="90.31" y="37.2" width="3.98" height="67.15"/><rect class="cls-1" x="107.39" y="20.06" width="1.99" height="84.3"/><rect class="cls-1" x="112.55" y="44.34" width="1.99" height="60.01"/><rect class="cls-1" x="117.7" y="20.06" width="3.58" height="84.3"/><rect class="cls-1" x="134.78" y="20.06" width="1.79" height="84.3"/><rect class="cls-1" x="139.74" y="27.2" width="3.78" height="77.15"/><rect class="cls-1" x="146.69" y="20.06" width="3.78" height="84.3"/><rect class="cls-1" x="153.63" y="34.34" width="1.99" height="70.01"/><rect class="cls-1" x="158.79" y="20.06" width="4.14" height="84.3"/><rect class="cls-1" x="166.1" y="42.92" width="6.97" height="61.44"/><rect class="cls-1" x="183.48" y="27.2" width="4.18" height="77.15"/><rect class="cls-1" x="190.83" y="20.06" width="1.99" height="84.29"/><polygon class="cls-1" points="204.54 104.36 195.99 104.36 195.99 26.33 200.26 14.35 204.54 26.33 204.54 104.36"/><rect class="cls-1" x="207.71" y="34.34" width="1.79" height="70.01"/><rect class="cls-1" x="212.66" y="20.06" width="3.78" height="84.3"/><polygon class="cls-1" points="225.78 104.36 219.02 104.36 219.02 25.69 222.29 25.69 223.48 25.69 225.78 25.69 225.78 104.36"/><rect class="cls-1" x="228.87" y="20.06" width="2.18" height="84.3"/><rect class="cls-1" x="233.31" y="44.34" width="3.78" height="60.01"/><polygon class="cls-1" points="102.43 45.35 102.43 34.34 100.27 34.34 100.27 55.09 97.46 55.09 97.46 104.36 104.22 104.36 104.22 45.35 102.43 45.35"/><polygon class="cls-1" points="177.53 21.06 177.53 116.56 180.32 116.56 180.32 7.2 177.53 21.06"/><polygon class="cls-1" points="125.16 29.41 127.56 23.4 128.01 .02 128.48 23.44 130.9 29.41 130.9 104.36 125.16 104.36 125.16 29.41"/><path class="cls-1" d="M190.86,125.72c0-1.8,.13-3.06,.39-3.77,.26-.71,.91-1.08,1.95-1.1,.54,0,.98,.11,1.3,.34,.33,.23,.56,.54,.71,.95,.15,.41,.24,.85,.29,1.34,.04,.48,.07,1.1,.07,1.84,0,.7-.02,1.26-.05,1.69-.03,.43-.12,.83-.25,1.2-.14,.37-.37,.68-.69,.91-.33,.24-.76,.38-1.3,.42-1.06-.02-1.73-.34-2-.95-.27-.61-.41-1.57-.41-2.88m2.37-8.26c-.45,0-.82-.1-1.12-.29-.29-.19-.51-.45-.66-.76-.15-.32-.24-.65-.29-1.02-.05-.36-.07-.77-.07-1.22,0-.99,.16-1.77,.47-2.33,.32-.56,.89-.85,1.73-.85,.63,0,1.13,.24,1.49,.71,.36,.47,.54,1.18,.54,2.13,0,.5-.02,.94-.05,1.32-.03,.38-.12,.76-.25,1.12-.14,.36-.35,.65-.64,.86-.29,.21-.68,.32-1.15,.32m-3.55,1.56c-1.31,.59-2.23,1.36-2.76,2.32-.53,.96-.8,2.37-.8,4.25,0,2.64,.55,4.58,1.66,5.82,1.11,1.24,2.97,1.86,5.58,1.86,2.23,0,3.95-.61,5.14-1.83,1.2-1.22,1.79-3.18,1.79-5.89,0-1.92-.28-3.39-.85-4.42-.56-1.03-1.55-1.69-2.94-1.98v-.07c1.24-.5,2.09-1.15,2.54-1.95,.45-.8,.68-1.91,.68-3.33,0-2.21-.5-3.85-1.51-4.92-1-1.07-2.66-1.61-4.96-1.61-1.15,0-2.15,.17-3,.51-.85,.34-1.53,.79-2.05,1.35-.52,.56-.9,1.19-1.15,1.88s-.37,1.39-.37,2.12c0,1.71,.23,2.98,.68,3.79,.45,.81,1.22,1.51,2.3,2.1m18.11,6.7c0-1.8,.13-3.06,.39-3.77,.26-.71,.91-1.08,1.95-1.1,.54,0,.98,.11,1.3,.34,.33,.23,.56,.54,.71,.95,.15,.41,.24,.85,.29,1.34,.04,.48,.07,1.1,.07,1.84,0,.7-.02,1.26-.05,1.69-.03,.43-.12,.83-.25,1.2-.14,.37-.37,.68-.69,.91-.33,.24-.76,.38-1.3,.42-1.06-.02-1.73-.34-2-.95-.27-.61-.41-1.57-.41-2.88m2.37-8.26c-.45,0-.82-.1-1.12-.29-.29-.19-.51-.45-.66-.76-.15-.32-.24-.65-.29-1.02-.04-.36-.07-.77-.07-1.22,0-.99,.16-1.77,.47-2.33,.32-.56,.89-.85,1.73-.85,.63,0,1.13,.24,1.49,.71,.36,.47,.54,1.18,.54,2.13,0,.5-.02,.94-.05,1.32-.03,.38-.12,.76-.25,1.12-.14,.36-.35,.65-.64,.86-.29,.21-.68,.32-1.15,.32m-3.55,1.56c-1.31,.59-2.23,1.36-2.76,2.32-.53,.96-.8,2.37-.8,4.25,0,2.64,.55,4.58,1.66,5.82,1.11,1.24,2.97,1.86,5.58,1.86,2.23,0,3.95-.61,5.14-1.83,1.2-1.22,1.79-3.18,1.79-5.89,0-1.92-.28-3.39-.85-4.42s-1.55-1.69-2.94-1.98v-.07c1.24-.5,2.09-1.15,2.54-1.95,.45-.8,.68-1.91,.68-3.33,0-2.21-.5-3.85-1.51-4.92-1-1.07-2.66-1.61-4.96-1.61-1.15,0-2.15,.17-3,.51-.85,.34-1.53,.79-2.05,1.35-.52,.56-.9,1.19-1.15,1.88s-.37,1.39-.37,2.12c0,1.71,.23,2.98,.68,3.79,.45,.81,1.22,1.51,2.3,2.1m17.36,13.74l1.25-6.43h5.55l1.25,6.43h5.08l-5.75-25.38h-6.4l-6.06,25.38h5.08Zm3.42-17.36c.13-.63,.27-1.59,.41-2.88l.07-.64c.02-.43,.08-.99,.17-1.69h.07c.09,.7,.15,1.26,.17,1.69l.07,.64c.14,1.29,.27,2.24,.41,2.88l1.29,7.21h-4.06l1.42-7.21Z"/><path class="cls-2" d="M68.7,107.68c3.88,0,5.87,2.32,5.87,6.37v.8h-3.77v-1.05c0-1.81-.73-2.5-1.99-2.5s-1.99,.69-1.99,2.5c0,5.21,7.79,6.19,7.79,13.44,0,4.06-2.03,6.37-5.94,6.37s-5.94-2.32-5.94-6.37v-1.56h3.77v1.81c0,1.81,.8,2.47,2.07,2.47s2.06-.65,2.06-2.47c0-5.22-7.79-6.19-7.79-13.44,0-4.06,1.99-6.37,5.87-6.37"/><rect class="cls-2" x="82.59" y="107.68" width="3.98" height="25.89"/><path class="cls-2" d="M100.87,119.2h5.58v8.04c0,4.06-2.02,6.37-5.94,6.37s-5.94-2.31-5.94-6.37v-13.19c0-4.06,2.03-6.38,5.94-6.38s5.94,2.32,5.94,6.38v2.46h-3.77v-2.72c0-1.81-.8-2.5-2.06-2.5s-2.06,.69-2.06,2.5v13.69c0,1.81,.8,2.46,2.06,2.46s2.06-.65,2.06-2.46v-4.68h-1.81v-3.62Z"/><polygon class="cls-2" points="118.09 114.82 118.09 133.55 114.43 133.55 114.43 107.68 119.53 107.68 123.71 123.17 123.71 107.68 127.33 107.68 127.33 133.55 123.16 133.55 118.09 114.82"/><path class="cls-2" d="M139.35,107.68v19.77c0,1.83,.8,2.49,2.08,2.49s2.09-.66,2.09-2.49v-19.77h3.81v19.51c0,4.09-2.05,6.44-6,6.44s-6-2.35-6-6.44v-19.51h4.03Z"/><polygon class="cls-2" points="163.98 126.08 166.76 107.68 172.42 107.68 172.42 133.6 168.57 133.6 168.57 115.01 165.76 133.6 161.91 133.6 158.87 115.27 158.87 133.6 155.32 133.6 155.32 107.68 160.98 107.68 163.98 126.08"/><polygon class="cls-1" points="66.6 142.04 66.6 149.9 65.22 149.9 65.22 142.04 62.72 142.04 62.72 140.8 69.11 140.8 69.11 142.04 66.6 142.04"/><polygon class="cls-1" points="81.79 149.9 81.79 145.93 78.1 145.93 78.1 149.9 76.72 149.9 76.72 140.8 78.1 140.8 78.1 144.69 81.79 144.69 81.79 140.8 83.17 140.8 83.17 149.9 81.79 149.9"/><polygon class="cls-1" points="91.59 149.9 91.59 140.8 97.4 140.8 97.4 142.04 92.97 142.04 92.97 144.7 96.75 144.7 96.75 145.93 92.97 145.93 92.97 148.66 97.4 148.66 97.4 149.9 91.59 149.9"/><path class="cls-1" d="M118.98,142.43c-.29-.25-.66-.38-1.12-.38h-2.04v2.85h2.04c.47,0,.85-.13,1.12-.37,.28-.25,.42-.6,.42-1.04s-.14-.79-.43-1.05m.48,7.47l-1.92-3.83h-1.72v3.83h-1.38v-9.09h3.53c.85,0,1.53,.25,2.05,.74,.52,.49,.77,1.13,.77,1.91,0,.62-.17,1.14-.5,1.57-.34,.42-.78,.7-1.31,.85l2.1,4.02h-1.61Z"/><polygon class="cls-1" points="128.85 149.9 128.85 140.8 134.66 140.8 134.66 142.04 130.23 142.04 130.23 144.7 134.01 144.7 134.01 145.93 130.23 145.93 130.23 148.66 134.66 148.66 134.66 149.9 128.85 149.9"/><polygon class="cls-1" points="145.67 142.04 145.67 149.9 144.29 149.9 144.29 142.04 141.79 142.04 141.79 140.8 148.17 140.8 148.17 142.04 145.67 142.04"/><path class="cls-1" d="M157.86,142.86l-1.42,4.04h2.8l-1.38-4.04Zm2.39,7.04l-.63-1.83h-3.59l-.63,1.83h-1.47l3.33-9.09h1.11l3.33,9.09h-1.47Z"/><rect class="cls-1" x="169.05" y="140.81" width="1.38" height="9.09"/><polygon class="cls-1" points="178.84 149.9 178.84 140.8 180.22 140.8 180.22 148.66 184.6 148.66 184.6 149.9 178.84 149.9"/><polygon class="cls-1" points="206.39 149.9 206.39 145.93 202.7 145.93 202.7 149.9 201.32 149.9 201.32 140.8 202.7 140.8 202.7 144.69 206.39 144.69 206.39 140.8 207.77 140.8 207.77 149.9 206.39 149.9"/><path class="cls-1" d="M222.33,148.1c-.17,.39-.4,.72-.69,1-.29,.28-.64,.5-1.04,.64-.4,.15-.83,.23-1.29,.23s-.89-.08-1.28-.23c-.4-.15-.75-.36-1.04-.64-.29-.28-.52-.62-.69-1-.16-.39-.24-.81-.24-1.27v-6.03h1.38v5.96c0,.61,.17,1.08,.51,1.44,.34,.35,.8,.53,1.36,.53s1.03-.18,1.38-.53c.34-.35,.52-.83,.52-1.44v-5.96h1.38v6.03c0,.46-.08,.88-.25,1.27"/><path class="cls-1" d="M235.5,146.27c-.26-.26-.63-.38-1.1-.38h-2.17v2.77h2.17c.47,0,.84-.13,1.1-.39,.26-.26,.4-.59,.4-1.01s-.13-.74-.4-.99m-.14-3.89c-.27-.23-.63-.34-1.08-.34h-2.04v2.6h2.04c.45,0,.81-.11,1.08-.34,.27-.23,.4-.55,.4-.96s-.14-.74-.4-.96m1.17,6.84c-.5,.45-1.17,.67-2,.67h-3.68v-9.09h3.54c.84,0,1.51,.22,2,.67,.49,.45,.74,1.05,.74,1.82,0,.46-.12,.86-.36,1.21-.24,.34-.53,.58-.86,.72,.39,.15,.71,.41,.97,.77,.26,.36,.39,.81,.39,1.34,0,.82-.25,1.45-.75,1.89"/></svg>