<?xml version="1.0" encoding="utf-8"?>
<!-- Generator: Adobe Illustrator 26.5.0, SVG Export Plug-In . SVG Version: 6.00 Build 0)  -->
<svg version="1.1" id="Layer_1" xmlns="http://www.w3.org/2000/svg" xmlns:xlink="http://www.w3.org/1999/xlink" x="0px" y="0px"
	 viewBox="0 0 300 150" style="enable-background:new 0 0 300 150;" xml:space="preserve">
<style type="text/css">
	.st0{fill:#00A651;}
	.st1{fill:#5F6161;}
</style>
<g>
	<path class="st0" d="M69.8,107.5c4.4,0,6.7,2.6,6.7,7.2v0.9h-4.3v-1.2c0-2.1-0.8-2.8-2.3-2.8c-1.4,0-2.3,0.8-2.3,2.8
		c0,5.9,8.9,7,8.9,15.3c0,4.6-2.3,7.2-6.8,7.2c-4.5,0-6.8-2.6-6.8-7.2v-1.8h4.3v2.1c0,2.1,0.9,2.8,2.3,2.8c1.5,0,2.4-0.7,2.4-2.8
		c0-5.9-8.9-7-8.9-15.3C63.2,110.1,65.4,107.5,69.8,107.5"/>
	<rect x="84.5" y="107.8" class="st0" width="4.5" height="28.8"/>
	<path class="st0" d="M104.4,120.5h6.4v9.1c0,4.6-2.3,7.2-6.8,7.2c-4.5,0-6.8-2.6-6.8-7.2v-15c0-4.6,2.3-7.2,6.8-7.2
		c4.5,0,6.8,2.6,6.8,7.2v2.8h-4.3v-3.1c0-2.1-0.9-2.8-2.4-2.8c-1.4,0-2.3,0.8-2.3,2.8v15.5c0,2.1,0.9,2.8,2.3,2.8
		c1.4,0,2.4-0.7,2.4-2.8v-5.3h-2.1V120.5z"/>
	<polygon class="st0" points="123,115.7 123,136.6 118.9,136.6 118.9,107.8 124.6,107.8 129.3,125 129.3,107.8 133.3,107.8 
		133.3,136.6 128.6,136.6 	"/>
	<path class="st0" d="M146.2,107.8V130c0,2.1,0.9,2.8,2.4,2.8c1.4,0,2.4-0.7,2.4-2.8v-22.2h4.3v21.9c0,4.6-2.3,7.2-6.8,7.2
		s-6.8-2.6-6.8-7.2v-21.9L146.2,107.8L146.2,107.8z"/>
	<polygon class="st0" points="173.2,128.2 176.3,107.8 182.6,107.8 182.6,136.6 178.3,136.6 178.3,115.9 175.1,136.6 170.9,136.6 
		167.5,116.2 167.5,136.6 163.5,136.6 163.5,107.8 169.8,107.8 	"/>
	<rect x="63.2" y="29" class="st1" width="4" height="75.2"/>
	<rect x="70.3" y="20.5" class="st1" width="2.2" height="83.7"/>
	<polygon class="st1" points="82.4,104.1 75.7,104.1 75.7,30.8 82.4,40.2 	"/>
	<rect x="85.6" y="20.5" class="st1" width="2" height="83.7"/>
	<rect x="90.7" y="37.5" class="st1" width="4" height="66.7"/>
	<rect x="107.7" y="20.5" class="st1" width="2" height="83.7"/>
	<rect x="112.9" y="44.6" class="st1" width="2" height="59.6"/>
	<rect x="118" y="20.5" class="st1" width="3.6" height="83.7"/>
	<rect x="135" y="20.5" class="st1" width="1.8" height="83.7"/>
	<rect x="140" y="27.5" class="st1" width="3.8" height="76.6"/>
	<rect x="146.9" y="20.5" class="st1" width="3.8" height="83.7"/>
	<rect x="153.8" y="34.6" class="st1" width="2" height="69.5"/>
	<rect x="158.9" y="20.5" class="st1" width="4.1" height="83.7"/>
	<rect x="166.2" y="43.1" class="st1" width="6.9" height="61"/>
	<rect x="183.5" y="27.5" class="st1" width="4.2" height="76.6"/>
	<rect x="190.9" y="20.5" class="st1" width="2" height="95.4"/>
	<polygon class="st1" points="204.5,104.1 196,104.1 196,26.7 200.3,14.8 204.5,26.7 	"/>
	<rect x="207.7" y="34.6" class="st1" width="1.8" height="69.5"/>
	<rect x="212.6" y="20.5" class="st1" width="3.8" height="83.7"/>
	<polygon class="st1" points="225.7,104.1 219,104.1 219,26 222.2,26 223.4,26 225.7,26 	"/>
	<rect x="228.8" y="20.5" class="st1" width="2.2" height="83.7"/>
	<rect x="233.2" y="44.6" class="st1" width="3.8" height="59.6"/>
	<polygon class="st1" points="102.8,45.6 102.8,34.6 100.6,34.6 100.6,55.2 97.8,55.2 97.8,104.1 104.5,104.1 104.5,45.6 	"/>
	<polygon class="st1" points="177.6,21.5 177.6,104.2 180.4,104.2 180.4,7.7 	"/>
	<polygon class="st1" points="125.4,29.7 127.8,23.8 128.3,0.6 128.7,23.8 131.1,29.7 131.1,104.1 125.4,104.1 	"/>
	<polygon class="st1" points="67.3,141.6 67.3,149.3 65.9,149.3 65.9,141.6 63.4,141.6 63.4,140.3 69.8,140.3 69.8,141.6 	"/>
	<polygon class="st1" points="82.4,149.4 82.4,145.4 78.7,145.4 78.7,149.4 77.3,149.4 77.3,140.3 78.7,140.3 78.7,144.2 
		82.4,144.2 82.4,140.3 83.7,140.3 83.7,149.4 	"/>
	<polygon class="st1" points="92.1,149.4 92.1,140.3 97.9,140.3 97.9,141.6 93.5,141.6 93.5,144.2 97.2,144.2 97.2,145.4 
		93.5,145.4 93.5,148.1 97.9,148.1 97.9,149.4 	"/>
	<path class="st1" d="M119.8,149.4l-1.9-3.8h-1.7v3.8h-1.4v-9h3.5c0.8,0,1.5,0.2,2,0.7c0.5,0.5,0.8,1.1,0.8,1.9
		c0,0.6-0.2,1.1-0.5,1.5c-0.3,0.4-0.8,0.7-1.3,0.8l2.1,4L119.8,149.4L119.8,149.4z M119.3,142c-0.3-0.3-0.6-0.4-1.1-0.4h-2v2.8h2
		c0.5,0,0.8-0.1,1.1-0.4c0.3-0.2,0.4-0.6,0.4-1C119.7,142.6,119.6,142.2,119.3,142"/>
	<polygon class="st1" points="129.1,149.4 129.1,140.3 134.9,140.3 134.9,141.6 130.5,141.6 130.5,144.2 134.3,144.2 134.3,145.4 
		130.5,145.4 130.5,148.1 134.9,148.1 134.9,149.4 	"/>
	<polygon class="st1" points="145.8,141.6 145.8,149.3 144.5,149.3 144.5,141.6 142,141.6 142,140.3 148.3,140.3 148.3,141.6 	"/>
	<path class="st1" d="M160.3,149.4l-0.6-1.8h-3.6l-0.6,1.8h-1.5l3.3-9h1.1l3.3,9H160.3z M158,142.4l-1.4,4h2.8L158,142.4z"/>
	<rect x="169.1" y="140.3" class="st1" width="1.4" height="9"/>
	<polygon class="st1" points="178.8,149.4 178.8,140.3 180.2,140.3 180.2,148.1 184.5,148.1 184.5,149.4 	"/>
	<polygon class="st1" points="206.2,149.4 206.2,145.4 202.5,145.4 202.5,149.4 201.2,149.4 201.2,140.3 202.5,140.3 202.5,144.2 
		206.2,144.2 206.2,140.3 207.6,140.3 207.6,149.4 	"/>
	<path class="st1" d="M222,147.6c-0.2,0.4-0.4,0.7-0.7,1c-0.3,0.3-0.6,0.5-1,0.6c-0.4,0.2-0.8,0.2-1.3,0.2s-0.9-0.1-1.3-0.2
		c-0.4-0.1-0.7-0.4-1-0.6c-0.3-0.3-0.5-0.6-0.7-1c-0.2-0.4-0.2-0.8-0.2-1.3v-6h1.4v5.9c0,0.6,0.2,1.1,0.5,1.4
		c0.3,0.3,0.8,0.5,1.4,0.5c0.6,0,1-0.2,1.4-0.5c0.3-0.4,0.5-0.8,0.5-1.4v-5.9h1.4v6C222.3,146.8,222.2,147.2,222,147.6"/>
	<path class="st1" d="M236.1,148.7c-0.5,0.4-1.2,0.7-2,0.7h-3.7v-9h3.5c0.8,0,1.5,0.2,2,0.7c0.5,0.4,0.7,1,0.7,1.8
		c0,0.5-0.1,0.9-0.4,1.2c-0.2,0.3-0.5,0.6-0.9,0.7c0.4,0.2,0.7,0.4,1,0.8c0.3,0.3,0.4,0.8,0.4,1.3
		C236.9,147.6,236.6,148.2,236.1,148.7 M235,141.9c-0.3-0.2-0.6-0.3-1.1-0.3h-2v2.6h2c0.5,0,0.8-0.1,1.1-0.3c0.3-0.2,0.4-0.5,0.4-1
		C235.4,142.5,235.3,142.1,235,141.9 M235.1,145.8c-0.3-0.3-0.6-0.4-1.1-0.4h-2.2v2.7h2.2c0.5,0,0.8-0.1,1.1-0.4
		c0.3-0.3,0.4-0.6,0.4-1C235.5,146.3,235.4,146,235.1,145.8"/>
	<path class="st1" d="M237,118.3c0-3.8-0.6-6.5-1.8-8.4c-1.2-1.8-3.3-2.8-6.4-2.8c-3,0-5.2,0.9-6.4,2.7c-1.2,1.8-1.8,4.6-1.8,8.5
		c0,3,0.5,5.3,1.6,6.9c1.1,1.5,2.8,2.3,5,2.3c1.1,0,1.9-0.2,2.5-0.5c0.6-0.3,1.1-0.8,1.7-1.4l0.1-0.1v1.9v0.6c0,0.7-0.1,1.3-0.1,1.8
		c-0.1,0.5-0.2,1-0.3,1.4c-0.2,0.5-0.5,0.9-0.8,1.2c-0.4,0.3-0.9,0.5-1.6,0.5c-1,0-1.7-0.3-2-0.8c-0.1-0.2-0.2-0.4-0.3-0.6
		c0-0.2-0.1-0.5-0.1-0.9h-5.1c0,2.3,0.7,3.9,2,5c1.3,1.1,3.1,1.6,5.3,1.6c1.5,0,2.8-0.2,3.8-0.6c1-0.4,1.9-1,2.6-1.9
		c0.7-0.9,1.2-2.1,1.5-3.6c0.3-1.5,0.5-3.4,0.5-5.8L237,118.3L237,118.3z M231.5,118c0,0.8,0,1.5-0.1,2.1c0,0.5-0.1,1.1-0.3,1.6
		c-0.2,0.5-0.4,0.9-0.8,1.2c-0.4,0.3-0.9,0.5-1.5,0.5c-1.1,0-1.8-0.4-2.2-1.3c-0.3-0.9-0.5-2.2-0.5-4c0-2.5,0.2-4.2,0.5-5.1
		c0.3-0.9,1-1.3,2.1-1.3c1.2,0,2,0.5,2.3,1.5C231.3,114,231.5,115.6,231.5,118 M201.3,112.1H213c-0.6,0.9-1.2,2-1.8,3.3
		c-0.6,1.3-1.1,2.4-1.5,3.4c-1.3,3.3-2.3,6.4-3.1,9.3c-0.8,2.9-1.3,5.8-1.5,8.6h5.6c0.1-3.3,0.7-6.8,1.7-10.7c0.7-2.6,1.4-5,2.3-7.4
		c0.9-2.4,1.9-4.6,3.2-6.8v-3.9h-16.5L201.3,112.1L201.3,112.1z"/>
</g>
</svg>
