<?xml version="1.0" encoding="UTF-8"?><svg id="Layer_1" xmlns="http://www.w3.org/2000/svg" viewBox="0 0 248.29 194.12"><defs><style>.cls-1{fill:#00a64f;}.cls-2{fill:#fff;}</style></defs><polygon class="cls-2" points="88.91 41.85 92.32 33.28 92.96 0 93.63 33.34 97.08 41.85 97.08 148.56 88.91 148.56 88.91 41.85"/><polygon class="cls-2" points="4.37 185.19 4.37 194.03 2.82 194.03 2.82 185.19 0 185.19 0 183.79 7.19 183.79 7.19 185.19 4.37 185.19"/><polygon class="cls-2" points="25.45 194.03 25.45 189.56 21.29 189.56 21.29 194.03 19.74 194.03 19.74 183.79 21.29 183.79 21.29 188.16 25.45 188.16 25.45 183.79 27 183.79 27 194.03 25.45 194.03"/><polygon class="cls-2" points="40.46 194.03 40.46 183.79 47.01 183.79 47.01 185.19 42.02 185.19 42.02 188.18 46.27 188.18 46.27 189.56 42.02 189.56 42.02 192.63 47.01 192.63 47.01 194.03 40.46 194.03"/><path class="cls-2" d="M79.27,185.62c-.32-.29-.74-.44-1.26-.44h-2.3v3.21h2.3c.53,0,.95-.14,1.26-.43,.32-.28,.48-.67,.48-1.17s-.16-.89-.48-1.18m.54,8.41l-2.16-4.31h-1.94v4.31h-1.55v-10.24h3.97c.95,0,1.72,.28,2.3,.83,.58,.56,.87,1.28,.87,2.16,0,.7-.19,1.28-.57,1.76-.38,.48-.87,.79-1.47,.96l2.35,4.53h-1.81Z"/><polygon class="cls-2" points="94.36 194.03 94.36 183.79 100.9 183.79 100.9 185.19 95.91 185.19 95.91 188.18 100.17 188.18 100.17 189.56 95.91 189.56 95.91 192.63 100.9 192.63 100.9 194.03 94.36 194.03"/><polygon class="cls-2" points="117.28 185.19 117.28 194.03 115.73 194.03 115.73 185.19 112.91 185.19 112.91 183.79 120.09 183.79 120.09 185.19 117.28 185.19"/><path class="cls-2" d="M134.98,186.11l-1.6,4.55h3.15l-1.55-4.55Zm2.69,7.92l-.71-2.06h-4.04l-.7,2.06h-1.65l3.75-10.24h1.25l3.76,10.24h-1.65Z"/><rect class="cls-2" x="151.56" y="183.79" width="1.55" height="10.24"/><polygon class="cls-2" points="166.57 194.03 166.57 183.79 168.13 183.79 168.13 192.63 173.05 192.63 173.05 194.03 166.57 194.03"/><polygon class="cls-2" points="205.55 194.03 205.55 189.56 201.4 189.56 201.4 194.03 199.84 194.03 199.84 183.79 201.4 183.79 201.4 188.16 205.55 188.16 205.55 183.79 207.11 183.79 207.11 194.03 205.55 194.03"/><path class="cls-2" d="M227.48,192.01c-.19,.44-.45,.81-.78,1.13-.33,.31-.72,.56-1.17,.72-.45,.17-.93,.26-1.45,.26s-1-.09-1.45-.26c-.45-.16-.84-.41-1.17-.72-.34-.31-.6-.69-.78-1.13-.18-.44-.28-.92-.28-1.43v-6.79h1.55v6.72c0,.68,.19,1.22,.58,1.62,.38,.4,.89,.59,1.54,.59s1.15-.2,1.55-.59c.39-.4,.58-.94,.58-1.62v-6.72h1.55v6.79c0,.52-.09,.99-.28,1.43"/><path class="cls-2" d="M246.29,189.95c-.3-.29-.71-.43-1.23-.43h-2.44v3.12h2.44c.53,0,.94-.15,1.23-.44,.3-.29,.45-.67,.45-1.13s-.15-.83-.45-1.12m-.17-4.38c-.3-.25-.7-.38-1.21-.38h-2.3v2.94h2.3c.51,0,.91-.13,1.21-.38,.3-.26,.45-.62,.45-1.08s-.15-.84-.45-1.09m1.32,7.71c-.57,.5-1.31,.76-2.24,.76h-4.14v-10.24h3.98c.95,0,1.7,.26,2.26,.76,.56,.5,.84,1.19,.84,2.05,0,.52-.14,.98-.41,1.36l-.97,.81c.44,.17,.8,.46,1.1,.87,.3,.4,.44,.91,.44,1.51,0,.92-.28,1.63-.85,2.13"/><rect class="cls-2" x="0" y="40.73" width="5.66" height="107.83"/><rect class="cls-2" x="10.17" y="28.53" width="3.12" height="120.03"/><polygon class="cls-2" points="27.43 148.56 17.8 148.56 17.8 43.33 27.43 56.91 27.43 148.56"/><rect class="cls-2" x="31.95" y="28.53" width="2.83" height="120.03"/><rect class="cls-2" x="39.29" y="52.94" width="5.66" height="95.62"/><rect class="cls-2" x="63.6" y="28.53" width="2.83" height="120.03"/><rect class="cls-2" x="70.95" y="63.1" width="2.83" height="85.46"/><rect class="cls-2" x="78.29" y="28.53" width="5.1" height="120.03"/><rect class="cls-2" x="102.61" y="28.53" width="2.55" height="120.03"/><rect class="cls-2" x="109.67" y="38.7" width="5.38" height="109.86"/><rect class="cls-2" x="130.32" y="28.53" width="2.79" height="120.03"/><rect class="cls-2" x="119.56" y="48.87" width="5.42" height="99.69"/><rect class="cls-2" x="137.62" y="28.53" width="5.89" height="120.03"/><rect class="cls-2" x="148.03" y="61.07" width="9.92" height="87.49"/><rect class="cls-2" x="171.95" y="38.7" width="5.95" height="109.86"/><rect class="cls-2" x="182.42" y="28.53" width="2.83" height="120.03"/><polygon class="cls-2" points="201.93 148.56 189.76 148.56 189.76 37.46 195.85 20.39 201.93 37.46 201.93 148.56"/><rect class="cls-2" x="213.5" y="28.53" width="5.38" height="120.03"/><polygon class="cls-2" points="232.19 148.56 222.56 148.56 222.56 36.54 227.21 36.54 228.9 36.54 232.19 36.54 232.19 148.56"/><rect class="cls-2" x="236.58" y="28.53" width="3.11" height="120.03"/><rect class="cls-2" x="242.9" y="63.1" width="5.38" height="85.46"/><polygon class="cls-2" points="56.54 64.54 56.54 48.86 53.46 48.86 53.46 78.41 49.46 78.41 49.46 148.56 59.09 148.56 59.09 64.54 56.54 64.54"/><polygon class="cls-2" points="163.48 29.95 163.48 148.66 167.44 148.66 167.44 10.22 163.48 29.95"/><rect class="cls-2" x="206.45" y="48.87" width="2.55" height="99.69"/><path class="cls-1" d="M6.17,152.74c4,0,6.06,2.16,6.06,5.95v.74h-3.89v-.98c0-1.69-.75-2.33-2.06-2.33s-2.05,.64-2.05,2.33c0,4.86,8.04,5.78,8.04,12.54,0,3.78-2.09,5.95-6.13,5.95S0,174.76,0,170.98v-1.45H3.89v1.69c0,1.69,.82,2.3,2.13,2.3s2.13-.61,2.13-2.3c0-4.86-8.04-5.77-8.04-12.53,0-3.78,2.05-5.95,6.06-5.95"/><rect class="cls-1" x="18.91" y="153.01" width="4.11" height="23.65"/><path class="cls-1" d="M36.17,163.48h5.76v7.5c0,3.78-2.09,5.94-6.13,5.94s-6.13-2.16-6.13-5.94v-12.3c0-3.78,2.09-5.95,6.13-5.95s6.13,2.16,6.13,5.95v2.3h-3.89v-2.53c0-1.69-.82-2.33-2.13-2.33s-2.13,.64-2.13,2.33v12.77c0,1.69,.83,2.3,2.13,2.3s2.13-.61,2.13-2.3v-4.36h-1.87v-3.38Z"/><polygon class="cls-1" points="52.27 159.52 52.27 176.65 48.57 176.65 48.57 153.01 53.73 153.01 57.96 167.16 57.96 153.01 61.62 153.01 61.62 176.65 57.4 176.65 52.27 159.52"/><path class="cls-1" d="M72.38,153.01v18.24c0,1.69,.82,2.29,2.13,2.29s2.13-.61,2.13-2.29v-18.24h3.89v18.01c0,3.78-2.1,5.95-6.14,5.95s-6.13-2.16-6.13-5.95v-18.01h4.11Z"/><polygon class="cls-1" points="95.92 169.79 98.73 153.01 104.45 153.01 104.45 176.65 100.56 176.65 100.56 159.69 97.72 176.65 93.83 176.65 90.76 159.93 90.76 176.65 87.17 176.65 87.17 153.01 92.89 153.01 95.92 169.79"/><path class="cls-2" d="M126.81,153.02h-6v23.42h4.07v-8.8h1.93c4.08,0,6.07-2.04,6.07-5.79v-3.05c0-3.75-2-5.79-6.07-5.79m0,3.35c1.3,0,2,.53,2,2.21v3.51c0,1.67-.7,2.21-2,2.21h-1.93v-7.93h1.93Zm12.64,20.08h10.78v-3.35h-6.7v-20.08h-4.07v23.42Zm26.27-23.42h-5.96l-4.15,23.42h3.74l.7-4.25h5l.7,4.25h4.11l-4.15-23.42Zm-3.18,4.15l1.96,11.85h-3.92l1.96-11.85Zm13.64-4.15v3.35h7.37l-7.74,16.8v3.28h11.93v-3.35h-7.74l7.74-16.8v-3.28h-11.55Zm27.67,0h-5.96l-4.15,23.42h3.74l.7-4.25h5l.7,4.25h4.11l-4.15-23.42Zm-3.19,4.15l1.96,11.85h-3.93l1.96-11.85Z"/><path class="cls-1" d="M223.15,170.65v-.7h3.4v1.49c0,1.19,.6,1.79,1.79,1.79,.52,0,.94-.17,1.28-.51,.33-.34,.5-.76,.5-1.28v-5.53c-.81,.85-1.71,1.27-2.7,1.27-2.93,0-4.4-2.32-4.4-6.95s1.79-7.26,5.36-7.26,5.14,2.08,5.14,6.25v11.51c0,1.73-.45,3.1-1.34,4.1-.92,1.05-2.24,1.57-3.95,1.57s-2.91-.56-3.82-1.69c-.84-1.04-1.26-2.39-1.26-4.07m6.96-7.74v-4.65c0-1.38-.62-2.07-1.85-2.07-1.14,0-1.71,.77-1.71,2.3v3.14c0,1.76,.57,2.64,1.71,2.64,.82,0,1.44-.46,1.85-1.37"/><path class="cls-1" d="M238.37,169.43h3.28v.93c0,1.89,.54,2.83,1.63,2.83,1.23,0,1.85-1.07,1.85-3.22,0-1.36-.14-2.33-.43-2.91-.42-.82-1.24-1.23-2.44-1.23h-.43v-3.15c.06,0,.15,0,.27-.02,.11-.01,.2-.02,.26-.02,.97,0,1.65-.35,2.04-1.06,.28-.52,.42-1.32,.42-2.41,0-1.96-.49-2.94-1.46-2.94-1.09,0-1.63,.82-1.63,2.45,0,.34,.01,.63,.03,.86h-3.28v-.19c0-1.79,.36-3.24,1.07-4.35,.85-1.33,2.12-1.99,3.81-1.99,3.02,0,4.52,2.12,4.52,6.37,0,2.46-.65,4.08-1.94,4.83,.96,.48,1.62,1.22,1.97,2.24,.25,.73,.37,1.75,.37,3.08,0,4.55-1.6,6.82-4.8,6.82-1.76,0-3.08-.65-3.96-1.94-.76-1.11-1.13-2.58-1.13-4.43v-.57Z"/></svg>