<?xml version="1.0" encoding="utf-8"?>
<!-- Generator: Adobe Illustrator 26.3.1, SVG Export Plug-In . SVG Version: 6.00 Build 0)  -->
<svg version="1.1" id="Layer_1" xmlns="http://www.w3.org/2000/svg" xmlns:xlink="http://www.w3.org/1999/xlink" x="0px" y="0px"
	 viewBox="0 0 150 150" style="enable-background:new 0 0 150 150;" xml:space="preserve">
<style type="text/css">
	.st0{fill:#FFFFFF;}
	.st1{fill:#00A64F;}
</style>
<g>
	<polygon class="st0" points="53.9,42.5 56,37.3 56.3,17.3 56.8,37.4 58.8,42.5 58.8,106.7 53.9,106.7 	"/>
	<rect x="0.4" y="41.8" class="st0" width="3.4" height="64.9"/>
	<rect x="6.5" y="34.5" class="st0" width="1.9" height="72.3"/>
	<polygon class="st0" points="16.9,106.7 11.1,106.7 11.1,43.4 16.9,51.6 	"/>
	<rect x="19.6" y="34.5" class="st0" width="1.7" height="72.3"/>
	<rect x="24" y="49.2" class="st0" width="3.4" height="57.6"/>
	<rect x="38.7" y="34.5" class="st0" width="1.7" height="72.3"/>
	<rect x="43.1" y="55.3" class="st0" width="1.7" height="51.5"/>
	<rect x="47.5" y="34.5" class="st0" width="3.1" height="72.3"/>
	<rect x="62.2" y="34.5" class="st0" width="1.5" height="72.3"/>
	<rect x="66.4" y="40.6" class="st0" width="3.2" height="66.1"/>
	<rect x="78.8" y="34.5" class="st0" width="1.7" height="72.3"/>
	<rect x="72.4" y="46.7" class="st0" width="3.3" height="60"/>
	<rect x="83.2" y="34.5" class="st0" width="3.5" height="72.3"/>
	<rect x="89.5" y="54.1" class="st0" width="6" height="52.7"/>
	<rect x="103.9" y="40.6" class="st0" width="3.6" height="66.1"/>
	<rect x="110.2" y="34.5" class="st0" width="1.7" height="72.3"/>
	<polygon class="st0" points="122,106.7 114.6,106.7 114.6,39.8 118.3,29.6 122,39.8 	"/>
	<rect x="128.9" y="34.5" class="st0" width="3.2" height="72.3"/>
	<polygon class="st0" points="140.2,106.7 134.4,106.7 134.4,39.3 137.2,39.3 138.2,39.3 140.2,39.3 	"/>
	<rect x="142.8" y="34.5" class="st0" width="1.9" height="72.3"/>
	<rect x="146.6" y="55.3" class="st0" width="3.2" height="51.5"/>
	<polygon class="st0" points="34.4,56.1 34.4,46.7 32.6,46.7 32.6,64.5 30.2,64.5 30.2,106.7 36,106.7 36,56.1 	"/>
	<polygon class="st0" points="98.8,35.3 98.8,106.8 101.2,106.8 101.2,23.4 	"/>
	<rect x="124.7" y="46.7" class="st0" width="1.5" height="60"/>
	<polygon class="st0" points="2.8,127.3 2.8,132.7 1.8,132.7 1.8,127.3 0.1,127.3 0.1,126.5 4.5,126.5 4.5,127.3 	"/>
	<polygon class="st0" points="15.4,132.7 15.4,130 12.9,130 12.9,132.7 12,132.7 12,126.5 12.9,126.5 12.9,129.1 15.4,129.1 
		15.4,126.5 16.4,126.5 16.4,132.7 	"/>
	<polygon class="st0" points="24.5,132.7 24.5,126.5 28.4,126.5 28.4,127.3 25.4,127.3 25.4,129.1 28,129.1 28,130 25.4,130 
		25.4,131.8 28.4,131.8 28.4,132.7 	"/>
	<path class="st0" d="M47.8,127.6c-0.2-0.2-0.4-0.3-0.8-0.3h-1.4v1.9H47c0.3,0,0.6-0.1,0.8-0.3c0.2-0.2,0.3-0.4,0.3-0.7
		C48.1,128,48,127.8,47.8,127.6 M48.1,132.7l-1.3-2.6h-1.2v2.6h-0.9v-6.2h2.4c0.6,0,1,0.2,1.4,0.5c0.3,0.3,0.5,0.8,0.5,1.3
		c0,0.4-0.1,0.8-0.3,1.1c-0.2,0.3-0.5,0.5-0.9,0.6l1.4,2.7H48.1z"/>
	<polygon class="st0" points="56.9,132.7 56.9,126.5 60.8,126.5 60.8,127.3 57.8,127.3 57.8,129.1 60.4,129.1 60.4,130 57.8,130 
		57.8,131.8 60.8,131.8 60.8,132.7 	"/>
	<polygon class="st0" points="70.6,127.3 70.6,132.7 69.7,132.7 69.7,127.3 68,127.3 68,126.5 72.3,126.5 72.3,127.3 	"/>
	<path class="st0" d="M81.3,127.9l-1,2.7h1.9L81.3,127.9z M82.9,132.7l-0.4-1.2H80l-0.4,1.2h-1l2.3-6.2h0.8l2.3,6.2H82.9z"/>
	<rect x="91.2" y="126.5" class="st0" width="0.9" height="6.2"/>
	<polygon class="st0" points="100.3,132.7 100.3,126.5 101.2,126.5 101.2,131.8 104.2,131.8 104.2,132.7 	"/>
	<polygon class="st0" points="123.7,132.7 123.7,130 121.2,130 121.2,132.7 120.3,132.7 120.3,126.5 121.2,126.5 121.2,129.1 
		123.7,129.1 123.7,126.5 124.6,126.5 124.6,132.7 	"/>
	<path class="st0" d="M136.9,131.4c-0.1,0.3-0.3,0.5-0.5,0.7c-0.2,0.2-0.4,0.3-0.7,0.4c-0.3,0.1-0.6,0.2-0.9,0.2
		c-0.3,0-0.6-0.1-0.9-0.2c-0.3-0.1-0.5-0.2-0.7-0.4c-0.2-0.2-0.4-0.4-0.5-0.7c-0.1-0.3-0.2-0.6-0.2-0.9v-4.1h0.9v4
		c0,0.4,0.1,0.7,0.3,1c0.2,0.2,0.5,0.4,0.9,0.4c0.4,0,0.7-0.1,0.9-0.4c0.2-0.2,0.4-0.6,0.4-1v-4h0.9v4.1
		C137.1,130.9,137,131.2,136.9,131.4"/>
	<path class="st0" d="M148.2,130.2c-0.2-0.2-0.4-0.3-0.7-0.3H146v1.9h1.5c0.3,0,0.6-0.1,0.7-0.3c0.2-0.2,0.3-0.4,0.3-0.7
		C148.5,130.6,148.4,130.4,148.2,130.2 M148.1,127.6c-0.2-0.2-0.4-0.2-0.7-0.2H146v1.8h1.4c0.3,0,0.5-0.1,0.7-0.2
		c0.2-0.2,0.3-0.4,0.3-0.7C148.4,127.9,148.3,127.7,148.1,127.6 M148.9,132.2c-0.3,0.3-0.8,0.5-1.3,0.5h-2.5v-6.2h2.4
		c0.6,0,1,0.2,1.4,0.5c0.3,0.3,0.5,0.7,0.5,1.2c0,0.3-0.1,0.6-0.2,0.8l-0.6,0.5c0.3,0.1,0.5,0.3,0.7,0.5c0.2,0.2,0.3,0.5,0.3,0.9
		C149.4,131.5,149.2,131.9,148.9,132.2"/>
	<path class="st1" d="M3.9,109.3c2.3,0,3.5,1.2,3.5,3.4v0.4H5.1v-0.6c0-1-0.4-1.3-1.2-1.3c-0.7,0-1.2,0.4-1.2,1.3
		c0,2.8,4.6,3.3,4.6,7.2c0,2.2-1.2,3.4-3.5,3.4c-2.3,0-3.5-1.2-3.5-3.4v-0.8h2.2v1c0,1,0.5,1.3,1.2,1.3c0.7,0,1.2-0.3,1.2-1.3
		c0-2.8-4.6-3.3-4.6-7.2C0.4,110.6,1.6,109.3,3.9,109.3"/>
	<rect x="9.9" y="109.5" class="st1" width="2.4" height="13.5"/>
	<rect x="142.8" y="109.5" class="st1" width="2.3" height="13.4"/>
	<rect x="147.1" y="109.5" class="st1" width="2.3" height="13.4"/>
	<path class="st1" d="M19,115.5h3.3v4.3c0,2.2-1.2,3.4-3.5,3.4c-2.3,0-3.5-1.2-3.5-3.4v-7c0-2.2,1.2-3.4,3.5-3.4
		c2.3,0,3.5,1.2,3.5,3.4v1.3H20v-1.4c0-1-0.5-1.3-1.2-1.3c-0.7,0-1.2,0.4-1.2,1.3v7.3c0,1,0.5,1.3,1.2,1.3c0.7,0,1.2-0.3,1.2-1.3
		v-2.5H19V115.5z"/>
	<polygon class="st1" points="27,113.2 27,123 24.9,123 24.9,109.5 27.8,109.5 30.2,117.6 30.2,109.5 32.3,109.5 32.3,123 29.9,123 
			"/>
	<path class="st1" d="M37.6,109.5v10.4c0,1,0.5,1.3,1.2,1.3c0.7,0,1.2-0.3,1.2-1.3v-10.4h2.2v10.3c0,2.2-1.2,3.4-3.5,3.4
		c-2.3,0-3.5-1.2-3.5-3.4v-10.3H37.6z"/>
	<polygon class="st1" points="50.3,119.1 51.9,109.5 55.2,109.5 55.2,123 53,123 53,113.3 51.3,123 49.1,123 47.4,113.4 47.4,123 
		45.3,123 45.3,109.5 48.6,109.5 	"/>
	<path class="st0" d="M64,109.5h-3.4v13.4h2.3v-5H64c2.3,0,3.5-1.2,3.5-3.3v-1.7C67.5,110.7,66.3,109.5,64,109.5 M64,111.4
		c0.7,0,1.1,0.3,1.1,1.3v2c0,1-0.4,1.3-1.1,1.3h-1.1v-4.5H64z M69.9,122.9h6.2V121h-3.8v-11.5h-2.3V122.9z M83.6,109.5h-3.4
		l-2.4,13.4h2.1l0.4-2.4h2.9l0.4,2.4h2.3L83.6,109.5z M81.7,111.9l1.1,6.8h-2.2L81.7,111.9z M88.2,109.5v1.9h4.2L88,121v1.9h6.8V121
		h-4.4l4.4-9.6v-1.9H88.2z M102.7,109.5h-3.4l-2.4,13.4H99l0.4-2.4h2.9l0.4,2.4h2.3L102.7,109.5z M100.8,111.9l1.1,6.8h-2.2
		L100.8,111.9z"/>
	<path class="st1" d="M115.2,113.5c0,1.1-0.5,1.4-1.4,1.4h-0.9v1.9h0.8c1.1,0,1.5,0.5,1.5,1.7v1.1c0,1.2-0.5,1.5-1.2,1.5
		c-0.7,0-1.2-0.4-1.2-1.3v-1.2h-2.2v1.1c0,2.1,1.2,3.4,3.5,3.4c2.3,0,3.5-1.2,3.5-3.4v-1.1c0-1.4-0.5-2.4-1.6-2.8
		c1.1-0.4,1.6-1.3,1.6-2.8v-0.3c0-2.1-1.2-3.4-3.5-3.4c-2.3,0-3.5,1.2-3.5,3.4v0.7h2.2v-0.9c0-1,0.5-1.3,1.2-1.3
		c0.7,0,1.2,0.3,1.2,1.5V113.5z M120.3,109.5v1.9h4.6l-3.4,11.5h2.3l3.4-11.5v-1.8H120.3z M130.1,122.9h3.7c2.3,0,3.5-1.2,3.5-3.3
		v-6.8c0-2.1-1.1-3.3-3.5-3.3h-3.7V122.9z M133.8,111.4c0.7,0,1.2,0.3,1.2,1.3v7c0,1-0.4,1.3-1.2,1.3h-1.3v-9.6H133.8z"/>
</g>
</svg>
