<svg id="Layer_1" data-name="Layer 1" xmlns="http://www.w3.org/2000/svg" viewBox="0 0 200 200"><defs><style>.cls-1,.cls-2{fill:#12a74f;}.cls-1,.cls-4{fill-rule:evenodd;}.cls-3,.cls-4{fill:#f7f7f7;}</style></defs><path class="cls-1" d="M8.05,140.22c4,0,6,2.36,6,6.54v.83H10.2v-1.08c0-1.87-.73-2.55-2-2.55s-2,.68-2,2.55c0,5.36,8,6.4,8,13.82,0,4.19-2.1,6.55-6.11,6.55s-6.07-2.36-6.07-6.55v-1.62H5.8v1.87c0,1.87.83,2.56,2.1,2.56s2.1-.69,2.1-2.56c0-5.36-8-6.34-8-13.82,0-4.18,2.06-6.54,6-6.54"/><rect class="cls-2" x="19.68" y="140.51" width="4.11" height="26.07"/><path class="cls-1" d="M35.81,152.07h5.73v8.26c0,4.18-2.06,6.55-6.07,6.55s-6.11-2.37-6.11-6.55V146.76c0-4.18,2.1-6.54,6.11-6.54s6.07,2.36,6.07,6.54v2.56H37.67v-2.81c0-1.87-.83-2.56-2.1-2.56s-2.11.69-2.11,2.56v14.07c0,1.87.79,2.56,2.11,2.56s2.1-.69,2.1-2.56v-4.77H35.81Z"/><polygon class="cls-1" points="50.77 147.69 50.77 166.58 47.1 166.58 47.1 140.51 52.24 140.51 56.4 156.1 56.4 140.51 60.02 140.51 60.02 166.58 55.86 166.58 50.77 147.69"/><path class="cls-1" d="M69.64,140.51v20.12c0,1.87.83,2.56,2.16,2.56s2.1-.69,2.1-2.56V140.51h3.86v19.87c0,4.18-2.1,6.55-6.11,6.55s-6.07-2.37-6.07-6.55V140.51Z"/><polygon class="cls-1" points="91.99 159.01 94.78 140.51 100.45 140.51 100.45 166.58 96.59 166.58 96.59 147.89 93.75 166.58 89.93 166.58 86.9 148.14 86.9 166.58 83.33 166.58 83.33 140.51 89.01 140.51 91.99 159.01"/><rect class="cls-2" x="166.68" y="140.51" width="7.63" height="39.84"/><rect class="cls-2" x="178.91" y="140.51" width="7.63" height="39.84"/><rect class="cls-3" x="2.66" y="51.72" width="4.41" height="85.21"/><rect class="cls-3" x="10.65" y="42.07" width="2.44" height="94.86"/><polygon class="cls-4" points="24.18 136.93 16.61 136.93 16.61 53.81 24.18 64.5 24.18 136.93"/><rect class="cls-3" x="27.71" y="42.07" width="2.23" height="94.86"/><rect class="cls-3" x="33.52" y="61.37" width="4.41" height="75.56"/><rect class="cls-3" x="52.6" y="42.07" width="2.23" height="94.86"/><rect class="cls-3" x="58.36" y="69.4" width="2.23" height="67.53"/><rect class="cls-3" x="64.11" y="42.07" width="4.05" height="94.86"/><rect class="cls-3" x="83.25" y="42.07" width="1.97" height="94.86"/><rect class="cls-3" x="88.8" y="50.11" width="4.2" height="86.82"/><rect class="cls-3" x="96.58" y="42.07" width="4.2" height="94.86"/><rect class="cls-3" x="104.3" y="58.14" width="2.23" height="91.01"/><rect class="cls-3" x="110.11" y="42.07" width="4.62" height="94.86"/><rect class="cls-3" x="126.4" y="67.78" width="7.78" height="69.15"/><rect class="cls-3" x="137.7" y="50.11" width="4.67" height="86.82"/><polygon class="cls-4" points="161.24 136.93 151.7 136.93 151.7 49.17 156.47 35.66 161.24 49.17 161.24 136.93"/><rect class="cls-3" x="170.37" y="42.07" width="4.2" height="94.86"/><polygon class="cls-4" points="185.05 136.93 177.48 136.93 177.48 48.44 181.11 48.44 182.45 48.44 185.05 48.44 185.05 136.93"/><rect class="cls-3" x="188.47" y="42.07" width="2.49" height="94.86"/><rect class="cls-3" x="193.45" y="69.4" width="4.2" height="67.53"/><polygon class="cls-4" points="47.05 70.55 47.05 58.14 44.61 58.14 44.61 81.5 41.5 81.5 41.5 136.93 49.07 136.93 49.07 70.55 47.05 70.55"/><polygon class="cls-4" points="118.25 43.22 118.25 136.98 121.42 136.98 121.42 27.63 118.25 43.22"/><polygon class="cls-4" points="72.46 52.61 75.16 45.83 75.68 19.55 76.19 45.88 78.89 52.61 78.89 136.93 72.46 136.93 72.46 52.61"/><polygon class="cls-4" points="5.7 172.68 5.7 180.35 4.33 180.35 4.33 172.68 1.93 172.68 1.93 171.5 8.1 171.5 8.1 172.68 5.7 172.68"/><polygon class="cls-4" points="19.49 180.35 19.49 176.47 15.92 176.47 15.92 180.35 14.6 180.35 14.6 171.5 15.92 171.5 15.92 175.29 19.49 175.29 19.49 171.5 20.86 171.5 20.86 180.35 19.49 180.35"/><polygon class="cls-4" points="27.86 180.35 27.86 171.5 33.53 171.5 33.53 172.68 29.23 172.68 29.23 175.29 32.9 175.29 32.9 176.47 29.23 176.47 29.23 179.13 33.53 179.13 33.53 180.35 27.86 180.35"/><path class="cls-4" d="M50.41,180.35l-1.86-3.73H46.88v3.73H45.51V171.5h3.43a2.92,2.92,0,0,1,2,.69,2.56,2.56,0,0,1,.74,1.87,2.19,2.19,0,0,1-.49,1.52,2.24,2.24,0,0,1-1.27.84l2,3.93Zm-.49-7.28a1.56,1.56,0,0,0-1.08-.39h-2v2.8h2a1.52,1.52,0,0,0,1.08-.39,1.26,1.26,0,0,0,.44-1,1.29,1.29,0,0,0-.44-1"/><polygon class="cls-4" points="58.48 180.35 58.48 171.5 64.1 171.5 64.1 172.68 59.85 172.68 59.85 175.29 63.47 175.29 63.47 176.47 59.85 176.47 59.85 179.13 64.1 179.13 64.1 180.35 58.48 180.35"/><polygon class="cls-4" points="74.13 172.68 74.13 180.35 72.81 180.35 72.81 172.68 70.36 172.68 70.36 171.5 76.57 171.5 76.57 172.68 74.13 172.68"/><path class="cls-4" d="M87.83,180.35l-.59-1.77H83.72l-.59,1.77H81.71l3.23-8.85H86l3.22,8.85Zm-2.3-6.83-1.37,3.93h2.69Z"/><rect class="cls-3" x="95.16" y="171.5" width="1.37" height="8.85"/><polygon class="cls-4" points="104.8 180.35 104.8 171.5 106.17 171.5 106.17 179.13 110.38 179.13 110.38 180.35 104.8 180.35"/><polygon class="cls-4" points="131.88 180.35 131.88 176.47 128.31 176.47 128.31 180.35 126.99 180.35 126.99 171.5 128.31 171.5 128.31 175.29 131.88 175.29 131.88 171.5 133.25 171.5 133.25 180.35 131.88 180.35"/><path class="cls-4" d="M146.8,178.58a2.44,2.44,0,0,1-.68,1,2.78,2.78,0,0,1-1,.64,3.83,3.83,0,0,1-1.28.24,3.35,3.35,0,0,1-1.22-.24,3,3,0,0,1-1-.64,3,3,0,0,1-.68-1,3.13,3.13,0,0,1-.25-1.23V171.5h1.37v5.8a1.77,1.77,0,0,0,1.81,1.92,1.81,1.81,0,0,0,1.32-.54,1.83,1.83,0,0,0,.54-1.38v-5.8H147v5.85a3.14,3.14,0,0,1-.24,1.23"/><path class="cls-4" d="M159.71,179.71a2.68,2.68,0,0,1-1.91.64h-3.57V171.5h3.43a2.79,2.79,0,0,1,2,.64,2.29,2.29,0,0,1,.73,1.77,2,2,0,0,1-.39,1.18l-.83.69a2.07,2.07,0,0,1,1,.79,2.11,2.11,0,0,1,.35,1.27,2.41,2.41,0,0,1-.74,1.87M158.59,173a1.67,1.67,0,0,0-1-.34h-2v2.56h2a1.37,1.37,0,0,0,1-.35A1,1,0,0,0,159,174a1.08,1.08,0,0,0-.39-.94m.15,3.79a1.48,1.48,0,0,0-1.08-.39h-2.1v2.7h2.1a1.42,1.42,0,0,0,1.08-.34,1.44,1.44,0,0,0,0-2"/><rect class="cls-3" x="164.82" y="58.14" width="1.97" height="78.79"/><path class="cls-4" d="M122.52,146.93c0-2.35-.84-3-2.17-3s-2.16.71-2.16,2.57v1.68h-4v-1.42c0-4.17,2.12-6.56,6.23-6.56s6.22,2.39,6.22,6.56v.67c0,2.8-.91,4.55-2.92,5.37,2.09.9,2.92,2.83,2.92,5.48v2c0,4.18-2.12,6.56-6.22,6.56s-6.23-2.38-6.23-6.56v-2.16h4v2.42c0,1.86.83,2.57,2.16,2.57s2.17-.63,2.17-2.94v-2.05c0-2.42-.84-3.32-2.74-3.32h-1.4v-3.73H120c1.56,0,2.51-.67,2.51-2.75Z"/><polygon class="cls-4" points="140.91 140.52 140.91 144.1 134.76 166.61 130.59 166.61 136.7 144.25 128.38 144.25 128.38 140.52 140.91 140.52"/><path class="cls-4" d="M152.79,144.25v18.64h2.36c1.32,0,2.12-.68,2.12-2.54V146.78c0-1.86-.8-2.53-2.12-2.53Zm-4.17-3.73h6.6c4.18,0,6.23,2.28,6.23,6.45v13.19c0,4.18-2,6.45-6.23,6.45h-6.6Z"/><rect class="cls-3" x="145.95" y="42.07" width="2.23" height="94.86"/><rect class="cls-2" x="190.44" y="140.51" width="7.63" height="39.84"/></svg>