<svg xmlns="http://www.w3.org/2000/svg" viewBox="0 0 84.08 72.64"><defs><style type="text/css">.cls-1,.cls-3,.cls-4{isolation:isolate;}.cls-2{fill:#e33147;}.cls-3{opacity:0.2;}.cls-4{opacity:0.1;}</style>
</defs><g id="Layer_4_Image"><path class="cls-2" d="M51.8,2.64H22.74a8.1,8.1,0,0,0-8.1,8.09V60.55a8.1,8.1,0,0,0,8.1,8.09H62a8.09,8.09,0,0,0,8.09-8.09V21a1.92,1.92,0,0,0-.56-1.35L53.16,3.21A1.89,1.89,0,0,0,51.8,2.64ZM63.27,61.2H21.45v-51H50.08L63.27,22.64Z" /><path class="cls-2" d="M54.87,41.55C54,39.92,50,38.88,46.5,38.68c-.32-.34-.64-.69-1-1.07-3-3.44-4.23-8.44-4.68-11.09-.06-.56-.12-1-.17-1.37s-.12-.86-.72-.86a.71.71,0,0,0-.51.23.94.94,0,0,0-.15.81c.05.35.11.82.2,1.35.26,2.69.38,7.81-1.69,11.87-.22.43-.43.83-.64,1.22-3.88,1.13-7,3.14-7.46,4.8a1.63,1.63,0,0,0,.41,1.63,2.34,2.34,0,0,0,1.74.79c1.84,0,3.93-2,6.21-6.07a19.52,19.52,0,0,1,3-.55c.38,0,1-.12,1.37-.18A19,19,0,0,1,45.89,40c2.81,2.91,5.1,4.39,6.82,4.39a2.41,2.41,0,0,0,2.16-1.26A1.61,1.61,0,0,0,54.87,41.55Zm-23,4.08a1,1,0,0,1-.77-.36.31.31,0,0,1-.08-.34c.24-.86,2.22-2.33,5.12-3.39C34.49,44.12,32.93,45.63,31.86,45.63Zm10.39-6.77L40.94,39c-.66.06-1.33.17-2,.3a1.19,1.19,0,0,0,.08-.16A19.15,19.15,0,0,0,40.89,32a19.86,19.86,0,0,0,3.62,6.46l.13.15A17.57,17.57,0,0,0,42.25,38.86Zm11.44,3.61a1.07,1.07,0,0,1-1,.58h0c-1.07,0-2.72-1-4.7-2.88,3.06.39,5.3,1.31,5.7,2A.23.23,0,0,1,53.69,42.47Z" /></g></svg>