<?xml version="1.0" encoding="utf-8"?>
<!-- Generator: Adobe Illustrator 26.5.2, SVG Export Plug-In . SVG Version: 6.00 Build 0)  -->
<svg version="1.1" id="Layer_1" xmlns="http://www.w3.org/2000/svg" xmlns:xlink="http://www.w3.org/1999/xlink" x="0px" y="0px"
	 viewBox="0 0 150 150" style="enable-background:new 0 0 150 150;" xml:space="preserve">
<style type="text/css">
	.st0{clip-path:url(#SVGID_00000181786182519253740520000016284421790999016092_);}
	.st1{fill:url(#SVGID_00000119096447691798211340000005029154081640892055_);}
	.st2{clip-path:url(#SVGID_00000154387118223153437960000002925446303011968681_);}
	.st3{fill:url(#SVGID_00000049916318017194405820000008018634275358301361_);}
	.st4{clip-path:url(#SVGID_00000138537607162378123570000007597111923430235825_);}
	.st5{fill:url(#SVGID_00000093895439313490903240000010585936894590277775_);}
	.st6{clip-path:url(#SVGID_00000138564483231885047930000006005243511523215766_);}
	.st7{fill:url(#SVGID_00000151508870182777679710000004951951229919110578_);}
	.st8{clip-path:url(#SVGID_00000041272139740175596990000011599552919659553189_);}
	.st9{fill:url(#SVGID_00000081617199078974950840000010513359836656698041_);}
	.st10{clip-path:url(#SVGID_00000044874560190159137850000009585706517964854922_);}
	.st11{fill:url(#SVGID_00000002347337404301073800000003439551228718686355_);}
	.st12{clip-path:url(#SVGID_00000148633779812919214820000012545117283075389577_);}
	.st13{fill:url(#SVGID_00000029046815314173380230000005434219635189903800_);}
	.st14{clip-path:url(#SVGID_00000085969993194484270500000003674670800501079185_);}
	.st15{fill:url(#SVGID_00000096025100454432644630000006045357127705148339_);}
	.st16{clip-path:url(#SVGID_00000070810878175104480460000001115270051533977218_);}
	.st17{fill:url(#SVGID_00000170981837366556413270000007272333833462595513_);}
	.st18{clip-path:url(#SVGID_00000176751152134379368290000007881811223863235983_);}
	.st19{fill:url(#SVGID_00000070099267793159348510000013143385468086104253_);}
	.st20{clip-path:url(#SVGID_00000150072623174489030430000017273306524535385732_);}
	.st21{fill:url(#SVGID_00000026843913147318647350000013331359867193143988_);}
	.st22{clip-path:url(#SVGID_00000046315310550447098510000009743325194589884050_);}
	.st23{fill:url(#SVGID_00000132082040996675600920000003438398559447289993_);}
	.st24{fill-rule:evenodd;clip-rule:evenodd;fill:#30B185;}
	.st25{fill-rule:evenodd;clip-rule:evenodd;fill:#49AE48;}
	.st26{fill-rule:evenodd;clip-rule:evenodd;fill:#F3C418;}
	.st27{fill-rule:evenodd;clip-rule:evenodd;fill:#EC8023;}
	.st28{fill-rule:evenodd;clip-rule:evenodd;fill:#E22328;}
	.st29{fill-rule:evenodd;clip-rule:evenodd;fill:#E10684;}
	.st30{fill-rule:evenodd;clip-rule:evenodd;fill:#922570;}
	.st31{fill-rule:evenodd;clip-rule:evenodd;fill:#6E2E80;}
	.st32{fill-rule:evenodd;clip-rule:evenodd;fill:#0261A4;}
	.st33{fill-rule:evenodd;clip-rule:evenodd;fill:#1187C7;}
	.st34{fill-rule:evenodd;clip-rule:evenodd;fill:#053F27;}
	.st35{fill:#FFFFFF;}
</style>
<g>
	<defs>
		<path id="SVGID_1_" d="M82.3,62.4c-0.2,1,0.7,2.1,1.9,2.3c1.3,0.2,2.5-0.4,2.7-1.4c0.2-1-0.7-2.1-1.9-2.3c-0.2,0-0.4-0.1-0.6-0.1
			C83.4,60.9,82.5,61.5,82.3,62.4"/>
	</defs>
	<clipPath id="SVGID_00000183239295170742967860000016784145981245934727_">
		<use xlink:href="#SVGID_1_"  style="overflow:visible;"/>
	</clipPath>
	<g style="clip-path:url(#SVGID_00000183239295170742967860000016784145981245934727_);">
		
			<linearGradient id="SVGID_00000047032035530095987650000000678620620098392477_" gradientUnits="userSpaceOnUse" x1="-781.66" y1="-340.1807" x2="-780.68" y2="-340.1807" gradientTransform="matrix(4.77 -1.498537e-02 -1.473434e-02 4.8501 3808.8303 1701.0996)">
			<stop  offset="0" style="stop-color:#132115"/>
			<stop  offset="0.7" style="stop-color:#5D7936"/>
			<stop  offset="0.95" style="stop-color:#657D36"/>
			<stop  offset="1" style="stop-color:#687F36"/>
		</linearGradient>
		<polygon style="fill:url(#SVGID_00000047032035530095987650000000678620620098392477_);" points="82.2,60.9 87.2,60.9 87.1,64.9 
			82.1,65 		"/>
	</g>
</g>
<g>
	<defs>
		<path id="SVGID_00000054257934257365253130000018429809799337215388_" d="M87.9,61.2c0.6,0.7,0.8,1.8,0.7,2.7
			c-0.2,1.1-1,1.9-2.1,2.3c-0.8,0.3-1.4,0.2-0.9,1.1c0.5,0.8,0.9,1.2,1.2,1.9c1.1,2.7,0,6.2-3.8,7.3c-0.3,0.1-0.6,0.2-1,0.3
			c5.1-0.2,8.6-4,8.6-8.9C90.6,65.4,89.5,62.9,87.9,61.2L87.9,61.2z"/>
	</defs>
	<clipPath id="SVGID_00000183935158214374690170000001699981489119403952_">
		<use xlink:href="#SVGID_00000054257934257365253130000018429809799337215388_"  style="overflow:visible;"/>
	</clipPath>
	<g style="clip-path:url(#SVGID_00000183935158214374690170000001699981489119403952_);">
		
			<linearGradient id="SVGID_00000055687544547392150760000011772139247463843220_" gradientUnits="userSpaceOnUse" x1="-830.11" y1="-369.1299" x2="-829.14" y2="-369.1299" gradientTransform="matrix(8.82 0 0 8.82 7406.5498 3324.7202)">
			<stop  offset="0" style="stop-color:#132115"/>
			<stop  offset="0.7" style="stop-color:#5D7936"/>
			<stop  offset="0.95" style="stop-color:#657D36"/>
			<stop  offset="1" style="stop-color:#687F36"/>
		</linearGradient>
		
			<rect x="82" y="61.2" style="fill:url(#SVGID_00000055687544547392150760000011772139247463843220_);" width="8.6" height="15.5"/>
	</g>
</g>
<g>
	<defs>
		<path id="SVGID_00000048475398255612634970000008887699516288878731_" d="M75,61.7c-0.3,0.6-0.6,1.3-0.5,2c0,0.8,0.2,1.7,0.7,2.4
			c1.9,3.1,3.6,2.7,4.6,5c0.8,1.9-1,3.5-3.6,1.3c-2.9-2.5-3.8-7.9-1.8-10.8c-1.4,1.6-2.2,4-2.2,6.3c0,1.6,0.4,3.1,1.2,4.5
			c0.6,1.1,1.4,2,2.5,2.7c1.1,0.7,2.5,1.2,3.8,1.4c0.7,0.1,1.3,0,2-0.1c1.1-0.2,2-0.8,2.8-1.6c2.4-2.2,1-5.6-1-7.5s-3.3-3.3-2.9-4.9
			c0.4-1.8,2.4-3.1,4.7-2.7c0.6,0.1,1.2,0.2,1.7,0.6c-1.5-1.2-3.4-1.6-5.5-1.6C78.9,58.6,76.3,59.5,75,61.7"/>
	</defs>
	<clipPath id="SVGID_00000045620769518937281590000009103845625486305687_">
		<use xlink:href="#SVGID_00000048475398255612634970000008887699516288878731_"  style="overflow:visible;"/>
	</clipPath>
	<g style="clip-path:url(#SVGID_00000045620769518937281590000009103845625486305687_);">
		
			<linearGradient id="SVGID_00000159463908276369085290000016107940278535733659_" gradientUnits="userSpaceOnUse" x1="-853.75" y1="-383.0119" x2="-852.78" y2="-383.0119" gradientTransform="matrix(15.11 0 0 15.11 12970.4697 5854.8701)">
			<stop  offset="0" style="stop-color:#132115"/>
			<stop  offset="0.7" style="stop-color:#5D7936"/>
			<stop  offset="0.95" style="stop-color:#657D36"/>
			<stop  offset="1" style="stop-color:#687F36"/>
		</linearGradient>
		
			<rect x="72.1" y="58.6" style="fill:url(#SVGID_00000159463908276369085290000016107940278535733659_);" width="14.7" height="17.9"/>
	</g>
</g>
<g>
	<defs>
		<polyline id="SVGID_00000098210803341979279230000002860055113048224444_" points="86.8,60.2 86.8,60.2 86.8,60.2 		"/>
	</defs>
	<clipPath id="SVGID_00000171687949703446123120000004196977405251070122_">
		<use xlink:href="#SVGID_00000098210803341979279230000002860055113048224444_"  style="overflow:visible;"/>
	</clipPath>
	<g style="clip-path:url(#SVGID_00000171687949703446123120000004196977405251070122_);">
		
			<linearGradient id="SVGID_00000027570199737621739100000016961206534211958933_" gradientUnits="userSpaceOnUse" x1="-823.77" y1="-365.3775" x2="-823.77" y2="-365.3775" gradientTransform="matrix(8 0 0 8 6676.98 2983.25)">
			<stop  offset="0" style="stop-color:#132115"/>
			<stop  offset="0.7" style="stop-color:#5D7936"/>
			<stop  offset="0.95" style="stop-color:#657D36"/>
			<stop  offset="1" style="stop-color:#687F36"/>
		</linearGradient>
		<polygon style="fill:url(#SVGID_00000027570199737621739100000016961206534211958933_);" points="86.8,60.2 86.8,60.2 86.8,60.2 
					"/>
	</g>
</g>
<g>
	<defs>
		<polyline id="SVGID_00000080927580568766199170000000473935750340853141_" points="86.8,60.2 86.8,60.2 86.8,60.2 		"/>
	</defs>
	<clipPath id="SVGID_00000028297990010332182590000005359200659520115593_">
		<use xlink:href="#SVGID_00000080927580568766199170000000473935750340853141_"  style="overflow:visible;"/>
	</clipPath>
	<g style="clip-path:url(#SVGID_00000028297990010332182590000005359200659520115593_);">
		
			<linearGradient id="SVGID_00000091733694980507205890000015559315394022444725_" gradientUnits="userSpaceOnUse" x1="-560.4575" y1="-207.2484" x2="-560.4575" y2="-207.2484" gradientTransform="matrix(1.53 0 0 1.53 944.32 377.32)">
			<stop  offset="0" style="stop-color:#132115"/>
			<stop  offset="0.7" style="stop-color:#5D7936"/>
			<stop  offset="0.95" style="stop-color:#657D36"/>
			<stop  offset="1" style="stop-color:#687F36"/>
		</linearGradient>
		<polygon style="fill:url(#SVGID_00000091733694980507205890000015559315394022444725_);" points="86.8,60.2 86.8,60.2 86.8,60.2 
					"/>
	</g>
</g>
<g>
	<defs>
		<path id="SVGID_00000120548967398863456280000001027481829278758045_" d="M86.8,60.2L86.8,60.2L86.8,60.2z"/>
	</defs>
	<clipPath id="SVGID_00000142893199910515147280000016346942796573732536_">
		<use xlink:href="#SVGID_00000120548967398863456280000001027481829278758045_"  style="overflow:visible;"/>
	</clipPath>
	<g style="clip-path:url(#SVGID_00000142893199910515147280000016346942796573732536_);">
		
			<linearGradient id="SVGID_00000096039702340137338930000001328631314674017686_" gradientUnits="userSpaceOnUse" x1="86.82" y1="89.77" x2="86.82" y2="89.77" gradientTransform="matrix(1 0 0 -1 0 150)">
			<stop  offset="0" style="stop-color:#132115"/>
			<stop  offset="0.7" style="stop-color:#5D7936"/>
			<stop  offset="0.95" style="stop-color:#657D36"/>
			<stop  offset="1" style="stop-color:#687F36"/>
		</linearGradient>
		<polygon style="fill:url(#SVGID_00000096039702340137338930000001328631314674017686_);" points="86.8,60.2 86.8,60.2 86.8,60.2 
					"/>
	</g>
</g>
<g>
	<defs>
		<path id="SVGID_00000029044787188887256940000004956647995674405566_" d="M86.8,60.2L86.8,60.2L86.8,60.2z"/>
	</defs>
	<clipPath id="SVGID_00000022553535856301413640000005889300901296376204_">
		<use xlink:href="#SVGID_00000029044787188887256940000004956647995674405566_"  style="overflow:visible;"/>
	</clipPath>
	<g style="clip-path:url(#SVGID_00000022553535856301413640000005889300901296376204_);">
		
			<linearGradient id="SVGID_00000080886933128743995720000005939833256500868244_" gradientUnits="userSpaceOnUse" x1="-543.5753" y1="-197.0959" x2="-543.5753" y2="-197.0959" gradientTransform="matrix(1.46 0 0 1.46 880.44 347.99)">
			<stop  offset="0" style="stop-color:#132115"/>
			<stop  offset="0.7" style="stop-color:#5D7936"/>
			<stop  offset="0.95" style="stop-color:#657D36"/>
			<stop  offset="1" style="stop-color:#687F36"/>
		</linearGradient>
		<polygon style="fill:url(#SVGID_00000080886933128743995720000005939833256500868244_);" points="86.8,60.2 86.8,60.2 86.8,60.2 
					"/>
	</g>
</g>
<g>
	<defs>
		<path id="SVGID_00000001625277283205255280000010105648407450229674_" d="M82.3,62.1c-0.2,1,0.7,2.1,1.9,2.3
			c1.3,0.2,2.4-0.4,2.7-1.4c0.2-1-0.7-2-1.9-2.3c-0.2,0-0.4-0.1-0.6-0.1C83.4,60.6,82.5,61.2,82.3,62.1"/>
	</defs>
	<clipPath id="SVGID_00000010283323773023165420000017770037712966925225_">
		<use xlink:href="#SVGID_00000001625277283205255280000010105648407450229674_"  style="overflow:visible;"/>
	</clipPath>
	<g style="clip-path:url(#SVGID_00000010283323773023165420000017770037712966925225_);">
		
			<linearGradient id="SVGID_00000062176670243770794970000014252217218738569877_" gradientUnits="userSpaceOnUse" x1="-781.78" y1="-340.0021" x2="-780.81" y2="-340.0021" gradientTransform="matrix(4.77 0 0 4.77 3812.1101 1684.45)">
			<stop  offset="0" style="stop-color:#007D3F"/>
			<stop  offset="0" style="stop-color:#007D3F"/>
			<stop  offset="0.7" style="stop-color:#80BC41"/>
			<stop  offset="1" style="stop-color:#84BD40"/>
		</linearGradient>
		<rect x="82.1" y="60.6" style="fill:url(#SVGID_00000062176670243770794970000014252217218738569877_);" width="5" height="4"/>
	</g>
</g>
<g>
	<defs>
		<polyline id="SVGID_00000026860304074339394180000006061298901106215561_" points="86.8,60.2 86.8,60.2 86.8,60.2 86.8,60.2 		"/>
	</defs>
	<clipPath id="SVGID_00000075160737787861779710000016990614336286585781_">
		<use xlink:href="#SVGID_00000026860304074339394180000006061298901106215561_"  style="overflow:visible;"/>
	</clipPath>
	<g style="clip-path:url(#SVGID_00000075160737787861779710000016990614336286585781_);">
		
			<linearGradient id="SVGID_00000155141272865620796830000014151263496575662992_" gradientUnits="userSpaceOnUse" x1="86.82" y1="89.77" x2="86.82" y2="89.77" gradientTransform="matrix(1 0 0 -1 0 150)">
			<stop  offset="0" style="stop-color:#1B7E40"/>
			<stop  offset="0.7" style="stop-color:#7FBA42"/>
			<stop  offset="1" style="stop-color:#84BD40"/>
		</linearGradient>
		<polygon style="fill:url(#SVGID_00000155141272865620796830000014151263496575662992_);" points="86.8,60.2 86.8,60.2 86.8,60.2 
					"/>
	</g>
</g>
<g>
	<defs>
		<polyline id="SVGID_00000127725138709499709260000000011230639346601407_" points="86.8,60.2 86.8,60.2 86.8,60.2 86.8,60.2 		"/>
	</defs>
	<clipPath id="SVGID_00000039812839631471070720000012986275807839872441_">
		<use xlink:href="#SVGID_00000127725138709499709260000000011230639346601407_"  style="overflow:visible;"/>
	</clipPath>
	<g style="clip-path:url(#SVGID_00000039812839631471070720000012986275807839872441_);">
		
			<linearGradient id="SVGID_00000176044176323536763540000002848859355653506989_" gradientUnits="userSpaceOnUse" x1="-538.3497" y1="-194.014" x2="-538.3497" y2="-194.014" gradientTransform="matrix(1.43 0 0 1.43 856.66 337.67)">
			<stop  offset="0" style="stop-color:#1B7E40"/>
			<stop  offset="0.7" style="stop-color:#7FBA42"/>
			<stop  offset="1" style="stop-color:#84BD40"/>
		</linearGradient>
		<polygon style="fill:url(#SVGID_00000176044176323536763540000002848859355653506989_);" points="86.8,60.2 86.8,60.2 86.8,60.2 
					"/>
	</g>
</g>
<g>
	<defs>
		<path id="SVGID_00000172417813202237283960000005867180115514662026_" d="M74.9,61.5c-0.3,0.6-0.6,1.3-0.5,2
			c0,0.8,0.3,1.6,0.8,2.3c1.9,3.1,3.6,2.8,4.6,5.1c0.8,1.9-1.1,3.4-3.7,1.2c-2.9-2.5-3.8-7.7-1.8-10.5c-1.4,1.6-2.2,3.7-2.2,6
			c0,1.6,0.4,3.1,1.2,4.5c0.6,1.1,1.4,2,2.5,2.7c1.1,0.7,2.5,1.2,3.8,1.4c0.7,0.1,1.3,0,2-0.1c1.1-0.2,2-0.8,2.8-1.6
			c2.4-2.2,1-5.5-1-7.4s-3.3-3.3-2.9-5c0.4-1.8,2.5-2.9,4.7-2.5c0.6,0.1,1.2,0.3,1.7,0.7c-1.5-1.2-3.5-1.9-5.5-1.9
			C78.8,58.4,76.2,59.3,74.9,61.5"/>
	</defs>
	<clipPath id="SVGID_00000119094629986123958630000009674913791131000964_">
		<use xlink:href="#SVGID_00000172417813202237283960000005867180115514662026_"  style="overflow:visible;"/>
	</clipPath>
	<g style="clip-path:url(#SVGID_00000119094629986123958630000009674913791131000964_);">
		
			<linearGradient id="SVGID_00000098196446093410717890000017468629049853022141_" gradientUnits="userSpaceOnUse" x1="-853.87" y1="-383.1804" x2="-852.9" y2="-383.1804" gradientTransform="matrix(15.16 0 0 15.16 13017.2695 5876.2998)">
			<stop  offset="0" style="stop-color:#007D3F"/>
			<stop  offset="0" style="stop-color:#007D3F"/>
			<stop  offset="0.7" style="stop-color:#80BC41"/>
			<stop  offset="1" style="stop-color:#84BD40"/>
		</linearGradient>
		
			<rect x="72.1" y="58.4" style="fill:url(#SVGID_00000098196446093410717890000017468629049853022141_);" width="14.7" height="17.8"/>
	</g>
</g>
<g>
	<defs>
		<path id="SVGID_00000114795334235945135000000014138859352185832620_" d="M87.9,61.2c0.6,0.7,0.8,1.6,0.6,2.4
			c-0.2,1.1-1,1.9-2.1,2.3c-0.8,0.3-1.4,0.1-0.9,1c0.5,0.8,0.9,1.1,1.2,1.8c0.7,1.7,0.5,4-0.8,5.6c0,0,0,0-0.1,0.1l0,0
			c0,0,0,0,0,0.1c-0.2,0.3-0.5,0.6-1,1c0,0-0.1,0-0.1,0.1c0,0-0.1,0.1-0.1,0.1c-0.3,0.2-0.6,0.4-1,0.5c-0.4,0.2-1,0.4-1.6,0.6
			c4.7-0.4,8.4-4.4,8.4-9.2C90.5,65.1,89.5,62.9,87.9,61.2L87.9,61.2L87.9,61.2z"/>
	</defs>
	<clipPath id="SVGID_00000152968199192200019760000013030460768152117427_">
		<use xlink:href="#SVGID_00000114795334235945135000000014138859352185832620_"  style="overflow:visible;"/>
	</clipPath>
	<g style="clip-path:url(#SVGID_00000152968199192200019760000013030460768152117427_);">
		
			<linearGradient id="SVGID_00000021837701901931227230000001785248800125735843_" gradientUnits="userSpaceOnUse" x1="-828.74" y1="-367.8376" x2="-827.76" y2="-367.8376" gradientTransform="matrix(8.62 0 0 8.62 7222.2402 3239.7402)">
			<stop  offset="0" style="stop-color:#007D3F"/>
			<stop  offset="0" style="stop-color:#007D3F"/>
			<stop  offset="0.7" style="stop-color:#80BC41"/>
			<stop  offset="1" style="stop-color:#84BD40"/>
		</linearGradient>
		
			<rect x="82.1" y="61.2" style="fill:url(#SVGID_00000021837701901931227230000001785248800125735843_);" width="8.4" height="15.5"/>
	</g>
</g>
<path class="st24" d="M41.8,80l1.7-27.3c6.5,2.2,13.1,4.6,18.9,6.9c10,4,7.3,8.2-3.7,13.1C56.4,73.8,47.5,77.5,41.8,80"/>
<path class="st25" d="M47.8,106h-7.6l1.5-24.5c5.6-2.2,14.9-5.7,17.3-6.6c20.2-7.2,8.7,6.1,2.2,14.5C58.7,92.6,52.2,100.6,47.8,106"
	/>
<path class="st26" d="M75.1,106H49.5c4.4-5.2,10.6-12.3,13-15.1c11.5-13.7,16.9-15.2,14.5,2.8C76.7,95.2,75.9,100.2,75.1,106"/>
<path class="st27" d="M97.8,106H76.8c1-5.7,1.9-10.6,2.2-12.1c4.2-22.7,9.1-10.5,14.2,1.4C94.7,98.9,96.3,102.4,97.8,106"/>
<path class="st28" d="M108.7,88.8l1.1,17.2H99.6c-1.8-4-3.5-8-5.1-12c-4.6-12.3-7.5-23.3,6-11.9C101.7,83,105.2,85.9,108.7,88.8"/>
<path class="st29" d="M107.4,67l1.2,19.9c-3.3-2.8-6.3-5.6-7.4-6.6c-12.6-12-6.2-13.9,5.3-13.3C106.8,66.9,107.1,67,107.4,67"/>
<path class="st30" d="M106.1,46.7l1.2,18.9c-0.7-0.1-1.2-0.1-1.8-0.2c-8.2-0.9-19-2.6-8.8-11.1C98.1,53,104.1,48.2,106.1,46.7"/>
<path class="st31" d="M86.6,34.9h18.7l0.6,10.2c-0.1,0.1-0.1,0.1-0.2,0.2c-1.6,1.3-8.5,6.7-10.2,7.9c-10.6,7.3-10.7-1.3-9.8-10.7
	C86,39.9,86.4,37.4,86.6,34.9"/>
<path class="st32" d="M64.1,34.9h21.4c-0.3,2.4-0.7,4.8-1,7.2c-1.5,9.7-3.9,17.3-12.2,6.1C71,46.5,66.1,38.2,64.1,34.9"/>
<path class="st33" d="M44.6,34.9h18c1.4,2.4,6.2,11.8,7.2,13.7c6.3,11.6-0.2,10.5-6.7,8.7c-6.5-1.8-13.1-3.9-19.6-6L44.6,34.9
	L44.6,34.9z"/>
<path class="st34" d="M94,39.2c1.8,0,3.3,1.5,3.3,3.3s-1.5,3.3-3.3,3.3s-3.3-1.5-3.3-3.3S92.2,39.2,94,39.2"/>
<path class="st34" d="M56.1,39.2c1.8,0,3.3,1.5,3.3,3.3s-1.5,3.3-3.3,3.3s-3.3-1.5-3.3-3.3S54.2,39.2,56.1,39.2"/>
<path d="M54.2,41.9c0.4-6.5,3-27.5,21.7-27.1c18.7,0.5,19.8,20.9,19.7,27.3c-0.1,3.1-3.7,2.7-3.6,0c0.1-5.6-0.8-23.2-16.2-23.6
	c-15.3-0.4-17.4,17.8-17.8,23.8C57.9,45.3,54,45,54.2,41.9"/>
<path class="st35" d="M0,133.8c0,0,0-0.1,0-0.1l0.3-0.4c0,0,0.1,0,0.1,0c0.3,0.3,0.8,0.5,1.4,0.5c0.7,0,1.1-0.4,1.1-0.9
	c0-0.4-0.2-0.7-1.1-0.8l-0.3,0c-1-0.1-1.5-0.6-1.5-1.4c0-0.9,0.6-1.5,1.7-1.5c0.6,0,1.2,0.2,1.6,0.5c0,0,0,0.1,0,0.1l-0.2,0.4
	c0,0-0.1,0-0.1,0c-0.4-0.2-0.8-0.4-1.2-0.4c-0.6,0-1,0.3-1,0.8c0,0.4,0.3,0.7,1.1,0.8l0.3,0c1,0.1,1.5,0.6,1.5,1.4
	c0,0.9-0.6,1.5-1.9,1.5C1.1,134.4,0.4,134.2,0,133.8"/>
<path class="st35" d="M8.5,129.3C8.5,129.3,8.5,129.2,8.5,129.3l3.1-0.1c0,0,0.1,0,0.1,0.1v0.5c0,0,0,0.1-0.1,0.1H9.2c0,0,0,0,0,0.1
	v1.5c0,0,0,0,0,0h2.1c0,0,0.1,0,0.1,0.1v0.5c0,0,0,0.1-0.1,0.1H9.2c0,0,0,0,0,0.1v1.6c0,0,0,0.1,0.1,0.1h2.4c0,0,0.1,0,0.1,0.1v0.5
	c0,0,0,0.1-0.1,0.1H8.6c0,0-0.1,0-0.1-0.1L8.5,129.3L8.5,129.3z"/>
<path class="st35" d="M16.3,131.8c0-0.9,0-1.1,0.1-1.4c0.3-0.8,0.9-1.2,1.7-1.2c0.8,0,1.4,0.4,1.6,1c0,0,0,0.1,0,0.1l-0.5,0.2
	c0,0-0.1,0-0.1,0c-0.2-0.4-0.5-0.7-1-0.7s-0.9,0.3-1.1,0.8c-0.1,0.2-0.1,0.5-0.1,1.3c0,0.8,0,1.1,0.1,1.3c0.2,0.5,0.5,0.8,1.1,0.8
	s0.9-0.3,1-0.7c0,0,0.1-0.1,0.1,0l0.5,0.2c0,0,0,0.1,0,0.1c-0.3,0.6-0.9,1-1.6,1c-0.8,0-1.4-0.4-1.7-1.2
	C16.3,132.9,16.3,132.6,16.3,131.8"/>
<path class="st35" d="M25.5,134.3C25.5,134.3,25.4,134.3,25.5,134.3l-0.1-4.4c0,0,0-0.1,0-0.1H24c0,0-0.1,0-0.1-0.1v-0.5
	c0,0,0-0.1,0.1-0.1h3.6c0,0,0.1,0,0.1,0.1v0.5c0,0,0,0.1-0.1,0.1h-1.4c0,0,0,0,0,0v4.4c0,0,0,0.1-0.1,0.1L25.5,134.3L25.5,134.3z"/>
<path class="st35" d="M31.9,133.2c-0.1-0.3-0.1-0.6-0.1-1.4c0-0.8,0-1.1,0.1-1.4c0.3-0.8,0.9-1.2,1.7-1.2s1.5,0.4,1.7,1.2
	c0.1,0.3,0.1,0.6,0.1,1.4s0,1.1-0.1,1.4c-0.3,0.8-0.9,1.2-1.7,1.2S32.2,134,31.9,133.2 M34.8,133c0.1-0.2,0.1-0.5,0.1-1.3
	c0-0.7,0-1.1-0.1-1.3c-0.2-0.5-0.5-0.8-1.1-0.8s-0.9,0.3-1.1,0.8c-0.1,0.2-0.1,0.5-0.1,1.3s0,1.1,0.1,1.3c0.2,0.5,0.5,0.8,1.1,0.8
	S34.6,133.5,34.8,133"/>
<path class="st35" d="M43.3,134.3C43.3,134.3,43.3,134.3,43.3,134.3l-1.1-2.2h-1.1c0,0,0,0,0,0v2c0,0,0,0.1-0.1,0.1h-0.5
	c0,0-0.1,0-0.1-0.1v-5c0,0,0-0.1,0.1-0.1h1.8c1,0,1.6,0.6,1.6,1.5c0,0.7-0.4,1.2-1,1.4l1.1,2.2c0,0,0,0.1,0,0.1L43.3,134.3
	L43.3,134.3z M43.2,130.7c0-0.5-0.3-0.9-1-0.9h-1.2c0,0,0,0,0,0v1.6c0,0,0,0,0,0h1.2C42.9,131.5,43.2,131.2,43.2,130.7"/>
<path class="st35" d="M54.9,131.6L54.9,131.6c-0.3-0.2-0.6-0.6-0.6-1.1c0-0.8,0.5-1.4,1.5-1.4s1.5,0.6,1.5,1.4
	c0,0.5-0.3,0.9-0.6,1.1l0,0c0.4,0.2,0.7,0.7,0.7,1.3c0,0.9-0.7,1.5-1.6,1.5s-1.6-0.6-1.6-1.5C54.2,132.3,54.5,131.9,54.9,131.6
	 M55.7,133.8c0.6,0,0.9-0.4,0.9-0.9s-0.4-0.9-0.9-0.9s-0.9,0.4-0.9,0.9S55.2,133.8,55.7,133.8 M56.6,130.5c0-0.4-0.3-0.8-0.8-0.8
	s-0.8,0.4-0.8,0.8s0.3,0.8,0.8,0.8C56.2,131.4,56.6,131,56.6,130.5"/>
<path class="st35" d="M62.7,131.6L62.7,131.6c-0.3-0.2-0.6-0.6-0.6-1.1c0-0.8,0.5-1.4,1.5-1.4c0.9,0,1.5,0.6,1.5,1.4
	c0,0.5-0.3,0.9-0.6,1.1l0,0c0.4,0.2,0.7,0.7,0.7,1.3c0,0.9-0.7,1.5-1.6,1.5s-1.6-0.6-1.6-1.5C62,132.3,62.3,131.9,62.7,131.6
	 M63.6,133.8c0.6,0,0.9-0.4,0.9-0.9s-0.4-0.9-0.9-0.9s-0.9,0.4-0.9,0.9S63,133.8,63.6,133.8 M64.4,130.5c0-0.4-0.3-0.8-0.8-0.8
	s-0.8,0.4-0.8,0.8s0.3,0.8,0.8,0.8S64.4,131,64.4,130.5"/>
<path class="st35" d="M71.3,129.3C71.3,129.3,71.4,129.2,71.3,129.3l0.6-0.1c0.1,0,0.1,0,0.1,0.1l1.8,5c0,0,0,0.1-0.1,0.1h-0.5
	c-0.1,0-0.1,0-0.1-0.1l-0.4-1.1h-2.1l-0.4,1.1c0,0.1-0.1,0.1-0.1,0.1h-0.5c0,0-0.1,0-0.1-0.1L71.3,129.3L71.3,129.3z M72.5,132.5
	l-0.8-2.3h0l-0.8,2.3H72.5z"/>
<path class="st35" d="M76.9,133.5h0.5c0,0,0.1,0,0.1,0.1v0.7c0,0.1,0,0.1-0.1,0.2l-0.5,0.6c0,0-0.1,0.1-0.1,0.1s-0.1,0-0.1-0.1
	L76.9,133.5C76.8,133.6,76.9,133.5,76.9,133.5"/>
<path class="st35" d="M86,131.8c0-0.8,0-1.1,0.1-1.4c0.3-0.8,0.9-1.2,1.8-1.2s1.4,0.4,1.7,1c0,0,0,0.1,0,0.1l-0.4,0.2
	c0,0-0.1,0-0.1,0c-0.2-0.5-0.6-0.7-1.1-0.7c-0.6,0-0.9,0.3-1.1,0.8c-0.1,0.2-0.1,0.5-0.1,1.3s0,1.1,0.1,1.3c0.2,0.5,0.5,0.8,1.1,0.8
	c0.5,0,0.9-0.2,1.1-0.7c0.1-0.2,0.1-0.4,0.1-0.8c0,0,0,0,0,0h-1c0,0-0.1,0-0.1-0.1v-0.4c0,0,0-0.1,0.1-0.1h1.6c0,0,0.1,0,0.1,0.1
	v0.4c0,0.5-0.1,0.9-0.1,1.1c-0.2,0.8-0.9,1.2-1.7,1.2c-0.9,0-1.5-0.4-1.8-1.2C86.1,132.9,86,132.6,86,131.8"/>
<path class="st35" d="M94.6,132.5v-3.2c0,0,0-0.1,0.1-0.1h0.5c0,0,0.1,0,0.1,0.1v3.2c0,0.8,0.5,1.2,1.1,1.2s1.1-0.4,1.1-1.2v-3.2
	c0,0,0-0.1,0.1-0.1h0.5c0,0,0.1,0,0.1,0.1v3.2c0,1.2-0.7,1.9-1.8,1.9C95.2,134.4,94.6,133.7,94.6,132.5"/>
<path class="st35" d="M106.1,134.3C106.1,134.3,106,134.3,106.1,134.3l-1.1-2.2h-1.1c0,0-0.1,0-0.1,0v2c0,0,0,0.1-0.1,0.1h-0.5
	c0,0-0.1,0-0.1-0.1v-5c0,0,0-0.1,0.1-0.1h1.8c0.9,0,1.6,0.6,1.6,1.5c0,0.7-0.4,1.2-1,1.4l1.1,2.2c0,0,0,0.1,0,0.1L106.1,134.3
	L106.1,134.3z M106,130.7c0-0.5-0.3-0.9-0.9-0.9h-1.2c0,0,0,0,0,0v1.6c0,0,0,0.1,0,0.1h1.2C105.7,131.5,106,131.2,106,130.7"/>
<path class="st35" d="M111.5,132.5v-3.2c0,0,0-0.1,0.1-0.1h0.5c0,0,0.1,0,0.1,0.1v3.2c0,0.8,0.5,1.2,1.1,1.2s1.1-0.4,1.1-1.2v-3.2
	c0,0,0-0.1,0.1-0.1h0.5c0,0,0.1,0,0.1,0.1v3.3c0,1.2-0.7,1.9-1.8,1.9S111.5,133.7,111.5,132.5"/>
<path class="st35" d="M119.9,131.8c0-0.8,0-1.1,0.1-1.4c0.3-0.8,0.9-1.2,1.8-1.2s1.4,0.4,1.7,1c0,0,0,0.1,0,0.1l-0.4,0.2
	c0,0-0.1,0-0.1,0c-0.2-0.5-0.6-0.7-1.1-0.7c-0.6,0-0.9,0.3-1.1,0.8c-0.1,0.2-0.1,0.5-0.1,1.3s0,1.1,0.1,1.3c0.2,0.5,0.5,0.8,1.1,0.8
	c0.5,0,0.9-0.2,1.1-0.7c0.1-0.2,0.1-0.4,0.1-0.8c0,0,0,0,0,0h-1c0,0-0.1,0-0.1-0.1v-0.4c0,0,0-0.1,0.1-0.1h1.6c0,0,0.1,0,0.1,0.1
	v0.4c0,0.5-0.1,0.9-0.1,1.1c-0.2,0.8-0.9,1.2-1.7,1.2s-1.5-0.4-1.8-1.2C120,132.9,120,132.6,119.9,131.8"/>
<path class="st35" d="M131.5,134.3c-0.1,0-0.1,0-0.1-0.1l-1-2.1h-1.1c0,0-0.1,0-0.1,0.1v2c0,0,0,0.1-0.1,0.1h-0.5c0,0-0.1,0-0.1-0.1
	v-5c0,0,0-0.1,0.1-0.1h1.9c0.9,0,1.6,0.6,1.6,1.5c0,0.7-0.4,1.2-1,1.4l1.1,2.2c0,0,0,0.1,0,0.1L131.5,134.3L131.5,134.3z
	 M131.4,130.7c0-0.5-0.4-0.9-0.9-0.9h-1.2c0,0,0,0,0,0.1v1.6c0,0,0,0,0,0h1.2C131,131.5,131.4,131.2,131.4,130.7"/>
<path class="st35" d="M138.3,129.3C138.3,129.3,138.3,129.2,138.3,129.3l0.6-0.1c0.1,0,0.1,0,0.1,0.1l1.8,5c0,0,0,0.1-0.1,0.1h-0.5
	c-0.1,0-0.1,0-0.1-0.1l-0.4-1.1h-2.1l-0.4,1.1c0,0.1-0.1,0.1-0.1,0.1h-0.5c0,0-0.1,0-0.1-0.1L138.3,129.3L138.3,129.3z M139.4,132.5
	l-0.8-2.3h0l-0.8,2.3H139.4z"/>
<path class="st35" d="M145.2,129.3C145.2,129.3,145.3,129.2,145.2,129.3l0.6-0.1c0.1,0,0.1,0,0.1,0.1l1.5,3.4h0l1.5-3.4
	c0-0.1,0.1-0.1,0.1-0.1h0.5c0,0,0.1,0,0.1,0.1v5c0,0,0,0.1-0.1,0.1h-0.5c0,0-0.1,0-0.1-0.1v-3.6h0l-1.3,2.8c0,0.1-0.1,0.1-0.1,0.1
	h-0.3c-0.1,0-0.1,0-0.1-0.1l-1.3-2.8h0v3.6c0,0,0,0.1-0.1,0.1h-0.5c0,0-0.1,0-0.1-0.1L145.2,129.3L145.2,129.3z"/>
<rect x="0" y="125.8" class="st35" width="149.9" height="0.3"/>
<path class="st35" d="M2.7,123c-1.7,0-2.6-1-2.7-2.9c0-0.1,0-0.2,0.1-0.2l1-0.2c0.1,0,0.2,0.1,0.2,0.2c0.1,1.4,0.5,1.9,1.4,1.9
	s1.3-0.4,1.3-2c0-1.3-0.2-1.8-1.2-2.2l-0.7-0.3c-1.6-0.6-2-1.4-2-3.2c0-2,0.8-3,2.6-3s2.5,0.9,2.6,2.7c0,0.1-0.1,0.2-0.2,0.2
	l-0.9,0.2c-0.1,0-0.2,0-0.2-0.1c0-1.1-0.4-1.7-1.3-1.7s-1.2,0.5-1.2,1.7s0.3,1.6,1.2,1.9l0.7,0.3c1.5,0.6,2,1.3,2,3.2
	C5.4,122,4.7,123,2.7,123"/>
<path class="st35" d="M7.2,111.4h1c0.1,0,0.2,0.1,0.2,0.2v11.1c0,0.1-0.1,0.2-0.2,0.2h-1c-0.1,0-0.2-0.1-0.2-0.2v-11.1
	C7,111.5,7.1,111.4,7.2,111.4z"/>
<path class="st35" d="M10.2,117.2c0-3.2,0.1-3.7,0.2-4.2c0.4-1.1,1.2-1.7,2.5-1.7c1.6,0,2.5,0.9,2.7,2.5c0,0.1,0,0.2-0.1,0.2
	l-0.9,0.2c-0.1,0-0.2,0-0.2-0.1c-0.1-0.9-0.6-1.5-1.4-1.5c-0.6,0-1.1,0.3-1.2,0.8c-0.1,0.3-0.1,0.6-0.1,3.8s0,3.5,0.1,3.8
	c0.2,0.5,0.6,0.8,1.2,0.8s1.1-0.3,1.2-0.8c0.1-0.3,0.1-0.6,0.1-2.9c0-0.1,0-0.1-0.1-0.1h-1.1c-0.1,0-0.2-0.1-0.2-0.2v-0.9
	c0-0.1,0.1-0.2,0.2-0.2h2.4c0.1,0,0.2,0.1,0.2,0.2v0.5c0,3.1-0.1,3.5-0.2,4c-0.3,1.1-1.2,1.7-2.5,1.7s-2.2-0.6-2.5-1.7
	C10.3,120.8,10.2,120.4,10.2,117.2"/>
<path class="st35" d="M17.4,111.6c0-0.1,0.1-0.2,0.2-0.2h1.3c0.1,0,0.2,0.1,0.2,0.2l2.6,8.6h0.1v-8.6c0-0.1,0.1-0.2,0.2-0.2h0.9
	c0.1,0,0.2,0.1,0.2,0.2v11.1c0,0.1-0.1,0.2-0.2,0.2h-1.2c-0.1,0-0.2-0.1-0.2-0.2l-2.6-8.6h-0.1v8.6c0,0.1-0.1,0.2-0.2,0.2h-0.9
	c-0.1,0-0.2-0.1-0.2-0.2C17.4,122.7,17.4,111.6,17.4,111.6z"/>
<path class="st35" d="M26.8,111.6c0-0.1,0.1-0.2,0.2-0.2h1c0.1,0,0.2,0.1,0.2,0.2l2.4,11.1c0,0.1,0,0.2-0.1,0.2h-1
	c-0.1,0-0.2-0.1-0.2-0.2l-0.5-2.5h-2.5l-0.5,2.5c0,0.1-0.1,0.2-0.2,0.2h-1c-0.1,0-0.2-0.1-0.1-0.2L26.8,111.6L26.8,111.6z M28.5,119
	l-1-5h0l-1,5H28.5L28.5,119z"/>
<path class="st35" d="M32.6,122.9c-0.1,0-0.2-0.1-0.2-0.2v-9.9c0-0.1,0-0.1-0.1-0.1h-1.9c-0.1,0-0.2-0.1-0.2-0.2v-0.9
	c0-0.1,0.1-0.2,0.2-0.2h5.3c0.1,0,0.2,0.1,0.2,0.2v0.9c0,0.1-0.1,0.2-0.2,0.2h-1.9c-0.1,0-0.1,0-0.1,0.1v9.9c0,0.1-0.1,0.2-0.2,0.2
	C33.7,122.9,32.6,122.9,32.6,122.9z"/>
<path class="st35" d="M37.2,120.1v-8.5c0-0.1,0.1-0.2,0.2-0.2h1c0.1,0,0.2,0.1,0.2,0.2v8.7c0,1,0.5,1.5,1.3,1.5s1.3-0.5,1.3-1.5
	v-8.7c0-0.1,0.1-0.2,0.2-0.2h1c0.1,0,0.2,0.1,0.2,0.2v8.5c0,2-1,3-2.7,3S37.3,122,37.2,120.1"/>
<path class="st35" d="M48.9,122.9c-0.1,0-0.2,0-0.2-0.1l-1.4-4.8c-0.2,0-0.3,0-0.5,0h-0.7c-0.1,0-0.1,0-0.1,0.1v4.6
	c0,0.1-0.1,0.2-0.2,0.2h-1c-0.1,0-0.2-0.1-0.2-0.2v-11.1c0-0.1,0.1-0.2,0.2-0.2h2c2,0,3.1,0.9,3.1,3.3c0,1.5-0.5,2.5-1.4,2.9
	l1.6,5.1c0,0.1,0,0.2-0.1,0.2C50,122.9,48.9,122.9,48.9,122.9z M48.5,114.7c0-1.6-0.5-2-1.7-2h-0.7c-0.1,0-0.1,0-0.1,0.1v3.9
	c0,0.1,0,0.1,0.1,0.1h0.7C48,116.8,48.5,116.3,48.5,114.7"/>
<path class="st35" d="M51.7,111.6c0-0.1,0.1-0.2,0.2-0.2h4.3c0.1,0,0.2,0.1,0.2,0.2v0.9c0,0.1-0.1,0.2-0.2,0.2h-3
	c-0.1,0-0.1,0-0.1,0.1v3.6c0,0.1,0,0.1,0.1,0.1h2.6c0.1,0,0.2,0.1,0.2,0.2v0.9c0,0.1-0.1,0.2-0.2,0.2h-2.6c-0.1,0-0.1,0-0.1,0.1v3.7
	c0,0.1,0,0.1,0.1,0.1h3c0.1,0,0.2,0.1,0.2,0.2v0.9c0,0.1-0.1,0.2-0.2,0.2h-4.3c-0.1,0-0.2-0.1-0.2-0.2
	C51.7,122.7,51.7,111.6,51.7,111.6z"/>
<path class="st35" d="M60.9,117.2c0-3.2,0-3.7,0.2-4.2c0.3-1.1,1.2-1.7,2.5-1.7c1.6,0,2.5,0.9,2.7,2.5c0,0.1,0,0.2-0.1,0.2l-0.9,0.2
	c-0.1,0-0.2,0-0.2-0.1c-0.1-0.9-0.6-1.5-1.4-1.5c-0.6,0-1,0.3-1.2,0.8c-0.1,0.3-0.2,0.6-0.2,3.8s0,3.5,0.2,3.8
	c0.2,0.5,0.6,0.8,1.2,0.8s1.1-0.3,1.2-0.8c0.1-0.3,0.2-0.6,0.2-2.9c0-0.1,0-0.1-0.1-0.1h-1.1c-0.1,0-0.2-0.1-0.2-0.2v-0.9
	c0-0.1,0.1-0.2,0.2-0.2h2.4c0.1,0,0.2,0.1,0.2,0.2v0.5c0,3.1-0.1,3.5-0.2,4c-0.3,1.1-1.2,1.7-2.5,1.7s-2.2-0.6-2.5-1.7
	C61,120.8,60.9,120.4,60.9,117.2"/>
<path class="st35" d="M68.1,111.6c0-0.1,0.1-0.2,0.2-0.2h1c0.1,0,0.2,0.1,0.2,0.2v9.9c0,0.1,0,0.1,0.1,0.1h3c0.1,0,0.2,0.1,0.2,0.2
	v0.9c0,0.1-0.1,0.2-0.2,0.2h-4.3c-0.1,0-0.2-0.1-0.2-0.2C68.1,122.7,68.1,111.6,68.1,111.6z"/>
<path class="st35" d="M73.8,121.3c-0.2-0.5-0.2-0.9-0.2-4.2s0.1-3.7,0.2-4.2c0.3-1.1,1.2-1.7,2.5-1.7s2.2,0.6,2.5,1.7
	c0.2,0.5,0.2,0.9,0.2,4.2s-0.1,3.7-0.2,4.2c-0.3,1.1-1.2,1.7-2.5,1.7S74.1,122.4,73.8,121.3 M77.5,120.9c0.1-0.3,0.1-0.6,0.1-3.8
	s0-3.5-0.1-3.8c-0.2-0.5-0.6-0.8-1.2-0.8s-1,0.3-1.2,0.8c-0.1,0.3-0.2,0.6-0.2,3.8s0,3.5,0.2,3.8c0.2,0.5,0.6,0.8,1.2,0.8
	S77.4,121.5,77.5,120.9"/>
<path class="st35" d="M80.9,111.6c0-0.1,0.1-0.2,0.2-0.2h2.2c2,0,2.8,0.9,2.8,2.9c0,1.4-0.5,2.1-1.3,2.5v0c0.9,0.3,1.4,1.1,1.4,2.7
	c0,2.5-1,3.3-3.1,3.3h-2c-0.1,0-0.2-0.1-0.2-0.2L80.9,111.6L80.9,111.6z M83.2,116.4c1.1,0,1.5-0.4,1.5-1.8s-0.4-1.8-1.6-1.8h-0.8
	c-0.1,0-0.1,0-0.1,0.1v3.5c0,0.1,0,0.1,0.1,0.1H83.2L83.2,116.4z M82.3,121.6h0.8c1.2,0,1.7-0.4,1.7-2s-0.5-2-1.7-2h-0.8
	c-0.1,0-0.1,0-0.1,0.1v3.8C82.2,121.6,82.3,121.6,82.3,121.6"/>
<path class="st35" d="M89.4,111.6c0-0.1,0.1-0.2,0.2-0.2h1c0.1,0,0.2,0.1,0.2,0.2l2.4,11.1c0,0.1-0.1,0.2-0.2,0.2h-1
	c-0.1,0-0.2-0.1-0.2-0.2l-0.5-2.5h-2.6l-0.5,2.5c0,0.1-0.1,0.2-0.2,0.2h-1c-0.1,0-0.2-0.1-0.2-0.2L89.4,111.6L89.4,111.6z M91.1,119
	l-1-5h-0.1l-1.1,5H91.1L91.1,119z"/>
<path class="st35" d="M94.6,111.6c0-0.1,0.1-0.2,0.2-0.2h1c0.1,0,0.2,0.1,0.2,0.2v9.9c0,0.1,0,0.1,0.1,0.1h3c0.1,0,0.2,0.1,0.2,0.2
	v0.9c0,0.1-0.1,0.2-0.2,0.2h-4.3c-0.1,0-0.2-0.1-0.2-0.2C94.6,122.7,94.6,111.6,94.6,111.6z"/>
<path class="st35" d="M104.1,121.4c-0.1-0.1-0.1-0.2,0-0.3l1.5-1.8c0.1-0.1,0.2-0.1,0.2,0c0.7,0.6,1.8,1.2,2.9,1.2
	c1.1,0,1.6-0.4,1.6-1.1c0-0.5-0.3-0.8-1.4-1l-0.6-0.1c-2.5-0.3-3.8-1.5-3.8-3.6s1.7-3.6,4.3-3.6c1.6,0,3.1,0.5,4.1,1.3
	c0.1,0.1,0.1,0.2,0,0.2l-1.3,1.8c-0.1,0.1-0.2,0.1-0.2,0.1c-0.8-0.5-1.7-0.9-2.6-0.9c-0.8,0-1.3,0.4-1.3,1c0,0.5,0.4,0.8,1.5,1
	l0.6,0.1c2.5,0.3,3.8,1.5,3.8,3.6s-1.6,3.7-4.7,3.7C106.8,123.1,104.9,122.3,104.1,121.4"/>
<path class="st35" d="M114.5,117.2c0-1.7,0.1-2.3,0.3-3.1c0.6-1.9,2.1-2.8,4.2-2.8s3.5,1,4.1,2.6c0.1,0.1,0,0.2-0.1,0.2l-2.2,1
	c-0.1,0.1-0.2,0-0.2-0.1c-0.3-0.7-0.7-1.1-1.5-1.1c-0.7,0-1.2,0.3-1.4,1c-0.1,0.3-0.2,0.7-0.2,2.3s0.1,1.9,0.2,2.3
	c0.2,0.6,0.7,1,1.4,1c0.8,0,1.2-0.4,1.5-1.1c0.1-0.1,0.1-0.2,0.2-0.1l2.2,1c0.1,0.1,0.1,0.1,0.1,0.2c-0.6,1.7-2.1,2.6-4.1,2.6
	s-3.6-1-4.2-2.8C114.6,119.5,114.5,118.8,114.5,117.2"/>
<path class="st35" d="M124.5,120.3c-0.3-0.9-0.3-1.6-0.3-3.1s0.1-2.2,0.3-3.1c0.6-1.9,2.3-2.8,4.3-2.8c2,0,3.7,0.9,4.3,2.8
	c0.3,0.9,0.3,1.6,0.3,3.1s-0.1,2.2-0.3,3.1c-0.6,1.9-2.3,2.8-4.3,2.8S125.1,122.1,124.5,120.3 M130.3,119.4c0.1-0.4,0.2-0.9,0.2-2.3
	s0-1.9-0.2-2.3c-0.2-0.6-0.7-1-1.5-1s-1.3,0.4-1.5,1c-0.1,0.4-0.2,0.9-0.2,2.3s0,1.9,0.2,2.3c0.2,0.6,0.7,1,1.5,1
	S130,120.1,130.3,119.4"/>
<path class="st35" d="M142,112.4h0.1l1.6,0v-0.9h-4.9v0.9h1.6c0,1.5,0,2.9,0,4.4v0.8c0,1.5,0,2.9,0,4.3h-1.6v0.9h4.9V122H142
	c0-1.4,0-2.9,0-4.3v-0.8C142,115.3,142,113.9,142,112.4"/>
<path class="st35" d="M148.2,112.4h0.1l1.6,0v-0.9h-4.9v0.9h1.6c0,1.5,0,2.9,0,4.4v0.8c0,1.5,0,2.9,0,4.3h-1.6v0.9h4.9V122h-1.7
	c0-1.4,0-2.9,0-4.3v-0.8C148.2,115.3,148.2,113.9,148.2,112.4"/>
</svg>
