<?xml version="1.0" encoding="UTF-8"?><svg id="Layer_1" xmlns="http://www.w3.org/2000/svg" xmlns:xlink="http://www.w3.org/1999/xlink" viewBox="0 0 150 150"><defs><style>.cls-1{fill:url(#linear-gradient-2);}.cls-2,.cls-3{fill:#fff;}.cls-4{fill:url(#linear-gradient-15);}.cls-3,.cls-5,.cls-6,.cls-7,.cls-8,.cls-9,.cls-10,.cls-11,.cls-12,.cls-13,.cls-14{fill-rule:evenodd;}.cls-15{fill:url(#linear-gradient-14);}.cls-16{fill:url(#linear-gradient-6);}.cls-17{fill:url(#linear-gradient-11);}.cls-5{fill:#35b98d;}.cls-6{fill:#ec008c;}.cls-7{fill:#48b749;}.cls-8{fill:#982370;}.cls-9{fill:#ed1c24;}.cls-18{fill:url(#linear-gradient-10);}.cls-19{fill:#39b54a;}.cls-20{fill:url(#linear-gradient-16);}.cls-10{fill:#f58120;}.cls-11{fill:#008ed4;}.cls-12{fill:#fdcc09;}.cls-21{fill:url(#linear-gradient-5);}.cls-13{fill:#005faa;}.cls-22{fill:url(#linear-gradient-7);}.cls-14{fill:#6d2d7f;}.cls-23{fill:url(#linear-gradient-9);}.cls-24{fill:url(#linear-gradient-3);}.cls-25{fill:url(#linear-gradient);}.cls-26{fill:#231f20;}.cls-27{fill:url(#linear-gradient-4);}.cls-28{fill:url(#linear-gradient-8);}.cls-29{fill:url(#linear-gradient-12);}.cls-30{fill:url(#linear-gradient-13);}</style><linearGradient id="linear-gradient" x1="83.68" y1="60.33" x2="88.86" y2="60.33" gradientTransform="translate(-.12 1.08) rotate(-.18) scale(1 1.02) skewX(-.36)" gradientUnits="userSpaceOnUse"><stop offset="0" stop-color="#001b00"/><stop offset=".7" stop-color="#5c792b"/><stop offset=".96" stop-color="#647c2a"/><stop offset="1" stop-color="#667d2a"/></linearGradient><linearGradient id="linear-gradient-2" x1="83.06" y1="69" x2="92.64" y2="69" gradientTransform="matrix(1, 0, 0, 1, 0, 0)" xlink:href="#linear-gradient"/><linearGradient id="linear-gradient-3" x1="72.04" y1="67.38" x2="88.45" y2="67.38" gradientTransform="matrix(1, 0, 0, 1, 0, 0)" xlink:href="#linear-gradient"/><linearGradient id="linear-gradient-4" x1="75.54" y1="75.4" x2="75.54" y2="75.4" gradientTransform="matrix(1, 0, 0, 1, 0, 0)" xlink:href="#linear-gradient"/><linearGradient id="linear-gradient-5" x1="84.32" y1="59.21" x2="92.58" y2="59.21" gradientTransform="matrix(1, 0, 0, 1, 0, 0)" xlink:href="#linear-gradient"/><linearGradient id="linear-gradient-6" x1="88.3" y1="59.21" x2="89.89" y2="59.21" gradientTransform="matrix(1, 0, 0, 1, 0, 0)" xlink:href="#linear-gradient"/><linearGradient id="linear-gradient-7" x1="88.45" y1="59.21" x2="88.45" y2="59.21" gradientTransform="matrix(1, 0, 0, 1, 0, 0)" xlink:href="#linear-gradient"/><linearGradient id="linear-gradient-8" x1="88.3" y1="59.21" x2="89.88" y2="59.21" gradientTransform="matrix(1, 0, 0, 1, 0, 0)" xlink:href="#linear-gradient"/><linearGradient id="linear-gradient-9" x1="83.37" y1="61.79" x2="88.55" y2="61.79" gradientUnits="userSpaceOnUse"><stop offset="0" stop-color="#007b38"/><stop offset=".7" stop-color="#80c342"/><stop offset=".92" stop-color="#88c440"/><stop offset="1" stop-color="#8dc63f"/></linearGradient><linearGradient id="linear-gradient-10" x1="75.48" y1="75.12" x2="75.48" y2="75.12" gradientUnits="userSpaceOnUse"><stop offset="0" stop-color="#1b7c42"/><stop offset=".7" stop-color="#7ec242"/><stop offset=".9" stop-color="#86c440"/><stop offset="1" stop-color="#8dc63f"/></linearGradient><linearGradient id="linear-gradient-11" x1="84.31" y1="59.21" x2="92.58" y2="59.21" xlink:href="#linear-gradient-10"/><linearGradient id="linear-gradient-12" x1="88.31" y1="59.21" x2="89.89" y2="59.21" xlink:href="#linear-gradient-10"/><linearGradient id="linear-gradient-13" x1="88.45" y1="59.21" x2="88.45" y2="59.21" xlink:href="#linear-gradient-10"/><linearGradient id="linear-gradient-14" x1="88.31" y1="59.21" x2="89.88" y2="59.21" xlink:href="#linear-gradient-10"/><linearGradient id="linear-gradient-15" x1="71.98" y1="67.07" x2="88.45" y2="67.07" xlink:href="#linear-gradient-9"/><linearGradient id="linear-gradient-16" x1="83.17" y1="68.99" x2="92.53" y2="68.99" xlink:href="#linear-gradient-9"/></defs><g><g><path class="cls-25" d="M88.57,62.61c-.23,1.16-1.56,1.86-2.98,1.58-1.41-.28-2.37-1.45-2.14-2.6,.23-1.16,1.56-1.86,2.98-1.58,1.41,.28,2.37,1.45,2.14,2.6Z"/><g><path class="cls-1" d="M89.71,60.34h0c.61,.8,.95,2.03,.76,2.98-.23,1.17-1.1,2.15-2.32,2.54-.93,.3-1.57,.21-.99,1.18,.51,.85,.97,1.38,1.29,2.16,1.19,2.97,.03,6.95-4.3,8.12-.33,.12-.69,.24-1.1,.35,5.67-.25,9.58-4.5,9.58-9.93,0-2.74-1.18-5.55-2.93-7.4Z"/><path class="cls-24" d="M84.66,67.1c-2.22-2.13-3.65-3.68-3.28-5.52,.41-2.03,2.71-3.49,5.22-2.99,.69,.14,1.31,.28,1.85,.62-1.72-1.31-3.81-1.81-6.14-1.81-2.71,0-5.65,1.03-7.1,3.47-.39,.67-.62,1.42-.6,2.2,.03,.93,.27,1.88,.75,2.66,2.1,3.42,4.05,2.97,5.11,5.62,.84,2.1-1.1,3.91-3.98,1.43-3.27-2.81-4.24-8.86-2.01-12.09-1.56,1.81-2.44,4.44-2.44,7.01,0,1.75,.45,3.5,1.3,5.03,.69,1.24,1.56,2.28,2.75,3.06,1.26,.82,2.74,1.38,4.25,1.52,.75,.07,1.51,.03,2.24-.14,1.19-.28,2.27-.91,3.16-1.74,2.64-2.45,1.13-6.21-1.09-8.34Z"/></g><polygon class="cls-27" points="75.54 75.4 75.54 75.4 75.54 75.4 75.54 75.4"/><polygon class="cls-21" points="88.45 59.21 88.45 59.21 88.45 59.21 88.45 59.21"/><polygon class="cls-16" points="88.45 59.21 88.45 59.21 88.45 59.21 88.45 59.21"/><polygon class="cls-22" points="88.45 59.21 88.45 59.21 88.45 59.21 88.45 59.21"/><polygon class="cls-28" points="88.45 59.21 88.45 59.21 88.45 59.21 88.45 59.21"/><path class="cls-23" d="M88.52,62.3c-.23,1.14-1.56,1.83-2.97,1.55s-2.37-1.43-2.15-2.57c.23-1.14,1.56-1.83,2.97-1.55,1.41,.28,2.37,1.43,2.15,2.57Z"/><polygon class="cls-18" points="75.48 75.12 75.48 75.12 75.48 75.12 75.48 75.12"/><polygon class="cls-17" points="88.45 59.21 88.45 59.21 88.45 59.21 88.45 59.21"/><polygon class="cls-29" points="88.45 59.21 88.45 59.21 88.45 59.21 88.45 59.21"/><polygon class="cls-30" points="88.45 59.21 88.45 59.21 88.45 59.21 88.45 59.21"/><polygon class="cls-15" points="88.45 59.21 88.45 59.21 88.45 59.21 88.45 59.21"/><g><path class="cls-4" d="M84.6,66.79c-2.22-2.12-3.65-3.73-3.28-5.56,.41-2.02,2.77-3.25,5.28-2.75,.69,.14,1.31,.39,1.85,.73-1.72-1.3-3.87-2.08-6.19-2.08-2.71,0-5.65,1.03-7.1,3.46-.39,.66-.62,1.42-.6,2.2,.03,.93,.38,1.81,.86,2.6,2.1,3.4,4.05,3.07,5.11,5.71,.84,2.09-1.21,3.84-4.09,1.37-3.27-2.8-4.18-8.56-1.95-11.77-1.56,1.8-2.5,4.15-2.5,6.71,0,1.75,.45,3.48,1.3,5.01,.69,1.23,1.56,2.27,2.75,3.05,1.26,.82,2.74,1.37,4.25,1.52,.75,.07,1.51,.03,2.24-.14,1.19-.28,2.27-.9,3.16-1.73,2.64-2.44,1.13-6.19-1.09-8.31Z"/><path class="cls-20" d="M89.71,60.34h0c.61,.8,.89,1.75,.7,2.71-.23,1.17-1.1,2.15-2.32,2.54-.93,.3-1.57,.16-.99,1.12,.51,.85,.97,1.27,1.29,2.05,.78,1.93,.56,4.43-.87,6.29-.02,.03-.04,.05-.05,.07,0,0,0,0,0,0-.01,.02-.03,.03-.04,.05-.27,.33-.61,.7-1.13,1.07-.03,.03-.07,.05-.11,.07-.04,.03-.07,.05-.11,.08-.33,.22-.7,.42-1.1,.59-.49,.22-1.09,.44-1.8,.65,5.24-.46,9.36-4.87,9.36-10.23,0-2.74-1.07-5.22-2.82-7.06Z"/></g></g><g><path class="cls-5" d="M38.16,81.26l1.93-30.5c7.31,2.51,14.67,5.17,21.15,7.73,11.12,4.44,8.15,9.14-4.13,14.62-2.66,1.25-12.64,5.43-18.96,8.15h0Z"/><path class="cls-7" d="M44.8,110.35h-8.46l1.72-27.41c6.27-2.45,16.66-6.37,19.32-7.36,22.56-7.99,9.66,6.79,2.45,16.19-2.77,3.55-10.08,12.53-15.04,18.59h0Z"/><path class="cls-12" d="M75.29,110.35h-28.56c4.96-5.8,11.8-13.73,14.46-16.87,12.85-15.3,18.85-16.97,16.19,3.08-.26,1.67-1.1,7.31-2.09,13.79h0Z"/><path class="cls-10" d="M100.77,110.35h-23.55c1.15-6.37,2.14-11.85,2.45-13.52,4.75-25.33,10.13-11.75,15.82,1.62,1.78,3.97,3.5,7.94,5.27,11.91h0Z"/><path class="cls-9" d="M112.94,91.08l1.2,19.27h-11.44c-1.98-4.44-3.92-8.93-5.64-13.42-5.17-13.73-8.35-26.01,6.74-13.32,1.31,1.04,5.17,4.23,9.14,7.47h0Z"/><path class="cls-6" d="M111.43,66.75l1.36,22.19c-3.66-3.19-7.05-6.21-8.25-7.36-14.1-13.42-6.89-15.51,5.9-14.88,.31,0,.63,.05,.99,.05h0Z"/><path class="cls-8" d="M109.96,44.03l1.36,21.1c-.73-.05-1.36-.16-1.98-.21-9.19-1.04-21.2-2.92-9.87-12.38,1.57-1.36,8.25-6.74,10.5-8.51h0Z"/><path class="cls-14" d="M88.24,30.87h20.94l.68,11.44c-.05,.1-.16,.16-.21,.21-1.78,1.41-9.5,7.52-11.44,8.82-11.85,8.2-11.91-1.46-10.91-11.96,.26-2.87,.63-5.69,.94-8.51h0Z"/><path class="cls-13" d="M63.02,30.87h23.97c-.31,2.66-.73,5.38-1.15,8.09-1.72,10.86-4.39,19.37-13.68,6.79-1.36-1.93-6.89-11.17-9.14-14.88h0Z"/><path class="cls-11" d="M41.3,30.87h20.16c1.57,2.66,6.94,13.16,8.09,15.3,7.05,13-.21,11.75-7.52,9.77-7.31-2.04-14.62-4.39-21.88-6.74l1.15-18.33Z"/><path class="cls-3" d="M96.44,35.73c1.98,0,3.66,1.62,3.66,3.66s-1.67,3.66-3.66,3.66-3.71-1.67-3.71-3.66,1.67-3.66,3.71-3.66h0Z"/><path class="cls-3" d="M54.09,35.73c2.04,0,3.66,1.62,3.66,3.66s-1.62,3.66-3.66,3.66-3.66-1.67-3.66-3.66,1.62-3.66,3.66-3.66h0Z"/><path class="cls-26" d="M52.05,38.76c.42-7.26,3.39-30.76,24.28-30.23,20.83,.52,22.14,23.29,22.04,30.44-.05,3.45-4.07,3.03-4.02-.05,.1-6.21-.89-25.95-18.12-26.37-17.08-.42-19.48,19.84-19.89,26.58-.21,3.39-4.49,3.08-4.28-.37h0Z"/></g></g><rect class="cls-2" x=".64" y="132.24" width="149.11" height=".44"/><path class="cls-2" d="M3.63,129.38c-1.94,0-2.92-1.09-3.01-3.3,0-.11,.04-.19,.15-.21l1.11-.21c.13-.02,.21,.06,.21,.17,.08,1.58,.58,2.15,1.56,2.15s1.43-.47,1.43-2.2c0-1.47-.28-2.02-1.3-2.41l-.77-.3c-1.75-.68-2.24-1.54-2.24-3.52,0-2.18,.94-3.31,2.86-3.31s2.81,1.05,2.9,3.05c0,.11-.06,.19-.17,.21l-1.05,.17c-.11,.04-.21-.04-.21-.15-.04-1.26-.45-1.88-1.43-1.88s-1.39,.56-1.39,1.86,.3,1.77,1.34,2.17l.77,.3c1.64,.66,2.22,1.51,2.22,3.64,0,2.58-.81,3.79-2.98,3.79Z"/><path class="cls-2" d="M8.45,116.59c0-.11,.08-.19,.19-.19h1.15c.11,0,.19,.08,.19,.19v12.43c0,.11-.08,.19-.19,.19h-1.15c-.11,0-.19-.08-.19-.19v-12.43Z"/><path class="cls-2" d="M12.02,122.8c0-3.64,.06-4.11,.24-4.67,.4-1.22,1.36-1.9,2.81-1.9,1.77,0,2.77,1,2.98,2.79,.02,.11-.02,.21-.13,.23l-1.05,.21c-.13,.02-.21-.04-.23-.15-.13-1.05-.62-1.64-1.54-1.64-.68,0-1.17,.32-1.36,.9-.13,.38-.17,.66-.17,4.24s.04,3.86,.17,4.24c.19,.58,.7,.9,1.38,.9s1.19-.32,1.37-.9c.11-.36,.17-.66,.17-3.28,0-.08-.04-.11-.11-.11h-1.26c-.11,0-.19-.08-.19-.19v-1c0-.11,.08-.19,.19-.19h2.66c.11,0,.19,.08,.19,.19v.55c0,3.43-.06,3.9-.25,4.46-.38,1.22-1.36,1.9-2.81,1.9s-2.41-.68-2.81-1.9c-.19-.56-.24-1.04-.24-4.67Z"/><path class="cls-2" d="M20.08,116.59c0-.11,.08-.19,.19-.19h1.41c.15,0,.24,.06,.28,.19l2.86,9.61h.08v-9.61c0-.11,.08-.19,.19-.19h1c.11,0,.19,.08,.19,.19v12.43c0,.11-.08,.19-.19,.19h-1.34c-.15,0-.25-.06-.28-.19l-2.92-9.61h-.09v9.61c0,.11-.08,.19-.19,.19h-1c-.11,0-.19-.08-.19-.19v-12.43Z"/><path class="cls-2" d="M30.48,116.59c.04-.11,.09-.19,.21-.19h1.13c.11,0,.19,.08,.21,.19l2.69,12.43c.02,.11-.06,.19-.17,.19h-1.13c-.13,0-.19-.08-.21-.19l-.57-2.81h-2.84l-.57,2.81c-.02,.11-.08,.19-.19,.19h-1.13c-.11,0-.19-.08-.17-.19l2.73-12.43Zm1.9,8.31l-1.09-5.58h-.06l-1.17,5.58h2.32Z"/><path class="cls-2" d="M37.05,129.21c-.11,0-.19-.08-.19-.19v-11.1c0-.07-.04-.11-.11-.11h-2.11c-.11,0-.19-.07-.19-.19v-1.04c0-.11,.08-.19,.19-.19h5.97c.11,0,.19,.08,.19,.19v1.04c0,.11-.08,.19-.19,.19h-2.11c-.08,0-.11,.04-.11,.11v11.1c0,.11-.08,.19-.19,.19h-1.15Z"/><path class="cls-2" d="M42.21,126.06v-9.48c0-.11,.08-.19,.19-.19h1.15c.11,0,.19,.08,.19,.19v9.66c0,1.11,.57,1.7,1.47,1.7s1.47-.58,1.47-1.7v-9.66c0-.11,.08-.19,.19-.19h1.15c.11,0,.19,.08,.19,.19v9.48c0,2.2-1.17,3.32-3,3.32s-2.99-1.11-2.99-3.32Z"/><path class="cls-2" d="M55.19,129.21c-.11,0-.17-.04-.21-.13l-1.6-5.35c-.17,.02-.36,.02-.53,.02h-.77c-.08,0-.11,.04-.11,.11v5.16c0,.11-.08,.19-.19,.19h-1.15c-.11,0-.19-.08-.19-.19v-12.43c0-.11,.08-.19,.19-.19h2.24c2.26,0,3.47,.98,3.47,3.69,0,1.71-.57,2.75-1.56,3.26l1.79,5.67c.04,.09,0,.19-.09,.19h-1.28Zm-.38-9.12c0-1.73-.56-2.28-1.92-2.28h-.81c-.08,0-.11,.04-.11,.11v4.33c0,.07,.04,.11,.11,.11h.81c1.32,0,1.92-.53,1.92-2.28Z"/><path class="cls-2" d="M58.37,116.59c0-.11,.08-.19,.19-.19h4.84c.11,0,.19,.08,.19,.19v1.04c0,.11-.08,.19-.19,.19h-3.39c-.08,0-.11,.04-.11,.11v3.99c0,.08,.04,.11,.11,.11h2.94c.11,0,.19,.07,.19,.19v1.04c0,.11-.08,.19-.19,.19h-2.94c-.08,0-.11,.04-.11,.11v4.13c0,.08,.04,.11,.11,.11h3.39c.11,0,.19,.08,.19,.19v1.04c0,.11-.08,.19-.19,.19h-4.84c-.11,0-.19-.08-.19-.19v-12.43Z"/><path class="cls-2" d="M68.65,122.8c0-3.64,.06-4.11,.24-4.67,.4-1.22,1.36-1.9,2.81-1.9,1.77,0,2.77,1,2.98,2.79,.02,.11-.02,.21-.13,.23l-1.05,.21c-.13,.02-.21-.04-.23-.15-.13-1.05-.62-1.64-1.54-1.64-.68,0-1.17,.32-1.36,.9-.13,.38-.17,.66-.17,4.24s.04,3.86,.17,4.24c.19,.58,.7,.9,1.38,.9s1.19-.32,1.37-.9c.11-.36,.17-.66,.17-3.28,0-.08-.04-.11-.11-.11h-1.26c-.11,0-.19-.08-.19-.19v-1c0-.11,.08-.19,.19-.19h2.66c.11,0,.19,.08,.19,.19v.55c0,3.43-.06,3.9-.25,4.46-.38,1.22-1.36,1.9-2.81,1.9s-2.41-.68-2.81-1.9c-.19-.56-.24-1.04-.24-4.67Z"/><path class="cls-2" d="M76.71,116.59c0-.11,.08-.19,.19-.19h1.15c.11,0,.19,.08,.19,.19v11.1c0,.08,.04,.11,.11,.11h3.35c.11,0,.19,.08,.19,.19v1.04c0,.11-.07,.19-.19,.19h-4.8c-.11,0-.19-.08-.19-.19v-12.43Z"/><path class="cls-2" d="M83.04,127.47c-.19-.56-.25-1.04-.25-4.67s.06-4.11,.25-4.67c.4-1.22,1.36-1.9,2.81-1.9s2.43,.68,2.81,1.9c.19,.57,.24,1.04,.24,4.67s-.06,4.11-.24,4.67c-.38,1.22-1.36,1.9-2.81,1.9s-2.41-.68-2.81-1.9Zm4.16-.43c.11-.38,.15-.66,.15-4.24s-.04-3.86-.15-4.24c-.19-.58-.68-.9-1.36-.9s-1.15,.32-1.34,.9c-.13,.38-.17,.66-.17,4.24s.04,3.86,.17,4.24c.19,.58,.66,.9,1.34,.9s1.17-.32,1.36-.9Z"/><path class="cls-2" d="M90.95,116.59c0-.11,.08-.19,.19-.19h2.43c2.22,0,3.18,.96,3.18,3.3,0,1.6-.55,2.39-1.49,2.81v.04c.96,.3,1.62,1.17,1.62,3,0,2.75-1.11,3.67-3.5,3.67h-2.24c-.11,0-.19-.08-.19-.19v-12.43Zm2.54,5.35c1.21,0,1.71-.45,1.71-2.05s-.45-2.07-1.75-2.07h-.87c-.07,0-.11,.04-.11,.11v3.9c0,.07,.04,.11,.11,.11h.9Zm-.9,5.86h.85c1.39,0,1.9-.51,1.9-2.28s-.55-2.24-1.85-2.24h-.9c-.07,0-.11,.04-.11,.11v4.29c0,.08,.04,.11,.11,.11Z"/><path class="cls-2" d="M100.53,116.59c.04-.11,.09-.19,.21-.19h1.13c.11,0,.19,.08,.21,.19l2.69,12.43c.02,.11-.06,.19-.17,.19h-1.13c-.13,0-.19-.08-.21-.19l-.56-2.81h-2.84l-.56,2.81c-.02,.11-.07,.19-.19,.19h-1.13c-.11,0-.19-.08-.17-.19l2.73-12.43Zm1.9,8.31l-1.09-5.58h-.06l-1.17,5.58h2.32Z"/><path class="cls-2" d="M106.24,116.59c0-.11,.08-.19,.19-.19h1.15c.11,0,.19,.08,.19,.19v11.1c0,.08,.04,.11,.11,.11h3.35c.11,0,.19,.08,.19,.19v1.04c0,.11-.08,.19-.19,.19h-4.8c-.11,0-.19-.08-.19-.19v-12.43Z"/><path class="cls-19" d="M116.86,127.61c-.09-.08-.11-.21-.02-.3l1.7-2c.07-.09,.19-.09,.26-.02,.77,.68,1.98,1.28,3.26,1.28,1.19,0,1.81-.49,1.81-1.21,0-.55-.36-.9-1.62-1.07l-.68-.09c-2.77-.4-4.28-1.64-4.28-4.03s1.87-3.99,4.77-3.99c1.77,0,3.43,.55,4.58,1.41,.09,.07,.11,.17,.04,.28l-1.41,2.05c-.07,.09-.17,.11-.26,.06-.9-.6-1.86-.96-2.88-.96-.94,0-1.41,.45-1.41,1.07,0,.56,.41,.92,1.64,1.07l.68,.09c2.81,.4,4.24,1.64,4.24,4.07s-1.81,4.11-5.24,4.11c-2.09,0-4.2-.89-5.16-1.83Z"/><path class="cls-19" d="M128.5,122.8c0-1.9,.09-2.6,.38-3.47,.68-2.09,2.34-3.16,4.65-3.16s3.88,1.07,4.6,2.92c.06,.13,.04,.21-.09,.26l-2.51,1.09c-.13,.06-.21,.02-.26-.11-.36-.75-.81-1.21-1.68-1.21-.81,0-1.32,.4-1.55,1.11-.13,.4-.19,.79-.19,2.56s.06,2.17,.19,2.56c.23,.72,.73,1.11,1.55,1.11,.87,0,1.32-.45,1.68-1.21,.06-.13,.13-.17,.26-.11l2.51,1.09c.13,.06,.15,.13,.09,.26-.72,1.85-2.34,2.92-4.6,2.92s-3.97-1.07-4.65-3.16c-.28-.87-.38-1.56-.38-3.47Z"/><path class="cls-19" d="M139.68,126.29c-.3-.98-.38-1.73-.38-3.49s.08-2.51,.38-3.48c.68-2.09,2.54-3.15,4.8-3.15s4.13,1.05,4.8,3.15c.32,.98,.38,1.73,.38,3.48s-.06,2.51-.38,3.49c-.68,2.09-2.54,3.15-4.8,3.15s-4.13-1.05-4.8-3.15Zm6.44-.94c.15-.43,.19-1.02,.19-2.54s-.04-2.11-.19-2.54c-.23-.72-.81-1.13-1.64-1.13s-1.41,.41-1.64,1.13c-.15,.43-.19,1.02-.19,2.54s.04,2.11,.19,2.54c.23,.72,.81,1.13,1.64,1.13s1.41-.41,1.64-1.13Z"/><g><path class="cls-2" d="M.28,140.14s-.04-.08,0-.11l.33-.39s.07-.04,.11,0c.33,.26,.84,.53,1.43,.53,.71,0,1.13-.35,1.13-.87,0-.44-.25-.73-1.07-.83l-.26-.04c-.99-.14-1.5-.61-1.5-1.41,0-.91,.65-1.5,1.67-1.5,.6,0,1.18,.19,1.56,.47,.04,.03,.05,.07,.02,.11l-.26,.41s-.07,.04-.11,.02c-.41-.26-.8-.38-1.23-.38-.62,0-.97,.34-.97,.83,0,.43,.29,.71,1.07,.82l.25,.04c1,.14,1.5,.59,1.5,1.43,0,.89-.63,1.54-1.86,1.54-.72,0-1.42-.29-1.8-.64Z"/><path class="cls-2" d="M8.73,135.66s.03-.07,.08-.07h3.07s.08,.03,.08,.07v.47s-.03,.08-.07,.08h-2.43s-.04,.02-.04,.05v1.5s.02,.05,.05,.05h2.07s.08,.03,.08,.07v.47s-.03,.07-.08,.07h-2.07s-.04,.02-.04,.05v1.55s.02,.05,.05,.05h2.43s.08,.03,.08,.07v.47s-.03,.07-.08,.07h-3.07s-.08-.03-.08-.07v-4.96Z"/><path class="cls-2" d="M16.54,138.13c0-.85,.04-1.14,.13-1.43,.26-.8,.86-1.2,1.7-1.2,.76,0,1.34,.38,1.64,1.03,.01,.04,0,.07-.03,.1l-.45,.22s-.09,0-.11-.04c-.2-.4-.52-.68-1.05-.68s-.89,.27-1.06,.75c-.07,.21-.1,.46-.1,1.26,0,.8,.03,1.05,.1,1.26,.17,.48,.5,.75,1.06,.75s.85-.29,1.05-.68c.02-.04,.06-.06,.11-.04l.45,.22s.05,.06,.03,.1c-.29,.65-.88,1.03-1.64,1.03-.83,0-1.44-.4-1.7-1.2-.1-.29-.14-.59-.14-1.44Z"/><path class="cls-2" d="M25.73,140.69s-.08-.03-.08-.07v-4.37s-.02-.05-.05-.05h-1.4s-.08-.03-.08-.08v-.47s.03-.07,.07-.07h3.55s.08,.03,.08,.07v.47s-.03,.08-.07,.08h-1.4s-.05,.02-.05,.05v4.37s-.03,.07-.07,.07h-.52Z"/><path class="cls-2" d="M32.17,139.57c-.1-.29-.14-.6-.14-1.44,0-.84,.04-1.15,.13-1.44,.26-.79,.88-1.19,1.74-1.19,.86,0,1.48,.41,1.74,1.19,.1,.29,.14,.6,.14,1.44,0,.84-.04,1.15-.13,1.44-.26,.79-.88,1.19-1.74,1.19-.86,0-1.47-.41-1.74-1.19Zm2.83-.19c.06-.19,.11-.52,.11-1.26,0-.74-.05-1.07-.11-1.25-.16-.49-.52-.76-1.09-.76-.56,0-.92,.27-1.08,.76-.06,.19-.11,.52-.11,1.25,0,.74,.05,1.07,.11,1.26,.16,.49,.52,.76,1.08,.76,.57,0,.93-.27,1.09-.76Z"/><path class="cls-2" d="M43.59,140.68c-.05,0-.08-.02-.1-.07l-1.02-2.09h-1.13s-.04,.02-.04,.05v2.04s-.03,.07-.07,.07h-.52s-.08-.03-.08-.07v-4.96s.03-.07,.07-.07h1.85c.95,0,1.6,.58,1.6,1.47,0,.69-.39,1.19-1.01,1.39l1.09,2.16s0,.09-.05,.09h-.6Zm-.11-3.64c0-.53-.35-.85-.95-.85h-1.19s-.04,.01-.04,.05v1.61s.02,.05,.05,.05h1.19c.59,0,.95-.32,.95-.85Z"/><path class="cls-2" d="M54.53,139.59l.46-.11s.08,0,.09,.05c.11,.32,.37,.65,.91,.65s.88-.38,.88-.9c0-.57-.37-.95-.94-.95h-.23s-.08-.03-.08-.07v-.44s.03-.07,.08-.07h.22c.51,0,.85-.34,.85-.86,0-.47-.31-.81-.82-.81-.47,0-.72,.28-.81,.62-.01,.05-.05,.07-.09,.06l-.45-.11s-.07-.05-.06-.09c.1-.57,.62-1.07,1.43-1.07,.9,0,1.44,.58,1.44,1.38,0,.51-.28,.88-.63,1.1v.02c.32,.13,.73,.57,.73,1.27,0,.89-.64,1.51-1.52,1.51-.83,0-1.38-.46-1.52-1.08,0-.05,.01-.07,.06-.09Z"/><path class="cls-2" d="M64.65,136.18v-.02h-1.56s-.05,.02-.05,.05v.64s-.03,.07-.08,.07h-.45s-.08-.03-.08-.07v-1.19s.03-.07,.07-.07h2.73s.08,.03,.08,.07v.47s0,.05-.01,.07l-1.76,4.43c-.02,.05-.04,.07-.1,.07h-.5s-.07-.03-.05-.08l1.74-4.42Z"/><path class="cls-2" d="M70.27,135.64s.03-.07,.08-.07h1.72c.86,0,1.43,.37,1.67,1.09,.09,.28,.13,.56,.14,1.46,0,.91-.04,1.19-.13,1.47-.23,.72-.8,1.09-1.67,1.09h-1.72s-.08-.03-.08-.07v-4.96Zm.71,4.41h.94c.62,0,1-.2,1.16-.7,.07-.19,.11-.44,.11-1.23,0-.8-.04-1.04-.11-1.23-.17-.5-.55-.7-1.16-.7h-.94s-.04,.01-.04,.05v3.77s.02,.05,.05,.05Z"/><path class="cls-2" d="M76.88,139.88h.53s.08,.03,.08,.07v.7c0,.07,0,.11-.05,.17l-.47,.62s-.06,.05-.1,.05-.07-.03-.07-.07v-1.46s.03-.08,.07-.08Z"/><path class="cls-2" d="M85.67,138.12c0-.84,.05-1.15,.14-1.44,.26-.79,.89-1.19,1.75-1.19,.89,0,1.44,.45,1.7,1.01,.02,.05,.01,.08-.02,.1l-.45,.22s-.08,0-.11-.04c-.25-.46-.58-.68-1.12-.68-.58,0-.95,.27-1.1,.76-.07,.19-.11,.47-.11,1.25,0,.78,.04,1.07,.11,1.26,.16,.49,.53,.76,1.1,.76,.52,0,.94-.26,1.1-.74,.05-.17,.1-.42,.1-.8,0-.03-.01-.05-.05-.05h-.99s-.08-.03-.08-.08v-.44s.03-.07,.07-.07h1.63s.07,.03,.07,.07v.38c0,.46-.05,.88-.13,1.13-.25,.77-.89,1.21-1.74,1.21-.86,0-1.5-.41-1.75-1.19-.09-.29-.14-.6-.14-1.44Z"/><path class="cls-2" d="M94.22,138.89v-3.25s.03-.07,.07-.07h.52s.07,.03,.07,.07v3.25c0,.83,.46,1.25,1.14,1.25s1.13-.42,1.13-1.25v-3.25s.03-.07,.07-.07h.52s.08,.03,.08,.07v3.25c0,1.2-.68,1.86-1.8,1.86-1.13,0-1.81-.66-1.81-1.86Z"/><path class="cls-2" d="M105.79,140.67c-.05,0-.07-.02-.1-.07l-1.02-2.09h-1.13s-.05,.02-.04,.05v2.04s-.03,.07-.07,.07h-.52s-.07-.03-.07-.07v-4.96s.03-.07,.07-.07h1.85c.95,0,1.6,.58,1.6,1.47,0,.69-.39,1.19-1.01,1.39l1.09,2.16s0,.09-.05,.09h-.6Zm-.11-3.64c0-.53-.35-.85-.95-.85h-1.19s-.05,.02-.05,.05v1.61s.02,.04,.05,.04h1.19c.59,0,.95-.32,.95-.85Z"/><path class="cls-2" d="M111.19,138.89v-3.25s.03-.07,.07-.07h.52s.07,.03,.07,.07v3.25c0,.83,.46,1.25,1.14,1.25,.68,0,1.13-.42,1.13-1.25v-3.25s.03-.07,.07-.07h.52s.08,.03,.08,.07v3.25c0,1.2-.68,1.86-1.8,1.86-1.13,0-1.81-.66-1.81-1.86Z"/><path class="cls-2" d="M119.61,138.11c0-.84,.05-1.15,.14-1.44,.26-.79,.89-1.19,1.75-1.19s1.44,.45,1.7,1.01c.02,.05,.01,.08-.02,.1l-.45,.22s-.08,0-.11-.04c-.25-.46-.58-.68-1.12-.68-.58,0-.95,.27-1.1,.76-.07,.19-.11,.47-.11,1.25,0,.78,.04,1.07,.11,1.26,.16,.49,.53,.76,1.1,.76,.52,0,.94-.26,1.1-.74,.05-.17,.1-.42,.1-.8,0-.03-.01-.05-.05-.05h-.99s-.08-.03-.08-.08v-.44s.03-.07,.07-.07h1.63s.07,.03,.07,.07v.38c0,.46-.05,.88-.13,1.13-.25,.77-.89,1.21-1.74,1.21s-1.5-.41-1.75-1.19c-.09-.29-.14-.6-.14-1.44Z"/><path class="cls-2" d="M131.16,140.66c-.05,0-.07-.02-.1-.07l-1.02-2.09h-1.13s-.05,.02-.04,.05v2.04s-.03,.07-.07,.07h-.52s-.07-.03-.07-.07v-4.96s.03-.07,.07-.07h1.85c.95,0,1.6,.58,1.6,1.47,0,.69-.39,1.19-1.01,1.39l1.09,2.16s0,.09-.05,.09h-.6Zm-.11-3.64c0-.53-.35-.85-.95-.85h-1.19s-.05,.02-.05,.05v1.61s.02,.05,.05,.05h1.19c.59,0,.95-.32,.95-.85Z"/><path class="cls-2" d="M137.92,135.63s.04-.07,.09-.07h.49c.05,0,.08,.03,.1,.07l1.75,4.96s0,.07-.05,.07h-.53c-.05,0-.08-.02-.1-.07l-.39-1.11h-2.07l-.39,1.11c-.02,.05-.05,.07-.1,.08h-.53s-.07-.03-.05-.07l1.77-4.96Zm1.14,3.23l-.8-2.32h-.02l-.81,2.32h1.63Z"/><path class="cls-2" d="M144.92,135.62s.03-.07,.07-.07h.49c.06,0,.1,.02,.12,.07l1.53,3.44h.02l1.49-3.44c.02-.05,.06-.07,.12-.07h.49s.08,.03,.08,.07v4.96s-.03,.07-.07,.07h-.47s-.07-.03-.07-.07v-3.55h-.02l-1.27,2.81c-.03,.07-.07,.09-.14,.09h-.3c-.07,0-.11-.02-.14-.09l-1.27-2.81h-.02v3.55s-.03,.07-.07,.07h-.47s-.07-.03-.07-.07v-4.96Z"/></g></svg>