<svg id="Layer_1" data-name="Layer 1" xmlns="http://www.w3.org/2000/svg" viewBox="0 0 200 200"><defs><style>.cls-1{fill:#fff;}.cls-2{fill:#00a550;}</style></defs><polygon class="cls-1" points="72.06 56.17 74.78 49.37 75.28 22.94 75.82 49.41 78.55 56.17 78.55 140.89 72.06 140.89 72.06 56.17 72.06 56.17"/><polygon class="cls-1" points="4.43 169.97 4.43 176.99 3.21 176.99 3.21 169.97 0.97 169.97 0.97 168.86 6.67 168.86 6.67 169.97 4.43 169.97 4.43 169.97"/><polygon class="cls-1" points="21.17 176.99 21.17 173.43 17.87 173.43 17.87 176.99 16.63 176.99 16.63 168.86 17.87 168.86 17.87 172.32 21.17 172.32 21.17 168.86 22.41 168.86 22.41 176.99 21.17 176.99 21.17 176.99"/><polygon class="cls-1" points="33.09 176.99 33.09 168.86 38.28 168.86 38.28 169.97 34.32 169.97 34.32 172.33 37.7 172.33 37.7 173.43 34.32 173.43 34.32 175.88 38.28 175.88 38.28 176.99 33.09 176.99 33.09 176.99"/><path class="cls-1" d="M63.89,170.31a1.42,1.42,0,0,0-1-.33H61.07v2.54H62.9a1.38,1.38,0,0,0,1-.34,1.17,1.17,0,0,0,.38-.93,1.2,1.2,0,0,0-.39-.94Zm.44,6.69-1.72-3.43H61.07V177H59.83v-8.13H63a2.56,2.56,0,0,1,1.83.65,2.33,2.33,0,0,1,.69,1.72,2.19,2.19,0,0,1-.45,1.4,2.24,2.24,0,0,1-1.17.76l1.87,3.6Z"/><polygon class="cls-1" points="75.88 176.99 75.88 168.86 81.08 168.86 81.08 169.97 77.11 169.97 77.11 172.33 80.49 172.33 80.49 173.43 77.11 173.43 77.11 175.88 81.08 175.88 81.08 176.99 75.88 176.99 75.88 176.99"/><polygon class="cls-1" points="94.07 169.97 94.07 176.99 92.84 176.99 92.84 169.97 90.6 169.97 90.6 168.86 96.31 168.86 96.31 169.97 94.07 169.97 94.07 169.97"/><path class="cls-1" d="M108.12,170.7l-1.26,3.58h2.5l-1.24-3.61Zm2.14,6.29-.55-1.64h-3.22l-.56,1.64h-1.31l3-8.13h1l3,8.13Z"/><polygon class="cls-1" points="121.28 168.86 122.52 168.86 122.52 176.98 121.28 176.98 121.28 168.86 121.28 168.86"/><polygon class="cls-1" points="133.21 176.99 133.21 168.86 134.44 168.86 134.44 175.88 138.36 175.88 138.36 176.99 133.21 176.99 133.21 176.99"/><polygon class="cls-1" points="164.15 176.99 164.15 173.43 160.86 173.43 160.86 176.99 159.62 176.99 159.62 168.86 160.86 168.86 160.86 172.32 164.15 172.32 164.15 168.86 165.39 168.86 165.39 176.99 164.15 176.99 164.15 176.99"/><path class="cls-1" d="M181.55,175.38a2.6,2.6,0,0,1-1.54,1.47,3.25,3.25,0,0,1-2.3,0,2.88,2.88,0,0,1-.93-.57,2.4,2.4,0,0,1-.61-.9,2.74,2.74,0,0,1-.22-1.13v-5.39h1.23v5.33a1.74,1.74,0,0,0,.46,1.28,1.56,1.56,0,0,0,1.22.47,1.66,1.66,0,0,0,1.23-.47,1.73,1.73,0,0,0,.45-1.28v-5.33h1.24v5.42a2.57,2.57,0,0,1-.23,1.13Z"/><path class="cls-1" d="M196.5,173.74a1.38,1.38,0,0,0-1-.34h-2v2.48h2a1.34,1.34,0,0,0,1-.35,1.32,1.32,0,0,0,0-1.79Zm-.14-3.43a1.47,1.47,0,0,0-1-.29h-1.82v2.27h1.82a1.41,1.41,0,0,0,1-.3,1,1,0,0,0,.37-.85,1.08,1.08,0,0,0-.37-.88Zm1,6.12a2.58,2.58,0,0,1-1.78.61h-3.29v-8.13h3.17a2.51,2.51,0,0,1,1.78.59,2.1,2.1,0,0,1,.66,1.64,1.82,1.82,0,0,1-.32,1.08l-.77.63a2.21,2.21,0,0,1,.88.69,2,2,0,0,1,.34,1.2A2.13,2.13,0,0,1,197.41,176.43Z"/><polygon class="cls-1" points="5.97 140.89 1.48 140.89 1.48 55.28 5.97 55.28 5.97 140.89 5.97 140.89"/><polygon class="cls-1" points="12.03 140.89 9.55 140.89 9.55 45.59 12.03 45.59 12.03 140.89 12.03 140.89"/><polygon class="cls-1" points="23.25 140.88 15.61 140.88 15.61 57.35 23.25 68.12 23.25 140.88 23.25 140.88"/><polygon class="cls-1" points="29.08 140.89 26.83 140.89 26.83 45.59 29.08 45.59 29.08 140.89 29.08 140.89"/><polygon class="cls-1" points="37.16 140.89 32.67 140.89 32.67 64.97 37.16 64.97 37.16 140.89 37.16 140.89"/><polygon class="cls-1" points="54.22 140.89 51.97 140.89 51.97 45.59 54.22 45.59 54.22 140.89 54.22 140.89"/><polygon class="cls-1" points="60.05 140.89 57.8 140.89 57.8 73.04 60.05 73.04 60.05 140.89 60.05 140.89"/><polygon class="cls-1" points="67.67 140.89 63.63 140.89 63.63 45.59 67.67 45.59 67.67 140.89 67.67 140.89"/><polygon class="cls-1" points="84.96 140.89 82.94 140.89 82.94 45.59 84.96 45.59 84.96 140.89 84.96 140.89"/><polygon class="cls-1" points="92.81 140.89 88.54 140.89 88.54 53.66 92.81 53.66 92.81 140.89 92.81 140.89"/><polygon class="cls-1" points="104.94 140.89 107.15 140.89 107.15 45.59 104.94 45.59 104.94 140.89 104.94 140.89"/><polygon class="cls-1" points="96.39 140.89 100.69 140.89 100.69 61.74 96.39 61.74 96.39 140.89 96.39 140.89"/><polygon class="cls-1" points="115.41 140.89 110.73 140.89 110.73 45.59 115.41 45.59 115.41 140.89 115.41 140.89"/><polygon class="cls-1" points="126.88 140.89 119 140.89 119 71.43 126.88 71.43 126.88 140.89 126.88 140.89"/><polygon class="cls-1" points="142.71 140.89 137.99 140.89 137.99 53.66 142.71 53.66 142.71 140.89 142.71 140.89"/><polygon class="cls-1" points="148.54 140.88 146.3 140.88 146.3 45.59 148.54 45.59 148.54 140.88 148.54 140.88"/><polygon class="cls-1" points="161.79 140.88 152.12 140.88 152.12 52.69 156.95 39.13 161.79 52.69 161.79 140.88 161.79 140.88"/><polygon class="cls-1" points="175.25 140.89 170.98 140.89 170.98 45.59 175.25 45.59 175.25 140.89 175.25 140.89"/><polygon class="cls-1" points="185.81 140.88 178.17 140.88 178.17 51.95 181.86 51.95 183.2 51.95 185.81 51.95 185.81 140.88 185.81 140.88"/><polygon class="cls-1" points="191.76 140.89 189.3 140.89 189.3 45.59 191.76 45.59 191.76 140.89 191.76 140.89"/><polygon class="cls-1" points="198.58 140.89 194.31 140.89 194.31 73.04 198.58 73.04 198.58 140.89 198.58 140.89"/><polygon class="cls-1" points="46.36 74.18 46.36 61.74 43.92 61.74 43.92 85.19 40.74 85.19 40.74 140.88 48.38 140.88 48.38 74.18 46.36 74.18 46.36 74.18"/><polygon class="cls-1" points="131.26 46.72 131.26 140.96 134.4 140.96 134.4 31.05 131.26 46.72 131.26 46.72"/><polygon class="cls-1" points="167.39 140.88 165.37 140.88 165.37 61.74 167.39 61.74 167.39 140.88 167.39 140.88"/><path class="cls-2" d="M6.57,144.2c3.31,0,5,1.79,5,5v.61H8.36V149c0-1.39-.61-1.92-1.69-1.92s-1.74.51-1.74,1.88c0,4,6.64,4.78,6.64,10.36,0,3.12-1.73,4.95-5.07,4.95s-5.06-1.79-5.06-4.95v-1.2H4.69v1.35c0,1.4.68,1.9,1.76,1.9s1.77-.5,1.77-1.9c0-4-6.65-4.76-6.65-10.35,0-3.12,1.7-4.95,5-4.95Z"/><polygon class="cls-2" points="17.02 144.43 20.42 144.43 20.42 163.96 17.02 163.96 17.02 144.43 17.02 144.43"/><path class="cls-2" d="M32,153.07h4.76v6.2c0,3.12-1.73,4.95-5.06,4.95s-5.07-1.79-5.07-4.95V149.11c0-3.13,1.73-5,5.07-5s5.06,1.78,5.06,5V151H33.52v-2.09c0-1.39-.68-1.92-1.76-1.92s-1.77.53-1.77,1.92v10.51c0,1.4.69,1.9,1.77,1.9s1.76-.5,1.76-1.9v-3.59H32v-2.76Z"/><polygon class="cls-2" points="45.41 149.8 45.41 163.96 42.36 163.96 42.36 144.43 46.62 144.43 50.12 156.11 50.12 144.43 53.14 144.43 53.14 163.96 49.65 163.96 45.41 149.8 45.41 149.8"/><path class="cls-2" d="M62.51,144.43v15.06c0,1.4.68,1.9,1.76,1.9s1.76-.5,1.76-1.9V144.43h3.21v14.85c0,3.13-1.73,4.95-5.06,4.95s-5.07-1.78-5.07-4.95V144.43Z"/><polygon class="cls-2" points="82.76 158.29 85.08 144.43 89.8 144.43 89.8 163.96 86.58 163.96 86.58 149.95 84.23 163.96 81.03 163.96 78.5 150.14 78.5 163.96 75.53 163.96 75.53 144.43 80.25 144.43 82.76 158.29 82.76 158.29"/><path class="cls-1" d="M106.22,144.44h-5v19.34h3.36v-7.27h1.59c3.37,0,5-1.69,5-4.78v-2.52C111.24,146.12,109.59,144.44,106.22,144.44Zm0,2.76c1.07,0,1.65.44,1.65,1.82v2.9c0,1.38-.58,1.83-1.65,1.83h-1.59V147.2Z"/><polygon class="cls-1" points="117.67 163.78 126.57 163.78 126.57 161.01 121.03 161.01 121.03 144.44 117.67 144.44 117.67 163.78 117.67 163.78"/><path class="cls-1" d="M140.37,144.44h-5L132,163.78h3.09l.58-3.51h4.13l.59,3.51h3.38l-3.41-19.34Zm-2.64,3.42,1.63,9.79h-3.25Z"/><polygon class="cls-1" points="149.99 144.44 149.99 147.2 156.08 147.2 149.69 161.07 149.69 163.78 159.54 163.78 159.54 161.01 153.15 161.01 159.54 147.14 159.54 144.44 149.99 144.44 149.99 144.44"/><path class="cls-1" d="M173.86,144.44h-5l-3.43,19.34h3.09l.59-3.51h4.12l.59,3.51h3.38l-3.43-19.34Zm-2.64,3.42,1.63,9.79H169.6Z"/><path class="cls-2" d="M187.65,160.27h6.43v3.51h3.36v-3.51H199v-2.76h-1.59V144.44h-3.67l-6.12,13.07v2.76Zm3.09-2.76,3.34-7.16v7.16Z"/></svg>