<?xml version="1.0" encoding="UTF-8"?><svg id="Layer_1" xmlns="http://www.w3.org/2000/svg" viewBox="0 0 200 200"><defs><style>.cls-1{fill:#00a551;}.cls-2{fill:#fffdfd;}</style></defs><polygon class="cls-2" points="74.41 48.81 71.67 55.69 71.67 141.53 78.24 141.53 78.24 55.69 75.46 48.85 74.92 22.04 74.41 48.81"/><rect class="cls-2" x=".15" y="54.8" width="4.55" height="86.73"/><rect class="cls-2" x="8.33" y="44.98" width="2.51" height="96.55"/><polygon class="cls-2" points="22.21 141.53 14.47 141.53 14.47 56.89 22.21 67.81 22.21 141.53"/><rect class="cls-2" x="25.85" y="44.98" width="2.28" height="96.55"/><rect class="cls-2" x="31.75" y="64.62" width="4.55" height="76.91"/><rect class="cls-2" x="51.31" y="44.98" width="2.28" height="96.55"/><rect class="cls-2" x="57.22" y="72.79" width="2.28" height="68.74"/><rect class="cls-2" x="63.12" y="44.98" width="4.1" height="96.55"/><rect class="cls-2" x="82.69" y="44.98" width="2.05" height="96.55"/><rect class="cls-2" x="88.36" y="53.16" width="4.33" height="88.37"/><rect class="cls-2" x="104.97" y="44.98" width="2.24" height="96.55"/><rect class="cls-2" x="96.32" y="61.34" width="4.36" height="80.19"/><rect class="cls-2" x="110.85" y="44.98" width="4.74" height="96.55"/><rect class="cls-2" x="119.22" y="71.16" width="7.98" height="70.37"/><rect class="cls-2" x="138.46" y="53.16" width="4.78" height="88.37"/><rect class="cls-2" x="146.88" y="44.99" width="2.28" height="96.54"/><polygon class="cls-2" points="162.57 141.53 152.78 141.53 152.78 52.17 157.68 38.43 162.57 52.17 162.57 141.53"/><rect class="cls-2" x="171.88" y="44.98" width="4.33" height="96.55"/><polygon class="cls-2" points="186.91 141.53 179.17 141.53 179.17 51.43 182.91 51.43 184.27 51.43 186.91 51.43 186.91 141.53"/><rect class="cls-2" x="190.45" y="44.98" width="2.5" height="96.55"/><rect class="cls-2" x="195.52" y="72.79" width="4.32" height="68.74"/><polygon class="cls-2" points="45.63 73.95 45.63 61.34 43.15 61.34 43.15 85.1 39.93 85.1 39.93 141.53 47.68 141.53 47.68 73.95 45.63 73.95"/><polygon class="cls-2" points="131.64 46.13 131.64 141.61 134.83 141.61 134.83 30.25 131.64 46.13"/><rect class="cls-2" x="166.2" y="61.34" width="2.05" height="80.19"/><polygon class="cls-2" points=".15 169.67 .15 170.79 2.41 170.79 2.41 177.89 3.66 177.89 3.66 170.79 5.93 170.79 5.93 169.67 .15 169.67"/><polygon class="cls-2" points="20.59 169.67 20.59 173.18 17.25 173.18 17.25 169.67 16 169.67 16 177.89 17.25 177.89 17.25 174.3 20.59 174.3 20.59 177.89 21.84 177.89 21.84 169.67 20.59 169.67"/><polygon class="cls-2" points="32.65 169.67 32.65 177.89 37.9 177.89 37.9 176.77 33.89 176.77 33.89 174.3 37.31 174.3 37.31 173.19 33.89 173.19 33.89 170.79 37.9 170.79 37.9 169.67 32.65 169.67"/><path class="cls-2" d="M63.81,171.14c-.26-.23-.6-.35-1.01-.35h-1.85v2.58h1.85c.42,0,.76-.11,1.01-.34,.26-.23,.38-.54,.38-.94s-.13-.72-.39-.95m.43,6.75l-1.73-3.46h-1.56v3.46h-1.25v-8.22h3.19c.77,0,1.39,.22,1.85,.67,.47,.45,.7,1.03,.7,1.74,0,.56-.15,1.03-.46,1.41-.3,.38-.7,.63-1.18,.77l1.89,3.64h-1.45Z"/><polygon class="cls-2" points="75.93 177.89 75.93 169.67 81.19 169.67 81.19 170.79 77.18 170.79 77.18 173.19 80.59 173.19 80.59 174.3 77.18 174.3 77.18 176.77 81.19 176.77 81.19 177.89 75.93 177.89"/><polygon class="cls-2" points="94.34 170.79 94.34 177.89 93.09 177.89 93.09 170.79 90.83 170.79 90.83 169.67 96.6 169.67 96.6 170.79 94.34 170.79"/><path class="cls-2" d="M108.55,171.53l-1.28,3.65h2.53l-1.25-3.65Zm2.16,6.36l-.57-1.65h-3.25l-.56,1.65h-1.33l3.01-8.23h1l3.02,8.23h-1.33Z"/><rect class="cls-2" x="121.86" y="169.67" width="1.25" height="8.22"/><polygon class="cls-2" points="133.92 177.89 133.92 169.67 135.17 169.67 135.17 176.77 139.13 176.77 139.13 177.89 133.92 177.89"/><polygon class="cls-2" points="165.23 177.89 165.23 174.3 161.89 174.3 161.89 177.89 160.64 177.89 160.64 169.67 161.89 169.67 161.89 173.18 165.23 173.18 165.23 169.67 166.48 169.67 166.48 177.89 165.23 177.89"/><path class="cls-2" d="M182.84,176.27c-.15,.35-.36,.65-.63,.91-.26,.25-.58,.45-.94,.58-.36,.14-.75,.21-1.17,.21s-.8-.07-1.16-.21c-.36-.13-.67-.33-.94-.58-.27-.25-.48-.55-.62-.91-.15-.35-.22-.74-.22-1.15v-5.45h1.25v5.39c0,.55,.15,.98,.46,1.3,.31,.32,.72,.48,1.23,.48s.93-.16,1.24-.48c.32-.32,.47-.75,.47-1.3v-5.39h1.25v5.45c0,.41-.07,.8-.22,1.15"/><path class="cls-2" d="M197.95,174.61c-.24-.23-.57-.35-.99-.35h-1.96v2.51h1.96c.42,0,.75-.12,.99-.35,.24-.23,.36-.54,.36-.91s-.12-.67-.36-.9m-.13-3.52c-.24-.2-.57-.31-.97-.31h-1.85v2.36h1.85c.41,0,.73-.1,.97-.31,.24-.21,.36-.5,.36-.87s-.12-.67-.36-.88m1.06,6.19c-.45,.4-1.05,.61-1.8,.61h-3.33v-8.22h3.2c.76,0,1.37,.21,1.81,.61,.45,.4,.67,.96,.67,1.64,0,.42-.11,.78-.33,1.09l-.78,.65c.35,.14,.65,.37,.88,.7,.24,.32,.35,.73,.35,1.21,0,.74-.23,1.31-.68,1.71"/><path class="cls-1" d="M5.4,145.11c3.4,0,5.15,1.84,5.15,5.05v.63h-3.3v-.83c0-1.44-.64-1.98-1.75-1.98s-1.75,.55-1.75,1.98c0,4.13,6.83,4.91,6.83,10.65,0,3.21-1.78,5.05-5.21,5.05s-5.21-1.84-5.21-5.05v-1.23H3.46v1.43c0,1.44,.7,1.95,1.81,1.95s1.81-.52,1.81-1.95c0-4.13-6.83-4.91-6.83-10.65,0-3.21,1.75-5.05,5.15-5.05"/><rect class="cls-1" x="14.28" y="145.34" width="3.5" height="20.1"/><path class="cls-1" d="M27.8,154.24h4.89v6.37c0,3.22-1.78,5.05-5.21,5.05s-5.21-1.84-5.21-5.05v-10.45c0-3.22,1.78-5.06,5.21-5.06s5.21,1.84,5.21,5.06v1.95h-3.3v-2.15c0-1.43-.7-1.98-1.81-1.98s-1.81,.55-1.81,1.98v10.85c0,1.44,.7,1.95,1.81,1.95s1.81-.52,1.81-1.95v-3.7h-1.59v-2.87Z"/><polygon class="cls-1" points="39.76 150.88 39.76 165.44 36.62 165.44 36.62 145.34 41 145.34 44.59 157.37 44.59 145.34 47.71 145.34 47.71 165.44 44.11 165.44 39.76 150.88"/><path class="cls-1" d="M55.48,145.34v15.5c0,1.43,.7,1.95,1.81,1.95s1.81-.52,1.81-1.95v-15.5h3.31v15.3c0,3.21-1.78,5.05-5.21,5.05s-5.21-1.84-5.21-5.05v-15.3h3.49Z"/><polygon class="cls-1" points="74.45 159.61 76.83 145.34 81.69 145.34 81.69 165.44 78.39 165.44 78.39 151.03 75.97 165.44 72.67 165.44 70.07 151.23 70.07 165.44 67.01 165.44 67.01 145.34 71.88 145.34 74.45 159.61"/><path class="cls-2" d="M95.65,145.35h-5.1v19.91h3.46v-7.48h1.64c3.46,0,5.16-1.73,5.16-4.92v-2.59c0-3.18-1.7-4.92-5.16-4.92m0,2.84c1.1,0,1.7,.45,1.7,1.88v2.99c0,1.42-.6,1.88-1.7,1.88h-1.64v-6.74h1.64Zm8.75,17.06h9.16v-2.84h-5.7v-17.06h-3.46v19.91Zm20.33-19.91h-5.07l-3.52,19.91h3.18l.6-3.61h4.25l.6,3.61h3.49l-3.53-19.91Zm-2.71,3.53l1.67,10.07h-3.34l1.67-10.07Zm9.6-3.53v2.84h6.26l-6.58,14.28v2.79h10.14v-2.84h-6.58l6.58-14.28v-2.79h-9.82Zm21.53,0h-5.07l-3.53,19.91h3.18l.6-3.61h4.25l.6,3.61h3.49l-3.53-19.91Zm-2.71,3.53l1.67,10.07h-3.34l1.67-10.07Z"/><path class="cls-1" d="M171.3,150.41v-.48c0-.47-.13-.87-.38-1.2-.25-.32-.61-.49-1.08-.49s-.82,.16-1.08,.49c-.25,.32-.38,.73-.38,1.2v3.87c.67-.6,1.41-.9,2.21-.9,1.29,0,2.25,.45,2.89,1.35,.57,.78,.85,1.87,.85,3.26v3.33h-.01c-.06,1.24-.51,2.27-1.34,3.11-.83,.83-1.85,1.25-3.06,1.25-1.29,0-2.35-.46-3.19-1.38-.81-.89-1.22-1.97-1.22-3.25v-10.58c0-.95,.23-1.8,.69-2.57,.46-.76,1.11-1.33,1.96-1.7,.54-.25,1.12-.37,1.76-.37,1.28,0,2.34,.46,3.19,1.39,.81,.89,1.22,1.97,1.22,3.25v.42h-3.05Zm-2.91,10.12c0,.47,.12,.87,.36,1.18,.26,.34,.62,.51,1.09,.51s.83-.17,1.09-.51c.25-.31,.37-.7,.37-1.18v-3.59c0-.56-.21-1.02-.62-1.39-.2-.17-.47-.26-.82-.26-.51,0-.89,.2-1.15,.6-.21,.33-.31,.69-.31,1.1v3.54Z"/><path class="cls-1" d="M181.34,162.22c1.34,0,2.01-.62,2.01-1.87v-1.14c0-1.99-1.04-2.98-3.12-2.98v-2.5c1.12,0,1.95-.31,2.49-.94,.5-.57,.74-1.36,.74-2.38v-.45c0-1.27-.56-1.9-1.67-1.9-.62,0-1.07,.23-1.36,.71-.22,.36-.32,.83-.32,1.4v.51h-2.86v-.45c0-1.38,.35-2.51,1.05-3.37,.79-.99,1.91-1.49,3.36-1.49s2.47,.46,3.3,1.39c.74,.84,1.11,1.88,1.11,3.13v.82c0,1.21-.36,2.25-1.08,3.13-.31,.37-.67,.68-1.08,.94,.87,.49,1.54,1.22,2.01,2.21,.25,.5,.37,1.12,.37,1.84v1.53c0,1.43-.49,2.61-1.47,3.53-.94,.89-2.07,1.33-3.39,1.33s-2.38-.45-3.28-1.36c-.9-.91-1.35-2-1.35-3.26v-.48l2.79-.22,.06,.68c.04,.48,.21,.88,.52,1.19,.3,.31,.7,.46,1.18,.46"/><path class="cls-1" d="M192.87,160.64l-.73,4.56h-3.12l3.38-19.86h4.12l3.33,19.86h-3.15l-.7-4.56h-3.13Zm1.57-10.74l-1.11,7.83h2.22l-1.11-7.83Z"/></svg>