<?xml version="1.0" encoding="utf-8"?>
<!-- Generator: Adobe Illustrator 26.1.0, SVG Export Plug-In . SVG Version: 6.00 Build 0)  -->
<svg version="1.1" id="Layer_1" xmlns="http://www.w3.org/2000/svg" xmlns:xlink="http://www.w3.org/1999/xlink" x="0px" y="0px"
	 viewBox="0 0 200 200" style="enable-background:new 0 0 200 200;" xml:space="preserve">
<style type="text/css">
	.st0{fill:none;stroke:#FCFCFC;stroke-miterlimit:10;}
	.st1{fill-rule:evenodd;clip-rule:evenodd;fill:#FCFCFC;}
	.st2{fill:#FCFCFC;}
	.st3{fill:url(#SVGID_1_);}
	.st4{fill:url(#SVGID_00000123415123840881091020000016130841540751877764_);}
	.st5{fill:url(#SVGID_00000160178910490150609460000005282789628714835115_);}
	.st6{fill:url(#SVGID_00000062161801809493176790000001983481558552562319_);}
	.st7{fill:url(#SVGID_00000083808240459080597180000007842111096583590532_);}
	.st8{fill:url(#SVGID_00000095332587473870527750000017960510117658717839_);}
	.st9{clip-path:url(#SVGID_00000069373381639946753770000017204173128092801949_);}
	.st10{fill:url(#SVGID_00000064331358329451791070000001582752384609716116_);}
	.st11{clip-path:url(#SVGID_00000161589676713932735160000010291198729375950263_);}
	.st12{fill:url(#SVGID_00000076568689869550479120000001369607505368292248_);}
	.st13{clip-path:url(#SVGID_00000093883043393406181890000011637863841871527829_);}
	.st14{fill:url(#SVGID_00000022561300989683160450000001250306337747541131_);}
	.st15{clip-path:url(#SVGID_00000069355494902452872990000001615410739271468177_);}
	.st16{fill:url(#SVGID_00000064325569994693539410000008970645425654754191_);}
	.st17{clip-path:url(#SVGID_00000119802275140189585120000012858730242371944087_);}
	.st18{fill:url(#SVGID_00000053543149468035327010000007344515170092624521_);}
	.st19{fill:url(#SVGID_00000088839475223521660080000008810334974145881760_);}
	.st20{clip-path:url(#SVGID_00000053524799026638402740000009782300332602842037_);}
	.st21{fill:url(#SVGID_00000110428703124912189750000002744116482673586840_);}
	.st22{clip-path:url(#SVGID_00000021799643962252758600000015950280736306571909_);}
	.st23{fill:url(#SVGID_00000082342076163563087090000009675120785647238555_);}
	.st24{clip-path:url(#SVGID_00000103240938108900024800000001773478625946964381_);}
	.st25{fill:url(#SVGID_00000082358287092476939040000009770892217045993095_);}
	.st26{clip-path:url(#SVGID_00000061441460048041787830000003901032747137624742_);}
	.st27{fill:url(#SVGID_00000129892541632729854880000011302298784383958189_);}
	.st28{clip-path:url(#SVGID_00000167382223873158235130000014366957860895532984_);}
	.st29{fill:url(#SVGID_00000148657750577389854880000010710177765431576455_);}
	.st30{fill:url(#SVGID_00000100342072193762756740000001889047129378865280_);}
	.st31{fill:url(#SVGID_00000025416209077342717000000000366174693257199251_);}
	.st32{fill:#FAE818;}
	.st33{opacity:0.41;}
	.st34{clip-path:url(#SVGID_00000102522434048673048290000005159501966945838270_);}
	.st35{filter:url(#Adobe_OpacityMaskFilter);}
	.st36{clip-path:url(#SVGID_00000043449364865070603960000000301769552545298611_);}
	
		.st37{clip-path:url(#SVGID_00000115513656189708470750000004382166171347803806_);fill:url(#SVGID_00000008827510813061099270000006160447329117260687_);}
	
		.st38{clip-path:url(#SVGID_00000043449364865070603960000000301769552545298611_);mask:url(#SVGID_00000091725520451216962530000014114802801629391248_);fill:url(#SVGID_00000025405663607150532280000005978505996673707157_);}
	.st39{fill:url(#SVGID_00000174604085726662880940000002004186365252673716_);}
</style>
<line class="st0" x1="41" y1="112.2" x2="197.6" y2="112.2"/>
<path class="st1" d="M49,91c-0.2,0.4-0.5,0.8-0.9,1c-0.4,0.3-0.8,0.5-1.3,0.6s-1,0.2-1.6,0.2c-0.9,0-1.6-0.1-2.2-0.3
	c-0.6-0.2-1.2-0.6-1.7-1.1l1.7-1.7c0.2,0.3,0.6,0.4,1,0.6c0.4,0.1,0.9,0.2,1.3,0.2c1,0,1.5-0.3,1.5-0.9c0-0.3-0.1-0.5-0.2-0.6
	c-0.2-0.2-0.4-0.2-0.7-0.3l-0.6-0.1l-0.7-0.1c-0.9-0.1-1.6-0.4-2.1-0.9s-0.7-1.2-0.7-2.1c0-1,0.3-1.8,1-2.4s1.6-0.9,2.8-0.9
	c0.8,0,1.4,0.1,2,0.3c0.6,0.2,1.1,0.5,1.5,0.9L47.5,85c-0.3-0.3-0.5-0.4-0.9-0.5c-0.3-0.1-0.7-0.1-1.1-0.1s-0.7,0.1-0.9,0.3
	c-0.2,0.2-0.3,0.4-0.3,0.7c0,0.2,0.1,0.3,0.2,0.5c0.2,0.2,0.4,0.3,0.7,0.3l0.6,0.1l0.7,0.1c0.9,0.1,1.6,0.4,2.1,0.9s0.8,1.3,0.8,2.3
	C49.3,90.1,49.2,90.5,49,91"/>
<path class="st1" d="M62,90.3c-0.2,0.5-0.4,1-0.8,1.4c-0.4,0.4-0.9,0.8-1.4,0.9c-0.5,0.2-1,0.3-1.7,0.3s-1.1-0.1-1.6-0.3
	c-0.5-0.2-0.9-0.5-1.3-0.9c-0.5-0.5-0.8-1-0.9-1.6s-0.2-1.4-0.2-2.5s0.1-1.9,0.2-2.5s0.4-1.1,0.9-1.6c0.4-0.4,0.8-0.7,1.3-0.9
	c0.5-0.2,1-0.3,1.6-0.3s1.2,0.1,1.7,0.3s0.9,0.4,1.2,0.8s0.6,0.7,0.8,1.1s0.3,0.8,0.4,1.3h-2.6c-0.1-0.4-0.3-0.7-0.5-0.9
	s-0.6-0.3-1-0.3c-0.2,0-0.4,0-0.6,0.1c-0.2,0.1-0.3,0.2-0.4,0.3c-0.1,0.1-0.1,0.2-0.2,0.3c0,0.1-0.1,0.2-0.1,0.4
	c0,0.2,0,0.4-0.1,0.7s0,0.7,0,1.2s0,0.8,0,1.2s0,0.5,0.1,0.7s0.1,0.3,0.1,0.4s0.1,0.2,0.2,0.3c0.2,0.3,0.6,0.4,1,0.4
	c0.5,0,0.9-0.1,1.2-0.4c0.1-0.1,0.2-0.3,0.3-0.5s0.1-0.4,0.1-0.6v-0.2h-1.5v-2.1h4.1v1.4C62.2,89.1,62.2,89.8,62,90.3"/>
<polygon class="st1" points="69.3,92.8 66,87.5 66,92.8 63.4,92.8 63.4,82.3 65.7,82.3 69,87.6 69,82.3 71.6,82.3 71.6,92.8 "/>
<path class="st1" d="M79.2,92.8l-0.5-1.6h-3.2L75,92.8h-2.7l3.8-10.5h2l3.8,10.5H79.2L79.2,92.8z M77.2,86.3L77.2,86.3l-0.9,2.8h1.8
	L77.2,86.3z"/>
<polygon class="st1" points="86.2,84.6 86.2,92.8 83.6,92.8 83.6,84.6 81.1,84.6 81.1,82.3 88.8,82.3 88.8,84.6 "/>
<path class="st1" d="M97.3,90.6c-0.2,0.5-0.5,0.9-0.9,1.2c-0.4,0.3-0.8,0.6-1.3,0.8c-0.5,0.2-1,0.3-1.5,0.3s-1.1-0.1-1.5-0.3
	c-0.5-0.2-0.9-0.4-1.3-0.8c-0.4-0.3-0.7-0.7-0.8-1.2c-0.2-0.5-0.3-1-0.3-1.5v-6.8h2.6V89c0,0.5,0.1,0.8,0.4,1.1
	c0.2,0.3,0.6,0.4,1,0.4s0.8-0.1,1-0.4s0.4-0.6,0.4-1.1v-6.7h2.6v6.8C97.6,89.7,97.5,90.2,97.3,90.6"/>
<path class="st1" d="M104.3,92.8l-1.8-3.9h-0.9v3.9H99V82.3h4.1c0.6,0,1.1,0.1,1.5,0.3c0.4,0.2,0.8,0.4,1.1,0.8
	c0.3,0.3,0.5,0.7,0.7,1.1s0.2,0.8,0.2,1.3c0,0.7-0.2,1.2-0.5,1.7s-0.7,0.8-1.2,1.1l2.3,4.4h-2.9V92.8z M103.8,84.9L103.8,84.9
	c-0.2-0.2-0.5-0.3-0.8-0.3h-1.4v2.1h1.4c0.3,0,0.6-0.1,0.8-0.3s0.3-0.5,0.3-0.7S104,85.2,103.8,84.9"/>
<polygon class="st1" points="108.1,92.8 108.1,82.3 115.2,82.3 115.2,84.6 110.7,84.6 110.7,86.4 114.6,86.4 114.6,88.7 110.7,88.7 
	110.7,90.5 115.2,90.5 115.2,92.8 "/>
<rect x="50.3" y="82.3" class="st2" width="2.6" height="10.5"/>
<path class="st1" d="M51.7,106.5c-0.2,0.7-0.6,1.4-1.1,1.9c-0.6,0.6-1.2,1-1.9,1.2s-1.4,0.3-2.3,0.3s-1.5-0.1-2.2-0.4
	c-0.6-0.3-1.2-0.7-1.8-1.2c-0.6-0.6-1-1.3-1.2-2.2c-0.2-0.8-0.2-2-0.2-3.4s0.1-2.6,0.2-3.4s0.6-1.5,1.2-2.2c0.5-0.5,1.1-0.9,1.7-1.2
	c0.6-0.3,1.4-0.4,2.2-0.4s1.6,0.1,2.3,0.4s1.2,0.6,1.7,1.1s0.8,0.9,1,1.5s0.4,1.1,0.5,1.8h-3.5c-0.2-0.5-0.4-0.9-0.7-1.2
	s-0.8-0.4-1.3-0.4c-0.3,0-0.6,0.1-0.8,0.2s-0.4,0.3-0.6,0.4c-0.1,0.1-0.2,0.2-0.2,0.4s-0.1,0.3-0.2,0.6s-0.1,0.6-0.1,1s0,0.9,0,1.6
	s0,1.2,0,1.6s0.1,0.7,0.1,1c0,0.2,0.1,0.4,0.2,0.6s0.1,0.3,0.2,0.4c0.3,0.4,0.8,0.6,1.4,0.6c0.7,0,1.2-0.2,1.5-0.6
	c0.2-0.2,0.3-0.4,0.4-0.7s0.1-0.5,0.1-0.8v-0.2h-2.1v-2.9h5.5v2C52.1,104.8,51.9,105.8,51.7,106.5"/>
<polygon class="st1" points="53.7,109.9 53.7,95.7 57.2,95.7 57.2,106.8 63.2,106.8 63.2,109.9 "/>
<path class="st1" d="M74.7,106.2c-0.2,0.8-0.6,1.5-1.2,2.2c-0.5,0.5-1.1,0.9-1.8,1.2c-0.6,0.3-1.4,0.4-2.2,0.4s-1.6-0.1-2.2-0.4
	s-1.2-0.7-1.8-1.2c-0.6-0.6-1-1.3-1.2-2.2c-0.2-0.8-0.2-2-0.2-3.4s0.1-2.6,0.2-3.4s0.6-1.5,1.2-2.2c0.5-0.5,1.1-0.9,1.8-1.2
	s1.4-0.4,2.2-0.4s1.6,0.1,2.2,0.4s1.2,0.7,1.8,1.2c0.6,0.6,1,1.3,1.2,2.2c0.2,0.8,0.2,2,0.2,3.4S74.8,105.4,74.7,106.2 M71.4,101.2
	L71.4,101.2c0-0.4-0.1-0.7-0.1-1c-0.1-0.2-0.1-0.4-0.2-0.6c-0.1-0.1-0.1-0.3-0.2-0.4c-0.1-0.2-0.3-0.3-0.6-0.4
	c-0.2-0.1-0.5-0.2-0.8-0.2s-0.6,0.1-0.8,0.2s-0.4,0.3-0.6,0.4c-0.1,0.1-0.2,0.2-0.2,0.4c-0.1,0.1-0.1,0.3-0.2,0.6s-0.1,0.6-0.1,1
	s0,0.9,0,1.6s0,1.2,0,1.6s0.1,0.7,0.1,1s0.1,0.4,0.2,0.6c0.1,0.1,0.1,0.3,0.2,0.4c0.2,0.2,0.3,0.3,0.6,0.5c0.2,0.1,0.5,0.2,0.8,0.2
	s0.6-0.1,0.8-0.2s0.4-0.3,0.6-0.5c0.1-0.1,0.2-0.2,0.2-0.4c0.1-0.1,0.1-0.3,0.2-0.6s0.1-0.6,0.1-1s0-0.9,0-1.6
	S71.4,101.6,71.4,101.2"/>
<path class="st1" d="M86,108.8c-0.8,0.7-1.9,1.1-3.2,1.1h-6.2V95.7h5.9c1.4,0,2.6,0.4,3.3,1.1s1.2,1.7,1.2,3c0,0.7-0.2,1.3-0.5,1.7
	s-0.7,0.8-1.1,1.1c0.2,0.1,0.4,0.3,0.6,0.4s0.4,0.3,0.5,0.6s0.3,0.5,0.4,0.9c0.1,0.3,0.2,0.8,0.2,1.2C87.2,107,86.8,108,86,108.8
	 M83.2,99.2L83.2,99.2c-0.2-0.2-0.5-0.3-0.9-0.3h-2.2v2.3h2.2c0.4,0,0.8-0.1,0.9-0.3c0.2-0.2,0.3-0.5,0.3-0.8S83.4,99.4,83.2,99.2
	 M83.4,104.6L83.4,104.6c-0.2-0.2-0.5-0.4-1-0.4h-2.3v2.5h2.3c0.4,0,0.8-0.1,1-0.4c0.2-0.2,0.3-0.5,0.3-0.9S83.6,104.9,83.4,104.6"
	/>
<path class="st1" d="M96.9,109.9l-0.7-2.1h-4.3l-0.7,2.1h-3.6l5.2-14.2h2.7l5.2,14.2H96.9L96.9,109.9z M94.1,101.1L94.1,101.1
	l-1.3,3.8h2.5L94.1,101.1L94.1,101.1z"/>
<polygon class="st1" points="101.6,109.9 101.6,95.7 105.1,95.7 105.1,106.8 111,106.8 111,109.9 "/>
<linearGradient id="SVGID_1_" gradientUnits="userSpaceOnUse" x1="116.6797" y1="552.65" x2="127.66" y2="552.65" gradientTransform="matrix(1 0 0 1 0 -450)">
	<stop  offset="0" style="stop-color:#E11F26"/>
	<stop  offset="0.18" style="stop-color:#E11F26"/>
	<stop  offset="0.33" style="stop-color:#E53A24"/>
	<stop  offset="0.64" style="stop-color:#EC6C21"/>
	<stop  offset="0.87" style="stop-color:#F18C1F"/>
	<stop  offset="1" style="stop-color:#F3981F"/>
	<stop  offset="1" style="stop-color:#F3981F"/>
</linearGradient>
<path class="st3" d="M118.1,97c-1.5,1.5-1.5,3.6-1.5,5.7s-0.1,4.2,1.5,5.7c1.1,1.1,2.3,1.6,4,1.6c2.7,0,5-1.5,5.5-4.7H124
	c-0.2,0.8-0.7,1.5-1.8,1.5c-0.7,0-1.1-0.3-1.4-0.6c-0.3-0.4-0.6-0.9-0.6-3.6s0.2-3.2,0.6-3.6c0.3-0.3,0.8-0.6,1.4-0.6
	c1.2,0,1.6,0.7,1.8,1.6h3.6c-0.5-3.2-2.8-4.7-5.5-4.7C120.5,95.4,119.2,96,118.1,97"/>
<linearGradient id="SVGID_00000127023538644329250530000013144298569441498518_" gradientUnits="userSpaceOnUse" x1="129.52" y1="552.75" x2="133.08" y2="552.75" gradientTransform="matrix(1 0 0 1 0 -450)">
	<stop  offset="0" style="stop-color:#E11F26"/>
	<stop  offset="0.18" style="stop-color:#E11F26"/>
	<stop  offset="0.33" style="stop-color:#E53A24"/>
	<stop  offset="0.64" style="stop-color:#EC6C21"/>
	<stop  offset="0.87" style="stop-color:#F18C1F"/>
	<stop  offset="1" style="stop-color:#F3981F"/>
	<stop  offset="1" style="stop-color:#F3981F"/>
</linearGradient>
<rect x="129.5" y="95.5" style="fill:url(#SVGID_00000127023538644329250530000013144298569441498518_);" width="3.6" height="14.5"/>
<linearGradient id="SVGID_00000049224011521472777860000017901552315565741702_" gradientUnits="userSpaceOnUse" x1="135.16" y1="552.75" x2="145.83" y2="552.75" gradientTransform="matrix(1 0 0 1 0 -450)">
	<stop  offset="0" style="stop-color:#E11F26"/>
	<stop  offset="0.18" style="stop-color:#E11F26"/>
	<stop  offset="0.33" style="stop-color:#E53A24"/>
	<stop  offset="0.64" style="stop-color:#EC6C21"/>
	<stop  offset="0.87" style="stop-color:#F18C1F"/>
	<stop  offset="1" style="stop-color:#F3981F"/>
	<stop  offset="1" style="stop-color:#F3981F"/>
</linearGradient>
<polygon style="fill:url(#SVGID_00000049224011521472777860000017901552315565741702_);" points="135.2,95.5 135.2,98.7 138.7,98.7 
	138.7,110 142.3,110 142.3,98.7 145.8,98.7 145.8,95.5 "/>
<linearGradient id="SVGID_00000104668907551862922560000006280476866389777305_" gradientUnits="userSpaceOnUse" x1="146.44" y1="552.75" x2="158.74" y2="552.75" gradientTransform="matrix(1 0 0 1 0 -450)">
	<stop  offset="0" style="stop-color:#E11F26"/>
	<stop  offset="0.18" style="stop-color:#E11F26"/>
	<stop  offset="0.33" style="stop-color:#E53A24"/>
	<stop  offset="0.64" style="stop-color:#EC6C21"/>
	<stop  offset="0.87" style="stop-color:#F18C1F"/>
	<stop  offset="1" style="stop-color:#F3981F"/>
	<stop  offset="1" style="stop-color:#F3981F"/>
</linearGradient>
<polygon style="fill:url(#SVGID_00000104668907551862922560000006280476866389777305_);" points="154.9,95.5 152.6,100.7 
	150.3,95.5 146.4,95.5 150.8,104.1 150.8,110 154.4,110 154.4,104.1 158.7,95.5 "/>
<linearGradient id="SVGID_00000067196873838254603080000010497631720678503337_" gradientUnits="userSpaceOnUse" x1="20.4417" y1="536.9037" x2="29.5937" y2="536.9037" gradientTransform="matrix(1 0 0 1 0 -450)">
	<stop  offset="0" style="stop-color:#102213"/>
	<stop  offset="0.7" style="stop-color:#677E36"/>
	<stop  offset="0.95" style="stop-color:#708136"/>
	<stop  offset="1" style="stop-color:#738237"/>
</linearGradient>
<path style="fill:url(#SVGID_00000067196873838254603080000010497631720678503337_);" d="M20.5,86c-0.4,2,1.3,4.1,3.8,4.6
	s4.9-0.8,5.2-2.8c0.4-2-1.3-4.1-3.8-4.6c-0.4-0.1-0.7-0.1-1.1-0.1C22.6,83.1,20.9,84.3,20.5,86"/>
<linearGradient id="SVGID_00000044176640555390728950000015824803300418361760_" gradientUnits="userSpaceOnUse" x1="19.8" y1="102.9" x2="36.72" y2="102.9" gradientTransform="matrix(1 0 0 -1 0 202)">
	<stop  offset="0" style="stop-color:#102213"/>
	<stop  offset="0.7022" style="stop-color:#677E36"/>
	<stop  offset="0.9497" style="stop-color:#708137"/>
	<stop  offset="1" style="stop-color:#738237"/>
</linearGradient>
<path style="fill:url(#SVGID_00000044176640555390728950000015824803300418361760_);" d="M31.5,83.8c1.1,1.4,1.7,3.6,1.3,5.3
	c-0.4,2.1-1.9,3.8-4.1,4.5C27.1,94.1,26,94,27,95.7c0.9,1.5,1.7,2.4,2.3,3.8c2.1,5.2,0,12.3-7.6,14.3c-0.6,0.2-1.2,0.4-1.9,0.6
	c10-0.4,16.9-7.9,16.9-17.5C36.7,92.1,34.6,87.1,31.5,83.8L31.5,83.8L31.5,83.8z"/>
<g>
	<g>
		<defs>
			<path id="SVGID_00000178162562561281578700000005104449702908154793_" d="M6,84.8c-0.7,1.2-1.1,2.5-1.1,3.9
				c0,1.7,0.5,3.3,1.3,4.7c3.7,6,7.1,5.2,9,9.9c1.5,3.7-1.9,6.9-7,2.5c-5.8-5-7.5-15.6-3.6-21.3c-2.8,3.2-4.3,7.8-4.3,12.4
				c0,3.1,0.8,6.2,2.3,8.9c1.2,2.2,2.8,4,4.9,5.4c2.2,1.4,4.9,2.4,7.5,2.7c1.3,0.1,2.7,0.1,4-0.2c2.1-0.5,4-1.6,5.6-3.1
				c4.7-4.3,2-11-1.9-14.7s-6.4-6.5-5.8-9.7c0.7-3.6,4.8-6.2,9.2-5.3c1.2,0.2,2.3,0.5,3.3,1.1c-3-2.3-6.7-3.2-10.8-3.2
				C13.7,78.7,8.5,80.5,6,84.8"/>
		</defs>
		<clipPath id="SVGID_00000093879827514473887860000017470818778343752337_">
			<use xlink:href="#SVGID_00000178162562561281578700000005104449702908154793_"  style="overflow:visible;"/>
		</clipPath>
		<g style="clip-path:url(#SVGID_00000093879827514473887860000017470818778343752337_);">
			
				<linearGradient id="SVGID_00000062166344047032145420000001930874591830338235_" gradientUnits="userSpaceOnUse" x1="-8295.7812" y1="6470.1641" x2="-8295.2412" y2="6470.1641" gradientTransform="matrix(53.35 0 0 -53.35 442590.8125 345279.5938)">
				<stop  offset="0" style="stop-color:#102213"/>
				<stop  offset="0.7" style="stop-color:#677E36"/>
				<stop  offset="0.95" style="stop-color:#708136"/>
				<stop  offset="1" style="stop-color:#738237"/>
			</linearGradient>
			
				<rect x="0.3" y="78.7" style="fill:url(#SVGID_00000062166344047032145420000001930874591830338235_);" width="29" height="35.3"/>
		</g>
	</g>
</g>
<g>
	<g>
		<defs>
			<path id="SVGID_00000123408049680177348240000000681511095678945165_" d="M29.3,81.8L29.3,81.8L29.3,81.8z"/>
		</defs>
		<clipPath id="SVGID_00000020363771728631257800000017415924139799792563_">
			<use xlink:href="#SVGID_00000123408049680177348240000000681511095678945165_"  style="overflow:visible;"/>
		</clipPath>
		<g style="clip-path:url(#SVGID_00000020363771728631257800000017415924139799792563_);">
			
				<linearGradient id="SVGID_00000096742302900805348820000015900144206564798614_" gradientUnits="userSpaceOnUse" x1="-8161.1582" y1="6568.814" x2="-8161.1582" y2="6568.814" gradientTransform="matrix(26.77 0 0 -26.77 218503.5156 175928.9531)">
				<stop  offset="0" style="stop-color:#102213"/>
				<stop  offset="0.7" style="stop-color:#677E36"/>
				<stop  offset="0.95" style="stop-color:#708136"/>
				<stop  offset="1" style="stop-color:#738237"/>
			</linearGradient>
			<path style="fill:url(#SVGID_00000096742302900805348820000015900144206564798614_);" d="M29.3,81.8L29.3,81.8L29.3,81.8z"/>
		</g>
	</g>
</g>
<g>
	<g>
		<defs>
			<path id="SVGID_00000177451918813912032330000015967740919799379586_" d="M29.3,81.8L29.3,81.8L29.3,81.8z"/>
		</defs>
		<clipPath id="SVGID_00000153679545091339665010000005332046357717828783_">
			<use xlink:href="#SVGID_00000177451918813912032330000015967740919799379586_"  style="overflow:visible;"/>
		</clipPath>
		<g style="clip-path:url(#SVGID_00000153679545091339665010000005332046357717828783_);">
			
				<linearGradient id="SVGID_00000176034579362427526450000010255261697502289545_" gradientUnits="userSpaceOnUse" x1="-7009.8501" y1="7397.6914" x2="-7009.8501" y2="7397.6914" gradientTransform="matrix(5.13 0 0 -5.13 35989.832 38031.957)">
				<stop  offset="0" style="stop-color:#102213"/>
				<stop  offset="0.7" style="stop-color:#677E36"/>
				<stop  offset="0.95" style="stop-color:#708136"/>
				<stop  offset="1" style="stop-color:#738237"/>
			</linearGradient>
			<path style="fill:url(#SVGID_00000176034579362427526450000010255261697502289545_);" d="M29.3,81.8L29.3,81.8L29.3,81.8z"/>
		</g>
	</g>
</g>
<g>
	<g>
		<defs>
			<path id="SVGID_00000003791768629096207240000018288888005223562145_" d="M29.3,81.8L29.3,81.8z"/>
		</defs>
		<clipPath id="SVGID_00000003062915920026011080000000010272186730731710_">
			<use xlink:href="#SVGID_00000003791768629096207240000018288888005223562145_"  style="overflow:visible;"/>
		</clipPath>
		<g style="clip-path:url(#SVGID_00000003062915920026011080000000010272186730731710_);">
			
				<linearGradient id="SVGID_00000170237477999698888550000011537337512701684379_" gradientUnits="userSpaceOnUse" x1="29.3" y1="531.8" x2="29.3" y2="531.8" gradientTransform="matrix(1 0 0 1 0 -450)">
				<stop  offset="0" style="stop-color:#102213"/>
				<stop  offset="0.7" style="stop-color:#677E36"/>
				<stop  offset="0.95" style="stop-color:#708136"/>
				<stop  offset="1" style="stop-color:#738237"/>
			</linearGradient>
			<path style="fill:url(#SVGID_00000170237477999698888550000011537337512701684379_);" d="M29.3,81.8L29.3,81.8L29.3,81.8z"/>
		</g>
	</g>
</g>
<g>
	<g>
		<defs>
			<path id="SVGID_00000090296497121715790990000012906395769931909768_" d="M29.3,81.8L29.3,81.8z"/>
		</defs>
		<clipPath id="SVGID_00000018212047322775442310000001632315995377740961_">
			<use xlink:href="#SVGID_00000090296497121715790990000012906395769931909768_"  style="overflow:visible;"/>
		</clipPath>
		<g style="clip-path:url(#SVGID_00000018212047322775442310000001632315995377740961_);">
			
				<linearGradient id="SVGID_00000132802779315802033010000000531185016252299949_" gradientUnits="userSpaceOnUse" x1="-7027.4502" y1="7390.8071" x2="-7027.4502" y2="7390.8071" gradientTransform="matrix(5.18 0 0 -5.18 36431.4922 38366.1797)">
				<stop  offset="0" style="stop-color:#102213"/>
				<stop  offset="0.7" style="stop-color:#677E36"/>
				<stop  offset="0.95" style="stop-color:#708136"/>
				<stop  offset="1" style="stop-color:#738237"/>
			</linearGradient>
			<path style="fill:url(#SVGID_00000132802779315802033010000000531185016252299949_);" d="M29.3,81.8L29.3,81.8L29.3,81.8z"/>
		</g>
	</g>
</g>
<linearGradient id="SVGID_00000088825830261842902720000010131328229158858387_" gradientUnits="userSpaceOnUse" x1="20.3617" y1="536.4037" x2="29.5083" y2="536.4037" gradientTransform="matrix(1 0 0 1 0 -450)">
	<stop  offset="0" style="stop-color:#02793D"/>
	<stop  offset="0" style="stop-color:#02793D"/>
	<stop  offset="0.58" style="stop-color:#6FB03F"/>
	<stop  offset="0.7" style="stop-color:#86BC40"/>
	<stop  offset="1" style="stop-color:#93C13D"/>
</linearGradient>
<path style="fill:url(#SVGID_00000088825830261842902720000010131328229158858387_);" d="M20.4,85.5c-0.4,2,1.3,4,3.8,4.5
	s4.8-0.7,5.2-2.7c0.4-2-1.3-4-3.8-4.5c-0.4-0.1-0.8-0.1-1.1-0.1C22.5,82.6,20.8,83.8,20.4,85.5"/>
<g>
	<g>
		<defs>
			<polyline id="SVGID_00000005242934983599787610000006990925011041062029_" points="29.3,81.8 29.3,81.8 29.3,81.8 			"/>
		</defs>
		<clipPath id="SVGID_00000068665207580477915740000007976767943404818864_">
			<use xlink:href="#SVGID_00000005242934983599787610000006990925011041062029_"  style="overflow:visible;"/>
		</clipPath>
		<g style="clip-path:url(#SVGID_00000068665207580477915740000007976767943404818864_);">
			
				<linearGradient id="SVGID_00000176723353148802836120000010056084303086162104_" gradientUnits="userSpaceOnUse" x1="-8160.5884" y1="6568.8286" x2="-8160.5884" y2="6568.8286" gradientTransform="matrix(26.74 0 0 -26.74 218243.4375 175732.2656)">
				<stop  offset="0" style="stop-color:#187A3D"/>
				<stop  offset="0.17" style="stop-color:#2D863D"/>
				<stop  offset="0.51" style="stop-color:#63A73F"/>
				<stop  offset="0.7" style="stop-color:#84BC41"/>
				<stop  offset="0.93" style="stop-color:#8EBF3E"/>
				<stop  offset="1" style="stop-color:#93C13D"/>
			</linearGradient>
			<path style="fill:url(#SVGID_00000176723353148802836120000010056084303086162104_);" d="M29.3,81.8L29.3,81.8L29.3,81.8z"/>
		</g>
	</g>
</g>
<g>
	<g>
		<defs>
			<polyline id="SVGID_00000114762119935472084010000017533144551091146172_" points="29.3,81.8 29.3,81.8 29.3,81.8 			"/>
		</defs>
		<clipPath id="SVGID_00000035515108986058542560000012304866102499574152_">
			<use xlink:href="#SVGID_00000114762119935472084010000017533144551091146172_"  style="overflow:visible;"/>
		</clipPath>
		<g style="clip-path:url(#SVGID_00000035515108986058542560000012304866102499574152_);">
			
				<linearGradient id="SVGID_00000138551424141471501000000011558441093704431529_" gradientUnits="userSpaceOnUse" x1="-7013.3267" y1="7404.5938" x2="-7013.3267" y2="7404.5938" gradientTransform="matrix(5.12 0 0 -5.12 35937.5312 37993.3203)">
				<stop  offset="0" style="stop-color:#187A3D"/>
				<stop  offset="0.17" style="stop-color:#2D863D"/>
				<stop  offset="0.51" style="stop-color:#63A73F"/>
				<stop  offset="0.7" style="stop-color:#84BC41"/>
				<stop  offset="0.93" style="stop-color:#8EBF3E"/>
				<stop  offset="1" style="stop-color:#93C13D"/>
			</linearGradient>
			<path style="fill:url(#SVGID_00000138551424141471501000000011558441093704431529_);" d="M29.3,81.8L29.3,81.8L29.3,81.8z"/>
		</g>
	</g>
</g>
<g>
	<g>
		<defs>
			<path id="SVGID_00000102537680471488434980000001990752528366137277_" d="M29.3,81.8L29.3,81.8L29.3,81.8z"/>
		</defs>
		<clipPath id="SVGID_00000049194007470895822530000011369638601389802914_">
			<use xlink:href="#SVGID_00000102537680471488434980000001990752528366137277_"  style="overflow:visible;"/>
		</clipPath>
		<g style="clip-path:url(#SVGID_00000049194007470895822530000011369638601389802914_);">
			
				<linearGradient id="SVGID_00000128486256052389371540000017868566638800315557_" gradientUnits="userSpaceOnUse" x1="29.3" y1="531.8" x2="29.3" y2="531.8" gradientTransform="matrix(1 0 0 1 0 -450)">
				<stop  offset="0" style="stop-color:#187A3D"/>
				<stop  offset="0.17" style="stop-color:#2D863D"/>
				<stop  offset="0.51" style="stop-color:#63A73F"/>
				<stop  offset="0.7" style="stop-color:#84BC41"/>
				<stop  offset="0.93" style="stop-color:#8EBF3E"/>
				<stop  offset="1" style="stop-color:#93C13D"/>
			</linearGradient>
			<path style="fill:url(#SVGID_00000128486256052389371540000017868566638800315557_);" d="M29.3,81.8L29.3,81.8L29.3,81.8z"/>
		</g>
	</g>
</g>
<g>
	<g>
		<defs>
			<path id="SVGID_00000139258580842381686710000005438851706897664395_" d="M29.3,81.8L29.3,81.8L29.3,81.8z"/>
		</defs>
		<clipPath id="SVGID_00000028311315146091930960000008541217495988480444_">
			<use xlink:href="#SVGID_00000139258580842381686710000005438851706897664395_"  style="overflow:visible;"/>
		</clipPath>
		<g style="clip-path:url(#SVGID_00000028311315146091930960000008541217495988480444_);">
			
				<linearGradient id="SVGID_00000114044145343477011800000006935133799799532176_" gradientUnits="userSpaceOnUse" x1="-7006.6812" y1="7403.5908" x2="-7006.6812" y2="7403.5908" gradientTransform="matrix(5.11 0 0 -5.11 35833.4414 37914.1484)">
				<stop  offset="0" style="stop-color:#187A3D"/>
				<stop  offset="0.17" style="stop-color:#2D863D"/>
				<stop  offset="0.51" style="stop-color:#63A73F"/>
				<stop  offset="0.7" style="stop-color:#84BC41"/>
				<stop  offset="0.93" style="stop-color:#8EBF3E"/>
				<stop  offset="1" style="stop-color:#93C13D"/>
			</linearGradient>
			<path style="fill:url(#SVGID_00000114044145343477011800000006935133799799532176_);" d="M29.3,81.8L29.3,81.8L29.3,81.8z"/>
		</g>
	</g>
</g>
<g>
	<g>
		<defs>
			<path id="SVGID_00000016035151933932573720000017587599916668925354_" d="M5.9,84.3c-0.7,1.2-1.1,2.5-1.1,3.9
				c0,1.6,0.7,3.2,1.5,4.6c3.7,6,7.1,5.4,9,10.1c1.5,3.7-2.1,6.8-7.2,2.4c-5.8-4.9-7.4-15.1-3.4-20.8c-2.8,3.2-4.4,7.3-4.4,11.8
				c0,3.1,0.8,6.2,2.3,8.8c1.2,2.2,2.8,4,4.9,5.4c2.2,1.4,4.8,2.4,7.5,2.7c1.3,0.1,2.7,0.1,3.9-0.2c2.1-0.5,4-1.6,5.6-3.1
				c4.7-4.3,2-10.9-1.9-14.7s-6.5-6.6-5.8-9.8c0.7-3.6,4.9-5.8,9.3-4.9c1.2,0.2,2.3,0.7,3.3,1.3c-3-2.3-6.8-3.7-10.9-3.7
				C13.6,78.2,8.4,80,5.9,84.3"/>
		</defs>
		<clipPath id="SVGID_00000036935136437672857360000017151069816218760068_">
			<use xlink:href="#SVGID_00000016035151933932573720000017587599916668925354_"  style="overflow:visible;"/>
		</clipPath>
		<g style="clip-path:url(#SVGID_00000036935136437672857360000017151069816218760068_);">
			
				<linearGradient id="SVGID_00000029019056802723030640000003078490928876196518_" gradientUnits="userSpaceOnUse" x1="-8296.2598" y1="6469.3442" x2="-8295.71" y2="6469.3442" gradientTransform="matrix(53.54 0 0 -53.54 444161.5312 346464.5)">
				<stop  offset="0" style="stop-color:#02793D"/>
				<stop  offset="0" style="stop-color:#02793D"/>
				<stop  offset="0.58" style="stop-color:#6FB03F"/>
				<stop  offset="0.7" style="stop-color:#86BC40"/>
				<stop  offset="1" style="stop-color:#93C13D"/>
			</linearGradient>
			
				<rect x="0.2" y="78.2" style="fill:url(#SVGID_00000029019056802723030640000003078490928876196518_);" width="29.1" height="35.2"/>
		</g>
	</g>
</g>
<linearGradient id="SVGID_00000156567025148479332410000014058910313386662798_" gradientUnits="userSpaceOnUse" x1="20" y1="549" x2="36.52" y2="549" gradientTransform="matrix(1 0 0 1 0 -450)">
	<stop  offset="0" style="stop-color:#02793D"/>
	<stop  offset="0" style="stop-color:#02793D"/>
	<stop  offset="0.58" style="stop-color:#6FB03F"/>
	<stop  offset="0.7" style="stop-color:#86BC40"/>
	<stop  offset="1" style="stop-color:#93C13D"/>
</linearGradient>
<path style="fill:url(#SVGID_00000156567025148479332410000014058910313386662798_);" d="M31.5,83.8c1.1,1.4,1.6,3.1,1.2,4.8
	c-0.4,2.1-1.9,3.8-4.1,4.5c-1.6,0.5-2.8,0.3-1.7,2c0.9,1.5,1.7,2.2,2.3,3.6c1.4,3.4,1,7.8-1.5,11.1l-0.1,0.1l0,0l-0.1,0.1
	c-0.5,0.6-1.1,1.2-2,1.9c-0.1,0-0.1,0.1-0.2,0.1c-0.1,0.1-0.1,0.1-0.2,0.1c-0.6,0.4-1.2,0.8-1.9,1c-0.9,0.4-1.9,0.8-3.2,1.1
	c9.3-0.8,16.5-8.6,16.5-18.1C36.5,91.5,34.6,87.1,31.5,83.8L31.5,83.8L31.5,83.8z"/>
<path class="st2" d="M167.8,110.1c-2.6,0-4.8-1.6-4.8-4.6c0-1,0.3-2,1.2-3.9l2.9-5.9h3.6l-2.8,5.6c0.3-0.1,0.6-0.1,0.8-0.1
	c1.8,0,3.8,1.5,3.8,4.3C172.5,108.5,170.3,110.1,167.8,110.1 M167.7,103.9c-0.8,0-1.5,0.6-1.5,1.6s0.7,1.6,1.5,1.6s1.5-0.6,1.5-1.6
	S168.5,103.9,167.7,103.9"/>
<path class="st2" d="M179,110.1c-2.4,0-4.8-1.3-4.8-4.5h3.3c0,1,0.6,1.5,1.5,1.5s1.5-0.5,1.5-1.5c0-0.9-0.6-1.5-1.5-1.5h-0.5v-2.8
	h0.5c1,0,1.4-0.7,1.4-1.3c0-0.9-0.6-1.4-1.3-1.4s-1.3,0.5-1.3,1.3h-3.3c0-2.7,2.1-4.3,4.6-4.3s4.6,1.8,4.6,4.2
	c0,1.6-0.8,2.3-1.5,2.8c0.8,0.5,1.6,1.4,1.6,3.1C183.8,108.7,181.5,110.1,179,110.1"/>
<path class="st2" d="M194,110l-0.7-2.1h-4.4l-0.7,2.1h-3.7l5.2-14.3h2.7l5.2,14.3H194L194,110z M191.2,101.1l-1.3,3.8h2.5
	L191.2,101.1L191.2,101.1z"/>
<path class="st2" d="M43.2,120.7c-0.9,0-1.5-0.2-2-0.8l0.4-0.4c0.5,0.5,0.9,0.6,1.6,0.6c0.9,0,1.4-0.4,1.4-1.1
	c0-0.3-0.1-0.6-0.3-0.7c-0.2-0.2-0.3-0.2-0.8-0.3l-0.7-0.1c-0.5-0.1-0.8-0.2-1.1-0.4c-0.3-0.3-0.5-0.6-0.5-1.1c0-1,0.7-1.6,1.9-1.6
	c0.8,0,1.2,0.2,1.7,0.6l-0.4,0.4c-0.3-0.3-0.8-0.5-1.4-0.5c-0.8,0-1.2,0.4-1.2,1.1c0,0.3,0.1,0.5,0.3,0.7s0.5,0.2,0.8,0.3l0.7,0.1
	c0.5,0.1,0.8,0.2,1.1,0.4c0.3,0.3,0.5,0.7,0.5,1.2C45.2,120.1,44.4,120.7,43.2,120.7"/>
<polygon class="st2" points="50.1,120.7 50.1,114.8 53.7,114.8 53.7,115.4 50.7,115.4 50.7,117.4 53.2,117.4 53.2,118 50.7,118 
	50.7,120.1 53.7,120.1 53.7,120.7 "/>
<path class="st2" d="M60.3,120.7c-0.6,0-1.1-0.2-1.5-0.6c-0.5-0.6-0.6-1.1-0.6-2.4s0-1.8,0.6-2.4c0.4-0.4,0.8-0.6,1.5-0.6
	c1.1,0,1.8,0.7,2,1.7h-0.6c-0.2-0.7-0.7-1.2-1.4-1.2c-0.4,0-0.7,0.1-1,0.4c-0.4,0.4-0.4,0.8-0.4,2s0,1.6,0.4,2
	c0.3,0.3,0.6,0.4,1,0.4c0.7,0,1.2-0.5,1.4-1.2h0.6C62.2,120,61.4,120.7,60.3,120.7"/>
<polygon class="st2" points="68.8,115.4 68.8,120.7 68.2,120.7 68.2,115.4 66.5,115.4 66.5,114.8 70.5,114.8 70.5,115.4 "/>
<path class="st2" d="M78.3,120.1c-0.4,0.4-0.8,0.6-1.4,0.6s-1.1-0.2-1.5-0.6c-0.6-0.6-0.6-1.1-0.6-2.4s0-1.8,0.6-2.4
	c0.4-0.4,0.8-0.6,1.5-0.6s1.1,0.2,1.4,0.6c0.6,0.6,0.6,1.1,0.6,2.4S78.8,119.6,78.3,120.1 M77.8,115.7c-0.3-0.3-0.6-0.4-1-0.4
	s-0.7,0.1-1,0.4c-0.4,0.4-0.4,0.8-0.4,2s0,1.6,0.4,2c0.3,0.3,0.6,0.4,1,0.4s0.7-0.1,1-0.4c0.4-0.4,0.4-0.8,0.4-2
	S78.2,116.1,77.8,115.7"/>
<path class="st2" d="M87.2,120.7l-1.3-2.6h-1.4v2.6h-0.6v-5.8h2.2c1,0,1.7,0.6,1.7,1.6c0,0.8-0.5,1.4-1.3,1.6l1.4,2.7L87.2,120.7
	L87.2,120.7z M86.1,115.4h-1.6v2.1h1.6c0.7,0,1.2-0.3,1.2-1.1S86.7,115.3,86.1,115.4"/>
<path class="st2" d="M99.7,120.7c-1,0-1.6-0.7-1.6-1.7c0-0.4,0.1-0.8,0.4-1.3l1.4-2.9h0.6l-1.3,2.6c0.2-0.1,0.4-0.1,0.6-0.1
	c0.9,0,1.5,0.7,1.5,1.7S100.7,120.7,99.7,120.7 M99.7,117.8c-0.6,0-1,0.5-1,1.2s0.4,1.2,1,1.2s1-0.5,1-1.2S100.4,117.8,99.7,117.8"
	/>
<path class="st2" d="M107.4,120.7c-0.9,0-1.7-0.5-1.7-1.5h0.6c0.1,0.7,0.6,1,1.1,1c0.6,0,1.1-0.4,1.1-1.1s-0.3-1.1-1.2-1.1h-0.1
	v-0.5h0.1c0.7,0,1-0.4,1-1.1s-0.4-1.1-1-1.1s-1,0.4-1.1,1h-0.6c0.1-0.9,0.8-1.5,1.6-1.5c0.9,0,1.6,0.6,1.6,1.6
	c0,0.6-0.3,1.1-0.8,1.3c0.6,0.2,0.9,0.7,0.9,1.4C109.1,120.1,108.3,120.7,107.4,120.7"/>
<path class="st2" d="M117.4,120.7l-0.5-1.3h-2.6l-0.5,1.3h-0.7l2.2-5.8h0.5l2.1,5.8C118.1,120.6,117.4,120.6,117.4,120.7z
	 M115.7,115.7l-1.1,3.1h2.2L115.7,115.7z"/>
<polygon class="st2" points="118.7,121.8 118.7,119.9 119.5,119.9 119.5,121.2 "/>
<path class="st2" d="M133.5,120c-0.4,0.4-1,0.7-1.6,0.7s-1.1-0.2-1.5-0.6c-0.6-0.6-0.6-1.1-0.6-2.4s0-1.8,0.6-2.4
	c0.4-0.4,0.9-0.6,1.5-0.6c1.1,0,1.9,0.7,2,1.8h-0.6c-0.2-0.8-0.7-1.2-1.4-1.2c-0.4,0-0.8,0.1-1,0.4c-0.4,0.4-0.4,0.8-0.4,2
	s0,1.6,0.4,2c0.3,0.3,0.6,0.4,1,0.4s0.8-0.2,1.1-0.5c0.2-0.3,0.3-0.6,0.3-1.1v-0.4H132v-0.5h2.1v0.9
	C134,119.2,133.9,119.6,133.5,120"/>
<path class="st2" d="M141,120.7c-1.2,0-2-0.8-2-2v-3.9h0.6v3.9c0,0.9,0.6,1.5,1.4,1.5s1.4-0.6,1.4-1.5v-3.9h0.6v3.9
	C143,119.9,142.1,120.7,141,120.7"/>
<path class="st2" d="M151.5,120.7l-1.3-2.6h-1.4v2.6h-0.6v-5.8h2.2c1,0,1.7,0.6,1.7,1.6c0,0.8-0.5,1.4-1.3,1.6l1.4,2.7L151.5,120.7
	L151.5,120.7z M150.4,115.4h-1.6v2.1h1.6c0.7,0,1.2-0.3,1.2-1.1S151,115.3,150.4,115.4"/>
<path class="st2" d="M159,120.7c-1.2,0-2-0.8-2-2v-3.9h0.6v3.9c0,0.9,0.6,1.5,1.4,1.5s1.4-0.6,1.4-1.5v-3.9h0.6v3.9
	C161.1,119.9,160.2,120.7,159,120.7"/>
<path class="st2" d="M169.6,120c-0.4,0.4-1,0.7-1.6,0.7s-1.1-0.2-1.5-0.6c-0.6-0.6-0.6-1.1-0.6-2.4s0-1.8,0.6-2.4
	c0.4-0.4,0.9-0.6,1.5-0.6c1.1,0,1.9,0.7,2,1.8h-0.6c-0.2-0.8-0.7-1.2-1.4-1.2c-0.4,0-0.8,0.1-1,0.4c-0.4,0.4-0.4,0.8-0.4,2
	s0,1.6,0.4,2c0.3,0.3,0.6,0.4,1,0.4s0.8-0.2,1.1-0.5c0.2-0.3,0.3-0.6,0.3-1.1v-0.4H168v-0.5h2.1v0.9
	C170.1,119.2,170,119.6,169.6,120"/>
<path class="st2" d="M178.4,120.7l-1.3-2.6h-1.4v2.6h-0.6v-5.8h2.2c1,0,1.7,0.6,1.7,1.6c0,0.8-0.5,1.4-1.3,1.6l1.4,2.7L178.4,120.7
	L178.4,120.7z M177.3,115.4h-1.6v2.1h1.6c0.7,0,1.2-0.3,1.2-1.1S178,115.3,177.3,115.4"/>
<path class="st2" d="M187.4,120.7l-0.5-1.3h-2.6l-0.5,1.3h-0.7l2.1-5.8h0.5l2.1,5.8H187.4L187.4,120.7z M185.7,115.7l-1.1,3.1h2.2
	L185.7,115.7L185.7,115.7z"/>
<polygon class="st2" points="196.9,120.7 196.9,116.2 195.4,119.7 194.8,119.7 193.2,116.2 193.2,120.7 192.6,120.7 192.6,114.8 
	193.2,114.8 195.1,118.9 196.9,114.8 197.6,114.8 197.6,120.7 "/>
<rect x="199" y="119.9" class="st2" width="0.8" height="0.8"/>
<linearGradient id="SVGID_00000092448751285054696030000005174579146194821280_" gradientUnits="userSpaceOnUse" x1="134.7261" y1="115" x2="149.8969" y2="115" gradientTransform="matrix(1 0 0 -1 0 202)">
	<stop  offset="0" style="stop-color:#FCEC04"/>
	<stop  offset="0.2053" style="stop-color:#FBE108"/>
	<stop  offset="0.5672" style="stop-color:#F8C311"/>
	<stop  offset="1" style="stop-color:#F3981F"/>
	<stop  offset="1" style="stop-color:#E79C23"/>
	<stop  offset="1" style="stop-color:#C8A82C"/>
	<stop  offset="1" style="stop-color:#95BB3C"/>
	<stop  offset="1" style="stop-color:#8CBE3F"/>
</linearGradient>
<polygon style="fill:url(#SVGID_00000092448751285054696030000005174579146194821280_);" points="134.7,84.6 137.6,86.5 149.9,94.1 
	149.9,87.5 142.9,83.1 137.7,79.9 137.7,79.9 "/>
<path class="st32" d="M137.7,79.9L137.7,79.9L137.7,79.9z"/>
<g class="st33">
	<g>
		<g>
			<defs>
				<rect id="SVGID_00000020370249803343584490000018107059329994713783_" x="134.7" y="79.9" width="15.2" height="14.2"/>
			</defs>
			<clipPath id="SVGID_00000099630276351667416220000011658269104947119003_">
				<use xlink:href="#SVGID_00000020370249803343584490000018107059329994713783_"  style="overflow:visible;"/>
			</clipPath>
			<g style="clip-path:url(#SVGID_00000099630276351667416220000011658269104947119003_);">
				<g>
					<defs>
						<polygon id="SVGID_00000025439653375193526800000008976494533316249743_" points="142.9,83.1 137.7,79.9 137.7,79.9 
							134.7,84.6 137.6,86.5 149.9,94.1 149.9,87.5 						"/>
					</defs>
					<clipPath id="SVGID_00000152247634896799045800000011512481715924710796_">
						<use xlink:href="#SVGID_00000025439653375193526800000008976494533316249743_"  style="overflow:visible;"/>
					</clipPath>
					<defs>
						<filter id="Adobe_OpacityMaskFilter" filterUnits="userSpaceOnUse" x="128.1" y="72.8" width="28.4" height="28.4">
							<feColorMatrix  type="matrix" values="1 0 0 0 0  0 1 0 0 0  0 0 1 0 0  0 0 0 1 0"/>
						</filter>
					</defs>
					
						<mask maskUnits="userSpaceOnUse" x="128.1" y="72.8" width="28.4" height="28.4" id="SVGID_00000091725520451216962530000014114802801629391248_">
						<g class="st35">
							<g>
								<defs>
									<polygon id="SVGID_00000133518236992945946080000007092846970589227949_" points="142.9,83.1 137.7,79.9 137.7,79.9 
										134.7,84.6 137.6,86.5 149.9,94.1 149.9,87.5 									"/>
								</defs>
								
									<clipPath id="SVGID_00000089534102126151494640000016456364113840053377_" style="clip-path:url(#SVGID_00000152247634896799045800000011512481715924710796_);">
									<use xlink:href="#SVGID_00000133518236992945946080000007092846970589227949_"  style="overflow:visible;"/>
								</clipPath>
								
									<linearGradient id="SVGID_00000172408096843526420390000016034958266428735894_" gradientUnits="userSpaceOnUse" x1="-8763.7871" y1="-5215.0771" x2="-8763.2432" y2="-5215.0771" gradientTransform="matrix(-24.3736 -16.7483 16.7483 -24.3736 -126110.1328 -273795.5938)">
									<stop  offset="0" style="stop-color:#000000"/>
									<stop  offset="0.3519" style="stop-color:#000000"/>
									<stop  offset="0.9652" style="stop-color:#FFFFFF"/>
									<stop  offset="1" style="stop-color:#FFFFFF"/>
								</linearGradient>
								
									<polygon style="clip-path:url(#SVGID_00000089534102126151494640000016456364113840053377_);fill:url(#SVGID_00000172408096843526420390000016034958266428735894_);" points="
									145,101.2 128.1,89.6 139.6,72.8 156.5,84.5 								"/>
							</g>
						</g>
					</mask>
					
						<linearGradient id="SVGID_00000107590374824254159530000016704536369251759033_" gradientUnits="userSpaceOnUse" x1="-8763.7871" y1="-5215.0771" x2="-8763.2432" y2="-5215.0771" gradientTransform="matrix(-24.3736 -16.7483 16.7483 -24.3736 -126110.1328 -273795.5938)">
						<stop  offset="0" style="stop-color:#FFFFFF"/>
						<stop  offset="0.3519" style="stop-color:#FFFFFF"/>
						<stop  offset="0.412" style="stop-color:#F2F2F2"/>
						<stop  offset="0.5235" style="stop-color:#D0D0CF"/>
						<stop  offset="0.6744" style="stop-color:#999897"/>
						<stop  offset="0.8566" style="stop-color:#4D4C4B"/>
						<stop  offset="0.9652" style="stop-color:#1D1C1A"/>
						<stop  offset="1" style="stop-color:#1D1C1A"/>
					</linearGradient>
					
						<polygon style="clip-path:url(#SVGID_00000152247634896799045800000011512481715924710796_);mask:url(#SVGID_00000091725520451216962530000014114802801629391248_);fill:url(#SVGID_00000107590374824254159530000016704536369251759033_);" points="
						145,101.2 128.1,89.6 139.6,72.8 156.5,84.5 					"/>
				</g>
			</g>
		</g>
	</g>
</g>
<linearGradient id="SVGID_00000130648073184000992180000009087245406736900509_" gradientUnits="userSpaceOnUse" x1="125.5198" y1="115" x2="142.8969" y2="115" gradientTransform="matrix(1 0 0 -1 0 202)">
	<stop  offset="0" style="stop-color:#FCEC04"/>
	<stop  offset="2.680720e-02" style="stop-color:#FCEC04"/>
	<stop  offset="0.2266" style="stop-color:#FBE108"/>
	<stop  offset="0.5788" style="stop-color:#F8C311"/>
	<stop  offset="1" style="stop-color:#F3981F"/>
	<stop  offset="1" style="stop-color:#E79C23"/>
	<stop  offset="1" style="stop-color:#C8A82C"/>
	<stop  offset="1" style="stop-color:#95BB3C"/>
	<stop  offset="1" style="stop-color:#8CBE3F"/>
</linearGradient>
<polygon style="fill:url(#SVGID_00000130648073184000992180000009087245406736900509_);" points="125.5,87.5 125.5,94.1 137.6,86.5 
	142.9,83.1 137.7,79.9 137.7,79.9 "/>
</svg>
