<?xml version="1.0" encoding="utf-8"?>
<!-- Generator: Adobe Illustrator 26.0.3, SVG Export Plug-In . SVG Version: 6.00 Build 0)  -->
<svg version="1.1" id="Layer_1" xmlns="http://www.w3.org/2000/svg" xmlns:xlink="http://www.w3.org/1999/xlink" x="0px" y="0px"
	 viewBox="0 0 200 200" style="enable-background:new 0 0 200 200;" xml:space="preserve">
<style type="text/css">
	.st0{fill:#12A74F;}
	.st1{fill:#F5F6F7;}
</style>
<g>
	<path class="st0" d="M8.1,139.6c4.5,0,6.8,2.7,6.8,7.4v0.9h-4.4v-1.2c0-2.1-0.8-2.9-2.3-2.9c-1.4,0-2.3,0.8-2.3,2.9
		c0,6,9,7.2,9,15.6c0,4.7-2.4,7.4-6.9,7.4c-4.5,0-6.8-2.7-6.8-7.4v-1.8h4.3v2.1c0,2.1,0.9,2.9,2.4,2.9c1.5,0,2.4-0.8,2.4-2.9
		c0-6-9-7.1-9-15.6C1.4,142.2,3.7,139.6,8.1,139.6"/>
	<rect x="21.8" y="139.9" class="st0" width="4.6" height="29.3"/>
	<path class="st0" d="M40.5,152.9H47v9.3c0,4.7-2.3,7.4-6.8,7.4c-4.5,0-6.9-2.7-6.9-7.4v-15.3c0-4.7,2.4-7.4,6.9-7.4
		s6.8,2.7,6.8,7.4v2.9h-4.3v-3.2c0-2.1-0.9-2.9-2.4-2.9c-1.5,0-2.4,0.8-2.4,2.9v15.8c0,2.1,0.9,2.9,2.4,2.9c1.4,0,2.4-0.8,2.4-2.9
		v-5.4h-2.1C40.5,157.1,40.5,152.9,40.5,152.9z"/>
	<polygon class="st0" points="58,148 58,169.3 53.8,169.3 53.8,139.9 59.6,139.9 64.3,157.5 64.3,139.9 68.4,139.9 68.4,169.3 
		63.7,169.3 	"/>
	<path class="st0" d="M79.8,139.9v22.6c0,2.1,0.9,2.9,2.4,2.9c1.4,0,2.4-0.8,2.4-2.9v-22.6h4.3v22.4c0,4.7-2.4,7.4-6.9,7.4
		c-4.5,0-6.8-2.7-6.8-7.4v-22.4H79.8z"/>
	<polygon class="st0" points="105.5,160.7 108.7,139.9 115.1,139.9 115.1,169.3 110.7,169.3 110.7,148.2 107.5,169.3 103.2,169.3 
		99.8,148.5 99.8,169.3 95.8,169.3 95.8,139.9 102.2,139.9 	"/>
	<rect x="177.5" y="139.9" class="st0" width="8.2" height="42.6"/>
	<rect x="190.6" y="139.9" class="st0" width="8.2" height="42.6"/>
	<rect x="2" y="49.9" class="st1" width="4.4" height="86"/>
	<rect x="10" y="40.2" class="st1" width="2.5" height="95.7"/>
	<polygon class="st1" points="23.7,135.9 16,135.9 16,52 23.7,62.8 	"/>
	<rect x="27.2" y="40.2" class="st1" width="2.2" height="95.7"/>
	<rect x="33.1" y="59.7" class="st1" width="4.5" height="76.3"/>
	<rect x="52.4" y="40.2" class="st1" width="2.2" height="95.7"/>
	<rect x="58.2" y="67.8" class="st1" width="2.2" height="68.2"/>
	<rect x="64" y="40.2" class="st1" width="4.1" height="95.7"/>
	<rect x="83.3" y="40.2" class="st1" width="2" height="95.7"/>
	<rect x="88.9" y="48.3" class="st1" width="4.2" height="87.6"/>
	<rect x="96.8" y="40.2" class="st1" width="4.2" height="95.7"/>
	<rect x="104.6" y="56.4" class="st1" width="2.2" height="79.5"/>
	<rect x="110.4" y="40.2" class="st1" width="4.7" height="95.7"/>
	<rect x="126.8" y="66.2" class="st1" width="7.8" height="69.8"/>
	<rect x="138.3" y="48.3" class="st1" width="4.7" height="87.6"/>
	<polygon class="st1" points="162,135.9 152.4,135.9 152.4,47.4 157.2,33.7 162,47.4 	"/>
	<rect x="171.2" y="40.2" class="st1" width="4.2" height="95.7"/>
	<polygon class="st1" points="186.1,135.9 178.4,135.9 178.4,46.6 182.1,46.6 183.4,46.6 186.1,46.6 	"/>
	<rect x="189.5" y="40.2" class="st1" width="2.5" height="95.7"/>
	<rect x="194.5" y="67.8" class="st1" width="4.2" height="68.2"/>
	<polygon class="st1" points="46.8,68.9 46.8,56.4 44.3,56.4 44.3,80 41.2,80 41.2,135.9 48.8,135.9 48.8,68.9 	"/>
	<polygon class="st1" points="118.6,41.4 118.6,148.7 121.8,148.7 121.8,25.6 	"/>
	<polygon class="st1" points="72.4,50.8 75.1,44 75.7,17.5 76.2,44 78.9,50.8 78.9,135.9 72.4,135.9 	"/>
	<polygon class="st1" points="5.1,173.8 5.1,181.8 3.7,181.8 3.7,173.8 1.2,173.8 1.2,172.6 7.6,172.6 7.6,173.8 	"/>
	<polygon class="st1" points="19.4,181.8 19.4,177.8 15.7,177.8 15.7,181.8 14.3,181.8 14.3,172.6 15.7,172.6 15.7,176.5 
		19.4,176.5 19.4,172.6 20.8,172.6 20.8,181.8 	"/>
	<polygon class="st1" points="28,181.8 28,172.6 33.9,172.6 33.9,173.8 29.4,173.8 29.4,176.5 33.2,176.5 33.2,177.8 29.4,177.8 
		29.4,180.5 33.9,180.5 33.9,181.8 	"/>
	<path class="st1" d="M55.4,181.8l-1.9-3.9h-1.7v3.9h-1.4v-9.1h3.5c0.9,0,1.6,0.2,2.1,0.7c0.5,0.5,0.8,1.2,0.8,1.9
		c0,0.7-0.2,1.2-0.5,1.6c-0.4,0.5-0.8,0.7-1.3,0.9l2.1,4.1L55.4,181.8L55.4,181.8z M54.9,174.2c-0.2-0.2-0.7-0.4-1.1-0.4h-2v2.9h2
		c0.5,0,0.9-0.1,1.1-0.4c0.3-0.2,0.5-0.6,0.5-1C55.4,174.9,55.2,174.5,54.9,174.2"/>
	<polygon class="st1" points="63.8,181.8 63.8,172.6 69.6,172.6 69.6,173.8 65.2,173.8 65.2,176.5 68.9,176.5 68.9,177.8 
		65.2,177.8 65.2,180.5 69.6,180.5 69.6,181.8 	"/>
	<polygon class="st1" points="79.9,173.8 79.9,181.8 78.6,181.8 78.6,173.8 76.1,173.8 76.1,172.6 82.5,172.6 82.5,173.8 	"/>
	<path class="st1" d="M94.1,181.8l-0.6-1.8h-3.6l-0.6,1.8h-1.5l3.3-9.1h1.1l3.3,9.1H94.1z M91.7,174.7l-1.4,4.1h2.8L91.7,174.7z"/>
	<rect x="101.7" y="172.6" class="st1" width="1.4" height="9.1"/>
	<polygon class="st1" points="111.6,181.8 111.6,172.6 113.1,172.6 113.1,180.5 117.4,180.5 117.4,181.8 	"/>
	<polygon class="st1" points="137.9,181.8 137.9,177.8 134.2,177.8 134.2,181.8 132.9,181.8 132.9,172.6 134.2,172.6 134.2,176.5 
		137.9,176.5 137.9,172.6 139.3,172.6 139.3,181.8 	"/>
	<path class="st1" d="M153.3,179.9c-0.1,0.4-0.4,0.8-0.7,1c-0.3,0.3-0.6,0.5-1,0.7c-0.4,0.1-0.9,0.2-1.3,0.2c-0.4,0-0.9-0.1-1.3-0.2
		c-0.4-0.1-0.8-0.4-1.1-0.7c-0.3-0.2-0.5-0.6-0.7-1c-0.1-0.4-0.2-0.8-0.2-1.3v-6.1h1.4v6c0,0.6,0.1,1.1,0.5,1.4
		c0.4,0.4,0.8,0.6,1.4,0.6c0.6,0,1-0.2,1.4-0.6c0.4-0.4,0.6-0.8,0.6-1.4v-6h1.4v6.1C153.6,179.1,153.5,179.6,153.3,179.9"/>
	<path class="st1" d="M166.7,181.1c-0.5,0.5-1.2,0.7-2,0.7H161v-9.1h3.5c0.9,0,1.5,0.2,2,0.7c0.5,0.5,0.8,1.1,0.8,1.8
		c0,0.5-0.1,0.9-0.4,1.2l-0.9,0.7c0.4,0.1,0.7,0.4,1,0.8c0.2,0.4,0.4,0.8,0.4,1.3C167.4,180,167.2,180.6,166.7,181.1 M165.5,174.2
		c-0.2-0.2-0.6-0.4-1.1-0.4h-2.1v2.6h2.1c0.5,0,0.8-0.1,1.1-0.4c0.3-0.2,0.4-0.6,0.4-1C165.9,174.8,165.8,174.4,165.5,174.2
		 M165.7,178.1c-0.2-0.2-0.6-0.4-1.1-0.4h-2.2v2.8h2.2c0.5,0,0.9-0.1,1.1-0.4c0.2-0.2,0.4-0.6,0.4-1
		C166.1,178.7,165.9,178.4,165.7,178.1"/>
	<rect x="165.6" y="56.4" class="st1" width="2" height="79.5"/>
	<rect x="146.6" y="40.2" class="st1" width="2.2" height="95.7"/>
	<path class="st1" d="M141.2,165.5c1.5,0,2.5-0.7,2.6-3.3v-2.7c0-2.3-1-3.3-2.6-3.3s-2.6,1-2.6,3.3v2.7
		C138.6,164.8,139.7,165.5,141.2,165.5 M138.6,149c0,2.3,1.1,3.1,2.6,3.1c1.5,0,2.6-0.8,2.6-3.1v-1.6c0-2.6-1.1-3.3-2.6-3.3
		s-2.6,0.7-2.6,3.3V149z M141.2,169.7c-4.6,0-7.2-2.7-7.2-7.3v-2.3c0-2.8,0.8-4.9,2.8-6.1c-1.9-1-2.8-3-2.8-5.9v-0.9
		c0-4.7,2.5-7.3,7.2-7.3c4.6,0,7.2,2.7,7.2,7.3v0.9c0,2.9-1,4.8-2.8,5.9c2,1.1,2.8,3.3,2.8,6.1v2.3
		C148.3,167,145.8,169.7,141.2,169.7"/>
	<path class="st1" d="M162.7,152.1v-5.2c0-2.1-0.9-2.8-2.4-2.8c-1.4,0-2.4,0.8-2.4,2.8v5.2c0,2.1,0.9,2.9,2.4,2.9
		C161.8,155,162.7,154.2,162.7,152.1 M167.2,162.1c0,4.9-2.2,7.6-7,7.6c-4.5,0-6.8-2.7-6.8-7.3v-0.8h4.3v1c0,2.1,0.9,2.9,2.4,2.9
		c1.6,0,2.5-0.8,2.5-3.6v-5.3c-0.8,1.7-2.2,2.6-4.2,2.6c-3.4,0-5.1-2.4-5.1-6.6v-5.3c0-4.7,2.4-7.3,6.9-7.3s6.9,2.7,6.9,7.3V162.1z"
		/>
</g>
</svg>
