<?xml version="1.0" encoding="UTF-8"?><svg id="Layer_1" xmlns="http://www.w3.org/2000/svg" xmlns:xlink="http://www.w3.org/1999/xlink" viewBox="0 0 100 100"><defs><style>.cls-1{stroke:#fff;stroke-miterlimit:10;stroke-width:2px;}.cls-1,.cls-2{fill:none;}</style><clipPath id="clippath"><rect class="cls-2" y="-124.59" width="100" height="100"/></clipPath><clipPath id="clippath-1"><rect class="cls-2" x="120" y="-160" width="100" height="100"/></clipPath></defs><path class="cls-1" d="M39.41,37.53c.93,.31,2.24,4.04,2.88,6.32,.54,1.93,1.22,3.81,1.77,5.74,.2,.68,.56,.82,1.18,.72,.89-.15,1.79-.26,2.68-.39,2.83-.4,5.15,2,4.44,4.62-.29,1.06-.94,1.8-1.97,2.21-1.98,.78-3.99,1.48-5.92,2.36-2.19,.99-4.91-.17-5.92-2.33-.54-1.15-1.06-2.31-1.59-3.46-.09-.19-.14-.42-.45-.62-.31,.83-.53,1.69-.94,2.43-.72,1.3-.46,2.19,.64,3.18,1.69,1.51,3.21,3.21,4.77,4.86,1.39,1.47,1.8,3.19,1.01,5.07-1.9,4.52-3.85,9.03-5.81,13.53-.84,1.93-2.55,2.7-4.42,2.08-1.84-.61-3.01-2.56-2.54-4.47,.89-3.55,1.84-7.09,2.8-10.62,.17-.61,.08-.99-.43-1.38-.89-.69-1.72-1.45-2.57-2.18-.77-.67-.78-.67-1.17,.24-2.35,5.55-4.7,11.11-7.05,16.66-.34,.81-.68,1.62-1.03,2.43-.73,1.68-1.9,2.49-3.41,2.37-1.77-.14-3.3-1.42-3.72-3.05-.23-.88-.02-1.69,.25-2.51,2.43-7.24,4.92-14.47,7.28-21.74,1.18-3.64,1.83-7.44,2.75-11.16,.16-.66,.3-1.34,.48-1.99,.14-.51-.04-.63-.51-.5-.02,0-.05,.02-.07,.02-1.65-.03-2.57,.8-3.1,2.36-.49,1.45-1.25,2.81-1.88,4.21-.84,1.89-2.63,2.75-4.49,2.13-1.83-.61-2.95-2.62-2.36-4.54,.91-2.96,1.92-5.9,2.93-8.83,.31-.91,.98-1.58,1.8-2.06,2.51-1.46,5.07-2.84,7.69-4.11,1.36-.66,2.53-1.14,4.03-.98,.35,.04,2.15,.42,2.17,.4l9.78,3Z"/><path class="cls-1" d="M6.35,31.43c4.96-.01,9.91-.01,14.87,0"/><path class="cls-1" d="M2.26,57.67c2.3,0,4.59,0,6.89,0,2.27,0,4.54,0,6.81,0"/><path class="cls-1" d="M2,40.21c2.71,0,5.42,0,8.13,0"/><path class="cls-1" d="M8.08,66.45c2-.01,3.99-.01,5.99,0"/><path class="cls-1" d="M3.64,48.95c1.66-.04,3.31-.03,4.97,0"/><path class="cls-1" d="M89.63,39.94c.77-1.45,1.22-3.1,1.22-4.86,0-5.7-4.62-10.31-10.31-10.31s-10.31,4.62-10.31,10.31c0,1.65,.4,3.21,1.09,4.6h-.59c-4.63,0-8.37,3.75-8.37,8.37s3.75,8.38,8.37,8.38h16.89c4.63,0,8.37-3.75,8.37-8.38,0-3.93-2.71-7.21-6.35-8.12Z"/><line class="cls-1" x1="79.16" y1="36.58" x2="79.16" y2="86.9"/><line class="cls-1" x1=".03" y1="86.9" x2="99.97" y2="86.9"/><line class="cls-1" x1="85.36" y1="43.19" x2="79.27" y2="49.35"/><line class="cls-1" x1="70.92" y1="42.56" x2="79.16" y2="49.49"/><path class="cls-1" d="M45.57,22.35c0,4.09-2.66,7.57-6.34,8.79-.92,.3-1.89,.47-2.91,.47-3.1,0-5.84-1.53-7.52-3.87-1.09-1.52-1.73-3.38-1.73-5.39,0-5.11,4.14-9.25,9.25-9.25s9.25,4.14,9.25,9.25Z"/></svg>