<?xml version="1.0" encoding="UTF-8"?><svg id="Layer_1" xmlns="http://www.w3.org/2000/svg" xmlns:xlink="http://www.w3.org/1999/xlink" viewBox="0 0 100 100"><defs><style>.cls-1{stroke:#fff;stroke-miterlimit:10;stroke-width:2px;}.cls-1,.cls-2{fill:none;}</style><clipPath id="clippath"><rect class="cls-2" x="120" y="-124.59" width="100" height="100"/></clipPath><clipPath id="clippath-1"><rect class="cls-2" x="240" y="-160" width="100" height="100"/></clipPath></defs><g><polygon class="cls-1" points="81.35 34.18 41.08 34.18 27.72 60.19 27.72 74.81 59.49 74.81 62.95 74.81 94.7 74.81 94.7 60.19 81.35 34.18"/><g><path class="cls-1" d="M34.44,46.75h-7.79c-1.78,0-3.22,1.44-3.22,3.22h0c0,1.78,1.44,3.22,3.22,3.22h4.64"/><path class="cls-1" d="M87.99,46.75h7.79c1.78,0,3.22,1.44,3.22,3.22h0c0,1.78-1.44,3.22-3.22,3.22h-4.64"/></g><g><path class="cls-1" d="M44.31,64.44c0,2.89-2.34,5.23-5.23,5.23s-5.23-2.34-5.23-5.23,2.34-5.23,5.23-5.23,5.23,2.34,5.23,5.23Z"/><path class="cls-1" d="M88.58,64.44c0,2.89-2.34,5.23-5.23,5.23s-5.23-2.34-5.23-5.23,2.34-5.23,5.23-5.23,5.23,2.34,5.23,5.23Z"/></g><line class="cls-1" x1="50.4" y1="60.72" x2="72.02" y2="60.72"/><line class="cls-1" x1="50.4" y1="64.47" x2="72.02" y2="64.47"/><line class="cls-1" x1="50.4" y1="68.23" x2="72.02" y2="68.23"/><g><path class="cls-1" d="M38.26,83.93h0c-3.52,0-6.37-2.85-6.37-6.37v-2.75h12.73v2.75c0,3.52-2.85,6.37-6.37,6.37Z"/><path class="cls-1" d="M84.17,83.93h0c-3.52,0-6.37-2.85-6.37-6.37v-2.75h12.73v2.75c0,3.52-2.85,6.37-6.37,6.37Z"/></g><line class="cls-1" x1="31.22" y1="53.19" x2="91.21" y2="53.19"/><path class="cls-1" d="M41.76,53.5c0-4.6,3.73-8.34,8.34-8.34s8.34,3.73,8.34,8.34"/></g><g><line class="cls-1" x1="11.54" y1="74.81" x2="11.54" y2="37.13"/><circle class="cls-1" cx="11.54" cy="26.6" r="10.53"/><line class="cls-1" x1="4.97" y1="74.81" x2="18.1" y2="74.81"/><path class="cls-1" d="M9.93,27.11h2.6c.86,0,1.47-.16,1.84-.48s.54-.77,.54-1.35c0-.42-.11-.78-.32-1.08s-.49-.5-.84-.6c-.23-.06-.64-.09-1.25-.09h-2.58v3.6Z"/><line class="cls-1" x1="9.93" y1="23.51" x2="9.93" y2="31.14"/></g></svg>