<?xml version="1.0" encoding="utf-8"?>
<!-- Generator: Adobe Illustrator 26.5.2, SVG Export Plug-In . SVG Version: 6.00 Build 0)  -->
<svg version="1.1" id="Layer_2_00000168094601422466340710000016338067842234828197_"
	 xmlns="http://www.w3.org/2000/svg" xmlns:xlink="http://www.w3.org/1999/xlink" x="0px" y="0px" viewBox="0 0 254.1 62.2"
	 style="enable-background:new 0 0 254.1 62.2;" xml:space="preserve">
<style type="text/css">
	.st0{fill:#FFFFFF;}
	.st1{fill-rule:evenodd;clip-rule:evenodd;fill:#FFFFFF;}
	.st2{fill-rule:evenodd;clip-rule:evenodd;fill:url(#SVGID_1_);}
	.st3{fill:url(#SVGID_00000129189670613029793170000012052636392321229221_);}
	.st4{fill-rule:evenodd;clip-rule:evenodd;fill:url(#SVGID_00000118362917859953515380000016633206318620836517_);}
	.st5{fill-rule:evenodd;clip-rule:evenodd;fill:url(#SVGID_00000149355840484850720760000010319276424352323474_);}
	.st6{fill:url(#SVGID_00000085235292790035728820000008261578354033333648_);}
	.st7{opacity:0.41;fill:url(#SVGID_00000154389641159458175070000015525339344732419756_);enable-background:new    ;}
	.st8{fill:url(#SVGID_00000098939406456636134610000006720279516827402384_);}
	.st9{fill:url(#SVGID_00000124163842921940869040000013057622461575402921_);}
	.st10{fill:url(#SVGID_00000062189654116104871960000017405989983239235738_);}
	.st11{fill:url(#SVGID_00000036966919568966702990000001450977343203801994_);}
	.st12{fill:url(#SVGID_00000066491847131927826930000007520630017308283579_);}
	.st13{fill:url(#SVGID_00000062160470165582665030000010422740389141289114_);}
	.st14{fill:url(#SVGID_00000018917313030371186400000017580532526506255013_);}
	.st15{fill:#69B545;}
</style>
<g id="Layer_1-2">
	<g>
		<rect x="56.9" y="47.9" class="st0" width="196.2" height="0.6"/>
		<path class="st1" d="M67.9,18.9c-0.3,0.6-0.7,1-1.2,1.4s-1.1,0.7-1.8,0.9c-0.7,0.2-1.4,0.3-2.2,0.3c-1.2,0-2.2-0.1-3.1-0.4
			s-1.7-0.8-2.4-1.5l2.3-2.3c0.3,0.4,0.8,0.6,1.4,0.8c0.6,0.2,1.2,0.2,1.8,0.2c1.4,0,2.1-0.4,2.1-1.3c0-0.4-0.1-0.6-0.3-0.8
			c-0.2-0.2-0.5-0.3-0.9-0.4l-0.8-0.1l-0.9-0.1c-1.3-0.2-2.2-0.6-2.9-1.3s-1-1.6-1-2.9s0.5-2.4,1.4-3.3c0.9-0.8,2.2-1.3,3.8-1.3
			c1.1,0,2,0.1,2.8,0.4s1.5,0.7,2.1,1.3l-2.2,2.2c-0.4-0.4-0.8-0.6-1.2-0.7c-0.4-0.1-0.9-0.2-1.5-0.2s-1,0.1-1.3,0.4
			s-0.4,0.6-0.4,0.9s0.1,0.5,0.3,0.7s0.6,0.4,1,0.4l0.8,0.1l0.9,0.1c1.3,0.2,2.2,0.6,2.8,1.2c0.7,0.7,1.1,1.7,1.1,3.1
			C68.3,17.7,68.2,18.3,67.9,18.9z"/>
		<path class="st1" d="M85.8,18c-0.2,0.7-0.6,1.4-1.1,1.9c-0.6,0.6-1.2,1-1.9,1.3c-0.7,0.2-1.4,0.4-2.3,0.4c-0.8,0-1.6-0.1-2.2-0.4
			c-0.7-0.3-1.2-0.7-1.8-1.2c-0.6-0.6-1-1.4-1.2-2.2c-0.2-0.8-0.3-2-0.3-3.5s0.1-2.7,0.3-3.5c0.2-0.8,0.6-1.6,1.2-2.2
			c0.5-0.5,1.1-0.9,1.8-1.2C78.9,7.1,79.7,7,80.5,7c0.9,0,1.7,0.1,2.3,0.4C83.5,7.7,84,8,84.5,8.5s0.8,1,1.1,1.5
			c0.3,0.6,0.4,1.2,0.5,1.8h-3.6c-0.1-0.6-0.4-1-0.7-1.2c-0.3-0.3-0.8-0.4-1.4-0.4c-0.3,0-0.6,0.1-0.8,0.2c-0.2,0.1-0.4,0.3-0.6,0.5
			c-0.1,0.1-0.2,0.2-0.2,0.4c-0.1,0.1-0.1,0.3-0.2,0.6c0,0.2-0.1,0.6-0.1,1v3.2c0,0.4,0.1,0.7,0.1,1c0,0.2,0.1,0.4,0.2,0.6
			c0.1,0.1,0.1,0.3,0.2,0.4c0.3,0.4,0.8,0.6,1.4,0.6c0.7,0,1.2-0.2,1.6-0.6c0.2-0.2,0.3-0.4,0.4-0.7c0.1-0.3,0.1-0.6,0.1-0.8v-0.2
			h-2.1v-2.9h5.7v2C86.1,16.3,86,17.2,85.8,18z"/>
		<polygon class="st1" points="95.9,21.4 91.3,14.2 91.3,21.4 87.7,21.4 87.7,7 90.8,7 95.4,14.2 95.4,7 99,7 99,21.4 		"/>
		<path class="st1" d="M109.5,21.4l-0.7-2.1h-4.4l-0.7,2.1H100L105.2,7h2.7l5.2,14.4H109.5z M106.7,12.5L106.7,12.5l-1.3,3.8h2.5
			L106.7,12.5z"/>
		<polygon class="st1" points="119,10.2 119,21.4 115.5,21.4 115.5,10.2 112,10.2 112,7 122.6,7 122.6,10.2 		"/>
		<path class="st1" d="M134.2,18.4c-0.3,0.6-0.7,1.2-1.2,1.6c-0.5,0.5-1.1,0.8-1.8,1.1c-0.7,0.2-1.4,0.4-2.1,0.4s-1.4-0.1-2.1-0.4
			c-0.7-0.2-1.2-0.6-1.7-1.1s-0.9-1-1.2-1.6s-0.4-1.3-0.4-2.1V7h3.5v9.2c0,0.7,0.2,1.2,0.5,1.5c0.3,0.4,0.8,0.6,1.4,0.6
			s1.1-0.2,1.4-0.6c0.3-0.4,0.5-0.9,0.5-1.5V7h3.5v9.3C134.7,17.1,134.5,17.8,134.2,18.4L134.2,18.4z"/>
		<path class="st1" d="M143.9,21.4l-2.5-5.4h-1.3v5.4h-3.5V7h5.7c0.8,0,1.5,0.1,2.1,0.4c0.6,0.2,1.1,0.6,1.6,1
			c0.4,0.4,0.7,0.9,0.9,1.5s0.3,1.1,0.3,1.7c0,0.9-0.2,1.7-0.7,2.3s-1,1.1-1.7,1.4l3.1,6h-4L143.9,21.4L143.9,21.4z M143.3,10.6
			L143.3,10.6c-0.3-0.3-0.6-0.4-1.1-0.4h-2v2.9h2c0.5,0,0.8-0.1,1.1-0.4s0.4-0.6,0.4-1C143.7,11.2,143.5,10.9,143.3,10.6z"/>
		<polygon class="st1" points="149.2,21.4 149.2,7 158.9,7 158.9,10.2 152.7,10.2 152.7,12.6 158,12.6 158,15.7 152.7,15.7 
			152.7,18.2 158.9,18.2 158.9,21.4 		"/>
		<rect x="69.7" y="7" class="st0" width="3.5" height="14.4"/>
		<path class="st1" d="M71.7,40.3c-0.3,1-0.8,1.9-1.5,2.6c-0.8,0.8-1.6,1.4-2.6,1.7c-0.9,0.3-2,0.5-3.1,0.5s-2.1-0.2-3-0.5
			c-0.9-0.4-1.7-0.9-2.4-1.6c-0.9-0.9-1.4-1.8-1.6-3c-0.2-1.1-0.3-2.7-0.3-4.7s0.1-3.6,0.3-4.7s0.8-2.1,1.6-3
			c0.7-0.7,1.5-1.3,2.4-1.6c0.9-0.4,1.9-0.5,3-0.5c1.2,0,2.3,0.2,3.2,0.5c0.9,0.4,1.7,0.8,2.3,1.4c0.6,0.6,1.1,1.3,1.4,2.1
			c0.3,0.8,0.6,1.6,0.7,2.4h-4.8c-0.2-0.7-0.5-1.3-0.9-1.7c-0.4-0.4-1-0.5-1.8-0.5c-0.4,0-0.8,0.1-1.1,0.2c-0.3,0.2-0.6,0.4-0.8,0.6
			c-0.1,0.2-0.2,0.3-0.3,0.5s-0.2,0.4-0.2,0.8c-0.1,0.3-0.1,0.8-0.1,1.3c0,0.6-0.1,1.3-0.1,2.2s0,1.6,0.1,2.1c0,0.6,0.1,1,0.1,1.3
			c0.1,0.3,0.1,0.6,0.2,0.8c0.1,0.2,0.2,0.4,0.3,0.5c0.4,0.5,1,0.8,1.9,0.8c0.9,0,1.7-0.3,2.1-0.8c0.3-0.3,0.4-0.6,0.6-0.9
			c0.1-0.4,0.2-0.7,0.2-1.1v-0.3h-2.9v-4h7.5v2.7C72.1,38,71.9,39.3,71.7,40.3z"/>
		<polygon class="st1" points="74.4,44.9 74.4,25.4 79.2,25.4 79.2,40.6 87.4,40.6 87.4,44.9 		"/>
		<path class="st1" d="M103.2,39.9c-0.2,1.1-0.8,2.1-1.6,3c-0.7,0.7-1.5,1.3-2.4,1.6c-0.9,0.4-1.9,0.5-3,0.5s-2.2-0.2-3-0.5
			c-0.9-0.4-1.7-0.9-2.4-1.6c-0.9-0.9-1.4-1.8-1.6-3c-0.2-1.1-0.3-2.7-0.3-4.7s0.1-3.6,0.3-4.7c0.2-1.1,0.8-2.1,1.6-3
			c0.7-0.7,1.5-1.3,2.4-1.6c0.9-0.4,1.9-0.5,3-0.5s2.2,0.2,3,0.5c0.9,0.4,1.7,0.9,2.4,1.6c0.9,0.9,1.4,1.8,1.6,3
			c0.2,1.1,0.3,2.7,0.3,4.7S103.4,38.8,103.2,39.9L103.2,39.9z M98.7,33L98.7,33c0-0.6-0.1-1-0.1-1.3c-0.1-0.3-0.1-0.6-0.2-0.8
			c-0.1-0.2-0.2-0.4-0.3-0.5c-0.2-0.3-0.4-0.5-0.8-0.6c-0.3-0.2-0.7-0.2-1.1-0.2s-0.8,0.1-1.1,0.2c-0.3,0.2-0.6,0.4-0.8,0.6
			c-0.1,0.2-0.2,0.3-0.3,0.5c-0.1,0.2-0.2,0.4-0.2,0.8c-0.1,0.3-0.1,0.8-0.1,1.3c0,0.6-0.1,1.3-0.1,2.2s0,1.6,0.1,2.1
			c0,0.5,0.1,1,0.1,1.3c0.1,0.3,0.1,0.6,0.2,0.8s0.2,0.4,0.3,0.5c0.2,0.3,0.5,0.5,0.8,0.6c0.3,0.2,0.7,0.2,1.1,0.2s0.8-0.1,1.1-0.2
			c0.3-0.2,0.6-0.4,0.8-0.6c0.1-0.2,0.2-0.3,0.3-0.5c0.1-0.2,0.2-0.4,0.2-0.8c0.1-0.3,0.1-0.8,0.1-1.3c0-0.6,0.1-1.3,0.1-2.1
			C98.7,34.3,98.7,33.6,98.7,33z"/>
		<path class="st1" d="M118.7,43.4c-1.1,1-2.6,1.5-4.4,1.5h-8.5V25.4h8.1c2,0,3.5,0.5,4.6,1.5s1.6,2.4,1.6,4.1c0,1-0.2,1.8-0.7,2.4
			c-0.5,0.6-0.9,1.1-1.4,1.5c0.3,0.2,0.6,0.4,0.8,0.6s0.5,0.5,0.7,0.8s0.5,0.7,0.6,1.2c0.2,0.5,0.2,1,0.2,1.7
			C120.4,41,119.9,42.4,118.7,43.4L118.7,43.4z M114.9,30.2L114.9,30.2c-0.3-0.3-0.7-0.5-1.3-0.5h-3v3.2h3c0.6,0,1-0.2,1.3-0.5
			s0.4-0.7,0.4-1.1S115.2,30.5,114.9,30.2L114.9,30.2z M115.2,37.7L115.2,37.7c-0.3-0.3-0.7-0.5-1.3-0.5h-3.2v3.4h3.2
			c0.6,0,1-0.2,1.3-0.5s0.4-0.7,0.4-1.2S115.5,38,115.2,37.7z"/>
		<path class="st1" d="M133.7,44.9l-0.9-2.9h-6l-1,2.9h-5l7.1-19.5h3.7l7.1,19.5H133.7L133.7,44.9z M129.9,32.8L129.9,32.8l-1.7,5.2
			h3.4C131.6,38,129.9,32.8,129.9,32.8z"/>
		<polygon class="st1" points="140.2,44.9 140.2,25.4 145,25.4 145,40.6 153.1,40.6 153.1,44.9 		"/>
		<g>
			
				<linearGradient id="SVGID_1_" gradientUnits="userSpaceOnUse" x1="160.93" y1="26.7" x2="176.03" y2="26.7" gradientTransform="matrix(1 0 0 -1 0 61.8)">
				<stop  offset="0.18" style="stop-color:#ED1C24"/>
				<stop  offset="1" style="stop-color:#F8991D"/>
			</linearGradient>
			<path class="st2" d="M168.5,45.2c-2.3,0-4.1-0.8-5.5-2.2c-2.1-2.1-2-4.9-2-7.9s-0.1-5.8,2-7.9c1.5-1.5,3.2-2.2,5.5-2.2
				c3.8,0,6.8,2.1,7.5,6.5h-5c-0.3-1.1-0.9-2.1-2.5-2.1c-0.9,0-1.6,0.4-1.9,0.8c-0.4,0.6-0.8,1.3-0.8,4.9s0.3,4.3,0.8,4.9
				c0.4,0.5,1,0.8,1.9,0.8c1.6,0,2.2-1,2.5-2.1h5C175.3,43.1,172.3,45.2,168.5,45.2z"/>
			
				<linearGradient id="SVGID_00000010306003001864382770000015886015486651803779_" gradientUnits="userSpaceOnUse" x1="178.6" y1="26.65" x2="183.49" y2="26.65" gradientTransform="matrix(1 0 0 -1 0 61.8)">
				<stop  offset="0.18" style="stop-color:#ED1C24"/>
				<stop  offset="1" style="stop-color:#F8991D"/>
			</linearGradient>
			
				<rect x="178.6" y="25.2" style="fill:url(#SVGID_00000010306003001864382770000015886015486651803779_);" width="4.9" height="19.9"/>
			
				<linearGradient id="SVGID_00000169554360008862263750000013423163809171350657_" gradientUnits="userSpaceOnUse" x1="186.34" y1="26.65" x2="201.02" y2="26.65" gradientTransform="matrix(1 0 0 -1 0 61.8)">
				<stop  offset="0.18" style="stop-color:#ED1C24"/>
				<stop  offset="1" style="stop-color:#F8991D"/>
			</linearGradient>
			
				<polygon style="fill-rule:evenodd;clip-rule:evenodd;fill:url(#SVGID_00000169554360008862263750000013423163809171350657_);" points="
				196.1,29.5 196.1,45.1 191.2,45.1 191.2,29.5 186.3,29.5 186.3,25.2 201,25.2 201,29.5 			"/>
			
				<linearGradient id="SVGID_00000098217703022351824700000001118262107449330852_" gradientUnits="userSpaceOnUse" x1="201.86" y1="26.65" x2="218.76" y2="26.65" gradientTransform="matrix(1 0 0 -1 0 61.8)">
				<stop  offset="0.18" style="stop-color:#ED1C24"/>
				<stop  offset="1" style="stop-color:#F8991D"/>
			</linearGradient>
			
				<polygon style="fill-rule:evenodd;clip-rule:evenodd;fill:url(#SVGID_00000098217703022351824700000001118262107449330852_);" points="
				212.8,37 212.8,45.1 207.9,45.1 207.9,37 201.9,25.2 207.2,25.2 210.3,32.3 213.4,25.2 218.8,25.2 			"/>
		</g>
		<g>
			
				<linearGradient id="SVGID_00000085237151456026661760000000927702077082173624_" gradientUnits="userSpaceOnUse" x1="207.9154" y1="39.9837" x2="192.1354" y2="53.0037" gradientTransform="matrix(1 0 0 -1 0 61.8)">
				<stop  offset="0" style="stop-color:#FFF200"/>
				<stop  offset="1" style="stop-color:#F8991D"/>
				<stop  offset="1" style="stop-color:#85C441"/>
			</linearGradient>
			<polygon style="fill:url(#SVGID_00000085237151456026661760000000927702077082173624_);" points="197,8.1 189.9,3.7 189.9,3.7 
				185.8,10.2 189.8,12.7 206.6,23.3 206.6,14.1 			"/>
			
				<linearGradient id="SVGID_00000132065255980456365980000014097933217558679172_" gradientUnits="userSpaceOnUse" x1="208.6616" y1="41.0844" x2="190.4616" y2="53.5944" gradientTransform="matrix(1 0 0 -1 0 61.8)">
				<stop  offset="0.35" style="stop-color:#FFFFFF;stop-opacity:0"/>
				<stop  offset="0.97" style="stop-color:#000000"/>
			</linearGradient>
			
				<polygon style="opacity:0.41;fill:url(#SVGID_00000132065255980456365980000014097933217558679172_);enable-background:new    ;" points="
				197,8.1 189.9,3.7 189.9,3.7 185.8,10.2 189.8,12.7 206.6,23.3 206.6,14.1 			"/>
			
				<linearGradient id="SVGID_00000056424707502191860270000016953008717767716747_" gradientUnits="userSpaceOnUse" x1="179.591" y1="54.866" x2="185.121" y2="45.986" gradientTransform="matrix(1 0 0 -1 0 61.8)">
				<stop  offset="3.000000e-02" style="stop-color:#FFF200"/>
				<stop  offset="1" style="stop-color:#F8991D"/>
				<stop  offset="1" style="stop-color:#85C441"/>
			</linearGradient>
			<polygon style="fill:url(#SVGID_00000056424707502191860270000016953008717767716747_);" points="189.9,3.7 189.9,3.7 189.9,3.7 
				173.1,14.1 173.1,23.3 189.8,12.7 197,8.1 			"/>
		</g>
		<g>
			
				<linearGradient id="SVGID_00000101782787063041259980000013173068835800353707_" gradientUnits="userSpaceOnUse" x1="28.3223" y1="46.3541" x2="40.8618" y2="46.3541" gradientTransform="matrix(1 -3.141588e-03 3.078818e-03 -1.02 3.036197e-02 60.84)">
				<stop  offset="0" style="stop-color:#001B00"/>
				<stop  offset="0.7" style="stop-color:#5C792B"/>
				<stop  offset="0.9" style="stop-color:#627C2B"/>
				<stop  offset="1" style="stop-color:#667D2A"/>
			</linearGradient>
			<path style="fill:url(#SVGID_00000101782787063041259980000013173068835800353707_);" d="M41,14.7c-0.6,2.8-3.8,4.5-7.2,3.8
				s-5.7-3.5-5.2-6.3c0.6-2.8,3.8-4.5,7.2-3.8S41.5,11.9,41,14.7z"/>
			<g>
				
					<linearGradient id="SVGID_00000035508096625163482080000000515200266486431364_" gradientUnits="userSpaceOnUse" x1="27.64" y1="31.75" x2="50.8" y2="31.75" gradientTransform="matrix(1 0 0 -1 0 61.8)">
					<stop  offset="0" style="stop-color:#001B00"/>
					<stop  offset="0.7" style="stop-color:#5C792B"/>
					<stop  offset="0.9" style="stop-color:#627C2B"/>
					<stop  offset="1" style="stop-color:#667D2A"/>
				</linearGradient>
				<path style="fill:url(#SVGID_00000035508096625163482080000000515200266486431364_);" d="M43.7,9.2L43.7,9.2
					c1.5,1.9,2.3,4.9,1.8,7.2c-0.6,2.8-2.7,5.2-5.6,6.1c-2.2,0.7-3.8,0.5-2.4,2.8c1.2,2.1,2.3,3.3,3.1,5.2
					c2.9,7.2,0.1,16.8-10.4,19.6c-0.8,0.3-1.7,0.6-2.6,0.8c13.7-0.6,23.2-10.9,23.2-24C50.8,20.5,47.9,13.6,43.7,9.2z"/>
				
					<linearGradient id="SVGID_00000069382238418251931190000013966001883942479285_" gradientUnits="userSpaceOnUse" x1="1" y1="35.6" x2="40.66" y2="35.6" gradientTransform="matrix(1 0 0 -1 0 61.8)">
					<stop  offset="0" style="stop-color:#001B00"/>
					<stop  offset="0.7" style="stop-color:#5C792B"/>
					<stop  offset="0.9" style="stop-color:#627C2B"/>
					<stop  offset="1" style="stop-color:#667D2A"/>
				</linearGradient>
				<path style="fill:url(#SVGID_00000069382238418251931190000013966001883942479285_);" d="M31.5,25.5c-5.4-5.1-8.8-8.9-7.9-13.3
					c1-4.9,6.5-8.4,12.6-7.2c1.7,0.3,3.2,0.7,4.5,1.5c-4.2-3.2-9.2-4.4-14.8-4.4c-6.5,0-13.7,2.5-17.2,8.4c-1,1.6-1.5,3.4-1.4,5.3
					c0.1,2.3,0.7,4.5,1.8,6.4c5.1,8.3,9.8,7.2,12.3,13.6c2,5.1-2.7,9.4-9.6,3.5C3.9,32.5,1.5,17.9,6.9,10.1C3.1,14.4,1,20.8,1,27
					c0,4.2,1.1,8.4,3.2,12.1c1.7,3,3.8,5.5,6.7,7.4c3,2,6.6,3.3,10.3,3.7c1.8,0.2,3.6,0.1,5.4-0.3c2.9-0.7,5.5-2.2,7.6-4.2
					C40.5,39.8,36.9,30.7,31.5,25.5z"/>
			</g>
			
				<linearGradient id="SVGID_00000044138549009849020010000017196839642566936450_" gradientUnits="userSpaceOnUse" x1="28.4" y1="49.15" x2="40.92" y2="49.15" gradientTransform="matrix(1 0 0 -1 0 61.8)">
				<stop  offset="0" style="stop-color:#007B38"/>
				<stop  offset="0.7" style="stop-color:#80C342"/>
				<stop  offset="0.92" style="stop-color:#88C540"/>
				<stop  offset="1" style="stop-color:#8DC63F"/>
			</linearGradient>
			<path style="fill:url(#SVGID_00000044138549009849020010000017196839642566936450_);" d="M40.8,13.9c-0.5,2.7-3.8,4.4-7.2,3.7
				s-5.7-3.5-5.2-6.2s3.8-4.4,7.2-3.7C39.1,8.4,41.4,11.2,40.8,13.9z"/>
			
				<linearGradient id="SVGID_00000079480609619999996540000011562312217260443042_" gradientUnits="userSpaceOnUse" x1="0.87" y1="36.25" x2="40.67" y2="36.25" gradientTransform="matrix(1 0 0 -1 0 61.8)">
				<stop  offset="0" style="stop-color:#007B38"/>
				<stop  offset="0.7" style="stop-color:#80C342"/>
				<stop  offset="0.92" style="stop-color:#88C540"/>
				<stop  offset="1" style="stop-color:#8DC63F"/>
			</linearGradient>
			<path style="fill:url(#SVGID_00000079480609619999996540000011562312217260443042_);" d="M31.4,24.8c-5.4-5.1-8.8-9-7.9-13.4
				c1-4.9,6.7-7.9,12.8-6.7C38,5,39.5,5.6,40.8,6.5c-4.2-3.2-9.3-5-15-5C19.3,1.5,12.1,4,8.6,9.9c-1,1.6-1.5,3.4-1.4,5.3
				c0.1,2.2,0.9,4.4,2.1,6.3c5.1,8.2,9.8,7.4,12.3,13.8c2,5.1-2.9,9.3-9.9,3.3C3.8,31.8,1.6,17.9,7,10.1c-3.8,4.4-6,10-6,16.2
				c0,4.2,1.1,8.4,3.2,12.1c1.7,3,3.8,5.5,6.7,7.4c3,2,6.6,3.3,10.3,3.7c1.8,0.2,3.6,0.1,5.4-0.3c2.9-0.7,5.5-2.2,7.6-4.2
				C40.4,39,36.7,29.9,31.4,24.8z"/>
			
				<linearGradient id="SVGID_00000143583530739371513030000017974469685578763654_" gradientUnits="userSpaceOnUse" x1="27.91" y1="31.7" x2="50.5128" y2="31.7" gradientTransform="matrix(1 0 0 -1 0 61.8)">
				<stop  offset="0" style="stop-color:#007B38"/>
				<stop  offset="0.7" style="stop-color:#80C342"/>
				<stop  offset="0.92" style="stop-color:#88C540"/>
				<stop  offset="1" style="stop-color:#8DC63F"/>
			</linearGradient>
			<path style="fill:url(#SVGID_00000143583530739371513030000017974469685578763654_);" d="M43.7,9.2L43.7,9.2
				c1.5,1.9,2.2,4.2,1.7,6.5c-0.6,2.8-2.7,5.2-5.6,6.1c-2.2,0.7-3.8,0.4-2.4,2.7c1.2,2.1,2.3,3.1,3.1,5c1.9,4.7,1.4,10.7-2.1,15.2
				c0,0.1-0.1,0.1-0.1,0.2l0,0L38.2,45c-0.7,0.8-1.5,1.7-2.7,2.6c-0.1,0.1-0.2,0.1-0.3,0.2S35,47.9,34.9,48c-0.8,0.5-1.7,1-2.7,1.4
				c-1.2,0.5-2.6,1.1-4.4,1.6c12.7-1.1,22.6-11.8,22.6-24.7C50.5,19.7,47.9,13.6,43.7,9.2z"/>
		</g>
		<g>
			<path class="st15" d="M236.2,36.8l-3.9,8h-4.9l3.8-7.6c-0.4,0.1-0.8,0.1-1.1,0.1c-2.4,0-5.2-2-5.2-5.8c0-4.1,3-6.2,6.4-6.2
				s6.4,2.1,6.4,6.2C237.9,33.2,237.3,34.5,236.2,36.8z M231.4,29.3c-1.1,0-2,0.8-2,2.2s0.9,2.2,2,2.2s2-0.8,2-2.2
				C233.4,30.1,232.5,29.3,231.4,29.3z"/>
			<path class="st15" d="M246.5,45c-3.2,0-6.4-1.7-6.4-6.1h4.5c0,1.4,0.9,2,2,2c1.2,0,2-0.7,2-2.1c0-1.2-0.9-2-2.1-2h-0.6v-3.9h0.6
				c1.3,0,1.9-1,1.9-1.8c0-1.2-0.8-1.9-1.8-1.9c-0.9,0-1.8,0.7-1.8,1.8h-4.5c0-3.6,2.8-5.8,6.2-5.8c3.6,0,6.2,2.4,6.2,5.7
				c0,2.1-1,3.2-2,3.8c1.1,0.7,2.2,1.9,2.2,4.2C253,43.1,249.9,45,246.5,45L246.5,45z"/>
		</g>
		<g>
			<path class="st0" d="M57,58.6c0,0-0.1-0.1,0-0.2l0.5-0.6c0-0.1,0.1-0.1,0.1,0c0.5,0.4,1.2,0.7,2,0.7c1,0,1.6-0.5,1.6-1.2
				c0-0.6-0.3-1-1.5-1.2L59.3,56c-1.4-0.2-2.1-0.9-2.1-2c0-1.3,0.9-2.1,2.4-2.1c0.8,0,1.7,0.3,2.2,0.7c0.1,0,0.1,0.1,0,0.1l-0.4,0.6
				c0,0.1-0.1,0.1-0.1,0c-0.6-0.4-1.1-0.5-1.7-0.5c-0.9,0-1.4,0.5-1.4,1.2c0,0.6,0.4,1,1.5,1.2l0.3,0.1c1.4,0.2,2.1,0.8,2.1,2
				c0,1.3-0.9,2.2-2.6,2.2C58.5,59.5,57.5,59.1,57,58.6z"/>
			<path class="st0" d="M68.5,52.3C68.5,52.3,68.5,52.2,68.5,52.3l4.4-0.1c0.1,0,0.1,0,0.1,0.1V53c0,0.1,0,0.1-0.1,0.1h-3.4
				c0,0-0.1,0-0.1,0.1v2.1c0,0,0,0.1,0.1,0.1h2.9c0.1,0,0.1,0,0.1,0.1v0.7c0,0.1,0,0.1-0.1,0.1h-2.9c0,0-0.1,0-0.1,0.1v2.2
				c0,0,0,0.1,0.1,0.1h3.4c0.1,0,0.1,0,0.1,0.1v0.7c0,0.1,0,0.1-0.1,0.1h-4.3c-0.1,0-0.1,0-0.1-0.1V52.3L68.5,52.3z"/>
			<path class="st0" d="M79,55.8c0-1.2,0.1-1.6,0.2-2c0.4-1.1,1.2-1.7,2.4-1.7c1.1,0,1.9,0.5,2.3,1.5v0.1L83.3,54
				c-0.1,0-0.1,0-0.1-0.1c-0.3-0.6-0.7-1-1.5-1s-1.3,0.4-1.5,1.1c-0.1,0.3-0.1,0.6-0.1,1.8c0,1.1,0,1.5,0.1,1.8
				c0.2,0.7,0.7,1.1,1.5,1.1s1.2-0.4,1.5-1c0-0.1,0.1-0.1,0.1-0.1l0.6,0.3c0.1,0,0.1,0.1,0,0.1c-0.4,0.9-1.2,1.5-2.3,1.5
				c-1.2,0-2-0.6-2.4-1.7C79.1,57.4,79,57,79,55.8z"/>
			<path class="st0" d="M91.6,59.4C91.5,59.4,91.5,59.4,91.6,59.4l-0.1-6.3c0,0,0-0.1-0.1-0.1h-2c-0.1,0-0.1,0-0.1-0.1v-0.7
				c0-0.1,0-0.1,0.1-0.1h5c0.1,0,0.1,0,0.1,0.1v0.7c0,0.1,0,0.1-0.1,0.1h-2c0,0-0.1,0-0.1,0.1v6.2c0,0.1,0,0.1-0.1,0.1
				C92.2,59.4,91.6,59.4,91.6,59.4z"/>
			<path class="st0" d="M100.2,57.9c-0.1-0.4-0.2-0.8-0.2-2s0.1-1.6,0.2-2c0.4-1.1,1.2-1.7,2.4-1.7s2.1,0.6,2.5,1.7
				c0.1,0.4,0.2,0.8,0.2,2s-0.1,1.6-0.2,2c-0.4,1.1-1.2,1.7-2.5,1.7C101.4,59.5,100.6,59,100.2,57.9z M104.2,57.6
				c0.1-0.3,0.2-0.7,0.2-1.8c0-1-0.1-1.5-0.2-1.8c-0.2-0.7-0.7-1.1-1.5-1.1s-1.3,0.4-1.5,1.1c-0.1,0.3-0.2,0.7-0.2,1.8
				c0,1,0.1,1.5,0.2,1.8c0.2,0.7,0.7,1.1,1.5,1.1S104,58.3,104.2,57.6z"/>
			<path class="st0" d="M115.9,59.4C115.8,59.4,115.8,59.4,115.9,59.4l-1.5-3h-1.6c0,0-0.1,0-0.1,0.1v2.9c0,0.1,0,0.1-0.1,0.1h-0.7
				c-0.1,0-0.1,0-0.1-0.1v-7c0-0.1,0-0.1,0.1-0.1h2.6c1.3,0,2.3,0.8,2.3,2.1c0,1-0.6,1.7-1.4,2l1.5,3c0,0.1,0,0.1-0.1,0.1
				L115.9,59.4C115.9,59.5,115.9,59.4,115.9,59.4z M115.7,54.3c0-0.8-0.5-1.2-1.3-1.2h-1.7c0,0-0.1,0-0.1,0.1v2.3c0,0,0,0.1,0.1,0.1
				h1.7C115.2,55.5,115.7,55,115.7,54.3z"/>
			<path class="st0" d="M133.1,56.3L133.1,56.3c-0.2,0.1-0.4,0.1-0.8,0.1c-1.1,0-2-0.8-2-2.1c0-1.4,1-2.2,2.2-2.2
				c1.3,0,2.2,0.8,2.2,2.2c0,0.6-0.2,1.1-0.5,1.6l-1.8,3.4c0,0.1-0.1,0.1-0.1,0.1h-0.7c-0.1,0-0.1,0-0.1-0.1L133.1,56.3L133.1,56.3z
				 M133.8,54.3c0-0.8-0.5-1.4-1.3-1.4s-1.3,0.6-1.3,1.4s0.5,1.4,1.3,1.4S133.8,55.1,133.8,54.3z"/>
			<path class="st0" d="M141,57.9l0.6-0.2c0.1,0,0.1,0,0.1,0.1c0.1,0.5,0.5,0.9,1.3,0.9s1.2-0.5,1.2-1.3s-0.5-1.3-1.3-1.3h-0.3
				c-0.1,0-0.1,0-0.1-0.1v-0.6c0-0.1,0-0.1,0.1-0.1h0.3c0.7,0,1.2-0.5,1.2-1.2s-0.4-1.1-1.2-1.1c-0.7,0-1,0.4-1.1,0.9
				c0,0.1-0.1,0.1-0.1,0.1l-0.6-0.2c-0.1,0-0.1-0.1-0.1-0.1c0.1-0.8,0.9-1.5,2-1.5c1.3,0,2,0.8,2,1.9c0,0.7-0.4,1.2-0.9,1.5l0,0
				c0.4,0.2,1,0.8,1,1.8c0,1.3-0.9,2.1-2.1,2.1s-1.9-0.6-2.1-1.5C140.9,58,140.9,57.9,141,57.9L141,57.9z"/>
			<path class="st0" d="M151.7,58.3h0.7c0.1,0,0.1,0,0.1,0.1v1c0,0.1,0,0.2-0.1,0.2l-0.7,0.9c0,0.1-0.1,0.1-0.1,0.1
				c-0.1,0-0.1,0-0.1-0.1v-2.1C151.6,58.4,151.6,58.3,151.7,58.3L151.7,58.3z"/>
			<path class="st0" d="M165.9,55.8c0-1.2,0.1-1.6,0.2-2c0.4-1.1,1.2-1.7,2.5-1.7s2,0.6,2.4,1.4v0.1l-0.6,0.3c-0.1,0-0.1,0-0.1-0.1
				c-0.3-0.6-0.8-1-1.6-1s-1.3,0.4-1.6,1.1c-0.1,0.3-0.1,0.7-0.1,1.8s0.1,1.5,0.1,1.8c0.2,0.7,0.7,1.1,1.6,1.1c0.7,0,1.3-0.4,1.5-1
				c0.1-0.2,0.1-0.6,0.1-1.1c0,0,0-0.1-0.1-0.1h-1.4c-0.1,0-0.1,0-0.1-0.1v-0.6c0-0.1,0-0.1,0.1-0.1h2.3c0.1,0,0.1,0,0.1,0.1v0.5
				c0,0.6-0.1,1.2-0.2,1.6c-0.3,1.1-1.2,1.7-2.4,1.7s-2.1-0.6-2.5-1.7C166,57.4,165.9,57,165.9,55.8z"/>
			<path class="st0" d="M177.6,56.9v-4.6c0-0.1,0-0.1,0.1-0.1h0.7c0.1,0,0.1,0,0.1,0.1v4.6c0,1.2,0.6,1.8,1.6,1.8s1.6-0.6,1.6-1.8
				v-4.6c0-0.1,0-0.1,0.1-0.1h0.7c0.1,0,0.1,0,0.1,0.1v4.6c0,1.7-1,2.6-2.5,2.6C178.5,59.5,177.6,58.6,177.6,56.9L177.6,56.9z"/>
			<path class="st0" d="M193.4,59.4c-0.1,0-0.1,0-0.1-0.1l-1.4-2.9h-1.6c0,0-0.1,0-0.1,0.1v2.9c0,0.1,0,0.1-0.1,0.1h-0.7
				c-0.1,0-0.1,0-0.1-0.1v-7c0-0.1,0-0.1,0.1-0.1h2.6c1.3,0,2.3,0.8,2.3,2.1c0,1-0.6,1.7-1.4,2l1.5,3c0,0.1,0,0.1-0.1,0.1
				L193.4,59.4L193.4,59.4z M193.3,54.3c0-0.8-0.5-1.2-1.3-1.2h-1.7c0,0-0.1,0-0.1,0.1v2.3c0,0,0,0.1,0.1,0.1h1.7
				C192.8,55.5,193.3,55,193.3,54.3z"/>
			<path class="st0" d="M200.6,56.9v-4.6c0-0.1,0-0.1,0.1-0.1h0.7c0.1,0,0.1,0,0.1,0.1v4.6c0,1.2,0.6,1.8,1.6,1.8s1.6-0.6,1.6-1.8
				v-4.6c0-0.1,0-0.1,0.1-0.1h0.7c0.1,0,0.1,0,0.1,0.1v4.6c0,1.7-1,2.6-2.5,2.6S200.6,58.6,200.6,56.9L200.6,56.9z"/>
			<path class="st0" d="M212,55.8c0-1.2,0.1-1.6,0.2-2c0.4-1.1,1.2-1.7,2.5-1.7s2,0.6,2.4,1.4v0.1l-0.6,0.3c-0.1,0-0.1,0-0.1-0.1
				c-0.3-0.6-0.8-1-1.6-1s-1.3,0.4-1.6,1.1c-0.1,0.3-0.1,0.7-0.1,1.8s0.1,1.5,0.1,1.8c0.2,0.7,0.7,1.1,1.6,1.1c0.7,0,1.3-0.4,1.5-1
				c0.1-0.2,0.1-0.6,0.1-1.1c0,0,0-0.1-0.1-0.1h-1.4c-0.1,0-0.1,0-0.1-0.1v-0.6c0-0.1,0-0.1,0.1-0.1h2.3c0.1,0,0.1,0,0.1,0.1v0.5
				c0,0.6-0.1,1.2-0.2,1.6c-0.3,1.1-1.2,1.7-2.4,1.7s-2.1-0.6-2.5-1.7C212.1,57.4,212,57,212,55.8z"/>
			<path class="st0" d="M227.9,59.4c-0.1,0-0.1,0-0.1-0.1l-1.4-2.9h-1.6c0,0-0.1,0-0.1,0.1v2.9c0,0.1,0,0.1-0.1,0.1h-0.7
				c-0.1,0-0.1,0-0.1-0.1v-7c0-0.1,0-0.1,0.1-0.1h2.6c1.3,0,2.3,0.8,2.3,2.1c0,1-0.6,1.7-1.4,2l1.5,3c0,0.1,0,0.1-0.1,0.1
				L227.9,59.4L227.9,59.4z M227.7,54.3c0-0.8-0.5-1.2-1.3-1.2h-1.7c0,0-0.1,0-0.1,0.1v2.3c0,0,0,0.1,0.1,0.1h1.7
				C227.2,55.5,227.7,55,227.7,54.3z"/>
			<path class="st0" d="M237,52.3c0-0.1,0.1-0.1,0.1-0.1h0.7c0.1,0,0.1,0,0.1,0.1l2.5,7c0,0.1,0,0.1-0.1,0.1h-0.7
				c-0.1,0-0.1,0-0.1-0.1l-0.6-1.6H236l-0.6,1.6c0,0.1-0.1,0.1-0.1,0.1h-0.7c-0.1,0-0.1,0-0.1-0.1L237,52.3L237,52.3z M238.6,56.9
				l-1.1-3.3l0,0l-1.1,3.3H238.6L238.6,56.9z"/>
			<path class="st0" d="M246.4,52.3c0-0.1,0-0.1,0.1-0.1h0.7c0.1,0,0.1,0,0.2,0.1l2.1,4.9l0,0l2.1-4.9c0-0.1,0.1-0.1,0.2-0.1h0.7
				c0.1,0,0.1,0,0.1,0.1v7c0,0.1,0,0.1-0.1,0.1h-0.7c-0.1,0-0.1,0-0.1-0.1v-5l0,0l-1.8,4c0,0.1-0.1,0.1-0.2,0.1h-0.4
				c-0.1,0-0.2,0-0.2-0.1l-1.8-4l0,0v5c0,0.1,0,0.1-0.1,0.1h-0.7c-0.1,0-0.1,0-0.1-0.1V52.3L246.4,52.3z"/>
		</g>
	</g>
</g>
</svg>
