<?xml version="1.0" encoding="UTF-8"?><svg id="Layer_1" xmlns="http://www.w3.org/2000/svg" xmlns:xlink="http://www.w3.org/1999/xlink" viewBox="0 0 100 100"><defs><style>.cls-1,.cls-2,.cls-3{fill:none;}.cls-1,.cls-3{stroke:#fff;stroke-miterlimit:10;stroke-width:2px;}.cls-3{stroke-linecap:round;}</style><clipPath id="clippath"><rect class="cls-2" x="-240" y="-124.59" width="100" height="100"/></clipPath><clipPath id="clippath-1"><rect class="cls-2" x="-120" y="-160" width="100" height="100"/></clipPath></defs><g><polygon class="cls-3" points="30.12 98.8 9.04 98.8 13.15 74.57 26.01 74.57 30.12 98.8"/><line class="cls-3" x1="10.62" y1="89.49" x2="28.5" y2="89.49"/><line class="cls-3" x1="5.19" y1="51.61" x2="13.15" y2="74.57"/></g><g><polygon class="cls-3" points="69.7 98.8 90.78 98.8 86.67 74.57 73.81 74.57 69.7 98.8"/><line class="cls-3" x1="89.2" y1="89.49" x2="71.32" y2="89.49"/><line class="cls-3" x1="94.64" y1="51.61" x2="86.67" y2="74.57"/></g><polyline class="cls-1" points="1.86 27.2 50 1.16 98.11 27.19"/><path class="cls-3" d="M2.41,27.31h31.73v.86c0,4.11-3.33,7.44-7.44,7.44H9.85c-4.11,0-7.44-3.33-7.44-7.44v-.86h0Z"/><path class="cls-3" d="M34.14,27.31h31.73v.86c0,4.11-3.33,7.44-7.44,7.44h-16.85c-4.11,0-7.44-3.33-7.44-7.44v-.86h0Z"/><path class="cls-3" d="M65.87,27.31h31.73v.86c0,4.11-3.33,7.44-7.44,7.44h-16.85c-4.11,0-7.44-3.33-7.44-7.44v-.86h0Z"/><line class="cls-1" x1="50" y1="36.18" x2="50" y2="63.81"/><line class="cls-1" x1="74.45" y1="64.37" x2="25.56" y2="64.37"/><polyline class="cls-1" points="63.11 99.26 56.94 93.55 43.07 93.55 36.9 99.26"/><polygon class="cls-1" points="50 73.54 59.83 64.37 50 64.37 40.18 64.37 50 73.54"/><line class="cls-1" x1="50" y1="93.55" x2="50" y2="73.54"/></svg>