<?xml version="1.0" encoding="UTF-8"?><svg id="a" xmlns="http://www.w3.org/2000/svg" viewBox="0 0 200 200"><defs><style>.b{fill:#f4f4f4;}</style></defs><rect class="b" x=".52" y="47.15" width="4.53" height="86.31"/><rect class="b" x="8.66" y="37.38" width="2.5" height="96.09"/><polygon class="b" points="22.47 133.46 14.77 133.46 14.77 49.23 22.47 60.09 22.47 133.46"/><rect class="b" x="26.09" y="37.38" width="2.26" height="96.09"/><rect class="b" x="31.96" y="56.92" width="4.53" height="76.54"/><rect class="b" x="51.43" y="37.38" width="2.26" height="96.09"/><rect class="b" x="57.31" y="65.06" width="2.27" height="68.4"/><rect class="b" x="63.19" y="37.38" width="4.08" height="96.09"/><rect class="b" x="82.65" y="37.38" width="2.04" height="96.09"/><rect class="b" x="88.31" y="45.52" width="4.3" height="87.94"/><rect class="b" x="96.22" y="37.38" width="4.3" height="96.09"/><rect class="b" x="104.14" y="53.66" width="2.27" height="79.8"/><rect class="b" x="110.02" y="37.38" width="4.72" height="96.09"/><rect class="b" x="118.35" y="63.43" width="7.94" height="70.03"/><rect class="b" x="138.16" y="45.52" width="4.76" height="87.94"/><rect class="b" x="146.54" y="37.38" width="2.26" height="96.08"/><polygon class="b" points="162.16 133.46 152.42 133.46 152.42 44.53 157.29 30.86 162.16 44.53 162.16 133.46"/><rect class="b" x="165.78" y="53.66" width="2.04" height="79.8"/><rect class="b" x="171.43" y="37.38" width="4.3" height="96.09"/><polygon class="b" points="186.38 133.46 178.68 133.46 178.68 43.79 182.4 43.79 183.75 43.79 186.38 43.79 186.38 133.46"/><rect class="b" x="189.9" y="37.38" width="2.49" height="96.09"/><rect class="b" x="194.95" y="65.06" width="4.3" height="68.4"/><polygon class="b" points="45.78 66.21 45.78 53.66 43.32 53.66 43.32 77.31 40.11 77.31 40.11 133.46 47.82 133.46 47.82 66.21 45.78 66.21"/><polygon class="b" points="131.38 38.52 131.38 147.38 134.56 147.38 134.56 22.72 131.38 38.52"/><polygon class="b" points="71.69 48.04 74.42 41.19 74.93 14.54 75.47 41.23 78.23 48.04 78.23 133.46 71.69 133.46 71.69 48.04"/><path class="b" d="M146.57,157.82c0-2.06,.15-3.49,.44-4.3,.3-.81,1.03-1.23,2.22-1.25,.62,0,1.11,.13,1.49,.39,.37,.26,.64,.62,.81,1.08,.17,.46,.28,.97,.33,1.52,.05,.55,.08,1.25,.08,2.1,0,.8-.02,1.44-.06,1.93-.04,.49-.13,.95-.29,1.37-.15,.42-.42,.77-.79,1.04-.37,.27-.87,.43-1.49,.48-1.21-.03-1.97-.39-2.28-1.08-.31-.7-.46-1.79-.46-3.28m2.7-9.41c-.51,0-.94-.11-1.27-.33-.33-.22-.58-.51-.75-.87-.17-.36-.28-.75-.33-1.16-.05-.41-.08-.87-.08-1.39,0-1.13,.18-2.02,.54-2.66,.36-.64,1.02-.96,1.97-.96,.72,0,1.29,.27,1.7,.81,.41,.54,.62,1.35,.62,2.43,0,.57-.02,1.07-.06,1.5-.04,.44-.13,.86-.29,1.27-.15,.41-.4,.74-.73,.98-.33,.24-.77,.37-1.31,.37m-4.05,1.77c-1.49,.67-2.54,1.55-3.14,2.64-.61,1.09-.91,2.71-.91,4.84,0,3.01,.63,5.22,1.89,6.63,1.26,1.41,3.38,2.12,6.36,2.12,2.55,0,4.5-.69,5.86-2.08,1.36-1.39,2.04-3.63,2.04-6.71,0-2.19-.32-3.86-.96-5.03-.64-1.17-1.76-1.92-3.36-2.26v-.08c1.41-.57,2.38-1.31,2.89-2.22,.51-.91,.77-2.18,.77-3.8,0-2.52-.57-4.39-1.72-5.61-1.14-1.22-3.03-1.83-5.65-1.83-1.31,0-2.45,.19-3.41,.58-.96,.38-1.74,.9-2.33,1.54-.59,.64-1.03,1.36-1.31,2.14s-.42,1.59-.42,2.41c0,1.95,.26,3.39,.77,4.32,.51,.93,1.39,1.72,2.62,2.39m20.64,7.64c0-2.06,.15-3.49,.44-4.3,.3-.81,1.04-1.23,2.22-1.25,.62,0,1.11,.13,1.49,.39,.37,.26,.64,.62,.81,1.08,.17,.46,.28,.97,.33,1.52,.05,.55,.08,1.25,.08,2.1,0,.8-.02,1.44-.06,1.93-.04,.49-.13,.95-.29,1.37-.15,.42-.42,.77-.79,1.04-.37,.27-.87,.43-1.49,.48-1.21-.03-1.97-.39-2.28-1.08-.31-.7-.46-1.79-.46-3.28m2.7-9.41c-.51,0-.94-.11-1.27-.33-.33-.22-.59-.51-.75-.87-.17-.36-.28-.75-.33-1.16-.05-.41-.08-.87-.08-1.39,0-1.13,.18-2.02,.54-2.66,.36-.64,1.02-.96,1.97-.96,.72,0,1.29,.27,1.7,.81,.41,.54,.62,1.35,.62,2.43,0,.57-.02,1.07-.06,1.5-.04,.44-.14,.86-.29,1.27-.15,.41-.4,.74-.73,.98-.33,.24-.77,.37-1.31,.37m-4.05,1.77c-1.49,.67-2.54,1.55-3.14,2.64-.61,1.09-.91,2.71-.91,4.84,0,3.01,.63,5.22,1.89,6.63,1.26,1.41,3.38,2.12,6.36,2.12,2.55,0,4.5-.69,5.86-2.08,1.36-1.39,2.04-3.63,2.04-6.71,0-2.19-.32-3.86-.96-5.03s-1.76-1.92-3.36-2.26v-.08c1.41-.57,2.38-1.31,2.89-2.22,.51-.91,.77-2.18,.77-3.8,0-2.52-.57-4.39-1.72-5.61-1.15-1.22-3.03-1.83-5.65-1.83-1.31,0-2.45,.19-3.41,.58-.96,.38-1.74,.9-2.33,1.54-.59,.64-1.03,1.36-1.31,2.14s-.42,1.59-.42,2.41c0,1.95,.26,3.39,.77,4.32,.51,.93,1.39,1.72,2.62,2.39m19.79,15.66l1.43-7.33h6.33l1.43,7.33h5.79l-6.56-28.93h-7.29l-6.9,28.93h5.79Zm3.9-19.79c.15-.72,.31-1.81,.46-3.28l.08-.73c.03-.49,.09-1.13,.19-1.93h.08c.1,.8,.17,1.44,.19,1.93l.08,.73c.15,1.47,.31,2.56,.46,3.28l1.47,8.22h-4.63l1.62-8.22Z"/><path class="b" d="M7.33,137.25c4.42,0,6.69,2.64,6.69,7.26v.91h-4.29v-1.2c0-2.07-.83-2.85-2.27-2.85s-2.27,.79-2.27,2.85c0,5.94,8.88,7.06,8.88,15.32,0,4.62-2.31,7.26-6.77,7.26s-6.77-2.64-6.77-7.26v-1.78H4.81v2.06c0,2.07,.91,2.81,2.35,2.81s2.35-.74,2.35-2.81c0-5.94-8.87-7.06-8.87-15.32,0-4.62,2.27-7.26,6.69-7.26"/><rect class="b" x="23.16" y="137.25" width="4.54" height="29.51"/><path class="b" d="M44,150.38h6.36v9.17c0,4.63-2.31,7.26-6.77,7.26s-6.77-2.64-6.77-7.26v-15.03c0-4.63,2.31-7.27,6.77-7.27s6.77,2.64,6.77,7.27v2.81h-4.29v-3.1c0-2.06-.91-2.85-2.35-2.85s-2.35,.79-2.35,2.85v15.61c0,2.06,.91,2.81,2.35,2.81s2.35-.74,2.35-2.81v-5.33h-2.06v-4.13Z"/><polygon class="b" points="63.63 145.38 63.63 166.74 59.46 166.74 59.46 137.25 65.27 137.25 70.03 154.9 70.03 137.25 74.16 137.25 74.16 166.74 69.4 166.74 63.63 145.38"/><path class="b" d="M87.86,137.26v22.53c0,2.09,.92,2.84,2.38,2.84s2.38-.75,2.38-2.84v-22.53h4.34v22.24c0,4.67-2.34,7.34-6.84,7.34s-6.84-2.67-6.84-7.34v-22.24h4.59Z"/><polygon class="b" points="115.94 158.23 119.1 137.25 125.56 137.25 125.56 166.79 121.17 166.79 121.17 145.61 117.96 166.79 113.57 166.79 110.12 145.9 110.12 166.79 106.06 166.79 106.06 137.25 112.52 137.25 115.94 158.23"/><polygon class="b" points="4.94 176.42 4.94 185.37 3.37 185.37 3.37 176.42 .52 176.42 .52 175.01 7.79 175.01 7.79 176.42 4.94 176.42"/><polygon class="b" points="22.25 185.37 22.25 180.84 18.05 180.84 18.05 185.37 16.47 185.37 16.47 175.01 18.05 175.01 18.05 179.43 22.25 179.43 22.25 175.01 23.83 175.01 23.83 185.37 22.25 185.37"/><polygon class="b" points="33.42 185.37 33.42 175.01 40.05 175.01 40.05 176.42 34.99 176.42 34.99 179.45 39.3 179.45 39.3 180.84 34.99 180.84 34.99 183.96 40.05 183.96 40.05 185.37 33.42 185.37"/><path class="b" d="M64.64,176.85c-.33-.29-.75-.44-1.28-.44h-2.33v3.25h2.33c.53,0,.96-.14,1.28-.43,.32-.29,.48-.68,.48-1.19s-.16-.9-.49-1.19m.54,8.52l-2.18-4.37h-1.96v4.37h-1.57v-10.37h4.02c.97,0,1.75,.28,2.34,.85,.59,.56,.88,1.29,.88,2.18,0,.71-.19,1.3-.57,1.78-.38,.48-.88,.8-1.49,.97l2.39,4.59h-1.84Z"/><polygon class="b" points="75.89 185.37 75.89 175.01 82.51 175.01 82.51 176.42 77.46 176.42 77.46 179.45 81.77 179.45 81.77 180.84 77.46 180.84 77.46 183.96 82.51 183.96 82.51 185.37 75.89 185.37"/><polygon class="b" points="95.06 176.42 95.06 185.37 93.49 185.37 93.49 176.42 90.64 176.42 90.64 175.01 97.92 175.01 97.92 176.42 95.06 176.42"/><path class="b" d="M108.95,177.35l-1.62,4.6h3.19l-1.57-4.6Zm2.72,8.02l-.71-2.08h-4.09l-.71,2.08h-1.68l3.8-10.36h1.27l3.8,10.36h-1.68Z"/><rect class="b" x="121.71" y="175.01" width="1.57" height="10.37"/><polygon class="b" points="132.88 185.37 132.88 175.01 134.45 175.01 134.45 183.96 139.44 183.96 139.44 185.37 132.88 185.37"/><polygon class="b" points="164.28 185.37 164.28 180.84 160.07 180.84 160.07 185.37 158.5 185.37 158.5 175.01 160.07 175.01 160.07 179.43 164.28 179.43 164.28 175.01 165.85 175.01 165.85 185.37 164.28 185.37"/><path class="b" d="M182.44,183.33c-.19,.44-.45,.82-.79,1.14-.33,.32-.73,.57-1.19,.73-.46,.17-.95,.26-1.47,.26s-1.01-.09-1.46-.26c-.45-.17-.85-.42-1.19-.73-.34-.32-.6-.7-.78-1.14-.18-.44-.28-.92-.28-1.45v-6.87h1.57v6.8c0,.69,.19,1.24,.58,1.64,.39,.4,.91,.61,1.55,.61s1.17-.2,1.57-.61c.39-.4,.59-.95,.59-1.64v-6.8h1.57v6.87c0,.52-.09,1.01-.28,1.45"/><path class="b" d="M197.46,181.24c-.3-.29-.72-.44-1.25-.44h-2.48v3.16h2.48c.53,0,.95-.15,1.25-.44,.3-.29,.45-.68,.45-1.15s-.15-.84-.45-1.13m-.16-4.43c-.31-.26-.72-.39-1.23-.39h-2.33v2.97h2.33c.52,0,.92-.13,1.23-.38,.3-.26,.46-.63,.46-1.1s-.15-.84-.46-1.1m1.33,7.8c-.57,.51-1.33,.77-2.27,.77h-4.19v-10.36h4.03c.96,0,1.72,.25,2.29,.76,.56,.51,.85,1.2,.85,2.07,0,.52-.14,.98-.42,1.38-.28,.39-.61,.67-.98,.82,.44,.18,.81,.47,1.11,.87,.3,.41,.44,.92,.44,1.53,0,.93-.29,1.65-.86,2.16"/></svg>