<?xml version="1.0" encoding="utf-8"?>
<!-- Generator: Adobe Illustrator 26.5.2, SVG Export Plug-In . SVG Version: 6.00 Build 0)  -->
<svg version="1.1" id="Layer_1" xmlns="http://www.w3.org/2000/svg" xmlns:xlink="http://www.w3.org/1999/xlink" x="0px" y="0px"
	 viewBox="0 0 150 150" style="enable-background:new 0 0 150 150;" xml:space="preserve">
<style type="text/css">
	.st0{clip-path:url(#SVGID_00000126310676417494405330000012393134606221899453_);}
	.st1{fill:url(#SVGID_00000161599916716759933490000005208483609054568112_);}
	.st2{clip-path:url(#SVGID_00000031889558740180023730000001632771228982942873_);}
	.st3{fill:url(#SVGID_00000110463836351071288180000005213448373155008175_);}
	.st4{clip-path:url(#SVGID_00000026876316975881698220000008013430406550287026_);}
	.st5{fill:url(#SVGID_00000136379799353805208820000013128778649128434583_);}
	.st6{clip-path:url(#SVGID_00000031900653077102027590000003038806089146628741_);}
	.st7{fill:url(#SVGID_00000182522078644869040760000002665377890120604811_);}
	.st8{clip-path:url(#SVGID_00000024706655886320634470000009887659833511568550_);}
	.st9{fill:url(#SVGID_00000039837793221334546160000008986700384180136343_);}
	.st10{clip-path:url(#SVGID_00000147217029233608891240000002705054985321859741_);}
	.st11{fill:url(#SVGID_00000096781316815263948620000003459821750291159989_);}
	.st12{clip-path:url(#SVGID_00000178886099155717901060000010817823060450676144_);}
	.st13{fill:url(#SVGID_00000103234515569492086400000016983037921335743881_);}
	.st14{clip-path:url(#SVGID_00000033327837319540342590000016515616557438634942_);}
	.st15{fill:url(#SVGID_00000099661522834234952530000014896949791890277309_);}
	.st16{fill-rule:evenodd;clip-rule:evenodd;fill:#30B286;}
	.st17{fill-rule:evenodd;clip-rule:evenodd;fill:#4AAF48;}
	.st18{fill-rule:evenodd;clip-rule:evenodd;fill:#F4C518;}
	.st19{fill-rule:evenodd;clip-rule:evenodd;fill:#EC8023;}
	.st20{fill-rule:evenodd;clip-rule:evenodd;fill:#E32328;}
	.st21{fill-rule:evenodd;clip-rule:evenodd;fill:#E20685;}
	.st22{fill-rule:evenodd;clip-rule:evenodd;fill:#932570;}
	.st23{fill-rule:evenodd;clip-rule:evenodd;fill:#6D2E80;}
	.st24{fill-rule:evenodd;clip-rule:evenodd;fill:#0361A4;}
	.st25{fill-rule:evenodd;clip-rule:evenodd;fill:#1688C8;}
	.st26{fill-rule:evenodd;clip-rule:evenodd;fill:#073F28;}
	.st27{fill:#FFFFFF;}
	.st28{fill:none;stroke:#FFFFFF;stroke-width:0.56;stroke-miterlimit:10;}
</style>
<g>
	<defs>
		<path id="SVGID_1_" d="M83.2,61.3c-0.2,1.2,0.7,2.3,2.1,2.6c1.4,0.3,2.8-0.4,3-1.6s-0.7-2.3-2.1-2.6c-0.2,0-0.4-0.1-0.6-0.1
			C84.4,59.7,83.4,60.3,83.2,61.3"/>
	</defs>
	<clipPath id="SVGID_00000143613397949911996950000014857710932163253901_">
		<use xlink:href="#SVGID_1_"  style="overflow:visible;"/>
	</clipPath>
	<g style="clip-path:url(#SVGID_00000143613397949911996950000014857710932163253901_);">
		
			<linearGradient id="SVGID_00000152248681041491411640000017849729458925544103_" gradientUnits="userSpaceOnUse" x1="-783.54" y1="-341.4222" x2="-782.46" y2="-341.4222" gradientTransform="matrix(4.84 -1.520528e-02 -1.498567e-02 4.9101 3871.3977 1726.4594)">
			<stop  offset="0" style="stop-color:#142216"/>
			<stop  offset="0.31" style="stop-color:#364A24"/>
			<stop  offset="0.7" style="stop-color:#5D7936"/>
			<stop  offset="0.98" style="stop-color:#667E36"/>
			<stop  offset="1" style="stop-color:#687F36"/>
		</linearGradient>
		<polygon style="fill:url(#SVGID_00000152248681041491411640000017849729458925544103_);" points="83,59.7 88.6,59.7 88.6,64.2 
			82.9,64.2 		"/>
	</g>
</g>
<g>
	<defs>
		<path id="SVGID_00000151516705429246312920000014848786003101008029_" d="M89.5,60.1c0.6,0.8,0.9,2,0.8,3
			c-0.2,1.2-1.1,2.2-2.3,2.5c-0.9,0.3-1.6,0.2-1,1.2c0.5,0.8,1,1.4,1.3,2.2c1.2,3,0,7-4.3,8.1c-0.3,0.1-0.7,0.2-1.1,0.3
			c5.7-0.2,9.6-4.5,9.6-9.9C92.4,64.8,91.2,61.9,89.5,60.1L89.5,60.1L89.5,60.1z"/>
	</defs>
	<clipPath id="SVGID_00000155104380670840071650000015583883994938019772_">
		<use xlink:href="#SVGID_00000151516705429246312920000014848786003101008029_"  style="overflow:visible;"/>
	</clipPath>
	<g style="clip-path:url(#SVGID_00000155104380670840071650000015583883994938019772_);">
		
			<linearGradient id="SVGID_00000123399724899747597610000003062609032580859524_" gradientUnits="userSpaceOnUse" x1="-831.13" y1="-368.9542" x2="-830.06" y2="-368.9542" gradientTransform="matrix(8.95 0 0 8.95 7519.8999 3370.9102)">
			<stop  offset="0" style="stop-color:#142216"/>
			<stop  offset="0.31" style="stop-color:#364A24"/>
			<stop  offset="0.7" style="stop-color:#5D7936"/>
			<stop  offset="0.98" style="stop-color:#667E36"/>
			<stop  offset="1" style="stop-color:#687F36"/>
		</linearGradient>
		
			<rect x="82.8" y="60.1" style="fill:url(#SVGID_00000123399724899747597610000003062609032580859524_);" width="9.6" height="17.4"/>
	</g>
</g>
<g>
	<defs>
		<path id="SVGID_00000088853291842038460960000000232575610028514196_" d="M74.9,60.6c-0.4,0.7-0.6,1.4-0.6,2.2
			c0,0.9,0.3,1.9,0.8,2.7c2.1,3.4,4.1,3,5.1,5.6c0.8,2.1-1.1,3.9-4,1.4c-3.3-2.8-4.2-8.9-2-12.1c-1.6,1.8-2.4,4.4-2.4,7
			c0,1.8,0.4,3.5,1.3,5c0.7,1.2,1.6,2.3,2.8,3.1c1.3,0.8,2.8,1.4,4.2,1.5c0.8,0.1,1.5,0,2.2-0.1c1.2-0.3,2.3-0.9,3.2-1.7
			c2.6-2.4,1.1-6.2-1.1-8.4c-2.2-2.1-3.7-3.7-3.3-5.5c0.4-2,2.7-3.5,5.2-3c0.7,0.1,1.3,0.3,1.8,0.6c-1.7-1.3-3.8-1.8-6.2-1.8
			C79.3,57.1,76.4,58.2,74.9,60.6"/>
	</defs>
	<clipPath id="SVGID_00000162329015139493861920000003304843815909428135_">
		<use xlink:href="#SVGID_00000088853291842038460960000000232575610028514196_"  style="overflow:visible;"/>
	</clipPath>
	<g style="clip-path:url(#SVGID_00000162329015139493861920000003304843815909428135_);">
		
			<linearGradient id="SVGID_00000142143659226913011620000001786720807865516713_" gradientUnits="userSpaceOnUse" x1="-854.42" y1="-383.222" x2="-853.34" y2="-383.222" gradientTransform="matrix(15.32 0 0 15.32 13162.3896 5938.1201)">
			<stop  offset="0" style="stop-color:#142216"/>
			<stop  offset="0.31" style="stop-color:#364A24"/>
			<stop  offset="0.7" style="stop-color:#5D7936"/>
			<stop  offset="0.98" style="stop-color:#667E36"/>
			<stop  offset="1" style="stop-color:#687F36"/>
		</linearGradient>
		
			<rect x="71.8" y="57.2" style="fill:url(#SVGID_00000142143659226913011620000001786720807865516713_);" width="16.4" height="20"/>
	</g>
</g>
<g>
	<defs>
		<path id="SVGID_00000051373275148281123720000000080017461502932889_" d="M83.1,61c-0.2,1.1,0.7,2.3,2.2,2.6
			c1.4,0.3,2.8-0.4,3-1.5c0.2-1.1-0.7-2.3-2.2-2.6c-0.2,0-0.4-0.1-0.6-0.1C84.3,59.4,83.3,60.1,83.1,61"/>
	</defs>
	<clipPath id="SVGID_00000011745305667513148430000003231885081856088492_">
		<use xlink:href="#SVGID_00000051373275148281123720000000080017461502932889_"  style="overflow:visible;"/>
	</clipPath>
	<g style="clip-path:url(#SVGID_00000011745305667513148430000003231885081856088492_);">
		
			<linearGradient id="SVGID_00000131356186436510031100000016117638381491553726_" gradientUnits="userSpaceOnUse" x1="-783.66" y1="-340.1291" x2="-782.59" y2="-340.1291" gradientTransform="matrix(4.84 0 0 4.84 3874.6799 1707.8799)">
			<stop  offset="0" style="stop-color:#037D3F"/>
			<stop  offset="0" style="stop-color:#037D3F"/>
			<stop  offset="0.27" style="stop-color:#39983F"/>
			<stop  offset="0.56" style="stop-color:#6DB140"/>
			<stop  offset="0.7" style="stop-color:#82BC41"/>
			<stop  offset="1" style="stop-color:#86BE40"/>
		</linearGradient>
		
			<rect x="82.9" y="59.4" style="fill:url(#SVGID_00000131356186436510031100000016117638381491553726_);" width="5.6" height="4.5"/>
	</g>
</g>
<g>
	<defs>
		<polygon id="SVGID_00000157282859356461776150000002099329783943129763_" points="88.2,59 88.2,59 88.2,59 		"/>
	</defs>
	<clipPath id="SVGID_00000101094649461266136670000011858014575902686099_">
		<use xlink:href="#SVGID_00000157282859356461776150000002099329783943129763_"  style="overflow:visible;"/>
	</clipPath>
	<g style="clip-path:url(#SVGID_00000101094649461266136670000011858014575902686099_);">
		
			<linearGradient id="SVGID_00000005246338121576202100000007586307498146305166_" gradientUnits="userSpaceOnUse" x1="88.19" y1="91.04" x2="88.19" y2="91.04" gradientTransform="matrix(1 0 0 -1 0 150)">
			<stop  offset="0" style="stop-color:#1D7E41"/>
			<stop  offset="0.7" style="stop-color:#7FBB42"/>
			<stop  offset="1" style="stop-color:#86BE40"/>
		</linearGradient>
		<polygon style="fill:url(#SVGID_00000005246338121576202100000007586307498146305166_);" points="88.2,59 88.2,59 88.2,59 		"/>
	</g>
</g>
<g>
	<defs>
		<polygon id="SVGID_00000084505703584719617070000016616327657239704706_" points="88.2,59 88.2,59 88.2,59 		"/>
	</defs>
	<clipPath id="SVGID_00000159469753656354084890000011008030568730626225_">
		<use xlink:href="#SVGID_00000084505703584719617070000016616327657239704706_"  style="overflow:visible;"/>
	</clipPath>
	<g style="clip-path:url(#SVGID_00000159469753656354084890000011008030568730626225_);">
		
			<linearGradient id="SVGID_00000021807734029454354020000009619996837105922227_" gradientUnits="userSpaceOnUse" x1="-541.7945" y1="-193.9178" x2="-541.7945" y2="-193.9178" gradientTransform="matrix(1.46 0 0 1.46 879.21 342.08)">
			<stop  offset="0" style="stop-color:#1D7E41"/>
			<stop  offset="0.7" style="stop-color:#7FBB42"/>
			<stop  offset="1" style="stop-color:#86BE40"/>
		</linearGradient>
		<polygon style="fill:url(#SVGID_00000021807734029454354020000009619996837105922227_);" points="88.2,59 88.2,59 88.2,59 		"/>
	</g>
</g>
<g>
	<defs>
		<path id="SVGID_00000129912206204115038210000012849588414615524541_" d="M74.9,60.3c-0.4,0.7-0.6,1.4-0.6,2.2
			c0,0.9,0.4,1.8,0.9,2.6c2.1,3.4,4.1,3.1,5.1,5.7c0.8,2.1-1.2,3.8-4.1,1.4c-3.3-2.8-4.2-8.6-2-11.8c-1.6,1.8-2.5,4.2-2.5,6.7
			c0,1.8,0.4,3.5,1.3,5c0.7,1.2,1.6,2.3,2.8,3.1c1.3,0.8,2.8,1.4,4.2,1.5c0.8,0.1,1.5,0,2.2-0.1c1.2-0.3,2.3-0.9,3.2-1.7
			c2.6-2.4,1.1-6.2-1.1-8.3c-2.2-2.1-3.7-3.7-3.3-5.6c0.4-2,2.8-3.3,5.3-2.8c0.7,0.1,1.3,0.4,1.8,0.7c-1.7-1.3-3.9-2.1-6.2-2.1
			C79.3,56.9,76.3,57.9,74.9,60.3"/>
	</defs>
	<clipPath id="SVGID_00000055690993727877310300000003146369910534811527_">
		<use xlink:href="#SVGID_00000129912206204115038210000012849588414615524541_"  style="overflow:visible;"/>
	</clipPath>
	<g style="clip-path:url(#SVGID_00000055690993727877310300000003146369910534811527_);">
		
			<linearGradient id="SVGID_00000105385466383075080140000000699754964956599991_" gradientUnits="userSpaceOnUse" x1="-854.53" y1="-383.4128" x2="-853.46" y2="-383.4128" gradientTransform="matrix(15.37 0 0 15.37 13209.7695 5959.9102)">
			<stop  offset="0" style="stop-color:#037D3F"/>
			<stop  offset="0" style="stop-color:#037D3F"/>
			<stop  offset="0.27" style="stop-color:#39983F"/>
			<stop  offset="0.56" style="stop-color:#6DB140"/>
			<stop  offset="0.7" style="stop-color:#82BC41"/>
			<stop  offset="1" style="stop-color:#86BE40"/>
		</linearGradient>
		
			<rect x="71.7" y="56.9" style="fill:url(#SVGID_00000105385466383075080140000000699754964956599991_);" width="16.5" height="20"/>
	</g>
</g>
<g>
	<defs>
		<path id="SVGID_00000059296333718454356870000003583541997817423284_" d="M89.5,60.1c0.6,0.8,0.9,1.8,0.7,2.7
			c-0.2,1.2-1.1,2.1-2.3,2.5c-0.9,0.3-1.6,0.2-1,1.1c0.5,0.8,1,1.3,1.3,2.1c0.8,1.9,0.6,4.4-0.9,6.3c0,0,0,0.1-0.1,0.1l0,0
			c0,0,0,0,0,0.1c-0.3,0.3-0.6,0.7-1.1,1.1c0,0-0.1,0.1-0.1,0.1c0,0-0.1,0.1-0.1,0.1c-0.3,0.2-0.7,0.4-1.1,0.6
			c-0.5,0.2-1.1,0.4-1.8,0.7c5.2-0.5,9.4-4.9,9.4-10.2C92.3,64.4,91.2,61.9,89.5,60.1L89.5,60.1L89.5,60.1z"/>
	</defs>
	<clipPath id="SVGID_00000096041196094283621530000012195786899479958961_">
		<use xlink:href="#SVGID_00000059296333718454356870000003583541997817423284_"  style="overflow:visible;"/>
	</clipPath>
	<g style="clip-path:url(#SVGID_00000096041196094283621530000012195786899479958961_);">
		
			<linearGradient id="SVGID_00000098221701968260325680000003943621373966863796_" gradientUnits="userSpaceOnUse" x1="-829.78" y1="-368.0727" x2="-828.71" y2="-368.0727" gradientTransform="matrix(8.74 0 0 8.74 7332.8501 3285.71)">
			<stop  offset="0" style="stop-color:#037D3F"/>
			<stop  offset="0" style="stop-color:#037D3F"/>
			<stop  offset="0.27" style="stop-color:#39983F"/>
			<stop  offset="0.56" style="stop-color:#6DB140"/>
			<stop  offset="0.7" style="stop-color:#82BC41"/>
			<stop  offset="1" style="stop-color:#86BE40"/>
		</linearGradient>
		
			<rect x="82.9" y="60.1" style="fill:url(#SVGID_00000098221701968260325680000003943621373966863796_);" width="9.4" height="17.3"/>
	</g>
</g>
<path class="st16" d="M37.8,81.1l1.9-30.5c7.3,2.5,14.7,5.2,21.2,7.7c11.1,4.5,8.2,9.2-4.1,14.7C54.1,74.2,44.2,78.3,37.8,81.1"/>
<path class="st17" d="M44.5,110.2H36l1.7-27.5c6.3-2.5,16.7-6.4,19.4-7.4c22.6-8,9.7,6.8,2.5,16.2C56.8,95.1,49.4,104.1,44.5,110.2"
	/>
<path class="st18" d="M75,110.2H46.4c5-5.8,11.8-13.8,14.5-16.9c12.9-15.3,18.9-17,16.2,3.1C76.8,98,76,103.7,75,110.2"/>
<path class="st19" d="M100.5,110.2H76.9c1.2-6.4,2.1-11.9,2.5-13.6c4.8-25.4,10.2-11.8,15.8,1.6C97,102.2,98.8,106.2,100.5,110.2"/>
<path class="st20" d="M112.7,90.9l1.2,19.3h-11.5c-2-4.4-3.9-8.9-5.7-13.4c-5.2-13.8-8.4-26.1,6.8-13.3
	C104.9,84.5,108.8,87.7,112.7,90.9"/>
<path class="st21" d="M111.2,66.5l1.4,22.2c-3.7-3.2-7.1-6.2-8.3-7.4c-14.1-13.4-6.9-15.5,5.9-14.9
	C110.5,66.5,110.8,66.5,111.2,66.5"/>
<path class="st22" d="M109.8,43.8l1.4,21.1c-0.7-0.1-1.4-0.2-2-0.2c-9.2-1-21.2-2.9-9.9-12.4C100.8,50.9,107.5,45.5,109.8,43.8"/>
<path class="st23" d="M88,30.6h21l0.7,11.5c-0.1,0.1-0.2,0.2-0.2,0.2c-1.8,1.4-9.5,7.5-11.5,8.8c-11.9,8.2-11.9-1.5-10.9-12
	C87.3,36.2,87.7,33.4,88,30.6"/>
<path class="st24" d="M62.7,30.6h24c-0.3,2.7-0.7,5.4-1.2,8.1c-1.7,10.9-4.4,19.4-13.7,6.8C70.5,43.5,65,34.3,62.7,30.6"/>
<path class="st25" d="M41,30.6h20.2c1.6,2.7,7,13.2,8.1,15.3c7.1,13-0.2,11.8-7.5,9.8c-7.3-2-14.7-4.4-21.9-6.8
	C39.8,48.9,41,30.6,41,30.6z"/>
<path class="st26" d="M96.2,35.4c2,0,3.7,1.6,3.7,3.7s-1.7,3.7-3.7,3.7s-3.7-1.7-3.7-3.7S94.2,35.4,96.2,35.4"/>
<path class="st26" d="M53.8,35.4c2,0,3.7,1.6,3.7,3.7s-1.6,3.7-3.7,3.7s-3.7-1.7-3.7-3.7S51.7,35.4,53.8,35.4"/>
<path d="M51.7,38.5c0.4-7.3,3.4-30.8,24.3-30.3c20.9,0.5,22.2,23.3,22.1,30.5c-0.1,3.5-4.1,3-4,0c0.1-6.2-0.9-26-18.2-26.4
	C58.8,11.8,56.4,32.1,56,38.8C55.8,42.2,51.5,41.9,51.7,38.5"/>
<g>
	<path class="st27" d="M3.8,128.4c-1.9,0-2.9-1.1-3-3.3c0-0.1,0-0.2,0.1-0.2l1.1-0.2c0.1,0,0.2,0.1,0.2,0.2c0.1,1.6,0.6,2.1,1.6,2.1
		s1.4-0.5,1.4-2.2c0-1.5-0.3-2-1.3-2.4L3.2,122c-1.8-0.7-2.2-1.5-2.2-3.5c0-2.2,0.9-3.3,2.9-3.3s2.8,1.1,2.9,3.1
		c0,0.1-0.1,0.2-0.2,0.2l-1.1,0.2c-0.1,0-0.2,0-0.2-0.2c0-1.3-0.4-1.9-1.4-1.9s-1.4,0.6-1.4,1.9s0.3,1.8,1.3,2.2l0.8,0.3
		c1.6,0.7,2.2,1.5,2.2,3.6C6.8,127.1,6,128.3,3.8,128.4L3.8,128.4z"/>
	<path class="st27" d="M8.6,115.6c0-0.1,0.1-0.2,0.2-0.2h1.1c0.1,0,0.2,0.1,0.2,0.2V128c0,0.1-0.1,0.2-0.2,0.2H8.8
		c-0.1,0-0.2-0.1-0.2-0.2V115.6z"/>
	<path class="st27" d="M12.2,121.8c0-3.6,0.1-4.1,0.2-4.7c0.4-1.2,1.4-1.9,2.8-1.9c1.8,0,2.8,1,3,2.8c0,0.1,0,0.2-0.1,0.2l-1,0.2
		c-0.1,0-0.2,0-0.2-0.2c-0.1-1.1-0.6-1.6-1.5-1.6c-0.7,0-1.2,0.3-1.4,0.9c-0.1,0.4-0.2,0.7-0.2,4.2s0,3.9,0.2,4.2
		c0.2,0.6,0.7,0.9,1.4,0.9s1.2-0.3,1.4-0.9c0.1-0.4,0.2-0.7,0.2-3.3c0-0.1,0-0.1-0.1-0.1h-1.3c-0.1,0-0.2-0.1-0.2-0.2v-1
		c0-0.1,0.1-0.2,0.2-0.2h2.6c0.1,0,0.2,0.1,0.2,0.2v0.6c0,3.4-0.1,3.9-0.2,4.5c-0.4,1.2-1.4,1.9-2.8,1.9s-2.4-0.7-2.8-1.9
		C12.2,125.9,12.2,125.4,12.2,121.8L12.2,121.8z"/>
	<path class="st27" d="M20.2,115.6c0-0.1,0.1-0.2,0.2-0.2h1.4c0.1,0,0.2,0.1,0.3,0.2l2.9,9.6h0.1v-9.6c0-0.1,0.1-0.2,0.2-0.2h1
		c0.1,0,0.2,0.1,0.2,0.2V128c0,0.1-0.1,0.2-0.2,0.2h-1.3c-0.1,0-0.2-0.1-0.3-0.2l-2.9-9.6h-0.1v9.6c0,0.1-0.1,0.2-0.2,0.2h-1
		c-0.1,0-0.2-0.1-0.2-0.2V115.6z"/>
	<path class="st27" d="M30.6,115.6c0-0.1,0.1-0.2,0.2-0.2h1.1c0.1,0,0.2,0.1,0.2,0.2l2.7,12.4c0,0.1-0.1,0.2-0.2,0.2h-1.1
		c-0.1,0-0.2-0.1-0.2-0.2l-0.6-2.8h-2.8l-0.6,2.8c0,0.1-0.1,0.2-0.2,0.2h-1.1c-0.1,0-0.2-0.1-0.2-0.2L30.6,115.6L30.6,115.6z
		 M32.5,123.9l-1.1-5.6h-0.1l-1.2,5.6H32.5L32.5,123.9z"/>
	<path class="st27" d="M37.2,128.2c-0.1,0-0.2-0.1-0.2-0.2v-11.1c0-0.1,0-0.1-0.1-0.1h-2.1c-0.1,0-0.2-0.1-0.2-0.2v-1
		c0-0.1,0.1-0.2,0.2-0.2h6c0.1,0,0.2,0.1,0.2,0.2v1c0,0.1-0.1,0.2-0.2,0.2h-2.1c-0.1,0-0.1,0-0.1,0.1V128c0,0.1-0.1,0.2-0.2,0.2
		H37.2z"/>
	<path class="st27" d="M42.3,125v-9.5c0-0.1,0.1-0.2,0.2-0.2h1.2c0.1,0,0.2,0.1,0.2,0.2v9.7c0,1.1,0.6,1.7,1.5,1.7s1.5-0.6,1.5-1.7
		v-9.7c0-0.1,0.1-0.2,0.2-0.2h1.2c0.1,0,0.2,0.1,0.2,0.2v9.5c0,2.2-1.2,3.3-3,3.3S42.4,127.2,42.3,125L42.3,125z"/>
	<path class="st27" d="M55.3,128.2c-0.1,0-0.2,0-0.2-0.1l-1.6-5.3c-0.2,0-0.4,0-0.5,0h-0.8c-0.1,0-0.1,0-0.1,0.1v5.2
		c0,0.1-0.1,0.2-0.2,0.2h-1.2c-0.1,0-0.2-0.1-0.2-0.2v-12.4c0-0.1,0.1-0.2,0.2-0.2H53c2.3,0,3.5,1,3.5,3.7c0,1.7-0.6,2.8-1.6,3.3
		l1.8,5.7c0,0.1,0,0.2-0.1,0.2L55.3,128.2L55.3,128.2z M54.9,119.1c0-1.7-0.6-2.3-1.9-2.3h-0.8c-0.1,0-0.1,0-0.1,0.1v4.3
		c0,0.1,0,0.1,0.1,0.1H53C54.3,121.3,54.9,120.8,54.9,119.1L54.9,119.1z"/>
	<path class="st27" d="M58.5,115.6c0-0.1,0.1-0.2,0.2-0.2h4.8c0.1,0,0.2,0.1,0.2,0.2v1c0,0.1-0.1,0.2-0.2,0.2h-3.4
		c-0.1,0-0.1,0-0.1,0.1v4c0,0.1,0,0.1,0.1,0.1h2.9c0.1,0,0.2,0.1,0.2,0.2v1c0,0.1-0.1,0.2-0.2,0.2h-2.9c-0.1,0-0.1,0-0.1,0.1v4.1
		c0,0.1,0,0.1,0.1,0.1h3.4c0.1,0,0.2,0.1,0.2,0.2v1c0,0.1-0.1,0.2-0.2,0.2h-4.8c-0.1,0-0.2-0.1-0.2-0.2V115.6L58.5,115.6z"/>
	<path class="st27" d="M68.8,121.8c0-3.6,0.1-4.1,0.2-4.7c0.4-1.2,1.4-1.9,2.8-1.9c1.8,0,2.8,1,3,2.8c0,0.1,0,0.2-0.1,0.2l-1.1,0.2
		c-0.1,0-0.2,0-0.2-0.2c-0.1-1.1-0.6-1.6-1.5-1.6c-0.7,0-1.2,0.3-1.4,0.9c-0.1,0.4-0.2,0.7-0.2,4.2s0,3.9,0.2,4.2
		c0.2,0.6,0.7,0.9,1.4,0.9s1.2-0.3,1.4-0.9c0.1-0.4,0.2-0.7,0.2-3.3c0-0.1,0-0.1-0.1-0.1H72c-0.1,0-0.2-0.1-0.2-0.2v-1
		c0-0.1,0.1-0.2,0.2-0.2h2.7c0.1,0,0.2,0.1,0.2,0.2v0.6c0,3.4-0.1,3.9-0.2,4.5c-0.4,1.2-1.4,1.9-2.8,1.9s-2.4-0.7-2.8-1.9
		C68.8,125.9,68.8,125.4,68.8,121.8L68.8,121.8z"/>
	<path class="st27" d="M76.8,115.6c0-0.1,0.1-0.2,0.2-0.2h1.2c0.1,0,0.2,0.1,0.2,0.2v11.1c0,0.1,0,0.1,0.1,0.1h3.3
		c0.1,0,0.2,0.1,0.2,0.2v1c0,0.1-0.1,0.2-0.2,0.2H77c-0.1,0-0.2-0.1-0.2-0.2V115.6L76.8,115.6z"/>
	<path class="st27" d="M83.2,126.4c-0.2-0.6-0.2-1-0.2-4.7s0.1-4.1,0.2-4.7c0.4-1.2,1.4-1.9,2.8-1.9s2.4,0.7,2.8,1.9
		c0.2,0.6,0.2,1,0.2,4.7s-0.1,4.1-0.2,4.7c-0.4,1.2-1.4,1.9-2.8,1.9S83.5,127.7,83.2,126.4z M87.3,126c0.1-0.4,0.2-0.7,0.2-4.2
		s0-3.9-0.2-4.2c-0.2-0.6-0.7-0.9-1.4-0.9s-1.2,0.3-1.3,0.9c-0.1,0.4-0.2,0.7-0.2,4.2s0,3.9,0.2,4.2c0.2,0.6,0.7,0.9,1.3,0.9
		S87.1,126.6,87.3,126z"/>
	<path class="st27" d="M91.1,115.6c0-0.1,0.1-0.2,0.2-0.2h2.4c2.2,0,3.2,1,3.2,3.3c0,1.6-0.6,2.4-1.5,2.8v0c1,0.3,1.6,1.2,1.6,3
		c0,2.8-1.1,3.7-3.5,3.7h-2.2c-0.1,0-0.2-0.1-0.2-0.2L91.1,115.6L91.1,115.6z M93.6,120.9c1.2,0,1.7-0.4,1.7-2.1s-0.4-2.1-1.8-2.1
		h-0.9c-0.1,0-0.1,0-0.1,0.1v3.9c0,0.1,0,0.1,0.1,0.1L93.6,120.9L93.6,120.9z M92.7,126.8h0.8c1.4,0,1.9-0.5,1.9-2.3
		s-0.6-2.2-1.8-2.2h-0.9c-0.1,0-0.1,0-0.1,0.1v4.3C92.6,126.7,92.6,126.8,92.7,126.8L92.7,126.8z"/>
	<path class="st27" d="M100.6,115.6c0-0.1,0.1-0.2,0.2-0.2h1.1c0.1,0,0.2,0.1,0.2,0.2l2.7,12.4c0,0.1-0.1,0.2-0.2,0.2h-1.1
		c-0.1,0-0.2-0.1-0.2-0.2l-0.6-2.8H100l-0.6,2.8c0,0.1-0.1,0.2-0.2,0.2h-1.1c-0.1,0-0.2-0.1-0.2-0.2L100.6,115.6L100.6,115.6z
		 M102.5,123.9l-1.1-5.6h-0.1l-1.2,5.6H102.5L102.5,123.9z"/>
	<path class="st27" d="M106.3,115.6c0-0.1,0.1-0.2,0.2-0.2h1.2c0.1,0,0.2,0.1,0.2,0.2v11.1c0,0.1,0,0.1,0.1,0.1h3.3
		c0.1,0,0.2,0.1,0.2,0.2v1c0,0.1-0.1,0.2-0.2,0.2h-4.8c-0.1,0-0.2-0.1-0.2-0.2V115.6L106.3,115.6z"/>
</g>
<g>
	<path class="st27" d="M116.9,126.6c-0.1-0.1-0.1-0.2,0-0.3l1.7-2c0.1-0.1,0.2-0.1,0.3,0c0.8,0.7,2,1.3,3.3,1.3
		c1.2,0,1.8-0.5,1.8-1.2c0-0.6-0.4-0.9-1.6-1.1l-0.7-0.1c-2.8-0.4-4.3-1.6-4.3-4s1.9-4,4.8-4c1.8,0,3.4,0.6,4.6,1.4
		c0.1,0.1,0.1,0.2,0,0.3l-1.4,2.1c-0.1,0.1-0.2,0.1-0.3,0.1c-0.9-0.6-1.9-1-2.9-1c-0.9,0-1.4,0.4-1.4,1.1c0,0.6,0.4,0.9,1.6,1.1
		l0.7,0.1c2.8,0.4,4.2,1.6,4.2,4.1s-1.8,4.1-5.2,4.1C120,128.4,117.9,127.5,116.9,126.6L116.9,126.6z"/>
	<path class="st27" d="M128.5,121.8c0-1.9,0.1-2.6,0.4-3.5c0.7-2.1,2.3-3.2,4.6-3.2s3.9,1.1,4.6,2.9c0.1,0.1,0,0.2-0.1,0.3l-2.5,1.1
		c-0.1,0.1-0.2,0-0.3-0.1c-0.4-0.8-0.8-1.2-1.7-1.2c-0.8,0-1.3,0.4-1.5,1.1c-0.1,0.4-0.2,0.8-0.2,2.6s0.1,2.2,0.2,2.6
		c0.2,0.7,0.7,1.1,1.5,1.1c0.9,0,1.3-0.4,1.7-1.2c0.1-0.1,0.1-0.2,0.3-0.1l2.5,1.1c0.1,0.1,0.1,0.1,0.1,0.3
		c-0.7,1.8-2.3,2.9-4.6,2.9s-4-1.1-4.6-3.2C128.6,124.4,128.5,123.7,128.5,121.8L128.5,121.8z"/>
	<path class="st27" d="M139.7,125.3c-0.3-1-0.4-1.7-0.4-3.5s0.1-2.5,0.4-3.5c0.7-2.1,2.5-3.1,4.8-3.1s4.1,1.1,4.8,3.1
		c0.3,1,0.4,1.7,0.4,3.5s-0.1,2.5-0.4,3.5c-0.7,2.1-2.5,3.1-4.8,3.1S140.4,127.4,139.7,125.3z M146.1,124.3c0.1-0.4,0.2-1,0.2-2.5
		s0-2.1-0.2-2.5c-0.2-0.7-0.8-1.1-1.6-1.1s-1.4,0.4-1.6,1.1c-0.1,0.4-0.2,1-0.2,2.5s0,2.1,0.2,2.5c0.2,0.7,0.8,1.1,1.6,1.1
		S145.9,125,146.1,124.3z"/>
</g>
<g>
	<path class="st27" d="M0.8,140.4c0,0,0-0.1,0-0.1l0.4-0.4c0,0,0.1,0,0.1,0c0.4,0.3,0.9,0.6,1.6,0.6c0.8,0,1.2-0.4,1.2-0.9
		c0-0.5-0.3-0.8-1.2-0.9l-0.3,0c-1.1-0.1-1.6-0.7-1.6-1.5c0-1,0.7-1.6,1.8-1.6c0.7,0,1.3,0.2,1.7,0.5c0,0,0.1,0.1,0,0.1l-0.3,0.4
		c0,0-0.1,0-0.1,0c-0.5-0.3-0.9-0.4-1.3-0.4c-0.7,0-1,0.4-1,0.9c0,0.5,0.3,0.8,1.2,0.9l0.3,0c1.1,0.1,1.6,0.6,1.6,1.6
		c0,1-0.7,1.7-2,1.7C2,141,1.2,140.7,0.8,140.4L0.8,140.4z"/>
	<path class="st27" d="M9.2,135.5C9.2,135.5,9.2,135.4,9.2,135.5l3.4-0.1c0,0,0.1,0,0.1,0.1v0.5c0,0,0,0.1-0.1,0.1H9.9
		c0,0-0.1,0-0.1,0.1v1.6c0,0,0,0.1,0.1,0.1h2.2c0,0,0.1,0,0.1,0.1v0.5c0,0,0,0.1-0.1,0.1H9.9c0,0-0.1,0-0.1,0.1v1.7
		c0,0,0,0.1,0.1,0.1h2.6c0,0,0.1,0,0.1,0.1v0.5c0,0,0,0.1-0.1,0.1H9.2c0,0-0.1,0-0.1-0.1V135.5L9.2,135.5z"/>
	<path class="st27" d="M16.8,138.2c0-0.9,0-1.2,0.1-1.6c0.3-0.9,0.9-1.3,1.9-1.3c0.8,0,1.5,0.4,1.8,1.1c0,0,0,0.1,0,0.1l-0.5,0.2
		c0,0-0.1,0-0.1,0c-0.2-0.4-0.6-0.7-1.1-0.7c-0.6,0-1,0.3-1.1,0.8c-0.1,0.2-0.1,0.5-0.1,1.4s0,1.1,0.1,1.4c0.2,0.5,0.5,0.8,1.1,0.8
		c0.6,0,0.9-0.3,1.1-0.7c0,0,0.1-0.1,0.1,0l0.5,0.2c0,0,0,0.1,0,0.1c-0.3,0.7-1,1.1-1.8,1.1c-0.9,0-1.6-0.4-1.9-1.3
		C16.9,139.4,16.8,139.1,16.8,138.2L16.8,138.2z"/>
	<path class="st27" d="M26,140.9C26,140.9,25.9,140.9,26,140.9l-0.1-4.8c0,0,0-0.1,0-0.1h-1.5c0,0-0.1,0-0.1-0.1v-0.5
		c0,0,0-0.1,0.1-0.1h3.9c0,0,0.1,0,0.1,0.1v0.5c0,0,0,0.1-0.1,0.1h-1.5c0,0,0,0,0,0.1v4.8c0,0,0,0.1-0.1,0.1
		C26.5,140.9,26,140.9,26,140.9z"/>
	<path class="st27" d="M32.2,139.7c-0.1-0.3-0.2-0.6-0.2-1.6c0-0.9,0-1.2,0.2-1.6c0.3-0.9,1-1.3,1.9-1.3s1.6,0.4,1.9,1.3
		c0.1,0.3,0.2,0.6,0.2,1.6c0,0.9,0,1.2-0.2,1.6c-0.3,0.9-1,1.3-1.9,1.3S32.5,140.6,32.2,139.7z M35.2,139.5c0.1-0.2,0.1-0.6,0.1-1.4
		s-0.1-1.2-0.1-1.4c-0.2-0.5-0.6-0.8-1.2-0.8s-1,0.3-1.2,0.8c-0.1,0.2-0.1,0.6-0.1,1.4s0.1,1.2,0.1,1.4c0.2,0.5,0.6,0.8,1.2,0.8
		S35.1,140.1,35.2,139.5z"/>
	<path class="st27" d="M43.8,140.9c-0.1,0-0.1,0-0.1-0.1l-1.1-2.3h-1.2c0,0,0,0,0,0.1v2.2c0,0,0,0.1-0.1,0.1h-0.6c0,0-0.1,0-0.1-0.1
		v-5.4c0,0,0-0.1,0.1-0.1h2c1,0,1.7,0.6,1.7,1.6c0,0.8-0.4,1.3-1.1,1.5l1.2,2.3c0,0,0,0.1,0,0.1C44.4,140.9,43.7,140.9,43.8,140.9z
		 M43.6,137c0-0.6-0.4-0.9-1-0.9h-1.3c0,0,0,0,0,0.1v1.8c0,0,0,0.1,0,0.1h1.3C43.3,137.9,43.6,137.6,43.6,137L43.6,137z"/>
	<path class="st27" d="M54.6,138L54.6,138c-0.3-0.2-0.7-0.6-0.7-1.2c0-0.8,0.6-1.5,1.6-1.5c1,0,1.6,0.7,1.6,1.5c0,0.6-0.3,1-0.7,1.2
		v0c0.4,0.2,0.8,0.7,0.8,1.4c0,1-0.7,1.6-1.7,1.6s-1.7-0.7-1.7-1.6C53.8,138.8,54.2,138.3,54.6,138L54.6,138z M55.6,140.4
		c0.6,0,1-0.4,1-1c0-0.6-0.4-1-1-1s-1,0.4-1,1C54.6,140,55,140.4,55.6,140.4z M56.5,136.8c0-0.5-0.3-0.9-0.9-0.9s-0.9,0.4-0.9,0.9
		s0.3,0.9,0.9,0.9S56.5,137.3,56.5,136.8z"/>
	<path class="st27" d="M62.3,138L62.3,138c-0.3-0.2-0.7-0.6-0.7-1.2c0-0.8,0.6-1.5,1.6-1.5c1,0,1.6,0.7,1.6,1.5c0,0.6-0.3,1-0.7,1.2
		v0c0.4,0.2,0.8,0.7,0.8,1.4c0,1-0.7,1.6-1.7,1.6c-1,0-1.7-0.7-1.7-1.6C61.5,138.7,61.9,138.2,62.3,138L62.3,138z M63.3,140.4
		c0.6,0,1-0.4,1-1c0-0.6-0.4-1-1-1c-0.6,0-1,0.4-1,1C62.3,140,62.7,140.4,63.3,140.4z M64.1,136.8c0-0.5-0.3-0.9-0.9-0.9
		c-0.5,0-0.9,0.4-0.9,0.9s0.3,0.9,0.9,0.9S64.1,137.3,64.1,136.8z"/>
	<path class="st27" d="M70.9,135.5C70.9,135.5,70.9,135.4,70.9,135.5l0.6-0.1c0.1,0,0.1,0,0.1,0.1l1.9,5.4c0,0,0,0.1-0.1,0.1h-0.6
		c-0.1,0-0.1,0-0.1-0.1l-0.4-1.2h-2.2l-0.4,1.2c0,0.1-0.1,0.1-0.1,0.1H69c0,0-0.1,0-0.1-0.1L70.9,135.5L70.9,135.5z M72.1,139
		l-0.9-2.5h0l-0.9,2.5H72.1z"/>
	<path class="st27" d="M77.7,140.1h0.6c0,0,0.1,0,0.1,0.1v0.8c0,0.1,0,0.1-0.1,0.2l-0.5,0.7c0,0-0.1,0.1-0.1,0.1s-0.1,0-0.1-0.1
		L77.7,140.1C77.6,140.2,77.6,140.1,77.7,140.1L77.7,140.1z"/>
	<path class="st27" d="M85.9,138.2c0-0.9,0.1-1.2,0.2-1.6c0.3-0.9,1-1.3,1.9-1.3s1.6,0.5,1.8,1.1c0,0.1,0,0.1,0,0.1l-0.5,0.2
		c0,0-0.1,0-0.1,0c-0.3-0.5-0.6-0.7-1.2-0.7c-0.6,0-1,0.3-1.2,0.8c-0.1,0.2-0.1,0.5-0.1,1.4s0,1.2,0.1,1.4c0.2,0.5,0.6,0.8,1.2,0.8
		c0.6,0,1-0.3,1.2-0.8c0.1-0.2,0.1-0.5,0.1-0.9c0,0,0-0.1-0.1-0.1h-1.1c0,0-0.1,0-0.1-0.1v-0.5c0,0,0-0.1,0.1-0.1h1.8
		c0,0,0.1,0,0.1,0.1v0.4c0,0.5-0.1,1-0.1,1.2c-0.3,0.8-1,1.3-1.9,1.3s-1.6-0.4-1.9-1.3C86,139.4,85.9,139.1,85.9,138.2L85.9,138.2z"
		/>
	<path class="st27" d="M94.4,139v-3.5c0,0,0-0.1,0.1-0.1H95c0,0,0.1,0,0.1,0.1v3.5c0,0.9,0.5,1.4,1.2,1.4s1.2-0.5,1.2-1.4v-3.5
		c0,0,0-0.1,0.1-0.1h0.6c0,0,0.1,0,0.1,0.1v3.5c0,1.3-0.7,2-2,2C95.1,141,94.4,140.3,94.4,139L94.4,139z"/>
	<path class="st27" d="M106.1,140.9c-0.1,0-0.1,0-0.1-0.1l-1.1-2.3h-1.2c0,0-0.1,0-0.1,0.1v2.2c0,0,0,0.1-0.1,0.1H103
		c0,0-0.1,0-0.1-0.1v-5.4c0,0,0-0.1,0.1-0.1h2c1,0,1.7,0.6,1.7,1.6c0,0.8-0.4,1.3-1.1,1.5l1.2,2.3c0,0,0,0.1-0.1,0.1
		C106.8,140.9,106.1,140.9,106.1,140.9z M106,137c0-0.6-0.4-0.9-1-0.9h-1.3c0,0-0.1,0-0.1,0.1v1.8c0,0,0,0.1,0.1,0.1h1.3
		C105.6,137.9,106,137.6,106,137L106,137z"/>
	<path class="st27" d="M111.2,139v-3.5c0,0,0-0.1,0.1-0.1h0.6c0,0,0.1,0,0.1,0.1v3.5c0,0.9,0.5,1.4,1.2,1.4s1.2-0.5,1.2-1.4v-3.5
		c0,0,0-0.1,0.1-0.1h0.6c0,0,0.1,0,0.1,0.1v3.5c0,1.3-0.7,2-2,2C111.9,141,111.1,140.3,111.2,139L111.2,139z"/>
	<path class="st27" d="M119.5,138.2c0-0.9,0.1-1.2,0.2-1.6c0.3-0.9,1-1.3,1.9-1.3c1,0,1.6,0.5,1.8,1.1c0,0.1,0,0.1,0,0.1l-0.5,0.2
		c0,0-0.1,0-0.1,0c-0.3-0.5-0.6-0.7-1.2-0.7c-0.6,0-1,0.3-1.2,0.8c-0.1,0.2-0.1,0.5-0.1,1.4s0,1.2,0.1,1.4c0.2,0.5,0.6,0.8,1.2,0.8
		c0.6,0,1-0.3,1.2-0.8c0.1-0.2,0.1-0.5,0.1-0.9c0,0,0-0.1-0.1-0.1h-1.1c0,0-0.1,0-0.1-0.1v-0.5c0,0,0-0.1,0.1-0.1h1.8
		c0,0,0.1,0,0.1,0.1v0.4c0,0.5-0.1,1-0.1,1.2c-0.3,0.8-1,1.3-1.9,1.3c-0.9,0-1.6-0.4-1.9-1.3C119.6,139.4,119.5,139.1,119.5,138.2
		L119.5,138.2z"/>
	<path class="st27" d="M131.2,140.9c-0.1,0-0.1,0-0.1-0.1l-1.1-2.3h-1.2c0,0-0.1,0-0.1,0.1v2.2c0,0,0,0.1-0.1,0.1h-0.6
		c0,0-0.1,0-0.1-0.1v-5.4c0,0,0-0.1,0.1-0.1h2c1,0,1.7,0.6,1.7,1.6c0,0.8-0.4,1.3-1.1,1.5l1.2,2.3c0,0,0,0.1-0.1,0.1H131.2z
		 M131.1,137c0-0.6-0.4-0.9-1-0.9h-1.3c0,0-0.1,0-0.1,0.1v1.8c0,0,0,0.1,0.1,0.1h1.3C130.7,137.9,131.1,137.6,131.1,137L131.1,137z"
		/>
	<path class="st27" d="M137.7,135.5c0,0,0-0.1,0.1-0.1h0.5c0.1,0,0.1,0,0.1,0.1l1.9,5.4c0,0,0,0.1-0.1,0.1h-0.6
		c-0.1,0-0.1,0-0.1-0.1l-0.4-1.2H137l-0.4,1.2c0,0.1-0.1,0.1-0.1,0.1h-0.6c0,0-0.1,0-0.1-0.1L137.7,135.5L137.7,135.5z M139,139
		l-0.9-2.5h0l-0.9,2.5H139L139,139z"/>
	<path class="st27" d="M144.5,135.5C144.5,135.5,144.6,135.4,144.5,135.5l0.6-0.1c0.1,0,0.1,0,0.1,0.1l1.7,3.7h0l1.6-3.7
		c0-0.1,0.1-0.1,0.1-0.1h0.5c0,0,0.1,0,0.1,0.1v5.4c0,0,0,0.1-0.1,0.1h-0.5c0,0-0.1,0-0.1-0.1V137h0l-1.4,3.1c0,0.1-0.1,0.1-0.1,0.1
		h-0.3c-0.1,0-0.1,0-0.2-0.1l-1.4-3.1h0v3.9c0,0,0,0.1-0.1,0.1h-0.5c0,0-0.1,0-0.1-0.1L144.5,135.5L144.5,135.5z"/>
</g>
<line class="st28" x1="0.2" y1="131.4" x2="149.9" y2="131.4"/>
</svg>
