<svg xmlns="http://www.w3.org/2000/svg" viewBox="0 0 239.78 99.14"><defs><style>.cls-1,.cls-3{fill:#009fdb;}.cls-1,.cls-2{fill-rule:evenodd;}.cls-2{fill:#6ec060;}</style></defs><g id="Layer_2" data-name="Layer 2"><g id="Layer_1-2" data-name="Layer 1"><path class="cls-1" d="M106.07,53.56c6.29-.66,11,3.22,11.48,8.93.6,6.54-3.28,11-9.1,11.56-11,1.07-14.4-11.42-9.23-17a9.7,9.7,0,0,1,6.85-3.44ZM116.32,85.1c-1.17,4.71-6.17,6.23-10.7,6.13A16,16,0,0,1,96.28,88c-.78-.55-1.59-1.6-2.51-1.76-.13.69-4.41,6.09-5,7.07A14.54,14.54,0,0,0,92.32,96C97,98.56,101.4,99.19,107,99.14c7.77-.08,13-3.24,15.91-7.9,3.62-5.85,3.06-13.31,3.06-21V58.37c0-3.64.26-8.4,0-11.91l-8.34,0,0,5.15c-.42-.34-.82-1.09-1.55-1.86-7.72-8.22-27.35-5-27.95,13.45-.54,16.7,16.24,22.43,25.63,16.64a9.12,9.12,0,0,0,1.93-1.43c.12-.12,1.4-1.47,1.51-1.52.23,1.61-.08,7.06-.83,8.16Z"/><polygon class="cls-1" points="32.95 59.21 32.99 50.86 9.24 50.83 9.31 38.12 34.32 38.1 34.29 29.72 0 29.78 0.03 81.59 35.65 81.56 35.59 73.23 9.25 73.18 9.24 59.22 32.95 59.21 32.95 59.21"/><path class="cls-1" d="M138.61,60.5a9.14,9.14,0,0,1,2.74-6C146,50,156.77,52,156.51,60.5Zm19.27,10.4-.46-.16c-1.51,1.42-2.17,2.53-4.48,3.62a11.53,11.53,0,0,1-6.67.94c-4.45-.78-7.85-4.66-7.63-8.19l26.78-.06c-.49-2,.79-7.83-2.89-14.1-5-8.59-16.59-9-23.75-4.82a17.2,17.2,0,0,0-7.79,9,20.18,20.18,0,0,0,.21,14.3C134.77,80,144.54,84,153.38,82c3.76-.85,8.53-3.65,10.28-6.52-.41-.53-4.35-3.38-5.25-4.06-.35-.25-.45-.26-.53-.52Z"/><path class="cls-1" d="M82.19,52.76c-2.18,1.29-17.45,9.85-18,10.5,1.6.82,3.25,1.87,4.85,2.79s3.12,1.81,4.74,2.73c1,.58,8.87,5.23,9.67,5.51.11-6.9-.11-14.14,0-21,0-1.37-.08-1.11-.34-1.21l-1,.65Z"/><path class="cls-1" d="M59.8,63.27a8.48,8.48,0,0,0-2.34-1.49c-2.25-1.3-16.1-9.44-16.92-9.7l0,22.27L59.8,63.27Z"/><polygon class="cls-2" points="82.45 50.22 81.95 49.79 63.08 39.06 63.14 61.32 82.45 50.22 82.45 50.22"/><path class="cls-1" d="M63.09,13.06s0,20.3,0,22.15c.65-.2,18.71-10.61,19.19-11.06a1,1,0,0,0-.25-.24L68.59,16.12c-.76-.43-1.55-.87-2.34-1.33l-3.16-1.73Z"/><path class="cls-2" d="M82.1.64c-.15.28-7.92,4.67-8.84,5.19-.57.33-8.41,5-9,5.11l1,.85,8.44,4.85c1.63.94,3.2,1.87,4.84,2.8,1,.55,4.22,2.53,4.94,2.78V0L82.1.64Z"/><path class="cls-2" d="M45.76,78.74c.65.1,6.6,3.68,7.69,4.31,1.31.76,2.44,1.43,3.77,2.18a34.68,34.68,0,0,1,3.71,2.2l0-22.3c-.73.15-8.4,4.7-9.7,5.48L42,76a.77.77,0,0,0-.24.24c.87.69,3.45,1.81,4,2.5Z"/><path class="cls-1" d="M83.45,26c-2.58,1.3-18.89,10.8-19.21,11.21,1.3.59,12.18,7,14.47,8.33L81.13,47a17.18,17.18,0,0,0,2.37,1.3l0-22.23Z"/><path class="cls-1" d="M41.77,50.12a10.16,10.16,0,0,0,2.32,1.5c2.72,1.6,16.24,9.49,16.87,9.62L60.9,39,41.77,50.12Z"/><path class="cls-1" d="M65.91,85.85c.24-.49,2.37-1.45,3-1.84,1.11-.66,2.06-1.19,3.09-1.79a71.39,71.39,0,0,1,6.25-3.47c.5-.63,3.21-1.87,4-2.51l-.08-.08-.09-.08L65.49,66.42a16.12,16.12,0,0,0-2.4-1.31l0,22.23,2.78-1.49Z"/><polygon class="cls-3" points="105.95 16.1 102 16.1 102 12.77 105.51 12.77 105.51 11.51 102 11.51 102 8.59 105.72 8.59 105.72 7.32 100.48 7.32 100.48 17.37 105.95 17.37 105.95 16.1 105.95 16.1"/><path class="cls-3" d="M111.64,10.14l-.83,1.45c-.21.38-.42.77-.63,1.18h0c-.21-.4-.41-.77-.65-1.17l-.86-1.46H107l2.24,3.56-2.33,3.67h1.65l.85-1.53c.24-.42.45-.8.66-1.22h0c.21.43.42.81.65,1.2l.89,1.55h1.72L111,13.63l2.27-3.49Z"/><path class="cls-3" d="M119.4,16a3.38,3.38,0,0,1-1.36.28,2.24,2.24,0,0,1-2.19-2.53,2.29,2.29,0,0,1,2.2-2.57,2.83,2.83,0,0,1,1.3.29l.3-1.17A4,4,0,0,0,118,10a3.61,3.61,0,0,0-3.74,3.85,3.34,3.34,0,0,0,3.45,3.68,4.82,4.82,0,0,0,1.86-.36L119.4,16Z"/><path class="cls-3" d="M126.33,16a4.66,4.66,0,0,1-1.83.34,2.06,2.06,0,0,1-2.19-2.25h4.6a5.85,5.85,0,0,0,0-.64c0-1.78-.81-3.48-2.84-3.48s-3.26,1.72-3.26,3.87,1.26,3.66,3.44,3.66a5.59,5.59,0,0,0,2.3-.43L126.33,16Zm-4-3c.08-.83.55-1.94,1.66-1.94s1.52,1.08,1.51,1.94Z"/><polygon class="cls-3" points="130.25 6.85 128.73 6.85 128.73 17.37 130.25 17.37 130.25 6.85 130.25 6.85"/><polygon class="cls-3" points="134.03 6.85 132.5 6.85 132.5 17.37 134.03 17.37 134.03 6.85 134.03 6.85"/><path class="cls-3" d="M141.32,16a4.7,4.7,0,0,1-1.83.34,2.06,2.06,0,0,1-2.19-2.25h4.59a4,4,0,0,0,0-.64c0-1.78-.81-3.48-2.84-3.48s-3.26,1.72-3.26,3.87,1.26,3.66,3.44,3.66a5.66,5.66,0,0,0,2.3-.43L141.32,16Zm-4-3c.07-.83.55-1.94,1.66-1.94s1.52,1.08,1.51,1.94Z"/><path class="cls-3" d="M149.68,13c0-2.23-1.25-3-2.38-3a2.47,2.47,0,0,0-2.19,1.24h0L145,10.14h-1.33c0,.62.06,1.24.06,2v5.19h1.52V13a1.63,1.63,0,0,1,1.55-1.77c1,0,1.37.87,1.37,1.89v4.24h1.52V13Z"/><path class="cls-3" d="M156.57,16a3.38,3.38,0,0,1-1.36.28A2.24,2.24,0,0,1,153,13.76a2.28,2.28,0,0,1,2.2-2.57,2.83,2.83,0,0,1,1.3.29l.3-1.17a4,4,0,0,0-1.61-.33,3.6,3.6,0,0,0-3.74,3.85,3.34,3.34,0,0,0,3.45,3.68,4.82,4.82,0,0,0,1.86-.36L156.57,16Z"/><path class="cls-3" d="M163.5,16a4.7,4.7,0,0,1-1.83.34,2.06,2.06,0,0,1-2.19-2.25h4.59a4,4,0,0,0,0-.64c0-1.78-.81-3.48-2.84-3.48S158,11.7,158,13.85s1.26,3.66,3.44,3.66a5.57,5.57,0,0,0,2.29-.43L163.5,16Zm-4-3c.08-.83.56-1.94,1.67-1.94s1.52,1.08,1.51,1.94Z"/><polygon class="cls-3" points="168.91 17.37 170.43 17.37 170.43 7.32 168.91 7.32 168.91 17.37 168.91 17.37"/><path class="cls-3" d="M178.72,13c0-2.23-1.26-3-2.39-3a2.48,2.48,0,0,0-2.19,1.24h0L174,10.14H172.7c0,.62.05,1.24.05,2v5.19h1.53V13a1.63,1.63,0,0,1,1.54-1.77c1,0,1.38.87,1.38,1.89v4.24h1.52V13Z"/><path class="cls-3" d="M184,17.34a15.93,15.93,0,0,0,2.18.12,5.76,5.76,0,0,0,4.1-1.32,5.39,5.39,0,0,0,1.44-4v0c0-2.23-.89-4.86-5.16-4.86a15.85,15.85,0,0,0-2.56.21v9.87Zm1.52-8.77a6.18,6.18,0,0,1,1.18-.11c2.16,0,3.42,1.26,3.42,3.7,0,2.77-1.36,4.1-3.62,4.08a7.18,7.18,0,0,1-1,0V8.57Z"/><path class="cls-3" d="M198.53,16a4.7,4.7,0,0,1-1.83.34,2.06,2.06,0,0,1-2.19-2.25h4.59a4,4,0,0,0,0-.64c0-1.78-.81-3.48-2.84-3.48S193,11.7,193,13.85s1.26,3.66,3.44,3.66a5.66,5.66,0,0,0,2.3-.43L198.53,16Zm-4-3c.07-.83.55-1.94,1.66-1.94s1.52,1.08,1.51,1.94Z"/><path class="cls-3" d="M204.86,10.4a3.62,3.62,0,0,0-1.72-.42,2.26,2.26,0,0,0-2.5,2.17c0,.84.56,1.56,1.85,2.07.86.37,1.16.67,1.16,1.22s-.39,1-1.2,1a3.58,3.58,0,0,1-1.66-.49L200.45,17a4,4,0,0,0,2,.48c1.64,0,2.7-.82,2.7-2.21,0-1.05-.63-1.71-1.82-2.19-.88-.38-1.21-.63-1.21-1.13s.37-.88,1-.88a2.6,2.6,0,0,1,1.38.41l.34-1.11Z"/><path class="cls-3" d="M208.57,8.15a.85.85,0,0,0-.88-.89.89.89,0,1,0,.88.89Zm-.13,2h-1.52v7.23h1.52V10.14Z"/><path class="cls-3" d="M215.39,10.14l-.06,1h0a2.1,2.1,0,0,0-2-1.13c-1.57,0-3.06,1.37-3.06,3.82,0,2,1.17,3.53,2.88,3.53a2.26,2.26,0,0,0,2-1.06h0V17c0,1.64-.84,2.3-2,2.3a4,4,0,0,1-2-.51l-.34,1.18a4.75,4.75,0,0,0,2.29.52c3.42,0,3.54-2.66,3.54-4.1V12.23c0-1,0-1.58.06-2.09Zm-.23,4.21a1.63,1.63,0,0,1-1.58,1.81c-1.13,0-1.77-1-1.77-2.42s.74-2.55,1.78-2.55a1.62,1.62,0,0,1,1.57,1.75v1.41Z"/><path class="cls-3" d="M224.9,13c0-2.23-1.26-3-2.39-3a2.47,2.47,0,0,0-2.19,1.24h0l-.07-1.08h-1.33c0,.62.05,1.24.05,2v5.19h1.52V13A1.63,1.63,0,0,1,222,11.24c1,0,1.38.87,1.38,1.89v4.24h1.52V13Z"/><polygon class="cls-3" points="102 31.37 102 26.96 105.44 26.96 105.44 25.7 102 25.7 102 22.59 105.7 22.59 105.7 21.32 100.48 21.32 100.48 31.37 102 31.37 102 31.37"/><path class="cls-3" d="M110.52,24c-1.92,0-3.41,1.38-3.41,3.82s1.43,3.71,3.3,3.71c1.63,0,3.39-1.11,3.39-3.82,0-2.21-1.3-3.71-3.28-3.71Zm1.72,3.75c0,1.45-.69,2.64-1.79,2.64s-1.78-1.19-1.78-2.61c0-1.25.5-2.64,1.8-2.64s1.77,1.42,1.77,2.61Z"/><path class="cls-3" d="M119.18,24a1.53,1.53,0,0,0-.38,0,2.06,2.06,0,0,0-1.87,1.48h-.06l-.05-1.32H115.5c0,.67,0,1.36,0,2.2v5h1.52V27.54c0-1.26.64-2.1,1.67-2.1a1.94,1.94,0,0,1,.44,0V24Z"/><path class="cls-3" d="M130.84,26h-3.2v1.22h1.73V30a3.32,3.32,0,0,1-1.34.21c-2,0-3.34-1.34-3.34-3.87s1.48-3.85,3.54-3.85a4.66,4.66,0,0,1,2,.38l.34-1.24a5.6,5.6,0,0,0-2.33-.42,4.85,4.85,0,0,0-5.14,5.19c0,1.6.55,5,4.89,5a8.52,8.52,0,0,0,2.86-.51V26Z"/><path class="cls-3" d="M136.46,24a1.58,1.58,0,0,0-.38,0,2.08,2.08,0,0,0-1.88,1.48h0l-.05-1.32h-1.33c0,.67.06,1.36.06,2.2v5h1.52V27.54c0-1.26.64-2.1,1.66-2.1a2,2,0,0,1,.45,0V24Z"/><path class="cls-3" d="M142.92,30a4.43,4.43,0,0,1-1.82.34,2,2,0,0,1-2.19-2.24h4.59a5.6,5.6,0,0,0,0-.64c0-1.79-.82-3.48-2.85-3.48s-3.25,1.72-3.25,3.87,1.26,3.66,3.43,3.66a5.76,5.76,0,0,0,2.3-.43L142.92,30Zm-4-3c.08-.84.55-1.94,1.66-1.94s1.53,1.08,1.51,1.94Z"/><path class="cls-3" d="M150.31,26.92c0-1.54-.59-2.94-2.71-2.94a4.58,4.58,0,0,0-2.34.6l.32,1a3.29,3.29,0,0,1,1.75-.49c1.46,0,1.46,1.07,1.46,1.61-2.48,0-4,.89-4,2.69a2,2,0,0,0,2.12,2.11,2.44,2.44,0,0,0,2-1h0l.11.84h1.38a9.15,9.15,0,0,1-.11-1.72V26.92Zm-1.48,2a1.48,1.48,0,0,1-1.51,1.47,1,1,0,0,1-1.06-1.16c0-1.28,1.37-1.51,2.57-1.51v1.2Z"/><path class="cls-3" d="M152.77,24.14h-1v1.14h1V29a2.71,2.71,0,0,0,.54,1.94,1.87,1.87,0,0,0,1.43.55,3.47,3.47,0,0,0,1.18-.17l0-1.17a2,2,0,0,1-.67.09c-.65,0-.92-.43-.92-1.32V25.28H156V24.14h-1.72V22.35l-1.51.48v1.31Z"/><path class="cls-3" d="M162.59,30a4.43,4.43,0,0,1-1.82.34,2,2,0,0,1-2.19-2.24h4.59a5.6,5.6,0,0,0,0-.64c0-1.79-.82-3.48-2.85-3.48s-3.25,1.72-3.25,3.87,1.26,3.66,3.43,3.66a5.76,5.76,0,0,0,2.3-.43L162.59,30Zm-4-3c.08-.84.55-1.94,1.66-1.94s1.53,1.08,1.51,1.94Z"/><path class="cls-3" d="M168.55,24a1.58,1.58,0,0,0-.38,0,2.08,2.08,0,0,0-1.88,1.48h0l-.05-1.32h-1.32c0,.67,0,1.36,0,2.2v5h1.52V27.54c0-1.26.64-2.1,1.67-2.1a1.94,1.94,0,0,1,.44,0V24Z"/><polygon class="cls-3" points="178.46 30.09 174.51 30.09 174.51 26.76 178.03 26.76 178.03 25.5 174.51 25.5 174.51 22.59 178.24 22.59 178.24 21.32 172.99 21.32 172.99 31.37 178.46 31.37 178.46 30.09 178.46 30.09"/><path class="cls-3" d="M180.37,25.28v6.09h1.52V25.28h2.69v6.09h1.52V25.28h2.52v6.09h1.52V24.14h-4c0-.85,0-2.22,1.68-2.22a3,3,0,0,1,1.4.34l.38-1.14a3.73,3.73,0,0,0-1.77-.42,2.89,2.89,0,0,0-3.2,3v.4h-2.7c0-.62,0-2.06,1.24-2.06a1.73,1.73,0,0,1,.78.18l.39-1.11a2.83,2.83,0,0,0-1.19-.27c-1.6,0-2.73,1.11-2.73,3v.22h-1v1.14Z"/><path class="cls-3" d="M197,30a3.21,3.21,0,0,1-1.37.29,2.24,2.24,0,0,1-2.19-2.53,2.29,2.29,0,0,1,2.21-2.57,2.81,2.81,0,0,1,1.29.29l.31-1.17a3.87,3.87,0,0,0-1.62-.33,3.6,3.6,0,0,0-3.74,3.84,3.35,3.35,0,0,0,3.45,3.69,4.66,4.66,0,0,0,1.87-.37L197,30Z"/><path class="cls-3" d="M200.47,22.14a.89.89,0,1,0-.9.88.85.85,0,0,0,.9-.88Zm-.13,2h-1.53v7.23h1.53V24.14Z"/><path class="cls-3" d="M207.57,30a4.43,4.43,0,0,1-1.82.34,2,2,0,0,1-2.19-2.24h4.59a5.6,5.6,0,0,0,0-.64c0-1.79-.82-3.48-2.85-3.48s-3.25,1.72-3.25,3.87,1.26,3.66,3.43,3.66a5.76,5.76,0,0,0,2.3-.43L207.57,30Zm-4-3c.08-.84.55-1.94,1.66-1.94s1.53,1.08,1.51,1.94Z"/><path class="cls-3" d="M215.87,27c0-2.23-1.26-3-2.39-3a2.48,2.48,0,0,0-2.19,1.23h0l-.08-1.07h-1.32c0,.61.05,1.23.05,2v5.2h1.52V27A1.63,1.63,0,0,1,213,25.24c1,0,1.37.87,1.37,1.89v4.24h1.53V27Z"/><path class="cls-3" d="M222.68,30a3.2,3.2,0,0,1-1.36.29,2.24,2.24,0,0,1-2.19-2.53,2.28,2.28,0,0,1,2.2-2.57,2.83,2.83,0,0,1,1.3.29l.3-1.17a3.82,3.82,0,0,0-1.61-.33,3.6,3.6,0,0,0-3.74,3.84A3.34,3.34,0,0,0,221,31.51a4.61,4.61,0,0,0,1.86-.37L222.68,30Z"/><path class="cls-3" d="M226.15,22.14a.85.85,0,0,0-.88-.89.86.86,0,0,0-.89.89.89.89,0,0,0,1.77,0Zm-.13,2H224.5v7.23H226V24.14Z"/><path class="cls-3" d="M233.25,30a4.43,4.43,0,0,1-1.82.34,2,2,0,0,1-2.19-2.24h4.59a4,4,0,0,0,0-.64c0-1.79-.81-3.48-2.85-3.48s-3.25,1.72-3.25,3.87,1.26,3.66,3.44,3.66a5.74,5.74,0,0,0,2.29-.43L233.25,30Zm-4-3c.08-.84.55-1.94,1.67-1.94s1.52,1.08,1.51,1.94Z"/><path class="cls-3" d="M239.52,24.4A3.65,3.65,0,0,0,237.8,24a2.27,2.27,0,0,0-2.51,2.17c0,.83.57,1.56,1.85,2.07.87.37,1.17.67,1.17,1.22s-.39.94-1.21.94a3.57,3.57,0,0,1-1.65-.48L235.11,31a4.12,4.12,0,0,0,2,.48c1.64,0,2.7-.83,2.7-2.22,0-1.05-.63-1.7-1.82-2.19-.88-.38-1.21-.63-1.21-1.13s.37-.87,1.05-.87a2.69,2.69,0,0,1,1.38.4l.34-1.1Z"/></g></g></svg>