<svg xmlns="http://www.w3.org/2000/svg" viewBox="0 0 170.76 216.89"><defs><style>.cls-1{fill:#404041;}.cls-2{fill:none;stroke:#fff;stroke-miterlimit:2.61;stroke-width:0.33px;}.cls-3{fill:#1abdef;}.cls-3,.cls-4,.cls-5,.cls-6,.cls-7,.cls-9{fill-rule:evenodd;}.cls-4{fill:#fff;}.cls-5{fill:#8fc74c;}.cls-6{fill:#718ec7;}.cls-7{fill:#231f20;}.cls-8,.cls-9{fill:#616162;}</style></defs><g id="Layer_2" data-name="Layer 2"><g id="Layer_1-2" data-name="Layer 1"><path class="cls-1" d="M84.31,136.15h.54c4,0,7.94,0,11.92,0a11.65,11.65,0,0,1,4.21.71,5.09,5.09,0,0,1,3.53,4.65,4.8,4.8,0,0,1-2.18,4.51,9.47,9.47,0,0,1-3.34,1.4l-.61.17c1,.22,1.87.36,2.72.6a7,7,0,0,1,3.6,2.05,5.72,5.72,0,0,1-.11,7.2,9,9,0,0,1-5,2.91,20.41,20.41,0,0,1-5,.61H84.05a9,9,0,0,1,0-1.17c0-.11.21-.25.35-.28.46-.1.92-.13,1.38-.22a1.71,1.71,0,0,0,1.55-1.74c.05-.77.09-1.54.09-2.3,0-4.66,0-9.32,0-14a18,18,0,0,0-.18-2.19,1.44,1.44,0,0,0-1.2-1.25,6.58,6.58,0,0,0-1.33-.21c-.33,0-.44-.16-.43-.46s0-.63,0-1m8.31,16.67h0v3.61c.17,2,.69,2.92,2.94,2.8h.1a4.34,4.34,0,0,0,3.88-2.55,6,6,0,0,0,.54-3.07,4.56,4.56,0,0,0-2.91-4.28,10.83,10.83,0,0,0-4.22-.63c-.31,0-.34.19-.33.43Zm0-5.77c.95-.06,1.85-.06,2.73-.19a3.6,3.6,0,0,0,3.37-3,8.18,8.18,0,0,0,0-2.42A3.94,3.94,0,0,0,93.64,138c-.76.2-1,.45-1,1.23C92.61,141.79,92.62,144.34,92.62,147.05Z"/><path class="cls-1" d="M65.56,150.51a.85.85,0,0,1,0-.15c-.1-1.27-.09-1.27,1.17-1.27h10c.67,0,.68,0,.67.65,0,.91.09.74-.71.95-1.15.29-1.48.7-1.48,1.91,0,2,0,3.91,0,5.86a8,8,0,0,0,.16,1.29c.06.29,0,.44-.3.5-3.26.7-6.5,1.49-9.87,1.32a18.19,18.19,0,0,1-7.6-1.89,11.37,11.37,0,0,1-6.41-8.93,12.36,12.36,0,0,1,2.37-9.63,13.56,13.56,0,0,1,6.74-4.55,18.74,18.74,0,0,1,8.14-.91c1.94.24,3.87.61,5.8.93.33,0,.45.2.48.56q.22,2.79.52,5.57c0,.35,0,.49-.37.53s-.68.15-1.08.23l-.25-.87a7,7,0,0,0-6.07-5.2c-5.31-.76-8.9,2.81-9.93,6.94a14.25,14.25,0,0,0,1.61,11.49,8.34,8.34,0,0,0,6.6,4,7.39,7.39,0,0,0,2.77-.22A1.65,1.65,0,0,0,69.8,158c0-1.87,0-3.74,0-5.61a1.39,1.39,0,0,0-1.19-1.37c-.94-.21-1.89-.34-2.84-.5l-.21,0"/><path class="cls-1" d="M138.81,154.31c-.75,2-1.46,4-2.22,5.89a.74.74,0,0,1-.5.39,31.4,31.4,0,0,1-8.36,1c-3.7-.22-7.14-1.19-9.93-3.77a11.73,11.73,0,0,1-3.89-8.45c-.27-6.84,4.1-11.22,9.5-12.87a20.27,20.27,0,0,1,9-.72c1.41.2,2.81.52,4.22.77a.52.52,0,0,1,.51.53c.25,1.88.54,3.76.82,5.63.05.28,0,.4-.31.45-1.11.19-1.11.2-1.5-.86a7.16,7.16,0,0,0-6.45-4.88,8.52,8.52,0,0,0-9,6.3,14,14,0,0,0,.78,11,8.53,8.53,0,0,0,8.62,4.92,6.81,6.81,0,0,0,4.37-2A13.16,13.16,0,0,0,137,154c.18-.32.33-.41.66-.23s.66.3,1.12.51"/><path class="cls-1" d="M43.78,136.18c.15,1.4.15,1.4-1.15,1.53s-2,.74-2,2.16q0,8.7,0,17.38c0,1.43.54,2,2,2.16l.2,0c1.15.21,1.15.21,1,1.51-.15,0-.31,0-.47,0H32.49c-.41,0-.59-.12-.53-.54a2.67,2.67,0,0,0,0-.4c0-.38.12-.54.51-.55a5.56,5.56,0,0,0,1-.11,1.87,1.87,0,0,0,1.78-2c0-.28,0-.57,0-.85q0-8.24,0-16.48a4.8,4.8,0,0,0-.13-1c-.23-.94-1-1.17-1.81-1.31l-.6-.09c-.23,0-.64-.06-.67-.16a4.33,4.33,0,0,1,0-1.14c0-.06.13-.14.21-.16a1.35,1.35,0,0,1,.35,0H43.26l.52,0"/><path class="cls-1" d="M135.83,175.19c0,.25,0,.41,0,.57,0,2.49,0,5,.12,7.46,0,1.47.17,2.93.28,4.39.06.71.22.85.92.93s1.19.12,1.79.17.35.6.4.93-.29.3-.5.29c-1-.06-1.93-.19-2.89-.2-1.27,0-2.54.07-3.8.15-.63,0-.78-.07-.77-.7,0-.32.12-.45.44-.45l1.84-.06c.49,0,.68-.31.72-.74,0-.58.09-1.16.09-1.75,0-3.64,0-7.28,0-10.92a6.21,6.21,0,0,0-.13-1.29c-.25-1.27-1.24-1.72-2.36-2l-.54-.1c-.75-.14-.77-.17-.62-1.06h1.43c1.52,0,3,0,4.55,0a1.4,1.4,0,0,1,.86.39q5.34,5.27,10.64,10.54l2.7,2.68c.12.12.24.23.46.42,0-.27,0-.44,0-.61-.14-2.88-.26-5.77-.41-8.65,0-.81-.13-1.63-.18-2.44a.87.87,0,0,0-.68-.88c-.48-.12-1-.22-1.45-.33-.72-.17-.73-.19-.64-1,.35,0,.71-.09,1.07-.1l5.41-.12c.23,0,.48-.06.51.3s.06.58-.34.71a12.31,12.31,0,0,0-1.89.73,1,1,0,0,0-.43.76c.06,2.77.18,5.54.25,8.3s.12,5.74.18,8.66a11.15,11.15,0,0,1-1.48.1c-.16,0-.33-.2-.47-.33-3.58-3.58-7.13-7.18-10.73-10.74-1.29-1.28-2.67-2.47-4-3.7a3.68,3.68,0,0,0-.39-.3"/><path class="cls-1" d="M121.82,184.4c-.22,1.17-.44,2.31-.65,3.45-.09.53-.2,1.05-.26,1.58,0,.27-.12.38-.4.38q-2.17,0-4.35-.06l-9.77-.07c-1.39,0-2.79,0-4.23,0v-.79c.73-.11,1.47-.21,2.2-.34,1.09-.19,1.16-.3,1.16-1.4,0-2.85,0-5.71,0-8.56,0-2-.13-3.91-.18-5.86a.51.51,0,0,0-.45-.56c-.73-.11-1.45-.25-2.18-.3-.44,0-.61-.14-.51-.58a5,5,0,0,0,0-.58c.88.1,1.7.25,2.52.27,1.27,0,2.54,0,3.81,0,3.37-.05,6.74-.11,10.11-.14a5.47,5.47,0,0,1,1.39.18.68.68,0,0,1,.44.42,8.64,8.64,0,0,1,.08,1.44c0,.75,0,1.5,0,2.25,0,.23.07.51-.29.52s-.66.13-.86-.29c-.29-.64-.63-1.25-1-1.87-.07-.13-.17-.25-.24-.38a1.71,1.71,0,0,0-1.67-.94c-2.19,0-4.37-.06-6.56-.11-.41,0-.54.13-.54.55q0,3.12,0,6.26c0,.42.11.6.56.58,1.55-.08,3.1-.14,4.65-.2a1.29,1.29,0,0,0,1.24-1.1c.17-.61.3-1.23.45-1.88h.91c0,.32.09.66.09,1,0,2,0,4,.05,6,0,.23,0,.5-.32.49s-.63.12-.73-.37-.29-1.23-.45-1.84a1.12,1.12,0,0,0-1.08-.89c-1.65,0-3.31,0-4.95,0-.35,0-.42.17-.42.47,0,2,0,4.08,0,6.12,0,.64.22.89.86,1a4.45,4.45,0,0,0,.89.13,22.88,22.88,0,0,0,6.07-.27,3.66,3.66,0,0,0,2.16-1.53,12.77,12.77,0,0,0,.87-1.46c.43-.87.41-.88,1.48-.74"/><path class="cls-1" d="M73.15,189.9v-1c.72-.11,1.43-.21,2.12-.34,1.17-.21,1.21-.24,1.21-1.4,0-3.56,0-7.11,0-10.67,0-1.27-.09-2.53-.18-3.79a.69.69,0,0,0-.42-.5,15.28,15.28,0,0,0-2-.32c-.68-.06-.68,0-.67-.71,0-.13,0-.26,0-.43.68.06,1.34.16,2,.18,1.37.05,2.74.09,4.1.07,2.22,0,4.44-.13,6.66-.16,1.53,0,3.07.05,4.6.1.87,0,1,.17,1,1.05v3.16c0,.22.06.5-.29.52s-.65.09-.86-.32c-.42-.84-.9-1.66-1.37-2.49a1.15,1.15,0,0,0-1-.63l-7.4-.25a3.77,3.77,0,0,0-.07.47c0,2.12,0,4.24,0,6.36,0,.49.12.69.64.65,1.53-.09,3.07-.13,4.6-.21a1.25,1.25,0,0,0,1.18-1c.11-.4.21-.8.3-1.21.18-.84.21-.86,1.16-.67v7.33c-.77.23-.88.15-1.06-.66-.12-.5-.26-1-.39-1.49a1.1,1.1,0,0,0-1.09-.88c-1.62,0-3.24,0-4.86,0-.35,0-.48.15-.48.51,0,2,0,4,0,6,0,.83.21,1.11,1,1.19A23.44,23.44,0,0,0,88,188.2a3.79,3.79,0,0,0,2.51-1.67,11.27,11.27,0,0,0,.84-1.42c.41-.84.4-.85,1.46-.71-.33,1.78-.65,3.55-1,5.44-6.17-.05-12.37-.54-18.63.06"/><path class="cls-1" d="M35.56,180.84c.12,1,.09,1-.6,1.3a5.42,5.42,0,0,1-.56.22.8.8,0,0,0-.59.87c0,1.6-.08,3.2-.08,4.81a.86.86,0,0,1-.65.93,33.22,33.22,0,0,1-4.37,1A28.84,28.84,0,0,1,24,190a8.53,8.53,0,0,1-7.94-6.5,10,10,0,0,1,3.1-10.71,9.54,9.54,0,0,1,5.46-2.28,15.25,15.25,0,0,1,7.56.9l.09,0a1.43,1.43,0,0,1,1.16,1.45c0,.8.15,1.6.2,2.39a2.45,2.45,0,0,1-.1.66,1.29,1.29,0,0,1-1.4-.68,6.56,6.56,0,0,0-3.84-3.18,5.76,5.76,0,0,0-6.78,2.71,9.5,9.5,0,0,0-1.27,4,12.09,12.09,0,0,0,.69,6,5.92,5.92,0,0,0,4.71,4,7.35,7.35,0,0,0,3.26-.27,1.32,1.32,0,0,0,1-1.27c0-1.33.07-2.67.09-4a.83.83,0,0,0-.73-.92c-.55-.12-1.08-.31-1.63-.45s-.38-.41-.3-.67a.57.57,0,0,1,.41-.36c2.62,0,5.23,0,7.87,0"/><path class="cls-1" d="M54.61,189.83c-.85-.06-1.68-.06-2.5-.17a22.81,22.81,0,0,0-4.6,0c-.65.05-1.29.1-1.94.1a.59.59,0,0,1-.46-.28c-.08-.29-.06-.61.35-.69s1-.23,1.57-.3.68-.35.68-.85q0-3.75,0-7.51c0-2.28.07-4.57.06-6.86,0-1.28.06-1-1.09-1.25a3.39,3.39,0,0,0-.55,0c-.88,0-.93-.07-.81-1.1l3.2,0c1,0,2,0,2.95,0,1.63-.05,3.27-.19,4.9-.13a6,6,0,0,1,4.38,2,4.24,4.24,0,0,1-.75,6.55,17.81,17.81,0,0,1-1.9,1c.07.13.15.29.24.44,1.3,2.06,2.62,4.1,3.88,6.19a3.52,3.52,0,0,0,2.16,1.86,2.67,2.67,0,0,1,.46.2c.31.14.54.38.39.7,0,.14-.41.21-.63.21-1.66,0-3.33-.08-5-.07a.91.91,0,0,1-1-.57c-1.11-2.27-2.31-4.51-3.37-6.8a2.51,2.51,0,0,0-2.87-1.68c-.71.09-.73,0-.72.78,0,.93.07,1.87.07,2.8s0,2-.09,3a.68.68,0,0,0,.6.81c.54.12,1.07.24,1.6.39.93.24.93.25.77,1.34m-2.88-12.67h-.08c0,.57,0,1.14,0,1.7s.16.6.58.57c.68-.05,1.37,0,2-.11a3.15,3.15,0,0,0,3.1-2.68,5.66,5.66,0,0,0,0-1.74,3,3,0,0,0-2.54-2.78,18.45,18.45,0,0,0-2.48-.16c-.43,0-.58.17-.57.6C51.74,174.1,51.73,175.63,51.73,177.16Z"/><path class="cls-1" d="M78.58,210.52c.19-.4.36-.72.51-1.05q2.37-5.4,4.75-10.79c.51-1.15.52-1.15,1.79-1.2s2.43-.07,3.65-.11c.53,0,1.06-.07,1.63-.11v1.08c-.59.16-1.21.29-1.8.49-1,.32-1.1.59-1,1.59.14,2.79.26,5.57.4,8.35.09,1.8.19,3.6.29,5.4a.63.63,0,0,0,.51.64l1.72.52c.71.21.71.2.63,1.1a40.21,40.21,0,0,0-9.43-.12c-.24-.8-.17-.94.51-1.1.32-.08.65-.14,1-.21.79-.14,1-.41,1-1.21,0-1.82,0-3.64-.07-5.46-.05-2-.15-4-.24-6.05,0-.38-.07-.75-.12-1.25a3,3,0,0,0-.23.37c-1.78,4.17-3.57,8.33-5.34,12.5-.3.72-.53,1.47-.76,2.22-.15.48-.52.3-.82.33a.47.47,0,0,1-.6-.34c-1.78-5-4.27-9.63-6.39-14.44a2.2,2.2,0,0,0-.24-.35c0,.17-.06.26-.07.35q-.11,5.58-.2,11.16c0,1.42.32,1.86,1.66,2.3l.48.14c.82.22.82.22.74,1H55.77v-.85c.64-.15,1.31-.28,2-.46s.81-.44.55-1.1c-.52-1.3-1.05-2.6-1.56-3.9a.51.51,0,0,0-.56-.37c-1.64,0-3.27,0-4.91,0-.28,0-.47.06-.57.35-.43,1.23-.9,2.44-1.31,3.67-.3.88,0,1.27.88,1.46l1.49.25c0,.1,0,.2,0,.29,0,.63,0,.65-.62.62-1.14,0-2.27-.15-3.4-.17a16.25,16.25,0,0,0-1.83.2c-.41,0-.83.06-1.23.09-.27-.79-.19-.93.56-1.09a5.15,5.15,0,0,1,.68-.15,2,2,0,0,0,1.75-1.54q3-8,6.09-16.07a.71.71,0,0,1,.82-.57c1,0,1,0,1.35.9,2,4.92,4,9.83,6,14.75.24.58.52,1.15.79,1.73a1.17,1.17,0,0,0,.92.68c.5.1,1,.24,1.5.36a2.41,2.41,0,0,0,2.84-1.82c.1-.73.16-1.46.19-2.19.12-3,.22-6,.32-9,0-.81,0-1.63,0-2.45s-.18-.93-.89-1.14q-.73-.21-1.5-.36c-.52-.1-.3-.5-.34-.79s.23-.31.45-.3c1.91,0,3.83.1,5.75.19a.87.87,0,0,1,.61.39c.59,1.19,1.15,2.4,1.71,3.61q2,4.37,4.07,8.75a1.81,1.81,0,0,0,.16.21m-27.19-2.38H56c-.79-2-1.54-3.84-2.3-5.72l-.19,0Z"/><path class="cls-1" d="M37.14,205.75c0-1.74,0-3.44,0-5.14,0-.4-.12-.79-.11-1.19a.78.78,0,0,0-.64-.78l-1.67-.51-.49-.15c0-.24.06-.45.09-.65H43.8c.12.77.07.83-.67,1-.48.11-1,.26-1.44.39a.75.75,0,0,0-.6.85c0,1.43,0,2.87,0,4.3,0,3.44.06,6.88.07,10.32,0,.33.12.44.41.51.5.11,1,.23,1.49.37.83.24.82.25.68,1.15-.7,0-1.42.05-2.13,0a35.18,35.18,0,0,0-6.49,0,2.26,2.26,0,0,1-.45,0c-.22,0-.54.12-.55-.3s0-.66.48-.74c.67-.12,1.34-.24,2-.41a.69.69,0,0,0,.41-.46c0-2.18,0-4.36.06-6.55a1.4,1.4,0,0,0-.06-.25c-.4,0-.81-.09-1.22-.09-2.1,0-4.21,0-6.31,0-.73,0-1.47,0-2.2,0-.42,0-.54.17-.53.57q0,3.21,0,6.4a.44.44,0,0,0,.46.52c.61.08,1.22.18,1.82.29s.83.31.58,1.05H27l-5.7,0h-.55c-.88,0-.88,0-.72-.92l2.18-.44c.35-.06.49-.22.49-.6,0-2,.08-4.07.1-6.1,0-2.37.06-4.74.06-7.11,0-.69-.09-1.37-.15-2.05a.45.45,0,0,0-.47-.46c-.63-.07-1.25-.22-1.87-.27s-.38-.37-.4-.65.16-.43.46-.42c1.28.07,2.57.19,3.85.18,1.61,0,3.23-.11,4.84-.17.28,0,.61-.07.6.38s0,.67-.56.69-1.25.19-1.87.28a.57.57,0,0,0-.56.64c0,2,0,4.07,0,6.11,0,.48.29.5.61.51.78,0,1.57.05,2.35.05q3.31,0,6.61-.06a7.55,7.55,0,0,0,.86-.12"/><path class="cls-1" d="M170.66,197.27c.2.86.13.94-.61,1.16a13.06,13.06,0,0,0-1.43.54.85.85,0,0,0-.52.93c.08,1.95.14,3.9.2,5.86.07,2.18.13,4.37.17,6.55,0,1.36,0,2.71.06,4.06,0,.38-.13.46-.49.5a2.15,2.15,0,0,1-1.91-.77c-4.12-4.14-8.28-8.24-12.44-12.35-.68-.66-1.41-1.27-2.17-1.95a1.25,1.25,0,0,0-.08.36c0,2.54.07,5.08.15,7.62,0,1.51.18,3,.28,4.53a.77.77,0,0,0,.82.81c.56,0,1.12.16,1.69.17s.67.17.61.65c0,.18,0,.36,0,.64-.85-.05-1.66-.12-2.47-.14-1.31,0-2.63,0-4,0a10,10,0,0,0-1.09.06c-.41,0-.47-.19-.46-.53s0-.65.46-.63,1,0,1.5,0c.81,0,1-.24,1.05-1.05,0-2.47.09-4.94.11-7.41,0-1.61,0-3.21,0-4.81a11,11,0,0,0-.12-1.4,2.36,2.36,0,0,0-1.88-1.91,16.56,16.56,0,0,0-1.68-.37v-.85c.88,0,1.74-.11,2.6-.13q1.72,0,3.45,0a1,1,0,0,1,.61.24c1.35,1.29,2.7,2.59,4,3.91q4.78,4.75,9.54,9.52c.11.11.24.21.42.37a1.91,1.91,0,0,0,.06-.37l-.21-4.65c0-.29-.05-.57-.06-.85q-.17-2.9-.31-5.79a.93.93,0,0,0-.76-.93c-.45-.11-.91-.21-1.37-.3-.73-.16-.75-.2-.62-1l6.85-.22"/><path class="cls-1" d="M93.05,197.24c1.59,0,3.17.13,4.75.13,2.22,0,4.44-.11,6.66-.09a5.17,5.17,0,0,1,5.34,4.46,5.38,5.38,0,0,1-4.29,6.29,6.18,6.18,0,0,1-3.63-.32c-.81-.33-.87-.47-.69-1.41H102a3,3,0,0,0,3.46-2.79,5.41,5.41,0,0,0-.29-3,3,3,0,0,0-2.72-2,11,11,0,0,0-2,.08c-.45,0-.63.37-.62.81,0,.62,0,1.24,0,1.86q0,6.18.1,12.37c0,1.25,0,1.25,1.24,1.35.49,0,1,.15,1.48.18s.34.43.37.71-.13.48-.48.46c-.73-.05-1.46-.05-2.19-.12a28.45,28.45,0,0,0-6.39.19c-.15,0-.47-.12-.46-.18,0-.29-.24-.68.25-.84s1-.35,1.55-.56c.74-.3.83-.46.82-1.24,0-1.1,0-2.2,0-3.3Q96,205.12,95.81,200a1.28,1.28,0,0,0-1.1-1.35c-.32-.08-.65-.13-1-.19-.8-.14-.93-.36-.68-1.17"/><path class="cls-1" d="M18,211.24c-.12.73-.23,1.43-.36,2.12-.08.43-.21.84-.28,1.27a1.41,1.41,0,0,1-.92,1.08,10.2,10.2,0,0,1-3.43.83,19.61,19.61,0,0,1-5.92-.27,9,9,0,0,1-7-7.7,10.22,10.22,0,0,1,1.68-7.52,9.78,9.78,0,0,1,8.31-4.13,24.3,24.3,0,0,1,6.24.65c.16,0,.39.15.42.28.34,1.23.64,2.47.94,3.71.09.37-.07.49-.45.5A1.27,1.27,0,0,1,16,201.5a7.44,7.44,0,0,0-4.38-3A5,5,0,0,0,5.83,201a9.23,9.23,0,0,0-1.25,4.33,32.75,32.75,0,0,0,.12,4.54,5.86,5.86,0,0,0,4.47,5.3,5.68,5.68,0,0,0,5.41-1.46,10.15,10.15,0,0,0,1.69-1.84c.46-.68,1-.68,1.76-.6"/><path class="cls-1" d="M144.88,206.63a9.72,9.72,0,0,1-8.16,9.8,12.88,12.88,0,0,1-7.32-.65,8.46,8.46,0,0,1-4.47-4.2,10.6,10.6,0,0,1-.39-8.68,9,9,0,0,1,5.73-5.3,12.41,12.41,0,0,1,8.62.14,9.41,9.41,0,0,1,6,8.89m-4.67.61.13,0c-.18-1.35-.27-2.71-.55-4a5.73,5.73,0,0,0-6.19-4.87,4.47,4.47,0,0,0-3.66,2,8.68,8.68,0,0,0-1.43,4.41,14.88,14.88,0,0,0,1.12,7.66,4.79,4.79,0,0,0,4.23,3,5.36,5.36,0,0,0,5.65-3.59A11.41,11.41,0,0,0,140.21,207.24Z"/><path class="cls-1" d="M121.17,197.34c.13.89.13.89-.7,1.12l-1.45.38a.59.59,0,0,0-.51.68c0,.73,0,1.47,0,2.2q0,6.27,0,12.53c0,.43.1.63.56.67.67.07,1.34.21,2,.31v1.17a43.33,43.33,0,0,0-9.25,0c0-.25,0-.44,0-.61s.1-.41.38-.47c.45-.1.9-.23,1.35-.37.8-.25,1-.48,1-1.33,0-1.69,0-3.37,0-5.06,0-2.76.09-5.51.08-8.27,0-1.72,0-1.55-1.56-1.77l-.3-.06c-.9-.11-.92-.13-.78-1.1Z"/><path class="cls-2" d="M84.76,1.58c3.91,9.84,8.68,16.4,14,21.48l.63,59.8C93.07,89.09,89,96.39,85.62,105Z"/><path class="cls-3" d="M84.75,1.58c3.91,9.84,8.69,16.4,14,21.48l.64,59.8C93.07,89.08,89,96.39,85.62,105Z"/><polygon class="cls-4" points="89.18 22.88 95.14 28.24 95.14 38 89.41 36 89.18 22.88"/><polygon class="cls-4" points="90.06 24.84 94.29 28.64 94.29 36.78 90.25 35.37 90.06 24.84"/><polygon class="cls-4" points="89.54 44.77 91.13 45.86 91.35 46 91.57 46.13 91.79 46.26 92.01 46.37 92.22 46.48 92.44 46.58 92.66 46.66 92.87 46.74 93.08 46.81 93.3 46.87 93.51 46.93 93.72 46.97 93.93 47.01 94.14 47.04 95.14 47.13 95.14 57.84 89.75 57.75 89.54 44.77"/><path class="cls-4" d="M90.42,46.42a7.74,7.74,0,0,0,3.87,1.51v9l-3.7-.06Z"/><polygon class="cls-4" points="89.55 69.22 90.87 69.57 91.09 69.63 91.32 69.68 91.54 69.72 91.77 69.76 91.99 69.8 92.21 69.83 92.43 69.85 92.66 69.87 92.88 69.88 93.11 69.89 93.33 69.9 93.55 69.9 93.77 69.89 94 69.88 95.14 69.79 95.14 80.57 89.75 82.23 89.55 69.22"/><path class="cls-4" d="M90.42,70.35a10.86,10.86,0,0,0,3.87.38v9.19l-3.7,1.14Z"/><polygon class="cls-4" points="78.77 22.88 72.81 28.24 72.81 38 78.54 36 78.77 22.88"/><polygon class="cls-4" points="77.89 24.84 73.66 28.64 73.66 36.78 77.7 35.37 77.89 24.84"/><polygon class="cls-4" points="78.41 44.77 76.83 45.86 76.6 46 76.38 46.13 76.17 46.26 75.95 46.37 75.73 46.48 75.51 46.58 75.3 46.66 75.08 46.74 74.87 46.81 74.66 46.87 74.44 46.93 74.23 46.97 74.02 47.01 73.81 47.04 72.81 47.13 72.81 57.84 78.2 57.75 78.41 44.77"/><path class="cls-4" d="M77.53,46.42a7.74,7.74,0,0,1-3.87,1.51v9l3.7-.06Z"/><polygon class="cls-4" points="78.4 69.22 77.08 69.57 76.86 69.63 76.64 69.68 76.41 69.72 76.19 69.76 75.96 69.8 75.74 69.83 75.52 69.85 75.29 69.87 75.07 69.88 74.85 69.89 74.62 69.9 74.4 69.9 74.18 69.89 73.95 69.88 72.81 69.79 72.81 80.57 78.2 82.23 78.4 69.22"/><path class="cls-4" d="M77.53,70.35a10.86,10.86,0,0,1-3.87.38v9.19l3.7,1.14Z"/><path class="cls-2" d="M85.43,116.49a42.94,42.94,0,0,1,6.18-20.65c6.15-10.52,12-13.29,18-20.19,4.2-4.78,6.69-11.14,8-17.38,5.67,13.77,4.08,28.51-6,39.55C103.2,107.12,91.2,111.92,85.43,116.49Z"/><path class="cls-5" d="M85.43,116.48a42.82,42.82,0,0,1,6.18-20.64c6.15-10.52,12-13.29,18-20.19,4.21-4.78,6.7-11.14,8-17.39,5.67,13.78,4.09,28.51-6,39.56-8.47,9.3-20.47,14.09-26.23,18.66"/><path class="cls-2" d="M100.58,24.82c0,19,.27,38.24.27,57.22,2-3.94,10.24-7.44,13.51-18,3.1-10,.1-19.26-5-28A53.38,53.38,0,0,0,100.58,24.82Z"/><path class="cls-5" d="M100.57,24.82c0,19,.27,38.24.27,57.22,2-3.94,10.25-7.44,13.52-18,3.09-10,.09-19.26-5-28a53.38,53.38,0,0,0-8.77-11.2"/><polygon class="cls-4" points="89.18 22.88 95.14 28.24 95.14 38 89.41 36 89.18 22.88"/><polygon class="cls-6" points="90.06 24.84 94.29 28.64 94.29 36.78 90.25 35.37 90.06 24.84"/><polygon class="cls-4" points="89.54 44.77 91.13 45.86 91.35 46 91.57 46.13 91.79 46.26 92.01 46.37 92.22 46.48 92.44 46.58 92.66 46.66 92.87 46.74 93.08 46.81 93.3 46.87 93.51 46.93 93.72 46.97 93.93 47.01 94.14 47.04 95.14 47.13 95.14 57.84 89.75 57.75 89.54 44.77"/><path class="cls-6" d="M90.42,46.42a7.74,7.74,0,0,0,3.87,1.51v9l-3.7-.06Z"/><polygon class="cls-4" points="89.55 69.22 90.87 69.57 91.09 69.63 91.32 69.68 91.54 69.72 91.77 69.76 91.99 69.8 92.21 69.83 92.43 69.85 92.66 69.87 92.88 69.88 93.11 69.89 93.33 69.9 93.55 69.9 93.77 69.89 94 69.88 95.14 69.79 95.14 80.57 89.75 82.23 89.55 69.22"/><path class="cls-6" d="M90.42,70.35a10.86,10.86,0,0,0,3.87.38v9.19l-3.7,1.14Z"/><path class="cls-2" d="M82.53,116.49a42.94,42.94,0,0,0-6.18-20.65c-6.15-10.52-12-13.29-18-20.19-4.2-4.78-6.69-11.14-8-17.38-5.67,13.77-4.08,28.51,6,39.55C64.77,107.12,76.76,111.92,82.53,116.49Z"/><path class="cls-5" d="M82.52,116.48a42.72,42.72,0,0,0-6.18-20.64c-6.15-10.52-12-13.29-18-20.19-4.21-4.78-6.7-11.14-8-17.39-5.67,13.78-4.09,28.51,6,39.56,8.47,9.3,20.47,14.09,26.23,18.66"/><path class="cls-2" d="M67.38,24.82c0,19-.27,38.24-.27,57.22-2-3.94-10.24-7.44-13.51-18-3.1-10-.1-19.26,5-28A53.38,53.38,0,0,1,67.38,24.82Z"/><path class="cls-5" d="M67.38,24.82c0,19-.27,38.24-.27,57.22-2-3.94-10.25-7.44-13.52-18-3.09-10-.09-19.26,5-28a53.38,53.38,0,0,1,8.77-11.2"/><path class="cls-2" d="M83.21,1.58C79.29,11.42,74.52,18,69.15,23.06l-.63,59.8C74.89,89.09,78.94,96.39,82.34,105Z"/><path class="cls-3" d="M83.2,1.58c-3.91,9.84-8.69,16.4-14,21.48l-.64,59.8C74.89,89.08,78.93,96.39,82.34,105Z"/><polygon class="cls-4" points="78.77 22.88 72.81 28.24 72.81 38 78.54 36 78.77 22.88"/><polygon class="cls-6" points="77.89 24.84 73.66 28.64 73.66 36.78 77.7 35.37 77.89 24.84"/><polygon class="cls-4" points="78.41 44.77 76.83 45.86 76.6 46 76.38 46.13 76.17 46.26 75.95 46.37 75.73 46.48 75.51 46.58 75.3 46.66 75.08 46.74 74.87 46.81 74.66 46.87 74.44 46.93 74.23 46.97 74.02 47.01 73.81 47.04 72.81 47.13 72.81 57.84 78.2 57.75 78.41 44.77"/><path class="cls-6" d="M77.53,46.42a7.74,7.74,0,0,1-3.87,1.51v9l3.7-.06Z"/><polygon class="cls-4" points="78.4 69.22 77.08 69.57 76.86 69.63 76.64 69.68 76.41 69.72 76.19 69.76 75.96 69.8 75.74 69.83 75.52 69.85 75.29 69.87 75.07 69.88 74.85 69.89 74.62 69.9 74.4 69.9 74.18 69.89 73.95 69.88 72.81 69.79 72.81 80.57 78.2 82.23 78.4 69.22"/><path class="cls-6" d="M77.53,70.35a10.86,10.86,0,0,1-3.87.38v9.19l3.7,1.14Z"/><path class="cls-7" d="M103.61,121.9c-.23-.62-.63-.83-1.21-.61a1,1,0,0,0-.46.34,1.88,1.88,0,0,0-.33.61,2.32,2.32,0,0,0-.1.77,2.57,2.57,0,0,0,.14.82l.4,1.14-.74-.1-1-3,.66-.24.16.46c0-.06.11-.16.2-.31a2.17,2.17,0,0,1,.35-.44,1.49,1.49,0,0,1,1.16-.43,1.77,1.77,0,0,1,.63.19,1.91,1.91,0,0,1,.55.44,2,2,0,0,1,.37.64,2.31,2.31,0,0,1,.12.92,3,3,0,0,1-.25,1.07l-.91-.2c0-.08.08-.2.16-.37a2.81,2.81,0,0,0,.2-.49,1.82,1.82,0,0,0,.08-.55,2.13,2.13,0,0,0-.13-.7m.21-2-4.12,1.53-.17-.47,4.12-1.54Zm-3.94,5.67-.76-.18-.87-3.1.66-.19Zm-.66-4.09-1.6.46-.13-.48,1.59-.47Zm-.49-.85s0,0-.08,0h-.12c-.29-.32-.48-.51-.55-.58a.38.38,0,0,0-.26-.09h-.27a.33.33,0,0,1-.23-.11l-.11-.17a2.24,2.24,0,0,0-.28-.33l0-.09.15,0a3.06,3.06,0,0,1,.73.07.52.52,0,0,1,.3.16,3.27,3.27,0,0,1,.28.4,3.58,3.58,0,0,0,.41.55.14.14,0,0,0,0,.07A.41.41,0,0,1,98.73,120.61Zm-2.61,3.57a.66.66,0,0,0-.38-.45,1,1,0,0,0-.73-.11,1.23,1.23,0,0,0-.46.26,1.94,1.94,0,0,0-.53.6,1.17,1.17,0,0,0-.13.82,1,1,0,0,0,.36.64.72.72,0,0,0,.58.17,1.26,1.26,0,0,0,.66-.44,3.11,3.11,0,0,0,.5-.81A1.32,1.32,0,0,0,96.12,124.18Zm1.1-2.15-.52.1.75,4-.79-.17-.11-.59a3,3,0,0,1-.49.76,1.11,1.11,0,0,1-.62.35,1.41,1.41,0,0,1-.84-.13,2.57,2.57,0,0,1-.88-.59,1.58,1.58,0,0,1-.48-.83,1.48,1.48,0,0,1,0-.44,2.15,2.15,0,0,1,.22-.57,1.85,1.85,0,0,1,.41-.52,1.33,1.33,0,0,1,.62-.3,1,1,0,0,1,.76.12,9.21,9.21,0,0,1,1,.67L96,122.28l-3.42.68-.09-.5,3.42-.68c-.06-.29-.11-.52-.16-.71a3.05,3.05,0,0,0-.24-.59,3.74,3.74,0,0,0-.46-.69,8.16,8.16,0,0,0-.78-.82s0,0,0-.07a.06.06,0,0,1,0-.07l.76-.15a4.63,4.63,0,0,1,.93,1,5.07,5.07,0,0,1,.7,1.94l.53-.1Zm-5.38,0,.61,5.1-.11,0-.23-.09-.25-.09a.55.55,0,0,0-.15,0l-.57-4.75a3,3,0,0,0-.28-.9,2.72,2.72,0,0,0-.41-.68A5.11,5.11,0,0,0,90,120l-.29-.26.87-.11a3.36,3.36,0,0,1,.66.74,4.12,4.12,0,0,1,.42.84A4.33,4.33,0,0,1,91.84,122Zm-.7,1.1-.46.06-.07-.5.47-.06Zm1.38-.17-.43,0-.06-.5.43,0Zm-2.16,4.47-.71-.33-.27-3.2.68-.07Zm.12-4.15-1.66.15,0-.5,1.65-.15Zm-.32-.92-.09,0H90c-.23-.37-.38-.6-.44-.68a.33.33,0,0,0-.23-.14l-.27,0a.33.33,0,0,1-.2-.15.77.77,0,0,1-.08-.19,1.88,1.88,0,0,0-.21-.38v-.09h.16a2.69,2.69,0,0,1,.7.21.56.56,0,0,1,.27.21,3.56,3.56,0,0,1,.2.46,5,5,0,0,0,.29.61.2.2,0,0,1,0,.07A.75.75,0,0,1,90.16,122.33Zm-1.06,1.15-3.41.12.09,2.67a1.64,1.64,0,0,0,.12.55,1.09,1.09,0,0,0,.31.41.67.67,0,0,0,.46.14,1.15,1.15,0,0,0,.63-.19,1.32,1.32,0,0,0,.41-.44,2.2,2.2,0,0,0,.2-.49,2.33,2.33,0,0,0,0-.38l-.06-1.66.83,0,.12,3.55-.37-.17c-.2-.08-.36-.14-.48-.2V127c-.13.11-.27.21-.4.3a2.17,2.17,0,0,1-.41.19,1.75,1.75,0,0,1-.49.07,1.64,1.64,0,0,1-.8-.18,1.85,1.85,0,0,1-.64-.57A1.58,1.58,0,0,1,85,126l-.08-2.4-.49,0,0-.51,4.68-.17Zm-5,2.66a1,1,0,0,0-.1-.4,2,2,0,0,0-.3-.45,1.75,1.75,0,0,0-.47-.37,1.3,1.3,0,0,0-.61-.17.7.7,0,0,0-.4.11,1.33,1.33,0,0,0-.35.26.46.46,0,0,0-.14.23,1.64,1.64,0,0,0,.22.72,3,3,0,0,0,.6.76,1.19,1.19,0,0,0,.74.34.55.55,0,0,0,.39-.14,1.18,1.18,0,0,0,.29-.4A1.23,1.23,0,0,0,84.14,126.14Zm.7-2.51-3.1-.11,0,1.55.3-.31a3.48,3.48,0,0,1,.53-.4,1.09,1.09,0,0,1,.65-.19,1.34,1.34,0,0,1,.6.16,1.7,1.7,0,0,1,.46.38,1.6,1.6,0,0,1,.28.51,1.2,1.2,0,0,1,.09.51,1.48,1.48,0,0,1-.2.7,2.22,2.22,0,0,1-.5.6,2.33,2.33,0,0,1-.61.41,1.14,1.14,0,0,1-.54.14.76.76,0,0,1-.5-.19,7.69,7.69,0,0,1-.65-.65l0,.85-.7-.34.13-3.76-.67,0,0-.51.67,0a3.46,3.46,0,0,0-.13-1.06,4.21,4.21,0,0,0-.35-.91,5.79,5.79,0,0,0-.43-.71,3.4,3.4,0,0,0-.35-.43l.9,0a3.39,3.39,0,0,1,.31.33,3,3,0,0,1,.36.58,4.56,4.56,0,0,1,.33.93,4.91,4.91,0,0,1,.1,1.25l3.1.11ZM77,125c.08-.67-.19-1-.8-1.11a1,1,0,0,0-.57.09,1.65,1.65,0,0,0-.55.38,2.34,2.34,0,0,0-.44.64,2.45,2.45,0,0,0-.23.8L74.3,127l-.63-.44.38-3.11.69.08-.06.5.31-.19a2,2,0,0,1,.51-.23,1.33,1.33,0,0,1,.63-.06,1.51,1.51,0,0,1,.6.22,1.9,1.9,0,0,1,.48.46,2,2,0,0,1,.29.64,2.08,2.08,0,0,1,0,.75,2.24,2.24,0,0,1-.29.87,3.13,3.13,0,0,1-.7.84l-.72-.6a2.4,2.4,0,0,1,.3-.26,3.4,3.4,0,0,0,.4-.34,1.61,1.61,0,0,0,.31-.46A1.82,1.82,0,0,0,77,125Zm1.09-1.71-4.35-.55.06-.5,4.35.55ZM74,122.68l-1.08-.27-.19.79a1.11,1.11,0,0,1,.16.11l.08.07-.12.48a3.07,3.07,0,0,0-.94-.42,2.51,2.51,0,0,0-.79,0c-.3,0-.48.15-.53.35s.22.4.82.55l.26.06.24.05-.09.37-.67-.14a2.08,2.08,0,0,0-.7,0,.44.44,0,0,0-.4.33.5.5,0,0,0,.18.46,1.4,1.4,0,0,0,.58.3,2.22,2.22,0,0,0,1.28,0,2.9,2.9,0,0,0,1.08-.61l-.25,1a2.5,2.5,0,0,1-.9.15,4,4,0,0,1-.82-.12,4.78,4.78,0,0,1-.87-.35,2.93,2.93,0,0,1-.77-.58.68.68,0,0,1-.22-.63.61.61,0,0,1,.35-.44,3.36,3.36,0,0,1,.61-.19l-.23-.22a.8.8,0,0,1-.13-.19.48.48,0,0,1,0-.24.57.57,0,0,1,.32-.39,1.4,1.4,0,0,1,.6-.14,3.91,3.91,0,0,1,.68,0c.22,0,.43.08.62.13l.16-.66-2.53-.64.11-.5,4.23,1.08Zm-4.27-1-1-.37-.26.77.15.12.07.08-.15.47a2.79,2.79,0,0,0-.91-.5,2.28,2.28,0,0,0-.78-.12c-.3,0-.48.1-.56.3s.19.42.77.62l.25.08.24.07-.12.36-.65-.2a2.19,2.19,0,0,0-.7-.08.42.42,0,0,0-.42.3.46.46,0,0,0,.14.47,1.37,1.37,0,0,0,.54.35,2.37,2.37,0,0,0,1.28.1,3,3,0,0,0,1.13-.52l-.33,1a2.43,2.43,0,0,1-.91.07,3.4,3.4,0,0,1-.81-.19,3.67,3.67,0,0,1-.83-.43,2.84,2.84,0,0,1-.72-.64.68.68,0,0,1-.17-.65.57.57,0,0,1,.38-.4,2.91,2.91,0,0,1,.63-.14l-.21-.24a.56.56,0,0,1-.11-.2.4.4,0,0,1,0-.24.57.57,0,0,1,.35-.36,1.48,1.48,0,0,1,.61-.09,3.87,3.87,0,0,1,.67.1c.22,0,.42.11.61.17l.21-.63-2.47-.87.17-.48,4.11,1.45Zm-5-.25a.79.79,0,0,1-.48.4,2.2,2.2,0,0,1-.61.17l-.31-.89a1,1,0,0,0,.63,0,.58.58,0,0,0,.38-.31.35.35,0,0,0-.05-.24.53.53,0,0,0-.28-.25,1,1,0,0,0-.65,0,2.12,2.12,0,0,0-.76.39,1.55,1.55,0,0,0-.51.64L61.36,123l-.57-.69,1.13-2.87.73.3-.12.3.28,0a2.29,2.29,0,0,1,.53,0,1.69,1.69,0,0,1,.55.12,1.45,1.45,0,0,1,.76.82A.7.7,0,0,1,64.65,121.45Zm.86-1.26-3.82-1.58.19-.47,3.82,1.58Zm-5.68-1a.48.48,0,0,0-.25-.7,1.16,1.16,0,0,0-.59-.12,1.42,1.42,0,0,0-.58.15.79.79,0,0,0-.37.35.58.58,0,0,0,0,.38.55.55,0,0,0,.29.38,1.3,1.3,0,0,0,.47.09,1.49,1.49,0,0,0,.62-.12A.92.92,0,0,0,59.83,119.16Zm-.08,3.72c-.13.27-.29.43-.46.46a.91.91,0,0,1-.54-.1,1.35,1.35,0,0,1-.34-.27,4.14,4.14,0,0,1-.36-.46,4.09,4.09,0,0,0-.42-.51,1.5,1.5,0,0,0-.45-.33,2.36,2.36,0,0,0-.93-.26,2.94,2.94,0,0,0-1.1.1,2.69,2.69,0,0,0-1,.5.64.64,0,0,1,.08-.19,1.88,1.88,0,0,1,.63-.71,2.32,2.32,0,0,1,1-.41,1.77,1.77,0,0,1,1.12.2,1.5,1.5,0,0,1,.58.45A5.69,5.69,0,0,1,58,122a1.29,1.29,0,0,0,.43.54.89.89,0,0,0,.48.11,1,1,0,0,0,.48-.12.67.67,0,0,0,.3-.27,1,1,0,0,0,.09-.39.71.71,0,0,0-.1-.37.64.64,0,0,0-.28-.26,1.11,1.11,0,0,0-.4-.12c-.16,0-.36,0-.6-.07s-.45,0-.6-.06a1.05,1.05,0,0,1-.39-.12.82.82,0,0,1-.33-.37,1.82,1.82,0,0,1-.24-.62.77.77,0,0,1,0-.51.55.55,0,0,1,.36-.24.77.77,0,0,1,.52,0l0,0c0-.14,0-.26-.05-.35a.82.82,0,0,1,0-.27,1.21,1.21,0,0,1,.08-.28.75.75,0,0,1,.73-.45,2.55,2.55,0,0,1,1.07.31h0l0,0,.21-.41-1.88-1,.22-.45,3.74,2-.23.45L60.45,118l-.31.62a1.3,1.3,0,0,0,0,.13.14.14,0,0,0,0,.14.25.25,0,0,0,.21,0l.23-.1a.33.33,0,0,1,.23,0,.44.44,0,0,1,.19.19,1,1,0,0,1,.11.31.66.66,0,0,1,0,.31l-.61.25a1.24,1.24,0,0,0,.09-.38.3.3,0,0,0-.12-.28h-.14c-.06,0-.11,0-.12.06s0,0,0,.1a1.27,1.27,0,0,1,0,.2,1,1,0,0,1-.08.24.71.71,0,0,1-.65.47,2.41,2.41,0,0,1-1-.32,2,2,0,0,0-.7-.23.91.91,0,0,0-.46,0,.47.47,0,0,0-.21.16.3.3,0,0,0,0,.29.58.58,0,0,0,.16.16.79.79,0,0,0,.35.1l.59,0a5,5,0,0,1,.72.06,2.28,2.28,0,0,1,.58.17.85.85,0,0,1,.47.68,2.32,2.32,0,0,1,0,.91A3.47,3.47,0,0,1,59.75,122.88Zm-5.4-6.25a.86.86,0,0,0-.24-1.35,1.05,1.05,0,0,0-.55-.17,1.53,1.53,0,0,0-.66.09,2.17,2.17,0,0,0-.67.38,2.31,2.31,0,0,0-.55.61l-.64,1-.37-.68,1.66-2.63.59.39-.26.42.36,0a2.08,2.08,0,0,1,.55,0,1.43,1.43,0,0,1,.59.23,1.52,1.52,0,0,1,.45.46,1.91,1.91,0,0,1,.22,1.34,2.1,2.1,0,0,1-.28.7,2.46,2.46,0,0,1-.64.65,3.16,3.16,0,0,1-1,.44l-.4-.87a2.3,2.3,0,0,1,.39-.09,3.31,3.31,0,0,0,.5-.13,2.38,2.38,0,0,0,.48-.27A2,2,0,0,0,54.35,116.63Zm1.72-1-3.68-2.45.27-.42,3.67,2.44Zm-5.65-.71c.08-.1,0-.27-.14-.52a2.63,2.63,0,0,0-.39-.48,1.86,1.86,0,0,0-.75-.36,1.74,1.74,0,0,0-.72,0,.68.68,0,0,0-.41.19.35.35,0,0,0,.05.35,1.75,1.75,0,0,0,.29.32,2.81,2.81,0,0,0,.68.4,3.06,3.06,0,0,0,.66.17,2.07,2.07,0,0,0,.5,0C50.32,114.93,50.4,114.91,50.42,114.88Zm2.33-1.49-2.14-1.71-.4.52s0,0,0,0,0,0,0,0l.17.06.37.19a2.62,2.62,0,0,1,.37.24,2,2,0,0,1,.53.6.86.86,0,0,1,.08.56,1.26,1.26,0,0,1-.22.54c-.11.17-.27.41-.49.69l-1,1.3c-.08-.14-.15-.27-.21-.4a2.65,2.65,0,0,1-.11-.26c.05-.07.07-.12.06-.16l-.34-.06a2.06,2.06,0,0,1-.45-.14,2.71,2.71,0,0,1-.54-.35,2,2,0,0,1-.47-.54,1.48,1.48,0,0,1-.2-.65.9.9,0,0,1,.17-.58.93.93,0,0,1,.58-.31,1.89,1.89,0,0,1,.88,0,2.19,2.19,0,0,1,.89.44,2.1,2.1,0,0,1,.38.41,1.55,1.55,0,0,1,.19.4l.23-.3a1.1,1.1,0,0,0-.07-.44,1.22,1.22,0,0,0-.34-.37,3.76,3.76,0,0,0-.57-.37,3.26,3.26,0,0,0-.53-.2l-.48-.15.18-.24h.24l.64-.85-.65-.53.3-.4L53.05,113Zm-6.26.16-.25-.75,2.1-2.4.51.47Zm3-2.74-1.23-1.14.33-.37,1.23,1.13Zm.44-.87a.15.15,0,0,1-.08,0,.32.32,0,0,1-.08-.09c.11-.43.18-.69.19-.79a.43.43,0,0,0-.06-.28c0-.08-.1-.15-.14-.23a.3.3,0,0,1,0-.25s0-.09.08-.19a1.24,1.24,0,0,0,.13-.41l.06-.07.12.1a4.34,4.34,0,0,1,.33.67.76.76,0,0,1,0,.35,3.23,3.23,0,0,1-.19.46,3.91,3.91,0,0,0-.24.64l0,.06Zm-4.14,0a.73.73,0,0,0,.14-.58,1.08,1.08,0,0,0-.34-.68,1.36,1.36,0,0,0-.46-.23,1.89,1.89,0,0,0-.79-.1,1.09,1.09,0,0,0-.74.36,1,1,0,0,0-.3.67.74.74,0,0,0,.2.58,1.14,1.14,0,0,0,.73.3,3,3,0,0,0,.94,0A1.33,1.33,0,0,0,45.83,109.94Zm2.35-.31-.39-.38L45,112.17l-.31-.76.41-.43a3.53,3.53,0,0,1-.9,0,1.19,1.19,0,0,1-.63-.32,1.58,1.58,0,0,1-.38-.78,2.8,2.8,0,0,1,0-1.08,1.63,1.63,0,0,1,.39-.88,1.24,1.24,0,0,1,.37-.22,2,2,0,0,1,.58-.14,1.64,1.64,0,0,1,.66,0,1.29,1.29,0,0,1,.59.35,1.15,1.15,0,0,1,.35.7c0,.27,0,.67,0,1.2l1.11-1.18-2.5-2.48.34-.36,2.51,2.48c.19-.21.35-.39.47-.54a3,3,0,0,0,.34-.54,4.29,4.29,0,0,0,.29-.78,9,9,0,0,0,.2-1.13s0,0,0-.06,0,0,.06,0l.56.55a4.67,4.67,0,0,1-.27,1.35,5,5,0,0,1-1.15,1.71l.38.38Zm-5.6-3.16a.87.87,0,0,0,.15-1.37,1.11,1.11,0,0,0-.47-.33,1.58,1.58,0,0,0-.66-.1,2.09,2.09,0,0,0-.75.15,2.32,2.32,0,0,0-.7.43l-.91.78-.16-.76,2.35-2,.45.55-.37.32.35.08a2.28,2.28,0,0,1,.53.19,1.41,1.41,0,0,1,.49.39,1.38,1.38,0,0,1,.29.58,1.68,1.68,0,0,1,0,.67,2.14,2.14,0,0,1-.21.68,2,2,0,0,1-.47.58,2.19,2.19,0,0,1-.8.43,3,3,0,0,1-1.06.12l-.13-.94a2.21,2.21,0,0,1,.39,0,3.13,3.13,0,0,0,.52,0,1.9,1.9,0,0,0,.53-.12A1.88,1.88,0,0,0,42.58,106.47Zm1.93-.49-2.81-3.44.37-.32,2.82,3.44Zm-6.16-1.11-.13-.79,2.48-2,.42.56Zm3.45-2.17-1-1.33.39-.31,1,1.33Zm.58-.77a.15.15,0,0,1-.07-.06l-.06-.11c.19-.4.29-.65.33-.74a.48.48,0,0,0,0-.29,2.6,2.6,0,0,1-.1-.25.34.34,0,0,1,0-.26.85.85,0,0,1,.11-.16,1.77,1.77,0,0,0,.19-.39l.08-.06.1.13a3.37,3.37,0,0,1,.2.72.75.75,0,0,1,0,.35,4.33,4.33,0,0,1-.27.41,3.68,3.68,0,0,0-.34.59l-.05,0Z"/><path class="cls-7" d="M128.42,98.67l4.12,3-.11.06-.21.12-.24.13-.13.08L128,99.26a3.17,3.17,0,0,0-.84-.39,3.08,3.08,0,0,0-.77-.14,4.66,4.66,0,0,0-.65,0l-.38,0,.49-.73a2.93,2.93,0,0,1,1,0,3.51,3.51,0,0,1,1.56.61m.34,1.27-.27.39-.4-.29.26-.39Zm.8-1.17-.25.36-.41-.28.25-.37Zm1.71,4.58-.72.31-2.48-2,.43-.55Zm-2.88-2.92-1,1.35-.39-.32,1-1.34Zm-.88-.38s0,0,0,.08a.22.22,0,0,1-.09.08c-.42-.08-.68-.12-.78-.13a.34.34,0,0,0-.26.08l-.22.16a.28.28,0,0,1-.24.05l-.19-.06a1.71,1.71,0,0,0-.41-.11l-.08,0,.1-.13a3,3,0,0,1,.63-.38.58.58,0,0,1,.34-.06l.46.16a3.1,3.1,0,0,0,.64.2l.06,0Zm.07,1.62-.55.66.87.75a4.31,4.31,0,0,1,.49,0,1.56,1.56,0,0,1,.41.1l-.35.43a.85.85,0,0,0-.71-.26,1,1,0,0,0-.62.38,1.69,1.69,0,0,0-.36.86,2.05,2.05,0,0,0,.11.92,1.58,1.58,0,0,0,.44.68.89.89,0,0,0,.39.19.71.71,0,0,0,.47,0,1.38,1.38,0,0,0,.48-.39,1.46,1.46,0,0,0,.34-.67,1.25,1.25,0,0,0,0-.43l.56-.68a.88.88,0,0,1,.14.48,2.1,2.1,0,0,1-.09.64,1.66,1.66,0,0,1-.27.55,2.07,2.07,0,0,1-.89.62,2.56,2.56,0,0,1-1.11.2,1.45,1.45,0,0,1-.89-.32,1.43,1.43,0,0,1-.34-.59,2.24,2.24,0,0,1-.12-.94,1.56,1.56,0,0,1,.37-.91,1.94,1.94,0,0,1,.43-.4,1.36,1.36,0,0,1,.34-.16l-.52-.44-1.85,2.26-.37-.33,2.82-3.44Zm-2.49,5.64a.84.84,0,0,0-1.35,0,1.2,1.2,0,0,0-.26.53,1.71,1.71,0,0,0,0,.68,2.37,2.37,0,0,0,.24.74,2.3,2.3,0,0,0,.5.66l.86.83-.71.26-2.24-2.14.48-.53.35.34c0-.07,0-.2,0-.37a2.33,2.33,0,0,1,.11-.55,1.74,1.74,0,0,1,.32-.56,1.47,1.47,0,0,1,.53-.36,1.59,1.59,0,0,1,.64-.13,1.79,1.79,0,0,1,.68.13,1.81,1.81,0,0,1,.62.41,2.44,2.44,0,0,1,.52.75,3.12,3.12,0,0,1,.25,1.08l-.9.24a3.45,3.45,0,0,1,0-.4,2.93,2.93,0,0,0,0-.53,1.75,1.75,0,0,0-.18-.53A2,2,0,0,0,125.09,107.31Zm-.71-1.9-3,3.29-.36-.35,3-3.29Zm-3,3.14-2.58,2.3,1.71,2a1.62,1.62,0,0,0,.44.35,1,1,0,0,0,.49.12.7.7,0,0,0,.44-.19,1.2,1.2,0,0,0,.38-.56,1.38,1.38,0,0,0,0-.6,1.9,1.9,0,0,0-.15-.51,1.37,1.37,0,0,0-.19-.33l-1.07-1.25.63-.56L123.8,112l-.4.12-.49.15-.21-.25c0,.17-.09.33-.13.48a1.74,1.74,0,0,1-.2.41,1.87,1.87,0,0,1-.33.38,1.67,1.67,0,0,1-.74.37,1.53,1.53,0,0,1-.85,0,1.44,1.44,0,0,1-.7-.46l-1.54-1.81-.37.33-.32-.38,3.53-3.15ZM118,114a.77.77,0,0,0-.42-.33.83.83,0,0,0-.44,0,.84.84,0,0,0-.3.13,1.47,1.47,0,0,0-.35.38,2.61,2.61,0,0,0-.28.63,2,2,0,0,0-.08.77,1.73,1.73,0,0,0,.29.77.62.62,0,0,0,.3.22,1,1,0,0,0,.42,0,.84.84,0,0,0,.39-.15,1.23,1.23,0,0,0,.35-.41,2.71,2.71,0,0,0,.28-.65,1.92,1.92,0,0,0,.07-.72A1.23,1.23,0,0,0,118,114Zm-.26-2.06-.75.53.64.94s.07,0,.18.06a1.36,1.36,0,0,1,.29.06.94.94,0,0,1,.33.17,1.7,1.7,0,0,1,.38.41,1.59,1.59,0,0,1,.27.8,1.54,1.54,0,0,1-.16.84,1.72,1.72,0,0,1-.58.68,1.56,1.56,0,0,1-.64.26,2.53,2.53,0,0,1-.83,0,2.21,2.21,0,0,1-.8-.21,1.34,1.34,0,0,1-.57-.48,1.42,1.42,0,0,1-.2-.64,1.79,1.79,0,0,1,.12-.84,1.49,1.49,0,0,1,.58-.73,3.7,3.7,0,0,1,.77-.37s0,0,0,0l-.36-.54-2.29,1.64-.28-.41,3.62-2.6Zm-4,2.86-.74.45.59,1a3.93,3.93,0,0,1,.48.13,1.79,1.79,0,0,1,.35.23l-.46.29a.89.89,0,0,0-.59-.48.93.93,0,0,0-.71.15,1.59,1.59,0,0,0-.62.69,2,2,0,0,0-.19.9,1.71,1.71,0,0,0,.2.79,1.05,1.05,0,0,0,.31.32.77.77,0,0,0,.46.1,1.29,1.29,0,0,0,.58-.21,1.42,1.42,0,0,0,.54-.52,1.05,1.05,0,0,0,.14-.4l.75-.46a.88.88,0,0,1,0,.5,1.71,1.71,0,0,1-.29.59,1.31,1.31,0,0,1-.43.42,2.15,2.15,0,0,1-1,.3,2.73,2.73,0,0,1-1.11-.19,1.51,1.51,0,0,1-.74-.6,1.55,1.55,0,0,1-.13-.67,2.21,2.21,0,0,1,.19-.93,1.53,1.53,0,0,1,.64-.74,1.81,1.81,0,0,1,.53-.23,2.21,2.21,0,0,1,.37,0l-.35-.59L110,117.06l-.26-.43,3.76-2.32Zm-6.51,5.12a.44.44,0,0,0-.69-.23,1.19,1.19,0,0,0-.47.4,1.58,1.58,0,0,0-.24.57.78.78,0,0,0,0,.51.64.64,0,0,0,.28.25.47.47,0,0,0,.46,0,1.16,1.16,0,0,0,.37-.33,1.71,1.71,0,0,0,.29-.57A.91.91,0,0,0,107.23,119.87Zm2.81,2.35a.75.75,0,0,1,.07.65.92.92,0,0,1-.42.38.89.89,0,0,1-.38.11h-.58a4.69,4.69,0,0,0-.68,0,1.7,1.7,0,0,0-.53.16,2.48,2.48,0,0,0-.77.6,3.15,3.15,0,0,0-.6.94,2.88,2.88,0,0,0-.23,1.12.88.88,0,0,1-.1-.18,1.71,1.71,0,0,1-.15-.68,2.52,2.52,0,0,1,.09-.81,2.36,2.36,0,0,1,.38-.78,1.89,1.89,0,0,1,.7-.55,1.41,1.41,0,0,1,.69-.19q.28,0,.78.09a1.36,1.36,0,0,0,.69,0,1.09,1.09,0,0,0,.58-.79.59.59,0,0,0,0-.4,1,1,0,0,0-.24-.31.74.74,0,0,0-.34-.15.67.67,0,0,0-.39.06,1.92,1.92,0,0,0-.47.39l-.56.6a2.07,2.07,0,0,1-.47.4,1,1,0,0,1-.5,0,2,2,0,0,1-.62-.19.75.75,0,0,1-.38-.33.54.54,0,0,1,0-.44.88.88,0,0,1,.33-.4v0l-.31-.18c-.07,0-.14-.09-.21-.15a.82.82,0,0,1-.15-.25.79.79,0,0,1,.09-.86,2.58,2.58,0,0,1,.9-.67.05.05,0,0,0,0,0,.09.09,0,0,0,0-.05l-.18-.41-1.92.91-.21-.46,3.8-1.81.21.46-1.3.62.29.63a.4.4,0,0,0,.07.12.14.14,0,0,0,.12.06s.07-.08.09-.18,0-.19.07-.25a.47.47,0,0,1,.17-.18.53.53,0,0,1,.26,0,.91.91,0,0,1,.31.09.63.63,0,0,1,.23.19l-.17.64a.9.9,0,0,0-.24-.29.25.25,0,0,0-.29-.08.48.48,0,0,0-.09.1c0,.06,0,.1,0,.14l.07.06.15.14a.69.69,0,0,1,.13.21.73.73,0,0,1,0,.82,2.37,2.37,0,0,1-.85.59,1.72,1.72,0,0,0-.75.6c-.12.22-.16.38-.11.49a.29.29,0,0,0,.24.15.57.57,0,0,0,.22,0,.86.86,0,0,0,.29-.22,5.63,5.63,0,0,0,.38-.47,7,7,0,0,1,.48-.54,2.11,2.11,0,0,1,.5-.36.83.83,0,0,1,.82,0,2.24,2.24,0,0,1,.66.6A3.48,3.48,0,0,1,110,122.22Z"/><path class="cls-8" d="M91,.35h0a1.86,1.86,0,0,0-1.34.57,2,2,0,0,0-.57,1.39h0a2,2,0,0,0,.41,1.21,2.16,2.16,0,0,0,.25.27A3.15,3.15,0,0,0,90,4a1.84,1.84,0,0,0,1,.26h0a1.88,1.88,0,0,0,1.35-.57,2,2,0,0,0,.56-1.39h0A1.94,1.94,0,0,0,92.35.93,1.85,1.85,0,0,0,91,.35M91,0h0a2.2,2.2,0,0,1,1.6.68,2.31,2.31,0,0,1,.66,1.63h0A2.34,2.34,0,0,1,92.6,4a2.22,2.22,0,0,1-1.6.68,2.25,2.25,0,0,1-1.14-.32,2.88,2.88,0,0,1-.35-.26,2.87,2.87,0,0,1-.29-.31,2.37,2.37,0,0,1-.48-1.43h0A2.36,2.36,0,0,1,89.4.68,2.24,2.24,0,0,1,91,0Z"/><path class="cls-9" d="M90.21,2.16h.73a1.18,1.18,0,0,0,.37-.05.46.46,0,0,0,.2-.16.42.42,0,0,0,.07-.24.41.41,0,0,0-.14-.31A.57.57,0,0,0,91,1.28h-.82Zm-.35,1.48V1H91a1.47,1.47,0,0,1,.53.07.58.58,0,0,1,.29.25.77.77,0,0,1,.1.4.68.68,0,0,1-.18.48.91.91,0,0,1-.55.24,1,1,0,0,1,.21.14,1.44,1.44,0,0,1,.28.35l.45.72h-.43l-.34-.55c-.1-.16-.18-.28-.25-.37A.67.67,0,0,0,91,2.55a.48.48,0,0,0-.16-.08h-.58V3.64Z"/></g></g></svg>