<?xml version="1.0" encoding="utf-8"?>
<!-- Generator: Adobe Illustrator 26.5.2, SVG Export Plug-In . SVG Version: 6.00 Build 0)  -->
<svg version="1.1" id="Layer_2_00000016772625884715407800000005396307426722977712_"
	 xmlns="http://www.w3.org/2000/svg" xmlns:xlink="http://www.w3.org/1999/xlink" x="0px" y="0px" viewBox="0 0 168.2 141.9"
	 style="enable-background:new 0 0 168.2 141.9;" xml:space="preserve">
<style type="text/css">
	.st0{fill:#FFFFFF;}
	.st1{fill:#00A64F;}
</style>
<g id="Layer_1-2">
	<g>
		<polygon class="st0" points="60.2,28.4 62.5,22.5 63,0 63.4,22.6 65.8,28.4 65.8,100.7 60.2,100.7 		"/>
		<rect y="27.6" class="st0" width="3.8" height="73.1"/>
		<rect x="6.9" y="19.3" class="st0" width="2.1" height="81.3"/>
		<polygon class="st0" points="18.6,100.7 12.1,100.7 12.1,29.4 18.6,38.6 		"/>
		<rect x="21.6" y="19.3" class="st0" width="1.9" height="81.3"/>
		<rect x="26.6" y="35.9" class="st0" width="3.8" height="64.8"/>
		<rect x="43.1" y="19.3" class="st0" width="1.9" height="81.3"/>
		<rect x="48.1" y="42.8" class="st0" width="1.9" height="57.9"/>
		<rect x="53" y="19.3" class="st0" width="3.5" height="81.3"/>
		<rect x="69.5" y="19.3" class="st0" width="1.7" height="81.3"/>
		<rect x="74.3" y="26.2" class="st0" width="3.7" height="74.4"/>
		<rect x="88.3" y="19.3" class="st0" width="1.9" height="81.3"/>
		<rect x="81" y="33.1" class="st0" width="3.7" height="67.6"/>
		<rect x="93.2" y="19.3" class="st0" width="4" height="81.3"/>
		<rect x="100.3" y="41.4" class="st0" width="6.7" height="59.3"/>
		<rect x="116.5" y="26.2" class="st0" width="4" height="74.4"/>
		<rect x="123.6" y="19.3" class="st0" width="1.9" height="81.3"/>
		<polygon class="st0" points="136.8,100.7 128.6,100.7 128.6,25.4 132.7,13.8 136.8,25.4 		"/>
		<rect x="144.7" y="19.3" class="st0" width="3.6" height="81.3"/>
		<polygon class="st0" points="157.3,100.7 150.8,100.7 150.8,24.8 153.9,24.8 155.1,24.8 157.3,24.8 		"/>
		<rect x="160.3" y="19.3" class="st0" width="2.1" height="81.3"/>
		<rect x="164.6" y="42.8" class="st0" width="3.6" height="57.9"/>
		<polygon class="st0" points="38.3,43.7 38.3,33.1 36.2,33.1 36.2,53.1 33.5,53.1 33.5,100.7 40,100.7 40,43.7 		"/>
		<polygon class="st0" points="110.8,20.3 110.8,100.7 113.4,100.7 113.4,6.9 		"/>
		<rect x="139.9" y="33.1" class="st0" width="1.7" height="67.6"/>
		<path class="st1" d="M4,103.6c2.6,0,3.9,1.4,3.9,3.8v0.5H5.4v-0.6c0-1.1-0.5-1.5-1.3-1.5s-1.3,0.4-1.3,1.5c0,3.1,5.2,3.7,5.2,8.1
			c0,2.4-1.3,3.8-3.9,3.8S0,117.7,0,115.3v-0.9h2.5v1.1c0,1.1,0.5,1.5,1.4,1.5s1.4-0.4,1.4-1.5c0-3.1-5.2-3.7-5.2-8.1
			C0.1,105,1.4,103.6,4,103.6"/>
		<rect x="11.7" y="103.8" class="st1" width="2.7" height="15.2"/>
		<path class="st1" d="M22.4,110.5h3.7v4.8c0,2.4-1.4,3.8-3.9,3.8s-3.9-1.4-3.9-3.8v-7.9c0-2.4,1.4-3.8,3.9-3.8s3.9,1.4,3.9,3.8v1.5
			h-2.5v-1.6c0-1.1-0.5-1.5-1.4-1.5s-1.4,0.4-1.4,1.5v8.2c0,1.1,0.5,1.5,1.4,1.5s1.4-0.4,1.4-1.5v-2.8h-1.2V110.5z"/>
		<polygon class="st1" points="32.3,107.9 32.3,118.9 29.9,118.9 29.9,103.8 33.2,103.8 36,112.8 36,103.8 38.3,103.8 38.3,118.9 
			35.6,118.9 		"/>
		<path class="st1" d="M44.8,103.8v11.7c0,1.1,0.5,1.5,1.4,1.5s1.4-0.4,1.4-1.5v-11.7H50v11.6c0,2.4-1.3,3.8-3.9,3.8
			s-3.9-1.4-3.9-3.8v-11.6H44.8z"/>
		<polygon class="st1" points="59.5,114.5 61.3,103.8 65,103.8 65,118.9 62.5,118.9 62.5,108.1 60.7,118.9 58.2,118.9 56.2,108.2 
			56.2,118.9 53.9,118.9 53.9,103.8 57.5,103.8 		"/>
		<path class="st0" d="M77.5,103.8h-3.9v15.1h2.6v-5.7h1.2c2.6,0,3.9-1.3,3.9-3.7v-2C81.4,105.1,80.1,103.8,77.5,103.8 M78.8,109.6
			c0,1.1-0.4,1.4-1.3,1.4h-1.2v-5.1h1.2c0.8,0,1.3,0.3,1.3,1.4V109.6z"/>
		<polygon class="st0" points="85.2,118.8 92.2,118.8 92.2,116.7 87.8,116.7 87.8,103.8 85.2,103.8 		"/>
		<path class="st0" d="M102.5,103.8h-3.8L96,118.8h2.4l0.4-2.7h3.2l0.4,2.7h2.6L102.5,103.8L102.5,103.8z M99.2,114l1.3-7.6l1.3,7.6
			C101.7,114,99.2,114,99.2,114z"/>
		<polygon class="st0" points="109.2,103.8 109.2,105.9 113.9,105.9 108.9,116.7 108.9,118.8 116.6,118.8 116.6,116.7 111.6,116.7 
			116.6,105.9 116.6,103.8 		"/>
		<path class="st0" d="M126.9,103.8h-3.8l-2.7,15.1h2.4l0.4-2.7h3.2l0.4,2.7h2.6L126.9,103.8L126.9,103.8z M123.6,114l1.3-7.6
			l1.3,7.6C126.1,114,123.6,114,123.6,114z"/>
		<polygon class="st1" points="144.4,103.8 144.4,106.1 141.1,119.1 138.9,119.1 142.1,106.1 137.4,106.1 137.4,103.8 		"/>
		<path class="st1" d="M152.2,103.6c1,0,1.9,0.4,2.5,1.1c0.6,0.7,1,1.6,1,2.6v8.3c0,1-0.3,1.9-1,2.6s-1.5,1.1-2.5,1.1
			s-1.9-0.4-2.5-1.1c-0.6-0.7-1-1.6-1-2.6v-0.3h2.4v0.4c0,0.4,0.1,0.7,0.3,0.9s0.5,0.4,0.9,0.4s0.6-0.1,0.9-0.4
			c0.2-0.2,0.3-0.6,0.3-0.9v-3.1c-0.5,0.5-1.1,0.7-1.8,0.7c-1,0-1.8-0.3-2.3-1.1c-0.4-0.6-0.7-1.5-0.7-2.6V107h0
			c0-0.7,0.2-1.3,0.6-1.9s0.9-1,1.5-1.3C151.2,103.7,151.7,103.6,152.2,103.6 M153.4,107.3c0-0.4-0.1-0.7-0.3-0.9
			c-0.2-0.3-0.5-0.4-0.9-0.4s-0.6,0.1-0.9,0.4c-0.2,0.3-0.3,0.6-0.3,0.9v2.8c0,0.4,0.2,0.8,0.5,1.1c0.1,0.1,0.4,0.2,0.6,0.2
			c0.6,0,0.9-0.3,1.1-0.9c0-0.2,0.1-0.3,0.1-0.4L153.4,107.3L153.4,107.3z"/>
		<path class="st1" d="M160.4,119.1v-15.3h3.4c0.9,0,1.7,0.2,2.5,0.7c0.6,0.4,1.1,1,1.3,1.9c0.1,0.5,0.2,1,0.2,1.6
			c0,1-0.3,1.8-0.8,2.5c-0.2,0.3-0.5,0.5-0.8,0.6c0.5,0.2,0.9,0.6,1.3,1.2c0.2,0.4,0.4,0.9,0.5,1.5c0.1,0.3,0.1,0.7,0.1,1.1
			c0,1-0.2,1.8-0.6,2.5c-0.3,0.5-0.7,0.9-1.2,1.3c-0.6,0.4-1.2,0.5-1.7,0.5L160.4,119.1L160.4,119.1z M162.9,110h1
			c0.7,0,1.2-0.3,1.4-1.1c0.1-0.3,0.1-0.6,0.1-1c0-0.6-0.1-1.1-0.5-1.4c-0.3-0.3-0.7-0.4-1.1-0.4h-1L162.9,110L162.9,110z
			 M162.9,116.8h1c0.8,0,1.3-0.4,1.6-1.2c0.1-0.3,0.2-0.6,0.2-0.9c0-0.8-0.2-1.5-0.5-1.9c-0.3-0.4-0.7-0.5-1.3-0.5h-1V116.8
			L162.9,116.8z"/>
		<g>
			<path class="st0" d="M0.3,139.1c-0.1-0.1-0.1-0.1,0-0.2l0.7-0.8c0.1-0.1,0.1-0.1,0.2,0c0.7,0.5,1.7,1.1,2.9,1.1
				c1.4,0,2.3-0.7,2.3-1.8c0-0.9-0.5-1.5-2.2-1.7l-0.5-0.1c-2-0.3-3.1-1.2-3.1-2.9c0-1.9,1.3-3.1,3.4-3.1c1.2,0,2.4,0.4,3.2,1
				c0.1,0.1,0.1,0.1,0,0.2l-0.5,0.9c-0.1,0.1-0.1,0.1-0.2,0c-0.8-0.5-1.6-0.8-2.5-0.8c-1.3,0-2,0.7-2,1.7c0,0.9,0.6,1.5,2.2,1.7
				l0.5,0.1c2.1,0.3,3.1,1.2,3.1,2.9c0,1.8-1.3,3.2-3.8,3.2C2.5,140.4,1,139.8,0.3,139.1L0.3,139.1z"/>
			<path class="st0" d="M9.9,129.9c0-0.1,0.1-0.1,0.1-0.1h6.3c0.1,0,0.1,0.1,0.1,0.1v1c0,0.1-0.1,0.1-0.1,0.1h-5
				c-0.1,0-0.1,0-0.1,0.1v3.1c0,0.1,0,0.1,0.1,0.1h4.2c0.1,0,0.1,0.1,0.1,0.2v1c0,0.1-0.1,0.1-0.1,0.1h-4.2c-0.1,0-0.1,0-0.1,0.1
				v3.2c0,0.1,0,0.1,0.1,0.1h5c0.1,0,0.1,0.1,0.1,0.1v1c0,0.1-0.1,0.1-0.1,0.1H10c-0.1,0-0.1-0.1-0.1-0.1V129.9L9.9,129.9z"/>
			<path class="st0" d="M18.2,135c0-1.8,0.1-2.4,0.3-2.9c0.5-1.6,1.8-2.5,3.5-2.5c1.6,0,2.8,0.8,3.4,2.1c0,0.1,0,0.1-0.1,0.2
				l-0.9,0.4c-0.1,0.1-0.2,0-0.2-0.1c-0.4-0.8-1.1-1.4-2.2-1.4s-1.8,0.6-2.2,1.5c-0.1,0.4-0.2,0.9-0.2,2.6s0.1,2.2,0.2,2.6
				c0.3,1,1,1.5,2.2,1.5s1.8-0.6,2.2-1.4c0-0.1,0.1-0.1,0.2-0.1l0.9,0.4c0.1,0.1,0.1,0.1,0.1,0.2c-0.6,1.3-1.8,2.1-3.4,2.1
				c-1.7,0-3-0.8-3.5-2.5C18.3,137.3,18.2,136.7,18.2,135L18.2,135z"/>
			<path class="st0" d="M29.4,140.3c-0.1,0-0.1-0.1-0.1-0.1v-9c0-0.1,0-0.1-0.1-0.1h-2.9c-0.1,0-0.1-0.1-0.1-0.1v-1
				c0-0.1,0.1-0.1,0.1-0.1h7.3c0.1,0,0.2,0.1,0.2,0.1v1c0,0.1-0.1,0.1-0.2,0.1h-2.9c-0.1,0-0.1,0-0.1,0.1v9c0,0.1-0.1,0.1-0.1,0.1
				H29.4L29.4,140.3z"/>
			<path class="st0" d="M34.9,138c-0.2-0.6-0.3-1.2-0.3-3s0.1-2.4,0.3-3c0.5-1.6,1.8-2.5,3.6-2.5s3,0.8,3.6,2.5
				c0.2,0.6,0.3,1.2,0.3,3s-0.1,2.4-0.3,3c-0.5,1.6-1.8,2.5-3.6,2.5S35.4,139.6,34.9,138z M40.7,137.6c0.1-0.4,0.2-1.1,0.2-2.6
				s-0.1-2.2-0.2-2.6c-0.3-1-1.1-1.6-2.2-1.6s-1.9,0.6-2.2,1.6c-0.1,0.4-0.2,1.1-0.2,2.6s0.1,2.2,0.2,2.6c0.3,1,1.1,1.6,2.2,1.6
				S40.4,138.6,40.7,137.6z"/>
			<path class="st0" d="M50.6,140.3c-0.1,0-0.2-0.1-0.2-0.1l-2.1-4.3H46c-0.1,0-0.1,0-0.1,0.1v4.2c0,0.1-0.1,0.1-0.2,0.1h-1.1
				c-0.1,0-0.2-0.1-0.2-0.1v-10.2c0-0.1,0.1-0.1,0.2-0.1h3.8c2,0,3.3,1.2,3.3,3c0,1.4-0.8,2.5-2.1,2.9l2.2,4.4
				c0.1,0.1,0,0.2-0.1,0.2L50.6,140.3L50.6,140.3z M50.4,132.8c0-1.1-0.7-1.8-2-1.8H46c-0.1,0-0.1,0-0.1,0.1v3.3
				c0,0.1,0,0.1,0.1,0.1h2.5C49.7,134.5,50.4,133.9,50.4,132.8L50.4,132.8z"/>
			<path class="st0" d="M62.3,131L62.3,131l-3.2-0.1c-0.1,0-0.1,0-0.1,0.1v1.3c0,0.1-0.1,0.1-0.2,0.1H58c-0.1,0-0.2-0.1-0.2-0.1
				v-2.5c0-0.1,0.1-0.1,0.2-0.1h5.6c0.1,0,0.2,0.1,0.2,0.1v1c0,0.1,0,0.1,0,0.1l-3.6,9.1c0,0.1-0.1,0.1-0.2,0.1h-1
				c-0.1,0-0.1-0.1-0.1-0.2L62.3,131L62.3,131z"/>
			<path class="st0" d="M69.9,135.8L69.9,135.8c-0.2,0.1-0.7,0.2-1.1,0.2c-1.7,0-3-1.2-3-3.1c0-2.1,1.4-3.3,3.2-3.3s3.2,1.2,3.2,3.2
				c0,0.8-0.3,1.6-0.7,2.4l-2.7,5c-0.1,0.1-0.1,0.1-0.2,0.1h-1.1c-0.1,0-0.1-0.1-0.1-0.1L69.9,135.8L69.9,135.8z M70.9,132.8
				c0-1.2-0.7-2-1.9-2s-1.9,0.8-1.9,2s0.8,2,1.9,2S70.9,134,70.9,132.8z"/>
			<path class="st0" d="M74.5,129.9c0-0.1,0.1-0.1,0.2-0.1h3.7c2.1,0,3.2,1.1,3.2,2.8c0,1.2-0.6,2-1.4,2.3v0c0.7,0.2,1.6,1,1.6,2.4
				c0,2-1.2,3-3.4,3h-3.6c-0.1,0-0.2-0.1-0.2-0.1L74.5,129.9L74.5,129.9z M78.4,134.3c1.2,0,1.8-0.7,1.8-1.6s-0.7-1.6-1.8-1.6H76
				c-0.1,0-0.1,0-0.1,0.1v3.1c0,0.1,0,0.1,0.1,0.1L78.4,134.3L78.4,134.3z M76,139h2.5c1.2,0,1.9-0.7,1.9-1.7s-0.7-1.7-1.9-1.7H76
				c-0.1,0-0.1,0-0.1,0.1L76,139C75.9,139,75.9,139,76,139L76,139z"/>
			<path class="st0" d="M83.8,138.6h1.1c0.1,0,0.2,0.1,0.2,0.1v1.4c0,0.1,0,0.2-0.1,0.3l-1,1.3c-0.1,0.1-0.1,0.1-0.2,0.1
				s-0.1-0.1-0.1-0.1v-3C83.6,138.7,83.7,138.6,83.8,138.6L83.8,138.6z"/>
			<path class="st0" d="M90.4,135c0-1.7,0.1-2.4,0.3-3c0.5-1.6,1.8-2.5,3.6-2.5s3,0.9,3.5,2.1c0.1,0.1,0,0.2-0.1,0.2l-0.9,0.4
				c-0.1,0.1-0.2,0-0.2-0.1c-0.5-0.9-1.2-1.4-2.3-1.4c-1.2,0-1.9,0.6-2.3,1.6c-0.1,0.4-0.2,1-0.2,2.6s0.1,2.2,0.2,2.6
				c0.3,1,1.1,1.6,2.3,1.6c1.1,0,1.9-0.5,2.2-1.5c0.1-0.4,0.2-0.9,0.2-1.6c0-0.1,0-0.1-0.1-0.1h-2c-0.1,0-0.2-0.1-0.2-0.1v-0.9
				c0-0.1,0.1-0.1,0.2-0.1H98c0.1,0,0.2,0.1,0.2,0.1v0.8c0,0.9-0.1,1.8-0.3,2.3c-0.5,1.6-1.8,2.5-3.6,2.5s-3.1-0.8-3.6-2.5
				C90.5,137.4,90.4,136.8,90.4,135L90.4,135z"/>
			<path class="st0" d="M100.3,136.6v-6.7c0-0.1,0.1-0.1,0.2-0.1h1.1c0.1,0,0.2,0.1,0.2,0.1v6.7c0,1.7,0.9,2.6,2.3,2.6
				s2.3-0.9,2.3-2.6v-6.7c0-0.1,0.1-0.1,0.2-0.1h1.1c0.1,0,0.2,0.1,0.2,0.1v6.7c0,2.5-1.4,3.8-3.7,3.8S100.3,139.1,100.3,136.6z"/>
			<path class="st0" d="M116.3,140.3c-0.1,0-0.2-0.1-0.2-0.1l-2.1-4.3h-2.3c-0.1,0-0.1,0-0.1,0.1v4.2c0,0.1-0.1,0.1-0.2,0.1h-1.1
				c-0.1,0-0.2-0.1-0.2-0.1v-10.2c0-0.1,0.1-0.1,0.2-0.1h3.8c2,0,3.3,1.2,3.3,3c0,1.4-0.8,2.5-2.1,2.9l2.2,4.4
				c0.1,0.1,0,0.2-0.1,0.2L116.3,140.3L116.3,140.3z M116.1,132.8c0-1.1-0.7-1.8-1.9-1.8h-2.5c-0.1,0-0.1,0-0.1,0.1v3.3
				c0,0.1,0,0.1,0.1,0.1h2.5C115.4,134.5,116.1,133.9,116.1,132.8L116.1,132.8z"/>
			<path class="st0" d="M119.7,136.6v-6.7c0-0.1,0.1-0.1,0.2-0.1h1.1c0.1,0,0.2,0.1,0.2,0.1v6.7c0,1.7,0.9,2.6,2.3,2.6
				s2.3-0.9,2.3-2.6v-6.7c0-0.1,0.1-0.1,0.2-0.1h1.1c0.1,0,0.2,0.1,0.2,0.1v6.7c0,2.5-1.4,3.8-3.7,3.8S119.7,139.1,119.7,136.6z"/>
			<path class="st0" d="M129.2,135c0-1.7,0.1-2.4,0.3-3c0.5-1.6,1.8-2.5,3.6-2.5s3,0.9,3.5,2.1c0.1,0.1,0,0.2-0.1,0.2l-0.9,0.4
				c-0.1,0.1-0.2,0-0.2-0.1c-0.5-0.9-1.2-1.4-2.3-1.4c-1.2,0-1.9,0.6-2.3,1.6c-0.1,0.4-0.2,1-0.2,2.6s0.1,2.2,0.2,2.6
				c0.3,1,1.1,1.6,2.3,1.6c1.1,0,1.9-0.5,2.2-1.5c0.1-0.4,0.2-0.9,0.2-1.6c0-0.1,0-0.1-0.1-0.1h-2c-0.1,0-0.1-0.1-0.1-0.1v-0.9
				c0-0.1,0.1-0.1,0.1-0.1h3.4c0.1,0,0.1,0.1,0.1,0.1v0.8c0,0.9-0.1,1.8-0.3,2.3c-0.5,1.6-1.8,2.5-3.6,2.5s-3.1-0.8-3.6-2.5
				C129.3,137.4,129.2,136.8,129.2,135L129.2,135z"/>
			<path class="st0" d="M145.2,140.3c-0.1,0-0.1-0.1-0.2-0.1l-2.1-4.3h-2.3c-0.1,0-0.1,0-0.1,0.1v4.2c0,0.1-0.1,0.1-0.2,0.1h-1.1
				c-0.1,0-0.1-0.1-0.1-0.1v-10.2c0-0.1,0.1-0.1,0.1-0.1h3.8c2,0,3.3,1.2,3.3,3c0,1.4-0.8,2.5-2.1,2.9l2.2,4.4
				c0.1,0.1,0,0.2-0.1,0.2L145.2,140.3L145.2,140.3z M145,132.8c0-1.1-0.7-1.8-1.9-1.8h-2.5c-0.1,0-0.1,0-0.1,0.1v3.3
				c0,0.1,0,0.1,0.1,0.1h2.5C144.3,134.5,145,133.9,145,132.8L145,132.8z"/>
			<path class="st0" d="M151.4,129.9c0-0.1,0.1-0.1,0.2-0.1h1c0.1,0,0.2,0.1,0.2,0.1l3.6,10.2c0,0.1,0,0.1-0.1,0.1h-1.1
				c-0.1,0-0.2-0.1-0.2-0.1l-0.8-2.3H150l-0.8,2.3c-0.1,0.1-0.1,0.1-0.2,0.1h-1.1c-0.1,0-0.1-0.1-0.1-0.1L151.4,129.9z M153.8,136.6
				l-1.6-4.8h0l-1.7,4.8H153.8L153.8,136.6z"/>
			<path class="st0" d="M158.1,129.9c0-0.1,0.1-0.1,0.1-0.1h1c0.1,0,0.2,0.1,0.2,0.1l3.1,7.1h0.1l3.1-7.1c0.1-0.1,0.1-0.1,0.2-0.1h1
				c0.1,0,0.1,0.1,0.1,0.1v10.2c0,0.1-0.1,0.1-0.1,0.1h-1c-0.1,0-0.1-0.1-0.1-0.1v-7.3h-0.1l-2.6,5.8c-0.1,0.1-0.1,0.2-0.3,0.2h-0.6
				c-0.1,0-0.2-0.1-0.3-0.2l-2.6-5.8h-0.1v7.3c0,0.1-0.1,0.1-0.1,0.1h-1c-0.1,0-0.1-0.1-0.1-0.1L158.1,129.9L158.1,129.9z"/>
		</g>
	</g>
</g>
</svg>
