<?xml version="1.0" encoding="UTF-8"?><svg id="Layer_1" xmlns="http://www.w3.org/2000/svg" viewBox="0 0 100 100"><defs><style>.cls-1{fill:#c49a6c;stroke:#c49a6c;stroke-miterlimit:10;}</style></defs><path class="cls-1" d="M40.26,73.89c-7.87,0-15.74,.04-23.61-.02-3.1-.02-5.26,1.44-6.94,3.85-1.06,1.51-1.63,3.23-1.92,5.04-.16,1-.68,1.42-1.67,1.4-1.2-.02-2.4,0-3.59-.01-1.12-.02-1.55-.43-1.59-1.55-.04-.96-.02-1.92-.02-2.87,0-6.4,.06-12.8-.03-19.2-.05-3.5,1.23-6.29,3.78-8.62,2.66-2.43,5.47-4.66,8.55-6.53,.63-.38,.74-.65,.36-1.35-1.22-2.26-.62-4.42,.79-6.33,.66-.89,.94-1.74,.89-2.82-.06-1.33-.02-2.67-.01-4,.03-3.66,2.69-6.36,6.36-6.37,6.09-.03,12.18,0,18.28,0,6.26,0,12.53,.07,18.79-.02,4.1-.06,7.13,2.94,6.82,6.86-.06,.71,.03,1.44-.01,2.16-.1,1.76,.13,3.31,1.29,4.86,1.29,1.74,1.54,3.88,.3,5.89-.4,.66,0,.83,.41,1.09,2.78,1.76,5.37,3.76,7.87,5.9,3.09,2.64,4.63,5.79,4.52,9.95-.18,6.91-.05,13.83-.05,20.74,0,1.99-.26,2.25-2.25,2.25-.92,0-1.85,0-2.77,0-1.33,0-1.61-.25-1.86-1.53-.4-2.12-1.14-4.09-2.53-5.76-1.59-1.9-3.56-3-6.14-2.98-8.01,.04-16.02,.01-24.03,.01Zm.07-11.45c11.81,0,23.61,0,35.42,0,.34,0,.68,0,1.03,0,.4,0,.65-.18,.67-.61,.11-2.72-.08-5.31-2.21-7.41-3.21-3.17-6.82-5.81-10.69-8.09-.41-.24-.82-.26-1.28-.26-15.23,.01-30.46,.01-45.68,0-.61,0-1.12,.12-1.64,.43-3.19,1.88-6.15,4.08-8.95,6.51-2.48,2.14-4.02,4.59-3.62,8.03,.16,1.4,.03,1.42,1.44,1.42,11.84,0,23.68,0,35.52,0Zm.04,9.07h1.64c11.39,0,22.79-.01,34.18,.02,.98,0,1.34-.26,1.28-1.27-.08-1.3-.02-2.6-.02-3.9q0-1.55-1.59-1.55c-23.61,0-47.22,0-70.83,0-.17,0-.34,.02-.51,0-.83-.09-1.18,.25-1.15,1.11,.05,1.37,.01,2.74,.01,4.11q0,1.48,1.46,1.48c11.84,0,23.68,0,35.52,0Zm0-44.65c-6.19,0-12.38,0-18.58,0-2.59,0-4.16,1.59-4.17,4.16,0,1.06,.02,2.12,0,3.18-.02,.68,.12,.92,.87,.67,1.73-.58,3.52-.79,5.35-.78,3.25,.03,6.5,.01,9.75,0,2.57,0,4.65,1.02,6.22,3.03,.51,.66,.72,.52,1.17-.03,1.6-1.96,3.66-3.02,6.24-3,1.57,.02,3.15-.02,4.72,0,3.54,.07,7.13-.38,10.58,.81,.48,.17,.6-.09,.6-.52,0-1.03,0-2.05,0-3.08,0-3-1.47-4.47-4.47-4.48-6.09,0-12.18,0-18.27,0Zm-12.77,16.74c3.46,0,6.91,0,10.37,0,.55,0,1.08,.06,1.17-.77,.36-3.43-2.12-6.31-5.58-6.34-3.52-.03-7.05-.02-10.57,.01-1.62,.02-3.19,.33-4.69,.97-1.57,.66-2.52,1.85-2.87,3.5-.37,1.75,.34,2.62,2.12,2.62,3.35,0,6.71,0,10.06,0Zm25.43,0c3.46,0,6.91,.01,10.37,0,1.47,0,2.07-.64,1.97-2.1-.14-2.02-1.26-3.36-3.09-4.1-1.5-.6-3.09-.89-4.71-.9-3.39-.02-6.78-.02-10.16,0-3.44,.01-5.75,2.38-5.8,5.83-.01,.97,.26,1.32,1.27,1.31,3.39-.05,6.78-.02,10.16-.02Zm17.88,30.29c1.65,1.56,2.71,3.21,3.45,5.08,.29,.73,.5,1.49,.74,2.23,.32,.99,1.13,.48,1.73,.56,.58,.07,.62-.39,.62-.83,0-2.08,0-4.16,0-6.24,0-.56-.21-.8-.79-.8-1.84,.02-3.68,0-5.76,0Zm-61,0c-2.15,0-4.02,0-5.89,0-.5,0-.62,.34-.62,.76,0,2.12,0,4.24,0,6.36,0,.5,.23,.71,.74,.76,.95,.09,1.6-.11,1.7-1.21,.03-.36,.21-.72,.34-1.07,.75-2.08,1.86-3.94,3.73-5.61Z"/><path class="cls-1" d="M83.52,41.8c-3.87,0-7.74,0-11.6,0-1.51,0-2.09-.35-2.1-1.22-.01-.89,.56-1.25,2.07-1.26,1.75,0,3.49-.02,5.24,0,.69,0,.98-.23,.97-.96-.03-2.09-.04-4.18,0-6.26,.02-.79-.33-1.01-1.05-.99-1.03,.03-2.05,.03-3.08,0-1.35-.04-1.84-.61-1.57-1.9,.74-3.48,1.49-6.96,2.29-10.42,.45-1.96,1.76-2.93,3.78-2.94,2.02-.01,4.04-.01,6.06,0,2.08,.01,3.32,.99,3.79,3.04,.79,3.47,1.54,6.94,2.29,10.42,.24,1.11-.22,1.73-1.35,1.78-1.06,.05-2.12,.06-3.18,0-.87-.04-1.13,.32-1.11,1.15,.04,1.98,.05,3.97,0,5.96-.02,.87,.31,1.12,1.14,1.12,3.56-.03,7.12-.02,10.68-.01,1.98,0,2.33,.36,2.33,2.34,0,9.21,0,18.42,0,27.63,0,1.9-.36,2.26-2.3,2.28-.68,0-1.37,0-2.05-.03-.99-.05-1.44-.56-1.48-1.58-.11-2.97-1.45-4.67-4.28-5.38-1.2-.3-2.45-.07-3.68-.11-.58-.02-1.16,0-1.75-.02-.71-.03-1.17-.37-1.2-1.13-.03-.76,.45-1.11,1.14-1.2,.34-.05,.68-.03,1.03-.03,3.63,0,7.26-.03,10.89,.02,.97,.01,1.24-.34,1.22-1.25-.05-2.16-.06-4.31,0-6.47,.03-1.02-.36-1.27-1.32-1.26-4.28,.04-8.56,.02-12.84,.02-.38,0-.76,.02-1.13-.05-.65-.12-1.04-.52-1.01-1.21,.02-.7,.43-1.05,1.11-1.1,.31-.02,.62-.02,.92-.02,4.31,0,8.63-.03,12.94,.02,1.07,.01,1.35-.35,1.32-1.36-.07-2.09-.02-4.18-.02-6.26,0-1.33-.03-1.36-1.4-1.36-3.9,0-7.81,0-11.71,0Zm-2.19-13.16c1.92,0,3.83,0,5.75,0,.57,0,.92-.12,.75-.84-.64-2.8-1.24-5.61-1.86-8.41-.17-.78-.61-1.18-1.44-1.17-2.05,.01-4.11,0-6.16,0-.76,0-1.23,.35-1.39,1.1-.62,2.8-1.23,5.61-1.86,8.41-.15,.67,.04,.93,.75,.92,1.81-.03,3.63-.01,5.44-.01Zm1.26,6.55c0-1.09-.02-2.19,0-3.28,.02-.76-.47-.79-1.02-.79-.56,0-1.14-.06-1.13,.79,.01,2.19,.02,4.38,0,6.57,0,.81,.49,.84,1.09,.84,.59,0,1.1-.02,1.08-.84-.04-1.09,0-2.19,0-3.28Zm11.23,29.37c.39,.67,.77,1.27,1.11,1.89,.35,.63,.49,1.34,.66,2.03,.08,.31,.2,.6,.6,.54,.41-.07,.41-.4,.42-.71,.02-.48,.02-.95,0-1.43-.07-2.71,.57-2.46-2.63-2.4-.03,0-.06,.03-.17,.08Z"/><path class="cls-1" d="M84.1,44.82c.72,.07,1.17,.47,1.16,1.18,0,.72-.48,1.15-1.19,1.12-.66-.02-1.1-.44-1.1-1.11,0-.72,.43-1.11,1.14-1.19Z"/><path class="cls-1" d="M82.96,57.84c.09-.71,.47-1.13,1.21-1.11,.68,.03,1.07,.44,1.08,1.11,0,.73-.43,1.17-1.14,1.17-.71,0-1.09-.46-1.15-1.17Z"/></svg>