<?xml version="1.0" encoding="UTF-8"?><svg id="Layer_1" xmlns="http://www.w3.org/2000/svg" viewBox="0 0 100 100"><defs><style>.cls-1{fill:#c49a6c;stroke:#c49a6c;stroke-miterlimit:10;}</style></defs><path class="cls-1" d="M44.61,99.36c-2.07-.24-4.14-.41-6.2-.73-5.58-.86-11.03-2.14-15.93-5.11-1.1-.67-2.11-1.46-3-2.4-3.12-3.29-3.11-7.3,.04-10.55,2.34-2.41,5.3-3.8,8.39-4.94,2.96-1.09,6.02-1.82,9.13-2.3,.9-.14,.83-.35,.36-.96-3.95-5.06-8.02-10.03-11.72-15.28-3.21-4.56-6.03-9.33-7.43-14.8C13.14,22.37,26.18,3.98,44.86,1.04c18.02-2.84,34.77,9.37,37.59,27.37,1.37,8.77-.69,16.8-5.27,24.29-3.53,5.77-7.79,11-11.92,16.32-.87,1.12-1.71,2.25-2.61,3.33-.55,.67-.38,.84,.42,.98,4.51,.77,8.91,1.89,13,4.03,1.6,.84,3.09,1.84,4.36,3.13,3.24,3.31,3.27,7.35,.04,10.69-2.34,2.41-5.3,3.81-8.4,4.92-5.11,1.83-10.41,2.73-15.81,3.12-.28,.02-.57,.09-.85,.13h-10.79ZM78.87,33.52c-.15-1.56-.2-3.14-.46-4.69C75.75,12.62,59.98,1.85,44.02,5.32c-17.3,3.76-27.14,21.69-20.96,38.69,1.79,4.91,4.71,9.18,7.82,13.32,6.11,8.14,12.61,15.97,18.53,24.25,.54,.76,.84,.49,1.26-.09,3.7-5.13,7.6-10.11,11.49-15.09,3.95-5.06,8-10.04,11.36-15.53,3.26-5.33,5.33-11.02,5.36-17.35Zm-28.6,61.93c3.24-.14,6.73-.25,10.2-.76,4.49-.67,8.9-1.63,13.03-3.58,1.72-.81,3.39-1.72,4.55-3.3,1-1.37,.98-2.53-.05-3.87-.94-1.22-2.21-2.05-3.54-2.76-4.4-2.35-9.18-3.36-14.05-4.13-.98-.16-1.51,.13-2.05,.89-2.05,2.87-4.18,5.69-6.26,8.54-1.4,1.92-2.78,1.91-4.18-.02-2.17-2.98-4.37-5.95-6.56-8.92-.27-.37-.51-.66-1.09-.58-2.61,.37-5.2,.81-7.73,1.52-3.32,.93-6.57,2.04-9.31,4.24-2.69,2.17-2.64,4.33,.1,6.46,1.9,1.48,4.07,2.42,6.33,3.2,6.6,2.26,13.45,2.91,20.62,3.07Z"/><path class="cls-1" d="M50,47.03c-7.57,0-13.56-6-13.56-13.57,0-7.56,6.01-13.54,13.6-13.53,7.55,0,13.52,6.02,13.51,13.62,0,7.5-6.03,13.48-13.55,13.49Zm9.54-13.6c-.22-5.47-4.25-9.49-9.57-9.47-5.57,.02-9.56,4.34-9.49,9.6,.08,5.59,4.38,9.48,9.57,9.42,5.56-.07,9.34-4.33,9.48-9.55Z"/><path class="cls-1" d="M75.11,32.5c0,.38,.01,.77,0,1.15-.05,1.17-.83,1.96-1.92,1.99-1.14,.03-1.98-.76-2.05-1.96-.12-2.21-.31-4.42-1.02-6.54-2.12-6.34-6.27-10.79-12.46-13.31-.59-.24-1.21-.44-1.57-1.04-.48-.81-.47-1.6,.1-2.33,.61-.78,1.45-.92,2.34-.63,1.44,.47,2.81,1.11,4.1,1.89,7.81,4.73,11.85,11.73,12.48,20.77Z"/></svg>