<?xml version="1.0" encoding="UTF-8"?><svg id="Layer_1" xmlns="http://www.w3.org/2000/svg" viewBox="0 0 100 100"><defs><style>.cls-1{fill:#c49a6c;}</style></defs><path class="cls-1" d="M27.02,24.96c-1.77-2.85-2.51-5.66-2.2-8.67,.5-4.85,2.76-8.66,7.21-10.83,6.33-3.09,13.86,.95,15.35,8.13,.9,4.32,.12,8.29-2.72,11.73-.66,.8-.45,1.12,.28,1.62,2.09,1.43,3.56,3.36,4.41,5.76,1.31,3.7,2.68,7.38,3.93,11.1,.39,1.16,.94,1.69,2.22,1.62,1.89-.11,3.78-.04,5.68-.02,4,.04,6.9,2.91,6.96,6.87q.03,2.21,2.25,2.21c4.16,0,8.33-.05,12.49,.03,1.23,.02,1.75-.42,2.11-1.55,.89-2.84,.93-2.82-1.97-2.82-3.36,0-6.72,.01-10.08,0-1.77,0-2.71-.87-2.7-2.38,0-1.5,.96-2.34,2.74-2.35,4.35-.01,8.71-.04,13.06,.02,1.08,.01,1.58-.34,1.92-1.38,1.88-5.8,3.82-11.59,5.79-17.36,.42-1.23,.15-1.55-1.13-1.54-9.42,.04-18.83,.04-28.25,0-1.04,0-1.52,.37-1.83,1.33-1.23,3.83-2.52,7.63-3.8,11.45-.18,.53-.37,1.09-.67,1.56-.66,1.01-1.66,1.24-2.75,.87-1.03-.35-1.66-1.12-1.56-2.27,.05-.6,.21-1.21,.4-1.79,1.47-4.45,2.95-8.89,4.44-13.33,.73-2.19,1.22-2.54,3.47-2.54,11.55,0,23.09,0,34.64,0,2.85,0,3.77,1.27,2.87,3.99-3.14,9.47-6.31,18.93-9.46,28.4-.55,1.66-.54,1.67,1.16,1.68,1.18,0,2.37,0,3.55,0,2.04,.02,2.83,.8,2.84,2.85,.01,9.56,0,19.12,0,28.67,0,1.51,.01,3.03,0,4.54-.02,1.77-.86,2.72-2.36,2.73-1.51,0-2.37-.95-2.37-2.72-.01-9.84-.03-19.68,.02-29.53,0-1.43-.36-1.89-1.82-1.84-3.36,.11-6.72,.09-10.08,0-1.28-.03-1.59,.43-1.58,1.64,.04,9.84,.03,19.68,.02,29.53,0,1.93-.78,2.89-2.32,2.91-1.31,.02-2.27-.8-2.4-2.1-.05-.47-.02-.95-.02-1.42,0-9.61-.03-19.21,.03-28.82,0-1.39-.43-1.75-1.77-1.74-7.29,.06-14.57,.03-21.86,.03-.43,0-.85,.01-1.28,0-1.45-.08-2.33-.94-2.36-2.3-.03-1.42,.87-2.4,2.37-2.42,3.83-.04,7.67,0,11.5-.04,.69,0,1.71,.51,1.99-.71,.31-1.32-.43-2.97-1.45-3.39-.54-.22-1.11-.22-1.68-.22-2.56,0-5.11-.04-7.67,.01-1.42,.03-2.28-.58-2.86-1.86-1.53-3.38-2.49-6.94-3.63-10.45-.52-1.57-1.06-3.13-1.88-4.59-1.33-2.35-3.35-3.54-6.04-3.55-3.93-.02-7.85-.04-11.78,0-2.51,.03-4.59,.96-6.01,3.16-.61,.94-.36,1.18,.69,1.21,5.11,.16,6.12,1.15,6.77,6.15,1.11,8.62,2.28,17.24,3.44,25.85,.27,2.03,.3,2.02,2.34,2.02,3.79,0,7.57,0,11.36,0,2.98,0,4.67,1.52,5.01,4.47,.4,3.43,.46,6.88,.55,10.33,.05,1.84,.22,3.69,.88,5.43,.52,1.37,1.45,2.3,3,2.48,1.19,.14,1.81-.26,1.71-1.56-.17-2.17-.26-4.34-.44-6.51-.34-4.14-.74-8.28-1.05-12.43-.16-2.08-.47-2.58-2.54-3.18-3.68-1.07-7.36-2.11-11.05-3.16-2.16-.61-2.62-1.19-2.62-3.39,0-4.87,0-9.75,0-14.62,0-1.89,.83-2.86,2.38-2.85,1.55,0,2.35,.97,2.35,2.87,.01,4.02,.03,8.04-.02,12.07-.01,1.08,.3,1.59,1.4,1.88,3.2,.84,6.37,1.8,9.54,2.74,3.21,.95,4.99,3.1,5.27,6.45,.57,6.78,1.06,13.57,1.72,20.34,.38,3.87-2.78,7.06-7.48,5.85-4.07-1.05-6.57-4.2-7.18-9.02-.14-1.12-.33-2.24-.47-3.37-.1-.74-.48-1.03-1.24-1.02-5.44,.02-10.88,.02-16.32,0-.77,0-1.13,.26-1.12,1.07,.04,4.02-.39,3.21,3.02,3.27,1.99,.04,3.97-.02,5.96,.02,2.74,.04,4.59,1.92,4.64,4.68,.02,.76,.03,1.52,0,2.27-.07,1.43-.98,2.3-2.34,2.31-1.36,0-2.28-.87-2.37-2.28-.02-.33-.04-.66,0-.99,.08-.9-.27-1.27-1.21-1.26-6.72,.03-13.44,.02-20.16,0-.87,0-1.23,.34-1.15,1.18,0,.05,0,.09,0,.14-.08,2.3-.81,3.26-2.45,3.21-1.62-.04-2.29-1.02-2.29-3.37,0-.57-.02-1.14,.02-1.7,.16-2.33,2.01-4.13,4.4-4.18,2.65-.06,5.3-.04,7.95,0,.89,.01,1.29-.26,1.27-1.21-.06-3.78,.39-3.1-3.02-3.13-3.5-.04-7,0-10.5-.02-2.81-.02-4.63-1.67-4.93-4.44-1.24-11.75-2.48-23.49-3.71-35.24-.11-1.08-.26-2.16-.28-3.25-.07-2.85,1.85-4.86,4.71-4.92,2.7-.05,5.39-.05,8.09,0,1.04,.02,1.61-.32,2.05-1.3,1.17-2.63,2.79-4.93,5.36-6.43,1.99-1.16,4.15-1.5,6.73-1.39Zm-.04,52.23c5.16,0,10.31,.02,15.47,0,3.15-.01,2.7,.44,2.81-2.79,.05-1.31-.46-1.58-1.65-1.57-4.45,.06-8.89,.03-13.34,.02-2.35,0-3.04-.56-3.37-2.89-.54-3.84-1.01-7.68-1.52-11.52-.78-5.9-1.56-11.8-2.35-17.7-.13-.95-.21-1.8-1.62-1.77-5.06,.08-10.12,.05-15.19,.01-1.05,0-1.28,.38-1.17,1.34,.27,2.3,.43,4.61,.68,6.91,1.01,9.44,2.06,18.88,3,28.32,.13,1.29,.52,1.68,1.79,1.66,5.49-.06,10.98-.03,16.46-.02Zm15.77-60.62c0-.33,.01-.66,0-.99-.16-2.99-1.94-5.36-4.53-6.03-2.94-.75-5.45,.31-7.14,3-1.44,2.3-1.7,4.82-1.15,7.38,.53,2.51,2.12,4.16,4.69,4.78,2.55,.61,4.57-.29,6.16-2.22,1.4-1.7,2.04-3.71,1.98-5.92Z"/></svg>