<?xml version="1.0" encoding="utf-8"?>
<!-- Generator: Adobe Illustrator 26.5.2, SVG Export Plug-In . SVG Version: 6.00 Build 0)  -->
<svg version="1.1" id="Layer_1" xmlns="http://www.w3.org/2000/svg" xmlns:xlink="http://www.w3.org/1999/xlink" x="0px" y="0px"
	 viewBox="0 0 1026.7 240.4" style="enable-background:new 0 0 1026.7 240.4;" xml:space="preserve">
<style type="text/css">
	.st0{fill:none;stroke:#FFFFFF;stroke-width:0.82;stroke-miterlimit:10;}
	.st1{fill-rule:evenodd;clip-rule:evenodd;fill:#FFFFFF;}
	.st2{fill:#FFFFFF;}
	.st3{fill-rule:evenodd;clip-rule:evenodd;fill:url(#SVGID_1_);}
	.st4{fill:url(#SVGID_00000083789052461136313070000014527570812650096265_);}
	.st5{fill-rule:evenodd;clip-rule:evenodd;fill:url(#SVGID_00000060712894332224948730000011263680884473483907_);}
	.st6{fill-rule:evenodd;clip-rule:evenodd;fill:url(#SVGID_00000117663884930745690200000004185634802293749898_);}
	.st7{fill:url(#SVGID_00000106133095205251403100000004394306527424107689_);}
	.st8{opacity:0.41;fill:url(#SVGID_00000162323893405714499530000009889310302972258194_);enable-background:new    ;}
	.st9{fill:#F8ED3A;}
	.st10{fill:url(#SVGID_00000133522376451102931070000005057515843349158027_);}
	.st11{fill:#69B545;}
	.st12{fill:url(#SVGID_00000014613412806897703620000003726904245629078463_);}
	.st13{fill:url(#SVGID_00000132773590111153177750000015196255799695892874_);}
	.st14{fill:url(#SVGID_00000044179387786044536110000013531340025569019529_);}
	.st15{fill:url(#SVGID_00000016061554669209446940000005339505341724348575_);}
	.st16{fill:url(#SVGID_00000115515739746238729840000015083561732979701923_);}
	.st17{fill:url(#SVGID_00000011019718811743354900000003601082683699968698_);}
	.st18{fill:url(#SVGID_00000011718691281214988360000001654936923139538340_);}
	.st19{fill:url(#SVGID_00000050643472108666248840000009779705292981303742_);}
	.st20{fill:url(#SVGID_00000139997620147580143540000008174790024568776894_);}
	.st21{fill:url(#SVGID_00000152227550334186340980000006959441764428192156_);}
	.st22{fill:url(#SVGID_00000029008958489564692530000015724808613062827939_);}
	.st23{fill:url(#SVGID_00000089564576906298650840000016345946249665455549_);}
	.st24{fill:url(#SVGID_00000033359946895262995010000004301735041748799392_);}
	.st25{fill:url(#SVGID_00000054225060465926967980000001856467899451325824_);}
	.st26{fill:url(#SVGID_00000106861147221884825760000016548721737197517207_);}
	.st27{fill:url(#SVGID_00000142874017250206764880000007114290675085010878_);}
</style>
<g>
	<g id="Layer_2_00000181065223232553554510000003772773634093768868_">
		<g id="Layer_1-2">
			<g>
				<line class="st0" x1="215.4" y1="182.9" x2="1023.7" y2="182.9"/>
				<path class="st1" d="M256.2,72.5c-1.1,2.1-2.6,3.9-4.5,5.4s-4.2,2.6-6.7,3.3c-2.5,0.8-5.3,1.1-8.2,1.1c-4.5,0-8.4-0.5-11.7-1.6
					s-6.3-2.9-8.9-5.6l8.5-8.5c1.3,1.3,3.1,2.3,5.2,2.9c2.2,0.6,4.5,0.9,6.9,0.9c5.2,0,7.8-1.6,7.8-4.9c0-1.4-0.4-2.4-1.1-3.2
					c-0.8-0.8-2-1.2-3.6-1.5l-3.2-0.5l-3.4-0.5c-4.8-0.7-8.5-2.3-10.9-4.8c-2.5-2.6-3.7-6.2-3.7-10.9c0-5,1.8-9.2,5.4-12.4
					c3.6-3.2,8.4-4.8,14.4-4.8c4,0,7.4,0.5,10.4,1.5s5.6,2.7,7.9,5l-8.4,8.4c-1.4-1.4-2.9-2.2-4.5-2.6s-3.6-0.6-5.8-0.6
					s-3.8,0.5-4.9,1.5c-1.1,1-1.7,2.2-1.7,3.5c0,1,0.4,1.8,1.1,2.5c0.9,0.9,2.1,1.4,3.7,1.6l3,0.4l3.6,0.5c4.8,0.7,8.3,2.2,10.7,4.5
					c2.7,2.6,4,6.6,4,11.9C257.7,68,257.2,70.4,256.2,72.5L256.2,72.5z"/>
				<path class="st1" d="M323.7,68.9c-0.8,2.8-2.2,5.2-4.3,7.3c-2.2,2.3-4.6,3.9-7.1,4.8s-5.5,1.3-8.7,1.3s-5.9-0.5-8.4-1.5
					s-4.7-2.5-6.8-4.6c-2.4-2.4-3.9-5.2-4.5-8.3c-0.6-3.2-1-7.5-1-13.2s0.3-10,1-13.2c0.6-3.2,2.1-5.9,4.5-8.3c2-2,4.3-3.6,6.7-4.6
					s5.2-1.5,8.4-1.5s6.3,0.5,8.9,1.5c2.5,1,4.7,2.3,6.4,4c1.7,1.7,3,3.6,4,5.8c1,2.1,1.6,4.4,2,6.7h-13.4c-0.6-2.1-1.4-3.6-2.6-4.6
					s-2.9-1.5-5.1-1.5c-1.2,0-2.2,0.2-3.1,0.7c-0.9,0.4-1.6,1-2.2,1.7c-0.4,0.5-0.6,0.9-0.9,1.5c-0.2,0.5-0.4,1.2-0.6,2.1
					c-0.1,0.9-0.3,2.2-0.4,3.7s-0.1,3.6-0.1,6s0,4.4,0.1,6c0.1,1.5,0.2,2.8,0.4,3.7c0.1,0.9,0.3,1.7,0.6,2.2s0.5,1,0.9,1.5
					c1.2,1.5,2.9,2.3,5.3,2.3c2.6,0,4.6-0.7,6-2.1c0.7-0.7,1.2-1.6,1.6-2.6c0.3-1,0.5-2.1,0.5-3.2v-0.8h-8V50.6H325v7.5
					C325,62.6,324.5,66.2,323.7,68.9L323.7,68.9z"/>
				<polygon class="st1" points="361.9,81.9 344.5,54.6 344.5,81.9 331.2,81.9 331.2,27.6 342.8,27.6 360.2,54.9 360.2,27.6 
					373.6,27.6 373.6,81.9 				"/>
				<path class="st1" d="M413.3,81.9l-2.5-8.1h-16.7l-2.7,8.1h-14l19.8-54.3h10.3l19.8,54.3H413.3z M402.7,48.2L402.7,48.2
					l-4.9,14.5h9.5L402.7,48.2z"/>
				<polygon class="st1" points="449.4,39.5 449.4,81.9 436,81.9 436,39.5 422.7,39.5 422.7,27.6 462.7,27.6 462.7,39.5 				"/>
				<path class="st1" d="M506.8,70.8c-1.1,2.4-2.5,4.5-4.5,6.2c-1.9,1.7-4.1,3.1-6.6,4s-5.2,1.4-8,1.4s-5.4-0.5-7.9-1.4
					s-4.7-2.2-6.6-4s-3.4-3.8-4.4-6.2c-1-2.4-1.6-5.1-1.6-8V27.6h13.4v34.9c0,2.5,0.6,4.4,1.9,5.8s3,2.1,5.3,2.1s4-0.7,5.3-2.1
					s2-3.3,2-5.8V27.6h13.4v35.2C508.5,65.7,507.9,68.4,506.8,70.8L506.8,70.8z"/>
				<path class="st1" d="M543.2,81.9l-9.6-20.2h-4.5v20.2h-13.3V27.6h21.5c2.9,0,5.5,0.5,7.9,1.4c2.3,0.9,4.3,2.2,5.9,3.9
					c1.6,1.6,2.8,3.5,3.6,5.6s1.2,4.3,1.2,6.5c0,3.4-0.8,6.3-2.5,8.7s-3.8,4.2-6.3,5.5l11.8,22.6L543.2,81.9L543.2,81.9z
					 M540.9,41.2L540.9,41.2c-1-1.1-2.5-1.6-4.2-1.6h-7.5v11h7.5c1.8,0,3.2-0.5,4.2-1.6s1.6-2.4,1.6-3.8S542,42.3,540.9,41.2z"/>
				<polygon class="st1" points="563.3,81.9 563.3,27.6 600.2,27.6 600.2,39.5 576.6,39.5 576.6,48.5 596.7,48.5 596.7,60.4 
					576.6,60.4 576.6,70 600.2,70 600.2,81.9 				"/>
				<rect x="263.2" y="27.6" class="st2" width="13.4" height="54.3"/>
				<path class="st1" d="M270.4,153.2c-1.1,3.8-3,7-5.8,9.9c-3,3.1-6.2,5.2-9.7,6.4c-3.5,1.2-7.4,1.8-11.7,1.8s-8-0.7-11.3-2.1
					s-6.4-3.4-9.1-6.2c-3.2-3.2-5.3-7-6.1-11.2c-0.9-4.3-1.3-10.2-1.3-17.9s0.4-13.6,1.3-17.9c0.9-4.3,2.9-8,6.1-11.3
					c2.8-2.8,5.8-4.8,9-6.2s7.1-2.1,11.4-2.1s8.5,0.7,12,2c3.4,1.3,6.3,3.2,8.6,5.5s4.1,4.9,5.4,7.8s2.2,5.9,2.7,9.1h-18.2
					c-0.8-2.8-1.9-4.9-3.6-6.2c-1.6-1.3-3.9-2-7-2c-1.6,0-3,0.3-4.2,0.9s-2.2,1.4-2.9,2.3c-0.5,0.6-0.9,1.3-1.2,2s-0.6,1.7-0.8,2.9
					c-0.2,1.2-0.4,2.9-0.5,5.1s-0.2,4.8-0.2,8.2s0.1,6,0.2,8.1s0.3,3.8,0.5,5.1s0.5,2.3,0.8,3s0.7,1.4,1.2,2c1.6,2.1,4,3.1,7.1,3.1
					c3.6,0,6.3-1,8.1-2.9c1-1,1.7-2.1,2.1-3.5c0.4-1.4,0.7-2.8,0.7-4.3v-1h-10.8v-15.1H272v10.2
					C272.1,144.6,271.5,149.4,270.4,153.2L270.4,153.2z"/>
				<polygon class="st1" points="280.8,170.7 280.8,97.2 298.9,97.2 298.9,154.6 329.8,154.6 329.8,170.7 				"/>
				<path class="st1" d="M389.5,151.8c-0.9,4.3-2.9,8-6.1,11.2c-2.8,2.8-5.8,4.8-9.1,6.2c-3.3,1.4-7.1,2.1-11.5,2.1
					s-8.2-0.7-11.5-2.1c-3.3-1.4-6.3-3.4-9.1-6.2c-3.2-3.2-5.3-7-6.1-11.2c-0.9-4.3-1.3-10.2-1.3-17.9s0.4-13.6,1.3-17.9
					s2.9-8,6.1-11.3c2.8-2.8,5.8-4.8,9.1-6.2c3.3-1.4,7.1-2.1,11.5-2.1s8.2,0.7,11.5,2.1s6.3,3.4,9.1,6.2c3.2,3.2,5.3,7,6.1,11.3
					c0.9,4.3,1.3,10.2,1.3,17.9S390.4,147.5,389.5,151.8L389.5,151.8z M372.6,125.8L372.6,125.8c-0.1-2.1-0.3-3.8-0.5-5.1
					c-0.2-1.3-0.5-2.3-0.8-2.9c-0.3-0.7-0.7-1.3-1.2-2c-0.7-1-1.7-1.7-2.9-2.3s-2.7-0.9-4.3-0.9s-3,0.3-4.2,0.9s-2.2,1.4-3,2.3
					c-0.5,0.6-0.9,1.3-1.2,2c-0.3,0.7-0.6,1.7-0.8,2.9c-0.2,1.2-0.4,2.9-0.5,5.1c-0.1,2.1-0.2,4.8-0.2,8.2c0,3.3,0.1,6,0.2,8.1
					s0.3,3.7,0.5,5s0.5,2.2,0.8,2.9s0.7,1.3,1.2,2c0.8,1,1.8,1.8,3,2.4c1.2,0.6,2.6,0.9,4.2,0.9s3-0.3,4.2-0.9
					c1.2-0.6,2.2-1.4,3-2.4c0.5-0.6,0.9-1.3,1.2-2s0.6-1.6,0.8-2.9c0.2-1.2,0.4-2.9,0.5-5s0.2-4.8,0.2-8.1S372.7,127.9,372.6,125.8
					L372.6,125.8z"/>
				<path class="st1" d="M448.2,165c-4.3,3.8-9.8,5.7-16.5,5.7h-32V97.2h30.5c7.5,0,13.3,1.9,17.4,5.8s6.1,9,6.1,15.5
					c0,3.7-0.9,6.7-2.6,9c-1.7,2.4-3.5,4.2-5.5,5.5c1.1,0.7,2.1,1.4,3,2.1c0.9,0.7,1.9,1.7,2.8,2.9s1.7,2.8,2.3,4.6
					c0.6,1.8,0.9,3.9,0.9,6.4C454.6,155.8,452.5,161.1,448.2,165L448.2,165L448.2,165z M434,115.1L434,115.1c-1-1.2-2.7-1.8-5-1.8
					h-11.3v12H429c2.3,0,3.9-0.6,5-1.8c1-1.2,1.5-2.6,1.5-4.2S435,116.3,434,115.1L434,115.1L434,115.1z M434.9,143.4L434.9,143.4
					c-1.1-1.2-2.7-1.9-5-1.9h-12.2v12.9h12.2c2.3,0,3.9-0.6,5-1.9s1.6-2.8,1.6-4.6S436,144.7,434.9,143.4z"/>
				<path class="st1" d="M504.8,170.7l-3.4-10.9h-22.6l-3.6,10.9h-18.9L483,97.2h13.9l26.7,73.5H504.8L504.8,170.7z M490.4,125.1
					L490.4,125.1l-6.6,19.6h12.8C496.6,144.7,490.4,125.1,490.4,125.1z"/>
				<polygon class="st1" points="529.3,170.7 529.3,97.2 547.4,97.2 547.4,154.6 578.2,154.6 578.2,170.7 				"/>
				<g>
					
						<linearGradient id="SVGID_1_" gradientUnits="userSpaceOnUse" x1="607.6985" y1="-48.2435" x2="664.7" y2="-48.2435" gradientTransform="matrix(1 0 0 1 0 182.0435)">
						<stop  offset="0.18" style="stop-color:#ED1C24"/>
						<stop  offset="1" style="stop-color:#F8991D"/>
					</linearGradient>
					<path class="st3" d="M636.2,172c-8.8,0-15.4-3-20.9-8.4c-7.9-7.9-7.6-18.5-7.6-29.8s-0.3-21.9,7.6-29.8
						c5.5-5.5,12.1-8.4,20.9-8.4c14.3,0,25.8,7.9,28.5,24.5h-18.8c-1.2-4.2-3.5-8-9.6-8c-3.4,0-5.9,1.4-7.3,3.2
						c-1.7,2.2-2.8,4.9-2.8,18.6s1.2,16.4,2.8,18.6c1.4,1.8,3.9,3.2,7.3,3.2c6.1,0,8.5-3.8,9.6-8h18.8
						C661.9,164,650.4,171.9,636.2,172L636.2,172z"/>
					
						<linearGradient id="SVGID_00000044872694386470277510000017334447884312394421_" gradientUnits="userSpaceOnUse" x1="674.4" y1="-48.3435" x2="692.8801" y2="-48.3435" gradientTransform="matrix(1 0 0 1 0 182.0435)">
						<stop  offset="0.18" style="stop-color:#ED1C24"/>
						<stop  offset="1" style="stop-color:#F8991D"/>
					</linearGradient>
					
						<rect x="674.4" y="96.1" style="fill:url(#SVGID_00000044872694386470277510000017334447884312394421_);" width="18.5" height="75.2"/>
					
						<linearGradient id="SVGID_00000025438243500410162970000017323633506737273750_" gradientUnits="userSpaceOnUse" x1="703.7" y1="-48.3435" x2="759.1" y2="-48.3435" gradientTransform="matrix(1 0 0 1 0 182.0435)">
						<stop  offset="0.18" style="stop-color:#ED1C24"/>
						<stop  offset="1" style="stop-color:#F8991D"/>
					</linearGradient>
					
						<polygon style="fill-rule:evenodd;clip-rule:evenodd;fill:url(#SVGID_00000025438243500410162970000017323633506737273750_);" points="
						740.6,112.6 740.6,171.3 722.1,171.3 722.1,112.6 703.7,112.6 703.7,96.1 759.1,96.1 759.1,112.6 					"/>
					
						<linearGradient id="SVGID_00000170964552497696218940000004853053903807194771_" gradientUnits="userSpaceOnUse" x1="762.3" y1="-48.3435" x2="826.2" y2="-48.3435" gradientTransform="matrix(1 0 0 1 0 182.0435)">
						<stop  offset="0.18" style="stop-color:#ED1C24"/>
						<stop  offset="1" style="stop-color:#F8991D"/>
					</linearGradient>
					
						<polygon style="fill-rule:evenodd;clip-rule:evenodd;fill:url(#SVGID_00000170964552497696218940000004853053903807194771_);" points="
						803.5,140.7 803.5,171.3 785,171.3 785,140.7 762.3,96.1 782.4,96.1 794.3,123.2 806,96.1 826.2,96.1 					"/>
				</g>
				<g>
					
						<linearGradient id="SVGID_00000128473129698225985250000015207719593185797284_" gradientUnits="userSpaceOnUse" x1="784.9971" y1="-98.4939" x2="725.397" y2="-147.7139" gradientTransform="matrix(1 0 0 1 0 182.0435)">
						<stop  offset="0" style="stop-color:#FFF200"/>
						<stop  offset="1" style="stop-color:#F8991D"/>
						<stop  offset="1" style="stop-color:#85C441"/>
					</linearGradient>
					<polygon style="fill:url(#SVGID_00000128473129698225985250000015207719593185797284_);" points="743.9,31.8 717,15 716.9,15 
						701.4,39.6 716.5,49.1 780.2,88.9 780.2,54.5 					"/>
					
						<linearGradient id="SVGID_00000108288373080431003150000001660724746519279532_" gradientUnits="userSpaceOnUse" x1="787.8307" y1="-102.6796" x2="719.0906" y2="-149.9096" gradientTransform="matrix(1 0 0 1 0 182.0435)">
						<stop  offset="0.35" style="stop-color:#FFFFFF;stop-opacity:0"/>
						<stop  offset="0.97" style="stop-color:#231F20"/>
					</linearGradient>
					
						<polygon style="opacity:0.41;fill:url(#SVGID_00000108288373080431003150000001660724746519279532_);enable-background:new    ;" points="
						743.9,31.8 717,15 716.9,15 701.4,39.6 716.5,49.1 780.2,88.9 780.2,54.5 					"/>
					<polygon class="st9" points="716.9,15 716.9,15 717,15 					"/>
					
						<linearGradient id="SVGID_00000134955841467250246970000004509234180920773764_" gradientUnits="userSpaceOnUse" x1="678.078" y1="-154.8797" x2="698.9579" y2="-121.3597" gradientTransform="matrix(1 0 0 1 0 182.0435)">
						<stop  offset="3.000000e-02" style="stop-color:#FFF200"/>
						<stop  offset="1" style="stop-color:#F8991D"/>
						<stop  offset="1" style="stop-color:#85C441"/>
					</linearGradient>
					<polygon style="fill:url(#SVGID_00000134955841467250246970000004509234180920773764_);" points="717,15 716.9,15 716.9,15 
						653.6,54.5 653.6,88.9 716.5,49.1 743.9,31.8 					"/>
				</g>
				<g>
					<path class="st11" d="M876,170.7h-18.7l23.1-58.6h-15.8v11.7h-16.2v-27h50.8V112L876,170.7L876,170.7z"/>
					<path class="st11" d="M950,140l-14.9,30.7h-18.7l14.7-29c-1.5,0.5-3,0.5-4.2,0.5c-9,0-19.8-7.7-19.8-22.4
						c0-15.7,11.3-23.8,24.7-23.8s24.7,8.1,24.7,23.8C956.5,126.3,954.2,131.5,950,140L950,140z M931.8,111.4
						c-4.2,0-7.6,2.9-7.6,8.4s3.4,8.4,7.6,8.4s7.6-2.9,7.6-8.4S936,111.4,931.8,111.4z"/>
					<path class="st11" d="M1000.2,170.7H968v-74h30.7c15.4,0,23.6,8.6,23.6,21.4c0,8.4-5.8,13.1-8.1,14.7c3,1.9,9.2,5.7,9.2,16.1
						C1023.2,163,1013.4,170.7,1000.2,170.7L1000.2,170.7z M997.5,113h-11.3v12h11.3c5,0,6.5-3.1,6.5-6S1002.4,113,997.5,113z
						 M998.4,141.4h-12.3v13h12.3c5,0,6.7-3.4,6.7-6.6S1003.4,141.4,998.4,141.4z"/>
				</g>
				<g>
					<path class="st2" d="M226.8,228.4c-4.6,0-7.6-1.2-10.5-4.1l2.2-2.2c2.6,2.6,4.9,3.3,8.4,3.3c4.5,0,7.3-2.1,7.3-5.7
						c0-1.6-0.5-2.9-1.5-3.9c-0.9-0.9-1.8-1.2-4-1.5l-3.6-0.5c-2.4-0.4-4.2-1.1-5.6-2.3c-1.6-1.4-2.4-3.3-2.4-5.8
						c0-5.2,3.8-8.6,9.9-8.6c3.9,0,6.5,1,9.2,3.4l-2.1,2.1c-1.9-1.8-4-2.7-7.2-2.7c-4.1,0-6.5,2.3-6.5,5.8c0,1.5,0.4,2.8,1.4,3.6
						c0.9,0.8,2.4,1.3,4,1.6l3.6,0.6c2.9,0.4,4.2,0.9,5.6,2.2c1.6,1.4,2.6,3.5,2.6,6.1C237.4,225.1,233.2,228.5,226.8,228.4
						L226.8,228.4z"/>
					<path class="st2" d="M263.7,228.2v-30.8h19.1v2.9H267v10.9h13.5v2.9H267v11.1h15.8v2.9L263.7,228.2L263.7,228.2z"/>
					<path class="st2" d="M318.7,228.4c-3.2,0-5.8-1.1-7.7-3c-2.9-2.9-3.1-5.6-3.1-12.6s0.2-9.7,3.1-12.6c1.9-1.9,4.5-3,7.7-3
						c5.6,0,9.6,3.4,10.7,9.2H326c-0.8-3.8-3.5-6.2-7.3-6.2c-2.1,0-3.9,0.7-5.3,2.2c-2,2-2.2,4.2-2.2,10.6s0.2,8.6,2.2,10.6
						c1.4,1.4,3.2,2.2,5.3,2.2c3.9,0,6.6-2.4,7.4-6.2h3.3C328.3,225,324.3,228.4,318.7,228.4L318.7,228.4z"/>
					<path class="st2" d="M364.3,200.3v27.8H361v-27.8h-8.9v-2.9h21.1v2.9H364.3L364.3,200.3z"/>
					<path class="st2" d="M414.8,225.4c-1.9,1.9-4.5,3-7.6,3s-5.8-1.1-7.7-3c-2.9-2.9-3.1-5.6-3.1-12.6s0.2-9.7,3.1-12.6
						c1.9-1.9,4.5-3,7.7-3s5.8,1.1,7.6,3c2.9,2.9,3.1,5.6,3.1,12.6S417.7,222.5,414.8,225.4z M412.4,202.3c-1.4-1.4-3.2-2.2-5.3-2.2
						s-3.9,0.7-5.3,2.2c-2,2-2.2,4.2-2.2,10.6s0.2,8.6,2.2,10.6c1.4,1.4,3.2,2.2,5.3,2.2s3.9-0.7,5.3-2.2c2-2,2.2-4.2,2.2-10.6
						S414.4,204.2,412.4,202.3z"/>
					<path class="st2" d="M462.7,228.2l-7-13.7h-7.4v13.7H445v-30.8h11.8c5.4,0,9.1,3.2,9.1,8.6c0,4.5-2.7,7.4-6.7,8.3l7.3,14h-3.8
						V228.2z M456.6,200.3h-8.2v11.3h8.2c3.6,0,6.1-1.9,6.1-5.6S460.2,200.3,456.6,200.3z"/>
					<path class="st2" d="M520.5,228.2h-3.3l10.7-28h-10.7v4.8h-3.1v-7.6h17.1v2.8L520.5,228.2L520.5,228.2z"/>
					<path class="st2" d="M557.7,212.9l-7.6,15.3h-3.2l6.9-13.8c-1,0.4-2.1,0.6-3.3,0.6c-4.8,0-8-3.7-8-8.7s3.3-9.1,8.5-9.1
						s8.6,3.5,8.6,8.9C559.7,208.2,559,210.3,557.7,212.9L557.7,212.9z M551.1,199.9c-3.3,0-5.4,2.5-5.4,6.2c0,3.4,1.9,6.2,5.4,6.2
						c3.3,0,5.5-2.4,5.5-6.2S554.4,199.9,551.1,199.9z"/>
					<path class="st2" d="M587.1,228.2h-12v-30.8h11.6c5.4,0,9.1,3.1,9.1,8.2c0,3.2-2,5.8-4.5,6.7c2.9,1.1,5,3.6,5,7.3
						C596.3,225.2,592.5,228.2,587.1,228.2L587.1,228.2z M586.5,200.3h-8V211h8c3.4,0,6-1.7,6-5.4S589.9,200.3,586.5,200.3
						L586.5,200.3z M586.8,214h-8.4v11.3h8.4c3.8,0,6.2-2.2,6.2-5.7S590.6,214,586.8,214z"/>
					<path class="st2" d="M612.4,234.4v-10h3.8v6.6L612.4,234.4L612.4,234.4z"/>
					<path class="st2" d="M679,224.9c-2.2,2.4-5.1,3.5-8.2,3.5s-5.8-1.1-7.7-3c-2.9-2.9-3.1-5.6-3.1-12.6s0.2-9.7,3.1-12.6
						c1.9-1.9,4.5-3,7.7-3c5.8,0,9.9,3.9,10.8,9.2h-3.3c-0.9-3.9-3.6-6.3-7.5-6.3c-2.1,0-3.9,0.7-5.3,2.2c-2,2-2.2,4.2-2.2,10.6
						s0.2,8.6,2.2,10.6c1.4,1.4,3.2,2.2,5.3,2.2c2.2,0,4.4-0.9,5.8-2.6c1.2-1.6,1.7-3.2,1.7-5.6v-2.4h-7.6v-2.8h10.8v4.9
						C681.6,220.5,681,222.7,679,224.9L679,224.9z"/>
					<path class="st2" d="M719,228.4c-6.2,0-10.7-4.3-10.7-10.4v-20.6h3.3v20.4c0,4.7,2.9,7.7,7.4,7.7s7.5-3.1,7.5-7.7v-20.4h3.3
						V218C729.8,224.2,725.3,228.4,719,228.4L719,228.4z"/>
					<path class="st2" d="M775.4,228.2l-7-13.7H761v13.7h-3.3v-30.8h11.8c5.4,0,9.1,3.2,9.1,8.6c0,4.5-2.7,7.4-6.7,8.3l7.3,14h-3.8
						V228.2z M769.2,200.3H761v11.3h8.2c3.6,0,6.1-1.9,6.1-5.6S772.8,200.3,769.2,200.3z"/>
					<path class="st2" d="M815.8,228.4c-6.2,0-10.7-4.3-10.7-10.4v-20.6h3.3v20.4c0,4.7,2.9,7.7,7.4,7.7s7.5-3.1,7.5-7.7v-20.4h3.3
						V218C826.6,224.2,822,228.4,815.8,228.4L815.8,228.4z"/>
					<path class="st2" d="M872.3,224.9c-2.2,2.4-5.1,3.5-8.2,3.5s-5.8-1.1-7.7-3c-2.9-2.9-3.1-5.6-3.1-12.6s0.2-9.7,3.1-12.6
						c1.9-1.9,4.5-3,7.7-3c5.8,0,9.9,3.9,10.8,9.2h-3.3c-0.9-3.9-3.6-6.3-7.5-6.3c-2.1,0-3.9,0.7-5.3,2.2c-2,2-2.2,4.2-2.2,10.6
						s0.2,8.6,2.2,10.6c1.4,1.4,3.2,2.2,5.3,2.2c2.2,0,4.4-0.9,5.8-2.6c1.2-1.6,1.7-3.2,1.7-5.6v-2.4H864v-2.8h10.8v4.9
						C874.9,220.5,874.3,222.7,872.3,224.9L872.3,224.9z"/>
					<path class="st2" d="M919.7,228.2l-7-13.7h-7.4v13.7H902v-30.8h11.8c5.4,0,9.1,3.2,9.1,8.6c0,4.5-2.7,7.4-6.7,8.3l7.3,14h-3.8
						V228.2z M913.5,200.3h-8.2v11.3h8.2c3.6,0,6.1-1.9,6.1-5.6S917.1,200.3,913.5,200.3z"/>
					<path class="st2" d="M967.8,228.2l-2.5-7h-13.4l-2.5,7h-3.5l11.3-30.8h2.8l11.3,30.8H967.8L967.8,228.2z M958.7,202.1
						l-5.8,16.2h11.5L958.7,202.1z"/>
					<path class="st2" d="M1018.8,228.2v-23.4l-8.4,18.5h-2.8l-8.6-18.5v23.4h-3.3v-30.8h3.3l10,21.8l9.8-21.8h3.3v30.8H1018.8
						L1018.8,228.2z"/>
				</g>
				<g>
					
						<linearGradient id="SVGID_00000000210630599539442330000003773087396300897163_" gradientUnits="userSpaceOnUse" x1="100.1416" y1="-94.1959" x2="147.6763" y2="-94.1959" gradientTransform="matrix(1 -3.141588e-03 -3.078818e-03 1.02 7.451 148.0691)">
						<stop  offset="0" style="stop-color:#001B00"/>
						<stop  offset="0.7" style="stop-color:#5C792B"/>
						<stop  offset="0.96" style="stop-color:#647C2A"/>
						<stop  offset="1" style="stop-color:#667D2A"/>
					</linearGradient>
					<path style="fill:url(#SVGID_00000000210630599539442330000003773087396300897163_);" d="M155.1,56.3
						c-2.1,10.6-14.3,17.1-27.3,14.5s-21.7-13.3-19.6-23.9s14.3-17.1,27.3-14.5S157.2,45.7,155.1,56.3L155.1,56.3z"/>
					<g>
						
							<linearGradient id="SVGID_00000016763586117712309320000001681708149468160394_" gradientUnits="userSpaceOnUse" x1="104.6" y1="-67.1935" x2="192.5" y2="-67.1935" gradientTransform="matrix(1 0 0 1 0 182.0435)">
							<stop  offset="0" style="stop-color:#001B00"/>
							<stop  offset="0.7" style="stop-color:#5C792B"/>
							<stop  offset="0.96" style="stop-color:#647C2A"/>
							<stop  offset="1" style="stop-color:#667D2A"/>
						</linearGradient>
						<path style="fill:url(#SVGID_00000016763586117712309320000001681708149468160394_);" d="M165.6,35.4L165.6,35.4
							c5.6,7.3,8.7,18.6,7,27.4c-2.1,10.7-10.1,19.7-21.3,23.3c-8.5,2.7-14.4,1.9-9,10.8c4.7,7.8,8.9,12.6,11.8,19.8
							c10.9,27.2,0.3,63.8-39.4,74.4c-3,1.1-6.4,2.2-10.1,3.2c52-2.3,87.9-41.3,87.9-91.1C192.5,78.2,181.6,52.3,165.6,35.4z"/>
						
							<linearGradient id="SVGID_00000142160358404652813970000001219395690333052584_" gradientUnits="userSpaceOnUse" x1="3.6" y1="-82.078" x2="154" y2="-82.078" gradientTransform="matrix(1 0 0 1 0 182.0435)">
							<stop  offset="0" style="stop-color:#001B00"/>
							<stop  offset="0.7" style="stop-color:#5C792B"/>
							<stop  offset="0.96" style="stop-color:#647C2A"/>
							<stop  offset="1" style="stop-color:#667D2A"/>
						</linearGradient>
						<path style="fill:url(#SVGID_00000142160358404652813970000001219395690333052584_);" d="M119.3,97.4
							C98.9,77.9,85.8,63.6,89.2,46.8C93,28.2,114,14.8,137,19.4c6.3,1.3,12,2.6,17,5.7c-15.8-12-34.9-16.6-56.3-16.6
							c-24.8,0-51.8,9.4-65.1,31.8c-3.6,6.1-5.7,13.1-5.5,20.2c0.2,8.5,2.5,17.2,6.9,24.4c19.2,31.3,37.1,27.2,46.8,51.5
							c7.7,19.2-10.1,35.8-36.5,13.1C14.4,123.9,5.5,68.4,25.9,38.8C11.7,55.3,3.6,79.5,3.6,103.1c0,16.1,4.1,32.1,12,46.1
							c6.3,11.4,14.3,20.9,25.2,28c11.6,7.5,25.2,12.6,38.9,13.9c6.9,0.7,13.8,0.3,20.5-1.3c10.9-2.6,20.8-8.3,29-15.9
							C153.4,151.4,139.6,116.9,119.3,97.4L119.3,97.4z"/>
					</g>
					
						<linearGradient id="SVGID_00000106128238253705354770000013440604817036136628_" gradientUnits="userSpaceOnUse" x1="35.7" y1="-8.4435" x2="35.7" y2="-8.4435" gradientTransform="matrix(1 0 0 1 0 182.0435)">
						<stop  offset="0" style="stop-color:#001B00"/>
						<stop  offset="0.7" style="stop-color:#5C792B"/>
						<stop  offset="0.96" style="stop-color:#647C2A"/>
						<stop  offset="1" style="stop-color:#667D2A"/>
					</linearGradient>
					<path style="fill:url(#SVGID_00000106128238253705354770000013440604817036136628_);" d="M35.7,173.6L35.7,173.6L35.7,173.6z"
						/>
					
						<linearGradient id="SVGID_00000026162686865887720820000012746423917820545202_" gradientUnits="userSpaceOnUse" x1="154" y1="-156.9435" x2="154" y2="-156.9435" gradientTransform="matrix(1 0 0 1 0 182.0435)">
						<stop  offset="0" style="stop-color:#001B00"/>
						<stop  offset="0.7" style="stop-color:#5C792B"/>
						<stop  offset="0.96" style="stop-color:#647C2A"/>
						<stop  offset="1" style="stop-color:#667D2A"/>
					</linearGradient>
					<path style="fill:url(#SVGID_00000026162686865887720820000012746423917820545202_);" d="M154,25.1L154,25.1L154,25.1z"/>
					
						<linearGradient id="SVGID_00000057139459065226003990000014259384225886769035_" gradientUnits="userSpaceOnUse" x1="154" y1="-156.9435" x2="154" y2="-156.9435" gradientTransform="matrix(1 0 0 1 0 182.0435)">
						<stop  offset="0" style="stop-color:#001B00"/>
						<stop  offset="0.7" style="stop-color:#5C792B"/>
						<stop  offset="0.96" style="stop-color:#647C2A"/>
						<stop  offset="1" style="stop-color:#667D2A"/>
					</linearGradient>
					<path style="fill:url(#SVGID_00000057139459065226003990000014259384225886769035_);" d="M154,25.1L154,25.1L154,25.1z"/>
					
						<linearGradient id="SVGID_00000121989666536069836670000017277386871556080052_" gradientUnits="userSpaceOnUse" x1="154" y1="-156.9435" x2="154" y2="-156.9435" gradientTransform="matrix(1 0 0 1 0 182.0435)">
						<stop  offset="0" style="stop-color:#001B00"/>
						<stop  offset="0.7" style="stop-color:#5C792B"/>
						<stop  offset="0.96" style="stop-color:#647C2A"/>
						<stop  offset="1" style="stop-color:#667D2A"/>
					</linearGradient>
					<path style="fill:url(#SVGID_00000121989666536069836670000017277386871556080052_);" d="M154,25.1L154,25.1L154,25.1z"/>
					
						<linearGradient id="SVGID_00000121240419476486453180000001182338223539034547_" gradientUnits="userSpaceOnUse" x1="154" y1="-156.9435" x2="154" y2="-156.9435" gradientTransform="matrix(1 0 0 1 0 182.0435)">
						<stop  offset="0" style="stop-color:#001B00"/>
						<stop  offset="0.7" style="stop-color:#5C792B"/>
						<stop  offset="0.96" style="stop-color:#647C2A"/>
						<stop  offset="1" style="stop-color:#667D2A"/>
					</linearGradient>
					<path style="fill:url(#SVGID_00000121240419476486453180000001182338223539034547_);" d="M154,25.1L154,25.1L154,25.1z"/>
					
						<linearGradient id="SVGID_00000100377852756858847270000004544454311116024716_" gradientUnits="userSpaceOnUse" x1="107.4929" y1="-133.2996" x2="155.0097" y2="-133.2996" gradientTransform="matrix(1 0 0 1 0 182.0435)">
						<stop  offset="0" style="stop-color:#007B38"/>
						<stop  offset="0.7" style="stop-color:#80C342"/>
						<stop  offset="0.92" style="stop-color:#88C440"/>
						<stop  offset="1" style="stop-color:#8DC63F"/>
					</linearGradient>
					<path style="fill:url(#SVGID_00000100377852756858847270000004544454311116024716_);" d="M154.7,53.4
						c-2.1,10.4-14.3,16.8-27.2,14.2S105.7,54.5,107.8,44S122,27.3,135,29.9S156.8,43,154.7,53.4z"/>
					
						<linearGradient id="SVGID_00000016070511885180701800000006848860602032861599_" gradientUnits="userSpaceOnUse" x1="35.1" y1="-11.0435" x2="35.1" y2="-11.0435" gradientTransform="matrix(1 0 0 1 0 182.0435)">
						<stop  offset="0" style="stop-color:#1B7C42"/>
						<stop  offset="0.7" style="stop-color:#7EC242"/>
						<stop  offset="0.9" style="stop-color:#86C440"/>
						<stop  offset="1" style="stop-color:#8DC63F"/>
					</linearGradient>
					<path style="fill:url(#SVGID_00000016070511885180701800000006848860602032861599_);" d="M35.1,171L35.1,171L35.1,171z"/>
					
						<linearGradient id="SVGID_00000086688452759107800990000012473329678616608155_" gradientUnits="userSpaceOnUse" x1="154" y1="-156.9435" x2="154" y2="-156.9435" gradientTransform="matrix(1 0 0 1 0 182.0435)">
						<stop  offset="0" style="stop-color:#1B7C42"/>
						<stop  offset="0.7" style="stop-color:#7EC242"/>
						<stop  offset="0.9" style="stop-color:#86C440"/>
						<stop  offset="1" style="stop-color:#8DC63F"/>
					</linearGradient>
					<path style="fill:url(#SVGID_00000086688452759107800990000012473329678616608155_);" d="M154,25.1L154,25.1L154,25.1z"/>
					
						<linearGradient id="SVGID_00000067925194221056794440000009985202260446886283_" gradientUnits="userSpaceOnUse" x1="154" y1="-156.9435" x2="154" y2="-156.9435" gradientTransform="matrix(1 0 0 1 0 182.0435)">
						<stop  offset="0" style="stop-color:#1B7C42"/>
						<stop  offset="0.7" style="stop-color:#7EC242"/>
						<stop  offset="0.9" style="stop-color:#86C440"/>
						<stop  offset="1" style="stop-color:#8DC63F"/>
					</linearGradient>
					<path style="fill:url(#SVGID_00000067925194221056794440000009985202260446886283_);" d="M154,25.1L154,25.1L154,25.1z"/>
					
						<linearGradient id="SVGID_00000103256436461640093920000018092630703605600431_" gradientUnits="userSpaceOnUse" x1="154" y1="-156.9435" x2="154" y2="-156.9435" gradientTransform="matrix(1 0 0 1 0 182.0435)">
						<stop  offset="0" style="stop-color:#1B7C42"/>
						<stop  offset="0.7" style="stop-color:#7EC242"/>
						<stop  offset="0.9" style="stop-color:#86C440"/>
						<stop  offset="1" style="stop-color:#8DC63F"/>
					</linearGradient>
					<path style="fill:url(#SVGID_00000103256436461640093920000018092630703605600431_);" d="M154,25.1L154,25.1L154,25.1L154,25.1
						L154,25.1z"/>
					
						<linearGradient id="SVGID_00000056398008678035735060000011634862294272421557_" gradientUnits="userSpaceOnUse" x1="154" y1="-156.9435" x2="154" y2="-156.9435" gradientTransform="matrix(1 0 0 1 0 182.0435)">
						<stop  offset="0" style="stop-color:#1B7C42"/>
						<stop  offset="0.7" style="stop-color:#7EC242"/>
						<stop  offset="0.9" style="stop-color:#86C440"/>
						<stop  offset="1" style="stop-color:#8DC63F"/>
					</linearGradient>
					<path style="fill:url(#SVGID_00000056398008678035735060000011634862294272421557_);" d="M154,25.1L154,25.1L154,25.1L154,25.1
						L154,25.1z"/>
					
						<linearGradient id="SVGID_00000088099843750457791790000003796581021629022364_" gradientUnits="userSpaceOnUse" x1="3" y1="-84.928" x2="154.1" y2="-84.928" gradientTransform="matrix(1 0 0 1 0 182.0435)">
						<stop  offset="0" style="stop-color:#007B38"/>
						<stop  offset="0.7" style="stop-color:#80C342"/>
						<stop  offset="0.92" style="stop-color:#88C440"/>
						<stop  offset="1" style="stop-color:#8DC63F"/>
					</linearGradient>
					<path style="fill:url(#SVGID_00000088099843750457791790000003796581021629022364_);" d="M118.8,94.6
						c-20.4-19.5-33.5-34.2-30.1-51c3.8-18.5,25.3-29.8,48.4-25.3c6.3,1.3,12,3.6,17,6.7C138.2,13.1,118.6,6,97.2,6
						c-24.8,0-51.8,9.4-65.1,31.7c-3.6,6.1-5.7,13-5.5,20.1c0.2,8.5,3.5,16.6,7.9,23.8c19.2,31.2,37.1,28.2,46.8,52.4
						c7.7,19.2-11.1,35.2-37.5,12.6C13.9,121,5.5,68.2,25.9,38.7C11.7,55.2,3,76.7,3,100.2c0,16,4.1,31.9,12,45.9
						c6.3,11.3,14.3,20.8,25.2,27.9c11.6,7.5,25.2,12.6,38.9,13.9c6.9,0.7,13.8,0.3,20.5-1.3c10.9-2.6,20.8-8.3,29-15.9
						C152.9,148.4,139.1,114.1,118.8,94.6L118.8,94.6z"/>
					
						<linearGradient id="SVGID_00000084522667061970755320000012277272878854236321_" gradientUnits="userSpaceOnUse" x1="105.6" y1="-67.3435" x2="191.4" y2="-67.3435" gradientTransform="matrix(1 0 0 1 0 182.0435)">
						<stop  offset="0" style="stop-color:#007B38"/>
						<stop  offset="0.7" style="stop-color:#80C342"/>
						<stop  offset="0.92" style="stop-color:#88C440"/>
						<stop  offset="1" style="stop-color:#8DC63F"/>
					</linearGradient>
					<path style="fill:url(#SVGID_00000084522667061970755320000012277272878854236321_);" d="M165.6,35.4L165.6,35.4
						c5.6,7.3,8.2,16.1,6.4,24.8c-2.1,10.8-10,19.7-21.2,23.3c-8.5,2.7-14.4,1.4-9,10.3c4.7,7.8,8.9,11.6,11.8,18.8
						c7.1,17.7,5.2,40.6-8,57.7c-0.2,0.2-0.3,0.4-0.5,0.7l0,0c-0.1,0.2-0.3,0.3-0.4,0.5c-2.5,3-5.6,6.4-10.4,9.8
						c-0.3,0.2-0.6,0.4-1,0.7c-0.3,0.2-0.7,0.5-1.1,0.7c-3.1,2.1-6.4,3.9-10.1,5.4c-4.5,2-10,4-16.5,5.9
						c48.1-4.2,85.8-44.6,85.8-93.8C191.4,75.1,181.6,52.3,165.6,35.4z"/>
				</g>
			</g>
		</g>
	</g>
</g>
</svg>
