<?xml version="1.0" encoding="UTF-8"?><svg id="Layer_1" xmlns="http://www.w3.org/2000/svg" viewBox="0 0 100 100"><defs><style>.cls-1{fill:#c49a6c;}</style></defs><path class="cls-1" d="M4.36,99.97c-1.14-.89-1.49-1.67-1.11-2.64,.34-.88,1.01-1.32,1.96-1.33,1.59,0,3.19-.03,4.78,0,.73,.02,1.02-.25,.94-.96-.03-.29,0-.58,0-.88,0-26.04,0-52.07,0-78.11,0-.42-.02-.85,.02-1.27,.1-1.18,.88-1.88,2.18-1.88,2.76-.02,5.53-.05,8.29,.02,1.02,.03,1.26-.31,1.24-1.28-.06-3.05-.03-6.11-.02-9.17,0-1.73,.71-2.45,2.41-2.45,16.64,0,33.28,0,49.93,0,1.7,0,2.41,.72,2.41,2.45,0,3.09,.03,6.18-.01,9.26-.01,.87,.21,1.2,1.14,1.18,2.6-.06,5.2-.02,7.8-.02,2.19,0,2.78,.59,2.78,2.77,0,25.94,0,51.88,0,77.81q0,2.51,2.5,2.51c.91,0,1.82,0,2.73,0,1.39,0,2.12,.4,2.46,1.33,.35,.98,.02,1.76-1.12,2.64H4.36ZM85.04,56.53c0-12.77,0-25.55,.02-38.32,0-.95-.2-1.29-1.23-1.29-22.56,.03-45.12,.03-67.67,0-.92,0-1.22,.23-1.22,1.19,.02,25.58,.02,51.16,0,76.74,0,.89,.25,1.16,1.15,1.16,6.99-.03,13.98-.04,20.97,0,.97,0,1.19-.31,1.19-1.23-.03-6.86-.02-13.72-.02-20.58,0-2.2,.59-2.8,2.75-2.8,6.01,0,12.03,0,18.04,0,2.16,0,2.75,.6,2.75,2.8,0,6.86,.02,13.72-.02,20.58,0,.92,.24,1.23,1.19,1.22,6.92-.04,13.85-.02,20.77-.02q1.32,0,1.32-1.34c0-12.71,0-25.42,0-38.13ZM50.1,4.07c-7.44,0-14.89,.01-22.33-.02-.84,0-1.14,.22-1.12,1.09,.06,2.24,.04,4.49,0,6.73-.01,.72,.15,1.05,.97,1.04,14.92-.02,29.84-.02,44.76,0,.82,0,.98-.33,.97-1.04-.03-2.21-.06-4.42,0-6.63,.03-.96-.3-1.2-1.22-1.19-7.35,.03-14.69,.02-22.04,.02Zm7.64,81.66c0-3.12,0-6.24,0-9.36,0-.57-.09-.92-.79-.92-4.65,.02-9.29,.01-13.94,0-.54,0-.75,.21-.75,.75,0,6.34,0,12.67,0,19.01,0,.6,.24,.8,.81,.79,1.33-.02,2.67-.04,4,0,.76,.03,.93-.31,.92-.99-.03-1.88-.02-3.77,0-5.65,.01-1.47,.78-2.34,2.03-2.33,1.25,0,1.99,.88,2,2.36,.01,1.92,.02,3.83,0,5.75,0,.63,.22,.87,.86,.85,1.27-.03,2.54-.06,3.8,0,.89,.05,1.1-.3,1.08-1.13-.04-3.05-.02-6.11-.02-9.16Z"/><path class="cls-1" d="M26.69,24.61c1.79,0,3.58,0,5.36,0,1.67,.01,2.4,.72,2.41,2.36,.01,3.67,.01,7.35,0,11.02,0,1.64-.74,2.35-2.41,2.36-3.64,0-7.28,0-10.92,0-1.7,0-2.4-.73-2.41-2.46,0-3.61,0-7.22,0-10.82,0-1.77,.7-2.45,2.5-2.46,1.82,0,3.64,0,5.46,0Zm-.09,4.04c-1.01,0-2.02,.02-3.02,0-.57-.01-.82,.19-.82,.79,.02,2.05,.02,4.1,0,6.14,0,.55,.23,.75,.76,.74,2.05-.01,4.1-.01,6.14,0,.53,0,.77-.18,.77-.74-.01-2.05-.02-4.1,0-6.14,0-.6-.23-.81-.81-.79-1.01,.03-2.02,0-3.02,0Z"/><path class="cls-1" d="M50,40.35c-1.85,0-3.71,.01-5.56,0-1.54-.01-2.3-.75-2.3-2.26-.02-3.74-.02-7.48,0-11.21,0-1.51,.77-2.25,2.31-2.26,3.71-.01,7.41-.01,11.12,0,1.54,0,2.3,.75,2.3,2.26,.02,3.74,.02,7.48,0,11.21,0,1.51-.77,2.24-2.31,2.26-1.85,.02-3.71,0-5.56,0Zm-3.83-7.97c0,1.04,.02,2.08,0,3.12-.01,.58,.19,.82,.79,.82,2.05-.02,4.1-.02,6.14,0,.55,0,.74-.23,.74-.76-.01-2.05-.01-4.1,0-6.14,0-.53-.19-.77-.74-.76-2.05,.01-4.1,.02-6.14,0-.6,0-.81,.24-.79,.82,.03,.97,0,1.95,0,2.93Z"/><path class="cls-1" d="M73.41,40.35c-1.82,0-3.64,0-5.46,0-1.67,0-2.4-.72-2.41-2.36-.01-3.67-.01-7.35,0-11.02,0-1.64,.74-2.35,2.41-2.36,3.64,0,7.28,0,10.92,0,1.7,0,2.4,.73,2.41,2.45,0,3.61,0,7.22,0,10.82,0,1.77-.7,2.45-2.5,2.46-1.79,0-3.58,0-5.36,0Zm0-4.04c1.04,0,2.08,0,3.12,0,.48,0,.72-.18,.71-.69,0-2.08-.01-4.16,0-6.24,0-.55-.23-.74-.76-.74-2.05,.01-4.1,.01-6.14,0-.53,0-.77,.19-.76,.74,.01,2.05,.02,4.1,0,6.14,0,.6,.24,.81,.82,.79,1.01-.03,2.02,0,3.02,0Z"/><path class="cls-1" d="M34.47,55.95c0,1.82,.01,3.64,0,5.46-.01,1.6-.74,2.34-2.32,2.34-3.71,.01-7.41,.01-11.12,0-1.53,0-2.29-.75-2.29-2.27-.01-3.74-.02-7.48,0-11.21,0-1.47,.76-2.24,2.22-2.24,3.77-.02,7.54-.02,11.31,0,1.41,0,2.17,.77,2.19,2.17,.02,1.92,0,3.84,0,5.75Zm-7.77-3.89c-1.04,0-2.08,.02-3.12,0-.58-.01-.82,.19-.82,.79,.02,2.05,.02,4.1,0,6.14,0,.55,.23,.74,.76,.74,2.05-.01,4.1-.01,6.14,0,.53,0,.77-.19,.76-.74-.01-2.05-.02-4.1,0-6.14,0-.6-.24-.81-.82-.79-.97,.03-1.95,0-2.93,0Z"/><path class="cls-1" d="M49.91,63.76c-1.79,0-3.58,0-5.36,0-1.67-.01-2.4-.72-2.41-2.36-.01-3.67-.01-7.35,0-11.02,0-1.64,.74-2.35,2.4-2.36,3.64,0,7.28,0,10.92,0,1.7,0,2.4,.73,2.41,2.45,0,3.61,0,7.22,0,10.82,0,1.77-.7,2.45-2.5,2.46-1.82,0-3.64,0-5.46,0Zm0-4.04c1.04,0,2.08-.02,3.12,0,.58,.01,.81-.21,.81-.8-.02-2.02-.02-4.03,0-6.05,0-.56-.16-.84-.77-.83-2.05,.02-4.1,.02-6.14,0-.54,0-.76,.2-.76,.75,.01,2.05,.02,4.1,0,6.14,0,.61,.25,.8,.82,.78,.97-.02,1.95,0,2.93,0Z"/><path class="cls-1" d="M73.41,48.02c1.82,0,3.64,0,5.46,0,1.67,0,2.4,.72,2.41,2.36,.01,3.67,.01,7.35,0,11.02,0,1.64-.74,2.35-2.41,2.36-3.64,0-7.28,0-10.92,0-1.7,0-2.4-.73-2.41-2.46,0-3.61,0-7.22,0-10.82,0-1.77,.7-2.45,2.5-2.46,1.79,0,3.58,0,5.36,0Zm-.08,11.7c1.04,0,2.08-.02,3.12,0,.59,.02,.81-.22,.8-.81-.02-2.02-.02-4.03,0-6.05,0-.57-.17-.83-.78-.82-2.05,.02-4.1,.02-6.14,0-.54,0-.75,.22-.75,.76,.01,2.05,.02,4.1,0,6.14,0,.61,.27,.79,.83,.77,.97-.02,1.95,0,2.93,0Z"/><path class="cls-1" d="M18.73,79.2c0-1.79,0-3.58,0-5.36,.01-1.68,.71-2.41,2.35-2.41,3.67-.01,7.35-.01,11.02,0,1.64,0,2.36,.74,2.36,2.4,0,3.64,0,7.28,0,10.92,0,1.7-.72,2.41-2.45,2.41-3.61,0-7.22,0-10.82,0-1.77,0-2.46-.7-2.46-2.5,0-1.82,0-3.64,0-5.46Zm11.7,0c0-.94-.03-1.89,0-2.83,.03-.65-.18-.94-.88-.93-1.98,.03-3.97,.03-5.95,0-.63,0-.86,.23-.85,.86,.03,1.98,.02,3.97,0,5.95,0,.61,.18,.89,.83,.88,2.02-.03,4.03-.02,6.05,0,.59,0,.82-.22,.8-.81-.03-1.04,0-2.08,0-3.12Z"/><path class="cls-1" d="M73.48,87.16c-1.89,0-3.77,.01-5.66,0-1.53-.01-2.28-.76-2.28-2.28-.01-3.74-.02-7.48,0-11.21,0-1.46,.77-2.22,2.23-2.23,3.77-.02,7.54-.02,11.31,0,1.41,0,2.17,.78,2.18,2.18,.02,3.8,.02,7.61,0,11.41,0,1.34-.79,2.11-2.13,2.13-1.88,.03-3.77,0-5.66,0Zm-3.9-7.97c0,1.04,.02,2.08,0,3.12-.01,.58,.19,.82,.79,.82,2.05-.02,4.1-.02,6.14,0,.55,0,.74-.23,.74-.76-.01-2.05-.01-4.1,0-6.14,0-.53-.19-.77-.74-.76-2.05,.01-4.1,.02-6.14,0-.6,0-.8,.24-.79,.82,.03,.97,0,1.95,0,2.93Z"/><path class="cls-1" d="M50.05,83.25c-1.15,.02-2.05-.86-2.05-2.01,0-1.11,.85-1.98,1.96-2,1.15-.02,2.05,.86,2.05,2.01,0,1.11-.85,1.98-1.96,2Z"/></svg>