<svg id="Layer_1" data-name="Layer 1" xmlns="http://www.w3.org/2000/svg" viewBox="0 0 200 200"><defs><style>.cls-1{fill:#00a54e;}.cls-2{fill:#f5f5f7;}</style></defs><path class="cls-1" d="M8,136.51c5,0,7.5,3,7.5,8.14v1H10.7v-1.34c0-2.31-.93-3.19-2.55-3.19s-2.54.88-2.54,3.19c0,6.66,9.94,7.91,9.94,17.16,0,5.18-2.59,8.14-7.58,8.14s-7.59-3-7.59-8.14v-2H5.2v2.31c0,2.31,1,3.15,2.63,3.15s2.64-.84,2.64-3.15c0-6.66-10-7.91-10-17.16,0-5.17,2.54-8.14,7.49-8.14"/><rect class="cls-1" x="24.38" y="136.88" width="5.09" height="32.37"/><path class="cls-1" d="M46.72,151.22h7.12v10.27c0,5.18-2.59,8.14-7.58,8.14s-7.59-3-7.59-8.14V144.65c0-5.18,2.59-8.14,7.59-8.14s7.58,3,7.58,8.14v3.15H49v-3.47c0-2.31-1-3.19-2.63-3.19s-2.64.88-2.64,3.19v17.48c0,2.31,1,3.15,2.64,3.15s2.63-.84,2.63-3.15v-6H46.72Z"/><polygon class="cls-1" points="67.57 145.81 67.57 169.26 62.99 169.26 62.99 136.89 69.38 136.89 74.6 156.26 74.6 136.89 79.13 136.89 79.13 169.26 73.91 169.26 67.57 145.81"/><path class="cls-1" d="M93.56,136.89v25c0,2.31,1,3.14,2.63,3.14s2.64-.83,2.64-3.14v-25h4.81v24.65c0,5.18-2.59,8.14-7.58,8.14s-7.59-3-7.59-8.14V136.89Z"/><polygon class="cls-1" points="123.8 159.87 127.27 136.88 134.34 136.88 134.34 169.26 129.54 169.26 129.54 146.04 126.02 169.26 121.21 169.26 117.42 146.36 117.42 169.26 112.98 169.26 112.98 136.88 120.06 136.88 123.8 159.87"/><path class="cls-2" d="M148.19,159.84h4.87v1.32q0,4,2.43,4,2.74,0,2.75-4.57a9.52,9.52,0,0,0-.65-4.12c-.63-1.16-1.84-1.75-3.62-1.75h-.65v-4.48l.39,0,.39,0a3.17,3.17,0,0,0,3-1.5,7.25,7.25,0,0,0,.62-3.42q0-4.17-2.17-4.17c-1.61,0-2.42,1.16-2.42,3.49,0,.48,0,.89,0,1.21h-4.87v-.26a10.83,10.83,0,0,1,1.6-6.19,6.35,6.35,0,0,1,5.65-2.82q6.72,0,6.72,9c0,3.5-1,5.8-2.89,6.87a5.46,5.46,0,0,1,2.94,3.17,13.57,13.57,0,0,1,.55,4.38q0,9.69-7.13,9.69a6.75,6.75,0,0,1-5.89-2.76,10.63,10.63,0,0,1-1.69-6.29Z"/><polygon class="cls-2" points="164.75 141.76 164.75 137.15 178.74 137.15 178.74 140.63 172.51 169.07 167.55 169.07 173.68 141.76 164.75 141.76"/><path class="cls-2" d="M182.09,169.07V137.15h7.31q8.34,0,8.34,8.76v14.26q0,4.4-1.73,6.52c-1.29,1.58-3.42,2.38-6.38,2.38Zm5.1-4.7h2.61c1.78,0,2.68-1.12,2.68-3.36V145.65c0-2.54-1.38-3.8-4.12-3.8h-1.17Z"/><rect class="cls-2" x="0.56" y="48.2" width="4.44" height="84.58"/><rect class="cls-2" x="8.54" y="38.63" width="2.44" height="94.15"/><polygon class="cls-2" points="22.07 132.78 14.52 132.78 14.52 50.24 22.07 60.88 22.07 132.78"/><rect class="cls-2" x="25.61" y="38.63" width="2.22" height="94.15"/><rect class="cls-2" x="31.38" y="57.77" width="4.44" height="75.01"/><rect class="cls-2" x="50.45" y="38.63" width="2.22" height="94.15"/><rect class="cls-2" x="56.21" y="65.75" width="2.22" height="67.03"/><rect class="cls-2" x="61.97" y="38.63" width="4" height="94.15"/><rect class="cls-2" x="81.04" y="38.63" width="2" height="94.15"/><rect class="cls-2" x="86.58" y="46.6" width="4.22" height="86.18"/><rect class="cls-2" x="94.34" y="38.63" width="4.22" height="94.15"/><rect class="cls-2" x="102.1" y="54.58" width="2.22" height="78.2"/><rect class="cls-2" x="107.86" y="38.63" width="4.62" height="94.15"/><rect class="cls-2" x="116.02" y="64.16" width="7.79" height="68.62"/><rect class="cls-2" x="135.43" y="46.6" width="4.66" height="86.18"/><rect class="cls-2" x="143.64" y="38.63" width="2.22" height="107.36"/><polygon class="cls-2" points="158.95 132.78 149.4 132.78 149.4 45.63 154.18 32.25 158.95 45.63 158.95 132.78"/><rect class="cls-2" x="162.49" y="54.58" width="2" height="78.2"/><rect class="cls-2" x="168.03" y="38.63" width="4.22" height="94.15"/><polygon class="cls-2" points="182.68 132.78 175.13 132.78 175.13 44.91 178.78 44.91 180.1 44.91 182.68 44.91 182.68 132.78"/><rect class="cls-2" x="186.13" y="38.63" width="2.44" height="94.15"/><rect class="cls-2" x="191.08" y="65.75" width="4.22" height="67.03"/><polygon class="cls-2" points="44.91 66.88 44.91 54.58 42.49 54.58 42.49 77.75 39.35 77.75 39.35 132.78 46.91 132.78 46.91 66.88 44.91 66.88"/><polygon class="cls-2" points="128.79 39.75 128.79 132.85 131.9 132.85 131.9 24.27 128.79 39.75"/><polygon class="cls-2" points="70.3 49.08 72.97 42.36 73.47 16.25 74 42.4 76.71 49.08 76.71 132.78 70.3 132.78 70.3 49.08"/><polygon class="cls-2" points="5.15 174.87 5.15 183.66 3.6 183.66 3.6 174.87 0.8 174.87 0.8 173.49 7.95 173.49 7.95 174.87 5.15 174.87"/><polygon class="cls-2" points="22.14 183.66 22.14 179.22 18.01 179.22 18.01 183.66 16.47 183.66 16.47 173.49 18.01 173.49 18.01 177.83 22.14 177.83 22.14 173.49 23.69 173.49 23.69 183.66 22.14 183.66"/><polygon class="cls-2" points="33.11 183.66 33.11 173.49 39.61 173.49 39.61 174.87 34.66 174.87 34.66 177.85 38.89 177.85 38.89 179.22 34.66 179.22 34.66 182.28 39.61 182.28 39.61 183.66 33.11 183.66"/><path class="cls-2" d="M64.31,183.67l-2.15-4.29H60.23v4.29H58.69V173.49h3.94a3.19,3.19,0,0,1,2.3.82,2.84,2.84,0,0,1,.86,2.15,2.7,2.7,0,0,1-.56,1.75,2.76,2.76,0,0,1-1.47.95l2.35,4.51Zm-.54-8.37a1.79,1.79,0,0,0-1.25-.43H60.23v3.19h2.29a1.84,1.84,0,0,0,1.26-.42,1.68,1.68,0,0,0,0-2.34"/><polygon class="cls-2" points="74.82 183.66 74.82 173.49 81.32 173.49 81.32 174.87 76.36 174.87 76.36 177.85 80.59 177.85 80.59 179.22 76.36 179.22 76.36 182.28 81.32 182.28 81.32 183.66 74.82 183.66"/><polygon class="cls-2" points="93.64 174.87 93.64 183.66 92.1 183.66 92.1 174.87 89.3 174.87 89.3 173.49 96.45 173.49 96.45 174.87 93.64 174.87"/><path class="cls-2" d="M110,183.67l-.7-2h-4l-.7,2H102.9l3.73-10.18h1.24l3.74,10.18Zm-2.67-7.88-1.59,4.52h3.13Z"/><rect class="cls-2" x="119.81" y="173.49" width="1.55" height="10.18"/><polygon class="cls-2" points="130.78 183.66 130.78 173.49 132.32 173.49 132.32 182.28 137.22 182.28 137.22 183.66 130.78 183.66"/><polygon class="cls-2" points="161.61 183.66 161.61 179.22 157.48 179.22 157.48 183.66 155.94 183.66 155.94 173.49 157.48 173.49 157.48 177.83 161.61 177.83 161.61 173.49 163.16 173.49 163.16 183.66 161.61 183.66"/><path class="cls-2" d="M179.45,181.66a3.35,3.35,0,0,1-.77,1.12,3.49,3.49,0,0,1-1.17.72,4.27,4.27,0,0,1-2.88,0,3.54,3.54,0,0,1-1.16-.72,3.35,3.35,0,0,1-.77-1.12,3.54,3.54,0,0,1-.27-1.43v-6.74H174v6.67a2.21,2.21,0,0,0,.57,1.61,2,2,0,0,0,1.53.59,2.08,2.08,0,0,0,1.54-.59,2.22,2.22,0,0,0,.58-1.61v-6.67h1.54v6.74a3.54,3.54,0,0,1-.28,1.43"/><path class="cls-2" d="M195.34,182.92a3.27,3.27,0,0,1-2.23.75H189V173.49h4a3.21,3.21,0,0,1,2.24.75,2.6,2.6,0,0,1,.83,2,2.27,2.27,0,0,1-.41,1.35,2.16,2.16,0,0,1-1,.81,2.4,2.4,0,0,1,1.09.86,2.49,2.49,0,0,1,.44,1.5,2.73,2.73,0,0,1-.85,2.13M194,175.25a1.83,1.83,0,0,0-1.21-.38h-2.28v2.92h2.28a1.83,1.83,0,0,0,1.21-.38,1.33,1.33,0,0,0,.46-1.08,1.35,1.35,0,0,0-.46-1.08m.17,4.36a1.69,1.69,0,0,0-1.23-.43h-2.43v3.1H193a1.7,1.7,0,0,0,1.23-.44,1.51,1.51,0,0,0,.44-1.12,1.48,1.48,0,0,0-.44-1.11"/><polygon class="cls-2" points="193.08 34.52 193.08 38.63 192.34 38.63 192.34 34.52 190.99 34.52 190.99 33.87 194.43 33.87 194.43 34.52 193.08 34.52"/><polygon class="cls-2" points="198.87 38.63 198.87 35.45 197.74 37.77 197.19 37.77 196.03 35.45 196.03 38.63 195.28 38.63 195.28 33.87 196.03 33.87 197.46 36.84 198.87 33.87 199.62 33.87 199.62 38.63 198.87 38.63"/></svg>