<?xml version="1.0" encoding="utf-8"?>
<!-- Generator: Adobe Illustrator 26.0.3, SVG Export Plug-In . SVG Version: 6.00 Build 0)  -->
<svg version="1.1" id="Layer_1" xmlns="http://www.w3.org/2000/svg" xmlns:xlink="http://www.w3.org/1999/xlink" x="0px" y="0px"
	 viewBox="0 0 200 200" style="enable-background:new 0 0 200 200;" xml:space="preserve">
<style type="text/css">
	.st0{fill-rule:evenodd;clip-rule:evenodd;fill:#FFFFFF;}
	.st1{fill:#FFFFFF;}
	.st2{fill-rule:evenodd;clip-rule:evenodd;fill:#05A551;}
	.st3{fill:#05A551;}
	.st4{enable-background:new    ;}
</style>
<g>
	<polygon class="st0" points="72.2,44.8 74.9,38 75.4,11.6 76,38.1 78.7,44.8 78.7,129.6 72.2,129.6 	"/>
	<rect x="1.6" y="44" class="st1" width="4.5" height="85.6"/>
	<rect x="9.7" y="34.3" class="st1" width="2.5" height="95.3"/>
	<polygon class="st0" points="23.4,129.6 15.8,129.6 15.8,46 23.4,56.8 	"/>
	<rect x="27" y="34.3" class="st1" width="2.2" height="95.3"/>
	<rect x="32.8" y="53.7" class="st1" width="4.5" height="75.9"/>
	<rect x="52.1" y="34.3" class="st1" width="2.2" height="95.3"/>
	<rect x="58" y="61.7" class="st1" width="2.2" height="67.8"/>
	<rect x="63.8" y="34.3" class="st1" width="4.1" height="95.3"/>
	<rect x="83.1" y="34.3" class="st1" width="2" height="95.3"/>
	<rect x="88.7" y="42.3" class="st1" width="4.3" height="87.2"/>
	<rect x="105.1" y="34.3" class="st1" width="2.2" height="95.3"/>
	<rect x="96.6" y="50.4" class="st1" width="4.3" height="79.2"/>
	<rect x="110.9" y="34.3" class="st1" width="4.7" height="95.3"/>
	<rect x="119.2" y="60.1" class="st1" width="7.9" height="69.5"/>
	<rect x="138.2" y="42.3" class="st1" width="4.7" height="87.2"/>
	<rect x="146.5" y="34.3" class="st1" width="2.2" height="95.3"/>
	<polygon class="st0" points="162,129.6 152.3,129.6 152.3,41.4 157.1,27.8 162,41.4 	"/>
	<rect x="171.1" y="34.3" class="st1" width="4.3" height="95.3"/>
	<polygon class="st0" points="186,129.6 178.3,129.6 178.3,40.6 182,40.6 183.4,40.6 186,40.6 	"/>
	<rect x="189.5" y="34.3" class="st1" width="2.5" height="95.3"/>
	<rect x="194.5" y="61.7" class="st1" width="4.3" height="67.8"/>
	<polygon class="st0" points="46.5,62.9 46.5,50.4 44.1,50.4 44.1,73.9 40.9,73.9 40.9,129.6 48.5,129.6 48.5,62.9 	"/>
	<polygon class="st0" points="131.4,35.4 131.4,129.7 134.6,129.7 134.6,19.7 	"/>
	<rect x="165.5" y="50.4" class="st1" width="2" height="79.2"/>
	<polygon class="st0" points="5.2,162.6 5.2,169.6 3.9,169.6 3.9,162.6 1.7,162.6 1.7,161.5 7.4,161.5 7.4,162.6 	"/>
	<polygon class="st0" points="22,169.6 22,166.1 18.7,166.1 18.7,169.6 17.4,169.6 17.4,161.5 18.7,161.5 18.7,164.9 22,164.9 
		22,161.5 23.2,161.5 23.2,169.6 	"/>
	<polygon class="st0" points="34,169.6 34,161.5 39.2,161.5 39.2,162.6 35.2,162.6 35.2,165 38.6,165 38.6,166.1 35.2,166.1 
		35.2,168.5 39.2,168.5 39.2,169.6 	"/>
	<path class="st0" d="M64.9,162.9c-0.3-0.2-0.6-0.4-1-0.4H62v2.6h1.8c0.4,0,0.7-0.1,1-0.3c0.3-0.2,0.4-0.6,0.4-0.9
		C65.3,163.5,65.1,163.2,64.9,162.9 M65.3,169.6l-1.7-3.4H62v3.4h-1.2v-8.2H64c0.7,0,1.3,0.2,1.8,0.7c0.5,0.4,0.7,1.1,0.7,1.7
		c0,0.5-0.1,1-0.5,1.4c-0.3,0.4-0.7,0.6-1.2,0.8l1.9,3.6H65.3z"/>
	<polygon class="st0" points="76.9,169.6 76.9,161.5 82.1,161.5 82.1,162.6 78.1,162.6 78.1,165 81.5,165 81.5,166.1 78.1,166.1 
		78.1,168.5 82.1,168.5 82.1,169.6 	"/>
	<polygon class="st0" points="95.2,162.6 95.2,169.6 93.9,169.6 93.9,162.6 91.7,162.6 91.7,161.5 97.4,161.5 97.4,162.6 	"/>
	<path class="st0" d="M109.3,163.3l-1.3,3.6h2.5L109.3,163.3z M111.4,169.6l-0.6-1.6h-3.2l-0.6,1.6h-1.3l3-8.2h1l3,8.2H111.4z"/>
	<rect x="122.5" y="161.5" class="st1" width="1.2" height="8.2"/>
	<polygon class="st0" points="134.5,169.6 134.5,161.5 135.7,161.5 135.7,168.5 139.6,168.5 139.6,169.6 	"/>
	<polygon class="st0" points="165.5,169.6 165.5,166.1 162.2,166.1 162.2,169.6 161,169.6 161,161.5 162.2,161.5 162.2,164.9 
		165.5,164.9 165.5,161.5 166.8,161.5 166.8,169.6 	"/>
	<path class="st0" d="M183,168c-0.1,0.3-0.4,0.6-0.6,0.9c-0.3,0.3-0.6,0.5-0.9,0.6c-0.4,0.1-0.8,0.2-1.2,0.2c-0.4,0-0.8-0.1-1.2-0.2
		c-0.3-0.1-0.7-0.3-0.9-0.6c-0.3-0.3-0.5-0.6-0.6-0.9c-0.2-0.4-0.2-0.8-0.2-1.1v-5.4h1.2v5.4c0,0.5,0.1,0.9,0.5,1.3
		c0.7,0.6,1.8,0.6,2.5,0c0.3-0.3,0.5-0.8,0.5-1.3v-5.4h1.2v5.4C183.2,167.2,183.1,167.6,183,168"/>
	<path class="st0" d="M197.1,166.4c-0.2-0.2-0.5-0.4-0.8-0.4h-1.5v2.5h1.5c0.3,0,0.6-0.1,0.8-0.4c0.2-0.3,0.3-0.6,0.3-0.9
		C197.4,166.9,197.3,166.6,197.1,166.4 M197,162.9c-0.2-0.2-0.5-0.3-0.8-0.3h-1.4v2.4h1.4c0.3,0,0.6-0.1,0.8-0.3
		c0.2-0.2,0.3-0.5,0.3-0.9C197.3,163.4,197.2,163.1,197,162.9 M197.8,169c-0.4,0.4-0.9,0.6-1.4,0.6h-2.6v-8.2h2.5
		c0.5,0,1.1,0.2,1.4,0.6c0.4,0.5,0.6,1,0.5,1.6c0,0.4-0.1,0.7-0.2,1.1l-0.6,0.6c0.3,0.2,0.5,0.4,0.7,0.7
		C198.5,167.1,198.4,168.2,197.8,169"/>
	<path class="st2" d="M7.6,133.2c3.8,0,5.7,2,5.7,5.6v0.7H9.6v-0.9c0-1.6-0.7-2.2-1.9-2.2s-1.9,0.6-1.9,2.2c0,4.6,7.6,5.5,7.6,11.9
		c0,3.6-2,5.6-5.8,5.6s-5.8-2-5.8-5.6v-1.4h3.7v1.6c0,1.6,0.8,2.2,2,2.2s2-0.6,2-2.2c0-4.6-7.6-5.5-7.6-11.9
		C1.8,135.3,3.7,133.2,7.6,133.2"/>
	<rect x="19.5" y="133.5" class="st3" width="3.9" height="22.4"/>
	<path class="st2" d="M36.7,143.4h5.5v7.1c0,3.6-2,5.6-5.8,5.6s-5.8-2-5.8-5.6v-11.7c0-3.6,2-5.6,5.8-5.6s5.8,2.1,5.8,5.6v2.2h-3.7
		v-2.4c0-1.6-0.8-2.2-2-2.2s-2,0.6-2,2.2v12.1c0,1.6,0.8,2.2,2,2.2s2-0.6,2-2.2v-4.1h-1.8V143.4z"/>
	<polygon class="st2" points="52.1,139.6 52.1,155.9 48.6,155.9 48.6,133.5 53.5,133.5 57.5,146.9 57.5,133.5 61,133.5 61,155.9 
		57,155.9 	"/>
	<path class="st2" d="M71.7,133.5v17.3c0,1.6,0.8,2.2,2,2.2s2-0.6,2-2.2v-17.3h3.7v17.1c0,3.6-2,5.6-5.8,5.6s-5.8-2-5.8-5.6v-17.1
		H71.7z"/>
	<polygon class="st2" points="95,149.4 97.6,133.5 103,133.5 103,155.9 99.4,155.9 99.4,139.8 96.7,155.9 93,155.9 90.1,140 
		90.1,155.9 86.7,155.9 86.7,133.5 92.1,133.5 	"/>
	<path class="st1" d="M127.6,138.7v2.9c0,3.6-1.9,5.5-5.8,5.5h-1.8v8.3h-3.8v-22.2h5.7C125.7,133.2,127.6,135.1,127.6,138.7
		 M120.1,136.4v7.5h1.8c1.2,0,1.9-0.5,1.9-2.1v-3.3c0-1.6-0.7-2.1-1.9-2.1H120.1z"/>
	<polygon class="st1" points="133.9,133.2 137.8,133.2 137.8,152.2 144.1,152.2 144.1,155.4 133.9,155.4 	"/>
	<path class="st1" d="M162.6,155.4h-3.9l-0.7-4h-4.7l-0.7,4h-3.6l3.9-22.2h5.6L162.6,155.4z M153.8,148.4h3.7l-1.9-11.2L153.8,148.4
		z"/>
	<polygon class="st1" points="179.4,133.2 179.4,136.3 172.1,152.2 179.4,152.2 179.4,155.4 168.1,155.4 168.1,152.3 175.4,136.4 
		168.5,136.4 168.5,133.2 	"/>
	<path class="st1" d="M198.5,155.4h-3.9l-0.7-4h-4.7l-0.7,4H185l3.9-22.2h5.6L198.5,155.4z M189.7,148.4h3.7l-1.9-11.2L189.7,148.4z
		"/>
	<g class="st4">
		<path class="st1" d="M3.3,186.9c-1.6,0-2.4-0.9-2.5-2.7c0-0.1,0-0.2,0.1-0.2l0.9-0.2c0.1,0,0.2,0,0.2,0.1c0.1,1.3,0.5,1.8,1.3,1.8
			s1.2-0.4,1.2-1.8c0-1.2-0.2-1.7-1.1-2l-0.6-0.2c-1.4-0.6-1.9-1.3-1.9-2.9c0-1.8,0.8-2.7,2.4-2.7s2.3,0.9,2.4,2.5
			c0,0.1,0,0.2-0.1,0.2l-0.9,0.1c-0.1,0-0.2,0-0.2-0.1c0-1-0.4-1.6-1.2-1.6c-0.8,0-1.2,0.5-1.2,1.5c0,1.1,0.2,1.5,1.1,1.8l0.6,0.2
			c1.4,0.5,1.8,1.2,1.8,3C5.7,185.9,5,186.9,3.3,186.9z"/>
		<path class="st1" d="M7.2,176.4c0-0.1,0.1-0.2,0.2-0.2h4c0.1,0,0.2,0.1,0.2,0.2v0.9c0,0.1-0.1,0.2-0.2,0.2H8.6
			c-0.1,0-0.1,0-0.1,0.1v3.3c0,0.1,0,0.1,0.1,0.1H11c0.1,0,0.2,0.1,0.2,0.2v0.9c0,0.1-0.1,0.2-0.2,0.2H8.6c-0.1,0-0.1,0-0.1,0.1v3.4
			c0,0.1,0,0.1,0.1,0.1h2.8c0.1,0,0.2,0.1,0.2,0.2v0.9c0,0.1-0.1,0.2-0.2,0.2h-4c-0.1,0-0.2-0.1-0.2-0.2V176.4z"/>
	</g>
	<g class="st4">
		<path class="st1" d="M12.8,181.5c0-3,0-3.4,0.2-3.9c0.3-1,1.1-1.6,2.3-1.6c1.4,0,2.2,0.7,2.4,2.4c0,0.1,0,0.2-0.1,0.2l-0.9,0.2
			c-0.1,0-0.2,0-0.2-0.1c-0.1-0.9-0.4-1.4-1.2-1.4c-0.6,0-0.9,0.2-1.1,0.7c-0.1,0.3-0.1,0.6-0.1,3.5c0,2.9,0,3.2,0.1,3.5
			c0.2,0.5,0.5,0.7,1.1,0.7c0.7,0,1.1-0.5,1.2-1.4c0-0.1,0.1-0.1,0.2-0.1l0.9,0.2c0.1,0,0.1,0.1,0.1,0.2c-0.1,1.6-1,2.4-2.4,2.4
			c-1.2,0-1.9-0.6-2.3-1.6C12.8,184.9,12.8,184.5,12.8,181.5z"/>
	</g>
	<g class="st4">
		<path class="st1" d="M20.5,186.8c-0.1,0-0.2-0.1-0.2-0.2v-9.2c0-0.1,0-0.1-0.1-0.1h-1.7c-0.1,0-0.2-0.1-0.2-0.2v-0.9
			c0-0.1,0.1-0.2,0.2-0.2h4.9c0.1,0,0.2,0.1,0.2,0.2v0.9c0,0.1-0.1,0.2-0.2,0.2h-1.7c-0.1,0-0.1,0-0.1,0.1v9.2
			c0,0.1-0.1,0.2-0.2,0.2H20.5z"/>
	</g>
	<g class="st4">
		<path class="st1" d="M24.5,185.4c-0.2-0.5-0.2-0.9-0.2-3.9c0-3,0-3.4,0.2-3.9c0.3-1,1.1-1.6,2.3-1.6s2,0.6,2.3,1.6
			c0.2,0.5,0.2,0.9,0.2,3.9c0,3,0,3.4-0.2,3.9c-0.3,1-1.1,1.6-2.3,1.6S24.9,186.4,24.5,185.4z M28,185c0.1-0.3,0.1-0.5,0.1-3.5
			c0-3,0-3.2-0.1-3.5c-0.2-0.5-0.6-0.7-1.1-0.7s-0.9,0.3-1.1,0.7c-0.1,0.3-0.1,0.5-0.1,3.5c0,3,0,3.2,0.1,3.5
			c0.2,0.5,0.5,0.7,1.1,0.7S27.8,185.5,28,185z"/>
		<path class="st1" d="M35,186.8c-0.1,0-0.1,0-0.2-0.1l-1.3-4.4c-0.1,0-0.3,0-0.4,0h-0.6c-0.1,0-0.1,0-0.1,0.1v4.3
			c0,0.1-0.1,0.2-0.2,0.2h-0.9c-0.1,0-0.2-0.1-0.2-0.2v-10.3c0-0.1,0.1-0.2,0.2-0.2h1.9c1.9,0,2.9,0.8,2.9,3c0,1.4-0.5,2.3-1.3,2.7
			l1.5,4.7c0,0.1,0,0.2-0.1,0.2H35z M34.7,179.3c0-1.4-0.5-1.9-1.6-1.9h-0.7c-0.1,0-0.1,0-0.1,0.1v3.6c0,0.1,0,0.1,0.1,0.1h0.7
			C34.2,181.1,34.7,180.7,34.7,179.3z"/>
		<path class="st1" d="M40.4,184.3c0-0.1,0-0.2,0.2-0.2l0.8-0.1c0.1,0,0.2,0,0.2,0.1c0,0.7,0,0.8,0.1,1c0.1,0.4,0.4,0.6,0.9,0.6
			c0.5,0,0.8-0.2,0.9-0.6c0.1-0.2,0.1-0.4,0.1-1.4c0-1,0-1.2-0.1-1.4c-0.1-0.4-0.5-0.6-1-0.6h-0.2c-0.1,0-0.2-0.1-0.2-0.2v-0.8
			c0-0.1,0.1-0.2,0.2-0.2h0.2c0.5,0,0.8-0.2,1-0.6c0.1-0.2,0.1-0.3,0.1-1.2c0-0.8,0-0.9-0.1-1.1c-0.1-0.4-0.4-0.6-0.9-0.6
			c-0.5,0-0.8,0.2-0.9,0.6c-0.1,0.2-0.1,0.3-0.1,1c0,0.1-0.1,0.2-0.2,0.1l-0.8-0.1c-0.1,0-0.2-0.1-0.2-0.2c0-0.6,0-0.9,0.1-1.2
			c0.3-0.9,1-1.4,2.1-1.4c1.1,0,1.8,0.5,2.1,1.4c0.1,0.3,0.1,0.6,0.1,1.5c0,0.9,0,1.1-0.1,1.4c-0.1,0.4-0.4,0.7-0.8,0.9v0
			c0.4,0.2,0.7,0.5,0.8,0.9c0.1,0.2,0.1,0.5,0.1,1.6c0,1.1,0,1.4-0.1,1.7c-0.3,0.9-1,1.4-2.1,1.4c-1.1,0-1.8-0.5-2.1-1.4
			C40.5,185.2,40.4,184.9,40.4,184.3z"/>
		<path class="st1" d="M46.5,183.8c0-1.5,0.1-2,0.5-3l1.7-4.4c0-0.1,0.1-0.1,0.2-0.1h0.9c0.1,0,0.1,0.1,0.1,0.2l-1.7,4.3l0,0
			c0.1-0.1,0.4-0.2,0.7-0.2c1,0,1.5,0.5,1.8,1.4c0.1,0.3,0.1,0.7,0.1,1.8c0,1.2,0,1.5-0.1,1.8c-0.3,0.9-1,1.4-2.1,1.4
			c-1.1,0-1.8-0.5-2.1-1.4C46.5,185.2,46.5,184.9,46.5,183.8z M48.6,185.8c0.5,0,0.8-0.2,0.9-0.6c0.1-0.2,0.1-0.3,0.1-1.4
			c0-1.1,0-1.2-0.1-1.4c-0.1-0.4-0.5-0.6-0.9-0.6c-0.5,0-0.8,0.2-0.9,0.6c-0.1,0.2-0.1,0.3-0.1,1.4c0,1.1,0,1.2,0.1,1.4
			C47.9,185.6,48.2,185.8,48.6,185.8z"/>
	</g>
	<g class="st4">
		<path class="st1" d="M52.4,185.3c0-0.1,0.1-0.2,0.2-0.2h0.9c0.1,0,0.2,0.1,0.2,0.2v1.2c0,0.2,0,0.3-0.1,0.4l-0.8,1.4
			c0,0.1-0.1,0.1-0.2,0.1c-0.1,0-0.1-0.1-0.1-0.1V185.3z"/>
	</g>
	<g class="st4">
		<path class="st1" d="M60.2,186.9c-1.6,0-2.4-0.9-2.5-2.7c0-0.1,0-0.2,0.1-0.2l0.9-0.2c0.1,0,0.2,0,0.2,0.1
			c0.1,1.3,0.5,1.8,1.3,1.8s1.2-0.4,1.2-1.8c0-1.2-0.2-1.7-1.1-2l-0.6-0.2c-1.4-0.6-1.9-1.3-1.9-2.9c0-1.8,0.8-2.7,2.4-2.7
			s2.3,0.9,2.4,2.5c0,0.1,0,0.2-0.1,0.2l-0.9,0.1c-0.1,0-0.2,0-0.2-0.1c0-1-0.4-1.6-1.2-1.6c-0.8,0-1.2,0.5-1.2,1.5
			c0,1.1,0.2,1.5,1.1,1.8l0.6,0.2c1.4,0.5,1.8,1.2,1.8,3C62.7,185.9,62,186.9,60.2,186.9z"/>
		<path class="st1" d="M64.2,185.4c-0.2-0.5-0.2-0.9-0.2-3.9c0-3,0-3.4,0.2-3.9c0.3-1,1.1-1.6,2.3-1.6s2,0.6,2.3,1.6
			c0.2,0.5,0.2,0.9,0.2,3.9c0,3,0,3.4-0.2,3.9c-0.3,1-1.1,1.6-2.3,1.6S64.6,186.4,64.2,185.4z M67.7,185c0.1-0.3,0.1-0.5,0.1-3.5
			c0-3,0-3.2-0.1-3.5c-0.2-0.5-0.6-0.7-1.1-0.7s-0.9,0.3-1.1,0.7c-0.1,0.3-0.1,0.5-0.1,3.5c0,3,0,3.2,0.1,3.5
			c0.2,0.5,0.5,0.7,1.1,0.7S67.5,185.5,67.7,185z"/>
		<path class="st1" d="M70.8,176.4c0-0.1,0.1-0.2,0.2-0.2h0.9c0.1,0,0.2,0.1,0.2,0.2v4.3c0,0.1,0,0.1,0.1,0.1h2.3
			c0.1,0,0.1,0,0.1-0.1v-4.3c0-0.1,0.1-0.2,0.2-0.2h0.9c0.1,0,0.2,0.1,0.2,0.2v10.3c0,0.1-0.1,0.2-0.2,0.2h-0.9
			c-0.1,0-0.2-0.1-0.2-0.2V182c0-0.1,0-0.1-0.1-0.1h-2.3c-0.1,0-0.1,0-0.1,0.1v4.6c0,0.1-0.1,0.2-0.2,0.2h-0.9
			c-0.1,0-0.2-0.1-0.2-0.2V176.4z"/>
		<path class="st1" d="M77.6,176.4c0-0.1,0.1-0.2,0.2-0.2h1.2c0.1,0,0.2,0,0.2,0.2l2.4,7.9h0.1v-7.9c0-0.1,0.1-0.2,0.2-0.2h0.8
			c0.1,0,0.2,0.1,0.2,0.2v10.3c0,0.1-0.1,0.2-0.2,0.2h-1.1c-0.1,0-0.2,0-0.2-0.2l-2.4-7.9h-0.1v7.9c0,0.1-0.1,0.2-0.2,0.2h-0.8
			c-0.1,0-0.2-0.1-0.2-0.2V176.4z"/>
	</g>
	<g class="st4">
		<path class="st1" d="M86.2,176.4c0-0.1,0.1-0.2,0.2-0.2h0.9c0.1,0,0.2,0.1,0.2,0.2l2.2,10.3c0,0.1,0,0.2-0.1,0.2h-0.9
			c-0.1,0-0.2-0.1-0.2-0.2l-0.5-2.3h-2.3l-0.5,2.3c0,0.1-0.1,0.2-0.2,0.2h-0.9c-0.1,0-0.2-0.1-0.1-0.2L86.2,176.4z M87.8,183.2
			l-0.9-4.6h0l-1,4.6H87.8z"/>
	</g>
	<g class="st4">
		<path class="st1" d="M90.9,185.3c0-0.1,0.1-0.2,0.2-0.2H92c0.1,0,0.2,0.1,0.2,0.2v1.2c0,0.2,0,0.3-0.1,0.4l-0.8,1.4
			c0,0.1-0.1,0.1-0.2,0.1c-0.1,0-0.1-0.1-0.1-0.1V185.3z"/>
	</g>
	<g class="st4">
		<path class="st1" d="M98.7,186.9c-1.6,0-2.4-0.9-2.5-2.7c0-0.1,0-0.2,0.1-0.2l0.9-0.2c0.1,0,0.2,0,0.2,0.1
			c0.1,1.3,0.5,1.8,1.3,1.8s1.2-0.4,1.2-1.8c0-1.2-0.2-1.7-1.1-2l-0.6-0.2c-1.4-0.6-1.9-1.3-1.9-2.9c0-1.8,0.8-2.7,2.4-2.7
			s2.3,0.9,2.4,2.5c0,0.1,0,0.2-0.1,0.2l-0.9,0.1c-0.1,0-0.2,0-0.2-0.1c0-1-0.4-1.6-1.2-1.6c-0.8,0-1.2,0.5-1.2,1.5
			c0,1.1,0.2,1.5,1.1,1.8l0.6,0.2c1.4,0.5,1.8,1.2,1.8,3C101.2,185.9,100.5,186.9,98.7,186.9z"/>
		<path class="st1" d="M102.7,185.4c-0.2-0.5-0.2-0.9-0.2-3.9c0-3,0-3.4,0.2-3.9c0.3-1,1.1-1.6,2.3-1.6s2,0.6,2.3,1.6
			c0.2,0.5,0.2,0.9,0.2,3.9c0,3,0,3.4-0.2,3.9c-0.3,1-1.1,1.6-2.3,1.6S103.1,186.4,102.7,185.4z M106.2,185c0.1-0.3,0.1-0.5,0.1-3.5
			c0-3,0-3.2-0.1-3.5c-0.2-0.5-0.6-0.7-1.1-0.7s-0.9,0.3-1.1,0.7c-0.1,0.3-0.1,0.5-0.1,3.5c0,3,0,3.2,0.1,3.5
			c0.2,0.5,0.5,0.7,1.1,0.7S106,185.5,106.2,185z"/>
		<path class="st1" d="M109.3,184.2v-7.8c0-0.1,0.1-0.2,0.2-0.2h0.9c0.1,0,0.2,0.1,0.2,0.2v8c0,0.9,0.5,1.4,1.2,1.4s1.2-0.5,1.2-1.4
			v-8c0-0.1,0.1-0.2,0.2-0.2h0.9c0.1,0,0.2,0.1,0.2,0.2v7.8c0,1.8-1,2.7-2.5,2.7C110.2,186.9,109.3,186,109.3,184.2z"/>
		<path class="st1" d="M117.5,186.8c-0.1,0-0.2-0.1-0.2-0.2v-9.2c0-0.1,0-0.1-0.1-0.1h-1.7c-0.1,0-0.2-0.1-0.2-0.2v-0.9
			c0-0.1,0.1-0.2,0.2-0.2h4.9c0.1,0,0.2,0.1,0.2,0.2v0.9c0,0.1-0.1,0.2-0.2,0.2h-1.7c-0.1,0-0.1,0-0.1,0.1v9.2
			c0,0.1-0.1,0.2-0.2,0.2H117.5z"/>
		<path class="st1" d="M121.8,176.4c0-0.1,0.1-0.2,0.2-0.2h0.9c0.1,0,0.2,0.1,0.2,0.2v4.3c0,0.1,0,0.1,0.1,0.1h2.3
			c0.1,0,0.1,0,0.1-0.1v-4.3c0-0.1,0.1-0.2,0.2-0.2h0.9c0.1,0,0.2,0.1,0.2,0.2v10.3c0,0.1-0.1,0.2-0.2,0.2h-0.9
			c-0.1,0-0.2-0.1-0.2-0.2V182c0-0.1,0-0.1-0.1-0.1h-2.3c-0.1,0-0.1,0-0.1,0.1v4.6c0,0.1-0.1,0.2-0.2,0.2h-0.9
			c-0.1,0-0.2-0.1-0.2-0.2V176.4z"/>
		<path class="st1" d="M131.6,185.4c-0.2-0.5-0.2-0.9-0.2-3.9c0-3,0-3.4,0.2-3.9c0.3-1,1.1-1.6,2.3-1.6s2,0.6,2.3,1.6
			c0.2,0.5,0.2,0.9,0.2,3.9c0,3,0,3.4-0.2,3.9c-0.3,1-1.1,1.6-2.3,1.6S131.9,186.4,131.6,185.4z M135,185c0.1-0.3,0.1-0.5,0.1-3.5
			c0-3,0-3.2-0.1-3.5c-0.2-0.5-0.6-0.7-1.1-0.7s-0.9,0.3-1.1,0.7c-0.1,0.3-0.1,0.5-0.1,3.5c0,3,0,3.2,0.1,3.5
			c0.2,0.5,0.5,0.7,1.1,0.7S134.9,185.5,135,185z"/>
		<path class="st1" d="M138.1,176.4c0-0.1,0.1-0.2,0.2-0.2h4c0.1,0,0.2,0.1,0.2,0.2v0.9c0,0.1-0.1,0.2-0.2,0.2h-2.8
			c-0.1,0-0.1,0-0.1,0.1v3.4c0,0.1,0,0.1,0.1,0.1h2.4c0.1,0,0.2,0.1,0.2,0.2v0.9c0,0.1-0.1,0.2-0.2,0.2h-2.4c-0.1,0-0.1,0-0.1,0.1
			v4.4c0,0.1-0.1,0.2-0.2,0.2h-0.9c-0.1,0-0.2-0.1-0.2-0.2V176.4z"/>
		<path class="st1" d="M146.6,181.5c0-3,0-3.4,0.2-3.9c0.3-1,1.1-1.6,2.3-1.6c1.5,0,2.3,0.8,2.5,2.3c0,0.1,0,0.2-0.1,0.2l-0.9,0.2
			c-0.1,0-0.2,0-0.2-0.1c-0.1-0.9-0.5-1.4-1.3-1.4c-0.6,0-1,0.3-1.1,0.7c-0.1,0.3-0.1,0.5-0.1,3.5c0,3,0,3.2,0.1,3.5
			c0.2,0.5,0.6,0.7,1.1,0.7c0.6,0,1-0.3,1.1-0.7c0.1-0.3,0.1-0.5,0.1-2.7c0-0.1,0-0.1-0.1-0.1h-1c-0.1,0-0.2-0.1-0.2-0.2v-0.8
			c0-0.1,0.1-0.2,0.2-0.2h2.2c0.1,0,0.2,0.1,0.2,0.2v0.5c0,2.8,0,3.2-0.2,3.7c-0.3,1-1.1,1.6-2.3,1.6s-2-0.6-2.3-1.6
			C146.6,184.9,146.6,184.5,146.6,181.5z"/>
		<path class="st1" d="M153.2,184.2v-7.8c0-0.1,0.1-0.2,0.2-0.2h0.9c0.1,0,0.2,0.1,0.2,0.2v8c0,0.9,0.5,1.4,1.2,1.4
			c0.7,0,1.2-0.5,1.2-1.4v-8c0-0.1,0.1-0.2,0.2-0.2h0.9c0.1,0,0.2,0.1,0.2,0.2v7.8c0,1.8-1,2.7-2.5,2.7
			C154.2,186.9,153.2,186,153.2,184.2z"/>
		<path class="st1" d="M163.9,186.8c-0.1,0-0.1,0-0.2-0.1l-1.3-4.4c-0.1,0-0.3,0-0.4,0h-0.6c-0.1,0-0.1,0-0.1,0.1v4.3
			c0,0.1-0.1,0.2-0.2,0.2h-0.9c-0.1,0-0.2-0.1-0.2-0.2v-10.3c0-0.1,0.1-0.2,0.2-0.2h1.8c1.9,0,2.9,0.8,2.9,3c0,1.4-0.5,2.3-1.3,2.7
			l1.5,4.7c0,0.1,0,0.2-0.1,0.2H163.9z M163.6,179.3c0-1.4-0.5-1.9-1.6-1.9h-0.7c-0.1,0-0.1,0-0.1,0.1v3.6c0,0.1,0,0.1,0.1,0.1h0.7
			C163.1,181.1,163.6,180.7,163.6,179.3z"/>
		<path class="st1" d="M166.6,184.2v-7.8c0-0.1,0.1-0.2,0.2-0.2h0.9c0.1,0,0.2,0.1,0.2,0.2v8c0,0.9,0.5,1.4,1.2,1.4
			c0.7,0,1.2-0.5,1.2-1.4v-8c0-0.1,0.1-0.2,0.2-0.2h0.9c0.1,0,0.2,0.1,0.2,0.2v7.8c0,1.8-1,2.7-2.5,2.7
			C167.5,186.9,166.6,186,166.6,184.2z"/>
		<path class="st1" d="M173.2,181.5c0-3,0-3.4,0.2-3.9c0.3-1,1.1-1.6,2.3-1.6c1.5,0,2.3,0.8,2.5,2.3c0,0.1,0,0.2-0.1,0.2l-0.9,0.2
			c-0.1,0-0.2,0-0.2-0.1c-0.1-0.9-0.5-1.4-1.3-1.4c-0.6,0-1,0.3-1.1,0.7c-0.1,0.3-0.1,0.5-0.1,3.5c0,3,0,3.2,0.1,3.5
			c0.2,0.5,0.6,0.7,1.1,0.7c0.6,0,1-0.3,1.1-0.7c0.1-0.3,0.1-0.5,0.1-2.7c0-0.1,0-0.1-0.1-0.1h-1c-0.1,0-0.2-0.1-0.2-0.2v-0.8
			c0-0.1,0.1-0.2,0.2-0.2h2.2c0.1,0,0.2,0.1,0.2,0.2v0.5c0,2.8,0,3.2-0.2,3.7c-0.3,1-1.1,1.6-2.3,1.6s-2-0.6-2.3-1.6
			C173.2,184.9,173.2,184.5,173.2,181.5z"/>
		<path class="st1" d="M183.7,186.8c-0.1,0-0.1,0-0.2-0.1l-1.3-4.4c-0.1,0-0.3,0-0.4,0h-0.6c-0.1,0-0.1,0-0.1,0.1v4.3
			c0,0.1-0.1,0.2-0.2,0.2H180c-0.1,0-0.2-0.1-0.2-0.2v-10.3c0-0.1,0.1-0.2,0.2-0.2h1.9c1.9,0,2.9,0.8,2.9,3c0,1.4-0.5,2.3-1.3,2.7
			l1.5,4.7c0,0.1,0,0.2-0.1,0.2H183.7z M183.4,179.3c0-1.4-0.5-1.9-1.6-1.9h-0.7c-0.1,0-0.1,0-0.1,0.1v3.6c0,0.1,0,0.1,0.1,0.1h0.7
			C182.9,181.1,183.4,180.7,183.4,179.3z"/>
		<path class="st1" d="M188,176.4c0-0.1,0.1-0.2,0.2-0.2h0.9c0.1,0,0.2,0.1,0.2,0.2l2.2,10.3c0,0.1,0,0.2-0.1,0.2h-0.9
			c-0.1,0-0.2-0.1-0.2-0.2l-0.5-2.3h-2.3l-0.5,2.3c0,0.1-0.1,0.2-0.2,0.2h-0.9c-0.1,0-0.2-0.1-0.1-0.2L188,176.4z M189.6,183.2
			l-0.9-4.6h0l-1,4.6H189.6z"/>
		<path class="st1" d="M192.7,176.4c0-0.1,0.1-0.2,0.2-0.2h1c0.1,0,0.2,0,0.2,0.2l1.9,6.5h0.1l1.9-6.5c0-0.1,0.1-0.2,0.2-0.2h0.9
			c0.1,0,0.2,0.1,0.2,0.2v10.3c0,0.1-0.1,0.2-0.2,0.2h-0.8c-0.1,0-0.2-0.1-0.2-0.2v-7.3H198l-1.6,5.4c0,0.1-0.1,0.2-0.2,0.2h-0.5
			c-0.1,0-0.2-0.1-0.2-0.2l-1.6-5.4h-0.1v7.3c0,0.1-0.1,0.2-0.2,0.2h-0.8c-0.1,0-0.2-0.1-0.2-0.2V176.4z"/>
	</g>
</g>
</svg>
